<svg version="1.1" id="Layer_1" xmlns="http://www.w3.org/2000/svg" xmlns:xlink="http://www.w3.org/1999/xlink" x="0px" y="0px" viewBox="0 0 500 500" style="width: 166px;" xml:space="preserve" data-imageid="architect-77" imageName="Architect" class="illustrations_image">
<style type="text/css">
	.st0_architect-77{fill:#007F68;}
	.st1_architect-77{opacity:0.32;fill:url(#SVGID_1_);enable-background:new    ;}
	.st2_architect-77{opacity:0.32;fill:url(#SVGID_00000182518805223473276270000004176114900498526865_);enable-background:new    ;}
	.st3_architect-77{fill:#68E1FD;}
	.st4_architect-77{fill:#15565E;}
	.st5_architect-77{fill:#3129A3;}
	.st6_architect-77{fill:#3E2928;}
	.st7_architect-77{fill:#FFFEF8;}
	.st8_architect-77{fill:#FFB5A9;}
	.st9_architect-77{fill:#F78B72;}
	.st10_architect-77{fill:#FCB749;}
	.st11_architect-77{opacity:0.32;fill:url(#SVGID_00000179606241326120846710000004689983724503756732_);enable-background:new    ;}
</style>
<path id="field_architect-77" class="st0_architect-77" d="M243.2,403.8L28.8,277.1c-6.8-3.8-12.7-10.1-6-14.2l215.2-124c3.2-2,8.1-3.3,11.4-1.4L474.4,268&#10;&#9;c6.8,4,8,15,1.2,19L271.5,403.6C262.7,408.7,252,408.7,243.2,403.8z"/>
<g id="architect_architect-77">
	
		<linearGradient id="SVGID_1_-architect-77" gradientUnits="userSpaceOnUse" x1="170.7905" y1="183.7997" x2="238.2005" y2="277.9797" gradientTransform="matrix(1 0 0 -1 0 502)">
		<stop offset="0" style="stop-color:#3E2928;stop-opacity:0"/>
		<stop offset="0.98" style="stop-color:#AA003D"/>
	</linearGradient>
	<path class="st1_architect-77" d="M217.4,246.4c-6,3.4-67.7,32.7-72.6,36.2c-4.6,3.3-26.1,19.5-30.7,22.7c8.6,6.1,45.4,32.7,51.6,36.5&#10;&#9;&#9;c4.5-2.4,94-66.8,108.4-75.9C265.5,259.6,238.6,250.2,217.4,246.4z"/>
	
		<linearGradient id="SVGID_00000060021225020778560470000007592834730186822330_-architect-77" gradientUnits="userSpaceOnUse" x1="237.2152" y1="115.9563" x2="258.3152" y2="145.4363" gradientTransform="matrix(1 0 0 -1 0 502)">
		<stop offset="0" style="stop-color:#3E2928;stop-opacity:0"/>
		<stop offset="0.98" style="stop-color:#AA003D"/>
	</linearGradient>
	<path style="opacity:0.32;fill:url(#SVGID_00000060021225020778560470000007592834730186822330_);enable-background:new    ;" d="&#10;&#9;&#9;M266,343L266,343c-2.2,3.8-4.7,7.7-8.9,9.5c-2,0.8-4.1,1.2-6.2,1.2c-3.3,0.1-1.4-3.3-4.4-1.5c-5.4,3.2-21.9,10.1-27,13.7&#10;&#9;&#9;c-4.6,3.3-7.7,4-12.3,7.3c8.6,6.1,23.9,16.2,30.1,20.1c8.3-4.5,53.4-33.9,61.6-38.4L266,343z"/>
	<path class="st3_architect-77 targetColor" d="M245.5,167.8L223,246.4c0,0-5,1.7-5.6,0s25.6-84.5,25.6-84.5L245.5,167.8z" style="fill: rgb(104, 225, 253);"/>
	<path class="st3_architect-77 targetColor" d="M249.4,190.5c0.3,0.8,17.8,85.6,17.8,85.6c1.8,0.8,3.9-0.1,4.7-1.9c0,0,0-0.1,0-0.1l-17-83.6L249.4,190.5z" style="fill: rgb(104, 225, 253);"/>
	<polygon class="st3_architect-77 targetColor" points="232.9,206.4 258.2,221.1 258.2,227.2 231.4,210.8 &#9;" style="fill: rgb(104, 225, 253);"/>
	<path class="st3_architect-77 targetColor" d="M157.9,216.9l-22.5,78.6c0,0-5,1.7-5.6,0s25.6-84.5,25.6-84.5L157.9,216.9z" style="fill: rgb(104, 225, 253);"/>
	<path class="st3_architect-77 targetColor" d="M161.8,239.7c0.3,0.8,17.8,85.6,17.8,85.6c1.8,0.8,3.9,0,4.7-1.8c0,0,0-0.1,0-0.1l-16.9-83.6H161.8z" style="fill: rgb(104, 225, 253);"/>
	<polygon class="st3_architect-77 targetColor" points="145.4,255.6 170.7,270.3 170.7,276.4 143.9,260 &#9;" style="fill: rgb(104, 225, 253);"/>
	<polygon class="st4_architect-77" points="137.4,157.6 248.9,92.6 254,92.6 252.8,97.4 142.1,161.6 &#9;"/>
	<polygon class="st3_architect-77 targetColor" points="161.1,253.4 142.1,158.6 256.6,92.6 271,191.7 &#9;" style="fill: rgb(104, 225, 253);"/>
	<polygon class="st5_architect-77" points="144,168.4 259,101.7 257.3,92.6 254,92.6 141.8,157.6 &#9;"/>
	<polygon class="st4_architect-77" points="141.8,157.6 137.4,157.6 156.1,251.8 161.1,253.4 &#9;"/>
	<path class="st6_architect-77" d="M198.6,212.8l-5.2-4.3v-0.1l-9.4-44.9l55.8-32.6l0.1,0.4l9.1,51.2l-0.1,0.1L198.6,212.8z M193.8,208.2l4.8,4&#10;&#9;&#9;l49.7-30l-9-50.5l-54.9,32.1L193.8,208.2z"/>
	<path class="st6_architect-77" d="M188.5,183.5l-0.2-0.4l16.3-9.2l-1.9-7l0.2-0.1c1.8-0.8,3.8-0.9,5.7-0.3c1.6,0.7,2.9,1.9,3.6,3.5l18-10.8&#10;&#9;&#9;l0.3,0.4l-18.5,11l-0.1-0.2c-0.6-1.6-1.9-2.9-3.4-3.5c-1.7-0.5-3.5-0.5-5.1,0.2l1.9,7L188.5,183.5z"/>
	<path class="st6_architect-77" d="M234.1,157.8l-0.2-0.5c1-0.4,7.6-4.4,9.2-5.4l0,0c0.5-0.3,0.5-0.3,0.6-0.2l0.1,0.2c0,0,0,0.1-0.1,0.2l0,0&#10;&#9;&#9;l-0.3,0.2l0,0C241.5,153.7,234.2,157.8,234.1,157.8z"/>
	
		<rect x="223.2" y="142.1" transform="matrix(0.9887 -0.1498 0.1498 0.9887 -20.3628 35.1921)" class="st6_architect-77" width="0.5" height="21.3"/>
	
		<rect x="188.8" y="186.7" transform="matrix(0.8791 -0.4767 0.4767 0.8791 -64.6639 118.9607)" class="st6_architect-77" width="26.6" height="0.5"/>
	<polygon class="st6_architect-77" points="221.8,175.4 221.5,175 244.9,161.7 245.1,162.1 &#9;"/>
	<path class="st6_architect-77" d="M212.5,204.4l-1.5-6.8l-5.9,3.1v-0.4c-0.5-5.8,4-10.8,4.7-11.6l-1.2-5.4l0.5-0.1l1.3,5.6l-0.1,0.1&#10;&#9;&#9;c-0.1,0.1-4.9,5.1-4.7,10.9l5.8-3l1.5,6.8l5.7-3.4l-2.4-8.5h0.3c0.1,0,6.4-1.1,9.4,4.2l5.4-3.3l-1.2-5.7l0.1-0.1&#10;&#9;&#9;c0,0,4.1-2.6,3.7-9.9l-6.1,3.5l-1.4-8l0.5-0.1l1.2,7.2l6.1-3.6v0.4c0.5,7.2-2.9,10.1-3.7,10.7l1.2,5.7l-6.2,3.7l-0.1-0.2&#10;&#9;&#9;c-2.4-4.6-7.5-4.3-8.7-4.2l2.4,8.3L212.5,204.4z"/>
	<path class="st6_architect-77" d="M206,162.3c-1.1,0-1.9-1.3-1.9-2.8s0.9-2.8,1.9-2.8s2,1.3,2,2.8S207.1,162.3,206,162.3z M206,157&#10;&#9;&#9;c-0.9,0-1.7,1.1-1.7,2.5s0.8,2.6,1.7,2.6s1.7-1.1,1.7-2.6S207,157,206,157L206,157z"/>
	<path class="st6_architect-77" d="M232.3,147.8c-1.1,0-1.9-1.3-1.9-2.8s0.9-2.8,1.9-2.8s1.9,1.2,1.9,2.8S233.4,147.8,232.3,147.8z M232.3,142.4&#10;&#9;&#9;c-0.9,0-1.7,1.1-1.7,2.5s0.8,2.6,1.7,2.6s1.7-1.1,1.7-2.5S233.3,142.4,232.3,142.4z"/>
	<path class="st6_architect-77" d="M226.6,170.3c-1.1,0-1.9-1.2-1.9-2.8s0.9-2.8,1.9-2.8s1.9,1.3,1.9,2.8S227.6,170.3,226.6,170.3z M226.6,165&#10;&#9;&#9;c-0.9,0-1.7,1.1-1.7,2.6s0.8,2.5,1.7,2.5s1.7-1.1,1.7-2.5S227.5,165,226.6,165z"/>
	<path class="st6_architect-77" d="M240.1,179.2c-1.1,0-1.9-1.2-1.9-2.8s0.9-2.8,1.9-2.8s1.9,1.2,1.9,2.8S241.2,179.2,240.1,179.2z M240.1,173.9&#10;&#9;&#9;c-0.9,0-1.7,1.1-1.7,2.5s0.8,2.5,1.7,2.5s1.7-1.1,1.7-2.5S241.1,173.9,240.1,173.9z"/>
	<path class="st6_architect-77" d="M218.9,188.3c-1.1,0-2-1.2-2-2.8s0.9-2.8,2-2.8s1.9,1.2,1.9,2.8S219.9,188.3,218.9,188.3z M218.9,183&#10;&#9;&#9;c-0.9,0-1.7,1.1-1.7,2.5s0.8,2.5,1.7,2.5s1.7-1.1,1.7-2.5S219.8,183,218.9,183L218.9,183z"/>
	<path class="st6_architect-77" d="M199.8,201.4c-1.1,0-1.9-1.2-1.9-2.8s0.9-2.8,1.9-2.8s1.9,1.3,1.9,2.8S200.8,201.4,199.8,201.4z M199.8,196.1&#10;&#9;&#9;c-0.9,0-1.7,1.1-1.7,2.6s0.8,2.5,1.7,2.5s1.7-1.1,1.7-2.5S200.7,196.1,199.8,196.1z"/>
	
		<ellipse transform="matrix(8.837275e-02 -0.9961 0.9961 8.837275e-02 -39.4054 388.3538)" class="st4_architect-77" cx="192.5" cy="215.7" rx="9.1" ry="7"/>
	
		<ellipse transform="matrix(8.837275e-02 -0.9961 0.9961 8.837275e-02 -39.2858 388.2651)" class="st0_architect-77" cx="192.5" cy="215.6" rx="5.4" ry="4.2"/>
	<polygon class="st7_architect-77" points="161.5,146.1 180.1,243.5 187,239.5 168.8,141.7 &#9;"/>
	<path class="st8_architect-77" d="M240.4,193.2c0,0-5.4-2.2-5.6-2.9c-1.1-1.7-2.4-3.3-3.8-4.8c-0.7,0.8-0.8,1.9-0.2,2.8c0.9,1.1,1.6,1.7,1.3,2.1&#10;&#9;&#9;s-11.4-4.6-11.9-4.6s-0.4,1.8,0.9,2.6l2,1.2c0,0-3-0.8-3.2-0.4c-0.1,0.9,0.4,1.7,1.3,1.9c0,0-1.4,0.4-0.2,1.4&#10;&#9;&#9;c0.5,0.5,1.1,0.9,1.8,1.1c0,0-1.3-0.1-0.8,0.9s3.8,0.9,4.5,1.3s10.4,2.6,12.8,2.6S240.4,193.2,240.4,193.2z"/>
	<path class="st6_architect-77" d="M237.5,136.7l18.3-1c0.5,0.8,0.5,1.8,0,2.6l-18.3,1.3l-4.8-1.3L237.5,136.7z"/>
	<path class="st8_architect-77" d="M252.6,138.4c-1.5,0.1-3,0.2-4.5,0.3c0,0.6-2.2,3-3.9,0.5c-1.6-2.4-2.9-1.7-3.1-1.5c0.1,0.3,0.3,0.9,0.6,1.9&#10;&#9;&#9;c1,3.3,5.4,6.9,6.2,7.8s5.3,4.9,5.3,4.9l3.9-1.2C256.2,146.6,254.7,142.4,252.6,138.4z"/>
	<path class="st8_architect-77" d="M244.3,136.3h1.2c1.9-0.2,3.8-0.4,5.6-0.4c-0.3-0.4-0.5-0.8-0.8-1.1c0,0-3.1-1.5-4.2-1.9s-1.6,1.3-1.6,1.3&#10;&#9;&#9;s-0.3-0.4-1.8-0.8s-2.1,1.5-2.1,1.5l-1.1-0.1c-1.1-0.1-2,1.9-2,1.9l6.5-0.3C244.1,136.4,244.2,136.3,244.3,136.3z"/>
	<path class="st9_architect-77" d="M279.5,167.1c-1.4-1-24.7-23.9-24.7-23.9s-5.3,1.8-5.8,5.4c0,0,15.7,24.2,20.6,27.4"/>
	<path class="st5_architect-77" d="M285.5,353.7l5.5-3.1l-1.4-7.9c0,0-8.3,0.8-9,3.7"/>
	<path class="st3_architect-77 targetColor" d="M283.5,353.6c-1.2-0.8-2.6-1.4-3.8-2.1c-3.2-1.8-7.8-3.6-9.8-6.9c-0.8-1.4-0.7-3.1,0.3-4.3&#10;&#9;&#9;c2.9-3.5,9.3,2.3,12.5-1.6c0.6-0.8,0.9-13,0.9-13l12.4,3.3c0,0,2.1,24.5,1.9,26s-4.5,3-4.5,3c-1.3-0.3-2.5-0.7-3.6-1.4&#10;&#9;&#9;c-1.3-0.9-0.1-12.5-1.8-10.8s-2.4,7.9-2.4,7.9C284.9,353.7,284.2,353.7,283.5,353.6z" style="fill: rgb(104, 225, 253);"/>
	<path class="st5_architect-77" d="M261.9,365.6l5.5-3.1l-1.4-7.9c0,0-8.3,0.8-9,3.7"/>
	<path class="st3_architect-77 targetColor" d="M259.8,365.5c-1.2-0.8-2.5-1.4-3.8-2.1c-3.2-1.8-7.8-3.6-9.8-6.9c-0.8-1.3-0.7-3.1,0.2-4.3&#10;&#9;&#9;c2.9-3.5,9.3,2.3,12.5-1.6c0.6-0.8,0.9-13,0.9-13l12.4,3.3c0,0,2.1,24.5,1.9,26s-4.5,3-4.5,3c-1.3-0.3-2.5-0.7-3.6-1.4&#10;&#9;&#9;c-1.3-0.9-0.1-12.5-1.8-10.8s-2.4,7.9-2.4,7.9C261.2,365.6,260.5,365.6,259.8,365.5z" style="fill: rgb(104, 225, 253);"/>
	<path class="st6_architect-77" d="M302.2,285.8l3.6,48.7c0,0-5.8,8-25.3,3.5l0,0l-0.2-32.9"/>
	<path class="st6_architect-77" d="M279.6,295.5c0.4,4.2,0,50.5,0,50.5s-5.4,10.1-28.8,0l0.3-39.3"/>
	<path class="st6_architect-77" d="M300.2,298.3c-6.1,3.5-12.5,6.4-19.2,8.5l-0.1-0.1c-0.7-0.3-1.4,0-1.8,0.6c0,0,0,0,0,0&#10;&#9;&#9;c-4.1,1.2-8.4,2.2-12.6,2.9c-5.5,0.9-10-3.2-15.6-3.5c0.1-21.5-0.1-82.8,9.1-95.7l27-9.1c0.1,2.2,13.2,17.3,12.8,35.7&#10;&#9;&#9;c-0.2,16.4,0.6,32.7,2.5,49"/>
	<path class="st9_architect-77" d="M257.4,186.4l2.5,24.7c0,0,20.2,0.8,28.9-5.2v-20.9"/>
	<path class="st9_architect-77" d="M270.2,163.9c0,0-9.5,2.6-13.4,8.8c-3,4.8-4.6,22.1-4.6,22.1l-16.9-4.9c0,0-0.5,3-3.9,7.2c0,0,10.1,7,19,8.9&#10;&#9;&#9;s18.2-13.1,18.2-13.1s2,6.2,1.6-0.4"/>
	<path class="st10_architect-77" d="M264.1,187.6c2.6-2.4,5-5.1,6-8.6c1.1-3.9-0.3-7.3-1.6-11c-1.4-3.6-2.3-7.4-2.5-11.3&#10;&#9;&#9;c-0.1-3.8,0.3-7.6,0.6-11.4c0-0.2,0-0.3-0.1-0.5c1.3-4.3,3.9-7.9,9-8.4c13.3-1.1,14.1,13.6,14,19.6s-0.7,10.1,3.7,12.6&#10;&#9;&#9;s7.6,9.1,3.4,14.4s-0.4,3.4,2.4,8.1s2.1,10.6-3.7,12.8s-32.6-1.9-35.1-4.4c-0.9-1-1.3-2.3-1.3-3.6&#10;&#9;&#9;C259.5,192.6,261.5,190,264.1,187.6z"/>
</g>
<g id="pencils_architect-77">
	
		<linearGradient id="SVGID_00000163776427235420639920000014904370052654275503_-architect-77" gradientUnits="userSpaceOnUse" x1="366.2242" y1="197.0798" x2="383.0642" y2="220.6098" gradientTransform="matrix(1 0 0 -1 0 502)">
		<stop offset="0" style="stop-color:#3E2928;stop-opacity:0"/>
		<stop offset="0.98" style="stop-color:#AA003D"/>
	</linearGradient>
	<path style="opacity:0.32;fill:url(#SVGID_00000163776427235420639920000014904370052654275503_);enable-background:new    ;" d="&#10;&#9;&#9;M381,315.6c8.3-4.5,37.5-22.9,45.7-27.5L368.1,267l-37.5,20.1C339.3,291.6,368.9,308.1,381,315.6z"/>
	<path class="st3_architect-77 targetColor" d="M358.3,205.8v75.5c0,0,72.5,4,72.5,0v-75.5" style="fill: rgb(104, 225, 253);"/>
	<ellipse class="st3_architect-77 targetColor" cx="394.5" cy="280.6" rx="36.3" ry="16.6" style="fill: rgb(104, 225, 253);"/>
	<ellipse class="st5_architect-77" cx="394.5" cy="205.8" rx="36.3" ry="16.6"/>
	<path class="st9_architect-77" d="M371.9,218.7l0.2,0.1c1.4,0.5,2.8,0.9,4.2,1.3l-9.9-82.6c0,0-2.1-1.1-5,0.9l10.1,80.1&#10;&#9;&#9;C371.7,218.6,371.8,218.6,371.9,218.7z"/>
	<path class="st9_architect-77" d="M383.2,221.2l3.1-77.6c0,0-1.9-1.4-5.1,0.1l-2.5,76.8C380.1,220.9,381.7,221.1,383.2,221.2z"/>
	<path class="st10_architect-77" d="M394.5,222.4l10-80.9l20.2,10.7l-8.2,67.9C409.4,222.2,402,222.9,394.5,222.4z"/>
</g>
</svg>