<svg id="_0470_artificial_intelligence_2" xmlns="http://www.w3.org/2000/svg" viewBox="0 0 500 500" data-imageid="artificial-intelligence-2-53" imageName="Artificial Intelligence 2" class="illustrations_image" style="width: 166px;"><defs><style>.cls-1_artificial-intelligence-2-53{fill:#fff;}.cls-2_artificial-intelligence-2-53{opacity:.46;}.cls-2_artificial-intelligence-2-53,.cls-3_artificial-intelligence-2-53,.cls-4_artificial-intelligence-2-53,.cls-5_artificial-intelligence-2-53{fill:none;}.cls-6_artificial-intelligence-2-53{fill:#a5a5a5;}.cls-3_artificial-intelligence-2-53{opacity:.57;}.cls-7_artificial-intelligence-2-53{fill:#e6e6e6;}.cls-4_artificial-intelligence-2-53{opacity:.08;}.cls-5_artificial-intelligence-2-53{opacity:.3;}.cls-8_artificial-intelligence-2-53{fill:#24285b;}.cls-9_artificial-intelligence-2-53{fill:#000001;}.cls-10_artificial-intelligence-2-53{fill:#ffd200;}.cls-11_artificial-intelligence-2-53{fill:#68e1fd;}</style></defs><g id="bg_artificial-intelligence-2-53" class="cls-5_artificial-intelligence-2-53"><path class="cls-7_artificial-intelligence-2-53" d="m140.57,85.9c-37.97,18.09-66.14,63.95-71.7,119.43-4.68,46.75,6.5,98.41,72.33,113.13,128.09,28.64,248.06,36.8,278.68-40.47,30.63-77.27,21.2-209.63-43.8-218.19-51.68-6.81-161.36-9.23-235.52,26.1Z"/></g><g id="panel1_artificial-intelligence-2-53"><rect class="cls-7_artificial-intelligence-2-53" x="21.81" y="149.48" width="113.18" height="72.13"/><g class="cls-4_artificial-intelligence-2-53"><rect class="cls-9_artificial-intelligence-2-53" x="44.14" y="191.66" width="15.35" height="15.35"/></g><g class="cls-4_artificial-intelligence-2-53"><rect class="cls-9_artificial-intelligence-2-53" x="70.01" y="175.17" width="15.35" height="31.84"/></g><g class="cls-4_artificial-intelligence-2-53"><rect class="cls-9_artificial-intelligence-2-53" x="97.31" y="164.08" width="15.35" height="42.93"/></g></g><g id="ai_artificial-intelligence-2-53"><path class="cls-6_artificial-intelligence-2-53" d="m128.73,430.53v25.25c0,9.03,56.05,16.34,125.19,16.34s125.19-7.32,125.19-16.34v-25.25h-250.38Z"/><ellipse class="cls-7_artificial-intelligence-2-53" cx="253.92" cy="430.53" rx="125.19" ry="16.34"/><path class="cls-11_artificial-intelligence-2-53 targetColor" d="m276.05,332.81s6.58,32.5,6.46,40.48l20.62-2.19s.41-36.06-1.9-43.73l-25.18,5.44Z" style="fill: rgb(104, 225, 253);"/><g class="cls-2_artificial-intelligence-2-53"><path class="cls-1_artificial-intelligence-2-53" d="m276.05,332.81s6.58,32.5,6.46,40.48l20.62-2.19s.41-36.06-1.9-43.73l-25.18,5.44Z"/></g><path class="cls-8_artificial-intelligence-2-53" d="m274.77,334.99c10.08-1.18,20.09-2.86,30.04-5.19-1.08-20.53-3.89-44.88-9.76-72.89l-45.42-3.09s15.05,33.66,25.14,81.17Z"/><path class="cls-11_artificial-intelligence-2-53 targetColor" d="m216.48,335.32s-2.79,33.04-5.14,40.67l20.41,3.67s10.5-34.51,10.42-42.51l-25.7-1.84Z" style="fill: rgb(104, 225, 253);"/><g class="cls-2_artificial-intelligence-2-53"><path class="cls-1_artificial-intelligence-2-53" d="m216.48,335.32s-2.79,33.04-5.14,40.67l20.41,3.67s10.5-34.51,10.42-42.51l-25.7-1.84Z"/></g><path class="cls-8_artificial-intelligence-2-53" d="m215.45,412.98s1.7,8.44,8.18,8.89c6.48.45,8.27,6.75,2.48,8.49-5.8,1.74-20.92-5.52-20.92-5.52l.35-11.86h9.91Z"/><path class="cls-8_artificial-intelligence-2-53" d="m214.65,337.05c10.01,1.69,20.09,2.88,30.29,3.44,4.72-20.01,8.84-44.17,11.06-72.71l-42.73-15.7s5.01,36.53,1.39,84.96Z"/><path class="cls-11_artificial-intelligence-2-53 targetColor" d="m297.5,251.87s-1.1,2.21-2.97,5.64c-5.34,10.05-16.86,30.62-24.45,37.04-2.62,2.21-5.04,3.43-7.18,3.98-6.16,1.66-10.05-2.02-10.05-2.02-1.38-22.91-31.45-40.09-38.23-43.71-.87-.46-1.36-.69-1.36-.69l24.64-.07,59.6-.16Z" style="fill: rgb(104, 225, 253);"/><path class="cls-11_artificial-intelligence-2-53 targetColor" d="m235.13,379.22s-23.49-7.93-25.4-5.58-4.85,47.13-4.85,47.13c0,0,9.69-5.14,13.8-2.79,0,0,13.21-27.9,16.45-38.76Z" style="fill: rgb(104, 225, 253);"/><path class="cls-8_artificial-intelligence-2-53" d="m298.51,413.71s2.69,7.12,9.16,7.57c6.48.45,8.27,6.75,2.48,8.49-5.8,1.74-20.92-5.52-20.92-5.52l.35-11.86,8.92,1.31Z"/><path class="cls-11_artificial-intelligence-2-53 targetColor" d="m306.25,369.73s-24.77-1.03-25.95,1.76c-1.17,2.79,8.55,46.6,8.55,46.6,0,0,7.3-4,11.91-2.9,0,0,5.43-34.13,5.49-45.46Z" style="fill: rgb(104, 225, 253);"/><path class="cls-11_artificial-intelligence-2-53 targetColor" d="m325.58,194.71s9.69,33.04,18.21,56.97l-24.96,9.1s-24.37-46.99-28.19-56.97l34.95-9.1Z" style="fill: rgb(104, 225, 253);"/><g class="cls-4_artificial-intelligence-2-53"><path class="cls-9_artificial-intelligence-2-53" d="m325.58,194.71s9.69,33.04,18.21,56.97l-24.96,9.1s-24.37-46.99-28.19-56.97l34.95-9.1Z"/></g><path class="cls-11_artificial-intelligence-2-53 targetColor" d="m155.55,186.58s-10.28,39.35-5.87,69.01l21.73,4.7s16.45-58.73,19.97-66.07l-35.83-7.64Z" style="fill: rgb(104, 225, 253);"/><g class="cls-2_artificial-intelligence-2-53"><path class="cls-1_artificial-intelligence-2-53" d="m155.55,186.58s-10.28,39.35-5.87,69.01l21.73,4.7s16.45-58.73,19.97-66.07l-35.83-7.64Z"/></g><polygon class="cls-11_artificial-intelligence-2-53 targetColor" points="252.96 49.77 251.49 86.62 271.86 85.98 264.75 59.42 252.96 49.77" style="fill: rgb(104, 225, 253);"/><g class="cls-2_artificial-intelligence-2-53"><polygon class="cls-1_artificial-intelligence-2-53" points="252.96 49.77 251.49 86.62 271.86 85.98 264.75 59.42 252.96 49.77"/></g><g class="cls-4_artificial-intelligence-2-53"><path class="cls-9_artificial-intelligence-2-53" d="m266.45,65.02s-6.41-6.13-13.7-7.94c0,0,7.78,11.48,15.92,17.22l-2.22-9.28Z"/></g><path class="cls-8_artificial-intelligence-2-53" d="m299.46,213.08c10.89-4.55,24.5-15.2,35.52-19.45-1.11-11.74-4.06-17.03-3.3-28.3,4.05-60.48-41.39-75.58-41.39-75.58,0,0-17.4,20.5,0,91.42,2.72,11.09,5.84,21.77,9.17,31.9Z"/><path class="cls-11_artificial-intelligence-2-53 targetColor" d="m307.94,219.14s-.11.05-.16.05c-3.82,1.31-7.68,2.46-11.62,3.29-13.48,2.81-27.58,2.21-41.27,1.33-8.21-.53-16.45-1.08-24.68-1.7-2.37-.18-4.76-.37-7.13-.55-7.61-.62-17.07-1.33-24.45-4.9-.46-.21-.9-.44-1.33-.67-4.46-11.2-9.09-23.95-12.72-36.58-5.57-19.42-8.76-38.55-5.43-51.5,4.09-15.85,17.99-25.69,32.55-31.77,1.93-.81,3.84-1.54,5.77-2.23.02.02.05.02.07,0,17.39-6.14,33.95-7.29,33.95-7.29l20.38-.64c67.4,4.44,51.21,86.03,36.07,133.17Z" style="fill: rgb(104, 225, 253);"/><path class="cls-8_artificial-intelligence-2-53" d="m274.48,38.75s2.67,12.84,1.51,21.72c-.47,3.6-3.83,6.18-7.42,5.66-4.22-.61-6.58-2.19-9.36-5.07-2.72-2.81-7.13-3.22-9.85-6.11-1.3-1.38-2.07-3.16-2.69-4.95-1.01-2.92-1.66-5.97-1.94-9.05-.3-3.34-.04-7.04,2.21-9.53,1.28-1.42,3.07-2.29,4.89-2.85,7.5-2.3,21.22,1.01,22.65,10.17Z"/><g class="cls-4_artificial-intelligence-2-53"><path class="cls-9_artificial-intelligence-2-53" d="m262.9,298.52c-6.16,1.66-10.05-2.02-10.05-2.02-1.38-22.91-31.45-40.09-38.23-43.71-.87-.46-1.36-.69-1.36-.69-2.53-5.18-12.08-29.05-14.63-35.45-.46-.21-.9-.44-1.33-.67-4.46-11.2-9.09-23.95-12.72-36.58.09-10.97.62-21.9,3.08-32.55,3.17-13.66,9.41-26.38,15.57-38.97.92-1.84,1.84-3.73,2.94-5.5,10.17,5.64,17.8,15.67,20.47,26.98,1.73,7.38,1.43,15.07,1.13,22.66-.83,22.15-1.2,45.02,1.96,66.92.14,1.06.3,2.09.48,3.15,1.63,10.26,4.09,20.29,7.68,29.93.53,1.43,1.08,2.85,1.68,4.26,2.12,5.13,4.58,10.12,7.43,14.95,5.13,8.67,11.46,16.72,15.39,26.02.18.41.35.85.51,1.27Z"/></g><path class="cls-8_artificial-intelligence-2-53" d="m195.68,103.47s-40.72,45.03-45.42,90.45l46.2,9.4s32.11-61.86,23.88-81.83c-8.22-19.97-17.62-21.14-24.67-18.01Z"/><path class="cls-10_artificial-intelligence-2-53" d="m274.07,43.89c1.6,7.45.3,16.18-3.72,17.04s-9.23-6.46-10.83-13.92c-1.6-7.45,1.02-12.21,5.04-13.07,4.02-.86,7.91,2.5,9.51,9.95Z"/><path class="cls-8_artificial-intelligence-2-53" d="m171.41,260.29s4.4,16.15.73,14.98c-3.67-1.17-5.58-4.7-5.58-4.7,0,0,1.76,13.51-3.96,13.51s-13.95-5.58-15.42-8.08c-1.47-2.5,2.5-20.41,2.5-20.41l21.44,5.29"/><path class="cls-8_artificial-intelligence-2-53" d="m307.96,218.15c-.07.35-.11.69-.18,1.04-4.12,22.64-10.1,37.59-10.1,37.59-.99.28-2.05.53-3.15.74-14.4,2.94-37.17,1.08-54.96-1.22-14.91-1.93-26.32-4.19-26.32-4.19-2.53-5.18-12.08-29.05-14.63-35.45-.41-1.01-.64-1.59-.64-1.59,9.29,1.98,20.31,3.2,31.74,3.89,37.04,2.28,78.23-.81,78.23-.81Z"/><path class="cls-8_artificial-intelligence-2-53" d="m318.83,260.78s4.7,19.87,9.2,18.11,3.52-8.03,3.52-8.03c0,0,2.35,17.03,6.85,17.23,4.5.2,11.35-3.13,12.73-10.38,1.37-7.24-7.34-26.04-7.34-26.04l-24.96,9.1Z"/><g class="cls-4_artificial-intelligence-2-53"><path class="cls-9_artificial-intelligence-2-53" d="m207.46,100.44c-.46.62-.9,1.29-1.29,1.96-.55-.32-1.1-.62-1.68-.9l2.97-1.06Z"/></g></g><g id="panel2_artificial-intelligence-2-53"><rect class="cls-7_artificial-intelligence-2-53" x="368.77" y="263.54" width="109.42" height="69.63"/><g class="cls-4_artificial-intelligence-2-53"><circle class="cls-9_artificial-intelligence-2-53" cx="424.35" cy="296.48" r="25.69"/></g><g class="cls-2_artificial-intelligence-2-53"><path class="cls-1_artificial-intelligence-2-53" d="m424.35,270.8v25.69l25.15-5.23s-3.51-20.62-25.15-20.46Z"/></g><g class="cls-4_artificial-intelligence-2-53"><path class="cls-9_artificial-intelligence-2-53" d="m424.35,296.48l-14.28,21.35s14.4,10.96,31.07-1.92c0,0,11.41-8.27,8.36-24.66l-25.15,5.23Z"/></g></g><g id="panel3_artificial-intelligence-2-53"><rect class="cls-7_artificial-intelligence-2-53" x="344.18" y="75.74" width="116.05" height="92.84"/><g class="cls-2_artificial-intelligence-2-53"><rect class="cls-1_artificial-intelligence-2-53" x="362.93" y="89.42" width="77.65" height="22.17"/></g><g class="cls-4_artificial-intelligence-2-53"><rect class="cls-9_artificial-intelligence-2-53" x="411.75" y="89.42" width="28.84" height="22.17"/></g><rect class="cls-6_artificial-intelligence-2-53" x="362.93" y="125.52" width="77.65" height="8.81"/><g class="cls-3_artificial-intelligence-2-53"><rect class="cls-6_artificial-intelligence-2-53" x="362.93" y="145.48" width="77.65" height="8.81"/></g></g></svg>