<svg id="_0053_astronaut" xmlns="http://www.w3.org/2000/svg" viewBox="0 0 500 500" data-imageid="astronaut-83" imageName="Astronaut" class="illustrations_image" style="width: 166px;"><defs><style>.cls-1_astronaut-83{fill:#fff;}.cls-2_astronaut-83{opacity:.19;}.cls-2_astronaut-83,.cls-3_astronaut-83,.cls-4_astronaut-83,.cls-5_astronaut-83,.cls-6_astronaut-83,.cls-7_astronaut-83{fill:none;}.cls-3_astronaut-83{opacity:.46;}.cls-8_astronaut-83{fill:#a5a5a5;}.cls-4_astronaut-83{opacity:.13;}.cls-5_astronaut-83{opacity:.29;}.cls-9_astronaut-83{fill:#e6e6e6;}.cls-6_astronaut-83{opacity:.08;}.cls-7_astronaut-83{opacity:.59;}.cls-10_astronaut-83{fill:#24285b;}.cls-11_astronaut-83{fill:#000001;}.cls-12_astronaut-83{fill:#ffd200;}.cls-13_astronaut-83{fill:#68e1fd;}</style></defs><g id="bg_astronaut-83"><g class="cls-2_astronaut-83"><path class="cls-9_astronaut-83" d="m78.36,101.89s-54.1,9.14-53.44,86.56,81.69,51.77,93.15,110.68c11.47,58.9,7.48,141.24,186.34,160.32,178.86,19.08,195.02-166.42,167.56-211.36-27.46-44.94-38.17-94.17-133.33-105.03-95.16-10.86-138.06-126.77-260.29-41.18Z"/></g><g class="cls-4_astronaut-83"><circle class="cls-8_astronaut-83" cx="210.94" cy="109.27" r="4.61"/></g><g class="cls-4_astronaut-83"><circle class="cls-8_astronaut-83" cx="59.37" cy="183.72" r="4.61"/></g><g class="cls-4_astronaut-83"><circle class="cls-8_astronaut-83" cx="225.65" cy="191.94" r="4.61"/></g><g class="cls-4_astronaut-83"><circle class="cls-8_astronaut-83" cx="170.21" cy="285.49" r="4.61"/></g><g class="cls-4_astronaut-83"><circle class="cls-8_astronaut-83" cx="333.11" cy="167.02" r="4.61"/></g><g class="cls-4_astronaut-83"><circle class="cls-8_astronaut-83" cx="454.73" cy="274.34" r="4.61"/></g><g class="cls-4_astronaut-83"><circle class="cls-8_astronaut-83" cx="394.56" cy="412.75" r="4.61"/></g><g class="cls-4_astronaut-83"><circle class="cls-8_astronaut-83" cx="247.49" cy="420.59" r="4.61"/></g></g><g id="astro_astronaut-83"><path class="cls-12_astronaut-83" d="m300.96,193.92s10.6-21.31,39.94-21.27c29.34.04,87.72,22.36,113.86,56.31,23.95,31.11,6.25,133.43-85.33,179.89-15.44,7.83-33.88,6.91-48.58-2.25l-37.71-23.51,17.82-189.17Z"/><path class="cls-13_astronaut-83 targetColor" d="m311.94,400.11l-82.48-1.78c-28.77-.62-56.66,9.94-77.8,29.47l-9.61,8.88-14.98-11.69,4.23-8.22c23.27-45.24,69.9-73.65,120.77-73.59h0s59.87,56.94,59.87,56.94Z" style="fill: rgb(104, 225, 253);"/><g class="cls-6_astronaut-83"><path class="cls-11_astronaut-83" d="m311.94,400.11l-82.48-1.78c-28.77-.62-56.66,9.94-77.8,29.47l-9.61,8.88-14.98-11.69,4.23-8.22c23.27-45.24,69.9-73.65,120.77-73.59h0s59.87,56.94,59.87,56.94Z"/></g><path class="cls-13_astronaut-83 targetColor" d="m320.13,200.65s-43.72-23.71-89.04,4.85c-45.32,28.56-95.1,46.93-135.91,1.3l-10.97,17.86s72.25,95.27,175.45,28.25l60.48-52.26Z" style="fill: rgb(104, 225, 253);"/><g class="cls-3_astronaut-83"><path class="cls-1_astronaut-83" d="m320.13,200.65s-43.72-23.71-89.04,4.85c-45.32,28.56-95.1,46.93-135.91,1.3l-10.97,17.86s72.25,95.27,175.45,28.25l60.48-52.26Z"/></g><circle class="cls-9_astronaut-83" cx="377.1" cy="183.09" r="37.69"/><polygon class="cls-10_astronaut-83" points="341.12 194.3 397.32 214.89 387.84 229.5 337.24 208.17 341.12 194.3"/><path class="cls-13_astronaut-83 targetColor" d="m337.24,208.17s-60.29-33.19-81.55,2.84c-21.26,36.03-4.32,141.28-4.32,141.28l81.21,32.47s112.39-53.89,114.06-111c1.67-57.11-57.33-45.69-109.41-65.59Z" style="fill: rgb(104, 225, 253);"/><path class="cls-12_astronaut-83" d="m365.58,366.35s-43.28-58.83-119.34-60.05l-1.23,13.21s62.15,22.36,87.57,65.25l33-18.41Z"/><path class="cls-13_astronaut-83 targetColor" d="m332.58,384.76s-45.17-71.37-100.17-68.78c-55,2.58-27.4,105.89-27.4,105.89l28.84-2.94s-6.78-28.65-.33-45.6c3.89-10.24,17.84-11.56,23.86-2.4,12.36,18.78,42.84,54.68,75.2,13.83Z" style="fill: rgb(104, 225, 253);"/><g class="cls-6_astronaut-83"><path class="cls-11_astronaut-83" d="m398.92,241.5s-28.79,15.56-23.73,47.82c5.07,32.26-14.41,33.12-36.95,22.6-22.55-10.52-49.58-26.75-49.58-26.75,0,0-15.62,25.47,3.13,30.72,18.75,5.25-9.77,16.21-9.77,16.21,0,0,36.89,24.56,50.56,52.65,0,0,41.45-22.42,49.27-30.09,7.82-7.66,41.75-29.68,41.75-29.68l-24.68-83.49Z"/></g><path class="cls-10_astronaut-83" d="m196.33,406.6l34.84-5.19,7.48,30.88c1.53,6.3-2.21,12.68-8.46,14.42l-27.89,7.79c-3.44.96-5.93-3.27-3.41-5.81l3.04-3.06c4.67-4.7,6.02-11.75,3.43-17.85l-9.03-21.19Z"/><path class="cls-10_astronaut-83" d="m137.66,397.91l26.97,23.39-20.94,25.11c-2.66,4.38-8.31,5.88-12.78,3.37l-26.78-14.98c-3.78-2.12-2.62-7.84,1.68-8.31l17.32-1.93,14.53-26.65Z"/><path class="cls-10_astronaut-83" d="m97.64,241.62l16.56,16.06,19.79-25.63-29.3-21.52c-3.45-2.53-6.48-5.56-9.02-9-5.79-7.83-17.82-22.14-27.16-20.08-7.76,1.7-2.18,8.9,3.41,14.3,3.22,3.11,3.35,8.33.22,11.53-4.3,4.39-5.06,10.43,4.41,17.12,7.43,5.25,14.56,10.9,21.09,17.23Z"/><path class="cls-13_astronaut-83 targetColor" d="m390.1,269.34c-6.05-27.17,25.46-46.11,47-28.47,8.12,6.65,15.41,16.08,18.6,29.34,9.13,37.88,18.26,75.76-30.46,89.39-48.73,13.63-114.87-55-114.87-55l17.11-14.93s43.69,42.27,73.48,31.33c19.84-7.29-5.12-25.9-10.86-51.65Z" style="fill: rgb(104, 225, 253);"/><g class="cls-3_astronaut-83"><path class="cls-1_astronaut-83" d="m390.1,269.34c-6.05-27.17,25.46-46.11,47-28.47,8.12,6.65,15.41,16.08,18.6,29.34,9.13,37.88,18.26,75.76-30.46,89.39-48.73,13.63-113.43-55.71-113.43-55.71l15.68-14.22s43.69,42.27,73.48,31.33c19.84-7.29-5.12-25.9-10.86-51.65Z"/></g><path class="cls-10_astronaut-83" d="m310.37,304.59l36.78,36.07,18.07-27.07-36.39-27.46s-18.05-21.9-32.14-12.18c-14.08,9.72-10.34,26.11,13.67,30.64Z"/><g class="cls-7_astronaut-83"><circle class="cls-1_astronaut-83" cx="366.65" cy="168.63" r="13.84"/></g><circle class="cls-10_astronaut-83" cx="288.99" cy="226.62" r="16.42"/><g class="cls-5_astronaut-83"><circle class="cls-1_astronaut-83" cx="288.99" cy="226.62" r="8.3"/></g></g><g id="planet_astronaut-83"><circle class="cls-12_astronaut-83" cx="105.12" cy="108.39" r="62.03"/><path class="cls-12_astronaut-83" d="m47,86.72s-38.02,1.53-39.98,26.81c-1.96,25.28,117.87,42.21,161.11,36.11,43.24-6.1,46.31-29.04-1.11-47.68,0,0,4.32,23.9-28,22.74-38.02-1.37-107.24-2.83-92.02-37.98Z"/><g class="cls-3_astronaut-83"><path class="cls-1_astronaut-83" d="m47,86.72s-38.02,1.53-39.98,26.81c-1.96,25.28,117.87,42.21,161.11,36.11,43.24-6.1,46.31-29.04-1.11-47.68,0,0,4.32,23.9-28,22.74-38.02-1.37-107.24-2.83-92.02-37.98Z"/></g><g class="cls-6_astronaut-83"><ellipse class="cls-11_astronaut-83" cx="93.07" cy="64.77" rx="13.68" ry="10.35" transform="translate(-1.48 2.19) rotate(-1.33)"/></g><g class="cls-6_astronaut-83"><ellipse class="cls-11_astronaut-83" cx="124.3" cy="66.89" rx="7.22" ry="9.54" transform="translate(-1.47 130.97) rotate(-55.28)"/></g><g class="cls-6_astronaut-83"><ellipse class="cls-11_astronaut-83" cx="110.6" cy="83.48" rx="7.21" ry="5.46" transform="translate(-1.91 2.6) rotate(-1.33)"/></g></g></svg>