<svg version="1.1" id="Layer_1" xmlns="http://www.w3.org/2000/svg" xmlns:xlink="http://www.w3.org/1999/xlink" x="0px" y="0px" viewBox="0 0 500 500" style="width: 166px;" xml:space="preserve" data-imageid="augmented-reality-1-45" imageName="Augmented Reality 1" class="illustrations_image">
<style type="text/css">
	.st0_augmented-reality-1-45{fill:#FFC85A;}
	.st1_augmented-reality-1-45{fill:url(#SVGID_1_);}
	.st2_augmented-reality-1-45{fill:url(#SVGID_00000117646978881904664670000015786294683839103125_);}
	.st3_augmented-reality-1-45{fill:url(#SVGID_00000137110531587702315950000001110287586459044753_);}
	.st4_augmented-reality-1-45{fill:#111224;}
	.st5_augmented-reality-1-45{fill:#FFFFFF;}
	.st6_augmented-reality-1-45{fill:#68E1FD;}
	.st7_augmented-reality-1-45{opacity:0.51;fill:#124568;enable-background:new    ;}
	.st8_augmented-reality-1-45{clip-path:url(#SVGID_00000128468190417519298240000011978811586580419492_);}
	.st9_augmented-reality-1-45{fill:#EE6300;}
	.st10_augmented-reality-1-45{fill:#FBB03B;}
	.st11_augmented-reality-1-45{opacity:0.2;fill:#124568;enable-background:new    ;}
	.st12_augmented-reality-1-45{fill:#FFC285;}
	.st13_augmented-reality-1-45{fill:#6D320B;}
</style>
<g id="background_augmented-reality-1-45">
	<path class="st0_augmented-reality-1-45" d="M242.3,405.4L19,273.4c-7.1-4-13.2-10.5-6.3-14.8l224.1-129.2c3.4-2.1,8.5-3.4,11.9-1.5L483.2,264&#10;&#9;&#9;c7.1,4.1,8.4,15.7,1.3,19.8L271.8,405.2C262.7,410.4,251.5,410.5,242.3,405.4z"/>
	
		<linearGradient id="SVGID_1_-augmented-reality-1-45" gradientUnits="userSpaceOnUse" x1="213.7907" y1="162.9494" x2="246.5207" y2="200.3494" gradientTransform="matrix(1 0 0 -1 0 502)">
		<stop offset="0" style="stop-color:#FFC85A"/>
		<stop offset="1" style="stop-color:#DD6F31"/>
	</linearGradient>
	<polyline class="st1_augmented-reality-1-45" points="209.4,281.5 137.7,318 236.9,376.1 307.3,340.3 &#9;"/>
	
		<linearGradient id="SVGID_00000102518177918897930030000017993591317699187588_-augmented-reality-1-45" gradientUnits="userSpaceOnUse" x1="137.53" y1="231.87" x2="147.54" y2="243.31" gradientTransform="matrix(1 0 0 -1 0 502)">
		<stop offset="0" style="stop-color:#FFC85A"/>
		<stop offset="1" style="stop-color:#DD6F31"/>
	</linearGradient>
	
		<ellipse style="fill:url(#SVGID_00000102518177918897930030000017993591317699187588_);" cx="140.2" cy="267.1" rx="20.7" ry="6.7"/>
	
		<linearGradient id="SVGID_00000130631427859804737100000004922465916884263073_-augmented-reality-1-45" gradientUnits="userSpaceOnUse" x1="85.38" y1="249.39" x2="95.39" y2="260.83" gradientTransform="matrix(1 0 0 -1 0 502)">
		<stop offset="0" style="stop-color:#FFC85A"/>
		<stop offset="1" style="stop-color:#DD6F31"/>
	</linearGradient>
	<ellipse style="fill:url(#SVGID_00000130631427859804737100000004922465916884263073_);" cx="88" cy="249.6" rx="20.7" ry="6.7"/>
</g>
<g id="character_augmented-reality-1-45">
	<polyline class="st4_augmented-reality-1-45" points="297.5,342.6 307.3,340.3 300.1,339.5 296.9,342.6 &#9;"/>
	<polyline class="st4_augmented-reality-1-45" points="292,83.4 300,81.4 296,86 &#9;"/>
	<path class="st5_augmented-reality-1-45" d="M217,294.1l76.8,43.9c9,5.7,17.5,2.2,19.9-3.4L392,145.1c2.6-6.8,1.3-14.7-9.7-20.8l-70.4-41&#10;&#9;&#9;c-7.9-4.6-18-1.9-22.6,5.9c-0.4,0.7-0.7,1.3-1,2.1l-76.5,187.4C209.4,284.5,211.7,291,217,294.1z"/>
	<path class="st6_augmented-reality-1-45 targetColor" d="M217,294.1l76.8,43.9c9,5.7,17.5,2.2,19.9-3.4L392,145.1c2.6-6.8,1.3-14.7-9.7-20.8l-70.4-41&#10;&#9;&#9;c-7.9-4.6-18-1.9-22.6,5.9c-0.4,0.7-0.7,1.3-1,2.1l-76.5,187.4C209.4,284.5,211.7,291,217,294.1z" style="fill: rgb(104, 225, 253);"/>
	<path class="st7_augmented-reality-1-45" d="M217,294.1l76.8,43.9c9,5.7,17.5,2.2,19.9-3.4L392,145.1c2.6-6.8,1.3-14.7-9.7-20.8l-70.4-41&#10;&#9;&#9;c-7.9-4.6-18-1.9-22.6,5.9c-0.4,0.7-0.7,1.3-1,2.1l-76.5,187.4C209.4,284.5,211.7,291,217,294.1z"/>
	<path class="st6_augmented-reality-1-45 targetColor" d="M210,295.8l76.8,43.9c9,5.7,17.5,2.2,19.9-3.5l78.9-191.1c2.4-5.9,2.5-12.2-10.4-19.2l-70.4-41&#10;&#9;&#9;c-7.9-4.6-18-1.9-22.6,5.9c-0.4,0.7-0.7,1.3-1,2.1l-76.5,187.5C202.4,286.2,204.7,292.7,210,295.8z" style="fill: rgb(104, 225, 253);"/>
	<path class="st4_augmented-reality-1-45" d="M213.1,292.4l79.1,45.2c3.2,1.8,7.3,0.7,9.2-2.5c0.1-0.3,0.3-0.5,0.4-0.8L379.7,145c2.1-5.1,0.1-11-4.7-13.7&#10;&#9;&#9;l-73-42.5c-5.4-3.2-12.4-1.3-15.6,4.1c-0.3,0.5-0.5,0.9-0.7,1.4l-76.3,187.2C207.7,285.6,209.3,290.2,213.1,292.4z"/>
	<path class="st6_augmented-reality-1-45 targetColor" d="M319.6,115.8l20.5,11.5c2.9,1.6,5.5-2.8,2.6-4.4l-20.5-11.5C319.3,109.7,316.7,114.2,319.6,115.8L319.6,115.8z&#10;&#9;&#9;" style="fill: rgb(104, 225, 253);"/>
	<g>
		<defs>
			<path id="SVGID_00000160191791944935710120000000976346445559101586__augmented-reality-1-45" d="M106.1,124.5l76,114.3l51.8,58l26.9,22.9l31.7,18.1&#10;&#9;&#9;&#9;&#9;c0,0,5.9,3,9.3-3.4c3.6-6.7,16.3-39.6,16.3-39.6l20.6-29.5l51.6-4.5l6.1-36.6l-38.4-22.8l4.9-56.2l-44.7-7.7l-74.1,13.9"/>
		</defs>
		<clipPath id="SVGID_00000140000018485818020520000004691069776016128689__augmented-reality-1-45">
			<use xlink:href="#SVGID_00000160191791944935710120000000976346445559101586_" style="overflow:visible;"/>
		</clipPath>
		<g style="clip-path:url(#SVGID_00000140000018485818020520000004691069776016128689_);">
			<path class="st9_augmented-reality-1-45" d="M342,379c0,0,13.1,6.3,14.6,15s0.8,21.7,1.9,27.1s6.2,1.6,9.7-5.1s1.4-14.9,6.3-20.2s3.6-9.5-1.4-13.5&#10;&#9;&#9;&#9;&#9;s-14.2-9.4-23.5-18"/>
			<path class="st9_augmented-reality-1-45" d="M390.3,351.6c0,0,14.5-0.1,19.7,7.1s10.3,19.2,13.6,23.5s6.3-1.3,6.5-8.8s-5.3-14-3.2-20.9&#10;&#9;&#9;&#9;&#9;s-0.9-10.2-7.2-11.5s-16.9-2.2-29-5.9"/>
			<path class="st10_augmented-reality-1-45" d="M251.1,255.3c0,0,8.5,80.2,17.8,85.6s62,56.8,68.5,54.9s19.2-28.8,18.1-32.3s-58.8-41.6-59.2-43.2&#10;&#9;&#9;&#9;&#9;s-11.2-60.9-11.2-60.9L251.1,255.3z"/>
			<path class="st11_augmented-reality-1-45" d="M251.1,255.3c0,0,8.5,80.2,17.8,85.6s62,56.8,68.5,54.9s19.2-28.8,18.1-32.3s-58.8-41.6-59.2-43.2&#10;&#9;&#9;&#9;&#9;s-11.2-60.9-11.2-60.9L251.1,255.3z"/>
			<path class="st10_augmented-reality-1-45" d="M260.5,253.3c0,0,28.4,66.1,35.4,74.3c12.5,14.7,93,35.6,98.5,31.5s9.9-22.4,7.7-25.3s-78.1-27.9-78.9-29.3&#10;&#9;&#9;&#9;&#9;s-22.9-44.2-22.9-44.2L260.5,253.3z"/>
			<path class="st12_augmented-reality-1-45" d="M341,227.1c2.6,0.7,5.4,1.3,8.1,1.8c4.6-0.8,9.1-1.9,13.5-3.2c1.8-0.8,3.7-1.4,5.6-1.6&#10;&#9;&#9;&#9;&#9;c1.4-0.2,3.1,0.8,3,2.5c-0.2,1.9-1.5,3.5-3.2,4.1c-1.4,0.7-2.8,1.3-4.3,2c4.7,1.1,9.5,1.9,14.4,2.3c3.1,0.4,2.9,5.2-0.2,4.8&#10;&#9;&#9;&#9;&#9;l-3.3-0.4c1.9,0.6,3.8,1.4,5.7,2.2c2.2,1,2.1,5.1-0.9,4.7c-4-0.5-8-1.3-11.9-2.4c2.5,1.1,5,2.1,7.6,3c2.9,1.1,1.5,5.7-1.5,4.6&#10;&#9;&#9;&#9;&#9;c-3.6-1.3-7.1-2.8-10.6-4.4c1,1.2,2,2.3,2.9,3.6c1.9,2.4-1.6,5.7-3.5,3.3s-3.8-4.6-5.8-6.8c-0.1,0-0.2,0-0.3-0.1&#10;&#9;&#9;&#9;&#9;c-8.3-2-16.6-4.2-24.8-6.5c-3-0.9-1.5-5.5,1.5-4.6l3.8,1c0-0.8,0.3-1.5,0.8-2c-1-0.9-1-2.4-0.1-3.4c0.3-0.3,0.7-0.6,1.1-0.7&#10;&#9;&#9;&#9;&#9;c-0.9-1.1-0.7-2.7,0.4-3.5C339.5,227.1,340.3,227,341,227.1z"/>
			<path class="st13_augmented-reality-1-45" d="M363,235.3c-2.1,3.4-4.7,6.9-9.1,6.9c-0.4,0-0.7-0.3-0.7-0.7c0-0.4,0.3-0.7,0.7-0.7l0,0&#10;&#9;&#9;&#9;&#9;c3.8,0,6.1-3.2,7.9-6.2C362.2,234,363.4,234.6,363,235.3z"/>
			<path class="st13_augmented-reality-1-45" d="M366.4,237.6c3.9,0.7,7.8,1.1,11.7,1.3c0.6,0,0.7,1.1,0,1c-4-0.2-8-0.7-12-1.4&#10;&#9;&#9;&#9;&#9;C365.5,238.5,365.7,237.5,366.4,237.6z"/>
			<path class="st13_augmented-reality-1-45" d="M365.2,242.8c4.6,1.6,9.4,2.6,14.2,2.9c0.6,0,0.7,1.1,0,1c-4.9-0.4-9.8-1.4-14.5-3&#10;&#9;&#9;&#9;&#9;C364.3,243.6,364.5,242.6,365.2,242.8z"/>
			<path class="st13_augmented-reality-1-45" d="M360.8,246.4c3.6,1.7,7.4,3.1,11.2,4.1c0.6,0.2,0.4,1.2-0.2,1c-3.9-1-7.8-2.4-11.4-4.2&#10;&#9;&#9;&#9;&#9;C359.7,247,360.2,246.1,360.8,246.4z"/>
			<path class="st9_augmented-reality-1-45" d="M354.3,196.4c0.7-4.8,1.3-9.7,1.8-14.6c0.7-6.9,1.7-14.2,0.9-21.1c-1.9-2.9-6.7-4.5-9.9-4.6&#10;&#9;&#9;&#9;&#9;c-4-0.1-7.6,2.3-11.4,3.1c-5,1-9.5-0.2-14.4-0.6c-5.2-0.4-10.1,1.3-14.5,3.8c-8.5,4.7-17.9,5.7-26.8,1.2c-5-2.5-8.9-4.6-14.6-4.9&#10;&#9;&#9;&#9;&#9;c-8.8-0.5-17.1,2.9-21.1,11.1c-3.6,7.4-3,15.9,3.6,21.3c3.4,2.7,7.6,3.4,11.8,3.7c3.9,0.3,7.8,1.7,11.7,1.6h0.4&#10;&#9;&#9;&#9;&#9;c3.7-0.1,7.2-1.1,10.9-0.8c4.7,0.4,9.3,1.7,14,2.4c6.2,0.9,11.7-1.1,17.5-3.1c7.4-2.5,11.9-1,18.7,2.1c0.4,0.2,0.8,0.4,1.2,0.5&#10;&#9;&#9;&#9;&#9;c4.7,1.6,9.7,1.9,14.5,0.8C350.6,197.8,352.5,197.2,354.3,196.4z"/>
			<path class="st12_augmented-reality-1-45" d="M201.2,170.8c-1.8-2-3.6-4.1-5.3-6.4c-1.4-4.4-2.5-8.9-3.4-13.4c-0.1-2-0.5-3.9-1.1-5.7&#10;&#9;&#9;&#9;&#9;c-0.5-1.4-2.1-2.4-3.6-1.5c-1.5,1.1-2.4,2.9-2.2,4.8c0,1.6,0.1,3.1,0.2,4.7c-3.2-3.7-6.1-7.6-8.8-11.6c-1.7-2.6-5.9-0.1-4.2,2.4&#10;&#9;&#9;&#9;&#9;c0.6,0.9,1.2,1.9,1.9,2.8c-1.5-1.4-3-2.7-4.6-4c-2-1.5-5.5,0.5-3.8,2.9c2.3,3.3,4.8,6.5,7.6,9.5c-2.1-1.7-4.2-3.5-6.2-5.4&#10;&#9;&#9;&#9;&#9;c-2.3-2.1-5.7,1.3-3.4,3.4c2.8,2.6,5.7,5.1,8.8,7.4c-1.5-0.4-3-0.7-4.5-1c-3-0.6-4.3,4.1-1.3,4.7s5.8,1.2,8.7,2&#10;&#9;&#9;&#9;&#9;c0.1,0.1,0.1,0.2,0.2,0.3c5.6,6.5,11.3,12.8,17.2,19c2.1,2.3,5.5-1.2,3.4-3.4l-2.7-2.9c0.7-0.3,1.2-0.9,1.4-1.7&#10;&#9;&#9;&#9;&#9;c1.3,0.4,2.6-0.2,3.1-1.5c0.1-0.4,0.2-0.9,0.1-1.3c1.4,0.3,2.7-0.6,3-2C201.8,172.1,201.6,171.4,201.2,170.8z"/>
			<path class="st13_augmented-reality-1-45" d="M183.8,155.1c-2,3.4-3.9,7.4-1.9,11.2c0.4,0.8,1.6,0.2,1.2-0.6c-1.7-3.4,0.1-6.9,1.8-9.9&#10;&#9;&#9;&#9;&#9;C185.3,155.1,184.2,154.4,183.8,155.1z"/>
			<path class="st13_augmented-reality-1-45" d="M180.1,153.1c-2.4-3.1-4.6-6.4-6.6-9.8c-0.3-0.6-1.3-0.1-0.9,0.4c2,3.5,4.3,6.8,6.7,10&#10;&#9;&#9;&#9;&#9;C179.8,154.3,180.6,153.6,180.1,153.1z"/>
			<path class="st13_augmented-reality-1-45" d="M176.1,156.6c-3.5-3.3-6.6-7.1-9.1-11.2c-0.3-0.6-1.3-0.1-0.9,0.4c2.6,4.2,5.7,8.1,9.3,11.5&#10;&#9;&#9;&#9;&#9;C175.8,157.7,176.6,157,176.1,156.6z"/>
			<path class="st13_augmented-reality-1-45" d="M175,162.1c-3.2-2.4-6.1-5.1-8.8-8.1c-0.4-0.5-1.2,0.2-0.8,0.7c2.7,3,5.7,5.8,9,8.2&#10;&#9;&#9;&#9;&#9;C174.9,163.4,175.5,162.5,175,162.1z"/>
			<path class="st6_augmented-reality-1-45 targetColor" d="M271.8,187.9l-16.9,0.2c-13.8,2.3-27.9-0.7-39.5-8.5c-6.9-4.7-13.2-10.1-18.9-16.3&#10;&#9;&#9;&#9;&#9;c-4.3,3.9-7.9,8.6-10.6,13.7c-1.5,2.6-2.8,5.3-3.8,8.1c10.1,13.2,32.6,32.7,55.9,36.4c0,0,8.8,34.4,13.4,53&#10;&#9;&#9;&#9;&#9;c0,0,23.4,6.3,51.3-10.7C302.7,263.6,278.9,194.7,271.8,187.9z" style="fill: rgb(104, 225, 253);"/>
			<path class="st6_augmented-reality-1-45 targetColor" d="M263.4,189.1c0,0,36.2,17,90.9,36.9c0,0,0.5,16.8-5,24.3c0,0-56.8-7.5-75.5-28.6" style="fill: rgb(104, 225, 253);"/>
			<path class="st12_augmented-reality-1-45" d="M246.2,177.4c0,0-2.3,17.7,9.8,23s23.1-13.4,16.2-27.3S250,161.8,246.2,177.4z"/>
			<path class="st9_augmented-reality-1-45" d="M277.9,193.4c-1.7,0.8-3.6,0.6-5.2-0.4c-1.9-1.2-2.2-3.5-2.7-5.6c-0.4-2.7-2.3-5-4.9-6&#10;&#9;&#9;&#9;&#9;c-3.2-1.3-6.8-1.1-9.7-2.9c-0.3-0.2-0.6-0.4-0.9-0.6c0.4,0.2,0.8,0.4,1.2,0.6c4.6,1.6,10.8,0.9,12.9,1.5s0.6,8.7,4.7,11.3&#10;&#9;&#9;&#9;&#9;s7.8-19.8,2-24.4s-22.6-8-27.3,2.7c0.4,0.8,0.8,1.6,1.2,2.3c0.7,2.5,2.1,4.7,4.1,6.4c3.1,2.6,6.9,2.5,10.6,3.7&#10;&#9;&#9;&#9;&#9;c2.4,0.6,4.2,2.4,4.9,4.8c0.5,1.9,0.6,4,1.8,5.6c1.8,2.4,5,3.1,7.7,1.9C279,194,278.5,193.1,277.9,193.4z"/>
		</g>
	</g>
	<path class="st6_augmented-reality-1-45 targetColor" d="M244.9,178c1.4,1.4,3.2,2.4,5.1,2.7c4.7,0.8,12.8,0.2,15.6-0.9c2.1-0.9,4.2-0.8,5.6,1.2&#10;&#9;&#9;c1.6,2.3,1.2,4.5,0.5,6.9c-0.7,2.9-10.8,3.9-15.2,4.1s-9.8-1.5-11-3.2S244.9,178,244.9,178z" style="fill: rgb(104, 225, 253);"/>
	<path class="st7_augmented-reality-1-45" d="M271.2,180.9c-1.4-2-3.5-2.1-5.6-1.2l-0.3,0.1c2.6,0.3,4.7,2.2,5.3,4.8c0.4,1.9-0.1,3.8-1.3,5.3&#10;&#9;&#9;c1.3-0.5,2.2-1.2,2.4-2C272.4,185.4,272.8,183.2,271.2,180.9z"/>
</g>
<g id="_3d_augmented-reality-1-45">
	<circle class="st6_augmented-reality-1-45 targetColor" cx="99.4" cy="134.6" r="20.1" style="fill: rgb(104, 225, 253);"/>
	<path class="st7_augmented-reality-1-45" d="M91.2,116.2c-10.2,4.5-14.7,16.4-10.2,26.6c3.2,7.3,10.5,12,18.4,11.9c0.9,0,1.8-0.1,2.6-0.2&#10;&#9;&#9;C90.5,148,85.6,128.2,91.2,116.2z"/>
	<circle class="st6_augmented-reality-1-45 targetColor" cx="146.8" cy="175.3" r="14.6" style="fill: rgb(104, 225, 253);"/>
	<path class="st7_augmented-reality-1-45" d="M140.8,161.9c-7.4,3.2-10.8,11.8-7.5,19.2c2.3,5.4,7.7,8.8,13.5,8.8c0.6,0,1.3-0.1,1.9-0.1&#10;&#9;&#9;C140.3,185,136.8,170.6,140.8,161.9z"/>
</g>
</svg>