<svg id="_0482_ar_2" xmlns="http://www.w3.org/2000/svg" xmlns:xlink="http://www.w3.org/1999/xlink" viewBox="0 0 500 500" data-imageid="augmented-reality-2-69" imageName="Augmented Reality 2" class="illustrations_image" style="width: 166px;"><defs><style>.cls-1_augmented-reality-2-69{opacity:.15;}.cls-1_augmented-reality-2-69,.cls-2_augmented-reality-2-69,.cls-3_augmented-reality-2-69,.cls-4_augmented-reality-2-69,.cls-5_augmented-reality-2-69,.cls-6_augmented-reality-2-69,.cls-7_augmented-reality-2-69,.cls-8_augmented-reality-2-69,.cls-9_augmented-reality-2-69,.cls-10_augmented-reality-2-69,.cls-11_augmented-reality-2-69,.cls-12_augmented-reality-2-69,.cls-13_augmented-reality-2-69,.cls-14_augmented-reality-2-69,.cls-15_augmented-reality-2-69,.cls-16_augmented-reality-2-69,.cls-17_augmented-reality-2-69,.cls-18_augmented-reality-2-69,.cls-19_augmented-reality-2-69,.cls-20_augmented-reality-2-69,.cls-21_augmented-reality-2-69,.cls-22_augmented-reality-2-69,.cls-23_augmented-reality-2-69,.cls-24_augmented-reality-2-69,.cls-25_augmented-reality-2-69,.cls-26_augmented-reality-2-69{stroke-width:0px;}.cls-1_augmented-reality-2-69,.cls-3_augmented-reality-2-69,.cls-10_augmented-reality-2-69,.cls-11_augmented-reality-2-69,.cls-12_augmented-reality-2-69{isolation:isolate;}.cls-1_augmented-reality-2-69,.cls-10_augmented-reality-2-69,.cls-24_augmented-reality-2-69{fill:#fff;}.cls-2_augmented-reality-2-69{fill:url(#linear-gradient);}.cls-3_augmented-reality-2-69{opacity:.18;}.cls-3_augmented-reality-2-69,.cls-11_augmented-reality-2-69,.cls-12_augmented-reality-2-69,.cls-26_augmented-reality-2-69{fill:#68e1fd;}.cls-4_augmented-reality-2-69{fill:url(#linear-gradient-11-augmented-reality-2-69);}.cls-5_augmented-reality-2-69{fill:url(#linear-gradient-12-augmented-reality-2-69);}.cls-6_augmented-reality-2-69{fill:url(#linear-gradient-13-augmented-reality-2-69);}.cls-7_augmented-reality-2-69{fill:url(#linear-gradient-10-augmented-reality-2-69);}.cls-8_augmented-reality-2-69{fill:url(#linear-gradient-15-augmented-reality-2-69);}.cls-9_augmented-reality-2-69{fill:url(#linear-gradient-14-augmented-reality-2-69);}.cls-10_augmented-reality-2-69{opacity:.55;}.cls-11_augmented-reality-2-69{opacity:.35;}.cls-12_augmented-reality-2-69,.cls-27_augmented-reality-2-69{opacity:.82;}.cls-13_augmented-reality-2-69{fill:url(#linear-gradient-4-augmented-reality-2-69);}.cls-14_augmented-reality-2-69{fill:url(#linear-gradient-2-augmented-reality-2-69);}.cls-15_augmented-reality-2-69{fill:url(#linear-gradient-3-augmented-reality-2-69);}.cls-16_augmented-reality-2-69{fill:url(#linear-gradient-8-augmented-reality-2-69);}.cls-17_augmented-reality-2-69{fill:url(#linear-gradient-9-augmented-reality-2-69);}.cls-18_augmented-reality-2-69{fill:url(#linear-gradient-7-augmented-reality-2-69);}.cls-19_augmented-reality-2-69{fill:url(#linear-gradient-5-augmented-reality-2-69);}.cls-20_augmented-reality-2-69{fill:url(#linear-gradient-6-augmented-reality-2-69);}.cls-21_augmented-reality-2-69{fill:#282328;}.cls-22_augmented-reality-2-69{fill:#473f47;}.cls-23_augmented-reality-2-69{fill:#c14834;}.cls-25_augmented-reality-2-69{fill:#ffbbab;}</style><linearGradient id="linear-gradient-augmented-reality-2-69" x1="817.89" y1="3110.19" x2="603.65" y2="2909.42" gradientTransform="translate(-476.86 3349.25) scale(1 -1)" gradientUnits="userSpaceOnUse"><stop offset="0" stop-color="#000"/><stop offset="1" stop-color="#000" stop-opacity="0"/></linearGradient><linearGradient id="linear-gradient-2-augmented-reality-2-69" x1="691.21" y1="3109.35" x2="663.65" y2="2984.37" gradientTransform="translate(-471 3367.76) scale(1 -1)" xlink:href="#linear-gradient-augmented-reality-2-69"/><linearGradient id="linear-gradient-3-augmented-reality-2-69" x1="725.12" y1="3105.95" x2="646.98" y2="2978.65" xlink:href="#linear-gradient-augmented-reality-2-69"/><linearGradient id="linear-gradient-4-augmented-reality-2-69" x1="691.21" y1="3157.96" x2="663.65" y2="3032.99" gradientTransform="translate(-471 3367.76) scale(1 -1)" xlink:href="#linear-gradient-augmented-reality-2-69"/><linearGradient id="linear-gradient-5-augmented-reality-2-69" x1="817.9" y1="3207.41" x2="603.65" y2="3006.64" xlink:href="#linear-gradient-augmented-reality-2-69"/><linearGradient id="linear-gradient-6-augmented-reality-2-69" x1="691.21" y1="3206.56" x2="663.65" y2="3081.58" gradientTransform="translate(-471 3367.76) scale(1 -1)" xlink:href="#linear-gradient-augmented-reality-2-69"/><linearGradient id="linear-gradient-7-augmented-reality-2-69" x1="786.82" y1="3138.3" x2="678.42" y2="3036.91" xlink:href="#linear-gradient-augmented-reality-2-69"/><linearGradient id="linear-gradient-8-augmented-reality-2-69" x1="676.06" y1="3257.69" x2="746.45" y2="3135.05" xlink:href="#linear-gradient-augmented-reality-2-69"/><linearGradient id="linear-gradient-9-augmented-reality-2-69" x1="759.14" y1="3053.1" x2="762.24" y2="3017.91" xlink:href="#linear-gradient-augmented-reality-2-69"/><linearGradient id="linear-gradient-10-augmented-reality-2-69" x1="661.65" y1="3119.43" x2="699.16" y2="3137.68" xlink:href="#linear-gradient-augmented-reality-2-69"/><linearGradient id="linear-gradient-11-augmented-reality-2-69" x1="667.6" y1="3175.72" x2="706.93" y2="3110.77" xlink:href="#linear-gradient-augmented-reality-2-69"/><linearGradient id="linear-gradient-12-augmented-reality-2-69" x1="696.02" y1="3157.14" x2="703.65" y2="3182.76" xlink:href="#linear-gradient-augmented-reality-2-69"/><linearGradient id="linear-gradient-13-augmented-reality-2-69" x1="719.66" y1="3162.9" x2="706.99" y2="3182.04" xlink:href="#linear-gradient-augmented-reality-2-69"/><linearGradient id="linear-gradient-14-augmented-reality-2-69" x1="690.06" y1="3023.4" x2="750.34" y2="3103.29" xlink:href="#linear-gradient-augmented-reality-2-69"/><linearGradient id="linear-gradient-15-augmented-reality-2-69" x1="684.99" y1="3182.06" x2="701.77" y2="3160.3" xlink:href="#linear-gradient-augmented-reality-2-69"/></defs><g id="background_augmented-reality-2-69"><path class="cls-3_augmented-reality-2-69 targetColor" d="M229.85,91.48c-5.83-.62-11.69-.92-17.52-1.07-37.96-.95-78.19,5.33-107.48,29.49-24.89,20.57-38.96,51.79-46.44,83.26-3.15,13.22-5.29,26.7-9.42,39.63-13.03,40.78-48.07,66.95-43.68,113.43,1.94,20.41,11.55,40.3,27.38,53.27,23.9,19.52,57.25,21.16,88.1,21.84l152.2,3.57c43.99,1.03,86.17-3.61,129.44-5.79,34.85-1.75,71.84-17.2,86.16-51.4,8.59-20.54,7.47-43.74,4.98-65.87-1.89-16.6-4.51-33.28-10.44-48.92-17-44.72-59-75.28-102.56-95.07-18.35-8.34-37.43-15.28-54.64-25.78-23.79-14.49-43.85-35.61-70.07-44.92-8.41-2.92-17.14-4.82-26-5.68Z" style="fill: rgb(104, 225, 253);"/></g><g id="screen_augmented-reality-2-69"><polygon class="cls-26_augmented-reality-2-69 targetColor" points="379.55 199.2 293.96 241.15 293.96 153.11 379.55 111.17 379.55 199.2" style="fill: rgb(104, 225, 253);"/><polygon class="cls-11_augmented-reality-2-69 targetColor" points="173.89 199.2 88.32 241.15 88.32 153.11 173.89 111.17 173.89 199.2" style="fill: rgb(104, 225, 253);"/><polygon class="cls-24_augmented-reality-2-69" points="414.66 309.12 329.08 351.06 329.08 263.02 414.66 221.08 414.66 309.12"/><path class="cls-12_augmented-reality-2-69 targetColor" d="M356.61,294.77c-2.92,1.45-6.46.27-7.91-2.65-1.12-2.25-.69-4.97,1.07-6.76.47-.47,1.01-.87,1.61-1.17,2.92-1.45,6.46-.25,7.91,2.67,1.45,2.92.25,6.46-2.67,7.91h0Z" style="fill: rgb(104, 225, 253);"/><path class="cls-10_augmented-reality-2-69" d="M358.1,292.04c-2.91,1.44-6.45.25-7.89-2.67,0,0,0,0,0,0-.62-1.24-.78-2.66-.45-4.01.47-.47,1.01-.87,1.61-1.17,2.92-1.45,6.46-.25,7.9,2.67.61,1.24.77,2.66.45,4-.47.48-1.02.88-1.62,1.18Z"/><path class="cls-12_augmented-reality-2-69 targetColor" d="M370.76,280.19c-1.46.73-3.23.13-3.96-1.32-.56-1.13-.35-2.48.53-3.38.23-.24.51-.44.81-.58,1.45-.72,3.22-.13,3.94,1.33,0,0,0,.01,0,.02.31.62.39,1.32.22,1.99-.2.85-.77,1.57-1.56,1.95Z" style="fill: rgb(104, 225, 253);"/><path class="cls-10_augmented-reality-2-69" d="M371.51,278.87c-1.46.72-3.22.12-3.95-1.33-.31-.62-.39-1.33-.22-2,.23-.24.51-.44.81-.58,1.45-.72,3.22-.13,3.94,1.33,0,0,0,.01,0,.02.31.62.39,1.32.22,1.99-.23.24-.51.44-.81.58Z"/><path class="cls-12_augmented-reality-2-69 targetColor" d="M394,298.53c-1.46.71-3.23.11-3.94-1.36-.54-1.11-.33-2.44.52-3.33.23-.24.51-.44.81-.58,1.46-.72,3.22-.12,3.95,1.33.31.62.39,1.33.22,2-.21.84-.78,1.56-1.56,1.94Z" style="fill: rgb(104, 225, 253);"/><path class="cls-10_augmented-reality-2-69" d="M394.7,297.17c-1.45.72-3.22.13-3.94-1.33,0,0,0-.01,0-.02-.31-.62-.39-1.32-.22-1.99.23-.24.51-.44.81-.58,1.46-.72,3.22-.12,3.95,1.33.31.62.39,1.33.22,2-.24.24-.51.43-.81.58Z"/><g class="cls-27_augmented-reality-2-69"><polygon class="cls-26_augmented-reality-2-69 targetColor" points="357.99 293.55 357.92 292.9 375.68 290.81 370.76 279.49 371.36 279.23 376.62 291.36 357.99 293.55" style="fill: rgb(104, 225, 253);"/></g><polygon class="cls-26_augmented-reality-2-69 targetColor" points="379.65 298.9 375.85 291.22 376.44 290.93 380.01 298.16 390.8 295.97 390.92 296.62 379.65 298.9" style="fill: rgb(104, 225, 253);"/></g><g id="data_augmented-reality-2-69"><path class="cls-26_augmented-reality-2-69 targetColor" d="M269.54,388.64c0,13.69-30.99,24.89-69.22,24.89s-69.23-11.13-69.23-24.89v-40.07c11.5-8,42.41,15.22,69.23,15.22,28.63,0,57.14-27.58,67.65-18.67,3.5,2.99,1.57,40.09,1.57,43.51Z" style="fill: rgb(104, 225, 253);"/><path class="cls-2_augmented-reality-2-69" d="M269.56,388.65c0,13.69-30.99,24.89-69.23,24.89-10.71.04-21.41-.9-31.95-2.81-22.17-4.13-37.28-12.45-37.28-22.03v-40.13c.91-.62,1.92-1.07,2.99-1.33,5.34-1.24,13.12,1.13,22.13,4.53,13.32,4.98,29.34,12.01,44.11,12.01,28.63,0,57.15-27.57,67.66-18.67h0c3.49,3.32,1.57,40.13,1.57,43.54Z"/><ellipse class="cls-26_augmented-reality-2-69 targetColor" cx="200.33" cy="348.57" rx="69.22" ry="24.86" style="fill: rgb(104, 225, 253);"/><ellipse class="cls-14_augmented-reality-2-69" cx="200.33" cy="348.57" rx="47.52" ry="17.06"/><path class="cls-26_augmented-reality-2-69 targetColor" d="M269.54,340.02c0,13.69-30.99,24.89-69.22,24.89s-69.23-11.11-69.23-24.89v-40.07c11.5-8.02,42.41,15.21,69.23,15.21,28.63,0,57.14-27.57,67.65-18.67,3.5,3,1.57,40.09,1.57,43.53Z" style="fill: rgb(104, 225, 253);"/><path class="cls-15_augmented-reality-2-69" d="M269.56,340.02c-.03,1.83-.55,3.62-1.52,5.18-6.62,11.2-34.4,19.67-67.71,19.67-11.21.05-22.4-.99-33.41-3.09-15.63-3.09-27.57-8.28-32.83-14.54-1.83-1.97-2.89-4.53-2.99-7.22v-39.99c.91-.62,1.92-1.07,2.99-1.33,5.75-1.41,14.3,1.52,24.2,5.26,12.88,4.92,28.02,11.2,42.04,11.2,28.63,0,57.15-27.57,67.66-18.67.01.03.01.06,0,.09,3.49,3.55,1.57,40.02,1.57,43.44Z"/><ellipse class="cls-26_augmented-reality-2-69 targetColor" cx="200.33" cy="299.96" rx="69.22" ry="24.86" style="fill: rgb(104, 225, 253);"/><ellipse class="cls-13_augmented-reality-2-69" cx="200.33" cy="299.96" rx="47.52" ry="17.06"/><path class="cls-26_augmented-reality-2-69 targetColor" d="M269.54,291.43c0,13.69-30.99,24.89-69.22,24.89s-69.23-11.13-69.23-24.89v-40.07c11.5-8.02,42.41,15.21,69.23,15.21,28.63,0,57.14-27.57,67.65-18.67,3.5,3,1.57,40.09,1.57,43.53Z" style="fill: rgb(104, 225, 253);"/><path class="cls-19_augmented-reality-2-69" d="M269.56,291.42c-.03,1.84-.55,3.63-1.52,5.19-6.62,11.2-34.4,19.68-67.71,19.68-11.97.07-23.91-1.12-35.62-3.56-14.55-3.11-25.6-8.13-30.62-14.09-1.83-1.97-2.89-4.53-2.99-7.22v-40.05c11.5-8.03,42.41,15.21,69.23,15.21,28.63,0,57.15-27.57,67.66-18.67,3.49,2.99,1.57,40.09,1.57,43.51Z"/><ellipse class="cls-26_augmented-reality-2-69 targetColor" cx="200.33" cy="251.37" rx="69.22" ry="24.86" style="fill: rgb(104, 225, 253);"/><ellipse class="cls-20_augmented-reality-2-69" cx="200.33" cy="251.37" rx="47.52" ry="17.06"/><path class="cls-1_augmented-reality-2-69" d="M168.38,410.68c-22.17-4.13-37.28-12.45-37.28-22.03v-40.08c.91-.62,1.92-1.07,2.99-1.33-1.83-1.97-2.89-4.53-2.99-7.22v-39.99c.91-.62,1.92-1.07,2.99-1.33-1.83-1.97-2.89-4.53-2.99-7.22v-35.65l23.16,14.08s-1.77,21.26,4.02,33.99c1.72,3.73,4.08,6.82,7.37,8.33l-.95.5-10.72,5.69s-5.58,20.34,2.23,33.36c2.71,4.55,7.06,7.9,12.16,9.33l-1.46.67-12.14,5.46s-3.11,39.44,13.59,43.44Z"/></g><g id="character_augmented-reality-2-69"><path class="cls-18_augmented-reality-2-69" d="M195.96,244.11c-3.37.41-7.65,1.15-8.36,4.46-.46,2.15,1.07,4.31,3.01,5.33,2.03.85,4.2,1.27,6.4,1.24,13.54.93,26.95,3.24,40.02,6.88l-6.22,9.73,14.15,1.89c1.34.05,2.64.48,3.73,1.24.85.87,1.45,1.95,1.74,3.14,4.18,12.67,5.74,26.03,7.47,39.27.15,2.7.88,5.33,2.14,7.72,1.42,2.29,4.18,3.98,6.78,3.29,4.43-1.17,4.79-7.27,4.09-11.8-2.67-17.38-6.68-34.53-12.01-51.29-.61-2.23-1.51-4.38-2.69-6.37-1.96-2.69-4.41-4.98-7.22-6.76-7.98-5.7-16.95-11.31-26.87-12.61-9.77-1.21-16.79,3.49-26.16,4.64Z"/><path class="cls-24_augmented-reality-2-69" d="M281.29,181.7s-19.79,27.01-26.51,26.76c-6.72-.25-21.59-4.79-21.59-4.79l-1.68-15.47s15.07,8.53,19.4,7.87c4.33-.66,23.03-19.91,23.03-19.91l6.4,4.83.96.72Z"/><path class="cls-16_augmented-reality-2-69" d="M281.29,181.7s-19.79,27.01-26.51,26.76c-6.72-.25-21.59-4.79-21.59-4.79l1.93-4.38s15.86,7.13,20.19,4.66c4.33-2.48,22.54-23.4,22.54-23.4l2.49.44.96.72Z"/><path class="cls-26_augmented-reality-2-69 targetColor" d="M270.13,326.29c.22.62.58,1.19,1.05,1.66.64.53,1.38.92,2.18,1.13,6.56,2.28,13.49,3.34,20.44,3.14,2.29-.06,4.98-.51,6.01-2.55.63-1.45.46-3.12-.46-4.41-.93-1.24-2.12-2.26-3.5-2.97-3.35-1.93-7.04-3.18-10.88-3.67-1.43,0-2.82-.47-3.95-1.34-.32-.43-.66-.85-1.02-1.24-1.68-1.42-6.77-.98-8.39.55-2.25,2.13-2.51,7.11-1.48,9.72Z" style="fill: rgb(104, 225, 253);"/><path class="cls-17_augmented-reality-2-69" d="M270.13,326.29c.22.62.58,1.19,1.05,1.66.64.53,1.38.92,2.18,1.13,6.56,2.28,13.49,3.34,20.44,3.14,2.29-.06,4.98-.51,6.01-2.55.63-1.45.46-3.12-.46-4.41-.93-1.24-2.12-2.26-3.5-2.97-3.35-1.93-7.04-3.18-10.88-3.67-1.43,0-2.82-.47-3.95-1.34-.32-.43-.66-.85-1.02-1.24-1.68-1.42-6.77-.98-8.39.55-2.25,2.13-2.51,7.11-1.48,9.72Z"/><path class="cls-21_augmented-reality-2-69" d="M262.36,250.64c-.1-.07-5.41,4.77-5.89,5.18-1.8,1.54-4.42,4.9-6.8,4.48-5.71-1.02-11.38-3.73-16.73-5.81l-8.95-3.58c-1.76-.62-3.43-1.46-4.98-2.49-1.56-1.03-2.69-2.59-3.17-4.39-.42-2.69.61-5.4,2.7-7.14,3-2.47,6.5-4.27,10.26-5.26,2.65-.75,5.56,1.95,7.83,3.09l12.63,7.03c2.61,1.46,4.98,2.97,7.24,4.49,2.27,1.52,4.08,2.96,5.85,4.42Z"/><path class="cls-21_augmented-reality-2-69" d="M283.26,315.52c-8.16,6.01-15.74,0-15.74,0l-2.9-33.61c-.77-2.74-1.8-5.41-3.06-7.97-2.46-5.26-6.1-9.87-10.64-13.48,4.19-3.5,8.36-7.06,11.45-9.87,4.36,3.53,8.28,7.57,11.69,12.02,1.61,2.04,2.94,4.28,3.97,6.67,1.34,3.93,5.24,46.23,5.24,46.23Z"/><path class="cls-24_augmented-reality-2-69" d="M243.23,230.22c-.29.52-2.22,1.24-2.76,1.52-1.02.6-1.98,1.24-2.95,1.82-3.73,2.36-7.36,4.9-11.5,6.47-1.21.48-2.46.85-3.73,1.13-.82.16-1.65.28-2.49.36-1.02.11-2.07.16-3.11.22-1.54.07-3.29.11-4.38-1-.76-.94-1.2-2.1-1.24-3.31-.27-1.84-.66-3.73-1.05-5.54h0c-1.24-5.49-2.61-10.93-3.39-16.54-.83-6.07-1.77-12.52-1.24-18.67v-.19c.77-8.03,8.36-10.29,8.36-10.29,0,0,3.02-2,12.45-1.87s10.22,21.72,10.75,26.14c.66,5.69,3.39,11.48,5.4,16.77.27.6,1.23,2.32.88,2.97Z"/><path class="cls-7_augmented-reality-2-69" d="M220.09,214.26c-1.16-3.07-1.41-6.43-2.69-9.46-.26-.74-.68-1.41-1.24-1.95-.59-.54-1.43-.72-2.19-.46-1,.4-1.36,1.62-1.54,2.68-.56,3.15-.74,6.35-.54,9.55.09,3.92,1.28,7.73,3.44,11,.43.83,1.45,1.16,2.28.73.02-.01.04-.02.06-.03,4.02-1.29,7.91-2.95,11.61-4.98-1.33-1.39-3.87-1.05-5.48-2.13-1.71-1.23-3-2.96-3.71-4.94Z"/><path class="cls-4_augmented-reality-2-69" d="M218.55,237.71c.29,1.31.71,2.58,1.24,3.81-1.02.11-2.07.16-3.11.22-1.54.07-3.29.11-4.38-1-.76-.94-1.2-2.1-1.24-3.31-.27-1.84-.66-3.73-1.05-5.54h0v-.34l2.68-4.38,27.46-3.73,2.29,3.73c-.45,3.29-24.3,8.58-23.89,10.53Z"/><path class="cls-25_augmented-reality-2-69" d="M236.62,178.86c-.08,1.73-.32,3.46-.7,5.15-.1.95-.54,1.84-1.24,2.49-.51.35-1.11.56-1.73.61-2.15.28-4.34-.06-6.31-.97-.22-.11-.46-.19-.7-.25-.07,0-.15,0-.22,0h0c-.19-.01-.37.06-.5.2-.17.17-.28.39-.3.63-.22,1.48.6,2.95.63,4.43h0c.04.3-.05.6-.25.82-.23.2-.53.3-.83.3-3.3.29-6.56-1.32-9.15-3.25-.46-.29-.86-.67-1.16-1.13-.24-.56-.34-1.16-.3-1.77.19-4.02.08-8.05-.34-12.05-.28-1.28-.41-2.59-.39-3.91.26-1.77.96-3.44,2.02-4.88.71-1.28,1.66-2.42,2.79-3.36,1.93-1.17,4.14-1.81,6.4-1.85,2.2-.16,5.56-.32,7.47,1.24s2.68,4.85,3.34,6.9c1.1,3.44,1.59,7.04,1.47,10.64Z"/><path class="cls-23_augmented-reality-2-69" d="M230.8,162.37c-.15,3.38-2.91,6.06-6.3,6.1-.85,0-1.88-.12-2.33.58-.31.5-.16,1.24-.5,1.68-.57.81-1.87.35-2.78.73-.81.47-1.29,1.35-1.24,2.29.06.91.06,1.83,0,2.74-.42.15-.85-.24-1.03-.63-.14-.42-.34-.82-.61-1.17-.58-.44-1.41-.32-1.85.26-.02.03-.05.07-.07.1-.35.67-.3,1.48.14,2.1.43.61,1,1.11,1.66,1.46l-2.12,1.24-3.29-8.13c-.62-1.56-1.24-3.44-.22-4.79.21-.2.35-.47.4-.76-.04-.28-.17-.54-.37-.73-2.01-2.49-1.62-6.15.87-8.16.77-.62,1.69-1.04,2.67-1.2.65-.1,1.32-.1,1.95-.26,1.53-.37,2.7-1.62,4.12-2.32,1.76-.69,3.64-.99,5.53-.86,3.6,0,4.69,2.24,6.88,4.68.85.8,1.28,1.95,1.18,3.11-.09,1.24-1.28,2.76-2.7,1.93Z"/><path class="cls-22_augmented-reality-2-69" d="M288.3,249c-.47.91-6.78,6.83-14.25,13.69-4.06,3.73-8.46,7.69-12.45,11.33-3.34,3.15-6.9,6.06-10.64,8.71l-13.84-10.8s5.24-4.19,13.84-11.41c4.19-3.5,8.36-7.06,11.45-9.87,2.75-2.49,4.66-4.43,4.98-5.18.77-1.82-4.32-.25-10.78.8-2.23-1.52-4.63-3.04-7.24-4.49l-12.75-7.03,7.01-4.13s31.04-.27,38.58,5.35c7.54,5.63,7.24,10.67,6.09,13.04Z"/><path class="cls-26_augmented-reality-2-69 targetColor" d="M232.76,274.4l-.71,1.08c-1.01,1.59-2.49,3.26-2.78,5.18-.27,1.66,1.37,1.82,1.85,3.42.87,2.24,2.7,3.97,4.98,4.73,2.2.88,4.58,1.24,6.82,2s4.23,1.87,6.47,2.4c2.24.54,4.66,1.84,6.35.27,1.17-1.08,1.33-2.66,1.79-4.07.59-1.52.66-3.2.21-4.77-.64-1.84-1.64-3.53-2.95-4.98-.71-.96-1.62-1.75-2.66-2.32-1.43-.48-2.92-.73-4.42-.75-3.08-.4-5.88-1.96-7.85-4.36-.35-.52-.81-.94-1.36-1.24-.68-.21-1.41-.16-2.05.15-1.55.65-2.84,1.79-3.7,3.24Z" style="fill: rgb(104, 225, 253);"/><path class="cls-24_augmented-reality-2-69" d="M205.37,196.44s-10.03,42.82,11.11,37.34c21.15-5.48,27.17-10.68,27.17-10.68l-2.91-9.12s-22.32,9.32-24.64,7.09c-2.33-2.23,1.17-21.74,1.17-21.74.28-2.07-.09-4.17-1.07-6.01-2.69-4.14-8.38-6.99-10.83,3.12Z"/><path class="cls-26_augmented-reality-2-69 targetColor" d="M210.29,172.79c-.49,1.11-.49,2.38,0,3.5.77,1.1,1.84,1.96,3.07,2.49h5.95l7.65.61,12.52-6.6s2.71-6.4,0-8.24c-1.68-1.08-3.77-1.32-5.65-.65,0,0,2.55,3.36-12.16,6.83-3.75.91-7.56,1.59-11.39,2.05Z" style="fill: rgb(104, 225, 253);"/><path class="cls-5_augmented-reality-2-69" d="M210.29,172.79c-.49,1.11-.49,2.38,0,3.5.77,1.1,1.84,1.96,3.07,2.49h5.95l7.65.61,12.52-6.6s2.71-6.4,0-8.24c-1.68-1.08-3.77-1.32-5.65-.65,0,0,2.55,3.36-12.16,6.83-3.75.91-7.56,1.59-11.39,2.05Z"/><path class="cls-26_augmented-reality-2-69 targetColor" d="M236.14,167.03l-9.47,3.96c-.72.3-1.54.71-1.72,1.48-.06.45,0,.91.17,1.33l1.85,5.63c3.12-.68,6.2-1.56,9.21-2.61,1.62-.39,3.08-1.26,4.19-2.49,1.46-1.98,1.01-4.72.5-7.12-.19-.91-.54-2.23-1.57-1.93-.45.12-1.03.77-1.48,1.02s-1.11.49-1.69.73Z" style="fill: rgb(104, 225, 253);"/><path class="cls-6_augmented-reality-2-69" d="M236.14,167.03l-9.47,3.96c-.72.3-1.54.71-1.72,1.48-.06.45,0,.91.17,1.33l1.85,5.63c3.12-.68,6.2-1.56,9.21-2.61,1.62-.39,3.08-1.26,4.19-2.49,1.46-1.98,1.01-4.72.5-7.12-.19-.91-.54-2.23-1.57-1.93-.45.12-1.03.77-1.48,1.02s-1.11.49-1.69.73Z"/><path class="cls-26_augmented-reality-2-69 targetColor" d="M250.41,283.76c-1.52-.61-3.16-.88-4.8-.78-1.1.11-2.21.06-3.3-.15-1.17-.43-2.25-1.08-3.19-1.9-1.33-1.03-2.71-1.99-4.13-2.89-.6-.43-1.29-.72-2.02-.83-1.35.03-2.55.84-3.09,2.08-.71,1.4-.8,3.03-.25,4.49.69,1.55,1.85,2.85,3.3,3.73,1.25.91,2.69,1.53,4.21,1.82.81.14,1.64.15,2.49.32,2.02.47,3.61,1.97,5.36,3.06,2.15,1.34,4.62,2.08,7.16,2.17,1.58,0,3.39-.3,4.21-1.66,1.24-2.17-.63-3.93-1.87-5.49s-2.17-3.12-4.08-3.97Z" style="fill: rgb(104, 225, 253);"/><path class="cls-9_augmented-reality-2-69" d="M250.41,283.76c-1.52-.61-3.16-.88-4.8-.78-1.1.11-2.21.06-3.3-.15-1.17-.43-2.25-1.08-3.19-1.9-1.33-1.03-2.71-1.99-4.13-2.89-.6-.43-1.29-.72-2.02-.83-1.35.03-2.55.84-3.09,2.08-.71,1.4-.8,3.03-.25,4.49.69,1.55,1.85,2.85,3.3,3.73,1.25.91,2.69,1.53,4.21,1.82.81.14,1.64.15,2.49.32,2.02.47,3.61,1.97,5.36,3.06,2.15,1.34,4.62,2.08,7.16,2.17,1.58,0,3.39-.3,4.21-1.66,1.24-2.17-.63-3.93-1.87-5.49s-2.17-3.12-4.08-3.97Z"/><path class="cls-8_augmented-reality-2-69" d="M224.79,186.69c-.22,1.48.6,2.95.63,4.43h0c-.54-.08-1.06-.27-1.52-.56-.7-.43-1.34-.95-1.9-1.54-.38-.32-.71-.7-.96-1.13-.19-.36-.33-.75-.4-1.16-.1-.43,0-.88.25-1.24.39-.42,1.06-.34,1.63-.22s1.49.3,2.24.41c.28.01.55.06.82.14-.19-.01-.37.06-.5.2-.19.18-.29.43-.3.68Z"/><path class="cls-25_augmented-reality-2-69" d="M278.41,168.48c.52-.83,1.12-1.62,1.78-2.35.61-.61,1.26-1.18,1.95-1.69.51-.49,1.16-.81,1.85-.92.86-.01,1.6.58,1.78,1.42.05.44.02.88-.09,1.31-.36,2.28-.1,4.61-.29,6.9-.02,2.34-1.04,4.55-2.8,6.09-1.42.9-3.07,1.36-4.74,1.32-.78.11-1.58-.06-2.25-.47-1.75-1.33-1.12-3.91-.47-5.6.87-2.11,1.96-4.12,3.27-5.99Z"/><path class="cls-25_augmented-reality-2-69" d="M243.34,212.33c2.07-2.49,4.51-4.98,7.63-5.91.42-.16.88-.18,1.32-.06.74.43,1.03,1.36.67,2.14-.37.74-.82,1.45-1.34,2.09-1.24,1.99-1.17,4.53-1.73,6.82-.3,1.51-1.08,2.88-2.23,3.91-1.18,1.03-2.84,1.29-4.27.67-1.62-.8-2.49-3.01-2.69-4.73-.2-1.97,1.46-3.49,2.64-4.93Z"/></g></svg>