<svg id="_0099_ar" xmlns="http://www.w3.org/2000/svg" xmlns:xlink="http://www.w3.org/1999/xlink" viewBox="0 0 500 500" data-imageid="augmented-reality-58" imageName="Augmented Reality" class="illustrations_image" style="width: 166px;"><defs><style>.cls-1_augmented-reality-58{fill:url(#linear-gradient);}.cls-1_augmented-reality-58,.cls-2_augmented-reality-58,.cls-3_augmented-reality-58,.cls-4_augmented-reality-58,.cls-5_augmented-reality-58,.cls-6_augmented-reality-58,.cls-7_augmented-reality-58,.cls-8_augmented-reality-58,.cls-9_augmented-reality-58,.cls-10_augmented-reality-58,.cls-11_augmented-reality-58,.cls-12_augmented-reality-58,.cls-13_augmented-reality-58,.cls-14_augmented-reality-58,.cls-15_augmented-reality-58,.cls-16_augmented-reality-58,.cls-17_augmented-reality-58,.cls-18_augmented-reality-58,.cls-19_augmented-reality-58{stroke-width:0px;}.cls-2_augmented-reality-58{opacity:.59;}.cls-2_augmented-reality-58,.cls-3_augmented-reality-58,.cls-14_augmented-reality-58,.cls-18_augmented-reality-58,.cls-19_augmented-reality-58{fill:#68e3fd;}.cls-2_augmented-reality-58,.cls-3_augmented-reality-58,.cls-14_augmented-reality-58,.cls-19_augmented-reality-58{isolation:isolate;}.cls-3_augmented-reality-58{opacity:.18;}.cls-4_augmented-reality-58{fill:url(#linear-gradient-11-augmented-reality-58);}.cls-5_augmented-reality-58{fill:url(#linear-gradient-10-augmented-reality-58);}.cls-6_augmented-reality-58{fill:url(#linear-gradient-4-augmented-reality-58);}.cls-7_augmented-reality-58{fill:url(#linear-gradient-2-augmented-reality-58);}.cls-8_augmented-reality-58{fill:url(#linear-gradient-3-augmented-reality-58);}.cls-9_augmented-reality-58{fill:url(#linear-gradient-8-augmented-reality-58);}.cls-10_augmented-reality-58{fill:url(#linear-gradient-9-augmented-reality-58);}.cls-11_augmented-reality-58{fill:url(#linear-gradient-7-augmented-reality-58);}.cls-12_augmented-reality-58{fill:url(#linear-gradient-5-augmented-reality-58);}.cls-13_augmented-reality-58{fill:url(#linear-gradient-6-augmented-reality-58);}.cls-14_augmented-reality-58{opacity:.98;}.cls-15_augmented-reality-58{fill:#231f20;}.cls-16_augmented-reality-58{fill:#fff;}.cls-17_augmented-reality-58{fill:#ffaa71;}.cls-19_augmented-reality-58{opacity:.43;}</style><linearGradient id="linear-gradient-augmented-reality-58" x1="459.2" y1="2560.78" x2="758.43" y2="2563.4" gradientTransform="translate(-473.92 2802.9) scale(1 -1)" gradientUnits="userSpaceOnUse"><stop offset="0" stop-color="#231f20" stop-opacity="0"/><stop offset="1" stop-color="#231f20"/></linearGradient><linearGradient id="linear-gradient-2-augmented-reality-58" x1="913.81" y1="2440.91" x2="885" y2="2454" xlink:href="#linear-gradient-augmented-reality-58"/><linearGradient id="linear-gradient-3-augmented-reality-58" x1="866.35" y1="2660.56" x2="694.14" y2="2563" gradientTransform="translate(-473.92 2802.9) scale(1 -1)" xlink:href="#linear-gradient-augmented-reality-58"/><linearGradient id="linear-gradient-4-augmented-reality-58" x1="838.22" y1="2583.97" x2="868.58" y2="2583.97" xlink:href="#linear-gradient-augmented-reality-58"/><linearGradient id="linear-gradient-5-augmented-reality-58" x1="867.11" y1="2642.36" x2="929.5" y2="2642.36" xlink:href="#linear-gradient-augmented-reality-58"/><linearGradient id="linear-gradient-6-augmented-reality-58" x1="799.26" y1="2567.77" x2="829.05" y2="2597.88" xlink:href="#linear-gradient-augmented-reality-58"/><linearGradient id="linear-gradient-7-augmented-reality-58" x1="890.85" y1="2565.97" x2="915.65" y2="2581.77" xlink:href="#linear-gradient-augmented-reality-58"/><linearGradient id="linear-gradient-8-augmented-reality-58" x1="935.66" y1="2604.66" x2="865.89" y2="2520.79" xlink:href="#linear-gradient-augmented-reality-58"/><linearGradient id="linear-gradient-9-augmented-reality-58" x1="937.26" y1="2604.68" x2="883.15" y2="2539.62" xlink:href="#linear-gradient-augmented-reality-58"/><linearGradient id="linear-gradient-10-augmented-reality-58" x1="872.82" y1="2504.31" x2="789.88" y2="2537.05" xlink:href="#linear-gradient-augmented-reality-58"/><linearGradient id="linear-gradient-11-augmented-reality-58" x1="862.83" y1="2445.7" x2="783.39" y2="2450.5" gradientTransform="translate(-473.92 2802.9) scale(1 -1)" gradientUnits="userSpaceOnUse"><stop offset=".02" stop-color="#fff" stop-opacity="0"/><stop offset=".58" stop-color="#fff" stop-opacity=".39"/><stop offset=".68" stop-color="#fff" stop-opacity=".68"/><stop offset="1" stop-color="#fff"/></linearGradient></defs><path id="background_augmented-reality-58" class="cls-3_augmented-reality-58" d="M375.94,381.04c-26.74,2-52.59-8.53-78.67-14.74-41.6-9.84-85.03-8.78-126.1,3.07-43.87-7.75-44.06,10.59-91.73,19.97-26.2,5.16-51.31-2.66-65.81-26.17C2.87,345.7.03,324.47,0,303.94c-.06-44.19,13.18-90.3,45.22-120.73,33.28-31.61,76.27-31.43,117.71-44.09,42.95-13.12,83.47-32.93,126.18-46.71,35.31-11.39,80.82-9.29,115.79,2.66,32.03,10.95,60.83,32.15,79.03,60.69,5.89,9.24,10.69,19.25,13.3,29.89,3.09,12.6,3.05,25.74,2.43,38.7-1.83,38.2-8.55,76.16-19.95,112.66-5.72,18.3-14.54,35.08-33.44,41.96-22.48,8.19-47.09.33-70.33,2.07Z"/><g id="signage_augmented-reality-58"><path class="cls-18_augmented-reality-58" d="M64.94,391.81l9.71-1.15,85.98-17.27V119.81c0-8.95-6.35-16.65-15.14-18.35l-52.42-10.18c-12.86-2.51-25.32,5.87-27.83,18.73-.29,1.5-.44,3.02-.44,4.55l.14,277.24Z"/><path class="cls-1_augmented-reality-58" d="M64.94,391.81l9.71-1.15,85.98-17.27V119.81c0-8.95-6.35-16.65-15.14-18.35l-52.42-10.18c-12.86-2.51-25.32,5.87-27.83,18.73-.29,1.5-.44,3.02-.44,4.55l.14,277.24Z"/><path class="cls-18_augmented-reality-58" d="M74.65,390.65l95.8-18.6V118.51c0-8.96-6.35-16.66-15.14-18.37l-52.42-10.18c-12.86-2.5-25.31,5.9-27.81,18.76-.29,1.49-.44,3.01-.44,4.52v277.4Z"/><polygon class="cls-16_augmented-reality-58" points="158.5 192.12 100.65 191.22 100.65 130.02 158.92 136.07 158.5 192.12"/><path class="cls-16_augmented-reality-58" d="M101.35,120.81l2,.08c.02.34.11.68.26.99.18.36.53.61.93.64.25.05.5-.02.69-.18.16-.16.25-.37.24-.6,0-.23-.09-.46-.23-.64-.31-.29-.67-.5-1.07-.63-.76-.28-1.44-.75-1.98-1.36-.39-.5-.6-1.12-.59-1.76,0-.43.1-.86.3-1.24.2-.38.53-.67.92-.83.54-.19,1.11-.23,1.67-.13.74.06,1.43.36,1.97.88.5.58.78,1.32.81,2.08l-1.96-.1c-.03-.32-.15-.63-.33-.9-.18-.2-.42-.33-.69-.36-.3-.09-.63.08-.72.39-.02.07-.03.14-.02.21,0,.14.05.28.15.39.2.19.44.33.7.41.69.25,1.35.59,1.96,1.01.38.28.68.65.86,1.08.18.42.27.87.26,1.32.01.52-.11,1.04-.36,1.5-.21.43-.56.77-1,.96-.51.21-1.08.27-1.62.17-.93-.02-1.8-.44-2.41-1.15-.45-.66-.71-1.43-.76-2.23Z"/><path class="cls-16_augmented-reality-58" d="M112.99,121.55l1.8.93c-.09.56-.28,1.09-.56,1.58-.23.38-.57.68-.97.88-.47.2-.98.25-1.47.16-.64-.05-1.25-.26-1.77-.62-.51-.42-.91-.97-1.15-1.59-.36-.86-.53-1.79-.51-2.73-.09-1.14.23-2.28.89-3.21.62-.7,1.58-1.02,2.5-.83.74.06,1.44.38,1.97.91.54.62.91,1.37,1.07,2.18l-1.81.3c-.05-.21-.11-.42-.21-.61-.1-.2-.24-.38-.41-.53-.16-.13-.36-.21-.56-.23-.45-.07-.9.18-1.07.6-.23.52-.33,1.1-.29,1.67-.05.69.07,1.39.35,2.03.19.36.54.6.94.64.33.07.68-.05.89-.32.22-.36.36-.77.39-1.2Z"/><path class="cls-16_augmented-reality-58" d="M119.82,124.5l-2.3-.29-.31,1.39-2.08-.25,2.48-8.33,2.21.29,2.45,8.89-2.11-.2-.33-1.51ZM119.4,122.56l-.73-3.19-.71,3.01,1.44.18Z"/><path class="cls-16_augmented-reality-58" d="M122.9,117.72l1.88.24,2.43,5.02v-4.71l1.87.24v8.51l-1.87-.23-2.42-4.97v4.69l-1.89-.22v-8.57Z"/><path class="cls-16_augmented-reality-58" d="M133.36,119.1l1.96.25v2.96l2.12.26v-2.98l1.95.25v8.46l-1.95-.24v-3.45l-2.12-.25v3.45l-1.96-.23v-8.49Z"/><path class="cls-16_augmented-reality-58" d="M140.66,120.01l5.12.66v1.78l-3.2-.4v1.32l2.97.38v1.7l-2.97-.37v1.65l3.29.4v1.89l-5.22-.62v-8.39Z"/><path class="cls-16_augmented-reality-58" d="M146.92,129.15v-8.34l3.14.41c.46.04.92.16,1.34.37.33.2.58.5.74.85.19.43.29.91.28,1.38.01.39-.06.79-.21,1.15-.21.53-.69.91-1.26.99.18.09.35.22.5.37.11.15.22.31.3.47.1.17.19.35.25.54l.91,2.51-2.12-.25-1-2.66c-.07-.25-.19-.48-.35-.68-.12-.14-.28-.23-.46-.25h-.13s0,3.36,0,3.36l-1.93-.23ZM148.82,124.43l.79.1c.16.02.33.02.5,0,.13-.02.25-.1.31-.22.08-.14.12-.3.12-.46,0-.23-.06-.46-.18-.64-.19-.19-.44-.3-.7-.31l-.83-.1v1.64Z"/><path class="cls-16_augmented-reality-58" d="M153.46,121.67l4.96.64v1.75l-3.05-.36v1.31l2.88.36v1.68l-2.88-.36v1.61l3.19.39v1.85l-5.1-.62v-8.27Z"/></g><g id="AR_augmented-reality-58"><path class="cls-3_augmented-reality-58" d="M335.93,144.83l-102.62-63.88c-21.72-13.59-50.11-9.3-66.85,10.09-10.61,12.36-19.23,28.03-18.42,45.93,1.97,44.53,7.86,58.93,7.86,58.93l12.54,6.25c13.75,6.88,29.72,7.82,44.18,2.59l118.79-42.89,4.53-17.02Z"/><polygon class="cls-2_augmented-reality-58" points="222.65 115.35 204.65 148.75 235.42 157.92 253.64 123.65 222.65 115.35"/><polygon class="cls-19_augmented-reality-58" points="253.64 123.65 235.42 157.92 249.06 179.96 266.74 143.95 253.64 123.65"/><polygon class="cls-14_augmented-reality-58" points="204.97 148.96 235.31 158.02 249.06 179.96 218.06 169.26 204.97 148.96"/><polygon class="cls-2_augmented-reality-58" points="292.3 113.52 273.85 120.95 283.19 134.96 302.03 127.25 292.3 113.52"/><polygon class="cls-19_augmented-reality-58" points="302.03 127.25 283.19 134.96 281.3 148.42 300.5 139.83 302.03 127.25"/><polygon class="cls-14_augmented-reality-58" points="273.91 121.15 283.11 134.97 281.3 148.42 272.39 133.72 273.91 121.15"/><polygon class="cls-2_augmented-reality-58" points="201.94 97.58 183.49 105.02 192.83 119.03 211.66 111.32 201.94 97.58"/><polygon class="cls-19_augmented-reality-58" points="211.66 111.32 192.83 119.03 190.95 132.49 210.14 123.89 211.66 111.32"/><polygon class="cls-14_augmented-reality-58" points="183.55 105.21 192.75 119.03 190.95 132.49 182.03 117.79 183.55 105.21"/><polygon class="cls-2_augmented-reality-58" points="177.52 191.91 193.44 203.85 200.58 188.6 184.23 176.49 177.52 191.91"/><polygon class="cls-19_augmented-reality-58" points="184.23 176.49 200.58 188.6 213.08 183.24 195.78 171.27 184.23 176.49"/><polygon class="cls-14_augmented-reality-58" points="193.58 203.7 200.63 188.66 213.08 183.24 205.12 198.48 193.58 203.7"/></g><g id="character_augmented-reality-58"><path class="cls-15_augmented-reality-58" d="M393.36,336.56c7.17,13.62,12.86,27.96,17,42.78.5,1.78,1.15,3.8,2.87,4.51.61.23,1.26.34,1.91.35,7.11.46,14.24-.19,21.15-1.92-1.15-4.97-.58-10.14-.4-15.23.5-14.43,3.28-19.2,1.5-38.83-.06-.55-8.95-4.74-9.45-4.96-.31-.11-.65-.15-.98-.12l-11.94.51c-5.22.22-10.92.63-14.74,4.19-3.12,2.89-4.32,7.39-4.15,11.64.17,4.25,1.54,8.34,2.91,12.36"/><path class="cls-7_augmented-reality-58" d="M393.36,336.56c7.17,13.62,12.86,27.96,17,42.78.5,1.78,1.15,3.8,2.87,4.51.61.23,1.26.34,1.91.35,7.11.46,14.24-.19,21.15-1.92-1.15-4.97-.58-10.14-.4-15.23.5-14.43,3.06-19.84,1.15-40.14,0-.56-8.54-3.45-9.05-3.65-.31-.11-.65-.15-.98-.12l-11.94.51c-5.22.22-10.92.63-14.74,4.19-3.12,2.89-4.32,7.39-4.15,11.64.17,4.25,1.54,8.34,2.91,12.36"/><path class="cls-15_augmented-reality-58" d="M370.15,383.94c4.85-.54,20.53-.4,25.33-.94,3.95-8.53,7.39-17.3,10.29-26.24,1.81-5.29,5.04-14.82,8.06-19.51.31-.4.48-.89.47-1.39-.13-.5-.43-.93-.85-1.22-5.86-5.25-11.76-10.54-18.42-14.66-4.61-2.82-14.79-8.74-20.5-7.08-4.28,1.24-3.57,16.12-3.89,20.63-1.19,16.78-1.36,33.61-.5,50.41Z"/><rect class="cls-18_augmented-reality-58" x="311.38" y="141.14" width="46.51" height="67.89" rx="5.3" ry="5.3"/><rect class="cls-8_augmented-reality-58" x="311.38" y="141.14" width="46.51" height="67.89" rx="5.3" ry="5.3"/><rect class="cls-18_augmented-reality-58" x="313.17" y="141.14" width="46.51" height="67.89" rx="5.3" ry="5.3"/><rect class="cls-16_augmented-reality-58" x="318.59" y="145.87" width="37.2" height="55.8" rx="4.3" ry="4.3"/><path class="cls-18_augmented-reality-58" d="M374.79,202.25c-.3-.64-.76-1.18-1.35-1.57-.95-.36-2.01-.33-2.95.07-2.3.69-5.02,1.65-5.87,3.95-.29.9-.38,1.86-.29,2.8.43,8.64,4.53,16.7,9.49,23.77,1.18,1.86,2.68,3.49,4.44,4.8,1.8,1.32,4.12,1.71,6.25,1.04,2.14-.81,3.45-2.89,4.61-4.86,1.45-2.48,5.63-7.68,5.49-10.61-.14-2.92-3.65-2.92-5.84-3.51-8.04-2.18-10.26-9.21-13.99-15.88Z"/><path class="cls-6_augmented-reality-58" d="M374.79,202.25c-.3-.64-.76-1.18-1.35-1.57-.95-.36-2.01-.33-2.95.07-2.3.69-5.02,1.65-5.87,3.95-.29.9-.38,1.86-.29,2.8.43,8.64,4.53,16.7,9.49,23.77,1.18,1.86,2.68,3.49,4.44,4.8,1.8,1.32,4.12,1.71,6.25,1.04,2.14-.81,3.45-2.89,4.61-4.86,1.45-2.48,5.63-7.68,5.49-10.61-.14-2.92-3.65-2.92-5.84-3.51-8.04-2.18-10.26-9.21-13.99-15.88Z"/><path class="cls-17_augmented-reality-58" d="M382.31,164.81c.23,1.28.58,2.54,1.02,3.77.79,3.04,0,6.24-.26,9.37s.1,6.69,2.52,8.69c2.68,2.23,6.75,1.66,9.83,3.29,3.77,2.02,5.12,6.79,5.09,11.07,0,1.99-.2,4.17,1,5.76,1.13,1.2,2.64,1.99,4.27,2.22,2.97.69,6.01,1.05,9.06,1.08,1.42.12,2.85-.17,4.11-.84,1.07-.81,1.87-1.92,2.3-3.19,2.8-6.71,1.7-14.31,1.95-21.58.14-4.21.75-8.45.08-12.67-.59-3-1.52-5.93-2.78-8.72-1.6-4.43-3.81-8.63-6.56-12.46-2.89-3.71-9.44-12.52-14.11-13.16-5.38-.75-9.7,8.06-11.89,13.32-.99,2.3-1.15,4.47-2.6,6.74-1.45,2.27-3.26,4.51-3.04,7.3Z"/><path class="cls-15_augmented-reality-58" d="M407.2,128.2c5.76-1.08,11.72-.03,16.77,2.96,4.99,3,9.33,6.98,12.76,11.69,3.32,4.33,6.53,9.33,11.71,11,1.4.44,2.88.62,4.24,1.15,1.42.48,2.5,1.65,2.87,3.1.35,2.2-1.74,3.94-3.58,5.18,2.61.41,3.58,4.04,2.3,6.37-1.28,2.33-3.81,3.59-6.22,4.68,1.75,1.36,2.06,3.88.7,5.62-1.3,1.67-3.67,2.04-5.42.85,1.65,1.97,0,5.22-2.41,6.09-2.41.88-5.08.13-7.52-.62.31,3.35-2.71,6.36-6.02,6.91-3.32.55-6.68-.85-9.41-2.82-2.73-1.97-4.97-4.51-7.53-6.69,2.59-2.42,4.33-5.62,4.94-9.11.34-1.41.2-2.9-.4-4.21-.67-1.3-2.18-1.93-3.58-1.49-1.23.54-1.7,1.99-2.3,3.2-.6,1.21-1.85,2.42-3.11,1.93-.97-.37-1.31-1.51-1.52-2.52-1.27-6.47-1.29-13.67-5.49-18.75-1.5-1.82-3.45-3.26-4.61-5.31-4.69-8.11,5.69-17.63,12.84-19.21Z"/><path class="cls-12_augmented-reality-58" d="M407.2,128.2c5.76-1.08,11.72-.03,16.77,2.96,4.99,3,9.33,6.98,12.76,11.69,3.32,4.33,6.53,9.33,11.71,11,1.4.44,2.88.62,4.24,1.15,1.42.48,2.5,1.65,2.87,3.1.35,2.2-1.74,3.94-3.58,5.18,2.61.41,3.58,4.04,2.3,6.37-1.28,2.33-3.81,3.59-6.22,4.68,1.75,1.36,2.06,3.88.7,5.62-1.3,1.67-3.67,2.04-5.42.85,1.65,1.97,0,5.22-2.41,6.09-2.41.88-5.08.13-7.52-.62.31,3.35-2.71,6.36-6.02,6.91-3.32.55-6.68-.85-9.41-2.82-2.73-1.97-4.97-4.51-7.53-6.69,2.59-2.42,4.33-5.62,4.94-9.11.34-1.41.2-2.9-.4-4.21-.67-1.3-2.18-1.93-3.58-1.49-1.23.54-1.7,1.99-2.3,3.2-.6,1.21-1.85,2.42-3.11,1.93-.97-.37-1.31-1.51-1.52-2.52-1.27-6.47-1.29-13.67-5.49-18.75-1.5-1.82-3.45-3.26-4.61-5.31-4.69-8.11,5.69-17.63,12.84-19.21Z"/><path class="cls-18_augmented-reality-58" d="M469.13,238.86c-1.27,6.6-5.58,14.07-12.3,13.74-3.71-.18-7.28-2.86-10.86-1.88.07,7.77-2.04,15.36-4.1,22.85-4.77,17.11.26,37.52-4.49,54.63-.66,2.3-22.55,8.8-28.06,7.43-3.24-.81-17.66-1.98-28.84-4.5h0c-7.8-1.76-14.01-4.17-13.75-7.55,1.09-14.2,7.71-49.32,8.81-63.52l-2.41,1.15c-5.91,2.67-12.04,4.82-18.32,6.44-5.2,1.36-11.4,2.11-15.37-1.52-1.6-1.69-2.86-3.68-3.7-5.86-6.5-14.2-13.03-28.4-19.58-42.6-.51-.91-.81-1.92-.88-2.96,0-3.83,5.35-4.99,7.65-8.06.54.28,1.05.6,1.54.96,3.04,2.21,5.08,5.69,7.17,8.88,4.91,7.56,10.88,14.39,17.71,20.28.6.61,1.36,1.06,2.19,1.29h.23c.83.02,1.65-.14,2.41-.48,12.57-4.66,22.52-13.08,31.6-22.73,7.32-7.78,17.84-11.71,28.46-10.63,1.21.14,2.43.18,3.65.12,2.82-.17,5.62-.46,8.43-.76,4.67-.57,9.38-.84,14.08-.81,7.53.18,15.34,2.05,20.95,7.08,5.29,4.72,7.88,11.6,8.38,18.75.24,3.44.04,6.9-.61,10.29Z"/><path class="cls-13_augmented-reality-58" d="M351.78,237.99c-.25.15-.51.29-.78.4-8.15,3.6-15.89-3.78-20.73-9.21l-9.85-11.12c-1.28-1.45-2.64-3.3-1.99-5.12.82-2.3,4.18-2.57,5.49-4.61.15-.28.32-.54.51-.79,3.04,2.21,5.08,5.69,7.17,8.88,4.91,7.56,10.88,14.39,17.71,20.28.6.61,1.36,1.06,2.19,1.29h.28Z"/><path class="cls-17_augmented-reality-58" d="M370.32,192.67c-1.45-4.78-4.44-8.95-8.51-11.85-.76.76-1.06,1.87-.79,2.91.18,1.04.64,2.02.82,3.05.76,4.33-3.27,8.59-2.04,12.8.63,1.73,1.81,3.2,3.35,4.19,1.2,1.27,3.17,1.39,4.51.29,1.37-.85,4.49-2.53,4.61-4.34.07-1-.76-2.46-1.01-3.45-.31-1.17-.58-2.41-.93-3.6Z"/><path class="cls-17_augmented-reality-58" d="M315.37,192.47c.59.56,1.55,0,2.08-.6,1.43-1.69,2.03-3.98,3.52-5.63.53-.64,1.25-1.09,2.06-1.28.83-.18,1.68.17,2.14.88.34.96.25,2.02-.25,2.91-1.72,4.61-1.87,9.67-1.82,14.6,0,2.74,0,5.67-1.45,7.95-.67.98-1.53,1.81-2.53,2.44-.64.53-1.49.72-2.3.53-.4-.18-.75-.46-1.01-.82-4.87-5.57-6.61-13.43-5.76-20.73.37-3.29-1.09-6.84,1.36-9.06-.37,1.57.16,6.71,4,8.85"/><path class="cls-17_augmented-reality-58" d="M411.83,172.59c.76.24,1.27.95,1.26,1.75-.03.78-.25,1.53-.63,2.21-.45,1.06-1.08,2.03-1.87,2.88-.79.85-1.93,1.3-3.09,1.23-.3-.02-.59-.12-.83-.3-.37-.32-.59-.77-.6-1.26-.17-1.65.94-2.71,2.03-3.74,1.08-1.04,2.21-3.1,3.73-2.78Z"/><path class="cls-11_augmented-reality-58" d="M445.94,250.7s-17.27-9.85-21.21-16.83c-3.94-6.99-18.99-30.21-23.25-27.11-4.26,3.11-8.85-.16-15.72,8.06-6.31,7.52,34.69,58.66,58.17,48.12,2.11-.98,2-9.65,2-12.24Z"/><path class="cls-9_augmented-reality-58" d="M456.13,215.83c-3.24-.24-6.52.09-9.73-.43-5.65-.91-14.01-12.98-19.58-11.78-4.61.98-8.26.51-13.75.5-.12,2.43,15.59,15.04,20.8,18.37,5.2,3.33,9.21,8.39,13.6,12.92,4.39,4.53,9.48,8.77,15.65,9.85,1.53.26,3.45.16,4.21-1.15.2-.39.34-.81.41-1.24,1.28-6.05,1.59-12.27.92-18.42-.69-6-7.13-8.24-12.54-8.6Z"/><path class="cls-10_augmented-reality-58" d="M469.74,229.03c-.12.73-.26,1.46-.42,2.17-.05.47-.18.93-.38,1.35-.81,1.36-2.78,1.48-4.36,1.18-6.42-1.09-11.75-5.42-16.24-10.04-4.49-4.62-8.63-9.73-14.13-13.19-2.07-1.3-5.74-4-9.48-6.97,4.85-.58,9.73-.85,14.62-.82,7.82.19,15.92,2.09,21.74,7.23,5.46,4.81,8.13,11.82,8.65,19.09Z"/><path class="cls-5_augmented-reality-58" d="M391.64,261.99l-1.83,37.4c-.44,8.65-.86,17.34-2.83,25.77-.5,2.15-1.3,4.54-3.28,5.52-1.01.44-2.12.58-3.21.41h0c-7.8-1.76-14.01-4.17-13.75-7.55,1.09-14.2,7.71-49.32,8.81-63.52l-2.41,1.15c1.44-.77,2.94-1.45,4.47-2.03,3.54-1.57,7.01-3.21,10.64-4.61.45-.21.95-.28,1.44-.18.42.17.76.49.97.9,1.17,1.96,1.11,4.43.99,6.74Z"/><path class="cls-4_augmented-reality-58" d="M380.48,331.09l-.68,52.73-9.65.17s-1.49-49.61.16-55.82l10.17,2.92Z"/></g></svg>