<svg version="1.1" id="Layer_1" xmlns="http://www.w3.org/2000/svg" xmlns:xlink="http://www.w3.org/1999/xlink" x="0px" y="0px" viewBox="0 0 500 500" style="width: 166px;" xml:space="preserve" data-imageid="banker-17" imageName="Banker" class="illustrations_image">
<style type="text/css">
	.st0_banker-17{fill:#093F68;}
	.st1_banker-17{fill:#68E1FD;}
	.st2_banker-17{fill:#FFC9B0;}
	.st3_banker-17{fill:#725858;}
	.st4_banker-17{fill:#F56132;}
	.st5_banker-17{fill:#70CC40;}
	.st6_banker-17{fill:#FFBC0E;}
</style>
<g id="character_banker-17">
	<rect x="204.7" y="273" class="st0_banker-17" width="127.4" height="146.6"/>
	<path class="st0_banker-17" d="M332.1,421.5H204.7c-1,0-1.8-0.8-1.8-1.8V273c0-1,0.8-1.8,1.8-1.8h127.4c1,0,1.8,0.8,1.8,1.8v146.6&#10;&#9;&#9;C333.9,420.6,333.1,421.5,332.1,421.5z M206.5,417.8h123.7V274.9H206.5L206.5,417.8z"/>
	<path class="st1_banker-17 targetColor" d="M314.8,273v14.8c0,25.6-20.7,46.4-46.3,46.4c0,0-0.1,0-0.1,0c-3.1,0-6.3-0.3-9.3-0.9&#10;&#9;&#9;c-21.6-4.4-37-23.4-37-45.4V273H314.8z" style="fill: rgb(104, 225, 253);"/>
	<path class="st0_banker-17" d="M268.4,336c-3.3,0-6.5-0.4-9.7-1c-22.4-4.6-38.5-24.4-38.5-47.2V273c0-1,0.8-1.8,1.8-1.8h92.7&#10;&#9;&#9;c1,0,1.8,0.8,1.8,1.8v0v14.8C316.6,314.4,295,336,268.4,336C268.4,336,268.4,336,268.4,336z M223.9,274.8v13&#10;&#9;&#9;c0,21.1,14.8,39.4,35.5,43.6c6.2,1.3,12.6,1.2,18.8-0.2c20.4-4.5,34.8-22.6,34.7-43.4v-13H223.9z"/>
	<path class="st2_banker-17" d="M256.3,262h24.1l0,0v18.6c0,3.1-2.5,5.6-5.6,5.6h-13c-3.1,0-5.6-2.5-5.6-5.6V262L256.3,262z"/>
	<path class="st0_banker-17" d="M270.2,288h-3.6c-6.7,0-12.1-5.4-12.1-12.1V262c0-1,0.8-1.8,1.8-1.8l0,0h24.1c1,0,1.8,0.8,1.8,1.8c0,0,0,0,0,0&#10;&#9;&#9;v13.9C282.3,282.6,276.9,288,270.2,288C270.2,288,270.2,288,270.2,288z M258.2,263.9v12c0,4.6,3.8,8.4,8.4,8.4h3.6&#10;&#9;&#9;c4.6,0,8.4-3.8,8.4-8.4v-12H258.2z"/>
	<path class="st3_banker-17" d="M183.5,204.9c-1.2,0-6.4-29-7-31.9c-3-13.5-7.6-27.9-5-41.6c1-5.2,2.4-10.4,5.4-14.7s8.1-7.6,13.3-7.1&#10;&#9;&#9;c-1.1-0.1,6.6-14.6,7.6-15.7c3.8-4.2,9-8,13.4-11.5c10.7-8.4,24-13.3,37.3-15.3c21.9-3.1,44.2,0,64.4,8.9&#10;&#9;&#9;c15.1,6.6,29.2,16.5,38.5,30.2c19,27.8,7.9,66,2.5,96.6l-15-2.6L183.5,204.9z"/>
	<path class="st0_banker-17" d="M183.3,206.8c-1.9,0-2.4-1.2-7.5-28.1c-0.5-2.6-0.9-4.6-1-5.2c-0.5-2.2-1-4.4-1.6-6.6&#10;&#9;&#9;c-2.8-11.7-5.8-23.9-3.4-35.8c1-5.3,2.4-10.8,5.7-15.4s8.4-7.7,13.3-7.9c1.6-5,7.7-15,7.8-15.1c3.5-3.6,7.3-6.9,11.4-9.9l2.3-1.8&#10;&#9;&#9;c10.1-8,23.3-13.5,38.1-15.7c22.2-3.2,44.9-0.1,65.5,9c17,7.4,30.6,18.1,39.3,30.8c17,24.9,10.6,57.2,5.1,85.7&#10;&#9;&#9;c-0.8,4.2-1.6,8.3-2.3,12.3c-0.2,1-1.1,1.7-2.1,1.5c0,0,0,0,0,0l-14.8-2.6l-155.4,4.9L183.3,206.8L183.3,206.8z M189.4,111.4&#10;&#9;&#9;c-3.9,0-8.2,2.4-10.9,6.4s-4.1,9.2-5.1,14c-2.2,11.1,0.7,22.9,3.4,34.2c0.5,2.2,1.1,4.4,1.6,6.6c0.1,0.6,0.5,2.6,1,5.4&#10;&#9;&#9;c1.1,6,4,21.1,5.2,25.1l154.4-4.8c0.1,0,0.3,0,0.4,0l13.1,2.3c0.6-3.4,1.3-6.9,2-10.5c5.4-27.8,11.6-59.3-4.5-82.9&#10;&#9;&#9;c-8.3-12.1-21.3-22.3-37.7-29.5c-19.9-8.7-41.9-11.8-63.4-8.7c-14.2,2.1-26.9,7.3-36.4,14.9c-0.8,0.6-1.5,1.2-2.3,1.8&#10;&#9;&#9;c-3.9,2.9-7.5,6.1-10.9,9.5c-1,1.2-6.5,11.5-7.2,14.1c0,0.2,0,0.4,0,0.6c-0.1,1-0.9,1.8-2,1.7c0,0,0,0,0,0l0,0&#10;&#9;&#9;C189.8,111.4,189.6,111.4,189.4,111.4L189.4,111.4z"/>
	<ellipse class="st2_banker-17" cx="199.4" cy="204.9" rx="23.4" ry="20.2"/>
	<path class="st0_banker-17" d="M199.4,227c-13.9,0-25.3-9.9-25.3-22s11.3-22,25.3-22s25.3,9.9,25.3,22S213.4,227,199.4,227z M199.4,186.6&#10;&#9;&#9;c-11.9,0-21.6,8.2-21.6,18.4s9.7,18.4,21.6,18.4s21.6-8.2,21.6-18.4S211.4,186.6,199.4,186.6L199.4,186.6z"/>
	<ellipse class="st2_banker-17" cx="336.1" cy="204.9" rx="23.4" ry="20.2"/>
	<path class="st0_banker-17" d="M336.1,227c-13.9,0-25.3-9.9-25.3-22s11.3-22,25.3-22s25.3,9.9,25.3,22S350,227,336.1,227z M336.1,186.6&#10;&#9;&#9;c-11.9,0-21.6,8.2-21.6,18.4s9.7,18.4,21.6,18.4s21.6-8.2,21.6-18.4S348,186.6,336.1,186.6L336.1,186.6z"/>
	<path class="st2_banker-17" d="M268.4,270.7c-36.8,0-67.4-28.2-70.4-64.9c-1.9-23.5-3.4-46.7,6.7-68.8c19.8,5.4,40.1,9.5,60.7,10&#10;&#9;&#9;s41.4-2.9,59.9-12c5.5,10.2,9.6,21.1,12.2,32.4c2.6,11.2,1.6,21.3,1.6,32.6C339.1,239.1,307.4,270.7,268.4,270.7&#10;&#9;&#9;C268.4,270.7,268.4,270.7,268.4,270.7z"/>
	<path class="st0_banker-17" d="M268.4,272.6L268.4,272.6c-24.3-0.2-46.9-12.3-60.4-32.4c-6.8-10.2-10.8-21.9-11.8-34.1&#10;&#9;&#9;c-1.8-21.7-3.8-46.3,6.9-69.7c0.4-0.8,1.3-1.2,2.2-1c23.5,6.4,42.6,9.5,60.2,9.9c22.2,0.5,42.1-3.5,59-11.8c0.9-0.4,2-0.1,2.4,0.8&#10;&#9;&#9;c5.6,10.4,9.8,21.4,12.5,32.8c2.1,8.9,1.9,17,1.7,25.6c0,2.4-0.1,4.9-0.1,7.4C340.9,240.1,308.4,272.5,268.4,272.6z M205.7,139.2&#10;&#9;&#9;c-8.9,20.4-8,41.4-5.9,66.5c1,11.6,4.8,22.7,11.2,32.4c12.9,19.1,34.3,30.6,57.4,30.8c38,0,68.8-30.8,68.8-68.8&#10;&#9;&#9;c0-2.6,0-5.1,0.1-7.5c0.2-8.4,0.3-16.2-1.6-24.6c-2.5-10.6-6.3-20.8-11.3-30.4c-17.1,8-37,11.9-59.1,11.4&#10;&#9;&#9;C247.8,148.5,228.8,145.4,205.7,139.2z"/>
	<circle class="st0_banker-17" cx="235.7" cy="189.8" r="6.5"/>
	<circle class="st0_banker-17" cx="303.2" cy="189.8" r="6.5"/>
	<path class="st0_banker-17" d="M268.4,245.2c-15.2,0-27.6-9-27.6-20.1c0-1,0.8-1.8,1.8-1.8c1,0,1.8,0.8,1.8,1.8c0,0,0,0,0,0&#10;&#9;&#9;c0,9.1,10.7,16.4,23.9,16.4c13.2,0,24-7.4,24-16.4c0-1,0.8-1.8,1.8-1.8c1,0,1.8,0.8,1.8,1.8c0,0,0,0,0,0&#10;&#9;&#9;C296,236.2,283.6,245.2,268.4,245.2z"/>
	<path class="st0_banker-17" d="M268,213.6c-2.1,0-4.2-0.2-6.3-0.5c-1-0.1-1.7-1.1-1.6-2.1c0.1-1,1.1-1.7,2.1-1.6c0.1,0,0.1,0,0.2,0&#10;&#9;&#9;c0.1,0,5.9,1,9.9,0.1c0.6-1.7-1.9-8.9-5.5-15.7c-0.5-0.9-0.1-2,0.8-2.5c0.9-0.5,2-0.1,2.5,0.8l0,0c1.8,3.4,7.4,14.9,5.5,19.1&#10;&#9;&#9;c-0.4,0.9-1.2,1.6-2.2,1.9C271.6,213.4,269.8,213.6,268,213.6z"/>
	<path class="st0_banker-17" d="M217.9,169.7c-2,0-3.7-1.7-3.7-3.7c0-1.9,1.4-3.5,3.3-3.7l31-3.3c2-0.1,3.8,1.5,3.9,3.5&#10;&#9;&#9;c0.1,1.9-1.2,3.5-3.1,3.8l-31,3.2C218.2,169.7,218,169.7,217.9,169.7z"/>
	<path class="st0_banker-17" d="M322.1,172.6c-0.2,0-0.5,0-0.7-0.1l-30.7-5.8c-2-0.4-3.3-2.3-2.9-4.3c0.4-2,2.3-3.3,4.3-2.9l0,0l30.7,5.8&#10;&#9;&#9;c2,0.4,3.3,2.3,3,4.3C325.4,171.4,323.9,172.6,322.1,172.6z"/>
	<path class="st0_banker-17" d="M278.4,192.3c-0.4,0-0.8-0.1-1.1-0.4c-7.1-5.6-15.9-0.1-16.3,0.1c-0.9,0.6-2,0.3-2.6-0.6&#10;&#9;&#9;c-0.6-0.9-0.3-2,0.6-2.6c0.5-0.3,11.3-7.1,20.5,0.1c0.8,0.6,0.9,1.8,0.3,2.6C279.5,192,279,192.3,278.4,192.3z"/>
	<path class="st0_banker-17" d="M216.3,186.6H196c-1,0-1.8-0.8-1.8-1.8c0-1,0.8-1.8,1.8-1.8h20.3c1,0,1.8,0.8,1.8,1.8&#10;&#9;&#9;C218.2,185.7,217.3,186.6,216.3,186.6C216.3,186.6,216.3,186.6,216.3,186.6L216.3,186.6z"/>
	<path class="st0_banker-17" d="M341.4,186.6h-16.7c-1,0-1.8-0.8-1.8-1.8c0-1,0.8-1.8,1.8-1.8c0,0,0,0,0,0h16.7c1,0,1.8,0.8,1.8,1.8&#10;&#9;&#9;C343.3,185.7,342.4,186.6,341.4,186.6z"/>
	<path class="st0_banker-17" d="M236.9,217.7c-13.4,0-24.2-10.8-24.2-24.2c0-13.4,10.8-24.2,24.2-24.2c13.4,0,24.2,10.8,24.2,24.2c0,0,0,0,0,0&#10;&#9;&#9;C261.1,206.9,250.2,217.7,236.9,217.7z M236.9,172.9c-11.3,0-20.5,9.2-20.6,20.5s9.2,20.5,20.5,20.6s20.5-9.2,20.6-20.5&#10;&#9;&#9;c0,0,0,0,0,0C257.4,182.2,248.2,173,236.9,172.9L236.9,172.9z"/>
	<path class="st0_banker-17" d="M302.4,217.7c-13.4,0-24.2-10.8-24.2-24.2s10.8-24.2,24.2-24.2c13.4,0,24.2,10.8,24.2,24.2c0,0,0,0,0,0&#10;&#9;&#9;C326.6,206.9,315.7,217.7,302.4,217.7z M302.4,172.9c-11.3,0-20.5,9.2-20.5,20.5S291,214,302.4,214c11.3,0,20.5-9.2,20.5-20.5&#10;&#9;&#9;c0,0,0,0,0,0C322.9,182.2,313.7,173,302.4,172.9L302.4,172.9z"/>
	<path class="st4_banker-17" d="M261.9,286.2h13.9c1.6,0,2.9,1.3,2.9,2.9v6.1c0,1.6-1.3,2.9-2.9,2.9h-13.9c-1.6,0-2.9-1.3-2.9-2.9v-6.1&#10;&#9;&#9;C259,287.5,260.3,286.2,261.9,286.2z"/>
	<path class="st0_banker-17" d="M273.4,299.9h-9c-4,0-7.2-3.2-7.2-7.2v-1.2c0-4,3.2-7.2,7.2-7.2h9c4,0,7.2,3.2,7.2,7.2v1.2&#10;&#9;&#9;C280.5,296.7,277.3,299.9,273.4,299.9z M264.4,288c-1.9,0-3.5,1.6-3.5,3.5v1.2c0,1.9,1.6,3.5,3.5,3.5h9c1.9,0,3.5-1.6,3.5-3.5v-1.2&#10;&#9;&#9;c0-1.9-1.6-3.5-3.5-3.5H264.4z"/>
	<path class="st4_banker-17" d="M278.6,333c-3.4,0.8-6.8,1.1-10.3,1.1c-3.1,0-6.3-0.3-9.3-0.9l4.3-35.2h11L278.6,333z"/>
	<path class="st0_banker-17" d="M268.4,336c-3.3,0-6.5-0.4-9.7-1c-0.9-0.2-1.6-1.1-1.5-2l4.3-35.2c0.1-0.9,0.9-1.6,1.8-1.6h11&#10;&#9;&#9;c0.9,0,1.7,0.7,1.8,1.6l4.3,35c0.1,0.9-0.5,1.8-1.4,2C275.5,335.6,272,336,268.4,336z M261.1,331.7c5.1,0.8,10.4,0.8,15.5-0.2&#10;&#9;&#9;l-3.9-31.7H265L261.1,331.7z"/>
	<path class="st1_banker-17 targetColor" d="M189.5,273h15.2l0,0v146.6l0,0h-33.3l0,0V291.1C171.4,281.1,179.5,273,189.5,273&#10;&#9;&#9;C189.5,273,189.5,273,189.5,273z" style="fill: rgb(104, 225, 253);"/>
	<path class="st0_banker-17" d="M204.7,421.5h-33.3c-1,0-1.8-0.8-1.8-1.8V306.3c0-19.4,15.8-35.1,35.2-35.2c1,0,1.8,0.8,1.8,1.8v146.6&#10;&#9;&#9;C206.5,420.6,205.7,421.5,204.7,421.5z M173.2,417.8h29.6V274.9c-16.6,1-29.6,14.8-29.6,31.4V417.8z"/>
	<path class="st1_banker-17 targetColor" d="M365.4,419.6h-33.3l0,0V273l0,0h2.4c17.1,0,30.9,13.8,30.9,30.9v0L365.4,419.6L365.4,419.6z" style="fill: rgb(104, 225, 253);"/>
	<path class="st0_banker-17" d="M365.4,421.5h-33.3c-1,0-1.8-0.8-1.8-1.8V273c0-1,0.8-1.8,1.8-1.8c19.4,0,35.1,15.8,35.2,35.2v113.3&#10;&#9;&#9;C367.2,420.6,366.4,421.5,365.4,421.5z M333.9,417.8h29.6V306.3c0-16.7-13-30.4-29.6-31.4V417.8z"/>
	<path class="st2_banker-17" d="M181.2,310.7c0,0-5.6-12.8-7.1-14.5s-35.1-9.7-33.8-3.1s11.1,5,11.1,5s-39.5-5.9-41.2,0.8s38.6,19.8,38.6,19.8&#10;&#9;&#9;L181.2,310.7z"/>
	<path class="st0_banker-17" d="M148.9,320.5c-0.2,0-0.4,0-0.6-0.1c-15.7-5.1-41.7-14.8-39.8-22c1.4-5.4,16.5-5.2,30.4-3.8&#10;&#9;&#9;c-0.1-0.4-0.3-0.8-0.3-1.1c-0.4-1.6,0.5-3.2,2-3.9c3.5-1.8,12.4-0.6,19.1,0.7c0.1,0,14,2.7,15.8,4.7c1.6,1.8,6.1,12,7.4,15&#10;&#9;&#9;c0.4,0.9,0,2-1,2.4c-0.1,0-0.2,0.1-0.3,0.1l-32.3,7.9C149.2,320.4,149,320.5,148.9,320.5z M123.1,297.5c-6.3,0-10.5,0.6-11,1.8&#10;&#9;&#9;c0.1,2.9,17.3,11,36.9,17.4l29.7-7.2c-2.3-5.3-4.9-10.8-5.8-11.9c-3.8-2.2-27.4-6.8-30.6-4.7c0.2,0.9,0.8,1.7,1.6,2.3&#10;&#9;&#9;c2.8,0.4,5.5,0.7,7.9,1.1c1,0.1,1.7,1.1,1.5,2.1c-0.1,0.8-0.7,1.4-1.5,1.5c-3.1,0.5-6.2,0.1-9.1-1.1&#10;&#9;&#9;C136.2,298,129.7,297.5,123.1,297.5L123.1,297.5z"/>
	<path class="st1_banker-17 targetColor" d="M181.2,310.7l-32.3,7.9c0,0-4.1,80.2,12.8,96.8s43.9,18.3,44.6-4.1S181.2,310.7,181.2,310.7z" style="fill: rgb(104, 225, 253);"/>
	<path class="st0_banker-17" d="M189.3,429.8c-9.4,0-20.4-4.8-28.9-13.1c-17.3-17-13.5-94.9-13.3-98.2c0-0.8,0.6-1.5,1.4-1.7l32.3-7.9&#10;&#9;&#9;c0.9-0.2,1.9,0.3,2.2,1.2c1.1,3.2,25.8,78.6,25.1,101.2c-0.2,8.3-4,14.4-10.6,17C194.9,429.3,192.1,429.9,189.3,429.8z&#10;&#9;&#9; M150.7,320.1c-0.2,4.9-0.8,22.1,0.1,40.6c1.4,28.5,5.6,46.9,12.2,53.4c10.1,9.9,24,14.5,33.1,10.9c5.2-2.1,8.1-6.9,8.3-13.7&#10;&#9;&#9;c0.6-20.1-20.8-87-24.4-98.3L150.7,320.1z"/>
</g>
<g id="money_banker-17">
	<rect x="87.5" y="254.7" class="st5_banker-17" width="112.6" height="44.1"/>
	<path class="st0_banker-17" d="M200.1,300.6H87.5c-1,0-1.8-0.8-1.8-1.8v-44.1c0-1,0.8-1.8,1.8-1.8h112.6c1,0,1.8,0.8,1.8,1.8v44.1&#10;&#9;&#9;C201.9,299.8,201.1,300.6,200.1,300.6z M89.3,297h108.9v-40.5H89.3V297z"/>
	<rect x="128.6" y="253.3" class="st0_banker-17" width="31.5" height="47.4"/>
	<path class="st0_banker-17" d="M160.1,302.5h-31.5c-1,0-1.8-0.8-1.8-1.8v-47.4c0-1,0.8-1.8,1.8-1.8h31.5c1,0,1.8,0.8,1.8,1.8v47.4&#10;&#9;&#9;C161.9,301.6,161.1,302.5,160.1,302.5z M130.5,298.8h27.8v-43.7h-27.8L130.5,298.8z"/>
	<rect x="96.5" y="242.6" class="st6_banker-17" width="46.5" height="12.1"/>
	<path class="st0_banker-17" d="M142.9,256.5H96.5c-1,0-1.8-0.8-1.8-1.8v-12.1c0-1,0.8-1.8,1.8-1.8h46.5c1,0,1.8,0.8,1.8,1.8v12.1&#10;&#9;&#9;C144.8,255.7,143.9,256.5,142.9,256.5z M98.3,252.8h42.8v-8.4H98.3V252.8z"/>
	<rect x="99.4" y="230.5" class="st6_banker-17" width="46.5" height="12.1"/>
	<path class="st0_banker-17" d="M145.9,244.4H99.4c-1,0-1.8-0.8-1.8-1.8c0,0,0,0,0,0v-12.1c0-1,0.8-1.8,1.8-1.8c0,0,0,0,0,0h46.5&#10;&#9;&#9;c1,0,1.8,0.8,1.8,1.8v12.1C147.7,243.6,146.9,244.4,145.9,244.4C145.9,244.4,145.9,244.4,145.9,244.4z M101.2,240.7H144v-8.4h-42.8&#10;&#9;&#9;L101.2,240.7z"/>
	<rect x="153" y="242.6" class="st6_banker-17" width="46.5" height="12.1"/>
	<path class="st0_banker-17" d="M199.4,256.5H153c-1,0-1.8-0.8-1.8-1.8v-12.1c0-1,0.8-1.8,1.8-1.8h46.5c1,0,1.8,0.8,1.8,1.8v12.1&#10;&#9;&#9;C201.3,255.7,200.5,256.5,199.4,256.5C199.5,256.5,199.5,256.5,199.4,256.5z M154.8,252.8h42.8v-8.4h-42.8L154.8,252.8z"/>
</g>
<g id="money-bag_banker-17">
	<path class="st5_banker-17" d="M374.4,348.5c-5,1.1-13.5,1.7-18.1-0.9c-4-2.3-5.1-9-7.4-12.7c-3-5.1-6.5-9.9-10.5-14.4&#10;&#9;&#9;c-0.7-0.6-1.1-1.4-1.2-2.3c0-1.5,1.6-2.5,3.1-3c11.5-4.4,23.5-7.2,35.8-8.5c4.4-0.4,9.4-0.5,12.5,2.7c0.6,0.6,1,1.3,1.2,2.1&#10;&#9;&#9;c0,1.1-0.3,2.2-1,3.1c-3.6,6.2-7.3,12.5-8.8,19.5c-0.7,3.5-0.9,7.2-1.8,10.7C378,346.9,376.4,348.5,374.4,348.5L374.4,348.5z"/>
	<path class="st0_banker-17" d="M365.5,351.3c-3.8,0-7.5-0.6-10.2-2.1c-3.3-1.9-4.9-5.8-6.2-9.3c-0.5-1.4-1.1-2.8-1.8-4.1&#10;&#9;&#9;c-3-5-6.4-9.8-10.3-14.2c-1-0.9-1.6-2.1-1.7-3.4c0-1.4,0.6-3.4,4.2-4.8c11.7-4.4,23.9-7.3,36.3-8.5c4.6-0.5,10.4-0.5,14,3.2&#10;&#9;&#9;c0.9,0.8,1.5,1.9,1.7,3.1c0.1,1.5-0.3,3-1.2,4.3c-3.5,6-7.1,12.2-8.5,18.9c-0.3,1.5-0.5,3.1-0.8,4.7c-0.2,2-0.6,4-1,6&#10;&#9;&#9;c-0.4,2.7-2.6,4.8-5.3,5l0,0C371.7,351,368.6,351.3,365.5,351.3z M374.4,348.5L374.4,348.5z M379.8,308.4c-1.2,0-2.4,0.1-3.6,0.2&#10;&#9;&#9;c-12.1,1.2-24,4-35.3,8.4c-1.6,0.6-1.9,1.1-1.9,1.2s0.5,0.8,0.8,1.1c4,4.6,7.6,9.5,10.7,14.7c0.8,1.5,1.5,3,2.1,4.6&#10;&#9;&#9;c1.2,3,2.4,6.2,4.6,7.4c3.8,2.1,11.2,1.9,16.9,0.7c0.6-0.1,1.2-0.3,1.8-0.7c0.4-0.5,0.6-1.1,0.7-1.6c0.4-1.8,0.7-3.7,1-5.6&#10;&#9;&#9;c0.2-1.6,0.4-3.3,0.8-5c1.5-7.3,5.3-13.8,9-20c0.4-0.6,0.7-1.3,0.8-2c-0.1-0.4-0.4-0.7-0.7-1C385.4,308.9,382.7,308.4,379.8,308.4&#10;&#9;&#9;L379.8,308.4z"/>
	<path class="st5_banker-17" d="M412.5,408.9c0,20.5-21.6,25.9-48.2,25.9s-48.2-5.5-48.2-25.9s21.6-48.2,48.2-48.2S412.5,388.4,412.5,408.9z"/>
	<path class="st0_banker-17" d="M364.3,436.6c-33.7,0-50.1-9.1-50.1-27.8c0-22.5,23.1-50.1,50.1-50.1s50.1,27.5,50.1,50.1&#10;&#9;&#9;C414.3,427.5,398,436.6,364.3,436.6z M364.3,362.5c-24.5,0-46.4,25.9-46.4,46.4c0,16.4,14.7,24.1,46.4,24.1s46.4-7.7,46.4-24.1&#10;&#9;&#9;C410.7,388.4,388.8,362.5,364.3,362.5z"/>
	<path class="st2_banker-17" d="M353.4,334.7h29.5c1.3,0,2.4,1.1,2.4,2.4v4c0,1.3-1.1,2.4-2.4,2.4h-29.5c-1.3,0-2.4-1.1-2.4-2.4v-4&#10;&#9;&#9;C351,335.7,352.1,334.7,353.4,334.7z"/>
	<path class="st0_banker-17" d="M380.9,345.2h-25.5c-3.4-0.1-6.1-3-5.9-6.4c0.1-3.2,2.7-5.8,5.9-5.9h25.5c3.4-0.1,6.3,2.5,6.4,5.9&#10;&#9;&#9;s-2.5,6.3-5.9,6.4C381.3,345.2,381.1,345.2,380.9,345.2L380.9,345.2z M355.4,336.5c-1.4,0.1-2.4,1.3-2.3,2.7&#10;&#9;&#9;c0.1,1.2,1.1,2.2,2.3,2.3h25.5c1.4-0.1,2.4-1.3,2.3-2.7c-0.1-1.2-1.1-2.2-2.3-2.3H355.4z"/>
	<path class="st2_banker-17" d="M353.4,343.4h29.5c1.3,0,2.4,1.1,2.4,2.4v4c0,1.3-1.1,2.4-2.4,2.4h-29.5c-1.3,0-2.4-1.1-2.4-2.4v-4&#10;&#9;&#9;C351,344.4,352.1,343.4,353.4,343.4z"/>
	<path class="st0_banker-17" d="M380.9,353.9h-25.5c-3.4,0-6.2-2.8-6.2-6.2c0-3.4,2.8-6.2,6.2-6.2h25.5c3.4,0,6.2,2.8,6.2,6.2&#10;&#9;&#9;C387.1,351.1,384.4,353.9,380.9,353.9C380.9,353.9,380.9,353.9,380.9,353.9L380.9,353.9z M355.4,345.2c-1.4,0-2.5,1.1-2.5,2.5&#10;&#9;&#9;s1.1,2.5,2.5,2.5h25.5c1.4,0,2.5-1.1,2.5-2.5s-1.1-2.5-2.5-2.5H355.4z"/>
	<path class="st2_banker-17" d="M353.4,352.1h29.5c1.3,0,2.4,1.1,2.4,2.4v4c0,1.3-1.1,2.4-2.4,2.4h-29.5c-1.3,0-2.4-1.1-2.4-2.4v-4&#10;&#9;&#9;C351,353.1,352.1,352.1,353.4,352.1z"/>
	<path class="st0_banker-17" d="M380.9,362.6h-25.5c-3.4-0.1-6.1-3-5.9-6.4c0.1-3.2,2.7-5.8,5.9-5.9h25.5c3.4-0.1,6.3,2.5,6.4,5.9&#10;&#9;&#9;s-2.5,6.3-5.9,6.4C381.3,362.6,381.1,362.6,380.9,362.6L380.9,362.6z M355.4,353.9c-1.4,0.1-2.4,1.3-2.3,2.7&#10;&#9;&#9;c0.1,1.2,1.1,2.2,2.3,2.3h25.5c1.4-0.1,2.4-1.3,2.3-2.7c-0.1-1.2-1.1-2.2-2.3-2.3H355.4z"/>
	<path class="st2_banker-17" d="M353.4,360.8h29.5c1.3,0,2.4,1.1,2.4,2.4v4c0,1.3-1.1,2.4-2.4,2.4h-29.5c-1.3,0-2.4-1.1-2.4-2.4v-4&#10;&#9;&#9;C351,361.8,352.1,360.8,353.4,360.8z"/>
	<path class="st0_banker-17" d="M380.9,371.3h-25.5c-3.4-0.1-6.1-3-5.9-6.4c0.1-3.2,2.7-5.8,5.9-5.9h25.5c3.4-0.1,6.3,2.5,6.4,5.9&#10;&#9;&#9;s-2.5,6.3-5.9,6.4C381.3,371.3,381.1,371.3,380.9,371.3L380.9,371.3z M355.4,362.6c-1.4,0-2.5,1.1-2.5,2.5s1.1,2.5,2.5,2.5h25.5&#10;&#9;&#9;c1.4,0,2.5-1.1,2.5-2.5s-1.1-2.5-2.5-2.5H355.4z"/>
	<path class="st2_banker-17" d="M341.7,335.4h6.3c1.7,0,3.1,1.4,3.1,3.1v19.1c0,1.7-1.4,3.1-3.1,3.1h-6.3c-1.7,0-3.1-1.4-3.1-3.1v-19.1&#10;&#9;&#9;C338.6,336.8,340,335.4,341.7,335.4z"/>
	<path class="st0_banker-17" d="M345.4,362.6h-1.1c-4.2,0-7.5-3.4-7.5-7.5v-13.9c0-4.2,3.4-7.5,7.5-7.5h1.1c4.2,0,7.5,3.4,7.5,7.5V355&#10;&#9;&#9;C352.9,359.2,349.5,362.6,345.4,362.6z M344.3,337.3c-2.1,0-3.8,1.7-3.9,3.9v13.9c0,2.1,1.7,3.9,3.9,3.9h1.1c2.1,0,3.9-1.7,3.9-3.9&#10;&#9;&#9;v-13.9c0-2.1-1.7-3.8-3.9-3.9L344.3,337.3z"/>
	<path class="st0_banker-17" d="M361.8,420.6V417c-1.3-0.4-2.6-0.6-3.8-1c-2.4-0.8-4.4-2.3-5.8-4.4c-1.1-1.8-1.7-3.9-1.7-6h7&#10;&#9;&#9;c0.3,2.6,1.6,4.5,4.3,5.2v-9.5c-1.4-0.4-2.8-0.8-4.2-1.2c-1.5-0.4-2.9-1.2-4.1-2.3c-1.2-1.2-2-2.7-2.2-4.4c-0.4-2-0.3-4.1,0.4-6.1&#10;&#9;&#9;c1-2.8,3.3-5.1,6.1-6.1c1.2-0.4,2.3-0.7,3.5-0.9l0.4-0.1v-4.7h6.5v0.5c0,1.4,0,2.7,0,4.1c0,0.3,0.1,0.4,0.4,0.5&#10;&#9;&#9;c2.2,0.4,4.3,1.4,6.1,2.8c1.9,1.5,3.1,3.7,3.5,6.1c0.1,0.6,0.2,1.3,0.2,2h-7.1c0-2-1.2-3.7-3.1-4.5v8.8c0.2,0.1,0.5,0.1,0.8,0.2&#10;&#9;&#9;c1.9,0.4,3.8,1,5.6,1.8c2.7,1.2,4.6,3.8,4.8,6.7c0.4,2.7-0.2,5.5-1.8,7.7c-1.3,1.8-3.1,3.2-5.3,3.9c-1.3,0.5-2.7,0.8-4.1,1.1v3.5&#10;&#9;&#9;L361.8,420.6z M368.3,402.6v8.2c1.1-0.2,2.1-0.6,2.9-1.3c1.5-1.2,2-4.3-0.2-5.7C370.1,403.4,369.2,403,368.3,402.6L368.3,402.6z&#10;&#9;&#9; M361.7,394.2v-7.9c-0.9,0.4-1.7,0.8-2.5,1.3c-1.8,1.2-2.1,4.6,0.2,5.7C360.2,393.6,360.9,393.9,361.7,394.2L361.7,394.2z"/>
</g>
</svg>