<svg id="_0201_basketball" xmlns="http://www.w3.org/2000/svg" xmlns:xlink="http://www.w3.org/1999/xlink" viewBox="0 0 500 500" data-imageid="basketball-72" imageName="Basketball" class="illustrations_image" style="width: 166px;"><defs><style>.cls-1_basketball-72{fill:none;stroke:#fff;stroke-miterlimit:10;stroke-width:.82px;}.cls-2_basketball-72{fill:url(#linear-gradient);}.cls-2_basketball-72,.cls-3_basketball-72,.cls-4_basketball-72,.cls-5_basketball-72,.cls-6_basketball-72,.cls-7_basketball-72,.cls-8_basketball-72,.cls-9_basketball-72,.cls-10_basketball-72,.cls-11_basketball-72,.cls-12_basketball-72,.cls-13_basketball-72,.cls-14_basketball-72,.cls-15_basketball-72,.cls-16_basketball-72,.cls-17_basketball-72,.cls-18_basketball-72,.cls-19_basketball-72,.cls-20_basketball-72,.cls-21_basketball-72,.cls-22_basketball-72,.cls-23_basketball-72{stroke-width:0px;}.cls-3_basketball-72{fill:url(#linear-gradient-11-basketball-72);}.cls-4_basketball-72{fill:url(#linear-gradient-12-basketball-72);}.cls-5_basketball-72{fill:url(#linear-gradient-13-basketball-72);}.cls-6_basketball-72{fill:url(#linear-gradient-10-basketball-72);}.cls-7_basketball-72{fill:url(#linear-gradient-17-basketball-72);}.cls-8_basketball-72{fill:url(#linear-gradient-16-basketball-72);}.cls-9_basketball-72{fill:url(#linear-gradient-15-basketball-72);}.cls-10_basketball-72{fill:url(#linear-gradient-14-basketball-72);}.cls-11_basketball-72{fill:url(#linear-gradient-4-basketball-72);}.cls-12_basketball-72{fill:url(#linear-gradient-2-basketball-72);}.cls-13_basketball-72{fill:url(#linear-gradient-3-basketball-72);}.cls-14_basketball-72{fill:url(#linear-gradient-8-basketball-72);}.cls-15_basketball-72{fill:url(#linear-gradient-9-basketball-72);}.cls-16_basketball-72{fill:url(#linear-gradient-7-basketball-72);}.cls-17_basketball-72{fill:url(#linear-gradient-5-basketball-72);}.cls-18_basketball-72{fill:url(#linear-gradient-6-basketball-72);}.cls-19_basketball-72{isolation:isolate;opacity:.24;}.cls-19_basketball-72,.cls-23_basketball-72{fill:#68e1fd;}.cls-20_basketball-72{fill:#231f20;}.cls-21_basketball-72{fill:#c14834;}.cls-22_basketball-72{fill:#fff;}</style><linearGradient id="linear-gradient-basketball-72" x1="751.15" y1="2602" x2="831.64" y2="2369.76" gradientTransform="translate(-515.51 2911.02) scale(1 -1)" gradientUnits="userSpaceOnUse"><stop offset="0" stop-color="#fff" stop-opacity="0"/><stop offset=".95" stop-color="#fff"/></linearGradient><linearGradient id="linear-gradient-2-basketball-72" x1="769.6" y1="2479.64" x2="314.38" y2="2965.39" gradientTransform="translate(-515.51 2911.02) scale(1 -1)" gradientUnits="userSpaceOnUse"><stop offset="0" stop-color="#231f20" stop-opacity="0"/><stop offset="1" stop-color="#231f20"/></linearGradient><linearGradient id="linear-gradient-3-basketball-72" x1="822.74" y1="2561.41" x2="797.3" y2="2651.63" xlink:href="#linear-gradient-2-basketball-72"/><linearGradient id="linear-gradient-4-basketball-72" x1="736.35" y1="2725.13" x2="805.75" y2="2548.87" gradientTransform="translate(-515.51 2911.02) scale(1 -1)" gradientUnits="userSpaceOnUse"><stop offset="0" stop-color="#010101" stop-opacity="0"/><stop offset=".24" stop-color="#010101" stop-opacity=".24"/><stop offset=".95" stop-color="#010101"/></linearGradient><linearGradient id="linear-gradient-5-basketball-72" x1="864.23" y1="2747.73" x2="731.61" y2="2642.88" xlink:href="#linear-gradient-4-basketball-72"/><linearGradient id="linear-gradient-6-basketball-72" x1="801.98" y1="2750.65" x2="763.81" y2="2803.39" xlink:href="#linear-gradient-4-basketball-72"/><linearGradient id="linear-gradient-7-basketball-72" x1="700.69" y1="2651.79" x2="750.44" y2="2726.98" xlink:href="#linear-gradient-2-basketball-72"/><linearGradient id="linear-gradient-8-basketball-72" x1="717.36" y1="2694.08" x2="678.49" y2="2587.44" xlink:href="#linear-gradient-2-basketball-72"/><linearGradient id="linear-gradient-9-basketball-72" x1="807.55" y1="2712.61" x2="1061.07" y2="2650.31" xlink:href="#linear-gradient-2-basketball-72"/><linearGradient id="linear-gradient-10-basketball-72" x1="824.88" y1="2720.31" x2="684.79" y2="2581.44" xlink:href="#linear-gradient-2-basketball-72"/><linearGradient id="linear-gradient-11-basketball-72" x1="813.57" y1="2632.72" x2="568.33" y2="2691.02" xlink:href="#linear-gradient-2-basketball-72"/><linearGradient id="linear-gradient-12-basketball-72" x1="767.65" y1="2781.18" x2="782.17" y2="2788.52" xlink:href="#linear-gradient-4-basketball-72"/><linearGradient id="linear-gradient-13-basketball-72" x1="715.76" y1="2526.53" x2="758.32" y2="2498.77" xlink:href="#linear-gradient-2-basketball-72"/><linearGradient id="linear-gradient-14-basketball-72" x1="717.22" y1="2517.24" x2="736.66" y2="2449.24" xlink:href="#linear-gradient-2-basketball-72"/><linearGradient id="linear-gradient-15-basketball-72" x1="813.12" y1="2576.37" x2="897.55" y2="2556.47" xlink:href="#linear-gradient-2-basketball-72"/><linearGradient id="linear-gradient-16-basketball-72" x1="751.17" y1="2628.77" x2="851.56" y2="2593.61" xlink:href="#linear-gradient-2-basketball-72"/><linearGradient id="linear-gradient-17-basketball-72" x1="792.3" y1="2671.07" x2="1012.67" y2="2424.66" xlink:href="#linear-gradient-2-basketball-72"/></defs><g id="background_basketball-72"><path class="cls-19_basketball-72 targetColor" d="M480.01,367.59c-.72,11.08-5.22,21.62-10.94,31.15-20.95,34.87-60.17,58.03-100.85,59.62-29.24,1.11-57.81-8.15-86.95-11.11-46.82-4.8-94.67,6.7-140.94-2.07-41.97-7.93-79.16-34.12-103.54-69.08-4.31-6.17-8.23-12.6-11.73-19.27-.62-1.25-1.28-2.51-1.9-3.8-10.06-20.34-15.58-42.62-16.2-65.3-.7-34.79,10.74-70.88,36.18-94.57,22.14-20.64,52.21-30.16,77.75-46.33,18.58-11.83,34.66-27.18,47.34-45.19,11.9-16.92,21.03-36.44,37.23-49.32,18.17-14.43,42.73-18.31,65.88-17.09,62.1,3.23,140.31,45.55,169.75,101.8,28.89,55.17,11.28,123.53,28.56,183.34,3.15,10.84,7.46,21.62,9.4,32.67.94,4.79,1.27,9.68.98,14.55Z" style="fill: rgb(104, 225, 253);"/><path class="cls-23_basketball-72 targetColor" d="M480.01,367.59c-.72,11.08-5.22,21.62-10.94,31.15-20.95,34.87-60.17,58.03-100.85,59.62-29.24,1.11-57.81-8.15-86.95-11.11-46.82-4.8-94.67,6.7-140.94-2.07-41.97-7.93-79.16-34.12-103.54-69.08l-11.73-19.27-2.3-3.8h456.27c.94,4.79,1.27,9.69.98,14.56Z" style="fill: rgb(104, 225, 253);"/><path class="cls-2_basketball-72" d="M480.01,367.59c-.72,11.08-5.22,21.62-10.94,31.15-20.95,34.87-60.17,58.03-100.85,59.62-29.24,1.11-57.81-8.15-86.95-11.11-46.82-4.8-94.67,6.7-140.94-2.07-41.97-7.93-79.16-34.12-103.54-69.08l-11.73-19.27-2.3-3.8h456.27c.94,4.79,1.27,9.69.98,14.56Z"/><path class="cls-12_basketball-72" d="M149.36,398.1c-1.11-.24-2.13-.78-2.94-1.58-1.49-1.78-.44-4.54,1.07-6.31s3.5-3.35,3.98-5.63c-16.89-4.66-33.97-8.51-51.25-11.56,3.35-5.72,10.89-7.1,17.48-7.65,12.1-1.01,24.25-1.27,36.39-1.51l62.59-1.27c2.78-.06,5.66-.09,8.19,1.04s4.36,3.23,6.7,4.64c5.36,3.23,12.13,2.3,18.35,1.55,15.18-1.82,30.53-1.79,45.7.07-5.78,5.49-14.11,7.31-22.05,7.9-7.94.59-16.04.21-23.74,2.27-4.05,1.09-7.97,2.84-12.15,3.23-5.66.53-11.2-1.48-16.76-2.81-7.41-1.78-15.07-2.35-22.66-1.68-1.54.14-3.28.45-4.13,1.74-1.24,1.91.39,4.48,2.37,5.59s4.37,1.48,6.14,2.92c9.88,8.05-7.93,20.01-15.19,20.32-11.71.53-27.04-7.83-38.09-11.29Z"/></g><g id="character_basketball-72"><path class="cls-22_basketball-72" d="M312.65,348.47c-1.61,3.28-3.52,6.61-6.58,8.61-1.22.8-2.62,1.31-4.07,1.47-2.19.36-4.42-.33-6.02-1.87-2.4-2.51-2.24-6.38-2.4-9.83-.23-4.11-2.3-7.92-2.6-11.83-.23-3.22,2.3-5.81,3.35-8.81,1.68-4.53,2.36-10.05,6.41-12.62,2.82-1.81,6.7-1.55,9.56.09.76.44,1.47.97,2.1,1.58,1.79,1.71,3.17,3.81,4.01,6.14,3.35,8.77.36,18.63-3.78,27.04Z"/><path class="cls-13_basketball-72" d="M309.06,316.72c.71,1.94-.1,4.11-1.21,5.86s-2.51,3.35-3.25,5.25c-.84,2.25-.59,4.74-.49,7.15.18,3.98-.1,8.29-2.62,11.38-1.47,1.8-3.79,3.54-3.35,5.86-1.87-2.96-.54-7-1.94-10.21-.84-2-2.71-3.45-3.65-5.42-1.37-2.87-.64-6.24.13-9.32s1.59-6.14,3.9-8.15c1.2-1.03,2.51-1.84,3.69-2.91.84-.78,1.75-1.83,2.87-2.21,2.37-.63,4.85.51,5.91,2.72Z"/><path class="cls-21_basketball-72" d="M392.37,270.24c-1.15-1.78-2.26-3.59-3.41-5.35-.37-.59-.84-1.25-1.52-1.35-.85-.05-1.6.55-1.74,1.38-.12.8-.07,1.61.13,2.4.26,1.59.33,3.2.23,4.8-.09,1.41-.55,3.12-1.9,3.54-1.81-2.66-1.58-6.21-2.82-9.17-.29-.8-.79-1.5-1.45-2.04-.69-.5-1.62-.55-2.36-.13-.66.59-.94,1.5-.73,2.36.26.84.65,1.62,1.16,2.34,1.55,2.51,2.76,5.2,3.61,8.02.26.84.36,1.97-.46,2.36-.49.15-1.03.07-1.45-.23-1.42-.91-2.58-2.18-3.35-3.68-1.64-2.93-3.09-5.96-4.33-9.07-1.28.92-1.94,2.46-2.51,3.98-1.09,2.86-2.08,5.78-2.96,8.7-.3.99-.73,2.14-1.74,2.34-.88.05-1.68-.49-1.98-1.32-.29-.8.49-2.9.59-3.75.36-3.81,1.47-8.64,1.84-12.48-3.59.56-6.28,3.95-9.83,4.7-1.33-1.09-1.54-3.05-.45-4.38.13-.16.28-.32.45-.45,1.25-.98,2.76-1.58,4.11-2.51,3.95-2.69,5.55-7.62,6.97-12.19,1.97-6.6.19-14.65-2.1-21.13-1.02-2.79-2.47-5.42-3.45-8.22-1.14-3.13-1.65-6.46-1.5-9.79.13-.77,0-1.55-.39-2.23-.36-.38-.81-.65-1.32-.79-7.82-3.16-15.61-6.28-23.46-9.43.09,9.17-.79,17.48-1.61,26.58-.43,4.67-1.06,9.56-4.05,13.15-4.19,5.03-11.63,5.78-18.17,5.42-5.86-.32-11.68-1.21-17.38-2.66-4.79-1.25-9.69-3.02-13.01-6.64-3.02-3.35-4.44-7.78-5.52-12.12-1.61-6.31-2.82-12.72-5.26-18.77-2.2-5.49-5.55-10.71-10.35-14.09-.46-.34-.96-.66-1.45-.96-.92-.53-.09,7.03-.98,6.48-7.96-5.03-9.81,5.03-10.72,6.11-8.9,10.47-27.53,34.08-30.55,32.96-3.64-1.35,3.35-1.38-.34-1.51-1.65-.17-3.26-.61-4.77-1.32-5.03-2-9.99-4.01-14.98-5.98,1.08-.92,14.79-12.06,15.83-12.98,17.58-15.18,10.61-37.17,37.68-56.69,10.05-7.2,25.13-9.4,37.46-9.37,11.6-3.18,23.97-1.8,34.59,3.85,3.94,2.21,7.66,4.79,11.11,7.72,8.9,7.36,16.82,15.84,24.71,24.3l11.34,12.12c1.94,2.07,10.72,9.86,12.03,13.21s1.18,7.1.99,10.72c-.49,9.63-1.02,19.22-1.52,28.85.78,1.47,1.86,2.77,3.16,3.81,4.36,3.78,7.03,9.1,9.63,14.24.56.99.95,2.07,1.18,3.18.2,1.14-.14,2.31-.94,3.15Z"/><path class="cls-11_basketball-72" d="M258.85,188.34c-.46-.34-.96-.66-1.45-.96-.92-.53-.09,7.03-.98,6.48-7.96-5.03-9.69,5.15-10.72,6.11-9.76,8.97-22.58,30.29-29.84,32.37-1.87.52-4.3-1.42-5.86-2.01h-.06c-1.78.59-3.72.17-5.5-.46-2.35-.85-4.56-2.05-6.57-3.54-.6-.33-1.03-.91-1.19-1.58,0-.5.17-.98.46-1.38.75-1.63,1.9-3.03,3.35-4.08,2.36-1.47,5.39-.98,8.12-.59,1.68.23,6.83-.07,9.17,1.21,8.14-5.53,14.83-12.94,19.52-21.59,2.14-3.98,3.95-8.38,7.39-11.44,2.14-1.91,7.89-6.77,10.94-6.6,3.89.19,4.26,3.9,3.22,8.05Z"/><path class="cls-17_basketball-72" d="M338.44,180.55c-.32-.76-.85-1.41-1.53-1.87-1.35-.69-14.64-.5-16.37-6.9-1.95.21-2.69,2.61-3.1,4.52s-1.58,4.26-3.52,4c-.62-.13-1.2-.42-1.68-.84-4.74-3.89-5.8-10.61-6.53-16.7-.56-4.88-1.14-9.77-1.75-14.65-3.1,11.39-4.07,23.26-2.84,35,.33,3.12.88,6.39,2.87,8.81,3.77,4.58,10.7,4.19,16.63,4.19,8.27.01,16.46,1.51,24.2,4.42,6.94,2.59,13.46,9.64,18.18.84-10.26-4.85-18.93-10.42-24.57-20.82Z"/><path class="cls-21_basketball-72" d="M263.71,152.38c.11.74.4,1.45.84,2.06.44.47.98.83,1.58,1.06,3.92,1.8,8.65,2.51,12.52.59.94-.42,1.75-1.1,2.32-1.96.5-.99.76-2.08.75-3.18.21-2.98.23-6.11-1.07-8.8-1.03-1.89-2.44-3.55-4.14-4.88-3.21-2.74-6.8-5.02-10.64-6.78-1.98-.9-5.25-2.14-7.21-.48-1.68,1.47-.59,2.85.07,4.66,1.98,5.81,3.64,11.72,4.98,17.7Z"/><path class="cls-18_basketball-72" d="M286.14,145.1s4.42,13.23-1.36,15.31c-5.78,2.09-19.4-14.34-19.4-14.34l20.75-.97Z"/><path class="cls-21_basketball-72" d="M259.42,107.12c-4.24,9.38-2.18,20.32.68,30.21,1.24,4.28,6.95,12.28,11.73,13.05,6.7,1.08,16.76-3.63,18.35-9.41,1.14-4.19,1.25-14.9,1.92-19.18.46-2.48.6-5.02.41-7.54-.8-7-5.94-12.64-11.01-17.54-.78-.83-1.69-1.54-2.68-2.1-1.81-.75-3.82-.91-5.72-.44-4,.67-7.69,2.58-10.53,5.47-2.83,2.93-4.3,6.92-4.05,10.98"/><path class="cls-21_basketball-72" d="M253.99,122.14c-1.44.19-2.54,1.39-2.61,2.84-.01,1.42.48,2.8,1.39,3.89.76,1,1.6,1.95,2.51,2.82.45.5.98.93,1.55,1.29.58.36,1.29.46,1.95.28.1-.03.2-.08.27-.16.06-.1.1-.21.1-.32.36-2.49.07-5.03-.84-7.38-.64-1.5-2.61-3.32-4.33-3.27Z"/><path class="cls-20_basketball-72" d="M258.56,127.1c1.24-1.68.59-6.7.53-8.73-.06-2.51.17-5.03.67-7.49.15-.74.47-1.62,1.21-1.75.91-.17,1.56.92,2.45,1.2.51.11,1.05.1,1.55-.05,7.48-1.51,15.23-1.27,22.8-.28,1.42.19,2.98.37,4.15-.46.91-.65,1.36-1.75,1.93-2.71.89-1.48,2.18-2.69,3.72-3.49.45-.23.99-.5,1.08-1.01.03-.24-.01-.48-.13-.69-.74-1.55-2.87-1.76-4.19-2.88-.51-.44-.88-1.03-1.38-1.48-.91-.65-1.89-1.2-2.93-1.62-1.78-.96-3.17-2.57-4.98-3.48-1.83-.77-3.81-1.15-5.8-1.09-6.11-.18-12.22.22-18.26,1.2-1.26.11-2.47.53-3.54,1.21-1.53,1.17-2.01,3.23-2.33,5.12-.04.68-.34,1.32-.84,1.79-.44.22-.89.41-1.36.55-.76.49-1.29,1.28-1.45,2.18-.9,3.2-.39,6.61.16,9.89.3,1.84.62,3.69.95,5.53.21,1.19.46,2.94,1.5,3.54.61.36,1.58.57,2.17.96.49.4.92.86,1.27,1.39.44.51.34,2.88.96,2.63"/><path class="cls-21_basketball-72" d="M230.99,269.66c-3.42,3.58-6.79,7.35-8.79,11.88-2,4.53-2.51,9.82-3.24,14.85-.09,1.54-.59,3.02-1.43,4.31-.7.89-1.72,1.49-2.47,2.34-.98,1.27-1.65,2.75-1.98,4.31-5.7,20.24-8.37,41.22-7.91,62.25.14,6.53.4,13.68-3.57,18.87-4.19,5.46-12.65,8.2-13.4,15.04,8.86,4.27,19.37,3.18,27.16-2.81,1.67-1.21,3-2.83,3.86-4.7,1.63-4.08-.45-8.59-1.19-12.92-1.89-11.01,4.93-21.35,9.39-31.59,4-9.18,6.23-19.03,6.58-29.03.06-1.78.08-3.67,1.02-5.19.81-1.11,1.84-2.06,3.01-2.78,16.83-12.27,25.4-33.28,41.69-46.26l-18.92,49.35c-1.73,4.52-3.47,9.07-4.28,13.82-.74,4.32-.56,9.22,2.26,12.57,4.07,4.81,11.85,4.36,17.43,1.43,5.58-2.93,9.93-7.76,15.28-11.09l3.91,4.44c6.53-7.13,5.39-18.05,5.99-27.69.03-1.39.27-2.76.71-4.08.62-1.41,1.44-2.72,2.44-3.89,8.12-10.42,16.68-20.76,21.78-32.93,5.1-12.17,6.4-26.76-.13-38.25-.61-1.24-1.51-2.31-2.63-3.11-1.3-.67-2.73-1.02-4.19-1.04-9.31-.79-18.68-.77-27.99.04-8.8.76-12.25,2.61-19.16,7.43-14.77,10.3-28.72,21.35-41.24,34.44Z"/><circle class="cls-23_basketball-72 targetColor" cx="192.27" cy="248.33" r="29.67" transform="translate(-83.65 398.35) rotate(-80.78)" style="fill: rgb(104, 225, 253);"/><circle class="cls-23_basketball-72 targetColor" cx="192.27" cy="248.33" r="29.67" transform="translate(-83.65 398.35) rotate(-80.78)" style="fill: rgb(104, 225, 253);"/><path class="cls-16_basketball-72" d="M222.02,248.34c0,8.86-3.95,17.26-10.78,22.91-1.47,1.21-3.05,2.27-4.73,3.18-.43.23-.84.46-1.28.66h0c-4.01,1.93-8.4,2.93-12.85,2.92-.62,0-1.21,0-1.81-.07s-1.01-.07-1.51-.13c-4.58-.51-8.99-2.08-12.85-4.6-.23-.13-.49-.29-.72-.46-3.85-2.69-7.02-6.25-9.27-10.38-.17-.34-.33-.63-.49-.96h0c-2-4.06-3.03-8.52-3.02-13.04,0-.84,0-1.68.1-2.43.1-1.18.26-2.36.49-3.52.63-3.15,1.78-6.17,3.42-8.94,4.23-7.27,11.33-12.41,19.55-14.17.4-.06.84-.16,1.26-.23,1.61-.26,3.23-.39,4.86-.39,6.03-.02,11.92,1.8,16.88,5.22.46.34.92.66,1.38,1.02,4.9,3.83,8.48,9.11,10.22,15.08.09.34.19.66.29.99.57,2.4.86,4.86.86,7.33Z"/><path class="cls-14_basketball-72" d="M215.25,256.36c.02,5.23-1.37,10.37-4.01,14.89-12.65,10.44-31.36,8.65-41.8-4-4.39-5.32-6.79-12.01-6.79-18.91-.02-5.23,1.37-10.37,4.01-14.89,12.65-10.44,31.36-8.65,41.8,4,4.39,5.32,6.79,12.01,6.79,18.91h0Z"/><path class="cls-22_basketball-72" d="M190.53,277.95c-.52,0-1.01-.07-1.51-.13-3.07-2.62-5.75-5.66-7.95-9.04-.2-.23-.36-.48-.49-.75-1.01-1.62-1.89-3.33-2.63-5.09-.12-.27-.23-.55-.33-.84-1.05-2.69-1.75-5.51-2.07-8.38-.13-1.19-.2-2.38-.2-3.58-.02-.31-.02-.61,0-.92.2-12.78,6.9-24.22,10.89-29.88.4-.06.84-.16,1.26-.23-3.79,5.26-10.98,16.86-11.24,29.9v.92c0,1.23.07,2.46.2,3.68.31,2.9,1.02,5.74,2.1,8.45.09.3.23.56.33.84.72,1.66,1.56,3.27,2.51,4.8l.49.79c2.42,3.55,5.33,6.73,8.64,9.47Z"/><path class="cls-22_basketball-72" d="M210.61,224.94c-6.97-.89-11.8,4.83-17.28,11.34-4.9,5.86-9.96,11.83-17.09,13.61-.29.1-.59.17-.89.2-1.16.24-2.34.36-3.52.36h-.28c-3.74,0-6.41-1.06-7.92-2.96-.37-.48-.67-1.01-.89-1.58.1-1.18.26-2.36.49-3.52h.07c-.3,1.59.07,3.23,1.01,4.53,1.35,1.68,3.78,2.6,7.26,2.63h.23c1.18,0,2.37-.13,3.52-.39.3-.03.6-.1.89-.2,6.77-1.8,11.67-7.59,16.43-13.24,5.03-6.05,9.89-11.8,16.56-11.8.48.34.94.66,1.4,1.02Z"/><path class="cls-22_basketball-72" d="M221.13,241.01c-5.78,6.05-21.36,20.11-42.26,21.85-.31.04-.61.06-.92.07-1.15.1-2.3.13-3.49.13-2.77,0-5.54-.22-8.28-.69-.17-.34-.33-.63-.49-.96,3.94.7,7.94.92,11.93.65.29,0,.62,0,.92-.07,21.2-1.68,36.86-16.23,42.29-21.98.09.34.19.66.29.99Z"/><path class="cls-22_basketball-72" d="M206.51,274.43c-.43.23-.84.46-1.28.66h0c-2.86-.68-5.62-1.76-8.19-3.19-2.86-1.57-5.89-2.79-9.04-3.64-2-.54-4.11-.48-6.07.19-.29.09-.57.2-.84.33-2.02.99-3.72,2.53-4.9,4.44-.23-.13-.49-.29-.72-.46,1.24-2.02,3.02-3.65,5.13-4.73.26-.09.53-.23.84-.36,2.18-.8,4.56-.89,6.8-.26,3.2.89,6.29,2.13,9.22,3.71,3.04,1.51,5.83,2.96,9.06,3.32Z"/><path class="cls-21_basketball-72" d="M185.22,218.71c-.54.42-1.03.9-1.47,1.42-1.68,1.77-3.19,3.7-4.5,5.76-1.31,2.08-1.98,4.5-1.93,6.96,0,.15.04.31.12.44.26.31.76.05,1.04-.24.72-.85,1.39-1.75,2-2.68.79-1.02,1.66-1.98,2.59-2.87-.07,2.04.02,4.09.24,6.12.08.68.24,1.47.84,1.76.55.2,1.18.03,1.55-.43.36-.45.61-.98.72-1.55.66-2.43.97-5.03,2.25-7.17.04,2.17.2,4.33.49,6.48.03.59.2,1.16.49,1.68.31.51.92.75,1.5.59.79-.3.84-1.37.84-2.21-.05-1.98.18-3.95.69-5.86l1.72,5.32c.16.7.5,1.35.97,1.89.51.54,1.33.63,1.94.22.44-.55.62-1.27.48-1.96-.1-2.64.43-5.27,1.55-7.67.34-.74.84-1.52,1.63-1.68,1.25-.27,2.19,1.09,3.35,1.58.67.22,1.38.31,2.09.25h2.18c.16.01.32-.02.47-.09.26-.24.33-.62.17-.93-.31-.69-.87-1.24-1.56-1.54-.69-.29-1.39-.55-2.11-.76-1.35-.49-2.58-1.27-3.88-1.89-2.13-1-4.42-1.6-6.77-1.76-1.15-.08-2.3.12-3.44,0-.93-.12-1.86-.19-2.8-.19-1.23,0-2.43.36-3.46,1.02Z"/><path class="cls-23_basketball-72 targetColor" d="M337.72,212.12c-.13,4.77-.27,9.57-.4,14.36-.01,1.95-.23,3.89-.65,5.79v.1c-.33,1.83-1.29,3.49-2.7,4.69-.13.13-.27.24-.43.34-1.61.98-3.47,1.46-5.35,1.37-.92-.01-1.84-.08-2.76-.19-.56-.07-1.12-.13-1.68-.23-10.72-1.41-21.13-5.09-31.91-5.25-5.16-.07-10.32.65-15.42,0-5.09-.65-10.35-3.16-12.62-7.76-2.86-5.86-.55-11.73-2.6-17.85-1.32-3.97-4.04-8.57-4.76-12.65-.39-2.17,0-4.4,0-6.6.01-2.07-.24-4.14-.76-6.15-1.14-4.31-2.96-8.41-5.39-12.16-2.04-3.35-7.69-8.58-7.26-12.68.33-3.18,4.11-5.45,6.87-6.14,4.34-1.12,6.38.55,8.55,4.04,3.18,5.24,7.05,10.03,11.5,14.24,3.25,2.96,7.42,5.76,11.73,4.8,3.09-.66,5.45-3.12,7.39-5.59,1.28-1.5,2.3-3.2,3.02-5.03.79-2.33.76-4.83.79-7.26.07-3.6.33-7.2.8-10.77-.13-1.34.84-2.53,2.18-2.66.28-.03.57,0,.84.06,2.73,0,5.46.1,8.19.26.99,14.46,4.57,25.08,8.91,32.87,7.46,13.47,17.16,18.43,19.32,20.4,3.42,3.07,4.73,11.09,4.61,15.66Z" style="fill: rgb(104, 225, 253);"/><path class="cls-15_basketball-72" d="M337.72,212.12c-.13,4.77-.27,9.57-.4,14.36-.01,1.95-.23,3.89-.65,5.79v.1c-.67,1.69-1.58,3.27-2.7,4.69-1.68,1.98-3.58,2.87-5.78,1.68-1.42-.84-2.62-2.01-3.49-3.42-5.78-8.38.1-23.17-2.92-32.86-1.68-5.49-5.22-10.19-8.14-15.15-2.92-4.96-5.36-10.61-4.47-16.3,1.52,1.74,3.06,3.42,4.67,5.03,7.46,13.47,17.16,18.43,19.32,20.4,3.38,3.1,4.7,11.12,4.57,15.68Z"/><path class="cls-6_basketball-72" d="M323.73,238.35c-10.72-1.41-21.13-5.09-31.91-5.25-5.16-.07-10.32.65-15.42,0-5.09-.65-10.35-3.16-12.62-7.76-2.86-5.86-.55-11.73-2.6-17.85-1.32-3.97-4.04-8.57-4.76-12.65-.39-2.17,0-4.4,0-6.6.01-2.07-.24-4.14-.76-6.15,2.26.64,4.15,2.19,5.23,4.27.96,1.98,1.11,4.24,1.91,6.31,1.9,5.03,7.16,7.86,12.26,9.5,1.96.48,3.84,1.23,5.58,2.24,1.68,1.11,3.02,3.02,2.87,5.03-3.86.32-7.75.27-11.6-.13.75,2.27,2.89,3.88,5.16,4.63,2.31.64,4.7.92,7.1.84,5.45.13,10.89.23,16.36.36,4.27.07,8.78.2,12.49,2.3,5.66,3.15,8.84,10.84,10.61,16.76.59,1.96.56,3.3.1,4.16Z"/><path class="cls-23_basketball-72 targetColor" d="M329.69,266.66c-4.19,9.59-10.58,18.06-15.73,27.19-2.68,4.75-5.01,9.68-6.99,14.76-1.11,2.85-2.26,5.97-4.85,7.58-1.57.86-3.31,1.36-5.1,1.47-14.02,1.64-28.18-1.4-40.3-8.63,3.84-6.34,6.87-13.13,9.02-20.22-10,7.02-18.78,15.64-25.97,25.52-5.64-1.38-9.07-6.84-12.92-11.18-4.95-5.56-11.28-9.72-18.35-12.06-1.51-.49-3.35-1.21-3.53-2.79,0-1.02.39-2.01,1.11-2.74,4.47-5.71,10.49-9.99,15.42-15.31,7.05-7.54,11.73-17.1,18.84-24.64,4.57-4.86,10.05-8.8,15.44-12.69,2.05-1.65,4.35-2.96,6.81-3.89,3.21-1.02,6.7-.71,10.01-.38,17.33,1.73,35.47,2.66,52.55,6.21,14.01,2.92,8.7,22.29,4.52,31.79Z" style="fill: rgb(104, 225, 253);"/><path class="cls-3_basketball-72" d="M329.71,266.67c-4.24,9.6-10.59,18.05-15.74,27.18-2.67,4.75-5.01,9.68-7,14.75-1.11,2.87-2.26,5.98-4.86,7.59-1.57.86-3.31,1.37-5.09,1.48-1.25.17-2.51.26-3.78.33-12.79.71-25.5-2.42-36.51-8.97,3.83-6.34,6.87-13.13,9.04-20.21-10.03,7-18.83,15.62-26.03,25.5-5.62-1.38-9.07-6.84-12.91-11.18-4.96-5.55-11.28-9.7-18.34-12.06-1.52-.49-3.35-1.21-3.55-2.8,0-1.02.41-2,1.12-2.72,4.47-5.72,10.48-9.99,15.44-15.31,7.04-7.59,11.73-17.09,18.83-24.65,4.57-4.86,10.05-8.77,15.44-12.68,2.05-1.65,4.34-2.96,6.8-3.88,3.23-1.05,6.7-.72,10.05-.39,17.19,1.74,35.19,2.66,52.15,6.15.13,0,.27.03.39.07,14,2.92,8.71,22.28,4.54,31.8Z"/><path class="cls-22_basketball-72" d="M221.88,399.7c-2.86,5.26-8.28,8.77-14,10.51-5.72,1.74-11.8,1.84-17.78,1.68-2.23,0-4.6-.16-6.41-1.41-1.7-1.29-2.69-3.3-2.69-5.43-.08-1.36.14-2.71.65-3.97,1.35-3.23,4.05-5.62,6.7-7.83,2.66-2.2,5.49-4.36,7.2-7.39.89-1.55,1.42-3.28,2.4-4.77s2.46-2.82,4.24-2.86c2.1,0,3.74,1.68,5.35,3.02s4.01,2.43,5.71,1.21c.64-.53,1.18-1.18,1.58-1.91.96-1.37,3.85-4.36,5.86-3.81,2.24.66,2.43,4.15,2.82,6.12.34,1.64.56,3.29.66,4.96.35,4.09-.46,8.2-2.32,11.86Z"/><path class="cls-4_basketball-72" d="M256.1,126.98c-.05-.35,0-.71-.05-1.06-.07-.3-.2-.59-.39-.84-.31-.4-.7-.71-1.16-.92-.08-.04-.16-.06-.25-.05-.08.01-.15.06-.2.13-.26.32-.39.73-.37,1.15.06,1.09.35,2.15.84,3.12.38,1.24,1.18,2.3,2.27,3,.34.21.76.25,1.14.1.45-.29.63-.84.44-1.34-.45-1.27-2.09-1.88-2.28-3.28Z"/><path class="cls-5_basketball-72" d="M212.39,384.95c-1.5,1.34-3.23,2.38-4.82,3.6-1.49,1.14-2.85,2.43-4.07,3.85-1.44,1.68-2.79,3.65-4.86,4.46l6.14-7.61c.53-.61.99-1.28,1.35-2,.5-1.34.62-2.79.33-4.19-.06-.26-.06-.53,0-.79.26-.56.87-.86,1.47-.72.59.08,1.14.37,1.68.49,1.3.25,4.38-2.01,5.09-1.53,1.43.92-1.46,3.68-2.3,4.44Z"/><path class="cls-10_basketball-72" d="M221.88,399.7c-2.86,5.26-8.28,8.77-14,10.51-5.72,1.74-11.8,1.84-17.78,1.68-2.23,0-4.6-.16-6.41-1.41-1.7-1.29-2.69-3.3-2.69-5.43.8-.15,1.62-.21,2.43-.16,6.31.33,12.68.13,18.8-1.61,7.13-2.04,13.83-6.12,18-12.23.58-.96,1.3-1.82,2.14-2.56.54-.4,1.18-.63,1.84-.66.34,4.1-.47,8.2-2.34,11.86Z"/><path class="cls-9_basketball-72" d="M312.65,348.47c-1.61,3.28-3.52,6.61-6.58,8.61-1.22.8-2.62,1.31-4.07,1.47-.26-.95.29-2.23.89-3.18,6.11-9.83,11.17-21.42,8.74-32.73-.49-2.14-2.66-7.1.84-7.36,1.79,1.71,3.17,3.81,4.01,6.14,3.3,8.77.31,18.63-3.83,27.04Z"/><path class="cls-8_basketball-72" d="M269.83,262.22c-13.77,12.63-27.56,25.28-40.31,38.94-.83.7-1.37,1.7-1.51,2.78.11.92.52,1.78,1.16,2.45,2.76,3.42,6,6.44,9.6,8.96-.39-.28,21.91-22.41,23.94-24.35,6.53-6.27,7.28-20.22,7.12-28.79Z"/><path class="cls-7_basketball-72" d="M329.71,266.67c-4.24,9.6-10.59,18.05-15.74,27.18-2.67,4.75-5.01,9.68-7,14.75-1.11,2.87-2.26,5.98-4.86,7.59-1.57.86-3.31,1.37-5.09,1.48-1.25.17-2.51.26-3.78.33-1-.19-1.98-.49-2.92-.89-.58-.19-1.09-.56-1.46-1.05-.56-.75-.39-1.81-.23-2.73,1.37-6.48,4.26-12.54,8.45-17.68,3.25-3.98,7.29-7.4,9.89-11.9,1.68-2.96,2.7-6.31,3.91-9.53,4.31-11.31,9.99-21.07,11.44-33.23.46-3.88.69-6.11,2.46-6.21.13,0,.27.03.39.07,14.01,2.92,8.72,22.28,4.55,31.8Z"/><path class="cls-1_basketball-72" d="M295.83,143.26l.08,17.68c0,3.57,0,7.32-1.77,10.43-1.07,1.71-2.41,3.24-3.96,4.53-.73.73-1.58,1.34-2.51,1.78-.89.32-1.83.48-2.78.49-2.93.17-5.88.12-8.81-.15-1.35-.07-2.68-.34-3.95-.8-2.2-.84-3.89-2.69-5.33-4.57-5.45-7.14-8.58-16.22-15.63-21.78"/><path class="cls-1_basketball-72" d="M301.6,142.68s.92,38.25,24.67,49.35"/><path class="cls-1_basketball-72" d="M243.61,155.32s14.11,17.81,14.8,24.75-.93,17.12-.93,17.12"/><path class="cls-1_basketball-72" d="M206.05,285.57s16.9,2.98,22.14,9.46c5.24,6.48,13.88,16.04,13.88,16.04"/><path class="cls-1_basketball-72" d="M260.27,303.98s10.17,5.86,19.74,6.17c9.57.3,26.95-1.54,26.95-1.54"/></g></svg>