<svg version="1.1" id="Layer_1" xmlns="http://www.w3.org/2000/svg" xmlns:xlink="http://www.w3.org/1999/xlink" x="0px" y="0px" viewBox="0 0 500 500" style="width: 166px;" xml:space="preserve" data-imageid="bomb-80" imageName="Bomb" class="illustrations_image">
<style type="text/css">
	.st0_bomb-80{fill:#D1D3D4;}
	.st1_bomb-80{fill:#68E1FD;}
	.st2_bomb-80{fill:#231F20;}
	.st3_bomb-80{fill:#FFFFFF;}
</style>
<ellipse id="Shadow_bomb-80" class="st0_bomb-80" cx="168.5" cy="359.3" rx="82.6" ry="6.3"/>
<g id="Bomb_bomb-80">
	<circle class="st1_bomb-80 targetColor" cx="179.3" cy="257.4" r="106" style="fill: rgb(104, 225, 253);"/>
	<path class="st2_bomb-80" d="M179.3,364.1c-58.9,0-106.7-47.8-106.7-106.7c0-58.9,47.8-106.7,106.7-106.7S286,198.4,286,257.4c0,0,0,0,0,0&#10;&#9;&#9;C285.9,316.3,238.2,364,179.3,364.1z M179.3,152.1C121.2,152.1,74,199.2,74,257.4s47.1,105.3,105.3,105.3s105.3-47.1,105.3-105.3&#10;&#9;&#9;c0,0,0,0,0,0C284.5,199.2,237.4,152.1,179.3,152.1z"/>
	<path class="st2_bomb-80" d="M220.4,156.7l-11.7,12.7c-6.4,7-0.8,22.7,12.6,35s29.5,16.7,35.9,9.7l11.7-12.7L220.4,156.7z"/>
	<path class="st2_bomb-80" d="M248.4,218.1c-7.9,0-18.4-4.7-27.6-13.2c-6.6-6.1-11.5-13.1-13.9-19.8c-2.5-6.9-2-12.6,1.3-16.2l11.7-12.7&#10;&#9;&#9;c0.1-0.1,0.3-0.2,0.5-0.2c0.2,0,0.4,0.1,0.5,0.2l48.5,44.7c0.1,0.1,0.2,0.3,0.2,0.5c0,0.2-0.1,0.4-0.2,0.5l-11.7,12.7&#10;&#9;&#9;C255.5,217,252.2,218.1,248.4,218.1z M220.4,157.7l-11.2,12.1c-2.9,3.2-3.3,8.4-1,14.8c2.3,6.5,7.1,13.3,13.6,19.2&#10;&#9;&#9;c13.1,12.1,28.8,16.4,34.9,9.7l11.2-12.1L220.4,157.7z"/>
	
		<ellipse transform="matrix(0.6778 -0.7353 0.7353 0.6778 -52.8573 237.558)" class="st1_bomb-80 targetColor" cx="244.6" cy="179.1" rx="17.2" ry="33" style="fill: rgb(104, 225, 253);"/>
	<path class="st2_bomb-80" d="M260,205.5c-7.9,0-18.4-4.7-27.6-13.2c-13.7-12.6-19.3-28.8-12.6-36s23.3-2.9,36.9,9.7&#10;&#9;&#9;c13.7,12.6,19.3,28.8,12.6,36l0,0C267.2,204.3,263.9,205.5,260,205.5z M229.2,154.1c-3.5,0-6.4,1-8.4,3.1c-6.2,6.7-0.6,22,12.5,34&#10;&#9;&#9;s28.8,16.4,34.9,9.7l0,0c6.2-6.7,0.5-22-12.5-34C246.9,158.7,236.8,154.1,229.2,154.1L229.2,154.1z M268.8,201.5L268.8,201.5z"/>
	<path class="st3_bomb-80" d="M107.3,201.7c-0.8,0-1.4-0.6-1.4-1.4c0-0.3,0.1-0.6,0.3-0.9c32.9-41,78.1-37.4,78.5-37.4&#10;&#9;&#9;c0.8,0.1,1.3,0.8,1.3,1.5s-0.8,1.3-1.5,1.3c-0.4,0-44.2-3.5-76.1,36.4C108.2,201.5,107.8,201.7,107.3,201.7z"/>
	<path class="st3_bomb-80" d="M97.5,218.9c-0.1,0-0.2,0-0.3,0c-0.8-0.2-1.2-0.9-1.1-1.7c0,0,0,0,0,0c0.8-3.7,4-8.9,4.1-9.1&#10;&#9;&#9;c0.4-0.7,1.3-0.9,1.9-0.5c0.7,0.4,0.9,1.3,0.5,1.9c0,0-3,5-3.8,8.2C98.7,218.4,98.1,218.9,97.5,218.9z"/>
</g>
<g id="Fuse_bomb-80">
	<path class="st0_bomb-80" d="M285.3,326.8c-0.4,0-0.7-0.3-0.7-0.7c0-0.3,0.1-0.5,0.4-0.6l21.6-12.1c0.3-0.2,0.8-0.1,1,0.2&#10;&#9;&#9;c0.2,0.3,0.1,0.8-0.2,1c0,0-0.1,0-0.1,0l-21.6,12.1C285.5,326.7,285.4,326.7,285.3,326.8z"/>
	<path class="st0_bomb-80" d="M336.2,360.2H336c-0.4-0.1-0.6-0.5-0.5-0.9l4.1-12.9c0.1-0.4,0.5-0.6,0.9-0.5s0.6,0.5,0.5,0.9l-4.1,12.9&#10;&#9;&#9;C336.8,360,336.5,360.2,336.2,360.2z"/>
	<path class="st0_bomb-80" d="M426.7,320.7c-0.1,0-0.2,0-0.3-0.1l-21.5-10.8c-0.3-0.2-0.5-0.6-0.3-0.9c0,0,0,0,0,0c0.2-0.3,0.6-0.5,0.9-0.3&#10;&#9;&#9;l21.6,10.8c0.3,0.2,0.5,0.6,0.3,0.9C427.2,320.6,427,320.7,426.7,320.7z"/>
	<path class="st0_bomb-80" d="M426.7,265.8h-15.2c-0.4,0-0.7-0.3-0.7-0.7c0-0.4,0.3-0.7,0.7-0.7h15.2c0.4,0,0.7,0.3,0.7,0.7&#10;&#9;&#9;C427.4,265.4,427.1,265.8,426.7,265.8z"/>
	<path class="st0_bomb-80" d="M386.2,342c-0.3,0-0.5-0.2-0.6-0.4l-4.7-12.1c-0.1-0.4,0.1-0.8,0.5-0.9c0.3-0.1,0.7,0.1,0.8,0.4l4.7,12.1&#10;&#9;&#9;c0.1,0.4,0,0.8-0.4,0.9c0,0,0,0,0,0C386.4,342,386.3,342,386.2,342z"/>
	<path class="st3_bomb-80" d="M340.5,304.6c-3.5,0-6.3-2.8-6.3-6.3c0-1.6,0.6-3.2,1.8-4.4c6.1-6.3,9-11.5,8.8-15.7&#10;&#9;&#9;c-0.3-5.6-6.8-10.9-13.7-16.4c-11-8.9-26.1-21.2-18.6-41.9c3.1-8.7,7.5-16.8,11.3-23.9c12.2-22.6,16.3-32.3-5-43.9&#10;&#9;&#9;c-14-7.6-29.1-5.9-45,5c-8,5.6-15.1,12.5-21.1,20.2c-2,2.8-6,3.5-8.8,1.4s-3.5-6-1.4-8.8c13.2-18.3,47.4-47.9,82.4-28.9&#10;&#9;&#9;c33.1,18,20.9,40.8,10.1,60.9c-3.8,7.1-7.8,14.4-10.6,22.2c-4.2,11.7,2.8,18.2,14.7,27.8c8.7,7,17.7,14.3,18.3,25.5&#10;&#9;&#9;c0.5,7.9-3.6,16.2-12.3,25.2C343.9,303.9,342.3,304.6,340.5,304.6z"/>
	<path class="st2_bomb-80" d="M340.5,305.3c-3.9,0-7-3.2-7-7c0-1.8,0.7-3.6,2-4.9c5.9-6.1,8.8-11.2,8.6-15.1c-0.3-5.3-6.7-10.4-13.4-15.9&#10;&#9;&#9;c-11.2-9.1-26.4-21.5-18.8-42.6c3.1-8.8,7.5-16.9,11.4-24c12.5-23.2,15.8-31.8-4.7-43c-13.7-7.5-28.6-5.8-44.3,4.9&#10;&#9;&#9;c-8,5.6-15,12.4-20.9,20.1c-2.3,3.1-6.6,3.8-9.8,1.6c-3.1-2.3-3.8-6.6-1.6-9.8c13.3-18.5,47.9-48.4,83.3-29.1&#10;&#9;&#9;c33.8,18.4,21.4,41.5,10.4,61.9c-3.8,7.1-7.7,14.4-10.5,22.1c-4,11.2,2.9,17.6,14.5,27c8.8,7.2,17.9,14.5,18.6,26&#10;&#9;&#9;c0.5,8.1-3.6,16.6-12.5,25.7C344.3,304.5,342.4,305.3,340.5,305.3z M301.1,146.8c6.3,0,12.6,1.7,18.1,4.8&#10;&#9;&#9;c21.9,11.9,17.4,22.3,5.3,44.8c-3.8,7.1-8.2,15.2-11.3,23.8c-7.3,20.2,7.6,32.3,18.4,41.1c7,5.7,13.6,11,13.9,16.9&#10;&#9;&#9;c0.2,4.4-2.8,9.8-9,16.2c-2.3,2.1-2.5,5.6-0.4,7.9c2.1,2.3,5.6,2.5,7.9,0.4c0.2-0.1,0.3-0.3,0.5-0.5c8.6-8.9,12.6-16.9,12.1-24.7&#10;&#9;&#9;c-0.6-10.8-9.5-18-18-25c-12.1-9.8-19.3-16.4-14.9-28.6c2.8-7.9,6.8-15.2,10.6-22.3c10.7-19.8,22.8-42.3-9.8-60&#10;&#9;&#9;c-34.5-18.7-68.4,10.6-81.5,28.7c-1.8,2.5-1.2,6,1.3,7.8c2.5,1.8,6,1.2,7.8-1.3c6-7.8,13.2-14.7,21.3-20.4&#10;&#9;&#9;C282.9,150,292.2,146.8,301.1,146.8z"/>
	<polygon class="st0_bomb-80" points="338.8,260.1 301.9,242.3 324,266.7 264.7,271.1 331,279.9 310.7,295.4 336.1,291.9 322.8,319 &#10;&#9;&#9;336.8,311.9 329.2,338.3 350.8,309.1 370.5,365.1 368.7,312.5 394.5,326.4 379.2,297 422.3,295.6 391.9,283.1 409.6,276.5 379,273 &#10;&#9;&#9;420.6,247.2 374.3,262.2 386.3,239.8 369.9,250.2 366.6,226.4 358.3,253.4 341,200.9 347,253.4 333.4,237.6 &#9;"/>
	<path class="st2_bomb-80" d="M370.5,365.8c-0.3,0-0.6-0.2-0.7-0.5l-19.2-54.7l-20.8,28.2c-0.2,0.3-0.7,0.4-1,0.2c-0.2-0.2-0.4-0.5-0.3-0.8&#10;&#9;&#9;l7.1-24.8l-12.5,6.4c-0.3,0.1-0.6,0.1-0.8-0.1c-0.2-0.2-0.3-0.5-0.1-0.8l12.7-25.9l-24.1,3.3c-0.3,0-0.6-0.1-0.7-0.4&#10;&#9;&#9;c-0.1-0.3,0-0.6,0.2-0.8l18.9-14.5l-64.6-8.6c-0.4,0-0.6-0.4-0.6-0.7c0-0.4,0.3-0.7,0.6-0.7l57.8-4.2l-21.1-23.4&#10;&#9;&#9;c-0.2-0.3-0.2-0.6,0-0.9c0.2-0.3,0.6-0.3,0.9-0.2l35.6,17.2l-5-21.1c-0.1-0.3,0.1-0.6,0.4-0.8c0.3-0.2,0.6-0.1,0.9,0.2l12,14.1&#10;&#9;&#9;l-5.7-50.2c0-0.4,0.2-0.7,0.6-0.8c0.3,0,0.6,0.2,0.7,0.5l16.6,50.4l7.6-24.9c0.1-0.4,0.5-0.6,0.9-0.5c0.3,0.1,0.4,0.3,0.5,0.6&#10;&#9;&#9;l3.2,22.6l15.5-9.9c0.3-0.2,0.6-0.1,0.9,0.1c0.2,0.2,0.3,0.6,0.1,0.8l-11.2,21l44.7-14.5c0.4-0.1,0.8,0.1,0.9,0.5&#10;&#9;&#9;c0.1,0.3,0,0.6-0.3,0.8l-39.9,24.7l28.6,3.3c0.4,0.1,0.7,0.4,0.6,0.8c0,0.2-0.2,0.5-0.4,0.6l-16,5.9l28.8,11.9&#10;&#9;&#9;c0.3,0.1,0.5,0.5,0.4,0.8c-0.1,0.3-0.3,0.6-0.7,0.6l-42,1.3l14.8,28.5c0.1,0.3,0.1,0.6-0.1,0.8c-0.2,0.2-0.5,0.3-0.8,0.1&#10;&#9;&#9;l-24.7-13.4l1.7,51.4c0,0.3-0.2,0.6-0.6,0.7L370.5,365.8z M350.8,308.4h0.1c0.3,0,0.5,0.2,0.5,0.5l18.1,51.7l-1.6-48&#10;&#9;&#9;c0-0.3,0.1-0.5,0.3-0.6c0.2-0.1,0.5-0.1,0.7,0l23.8,12.8l-14.3-27.4c-0.1-0.2-0.1-0.5,0-0.7c0.1-0.2,0.3-0.3,0.6-0.4l39.9-1.2&#10;&#9;&#9;l-27.4-11.3c-0.4-0.1-0.5-0.5-0.4-0.9c0.1-0.2,0.2-0.3,0.4-0.4l15-5.5l-27.7-3.2c-0.3,0-0.5-0.2-0.6-0.5c-0.1-0.3,0.1-0.6,0.3-0.8&#10;&#9;&#9;l36.7-22.7l-40.8,13.2c-0.3,0.1-0.6,0-0.8-0.2c-0.2-0.2-0.2-0.5-0.1-0.8l10.8-20.1l-14.1,9c-0.2,0.1-0.5,0.1-0.7,0&#10;&#9;&#9;c-0.2-0.1-0.4-0.3-0.4-0.5l-2.9-20.6l-7.4,24c-0.1,0.3-0.4,0.5-0.7,0.5c-0.3,0-0.6-0.2-0.7-0.5l-15.2-46l5.2,45.8&#10;&#9;&#9;c0,0.3-0.1,0.6-0.4,0.7c-0.3,0.1-0.6,0-0.8-0.2l-11.7-13.7l4.7,19.7c0.1,0.3,0,0.5-0.2,0.7c-0.2,0.2-0.5,0.2-0.7,0.1l-33.7-16.3&#10;&#9;&#9;l19.7,21.8c0.2,0.2,0.2,0.5,0.1,0.7c-0.1,0.3-0.3,0.4-0.6,0.4l-52.5,3.9l59.6,7.9c0.3,0,0.5,0.2,0.6,0.5c0.1,0.3,0,0.6-0.3,0.7&#10;&#9;&#9;l-18.2,13.9l22.7-3.2c0.3,0,0.5,0.1,0.7,0.3c0.1,0.2,0.2,0.5,0.1,0.7l-12.4,25.2l12.1-6.1c0.3-0.2,0.8-0.1,0.9,0.3&#10;&#9;&#9;c0.1,0.2,0.1,0.4,0.1,0.5l-6.5,22.7l19.3-26.1C350.4,308.5,350.6,308.4,350.8,308.4z"/>
	<path class="st0_bomb-80" d="M253,175.1c-0.3,0-0.5-0.1-0.6-0.4c-1.9-3.4-2.9-7.3-2.9-11.3c0-0.4,0.4-0.7,0.7-0.7c0.4,0,0.7,0.3,0.7,0.7&#10;&#9;&#9;c0,3.7,0.9,7.3,2.7,10.5c0.2,0.3,0.1,0.8-0.2,1c0,0,0,0,0,0C253.2,175,253.1,175.1,253,175.1z"/>
	<path class="st0_bomb-80" d="M260.9,165.8c-0.3,0-0.5-0.1-0.6-0.4c-1.3-2.9-2-6-2.1-9.1c0-0.4-0.1-0.9-0.1-1c-0.2-0.3-0.1-0.7,0.2-0.9&#10;&#9;&#9;c0,0,0,0,0,0c0.4-0.2,0.8-0.1,1,0.3c0.2,0.2,0.2,0.6,0.3,1.5c0.1,3,0.8,5.9,2,8.6c0.2,0.3,0.1,0.8-0.3,0.9c0,0,0,0,0,0&#10;&#9;&#9;C261.1,165.7,261,165.8,260.9,165.8z"/>
	<path class="st0_bomb-80" d="M269.7,158.5c-0.3,0-0.6-0.2-0.7-0.5c-1.9-7.1-1.1-10.1-1.1-10.2c0.1-0.4,0.5-0.6,0.9-0.5&#10;&#9;&#9;c0.4,0.1,0.6,0.5,0.5,0.9l0,0c0,0-0.7,2.9,1.1,9.5c0.1,0.4-0.1,0.7-0.5,0.8c0,0,0,0,0,0H269.7z"/>
	<path class="st0_bomb-80" d="M278.2,153c-0.3,0-0.6-0.3-0.7-0.6c-0.6-3.7-0.4-7.5,0.5-11.1c0.1-0.4,0.5-0.6,0.9-0.5&#10;&#9;&#9;c0.4,0.1,0.6,0.5,0.5,0.9l0,0c-0.9,3.4-1,7-0.5,10.5c0.1,0.4-0.2,0.7-0.6,0.8C278.3,153,278.3,153,278.2,153L278.2,153z"/>
	<path class="st0_bomb-80" d="M287.7,148.6c-0.3,0-0.6-0.2-0.7-0.6c-1-5.1,2.5-10.5,2.6-10.8c0.2-0.3,0.6-0.5,1-0.3c0.3,0.2,0.5,0.6,0.3,1&#10;&#9;&#9;c0,0,0,0,0,0.1c0,0-3.3,5.2-2.4,9.8c0.1,0.4-0.2,0.7-0.6,0.8L287.7,148.6z"/>
	<path class="st0_bomb-80" d="M297,146h-0.2c-0.4-0.1-0.6-0.5-0.5-0.9c1-3.5,2.9-6.6,5.5-9.1c0.3-0.3,0.7-0.3,1,0c0,0,0,0,0,0&#10;&#9;&#9;c0.3,0.3,0.3,0.7,0,1c0,0,0,0,0,0c-2.4,2.4-4.1,5.3-5.1,8.5C297.6,145.8,297.3,146,297,146z"/>
	<path class="st0_bomb-80" d="M306.9,147.1c-0.2,0-0.3-0.1-0.4-0.1c-0.3-0.2-0.4-0.7-0.2-1c0,0,0,0,0,0c0.2-0.2,4.6-6.1,8.4-7.9&#10;&#9;&#9;c0.3-0.2,0.8,0,0.9,0.3c0.2,0.3,0,0.8-0.3,0.9c0,0-0.1,0-0.1,0c-3.5,1.6-7.8,7.3-7.9,7.4C307.4,147,307.2,147.1,306.9,147.1z"/>
	<path class="st0_bomb-80" d="M318,150.5c-0.2,0-0.5-0.1-0.6-0.3c-0.2-0.3-0.2-0.8,0.2-1c0,0,0,0,0,0c0.3-0.2,6.3-4.3,11.2-3.8&#10;&#9;&#9;c0.4,0.1,0.6,0.4,0.6,0.8c-0.1,0.3-0.4,0.6-0.7,0.6c-4.3-0.4-10.2,3.5-10.2,3.6C318.3,150.4,318.1,150.5,318,150.5z"/>
	<path class="st0_bomb-80" d="M328.8,158c-0.4,0-0.7-0.3-0.7-0.7c0-0.3,0.2-0.5,0.4-0.6c0.2-0.1,6.1-2.8,11.9-1.6c0.4,0.1,0.6,0.5,0.5,0.8&#10;&#9;&#9;c0,0,0,0,0,0c-0.1,0.4-0.4,0.6-0.8,0.5c0,0,0,0,0,0c-5.4-1.1-11,1.4-11.1,1.5C328.9,158,328.8,158,328.8,158z"/>
	<path class="st0_bomb-80" d="M344.5,174.3c-0.2,0-0.4-0.1-0.5-0.3c-3-4-8.7-4.5-8.8-4.5c-0.4,0-0.7-0.4-0.6-0.8c0,0,0,0,0,0&#10;&#9;&#9;c0-0.4,0.4-0.7,0.8-0.6c0.3,0,6.4,0.6,9.8,5.1c0.2,0.3,0.2,0.7-0.1,1c0,0,0,0,0,0C344.8,174.2,344.6,174.3,344.5,174.3z"/>
	<path class="st0_bomb-80" d="M339.8,190L339.8,190c-0.4,0-0.7-0.3-0.7-0.7c0.1-1.8-2.1-4.1-6.4-6.6c-0.5-0.3-0.6-0.4-0.7-0.5&#10;&#9;&#9;c-0.2-0.3,0-0.8,0.3-0.9c0.2-0.1,0.5-0.1,0.7,0l0.4,0.2c1.8,1.1,7.2,4.3,7.1,7.9C340.5,189.7,340.2,190,339.8,190z"/>
	<path class="st0_bomb-80" d="M333.8,201L333.8,201c-0.4,0-0.7-0.3-0.7-0.7c0-3.3-1.9-6.3-5-7.5c-0.4-0.2-0.6-0.3-0.7-0.6&#10;&#9;&#9;c-0.1-0.4,0.1-0.8,0.4-0.9c0,0,0,0,0,0c0.2-0.1,0.5,0,0.7,0.1l0.2,0.1c3.9,1.9,5.9,4.9,5.8,8.8C334.5,200.7,334.2,201,333.8,201&#10;&#9;&#9;C333.8,201,333.8,201,333.8,201z"/>
	<path class="st0_bomb-80" d="M329.1,210.5c-0.4,0-0.7-0.3-0.7-0.7c-0.1-3.3-2.1-6.3-5.1-7.6c-0.6-0.3-0.9-0.5-1-0.8c-0.1-0.4,0-0.8,0.4-0.9&#10;&#9;&#9;c0.3-0.1,0.6,0,0.8,0.2c0.1,0.1,0.3,0.1,0.5,0.3c3.4,1.6,5.7,5,5.9,8.8C329.8,210.2,329.5,210.5,329.1,210.5&#10;&#9;&#9;C329.2,210.5,329.2,210.5,329.1,210.5L329.1,210.5z"/>
	<path class="st0_bomb-80" d="M325.5,217.3c-0.3,0-0.5-0.2-0.6-0.4c-2.7-5.6-7.5-4.4-7.7-4.3c-0.4,0.1-0.7-0.2-0.8-0.5&#10;&#9;&#9;c-0.1-0.3,0.1-0.7,0.5-0.8c0.1,0,6.2-1.6,9.4,5c0.2,0.3,0,0.8-0.3,0.9C325.7,217.3,325.6,217.3,325.5,217.3z"/>
	<path class="st0_bomb-80" d="M322,227.4c-0.3,0-0.6-0.2-0.7-0.5c-1-3.5-7.6-4.6-7.7-4.6c-0.4-0.1-0.6-0.4-0.6-0.8c0.1-0.4,0.4-0.6,0.8-0.6&#10;&#9;&#9;c0,0,0,0,0,0c0.3,0,7.5,1.2,8.8,5.6c0.1,0.4-0.1,0.8-0.5,0.9c0,0,0,0,0,0C322.1,227.4,322.1,227.4,322,227.4z"/>
	<path class="st0_bomb-80" d="M312.6,236c-0.3,0-0.6-0.2-0.7-0.6c-0.1-0.4,0.2-0.7,0.5-0.8c0,0,0,0,0,0c0.3-0.1,6.5-1.3,9.7-0.3&#10;&#9;&#9;c0.4,0.1,0.6,0.5,0.5,0.9c-0.1,0.4-0.5,0.6-0.9,0.5c0,0,0,0,0,0c-2.9-0.9-8.9,0.3-9,0.4L312.6,236z"/>
	<path class="st0_bomb-80" d="M319.4,248.9c-0.4,0-0.7-0.3-0.7-0.7c0-0.3,0.2-0.6,0.5-0.7c0.3-0.1,7-2,10.6-1.9c0.4,0,0.7,0.3,0.7,0.7&#10;&#9;&#9;c0,0,0,0,0,0c0,0.4-0.3,0.7-0.7,0.7c0,0,0,0,0,0c-3.3-0.1-10.2,1.9-10.2,1.9C319.5,248.8,319.4,248.9,319.4,248.9z"/>
	<path class="st0_bomb-80" d="M381.5,224h-0.2c-0.4-0.1-0.6-0.5-0.5-0.9l9.5-35.5c0.1-0.4,0.5-0.6,0.9-0.4c0.3,0.1,0.5,0.5,0.5,0.8&#10;&#9;&#9;l-9.5,35.5C382.1,223.8,381.8,224,381.5,224z"/>
	<path class="st0_bomb-80" d="M306.9,283.7h-16.8c-0.4,0-0.7-0.3-0.7-0.7c0-0.4,0.3-0.7,0.7-0.7h16.8c0.4,0,0.7,0.3,0.7,0.7&#10;&#9;&#9;C307.6,283.4,307.3,283.7,306.9,283.7L306.9,283.7z"/>
	<path class="st0_bomb-80" d="M359.1,218.2c-0.4,0-0.7-0.3-0.7-0.7c0,0,0,0,0,0v-17.2c0-0.4,0.3-0.7,0.7-0.7c0.4,0,0.7,0.3,0.7,0.7v17.1&#10;&#9;&#9;C359.8,217.8,359.5,218.2,359.1,218.2z"/>
</g>
</svg>