<svg id="_0275_boss" xmlns="http://www.w3.org/2000/svg" viewBox="0 0 500 500" data-imageid="boss-80" imageName="Boss" class="illustrations_image" style="width: 166px;"><defs><style>.cls-1_boss-80{opacity:.45;}.cls-1_boss-80,.cls-2_boss-80,.cls-3_boss-80,.cls-4_boss-80,.cls-5_boss-80,.cls-6_boss-80,.cls-7_boss-80{fill:none;}.cls-8_boss-80{fill:#fff;}.cls-9_boss-80{fill:#f4a28c;}.cls-2_boss-80{opacity:.58;}.cls-10_boss-80{fill:#ce8172;}.cls-11_boss-80{fill:#e6e6e6;}.cls-3_boss-80{opacity:.09;}.cls-4_boss-80{opacity:.73;}.cls-5_boss-80{opacity:.64;}.cls-6_boss-80{opacity:.31;}.cls-7_boss-80{opacity:.77;}.cls-12_boss-80{fill:#24285b;}.cls-13_boss-80{fill:#000001;}.cls-14_boss-80{fill:#ffd200;}.cls-15_boss-80{fill:#68e1fd;}</style></defs><g id="sd_boss-80" class="cls-1_boss-80"><ellipse class="cls-11_boss-80" cx="286.26" cy="457.5" rx="196.93" ry="24.58"/></g><g id="boss_boss-80"><path class="cls-15_boss-80 targetColor" d="m249.87,115.18c7.11-22.91-15.58-43.77-37.93-35.06-17.62,6.87-37.32,20.99-53.58,49.08-12.67,21.88-21.75,36.38-28.25,45.97-7.01,10.34-22.03,10.87-29.73,1.04l-53.95-68.91-20.16,14.85s45.51,113.07,96.7,108.5c44.13-3.93,102.94-38.3,126.9-115.47Z" style="fill: rgb(104, 225, 253);"/><g class="cls-3_boss-80"><path class="cls-13_boss-80" d="m249.87,115.18c7.11-22.91-15.58-43.77-37.93-35.06-17.62,6.87-37.32,20.99-53.58,49.08-12.67,21.88-21.75,36.38-28.25,45.97-7.01,10.34-22.03,10.87-29.73,1.04l-53.95-68.91-20.16,14.85s45.51,113.07,96.7,108.5c44.13-3.93,102.94-38.3,126.9-115.47Z"/></g><path class="cls-15_boss-80 targetColor" d="m224.52,439.96s-3,8.35-10.54,8.98c-7.54.64-9.52,8.01-2.74,9.93,6.78,1.92,24.27-6.79,24.27-6.79l-.49-10.88-10.5-1.24Z" style="fill: rgb(104, 225, 253);"/><path class="cls-15_boss-80 targetColor" d="m319.29,439.96s3,8.35,10.54,8.98,9.52,8.01,2.74,9.93c-6.78,1.92-24.27-6.79-24.27-6.79l.49-10.88,10.5-1.24Z" style="fill: rgb(104, 225, 253);"/><path class="cls-9_boss-80" d="m274.7,36.41s-5.72,11.05-6.93,19.46c-.49,3.41,1.92,6.62,5.34,7.07,4.25.55,10.14.06,13.93-5.49l7.57-8.63s4.56-5.57,0-12.9c-4.56-7.33-16.76-6.41-19.9.49Z"/><polygon class="cls-9_boss-80" points="290.8 45.62 292.6 86.33 270.1 85.72 277.82 56.34 290.8 45.62"/><path class="cls-9_boss-80" d="m271.45,43.55l-5.03,3.11c-1.24.77-1.26,2.57-.04,3.36l4.06,2.64,1.01-9.11Z"/><g class="cls-6_boss-80"><path class="cls-10_boss-80" d="m275.99,63.07s4.22-.37,7.72-3.49c0,0-1.16,7.37-10.13,13.75l2.41-10.27Z"/></g><path class="cls-15_boss-80 targetColor" d="m239.09,74.41c28.21.48,66.28,5.44,107.42,22.97,22,9.37,31.63,35.29,20.91,56.67l-58.45,116.58-108.36-6.41s-19.72-65.51-15.76-139.63c1.53-28.58,25.63-50.65,54.24-50.16Z" style="fill: rgb(104, 225, 253);"/><path class="cls-12_boss-80" d="m291.65,60.48l-7.76-4.17-.79-4.13s-3.7-4.94,0-10.94c0,0-14.9-7.24-11.41-13.47,3.49-6.22,14.5-14.52,25.18-6.64,10.68,7.88,16.07,22.26-5.21,39.34Z"/><path class="cls-9_boss-80" d="m282.86,51.29s1.91-4.39,5.09-2.68c3.19,1.71.47,8.07-4.3,6.81l-.79-4.13Z"/><path class="cls-8_boss-80" d="m299.31,81.92s-17.6-5.54-40.66-6.49c0,0-18.96,75.7-4.03,136.69,0,0,21.24-76.82,44.69-130.19Z"/><g class="cls-3_boss-80"><path class="cls-13_boss-80" d="m341.68,117.2s-37.32,3.09-32.58,28.67c4.74,25.58,3.79,33.64,3.79,33.64l-20.3,5.21,7.71,32.94c2.82,12.04-2.77,24.47-13.65,30.36l-35.46,19.18,57.76,3.42,18.98-37.86,28.41-72.08-14.67-43.48Z"/></g><path class="cls-15_boss-80 targetColor" d="m299.31,81.92s.74-9.2-5.8-9.51c-6.53-.31-10.65.92-10.65.92,0,0-19.1-14.97-24.21,2.09,0,0,27.32,3.03,40.66,6.49Z" style="fill: rgb(104, 225, 253);"/><g class="cls-7_boss-80"><path class="cls-8_boss-80" d="m299.31,81.92s.74-9.2-5.8-9.51c-6.53-.31-10.65.92-10.65.92,0,0-19.1-14.97-24.21,2.09,0,0,27.32,3.03,40.66,6.49Z"/></g><path class="cls-12_boss-80" d="m285.97,79.07s2.16-7.2-2.38-8.09c-4.54-.89-8.65-3.83-9.62,5.4-.97,9.23,8.29,10.18,12,2.69Z"/><path class="cls-12_boss-80" d="m282.96,82.71s-14.33,50.76-14.49,83.39l-13.85,46.01s-6.48-24.95-5.73-50.09c0,0,14.82-66.78,25.21-82.39l8.86,3.08Z"/><polygon class="cls-8_boss-80" points="46.43 107.3 42.7 100.66 24.06 113.93 28.61 120.42 46.43 107.3"/><path class="cls-9_boss-80" d="m40.02,102.97s-6.32-24.23-13.19-26.82c-6.87-2.59-1.1,12.39-1.1,12.39,0,0-20.06,11.15,0,24.61l14.29-10.17Z"/><path class="cls-12_boss-80" d="m325.6,442.59l-16.64-171.98-108.36-6.41,18.43,178.39h20.86s-5.21-113.14,11.3-139.05c.03-.04.05-.08.08-.12,3.83-5.97,12.82-5.53,16.18.72,22.65,42.25,36.28,138.44,36.28,138.44h21.87Z"/><g class="cls-5_boss-80"><circle class="cls-8_boss-80" cx="254.08" cy="229.12" r="4.76"/></g><g class="cls-5_boss-80"><circle class="cls-8_boss-80" cx="253.72" cy="249.66" r="4.76"/></g></g><g id="assistant_boss-80"><path class="cls-9_boss-80" d="m358.76,112.86s-37.32-.19-28.32,37.26c9.01,37.45,4.27,136.05,4.27,136.05,0,0-8.8,21.92,5.55,22.1,14.35.18,20.25-97.7,20.25-97.7l-1.75-97.7Z"/><polygon class="cls-9_boss-80" points="419.56 308.26 441.17 444.52 432.9 444.52 388.82 308.26 419.56 308.26"/><polygon class="cls-9_boss-80" points="380.64 308.92 365.46 444.52 357.14 444.52 352.42 308.26 380.64 308.92"/><path class="cls-15_boss-80 targetColor" d="m441.17,444.52s4.6,5.83,10.47,5.54c5.88-.29,6.74,8.02-2.72,7.16-3.61-.33-6.51-.91-8.71-1.5-2.63-.7-5.34-.42-7.97.28-.82.22-1.76.03-2.69-1.08-2.68-3.15,3.91-10.41,3.91-10.41h7.71Z" style="fill: rgb(104, 225, 253);"/><path class="cls-15_boss-80 targetColor" d="m357.75,444.52s-4.6,5.83-10.47,5.54c-5.88-.29-6.74,8.02,2.72,7.16,3.61-.33,6.51-.91,8.71-1.5,2.63-.7,5.34-.42,7.97.28.82.22,1.76.03,2.69-1.08,2.68-3.15-3.91-10.41-3.91-10.41h-7.71Z" style="fill: rgb(104, 225, 253);"/><polygon class="cls-12_boss-80" points="407.37 212.46 438.99 357.74 336.72 364.38 346.19 214.44 407.37 212.46"/><path class="cls-9_boss-80" d="m356.75,70.9s-1.26,12.37.7,20.64c.8,3.35,4.22,5.46,7.56,4.61,4.15-1.05,9.46-3.67,10.94-10.22l3.88-10.8s2.19-6.85-4.74-12c-6.93-5.15-17.94.19-18.33,7.76Z"/><polygon class="cls-9_boss-80" points="378.69 72.15 380.49 112.86 365.33 112.45 368.25 84.16 378.69 72.15"/><path class="cls-9_boss-80" d="m356.36,78.74l-3.54,4.74c-.87,1.17-.23,2.85,1.2,3.14l4.74.97-2.4-8.85Z"/><path class="cls-12_boss-80" d="m352.42,71.32h0c9.61,2.31,18.26,7.55,24.77,14.99l1.99,2.27s11.01-15.72,6.86-25.08-28.71-18.49-33.61,7.82Z"/><circle class="cls-12_boss-80" cx="386.63" cy="53.66" r="7.94"/><path class="cls-9_boss-80" d="m369.8,81.75s.16-4.79,3.76-4.36c3.59.42,3.4,7.34-1.5,7.91l-2.25-3.55Z"/><path class="cls-15_boss-80 targetColor" d="m358.76,104.08h28.21v8.78s47.42-.89,44.1,29.92c-3.32,30.81-23.7,69.68-23.7,69.68l-54.94,1.98s-16.51-23.44-25.52-52.23c-9.01-28.78,31.86-49.36,31.86-49.36v-8.78Z" style="fill: rgb(104, 225, 253);"/><g class="cls-3_boss-80"><path class="cls-13_boss-80" d="m413.52,130.87s-20.03,6.13-14.97,33.62c5.06,27.49,1.04,36.97-30.29,40.13l5.34,9.81,33.77-1.98s7.91-15.6,9.81-21.36-3.66-60.24-3.66-60.24Z"/></g><rect class="cls-14_boss-80" x="320.53" y="161.75" width="51.32" height="69.22" transform="translate(-16.31 32.04) rotate(-5.18)"/><path class="cls-9_boss-80" d="m380.49,221.22s-4.91-10.63-15.16-9.11c-10.24,1.52-2.98,20.49,10.69,20.96,13.67.47,43.54,33.66,61.08,16.59,17.54-17.07,14.87-106.24-8.54-120.5-23.41-14.26-22.28,32.33-12.32,59.35,9.95,27.02,17.62,59.73-35.75,32.71Z"/></g><g id="plant_boss-80"><g class="cls-2_boss-80"><path class="cls-15_boss-80 targetColor" d="m121.5,429.68s-19.02-5.19-23.16-22.89c0,0,29.47-5.96,30.31,24.46l-7.15-1.56Z" style="fill: rgb(104, 225, 253);"/></g><g class="cls-4_boss-80"><path class="cls-15_boss-80 targetColor" d="m123.83,427.79s-13.29-21.01-1.59-40.65c0,0,22.41,14.23,12.45,40.69l-10.86-.05Z" style="fill: rgb(104, 225, 253);"/></g><path class="cls-15_boss-80 targetColor" d="m127.26,427.81s7.02-22.18,28.24-26.39c0,0,3.98,14.4-13.74,26.45l-14.5-.06Z" style="fill: rgb(104, 225, 253);"/><polygon class="cls-12_boss-80" points="113.46 427.31 117.32 453.68 141.6 453.79 145.18 427.44 113.46 427.31"/></g></svg>