<svg version="1.1" id="Layer_1" xmlns="http://www.w3.org/2000/svg" xmlns:xlink="http://www.w3.org/1999/xlink" x="0px" y="0px" viewBox="0 0 500 500" style="width: 166px;" xml:space="preserve" data-imageid="boston-67" imageName="Boston" class="illustrations_image">
<style type="text/css">
	.st0_boston-67{fill:#FFFFFF;}
	.st1_boston-67{fill:#093F68;}
	.st2_boston-67{fill:#68E1FD;}
	.st3_boston-67{fill:#70CC40;}
</style>
<g id="circle_boston-67">
	<path class="st0_boston-67" d="M427,250c0,11.4-1.1,22.7-3.2,33.9c-2.6,13.5-6.8,26.7-12.5,39.2c-2.2,4.8-4.6,9.5-7.2,14&#10;&#9;&#9;c-3.3,5.8-6.9,11.4-10.8,16.7c-4,5.6-8.4,10.9-13.1,16c-3.9,4.3-8.1,8.4-12.5,12.2c-1.6,1.4-3.2,2.8-4.9,4.2&#10;&#9;&#9;c-2.1,1.8-4.4,3.5-6.6,5.2c-6.7,5-13.7,9.6-21.1,13.6c-52.8,28.9-116.7,28.9-169.6,0c-7.3-4-14.4-8.6-21.1-13.6&#10;&#9;&#9;c-0.7-0.5-1.4-1.1-2.1-1.6c-3.2-2.5-6.3-5-9.4-7.8c-28.3-25.1-47.8-58.7-55.6-95.7c-1.7-8.2-2.9-16.5-3.4-24.9&#10;&#9;&#9;c-0.3-3.8-0.4-7.6-0.4-11.4c0-6,0.3-11.9,0.9-17.7c9.3-97.1,95.6-168.3,192.7-159C358.1,82.1,427.4,158.7,427,250z"/>
	<path class="st1_boston-67" d="M250.3,428.5c-29.9,0-59.4-7.5-85.7-21.9c-7.4-4.1-14.5-8.6-21.3-13.7c-0.7-0.5-1.5-1.1-2.2-1.7&#10;&#9;&#9;c-3.1-2.3-6.2-4.9-9.4-7.8c-7.3-6.5-14.1-13.5-20.2-21.1c-6.6-8.1-12.4-16.8-17.5-25.9c-4.4-8-8.2-16.4-11.4-25&#10;&#9;&#9;c-5.9-16-9.4-32.9-10.5-49.9c-0.2-3.6-0.4-7.4-0.4-11.5c0-5.9,0.3-11.9,0.9-17.9c9.2-91.2,86-160.6,177.7-160.6&#10;&#9;&#9;c98.5,0,178.5,80.1,178.5,178.5c0,11.5-1.1,23-3.3,34.2c-2.7,13.7-6.9,26.9-12.7,39.6c-2.2,4.8-4.6,9.6-7.2,14.2&#10;&#9;&#9;c-9.7,17.1-22.1,32.4-36.8,45.4c-1.7,1.5-3.4,3-5,4.2c-2,1.6-4.1,3.3-6.6,5.2c-6.8,5.1-13.9,9.7-21.3,13.7&#10;&#9;&#9;C309.7,421,280.3,428.5,250.3,428.5z M250.3,75.2c-89.7,0-164.9,68-173.9,157.3c-0.6,5.9-0.9,11.7-0.9,17.5c0,3.9,0.1,7.7,0.4,11.2&#10;&#9;&#9;c1.6,25.7,8.9,50.7,21.4,73.3c9.6,17.3,22.1,32.9,36.9,46.1c3.2,2.9,6.2,5.4,9.2,7.7c0.7,0.6,1.4,1.1,2.1,1.6&#10;&#9;&#9;c62.1,46.6,147.4,46.6,209.5,0c2.5-1.9,4.6-3.5,6.5-5.1c1.6-1.3,3.2-2.7,4.9-4.2c14.3-12.8,26.5-27.8,36-44.5&#10;&#9;&#9;c2.6-4.5,5-9.2,7.1-13.9c5.6-12.4,9.8-25.4,12.4-38.8c2.1-11,3.2-22.3,3.2-33.5C425.1,153.6,346.7,75.2,250.3,75.2z"/>
</g>
<g id="building_boston-67">
	<path class="st1_boston-67" d="M423.7,285.8c-0.5,0-0.9-0.2-1.3-0.5L261.5,139c-0.8-0.7-0.8-1.9-0.1-2.7c0.7-0.8,1.9-0.8,2.7-0.1l0,0&#10;&#9;&#9;L425,282.5c0.8,0.7,0.8,1.9,0.1,2.7c0,0,0,0,0,0C424.8,285.5,424.2,285.8,423.7,285.8z"/>
	<path class="st1_boston-67" d="M418.2,306.9c-0.5,0-1-0.2-1.3-0.6L264.3,152c-0.7-0.7-0.7-1.9,0-2.7s1.9-0.7,2.7,0l2.5,2.5l150.1,151.8&#10;&#9;&#9;c0.7,0.7,0.7,1.9,0,2.7c0,0,0,0,0,0C419.2,306.7,418.7,306.9,418.2,306.9z"/>
	<path class="st1_boston-67" d="M411.2,325c-0.5,0-1-0.2-1.4-0.6L261.4,161.1c-0.7-0.8-0.6-2,0.1-2.7s2-0.6,2.7,0.1l148.4,163.3&#10;&#9;&#9;c0.7,0.8,0.6,2-0.1,2.7C412.1,324.8,411.7,325,411.2,325L411.2,325z"/>
	<path class="st1_boston-67" d="M404,339c-0.5,0-1.1-0.2-1.4-0.6L261.4,173.7c-0.7-0.8-0.5-2,0.3-2.6c0.8-0.6,1.9-0.5,2.6,0.2l141.2,164.6&#10;&#9;&#9;c0.7,0.8,0.6,2-0.2,2.6C404.9,338.8,404.5,339,404,339z"/>
	<path class="st1_boston-67" d="M393.2,355.7c-0.6,0-1.1-0.3-1.5-0.7L261.3,188.3c-0.6-0.8-0.5-2,0.3-2.7s2-0.5,2.7,0.3l130.4,166.7&#10;&#9;&#9;c0.6,0.8,0.5,2-0.3,2.6c0,0,0,0,0,0C394,355.6,393.6,355.7,393.2,355.7z"/>
	<path class="st1_boston-67" d="M380.1,371.7c-0.6,0-1.2-0.3-1.5-0.8L266.1,208.1c-0.6-0.9-0.4-2,0.5-2.6c0.9-0.6,2-0.4,2.6,0.5l112.4,162.8&#10;&#9;&#9;c0.6,0.9,0.4,2-0.5,2.6C380.9,371.6,380.5,371.7,380.1,371.7z"/>
	<path class="st1_boston-67" d="M357.2,383.9c-0.7,0-1.3-0.4-1.6-1L266,221.6c-0.5-0.9-0.2-2.1,0.7-2.6c0.9-0.5,2.1-0.2,2.6,0.7c0,0,0,0,0,0&#10;&#9;&#9;l89.6,161.3c0.5,0.9,0.2,2.1-0.7,2.6C357.9,383.8,357.5,383.9,357.2,383.9z"/>
	<polygon class="st2_boston-67 targetColor" points="258.4,83.7 267,96.1 269,192.8 325.1,382 300.8,382 259.7,225.3 224.8,382 206.2,382 245.1,219.8 &#10;&#9;&#9;253.1,148.9 253.1,103.6 &#9;" style="fill: rgb(104, 225, 253);"/>
	<path class="st1_boston-67" d="M325.1,383.9h-24.3c-0.9,0-1.6-0.6-1.8-1.4l-39.1-149.2l-33.2,149.1c-0.2,0.9-0.9,1.5-1.8,1.5h-18.6&#10;&#9;&#9;c-1,0-1.9-0.9-1.9-1.9c0-0.1,0-0.3,0-0.4l38.9-162.1l8-70.7v-45.2c0-0.2,0-0.3,0.1-0.5l5.3-19.9c0.2-0.7,0.8-1.2,1.5-1.4&#10;&#9;&#9;c0.7-0.1,1.5,0.2,1.9,0.8l8.6,12.4c0.2,0.3,0.3,0.6,0.3,1l2,96.5l56.1,188.9c0.3,1-0.3,2-1.3,2.3&#10;&#9;&#9;C325.5,383.8,325.3,383.9,325.1,383.9L325.1,383.9z M302.3,380.1h20.3l-55.4-186.8c0-0.2-0.1-0.3-0.1-0.5l-2-96.2l-6-8.6l-4.1,15.7&#10;&#9;&#9;v45c0,0.1,0,0.1,0,0.2l-8,70.9c0,0.1,0,0.2,0,0.2l-38.4,159.9h14.7l34.6-155.2c0.2-0.8,0.9-1.5,1.8-1.5c0.9,0,1.6,0.6,1.9,1.4&#10;&#9;&#9;L302.3,380.1z M253.1,148.9L253.1,148.9z"/>
	<path class="st2_boston-67 targetColor" d="M305.7,382l-49.1-191.8l0.2-95c0,0,0-0.1,0-0.1l1.6-11.3l-9.3,13.7l-2.7,97.2l-49,187.4h8.8l45.3-168.4&#10;&#9;&#9;L296.8,382H305.7z" style="fill: rgb(104, 225, 253);"/>
	<path class="st1_boston-67" d="M305.7,383.9h-8.8c-0.9,0-1.6-0.6-1.8-1.4l-43.5-161.6L208,382.5c-0.2,0.8-1,1.4-1.8,1.4h-8.8&#10;&#9;&#9;c-0.6,0-1.1-0.3-1.5-0.7c-0.3-0.5-0.5-1.1-0.3-1.6l49-187.2l2.6-97c0-0.4,0.1-0.7,0.3-1l9.3-13.7c0.5-0.9,1.7-1.2,2.6-0.7&#10;&#9;&#9;c0.7,0.4,1.1,1.3,0.9,2.1l-1.6,11.3l-0.2,94.7l49,191.6c0.3,1-0.3,2-1.4,2.3C306,383.9,305.8,383.9,305.7,383.9L305.7,383.9z&#10;&#9;&#9; M298.3,380.1h5l-48.5-189.5c0-0.2-0.1-0.3-0.1-0.5l0.2-95c0-0.1,0-0.3,0-0.4l0.5-3.3L251,98l-2.6,96.6c0,0.1,0,0.3-0.1,0.4&#10;&#9;&#9;l-48.4,185h5l44.9-167c0.3-1,1.3-1.6,2.3-1.3c0.6,0.2,1.2,0.7,1.3,1.3L298.3,380.1z"/>
	<path class="st1_boston-67" d="M74.5,234.2c-1,0-1.9-0.8-1.9-1.9c0-0.7,0.4-1.3,1-1.7l177-98.1c0.9-0.5,2.1-0.2,2.6,0.7s0.2,2.1-0.7,2.6l0,0&#10;&#9;&#9;l-3.4,1.9L75.4,234C75.2,234.1,74.8,234.2,74.5,234.2z"/>
	<path class="st1_boston-67" d="M74,263.2c-0.6,0-1.2-0.3-1.6-0.8c-0.6-0.9-0.3-2,0.6-2.6l176.9-117.1c0.9-0.6,2-0.3,2.6,0.5s0.3,2-0.5,2.6&#10;&#9;&#9;l0,0l-3.2,2.1l-173.7,115C74.8,263.1,74.4,263.3,74,263.2z"/>
	<path class="st1_boston-67" d="M77.4,288.2c-1,0-1.9-0.8-1.9-1.9c0-0.6,0.3-1.1,0.7-1.5l174.1-131.6c0.8-0.6,2-0.5,2.6,0.4&#10;&#9;&#9;c0.6,0.8,0.5,2-0.4,2.6l0,0L78.6,287.8C78.2,288,77.8,288.2,77.4,288.2z"/>
	<path class="st1_boston-67" d="M151,383.9c-0.3,0-0.6-0.1-0.9-0.2c-0.9-0.5-1.2-1.7-0.7-2.6c0,0,0,0,0,0l102.7-178.8c0.5-0.9,1.7-1.2,2.6-0.7&#10;&#9;&#9;c0.9,0.5,1.2,1.7,0.7,2.6l0,0L152.6,383C152.3,383.6,151.7,383.9,151,383.9z"/>
	<path class="st1_boston-67" d="M113,363c-0.4,0-0.9-0.1-1.2-0.4c-0.8-0.7-0.9-1.8-0.3-2.6l138.5-169.2c0.7-0.8,1.8-0.9,2.7-0.3&#10;&#9;&#9;c0.8,0.7,0.9,1.8,0.3,2.7l-6.5,7.9L114.4,362.3C114.1,362.7,113.6,363,113,363z"/>
	<path class="st1_boston-67" d="M95.7,337.3c-0.5,0-1-0.2-1.3-0.5c-0.7-0.7-0.7-1.9,0-2.6c0,0,0,0,0,0l151-151.5l5.5-5.5&#10;&#9;&#9;c0.7-0.7,1.9-0.7,2.7,0c0.7,0.7,0.7,1.9,0,2.7l-5.5,5.5L97,336.8C96.6,337.1,96.2,337.3,95.7,337.3z"/>
	<path class="st1_boston-67" d="M84.4,312.6c-1,0-1.9-0.8-1.9-1.9c0-0.6,0.2-1.1,0.7-1.4L251,165.9c0.8-0.7,2-0.5,2.6,0.3&#10;&#9;&#9;c0.6,0.8,0.5,1.9-0.2,2.6l-5.2,4.4l-162.7,139C85.3,312.5,84.8,312.6,84.4,312.6z"/>
	<path class="st1_boston-67" d="M367.6,382c-3.7,3.3-7.5,6.4-11.5,9.4c-6.7,5-13.7,9.6-21.1,13.6H165.5c-7.3-4-14.4-8.6-21.1-13.6&#10;&#9;&#9;c-4-3-7.8-6.1-11.5-9.4L367.6,382z"/>
	<path class="st1_boston-67" d="M335.1,406.9H165.5c-0.3,0-0.6-0.1-0.9-0.2c-7.4-4.1-14.5-8.6-21.3-13.7c-3.9-2.9-7.8-6.1-11.6-9.5&#10;&#9;&#9;c-0.8-0.7-0.8-1.9-0.1-2.7c0.4-0.4,0.9-0.6,1.4-0.6h234.7c1,0,1.9,0.9,1.9,1.9c0,0.5-0.2,1-0.6,1.4c-3.8,3.4-7.7,6.6-11.6,9.5&#10;&#9;&#9;c-6.8,5.1-13.9,9.7-21.3,13.7C335.7,406.8,335.4,406.9,335.1,406.9z M166,403.1h168.6c7.1-3.9,13.9-8.3,20.4-13.2&#10;&#9;&#9;c2.5-1.9,5.1-3.9,7.6-6H138c2.5,2.1,5,4.1,7.6,6C152.1,394.8,158.9,399.2,166,403.1z"/>
</g>
<g id="grass_boston-67">
	<path class="st3_boston-67" d="M362.8,386.2c-2.1,1.8-4.4,3.5-6.6,5.2c-6.7,5-13.7,9.6-21.1,13.6c-52.8,28.9-116.7,28.9-169.6,0&#10;&#9;&#9;c-7.3-4-14.4-8.6-21.1-13.6c-0.7-0.5-1.4-1.1-2.1-1.6c0.5-0.2,1-0.4,1.5-0.6c3.9-1.3,8.8-1,11.3,2.1c4.7-0.8,9.5,1.2,12.4,5&#10;&#9;&#9;c3.8-1.6,6-4.5,10.2-4.9c2.4-0.3,4.9-0.1,7.2,0.6c0.6,0.2,5.2,2.4,5.3,2.3c3.6-2.2,8.3-4.3,11.6-1.8c0.8,0.7,1.6,1.6,2.6,1.8&#10;&#9;&#9;c0.8,0.1,1.5,0,2.2-0.2c4.2-0.8,5,2.8,8.2,3.6s5.7-3.5,8.7-5.1c3.3-1.8,7.3-2.4,10.7-1c4.6,1.9,8.2,4.5,10.7,8.8&#10;&#9;&#9;c1.9-1.9,4.6-2.8,7.3-2.7c0.8,0.1,7.2,1.8,6.5,3.4c1.8-4,6.4-5.8,10.4-4c1.3,0.6,2.5,1.5,3.3,2.7c4-3.5,8.6-6.8,13.9-7.7&#10;&#9;&#9;s11.3,0.9,14,5.5c2-4.7,7.4-6.9,12-4.9c2,0.9,3.7,2.4,4.7,4.4c1.1-2.2,4.5-6.2,7.3-6.2c3-0.1,3.5,3.1,6,3.9c3,1,3.8-1.9,6.5-3.4&#10;&#9;&#9;c3.6-1.9,7.9-1.8,11.5,0.2c0.6-2.9,3.9-4.2,6.8-4.8C357.6,386.2,360.2,386,362.8,386.2z"/>
	<path class="st1_boston-67" d="M250.3,428.5c-29.9,0-59.4-7.5-85.7-21.9c-7.4-4.1-14.5-8.6-21.3-13.7c-0.7-0.5-1.5-1.1-2.2-1.7&#10;&#9;&#9;c-0.8-0.7-0.9-1.9-0.3-2.7c0.2-0.2,0.5-0.4,0.7-0.6c0.6-0.2,1.1-0.4,1.7-0.6c3.8-1.2,9.2-1.4,12.6,1.9c4.6-0.4,9,1.3,12.2,4.6&#10;&#9;&#9;c0.8-0.4,1.6-0.9,2.3-1.4c2.1-1.6,4.6-2.6,7.2-3c2.7-0.3,5.4-0.1,7.9,0.6c0.9,0.3,1.9,0.7,2.7,1.2c0.6,0.3,1.4,0.6,1.9,0.9&#10;&#9;&#9;c2.8-1.6,8.6-4.5,12.9-1.2c0.3,0.2,0.6,0.5,0.8,0.7c0.3,0.3,0.7,0.6,1.1,0.8c0.3,0,0.7,0,1-0.1l0.5-0.1c3.4-0.6,5.3,1,6.7,2.2&#10;&#9;&#9;c0.6,0.6,1.4,1.1,2.3,1.4c1.1,0.3,2.5-1,4-2.3c1-1,2.2-1.9,3.4-2.6c3.8-2.1,8.3-2.5,12.4-1c4.7,2,8,4.5,10.4,7.8&#10;&#9;&#9;c2.1-1.3,4.5-2,6.9-1.8c2.1,0.4,4.2,1.1,6.1,2.1c3.5-4.1,9.6-4.5,13.7-1.1c0.1,0.1,0.2,0.2,0.3,0.3c3.3-2.8,7.9-5.9,13.3-6.9&#10;&#9;&#9;c5.1-1,10.4,0.5,14.2,4.1c3.8-4.8,10.7-5.6,15.4-1.9c0.5,0.4,1,0.8,1.4,1.3c1.8-2.3,4.5-4.8,7.3-4.8h0.1c2.5,0,3.8,1.5,4.8,2.6&#10;&#9;&#9;c0.4,0.6,1,1.1,1.6,1.4c0.7,0.3,0.9,0.2,2.2-1c0.8-0.9,1.8-1.6,2.9-2.2c3.5-1.8,7.7-2.1,11.4-0.7c1.3-2,3.9-3.4,7.3-4.1&#10;&#9;&#9;c2.7-0.6,5.5-0.8,8.3-0.5c1,0.1,1.8,1,1.7,2.1c-0.1,0.5-0.3,0.9-0.7,1.3c-2,1.7-4.1,3.3-6.7,5.3c-6.8,5.1-13.9,9.6-21.3,13.7&#10;&#9;&#9;C309.7,421,280.3,428.5,250.3,428.5z M146.4,390.5c62,45.9,146.8,45.7,208.6-0.6c0.8-0.6,1.5-1.1,2.2-1.6c-0.6,0.1-1.2,0.2-1.8,0.3&#10;&#9;&#9;c-1.5,0.3-4.8,1.2-5.3,3.3c-0.1,0.6-0.5,1.1-1.1,1.3c-0.6,0.2-1.2,0.2-1.7-0.1c-3-1.7-6.6-1.7-9.6-0.1c-0.7,0.4-1.4,0.9-2,1.6&#10;&#9;&#9;c-1.3,1.2-3.1,3-6,1.9c-1.3-0.5-2.4-1.3-3.2-2.4c-0.9-1-1.3-1.4-2.1-1.4c-1.5,0-4.4,3-5.6,5.2c-0.3,0.6-1,1-1.7,1l0,0&#10;&#9;&#9;c-0.7,0-1.3-0.4-1.7-1c-1.8-3.6-6.2-5.1-9.8-3.3c-1.6,0.8-2.8,2.1-3.5,3.7c-0.4,1-1.5,1.4-2.5,1c-0.4-0.2-0.7-0.4-0.9-0.8&#10;&#9;&#9;c-2.5-4.2-8-5.3-12.1-4.6c-5.3,1-9.9,4.6-12.9,7.2c-0.8,0.7-2,0.6-2.7-0.2c0-0.1-0.1-0.1-0.1-0.2c-1.9-2.7-5.7-3.4-8.4-1.5&#10;&#9;&#9;c-0.9,0.6-1.6,1.5-2,2.5c-0.4,0.9-1.5,1.4-2.5,1c-0.6-0.3-1-0.9-1.1-1.5c-1.5-0.8-3.1-1.4-4.8-1.7c-2.2-0.1-4.3,0.7-5.8,2.2&#10;&#9;&#9;c-0.4,0.4-1,0.6-1.6,0.5c-0.6-0.1-1.1-0.4-1.4-0.9c-2-3.5-5.1-6-9.8-8c-3-1.1-6.4-0.7-9.1,0.9c-1,0.6-1.9,1.3-2.7,2.1&#10;&#9;&#9;c-2,1.8-4.3,3.9-7.4,3.2c-1.4-0.4-2.8-1.2-3.8-2.2c-1.2-1-1.9-1.6-3.6-1.3l-0.4,0.1c-0.8,0.2-1.7,0.3-2.5,0.1&#10;&#9;&#9;c-1.1-0.3-2-0.9-2.8-1.7c-0.2-0.2-0.4-0.3-0.6-0.5c-1.9-1.4-5-0.8-9.5,1.9c-0.9,0.6-1.3,0.4-4.7-1.1c-0.8-0.4-1.9-0.9-2.2-1&#10;&#9;&#9;c-2.1-0.6-4.3-0.7-6.5-0.5c-2.2,0.2-3.7,1.2-5.5,2.4c-1.3,0.9-2.7,1.7-4.2,2.4c-0.8,0.3-1.7,0.1-2.2-0.6c-2.5-3.2-6.5-4.9-10.5-4.3&#10;&#9;&#9;c-0.7,0.1-1.4-0.1-1.8-0.7C152.1,390.5,149.2,390.1,146.4,390.5z"/>
	<path class="st1_boston-67" d="M263.5,419c-0.5,0-1-0.2-1.3-0.5c-0.6-0.6-0.8-1.4-0.7-2.2c0.2-1.2,1-2.2,2-2.8c2.3-1.4,4.7-2.4,7.3-3&#10;&#9;&#9;c1.4-0.4,2.9-0.4,4.4,0c2.9-5,8.8-7.6,14.5-6.3c1,0.3,1.6,1.3,1.4,2.3s-1.3,1.6-2.3,1.4l0,0c-4.6-1-9.3,1.6-10.9,6&#10;&#9;&#9;c-0.2,0.7-0.8,1.2-1.5,1.3c-0.7,0.1-1.4-0.2-1.8-0.8c-0.3-0.4-1.4-0.5-2.7-0.1c-2.2,0.6-4.3,1.4-6.2,2.6l0,0c0.2,1-0.4,2-1.5,2.2&#10;&#9;&#9;C263.8,419,263.7,419.1,263.5,419L263.5,419z M264.9,415.8L264.9,415.8z"/>
	<path class="st1_boston-67" d="M212,412.8c-0.5,0-1-0.2-1.4-0.6c-2.2-2.3-5.6-3.2-8.6-2.2c-1,0.3-2.1-0.2-2.4-1.2c0-0.1,0-0.1-0.1-0.2&#10;&#9;&#9;c-1-3.6-4.8-5.7-8.4-4.8c-1,0.3-2.1-0.2-2.4-1.2s0.2-2.1,1.2-2.4l0,0c2.8-0.9,5.7-0.5,8.2,0.9c1.9,1.1,3.5,2.7,4.4,4.7&#10;&#9;&#9;c4-0.7,8.1,0.7,10.9,3.7c0.7,0.8,0.6,2-0.1,2.7C212.9,412.6,212.5,412.8,212,412.8L212,412.8z"/>
</g>
</svg>