<svg version="1.1" id="Layer_1" xmlns="http://www.w3.org/2000/svg" xmlns:xlink="http://www.w3.org/1999/xlink" x="0px" y="0px" viewBox="0 0 500 500" style="width: 166px;" xml:space="preserve" data-imageid="boy-swimming-98" imageName="Boy Swimming" class="illustrations_image">
<style type="text/css">
	.st0_boy-swimming-98{fill:#16A79E;}
	.st1_boy-swimming-98{fill:url(#SVGID_1_);}
	.st2_boy-swimming-98{fill:#077587;}
	.st3_boy-swimming-98{fill:#68E1FD;}
	.st4_boy-swimming-98{opacity:0.79;fill:#1F90A3;enable-background:new    ;}
	.st5_boy-swimming-98{fill:#F3A984;}
	.st6_boy-swimming-98{fill:#E0855C;}
	.st7_boy-swimming-98{fill:#2E383A;}
	.st8_boy-swimming-98{opacity:0.34;fill:#68E1FD;enable-background:new    ;}
	.st9_boy-swimming-98{opacity:0.18;fill:#077587;enable-background:new    ;}
	.st10_boy-swimming-98{opacity:0.15;fill:#FFFFFF;enable-background:new    ;}
</style>
<g id="background_boy-swimming-98">
	<path class="st0_boy-swimming-98" d="M245.7,392.3L23.2,260.8c-7.1-4-13.2-10.5-6.2-14.8l223.4-128.7c3.4-2.1,8.4-3.4,11.8-1.5l233.6,135.6&#10;&#9;&#9;c7.1,4.1,8.4,15.6,1.3,19.7l-211.9,121C266,397.4,254.9,397.4,245.7,392.3z"/>
	
		<linearGradient id="SVGID_1_-boy-swimming-98" gradientUnits="userSpaceOnUse" x1="225.5265" y1="241.5542" x2="126.8265" y2="161.2243" gradientTransform="matrix(1 0 0 -1 0 502)">
		<stop offset="0" style="stop-color:#124577"/>
		<stop offset="1" style="stop-color:#96C168;stop-opacity:0"/>
	</linearGradient>
	<path class="st1_boy-swimming-98" d="M85.4,251.8l-39.9,20.3c0,0,175,105.2,187.3,110.4l32.8-20"/>
	<polyline class="st2_boy-swimming-98" points="68.8,239.6 68.9,252 436.5,262.8 436.4,247.4 &#9;"/>
	<path class="st2_boy-swimming-98" d="M247.4,360.8L76.1,259.5c-5.5-3.1-10.1-8.1-4.8-11.4l171.9-99.1c2.6-1.6,6.5-2.6,9.1-1.1l179.8,104.4&#10;&#9;&#9;c5.5,3.2,6.4,12,1,15.2l-163.1,93.1C263,364.7,254.4,364.7,247.4,360.8z"/>
	<path class="st3_boy-swimming-98 targetColor" d="M247.4,347.9L76.1,246.7c-5.5-3.1-10.1-8.1-4.8-11.4l171.9-99.1c2.6-1.6,6.5-2.6,9.1-1.1l179.8,104.4&#10;&#9;&#9;c5.5,3.2,6.4,12,1,15.2l-163.1,93.1C263,351.8,254.4,351.9,247.4,347.9z" style="fill: rgb(104, 225, 253);"/>
</g>
<g id="character_boy-swimming-98">
	<path class="st4_boy-swimming-98" d="M179.5,290.1c0,0,4.3,10.4,24.4,4.1s119-72,124.4-80.4s18.2-21.6,9.8-24s-57.9,22.4-62.3,26.4&#10;&#9;&#9;S197.8,267.4,179.5,290.1z"/>
	<path class="st5_boy-swimming-98" d="M250.6,201.9c-4.7,1.1-9.9,4.6-14.8,8.8c-6.5,5.6-13.4,11.6-16.7,14.6s-15.8,13.7-19.9,19.3&#10;&#9;&#9;s-13.4,24.1-14.6,26.1s-5.1,5.3-5.1,9.2s-2.4,8.9,0,10.1s5.1,3.9,5.9,0s2.7-13.1,3.3-11.9s-2.1,6.5-0.3,6.2s4.5-5.6,4.8-8.9&#10;&#9;&#9;s3-10.1,3-10.1l18.4-22l11.6,11.6c0,0-5.2,6.8-6.6,7.7s-12.4,13.1-15.1,14.9c-3.2,2.1-6.3,4.4-9.2,6.8c-2.4,2.1-5.4,4-5.9,7.7&#10;&#9;&#9;s0.6,4.8,2.4,5.1s6.2-2.1,7.1-3.3s6.5-5.6,8.9-8.9s5.6-5.4,8.9-7.4s13.4-9.8,16.9-14.6s17.8-22.6,21.7-26.4&#10;&#9;&#9;c3.9-3.9,7.7-6.5,11-10.7c1-1.2,3-3.3,5.2-5.6C266.4,212.5,258.6,206.7,250.6,201.9z"/>
	<path class="st6_boy-swimming-98" d="M227,237.7l-1.2,17.8c0,0-5.1,6.3-4.3,5.3c0.1-0.1,3.2-0.7,7.4-5.2c1.2-1.2,2.1-2.5,2.9-3.9&#10;&#9;&#9;c0.7-1.6,1.1-3.3,1.1-5C233,243.5,230.6,238,227,237.7z"/>
	<path class="st6_boy-swimming-98" d="M228.3,253.7c-0.2-0.6-0.5-1.2-0.8-1.8c-0.5-0.8-1.5-1-2.2-0.6s-1,1.5-0.6,2.2c0.1,0.1,0.1,0.2,0.2,0.4&#10;&#9;&#9;c0,0.1,0.1,0.2,0.1,0.3l0,0c0,0.1,0.1,0.2,0.1,0.4c0.2,0.9,1.1,1.4,2,1.1S228.6,254.5,228.3,253.7L228.3,253.7z"/>
	<path class="st5_boy-swimming-98" d="M224.3,236.6c0,0,5,6.8,2.3,14.7s-11.5,1.8-16-3"/>
	<path class="st7_boy-swimming-98" d="M217.5,248.3c0,0,0.8-3.1,2.1-4s1.9-1.2,1.9-1.2l1.2-4.4l1.5-2.2l-1.9,6.8c0,0,0.8,3-0.6,4.4&#10;&#9;&#9;S217.5,248.3,217.5,248.3z"/>
	<path class="st7_boy-swimming-98" d="M212.5,250.4c0,0,1.3,1.1,2.2,1.1c1,0.1,1.9-0.4,2.4-1.2c0.3-0.6,0.4-1.2,0.4-1.9c-0.9-0.4-1.9-0.4-2.8,0&#10;&#9;&#9;C213.9,248.9,213.1,249.6,212.5,250.4z"/>
	<path class="st7_boy-swimming-98" d="M210.5,248.4c0,0,7.4-0.2,13.8-11.8c0,0-6.1-8.9-14.1-3.9S208.3,247.4,210.5,248.4z"/>
	<path class="st5_boy-swimming-98" d="M267.3,181.3c0,0,13.1-10.4,14.4-12.4s8.9-14.6,12.6-18.1s13.4-10.4,14.6-11.9s2.2-4.5,3.2-6.7&#10;&#9;&#9;s4.7-3.7,6.7-5.5s6-3,8.7-3.5s4.5,0.5,3.5,2s-4.7,5.5-6,6.9s-6.4,7.4-6.4,7.4s-9.4,7.9-10.7,9.7s-5.7,10.7-8.7,13.4&#10;&#9;&#9;s-20.6,25-20.6,25s7.4-4.2,9.7-7.7s9-9.7,10.9-14.6s4.9-6.9,10.6-13.1s8.2-8.4,9-9.7s3.7-5.4,4.1-7s3.5-3.5,4.8-4.9&#10;&#9;&#9;s2.1-2.9,3.4-3.5c1.4-0.6,2.9-0.8,4.3-0.6c1.5,0.2,2.6,1.5,2.5,3c-0.2,1.9-4.4,4.6-4.8,5.2s-2.2,5.2-3.6,7.3s-4.7,6-4.7,6&#10;&#9;&#9;s-9,15.3-11.5,18.4c-2.2,2.5-4.3,5.2-6.2,7.9c-1.2,2.1-10.7,21.1-14.4,26.1L267.3,181.3z"/>
	<path class="st7_boy-swimming-98" d="M248.1,202.2c0,0,4-16.9,19.3-20.9c0,0,9.2,1.3,10.6,8c0,0,12.4,0.2,14.9,11.3c0,0-10.4,11.7-21.6,20.1&#10;&#9;&#9;L248.1,202.2z"/>
</g>
<g id="water_boy-swimming-98">
	<path class="st8_boy-swimming-98 targetColor" d="M418.6,158.9c-5.8-2.7-11.6-5.9-16.1-10.5c-2.8-2.8-4.8-6.2-7.8-8.8c-3.2-2.7-6.8-4.9-10.7-6.4&#10;&#9;&#9;c-6.6-2.9-13.5-4.9-19.7-8.7c-7-4.2-12.8-10.3-19.1-15.4c-5.9-4.9-12.3-9.3-18.9-13.2c-6.9-4-14.6-6.4-21.2-10.8&#10;&#9;&#9;c-11.7-7.7-18-20.2-32.4-23.6c-7.4-1.7-14.9-4.4-22.4-5c-8.2-0.7-13.5,4.5-18.9,9.9c-5.4,5.6-11.8,9.9-19,12.8&#10;&#9;&#9;c-8.7,3.4-16.4,6.3-24,12c-5.5,4.1-10.9,8.5-16.8,12c-6.6,3.8-13.6,5.8-20.8,8.3c-14.1,4.9-21.7,18.8-32.8,27.9&#10;&#9;&#9;c-13.7,11.1-31.8,8.1-46.2,17c-0.9,0.6-2,0.8-3.1,0.5v82.7h0.1c0.6,2.5,3.7,5.2,7.1,7.1L247.1,348c7,3.9,15.6,3.9,22.6-0.2&#10;&#9;&#9;l163.1-93.1c2.5-1.5,3.9-4.4,3.6-7.3v-80.6C430.6,163.8,424.1,161.5,418.6,158.9z" style="fill: rgb(104, 225, 253);"/>
	<path class="st9_boy-swimming-98" d="M259.5,350.8l0.7-89.9l176.3-94.1v84.7l-166.7,96.3C269.7,347.8,265,351.2,259.5,350.8z"/>
	<path class="st10_boy-swimming-98" d="M260.1,260.9L68.7,156.8V237c0,4.1,2.2,7.9,5.8,10l174.5,101.8c3.2,1.5,8.3,2.7,10.5,2.1L260.1,260.9z"/>
</g>
</svg>