<svg version="1.1" id="Layer_1" xmlns="http://www.w3.org/2000/svg" xmlns:xlink="http://www.w3.org/1999/xlink" x="0px" y="0px" viewBox="0 0 500 500" style="width: 166px;" xml:space="preserve" data-imageid="bran-stark-33" imageName="Bran Stark" class="illustrations_image">
<style type="text/css">
	.st0_bran-stark-33{fill:#ADCE46;}
	.st1_bran-stark-33{opacity:0.4;enable-background:new    ;}
	.st2_bran-stark-33{opacity:0.5;fill:url(#SVGID_1_);enable-background:new    ;}
	.st3_bran-stark-33{fill:#68E1FD;}
	.st4_bran-stark-33{opacity:0.47;}
	.st5_bran-stark-33{fill:#5F5D51;}
	.st6_bran-stark-33{fill:#A09C93;}
	.st7_bran-stark-33{opacity:0.55;enable-background:new    ;}
	.st8_bran-stark-33{opacity:0.63;}
	.st9_bran-stark-33{fill:#FFAC99;}
	.st10_bran-stark-33{opacity:0.2;enable-background:new    ;}
	.st11_bran-stark-33{fill:#353942;}
	.st12_bran-stark-33{fill:#A5744C;}
	.st13_bran-stark-33{opacity:0.3;enable-background:new    ;}
	.st14_bran-stark-33{fill:#5E3615;}
</style>
<g id="field_bran-stark-33">
	<path class="st0_bran-stark-33" d="M243.1,453.3L27.8,326c-6.9-3.9-12.7-10.2-6-14.3l216.1-124.6c3.2-2,8.2-3.3,11.5-1.4l226.1,131.2&#10;&#9;&#9;c6.9,4,8.1,15.1,1.2,19.1L271.5,453.1C262.8,458.1,252,458.2,243.1,453.3z"/>
	<path class="st1_bran-stark-33" d="M252.9,413.7l-154-91c-4.9-2.8-9.1-7.3-4.3-10.2l154.5-89.1c2.3-1.4,5.8-2.4,8.2-1L419,316.2&#10;&#9;&#9;c4.9,2.9,5.8,10.8,0.9,13.6l-146.6,83.7C267,417.2,259.2,417.2,252.9,413.7z"/>
</g>
<g id="bran_stark_bran-stark-33">
	
		<linearGradient id="SVGID_1_-bran-stark-33" gradientUnits="userSpaceOnUse" x1="501.3501" y1="90.5199" x2="555.2601" y2="167.3099" gradientTransform="matrix(-1 0 0 -1 822.11 502)">
		<stop offset="0" style="stop-color:#FFFFFF;stop-opacity:0"/>
		<stop offset="1" style="stop-color:#000000"/>
	</linearGradient>
	<polygon class="st2_bran-stark-33" points="285.3,308.5 408.7,374.8 304.4,434.3 166.7,354 &#9;"/>
	<path class="st3_bran-stark-33 targetColor" d="M175.3,337.4c-0.4-2-40.3-109.5-40.3-109.5s43.9,87.8,43.9,89S175.3,337.4,175.3,337.4z" style="fill: rgb(104, 225, 253);"/>
	<path class="st3_bran-stark-33 targetColor" d="M178.9,306.4c0,0-41.5-128-40.7-129.2s45.5,111.9,45.5,111.9L178.9,306.4z" style="fill: rgb(104, 225, 253);"/>
	<path class="st3_bran-stark-33 targetColor" d="M185.8,284.4c0-1-47.5-107.2-47.5-107.2l50.3,96.6L185.8,284.4z" style="fill: rgb(104, 225, 253);"/>
	<path class="st3_bran-stark-33 targetColor" d="M145.1,140.5c0.4,1.2,43.5,133.3,43.5,133.3s10.5-13.7,10.5-15.7S145.1,140.5,145.1,140.5z" style="fill: rgb(104, 225, 253);"/>
	<polygon class="st3_bran-stark-33 targetColor" points="188.6,254.9 157,115.5 196.6,243.6 &#9;" style="fill: rgb(104, 225, 253);"/>
	<path class="st3_bran-stark-33 targetColor" d="M201.5,227.9c0,0-35.5-136.1-34.2-134.1s55.6,161.1,55.6,161.1l-9.7,6.8L201.5,227.9z" style="fill: rgb(104, 225, 253);"/>
	<polygon class="st3_bran-stark-33 targetColor" points="213.6,236.7 188.6,91.8 219.6,221.4 &#9;" style="fill: rgb(104, 225, 253);"/>
	<path class="st3_bran-stark-33 targetColor" d="M196.6,63.2c-0.4,1.6,18.5,164.7,18.5,164.7l10.9-2L196.6,63.2z" style="fill: rgb(104, 225, 253);"/>
	<path class="st3_bran-stark-33 targetColor" d="M217.6,53.5c0,1.6,21.3,177.2,21.3,177.2s-16.1,1.7-16.1,0S217.6,53.5,217.6,53.5z" style="fill: rgb(104, 225, 253);"/>
	<path class="st3_bran-stark-33 targetColor" d="M236.9,53.5c0,0.8,10.5,170.7,10.5,170.7l-12.1-5.2L236.9,53.5z" style="fill: rgb(104, 225, 253);"/>
	<path class="st3_bran-stark-33 targetColor" d="M250.6,43.1l7.6,177.2c0,0-16.1-7.2-16.9-7.2S250.6,43.1,250.6,43.1z" style="fill: rgb(104, 225, 253);"/>
	<polygon class="st3_bran-stark-33 targetColor" points="269.5,68.4 251.8,211.8 271.5,210.1 &#9;" style="fill: rgb(104, 225, 253);"/>
	<path class="st3_bran-stark-33 targetColor" d="M261.4,261.5c0.4-3.2,29-169.7,29-169.7s-21.2,172.4-21.3,173.7C268.8,279.9,261.4,261.5,261.4,261.5z" style="fill: rgb(104, 225, 253);"/>
	<g class="st4_bran-stark-33">
		<path class="st5_bran-stark-33" d="M175.3,337.4c-0.4-2-40.3-109.5-40.3-109.5s43.9,87.8,43.9,89S175.3,337.4,175.3,337.4z"/>
		<path class="st5_bran-stark-33" d="M178.9,306.4c0,0-41.5-128-40.7-129.2s45.5,111.9,45.5,111.9L178.9,306.4z"/>
		<path class="st5_bran-stark-33" d="M185.8,284.4c0-1-47.5-107.2-47.5-107.2l50.3,96.6L185.8,284.4z"/>
		<path class="st5_bran-stark-33" d="M145.1,140.5c0.4,1.2,43.5,133.3,43.5,133.3s10.5-13.7,10.5-15.7S145.1,140.5,145.1,140.5z"/>
		<polygon class="st5_bran-stark-33" points="188.6,254.9 157,115.5 196.6,243.6 &#9;&#9;"/>
		<path class="st5_bran-stark-33" d="M201.5,227.9c0,0-35.5-136.1-34.2-134.1s55.6,161.1,55.6,161.1l-9.7,6.8L201.5,227.9z"/>
		<polygon class="st5_bran-stark-33" points="213.6,236.7 188.6,91.8 219.6,221.4 &#9;&#9;"/>
		<path class="st5_bran-stark-33" d="M196.6,63.2c-0.4,1.6,18.5,164.7,18.5,164.7l10.9-2L196.6,63.2z"/>
		<path class="st5_bran-stark-33" d="M217.6,53.5c0,1.6,21.3,177.2,21.3,177.2s-16.1,1.7-16.1,0S217.6,53.5,217.6,53.5z"/>
		<path class="st5_bran-stark-33" d="M236.9,53.5c0,0.8,10.5,170.7,10.5,170.7l-12.1-5.2L236.9,53.5z"/>
		<path class="st5_bran-stark-33" d="M250.6,43.1l7.6,177.2c0,0-16.1-7.2-16.9-7.2S250.6,43.1,250.6,43.1z"/>
		<polygon class="st5_bran-stark-33" points="269.5,68.4 251.8,211.8 271.5,210.1 &#9;&#9;"/>
		<path class="st5_bran-stark-33" d="M261.4,261.5c0.4-3.2,29-169.7,29-169.7s-21.2,172.4-21.3,173.7C268.8,279.9,261.4,261.5,261.4,261.5z"/>
	</g>
	<path class="st3_bran-stark-33 targetColor" d="M264.4,260l6.7-114.6l-15.6,100.4l10.7-126.5l-17.8,106.1V100c0,1.3-9.8,141.5-9.8,141.5l-6.2-139.3&#10;&#9;&#9;l-7.1,134.1l-8.9-125.6c0,0,3.6,112.3,3.1,111s-18.7-98.5-18.7-98.5l7.1,118.4l-33.3-94.4l19.1,104L164,172.8l20.4,110.6&#10;&#9;&#9;l-35.1-84.3c0,0,25.3,118.6,26.7,123.1s-6.7,13.3-5.3,13.8s33.3-50.7,33.3-50.7l28-28.4L264.4,260z" style="fill: rgb(104, 225, 253);"/>
	<polyline class="st6_bran-stark-33" points="335.9,307.1 341.1,368.6 332,310.9 &#9;"/>
	<polygon class="st3_bran-stark-33 targetColor" points="353.4,344.3 355.6,366.7 341.1,348.2 339.4,365.4 329.6,344.3 330.5,374.8 321.7,348.2 318.8,383 &#10;&#9;&#9;308.1,354.6 302.7,384.8 293.2,370.5 285.7,398.3 280.5,379.1 266.6,398.3 257.7,384.8 251.4,393.9 239.3,377.9 235.8,388.7 &#10;&#9;&#9;225.9,368.6 223.7,383 214.5,365.6 200.9,366.7 184.7,366.7 188.7,361.7 176.1,363.4 177.9,355.7 167.3,357 174.3,322.4 &#10;&#9;&#9;180.7,305.7 186.1,294.9 179.1,263.2 181.5,242.3 198,266.7 194.2,238 215.6,261.5 212,231.3 227.1,251.5 222.8,204.6 236.8,243.6 &#10;&#9;&#9;251.4,208.5 256.8,250.7 271.6,225.2 275.2,264.5 282.9,223.3 284.2,278.2 297.4,230.1 296.2,278.3 314,264.1 308.1,287 &#10;&#9;&#9;323.5,278.3 321.7,296.7 337.9,294.9 341.1,315.5 &#9;" style="fill: rgb(104, 225, 253);"/>
	<polygon class="st1_bran-stark-33" points="353.4,344.3 355.6,366.7 341.1,348.2 339.4,365.4 329.6,344.3 330.5,374.8 321.7,348.2 318.8,383 &#10;&#9;&#9;308.1,354.6 302.7,384.8 293.2,370.5 285.7,398.3 280.5,379.1 266.6,398.3 257.7,384.8 251.4,393.9 239.3,377.9 235.8,388.7 &#10;&#9;&#9;225.9,368.6 223.7,383 214.5,365.6 200.9,366.7 184.7,366.7 188.7,361.7 176.1,363.4 177.9,355.7 167.3,357 174.3,322.4 &#10;&#9;&#9;180.7,305.7 186.1,294.9 179.1,263.2 181.5,242.3 198,266.7 194.2,238 215.6,261.5 212,231.3 227.1,251.5 222.8,204.6 236.8,243.6 &#10;&#9;&#9;251.4,208.5 256.8,250.7 271.6,225.2 275.2,264.5 282.9,223.3 284.2,278.2 297.4,230.1 296.2,278.3 314,264.1 308.1,287 &#10;&#9;&#9;323.5,278.3 321.7,296.7 337.9,294.9 341.1,315.5 &#9;"/>
	<path class="st5_bran-stark-33" d="M346.5,343c0,0.6,2.5,7,4.8,13c2.2,5.5,4.3,10.7,4.3,10.7l-14.5-18.5l-1.2-24.7l-14.2-17.8l6.4,17.8v19&#10;&#9;&#9;l1.5,7.6l1.5,7.9l7.1,23.1l-12.5-25.4l-3.9-16.9l-5.2-17.9l-11.2-13.9l0.7,8.4l4.9,25.3l-0.5,10.3l7.4,33.7l-12.4-34.7l-6.6,34.7&#10;&#9;&#9;l-1.5-36.7l-12.4,50.6l-3-30.2l-8.5,32.6l-6.8-27.9l-5.8,26.7l2-38l0.6-24.1l-6.7,30.7l1.6-43.1l27.3-9.3l7.2-16.2l29.5-5.2&#10;&#9;&#9;l14.8,13.7l9.1,21l3.2,14.7l-8-15L346.5,343z"/>
	<path class="st3_bran-stark-33 targetColor" d="M198,312.2l77.5-42.1l46.3,28l14.1,11c0,0-22.9,16.5-23,17.2s-13.9,9.2-13.9,9.2l-31.2,3l-9.7,3.9L198,312.2z" style="fill: rgb(104, 225, 253);"/>
	<path class="st7_bran-stark-33" d="M198,312.2l77.5-42.1l46.3,28l14.1,11c0,0-22.9,16.5-23,17.2s-13.9,9.2-13.9,9.2l-31.2,3l-9.7,3.9L198,312.2z"/>
	<path class="st5_bran-stark-33" d="M248.7,167.2c0,0-5.1-2.2-4.5-5.4s3.2-4.8,5.7-4.1s6.1,2.9,4.5,7.2C253.3,167.7,248.7,167.2,248.7,167.2z"/>
	<ellipse class="st5_bran-stark-33" cx="230.7" cy="141.4" rx="4.3" ry="5.9"/>
	<polygon class="st3_bran-stark-33 targetColor" points="251.4,185.6 244.2,282.9 238.9,282.9 246.2,184.9 &#9;" style="fill: rgb(104, 225, 253);"/>
	<path class="st3_bran-stark-33 targetColor" d="M237.1,166.3c0,0,0.9,108.9,0,109.3s-5.1,1.5-5.1,1.5l-2.4-109.8L237.1,166.3z" style="fill: rgb(104, 225, 253);"/>
	<path class="st3_bran-stark-33 targetColor" d="M197.6,164.4c2.1,2.1,34.3,107.6,34.3,108.6s-2.3,6.8-2.3,6.8l-35.5-113.5" style="fill: rgb(104, 225, 253);"/>
	<path class="st3_bran-stark-33 targetColor" d="M169.6,213.1c1.1,0.2,11.3,3.9,11.3,3.9l37,21l43.6,33.1l-54-29l-39.9-26.2" style="fill: rgb(104, 225, 253);"/>
	<path class="st3_bran-stark-33 targetColor" d="M168.9,236.2c1.3,0.2,87.9,39.1,87.9,39.1l-69.1-25.7l-20.5-10.5" style="fill: rgb(104, 225, 253);"/>
	<path class="st3_bran-stark-33 targetColor" d="M184.1,190.2c0.2,0.7,5.8,13.5,5.8,13.5l2.5,1.5c0,0,35.5,89.8,34.7,90.7s-6-2.4-6-2.4l-35.7-87.5l-3.9-13.3" style="fill: rgb(104, 225, 253);"/>
	<polygon class="st1_bran-stark-33" points="251.4,185.6 244.2,282.9 238.9,282.9 246.2,184.9 &#9;"/>
	<path class="st1_bran-stark-33" d="M237.1,166.3c0,0,0.9,108.9,0,109.3s-5.1,1.5-5.1,1.5l-2.4-109.8L237.1,166.3z"/>
	<path class="st1_bran-stark-33" d="M197.6,164.4c2.1,2.1,34.3,107.6,34.3,108.6s-2.3,6.8-2.3,6.8l-35.5-113.5"/>
	<path class="st1_bran-stark-33" d="M169.6,213.1c1.1,0.2,11.3,3.9,11.3,3.9l37,21l43.6,33.1l-54-29l-39.9-26.2"/>
	<path class="st1_bran-stark-33" d="M168.9,236.2c1.3,0.2,87.9,39.1,87.9,39.1l-69.1-25.7l-20.5-10.5"/>
	<path class="st1_bran-stark-33" d="M184.1,190.2c0.2,0.7,5.8,13.5,5.8,13.5l2.5,1.5c0,0,35.5,89.8,34.7,90.7s-6-2.4-6-2.4l-35.7-87.5l-3.9-13.3"/>
	<path class="st3_bran-stark-33 targetColor" d="M314.7,299.3l39.6-10.9l1.9,8.2c0,0-1.6,5.4,2.6,6s0-6.3,0-6.3l-2.1-9.8l12.3-3.4h3.5l2.5-2.1&#10;&#9;&#9;c1.3-0.3,2.6-0.3,3.9,0c1.6,0.5,1-5.3,0-6.1s-3.9,0-3.9,0l-0.5,2.5c0,0-4.4-0.2-5.1,0.7s-13,4.4-13,4.4l-3.1-11&#10;&#9;&#9;c0,0,0.2-5.6-2.3-5.4s0.5,6.5,0.5,6.5l1.8,10.5l-52,13.3l8.9,4.9L314.7,299.3z" style="fill: rgb(104, 225, 253);"/>
	<path class="st3_bran-stark-33 targetColor" d="M304.1,293.9l2.5-41l8.4,0.9c0,0,4.6,3.2,6.5-0.6s-6-2-6-2l-10-1.2l0.8-12.7l1.1-3.3l-1.2-3&#10;&#9;&#9;c0.1-1.3,0.6-2.5,1.2-3.6c1-1.3-4.6-2.7-5.8-2s-1.2,3.6-1.2,3.6l2.1,1.3c0,0-1.6,4.1-1,5s0,13.7,0,13.7l-11.5-0.6&#10;&#9;&#9;c0,0-5.2-2-5.9,0.4s6.3,1.6,6.3,1.6l10.5,1.7l-4.2,53.5l7.5-6.9L304.1,293.9z" style="fill: rgb(104, 225, 253);"/>
	<path class="st3_bran-stark-33 targetColor" d="M298.1,293.2l19.7-36.1l7.2,4.4c0,0,2.8,4.9,6.1,2.2s-4.5-4.4-4.5-4.4l-8.5-5.3l6.1-11.1l2.4-2.5l0.2-3.2&#10;&#9;&#9;c0.7-1.1,1.6-2.1,2.7-2.8c1.5-0.8-3-4.4-4.4-4.2s-2.7,2.8-2.7,2.8l1.4,2.1c0,0-3.2,3-3,4.1s-5.8,12.4-5.8,12.4l-10.1-5.4&#10;&#9;&#9;c0,0-3.9-4-5.5-2.1s5,4.1,5,4.1l8.8,6l-26.5,46.7l9.7-3L298.1,293.2z" style="fill: rgb(104, 225, 253);"/>
	<path class="st3_bran-stark-33 targetColor" d="M299.7,296l28.2-30l5.9,6c0,0,1.5,5.5,5.3,3.7s-3.3-5.4-3.3-5.4l-6.9-7.3l8.7-9.2l3-1.8l1-3.1&#10;&#9;&#9;c0.9-0.9,2.1-1.6,3.3-2c1.6-0.4-1.8-5-3.2-5.2s-3.3,2-3.3,2l0.8,2.4c0,0-3.8,2.1-4,3.2s-8.8,10.5-8.8,10.5l-8.4-7.8&#10;&#9;&#9;c0,0-2.8-4.9-4.8-3.4s3.8,5.3,3.8,5.3l7,8.1l-37.5,38.4l10.2-0.5L299.7,296z" style="fill: rgb(104, 225, 253);"/>
	<path class="st3_bran-stark-33 targetColor" d="M319.4,307.8l26.9-38.8l7.7,5.9c0,0,2.6,5.9,6.7,3.3s-4.6-5.5-4.6-5.5l-9.1-7.1l8.3-12l3.1-2.6l0.6-3.7&#10;&#9;&#9;c0.9-1.2,2.1-2.2,3.4-2.8c1.8-0.7-3-5.4-4.5-5.4s-3.4,2.8-3.4,2.8l1.3,2.5c0,0-4,3.1-4,4.4s-8.2,13.4-8.2,13.4l-10.9-7.4&#10;&#9;&#9;c0,0-4-5.1-6-3.1s5.2,5.3,5.2,5.3l9.3,8l-36,50.1l11.5-2.3L319.4,307.8z" style="fill: rgb(104, 225, 253);"/>
	<g class="st8_bran-stark-33">
		<path d="M314.7,299.3l39.6-10.9l1.9,8.2c0,0-1.6,5.4,2.6,6s0-6.3,0-6.3l-2.1-9.8l12.3-3.4h3.5l2.5-2.1c1.3-0.3,2.6-0.3,3.9,0&#10;&#9;&#9;&#9;c1.6,0.5,1-5.3,0-6.1s-3.9,0-3.9,0l-0.5,2.5c0,0-4.4-0.2-5.1,0.7s-13,4.4-13,4.4l-3.1-11c0,0,0.2-5.6-2.3-5.4s0.5,6.5,0.5,6.5&#10;&#9;&#9;&#9;l1.8,10.5l-52,13.3l8.9,4.9L314.7,299.3z"/>
		<path d="M304.1,293.9l2.5-41l8.4,0.9c0,0,4.6,3.2,6.5-0.6s-6-2-6-2l-10-1.2l0.8-12.7l1.1-3.3l-1.2-3c0.1-1.3,0.6-2.5,1.2-3.6&#10;&#9;&#9;&#9;c1-1.3-4.6-2.7-5.8-2s-1.2,3.6-1.2,3.6l2.1,1.3c0,0-1.6,4.1-1,5s0,13.7,0,13.7l-11.5-0.6c0,0-5.2-2-5.9,0.4s6.3,1.6,6.3,1.6&#10;&#9;&#9;&#9;l10.5,1.7l-4.2,53.5l7.5-6.9L304.1,293.9z"/>
		<path d="M298.1,293.2l19.7-36.1l7.2,4.4c0,0,2.8,4.9,6.1,2.2s-4.5-4.4-4.5-4.4l-8.5-5.3l6.1-11.1l2.4-2.5l0.2-3.2&#10;&#9;&#9;&#9;c0.7-1.1,1.6-2.1,2.7-2.8c1.5-0.8-3-4.4-4.4-4.2s-2.7,2.8-2.7,2.8l1.4,2.1c0,0-3.2,3-3,4.1s-5.8,12.4-5.8,12.4l-10.1-5.4&#10;&#9;&#9;&#9;c0,0-3.9-4-5.5-2.1s5,4.1,5,4.1l8.8,6l-26.5,46.7l9.7-3L298.1,293.2z"/>
		<path d="M299.7,296l28.2-30l5.9,6c0,0,1.5,5.5,5.3,3.7s-3.3-5.4-3.3-5.4l-6.9-7.3l8.7-9.2l3-1.8l1-3.1c0.9-0.9,2.1-1.6,3.3-2&#10;&#9;&#9;&#9;c1.6-0.4-1.8-5-3.2-5.2s-3.3,2-3.3,2l0.8,2.4c0,0-3.8,2.1-4,3.2s-8.8,10.5-8.8,10.5l-8.4-7.8c0,0-2.8-4.9-4.8-3.4s3.8,5.3,3.8,5.3&#10;&#9;&#9;&#9;l7,8.1l-37.5,38.4l10.2-0.5L299.7,296z"/>
		<path d="M319.4,307.8l26.9-38.8l7.7,5.9c0,0,2.6,5.9,6.7,3.3s-4.6-5.5-4.6-5.5l-9.1-7.1l8.3-12l3.1-2.6l0.6-3.7&#10;&#9;&#9;&#9;c0.9-1.2,2.1-2.2,3.4-2.8c1.8-0.7-3-5.4-4.5-5.4s-3.4,2.8-3.4,2.8l1.3,2.5c0,0-4,3.1-4,4.4s-8.2,13.4-8.2,13.4l-10.9-7.4&#10;&#9;&#9;&#9;c0,0-4-5.1-6-3.1s5.2,5.3,5.2,5.3l9.3,8l-36,50.1l11.5-2.3L319.4,307.8z"/>
	</g>
	<polygon class="st6_bran-stark-33" points="284.2,278.2 298.8,328.3 290,326.3 278.8,269.1 &#9;"/>
	<polyline class="st6_bran-stark-33" points="254.7,279.8 256.8,280.7 307.5,300.8 324.4,313.8 318,320.3 304.3,305.7 &#9;"/>
	<polygon class="st6_bran-stark-33" points="245.2,287.8 309.3,321 303,326.5 &#9;"/>
	<polygon class="st5_bran-stark-33" points="199.5,307.1 197.2,310.1 250.3,336.6 271.6,339.8 &#9;"/>
	<path class="st5_bran-stark-33" d="M220.8,296.1c0,0.1,24.4,34.2,24.4,34.2l12.5,3.3l-28-42.1L220.8,296.1z"/>
	<polygon class="st5_bran-stark-33" points="239.3,289.5 257.7,311.6 290,326.3 277.2,332.3 254.7,315.8 &#9;"/>
	<polygon class="st5_bran-stark-33" points="318.8,313.6 252.7,284.9 309.3,318.7 &#9;"/>
	<path class="st6_bran-stark-33" d="M266.5,275.4l52.3,18.3l17.2,13.5c0,0-2.6,4-4,3.7S266.5,275.4,266.5,275.4z"/>
	<path class="st5_bran-stark-33" d="M286.6,269.1c0.7,0.7,26.1,46.4,26.1,46.4l6-2L286.6,269.1z"/>
	<polygon class="st5_bran-stark-33" points="246.3,287.8 231.2,293.8 291.7,308.5 &#9;"/>
	<polygon class="st5_bran-stark-33" points="275.2,270.1 262.8,275.4 288.8,284.9 305.4,286.5 &#9;"/>
	<path class="st6_bran-stark-33" d="M212,300c-0.6-0.5-7.7,5.7-7.7,5.7l64.9,26.5l-12.3-10.1L212,300z"/>
	<polygon class="st6_bran-stark-33" points="280.5,328.3 227.1,295.9 239.3,289.5 &#9;"/>
	<path class="st6_bran-stark-33" d="M324.4,313.8l-1.5,28.7l6.6,40.5c0,0-12-40.5-12-41.7s0.5-21,0.5-21L324.4,313.8z"/>
	<polyline class="st6_bran-stark-33" points="309.3,321 308,338.9 306.2,348.4 318.8,390.4 306.2,363.2 301.2,348.2 303,326.5 &#9;"/>
	<polyline class="st6_bran-stark-33" points="298.8,328.3 293,355.7 295.9,376.9 291.7,387.7 288.8,360.5 284.1,348.4 290,326.3 &#9;"/>
	<polyline class="st6_bran-stark-33" points="277.2,332.3 278.8,371.3 274.8,401.2 272.9,368.6 272.9,332.3 &#9;"/>
	<path class="st5_bran-stark-33" d="M282.9,225.5c0,0-3.1-9.3-6.2-20.7c0,0-2.4-3.1-1.2-4.5s5,0,3.5,3.8c0,0,4.9,11.6,5.6,19.5&#10;&#9;&#9;c0,0,3.1,2.1,1.6,4.1S281.2,227.4,282.9,225.5z"/>
	<path class="st5_bran-stark-33" d="M280.9,209l15.1-11.4c0,0,4.8-7.2,5.3-7.4s4.3,6.5,4,7.4s-6.5,2-6.5,2L282.6,212c0,0-40.9,37.4-74.5,64.8&#10;&#9;&#9;s-28.8,24.1-28.8,24.1s58.5-61.6,99.3-91.4"/>
	<ellipse class="st5_bran-stark-33" cx="167.5" cy="214.2" rx="4.8" ry="4.1"/>
	<circle class="st5_bran-stark-33" cx="167.3" cy="237.3" r="5.1"/>
	<path class="st5_bran-stark-33" d="M176.8,216.8c0.6,0.2,12-10.7,12-10.7l-13.3,26.1l-1.3-1.9L176.8,216.8z"/>
	<path class="st5_bran-stark-33" d="M186.7,231.3l-12.4,24.5c3.9-1.9,7.3-4.5,10.1-7.8C188.6,242.9,186.7,231.3,186.7,231.3z"/>
	<ellipse class="st5_bran-stark-33" cx="182.8" cy="190.2" rx="3.9" ry="4.8"/>
	<path class="st5_bran-stark-33" d="M198,196.4l-21.2,12.4c0,0,7,2.7,12,1.3S198,196.4,198,196.4z"/>
	<ellipse class="st5_bran-stark-33" cx="196.3" cy="164.3" rx="3.9" ry="4.8"/>
	<path class="st5_bran-stark-33" d="M232.9,142.6c-0.2,0.9,1.1,19.9,1.1,19.9l10.2-3.8l-7,7.7l-8.8,2.8l-5.8-1.8l7.3-3v-20"/>
	<polygon class="st5_bran-stark-33" points="215.6,177.6 209.6,177.6 192,190.7 189.9,197.6 &#9;"/>
	<path class="st5_bran-stark-33" d="M251.4,164.4v19c0,0,3.8-2.6,4.9-5.4c1.1-2.9,0.3-4.3,1.9-4.1s3.8-0.6,3,1.8s-2.7,8.1-9.9,9.9&#10;&#9;&#9;s-14.3-0.5-15.1-1.8s0.8-3.5,2.1-3.5s1.4,1.4,2.4,1.8s3.4,2.2,7,1.8l0.5-19.4"/>
	<path d="M315.9,356.5c0,0,0.8,5.8,4.3,8.1s15.9,5.5,14,10.1s-10,5.2-14,4.2s-17.8-10-17.8-10l2.2-19.8"/>
	<path d="M295.1,369.5c0,0,0.8,5.9,4.3,8.1s15.9,5.5,14,10.1s-10,5.2-14,4.2s-17.8-9.9-17.8-9.9l2.2-19.7"/>
	<path class="st9_bran-stark-33" d="M262.2,230.3c0,0,7.1,6.9,5,11s-10.8,5.6-10.8,5.6l-6.6-8.3l2.3-7"/>
	<path class="st10_bran-stark-33" d="M262.2,230.3c0,0,7.1,6.9,5,11s-10.8,5.6-10.8,5.6l-6.6-8.3l2.3-7"/>
	<path class="st11_bran-stark-33" d="M272.4,269.6c0,0,34.7,11.5,40.5,27.1s7.2,60.9,3.1,63.9c0,0-15.9,1.9-21.8-10.9c0,0-1-20.3-0.2-34.1&#10;&#9;&#9;c0,0-18-0.1-29.4-9.5c-6.8-5.6-9.7-32.5-5.7-35.6C262.9,267.4,270.2,253.4,272.4,269.6z"/>
	<path class="st11_bran-stark-33" d="M266.9,276.4c0,0,24.5,9.3,30.2,24.9s6.2,71.8,2.1,74.8c0,0-13.4,5.3-19.4-7.4c0,0-4.3-36.2-3.5-50.1&#10;&#9;&#9;c0,0-14.5-5-25.9-14.5c-6.8-5.6-6.8-25.1-2.7-28.2S264.7,260.3,266.9,276.4z"/>
	<path class="st12_bran-stark-33" d="M257.9,243.5c0,0,0.3-5-3.1-7.4s-12.1-6.1-14.3-4.5s2.6,8.5,2.6,8.5s-7.2,6.1-8.7,11.4&#10;&#9;&#9;c-1.5,5.2,5.7,29,8.2,33.1s33,15.6,34.8,15s9.8-10,8.7-11.1s-17.9-7.1-17.5-8.5c0,0,10.5,0.4,10.1-2.5s-1.3-6.1-1.3-6.1&#10;&#9;&#9;s15.8,15.4,17.8,15s8.7-2.8,8.7-4.1s-23.6-23.4-23.6-24.5s-4.2-25-6.8-27.4c-6.4-5.9-8.5-1.1-8.8-2.9s-3.6,1.5-1.7,6.7&#10;&#9;&#9;S263.7,243.3,257.9,243.5z"/>
	<path class="st13_bran-stark-33" d="M257.9,243.5c0,0,0.3-5-3.1-7.4s-12.1-6.1-14.3-4.5s2.6,8.5,2.6,8.5s-7.2,6.1-8.7,11.4&#10;&#9;&#9;c-1.5,5.2,5.7,29,8.2,33.1s33,15.6,34.8,15s9.8-10,8.7-11.1s-17.9-7.1-17.5-8.5c0,0,10.5,0.4,10.1-2.5s-1.3-6.1-1.3-6.1&#10;&#9;&#9;s15.8,15.4,17.8,15s8.7-2.8,8.7-4.1s-23.6-23.4-23.6-24.5s-4.2-25-6.8-27.4c-6.4-5.9-8.5-1.1-8.8-2.9s-3.6,1.5-1.7,6.7&#10;&#9;&#9;S263.7,243.3,257.9,243.5z"/>
	<path class="st14_bran-stark-33" d="M260,245.6c0,0-11,5.3-3,16.3c5.2,7.1-11.6,6.5-7.2,19.9s29.7,28.8,30,41s1.9,59.2,1.9,59.2s-5.7,4.8-19.7,0&#10;&#9;&#9;s-12.5-23.9-27.8-25.1s-20.2-13.1-20.6-20.6s17.5-27.4,15.3-43.6s0.8-47.6,14.2-52.6L260,245.6z"/>
	<path class="st14_bran-stark-33" d="M263.6,244.5c0.7-0.9,8.5-9.6,11.4-6.8s5.2,20.2,5.2,20.2l20,20.7c0,0-2.5-13.8-6.1-23.4s-17-26-23.9-28&#10;&#9;&#9;c-3.9-1.2-9.9-0.8-9.9-0.8"/>
	<path class="st9_bran-stark-33" d="M264.3,215.8c0,0,3.5,17.6-4.3,21.3c-5.7,2.7-9.8-4.7-10.7-9.3c-1.2-5.4,1.3-11.1,5.4-14.6&#10;&#9;&#9;C258.3,210.1,263.2,210.4,264.3,215.8z"/>
	<path d="M247.9,205.8c9.1-3.9,15.9-1.1,18.2,7.9s0.5,9.2-1,11.4l-1.8-11.7c0.1,2.2-0.6,4.3-2,6l-1.2-3.2c-0.3,2.2-1.3,4.2-2.8,5.8&#10;&#9;&#9;c-2.4,2.3-3.9-0.3-3.9-0.3s-1.5,1.6-1.3,4.9c0,1.6-0.1,3.2-0.3,4.7c-0.1,0-0.3,0.1-0.4,0.1c-0.8-0.5,1.8,2.5,0.2,2.3&#10;&#9;&#9;C234.7,231.1,236.2,210.9,247.9,205.8z"/>
	<path class="st9_bran-stark-33" d="M246.1,224.6c1-1.5,3.2-1.3,4.4-0.1c1.2,1.2,2.1,2.7,2.5,4.4c1.6,0.5,0.8,3.2-1,2.8&#10;&#9;&#9;C249.4,231.1,243.8,228,246.1,224.6z"/>
	<path class="st12_bran-stark-33" d="M237.6,236.1c0.5,0,1.1-0.1,1.6-0.1c-0.8-0.8-1.3-1.7-1.7-2.8c-0.4-1.2,0.8-2,1.8-1.8&#10;&#9;&#9;c0.4,0.1,0.8,0.2,1.1,0.3c0-0.4,0.1-0.9,0.4-1.2c1.3-1.7,3-0.3,4.2,0.7l0.2,0.1c0.6-0.6,1.6-0.7,2.3-0.1c0.8,0.7,1.5,1.5,2.1,2.2&#10;&#9;&#9;c0.4-0.7,1.2-1,1.9-0.7c0.1,0.1,0.3,0.2,0.4,0.3c0.7,0.7,1.4,1.6,1.9,2.5c0.3-0.8,1.1-1.2,1.9-0.9c0.3,0.1,0.6,0.3,0.8,0.6&#10;&#9;&#9;c1.2,2.4,1.8,5.1,1.9,7.8c3.3,0.1,5.8-1.4,4.6-6.9c-0.2-0.7,0.2-1.5,0.9-1.7c-0.3-0.2-0.5-0.5-0.6-0.9c1.5-1.9,1.6-4.4,1.6-6.9&#10;&#9;&#9;c0.9-1.2,2.9-0.1,2.5,1.4l-0.3,1.4c1.1,0,2.2,1.1,1.4,2.2l-2,2.8c-0.2,0.3-0.5,0.5-0.8,0.6c0.1,0.1,0.1,0.2,0.1,0.2&#10;&#9;&#9;c1.4,5.8-1.7,11.4-8.1,11c-4.1-0.2-7.8-2.6-11.7-3.7c-3.5-1-6.9-1.2-9.5-4.1c-0.5-0.6-0.5-1.6,0.2-2.1&#10;&#9;&#9;C236.9,236.3,237.2,236.1,237.6,236.1z"/>
	<path class="st9_bran-stark-33" d="M302,283.2l6.7,6.9c1.2,1.2-0.1,6.5-1.8,6.5s-4.9-4.2-4.9-4.2s0.6,3.2-0.8,3.4s-0.8-4.3-1.4-5&#10;&#9;&#9;s-2.9-4.9-3.1-4.8l0.5-0.6C298.9,284.9,300.5,284.2,302,283.2z"/>
	<path class="st9_bran-stark-33" d="M284,291.3c1.8,1,6.3,3.7,6.9,4.7c0.7,1.1-2.5-0.1-2.4,0.4s4.5,3.7,4.5,5.7s0.8,3-0.6,3.7s-5.5-2.1-7.1-2.9&#10;&#9;&#9;c-1-0.5-3.9-3.2-6-5.4C281.2,295.7,282.8,293.7,284,291.3z"/>
	<path d="M275.3,279.4l1-0.1c11.7,6.5,21.8,15.5,24.3,29.4c1.6,8.8,1.4,18.1,1.8,27c0.5,10.9,1,21.8,1.5,32.7c0.1,1.9-2.9,1.9-3,0&#10;&#9;&#9;c-0.8-17.1-1.3-34.4-2.4-51.5c-1.2-18.4-11.7-29-27.5-37l-0.1-0.1C272.4,279.9,273.8,279.7,275.3,279.4z"/>
	<path d="M192,348.6l-1.3-42.3l8.7,0.1c0,0,5,2.9,6.6-1.2s-6.3-1.5-6.3-1.5l-10.3-0.3l-0.4-13.1l0.9-3.5l-1.5-3&#10;&#9;&#9;c0-1.3,0.3-2.7,0.9-3.9c0.9-1.5-5-2.3-6.1-1.5s-0.9,3.9-0.9,3.9l2.3,1.1c0,0-1.2,4.3-0.5,5.3s1.2,14,1.2,14l-11.8,0.5&#10;&#9;&#9;c0,0-5.6-1.5-6,1s6.6,1,6.6,1L185,306l0.7,55.3l0,0L192,348.6z"/>
	<path d="M224.4,356.5l4.4-47.2l9.6,1.3c0,0,5.2,3.9,7.5-0.4s-6.8-2.6-6.8-2.6l-11.4-1.7l1.4-14.6l1.4-3.8l-1.3-3.5&#10;&#9;&#9;c0.2-1.5,0.7-2.9,1.6-4.2c1.2-1.5-5.2-3.3-6.6-2.5s-1.6,4.2-1.6,4.2l2.4,1.6c0,0-2,4.7-1.3,5.8s-0.6,15.8-0.6,15.8l-13.2-1&#10;&#9;&#9;c0,0-6-2.5-6.8,0.2s7.2,2.1,7.2,2.1l12.1,2.4l-0.4,80.5l0,0L224.4,356.5z"/>
	<path d="M250.1,371.7l10.9-46.2l9.4,2.7c0,0,4.6,4.6,7.5,0.6s-6.4-3.5-6.4-3.5l-11.1-3.3l3.4-14.3l1.9-3.5l-0.8-3.6&#10;&#9;&#9;c0.4-1.4,1.1-2.8,2.1-3.9c1.4-1.3-4.8-4-6.2-3.4s-2.1,3.9-2.1,3.9l2.2,1.9c0,0-2.6,4.3-2.1,5.5s-2.7,15.5-2.7,15.5l-12.9-2.9&#10;&#9;&#9;c0,0-5.6-3.3-6.8-0.7s6.9,3,6.9,3l11.6,4l-11.5,79.6l0,0L250.1,371.7z"/>
	<path d="M234.8,347.3l1.8-38.2l7.8,0.7c0,0,4.4,3,6-0.6s-5.6-1.8-5.6-1.8l-9.3-1l0.6-11.8l1-3.1l-1.1-2.8c0.1-1.2,0.5-2.4,1.1-3.4&#10;&#9;&#9;c0.9-1.2-4.4-2.4-5.4-1.8s-1.1,3.4-1.1,3.4l2,1.2c0,0-1.4,3.8-0.8,4.7s0.1,12.7,0.1,12.7l-10.7-0.4c0,0-4.9-1.8-5.5,0.5&#10;&#9;&#9;s5.9,1.4,5.9,1.4l9.8,1.5l2.7,64.8l0,0L234.8,347.3z"/>
	<path d="M197.3,350.6l15.1-35.2l7.1,3.4c0,0,3,4.3,5.9,1.5s-4.6-3.7-4.6-3.7l-8.4-4.2l4.7-10.9l2-2.5l-0.1-3&#10;&#9;&#9;c0.5-1.1,1.3-2.1,2.2-2.8c1.3-0.8-3.2-3.8-4.5-3.5s-2.2,2.8-2.2,2.8l1.5,1.8c0,0-2.7,3.1-2.4,4.1s-4.3,12-4.3,12l-9.9-4.1&#10;&#9;&#9;c0,0-4-3.4-5.3-1.5s5,3.4,5,3.4l8.7,4.8l-20.2,61.7l0,0L197.3,350.6z"/>
	<path d="M247.2,358.8l1.8-38.2l7.8,0.7c0,0,4.4,3,6-0.6s-5.6-1.8-5.6-1.8L248,318l0.6-11.8l1-3.1l-1.1-2.8c0.1-1.2,0.5-2.4,1.1-3.4&#10;&#9;&#9;c0.9-1.2-4.4-2.5-5.4-1.8s-1.1,3.4-1.1,3.4l2,1.2c0,0-1.4,3.8-0.8,4.7s0.1,12.7,0.1,12.7l-10.7-0.4c0,0-4.9-1.8-5.5,0.5&#10;&#9;&#9;s5.9,1.4,5.9,1.4l9.8,1.5l2.7,64.8l0,0L247.2,358.8z"/>
	<path d="M208.8,373.3l1.6-67.3l8.6,0.9c0,0,4.8,3.3,6.7-0.6s-6.1-2.1-6.1-2.1l-10.3-1.2l0.8-13.1l1.2-3.4l-1.2-3.1&#10;&#9;&#9;c0.1-1.3,0.6-2.6,1.3-3.8c1-1.4-4.8-2.8-6-2s-1.3,3.8-1.3,3.8l2.2,1.3c0,0-1.6,4.2-1,5.2s0,14.1,0,14.1l-11.8-0.6c0,0-5.4-2-6,0.4&#10;&#9;&#9;s6.5,1.6,6.5,1.6l10.8,1.8l-4.3,55.1l0,0L208.8,373.3z"/>
</g>
</svg>