<svg id="_0260_bug_fixing" data-name="0260_bug_fixing" xmlns="http://www.w3.org/2000/svg" viewBox="0 0 500 500" data-imageid="bug-fixing-1-23" imageName="Bug Fixing 1" class="illustrations_image" style="width: 166px;"><defs><style>.cls-1_bug-fixing-1-23{fill:#d1d3d4;}.cls-2_bug-fixing-1-23{fill:#fff;}.cls-3_bug-fixing-1-23{fill:#231f20;}.cls-4_bug-fixing-1-23{fill:#68e1fd;}</style></defs><g id="Floor_bug-fixing-1-23"><path class="cls-1_bug-fixing-1-23" d="M468.15,339.73H31.85a.7.7,0,0,1,0-1.4h436.3a.7.7,0,0,1,0,1.4Z"/></g><g id="Monitor_bug-fixing-1-23"><path class="cls-2_bug-fixing-1-23" d="M468.15,100.15V308a14.54,14.54,0,0,1-14.54,14.55H147.23A14.54,14.54,0,0,1,132.68,308V100.15a14.54,14.54,0,0,1,14.55-14.54H453.61A14.54,14.54,0,0,1,468.15,100.15Z"/><path class="cls-3_bug-fixing-1-23" d="M453.61,323.17H147.23A15.21,15.21,0,0,1,132,308V100.15A15.21,15.21,0,0,1,147.23,85H453.61a15.2,15.2,0,0,1,15.18,15.18V308A15.2,15.2,0,0,1,453.61,323.17ZM147.23,86.25a13.92,13.92,0,0,0-13.91,13.9V308a13.93,13.93,0,0,0,13.91,13.91H453.61A13.92,13.92,0,0,0,467.51,308V100.15a13.91,13.91,0,0,0-13.9-13.9Z"/><path class="cls-3_bug-fixing-1-23" d="M468.15,100.15V284.7H132.68V100.15a14.54,14.54,0,0,1,14.55-14.54H453.61A14.54,14.54,0,0,1,468.15,100.15Z"/><path class="cls-1_bug-fixing-1-23" d="M296.26,311.28a7.67,7.67,0,1,1,7.67-7.67A7.68,7.68,0,0,1,296.26,311.28Zm0-13.94a6.27,6.27,0,1,0,6.27,6.27A6.27,6.27,0,0,0,296.26,297.34Z"/><path class="cls-2_bug-fixing-1-23" d="M340,348.9c-3.23-4.73-3.77-26.37-3.77-26.37H264.55s-.54,21.64-3.76,26.37-15.87,12.45-15.87,15.18,1.88,3.74,11,3.74h88.94c9.14,0,11-1,11-3.74S343.27,353.63,340,348.9Z"/><path class="cls-3_bug-fixing-1-23" d="M344.88,368.46H255.94c-9.05,0-11.66-1-11.66-4.38,0-1.67,2.89-4.08,7.62-7.87,3.39-2.72,6.9-5.53,8.36-7.67,3.08-4.52,3.65-25.81,3.65-26a.64.64,0,0,1,.64-.62h71.72a.64.64,0,0,1,.64.62c0,.22.57,21.51,3.66,26h0c1.46,2.14,5,4.95,8.35,7.67,4.73,3.79,7.63,6.2,7.63,7.87C356.55,367.47,353.93,368.46,344.88,368.46Zm-79.71-45.29c-.11,3.66-.84,21.67-3.86,26.09-1.56,2.3-5.15,5.17-8.61,7.95-3.18,2.55-7.14,5.73-7.14,6.87,0,1.87.72,3.1,10.38,3.1h88.94c9.66,0,10.39-1.23,10.39-3.1,0-1.14-4-4.32-7.15-6.87-3.46-2.78-7-5.65-8.61-7.95h0c-3-4.42-3.74-22.43-3.86-26.09Z"/><path class="cls-1_bug-fixing-1-23" d="M335,345.87H265.82a.7.7,0,0,1,0-1.4H335a.7.7,0,1,1,0,1.4Z"/></g><g id="Screen_bug-fixing-1-23"><rect class="cls-1_bug-fixing-1-23" x="146.45" y="102.87" width="303.94" height="168.1"/></g><g id="Character_bug-fixing-1-23"><path class="cls-3_bug-fixing-1-23" d="M74.11,268.64s-1.6,65.85-8.15,71.41S48.85,368,48.85,368L71,380.22s25.29-25.59,28-34.61,0-69.33,0-69.33l-21.11-2.36"/><path class="cls-3_bug-fixing-1-23" d="M71,380.91a.76.76,0,0,1-.33-.08L48.51,368.61a.7.7,0,0,1-.29-.91c.43-.92,10.7-22.59,17.29-28.18,5.18-4.39,7.46-52.67,7.9-70.9a.7.7,0,0,1,1.4,0c-.07,2.7-1.69,66.23-8.4,71.92-5.77,4.9-14.93,23.56-16.65,27.12l21.12,11.65c3.12-3.2,25-25.77,27.4-33.94,2.47-8.33.27-62.21,0-68.5l-20.52-2.29a.7.7,0,0,1,.16-1.39L99,275.59a.71.71,0,0,1,.62.66c.11,2.47,2.64,60.53,0,69.56s-27.09,33.85-28.12,34.9A.74.74,0,0,1,71,380.91Z"/><path class="cls-3_bug-fixing-1-23" d="M90.58,376.37c-1,1.42,0,36.55,0,36.55l38.94,1.42s-6.27-14.2-19.7-13.84V373.68Z"/><path class="cls-3_bug-fixing-1-23" d="M129.52,415h0l-38.93-1.42a.69.69,0,0,1-.67-.67c-.32-10.64-.93-35.53.13-37a.65.65,0,0,1,.47-.28L109.73,373a.74.74,0,0,1,.55.17.69.69,0,0,1,.24.52v26.11c13.25.15,19.57,14.12,19.64,14.26a.74.74,0,0,1-.06.68A.7.7,0,0,1,129.52,415Zm-38.26-2.79,37.1,1.36c-1.7-3.14-7.64-12.41-18.05-12.41h-.47a.75.75,0,0,1-.51-.19.71.71,0,0,1-.21-.5v-26l-18,2.51C90.56,380,90.9,399.6,91.26,412.24Z"/><path class="cls-3_bug-fixing-1-23" d="M58.35,360.11c-1.7.5-22.7,28.91-22.7,28.91L65.57,413.6s3.86-15-7-22.81l16.66-21.21Z"/><path class="cls-3_bug-fixing-1-23" d="M65.57,414.3a.66.66,0,0,1-.44-.16L35.21,389.56a.69.69,0,0,1-.12-.95C41.45,380,56.42,360,58.15,359.44a.72.72,0,0,1,.54.06L75.58,369a.71.71,0,0,1,.34.47.69.69,0,0,1-.14.57L59.57,390.66c10.39,8.1,6.72,23,6.68,23.12a.71.71,0,0,1-.46.49A.78.78,0,0,1,65.57,414.3Zm-29-25.39,28.51,23.42c.6-3.54,1.71-14.74-6.94-21a.7.7,0,0,1-.29-.46.72.72,0,0,1,.15-.53l16.15-20.57-15.81-8.86C56.13,362.91,44.18,378.67,36.61,388.91Z"/><path class="cls-2_bug-fixing-1-23" d="M171.07,248.2h2.42l3.24-11h-22l-7.46,11H163c7.65,0,15.44,1.71,21.77-4a5.15,5.15,0,0,0,2-3.93c-.18-2.17-2.49-3.51-4.6-4.17a24.69,24.69,0,0,0-6-1.06"/><path class="cls-3_bug-fixing-1-23" d="M171.51,249.14c-1.41,0-2.83-.06-4.24-.11s-2.87-.13-4.3-.13H147.22a.7.7,0,0,1-.62-.37.72.72,0,0,1,0-.72l7.46-11a.71.71,0,0,1,.58-.31h22a.72.72,0,0,1,.56.28.66.66,0,0,1,.11.62l-3,10.25a15.93,15.93,0,0,0,9.89-4,4.49,4.49,0,0,0,1.79-3.34c-.17-2.11-2.93-3.19-4.11-3.56a23.78,23.78,0,0,0-5.79-1,.7.7,0,0,1-.67-.73.64.64,0,0,1,.74-.66,24.58,24.58,0,0,1,6.13,1.09c3.07.95,4.93,2.69,5.09,4.78.15,1.91-1.14,3.5-2.25,4.5C181.08,248.46,176.32,249.14,171.51,249.14Zm-23-1.64H163c1.45,0,2.9.07,4.35.13,1.09,0,2.17.09,3.23.11a.68.68,0,0,1,.52-.24H173l2.83-9.6H155.05Z"/><path class="cls-4_bug-fixing-1-23 targetColor" d="M161,234.18l-5.91,16s-13.34,1-31.11-3.71c-11.09-3-33.43-26.81-33.43-26.81l13.61-18.54s15.52,22,21.58,25.05C137.58,232.15,161,234.18,161,234.18Z" style="fill: rgb(104, 225, 253);"/><path class="cls-3_bug-fixing-1-23" d="M74.11,268.64C74.06,270.41,86,388.58,86,388.58h28.29l-3-130Z"/><path class="cls-3_bug-fixing-1-23" d="M114.24,389.28H86a.71.71,0,0,1-.7-.63c-.48-4.83-11.89-118.23-11.84-120a.69.69,0,0,1,.52-.65L111,257.91a.68.68,0,0,1,.6.11.72.72,0,0,1,.28.54l3,130a.66.66,0,0,1-.2.5A.68.68,0,0,1,114.24,389.28Zm-27.66-1.4h27l-3-128.39-35.68,9.68C75.38,276.14,82.62,348.58,86.58,387.88Z"/><path class="cls-2_bug-fixing-1-23" d="M82.2,186.73a7.55,7.55,0,0,1-4,0,2.42,2.42,0,0,1-1.19-.66,1,1,0,0,1-.07-1.25c.5-.57,1.67-.29,2-1-3.42-3.2-5.36-8.73-5.72-13.27A31.15,31.15,0,0,1,76.09,155a8.94,8.94,0,0,1,3.14-4,4.06,4.06,0,0,1,4.78.29c1.39-1.91,3-3.33,5.55-3.5a17.37,17.37,0,0,1,5.83.94c4.35,1.26,9.09,2.92,11.29,6.83a14.63,14.63,0,0,1,1.45,4.39c.4,2,1.19,5.7-.46,7.36-1.43,1.42-4.55,1.18-6.22,2.84-1.82,1.79-3.06,4.43-4.71,6.44A25.25,25.25,0,0,1,87,183.9c-1.42.59-1.74,1.33-3,2.06A7.4,7.4,0,0,1,82.2,186.73Z"/><path class="cls-3_bug-fixing-1-23" d="M80.21,187.7a8,8,0,0,1-2.23-.32,3,3,0,0,1-1.53-.88,1.67,1.67,0,0,1-.07-2.16,2.28,2.28,0,0,1,1.35-.65h0c-3.41-3.66-5-9.24-5.29-13.07a31.79,31.79,0,0,1,3-16,9.67,9.67,0,0,1,3.42-4.34,4.79,4.79,0,0,1,5-.08A7.71,7.71,0,0,1,89.52,147a17.68,17.68,0,0,1,6.06,1c4.43,1.28,9.36,3,11.71,7.15a15.56,15.56,0,0,1,1.53,4.6l0,.17c.44,2.23,1.19,6-.69,7.83a7.1,7.1,0,0,1-3.2,1.47,6.89,6.89,0,0,0-3,1.37,20.81,20.81,0,0,0-2.67,3.56,33.27,33.27,0,0,1-2,2.83,26,26,0,0,1-10,7.6,5.22,5.22,0,0,0-1.57,1,9,9,0,0,1-1.32,1,8.53,8.53,0,0,1-2,.84h0A8.52,8.52,0,0,1,80.21,187.7Zm2-1h0ZM81.48,151a3.61,3.61,0,0,0-1.88.54,8.41,8.41,0,0,0-2.88,3.73,30.5,30.5,0,0,0-2.86,15.26c.31,3.82,1.93,9.46,5.51,12.81a.69.69,0,0,1,.16.79,1.87,1.87,0,0,1-1.5,1,1.48,1.48,0,0,0-.59.2s0,.21.08.34a1.8,1.8,0,0,0,.84.44,7,7,0,0,0,3.66,0h0a6.79,6.79,0,0,0,1.66-.7,7.43,7.43,0,0,0,1.12-.84,6.63,6.63,0,0,1,1.94-1.27,24.47,24.47,0,0,0,9.46-7.19,30.08,30.08,0,0,0,1.89-2.7,22,22,0,0,1,2.87-3.8,8,8,0,0,1,3.63-1.72,6.11,6.11,0,0,0,2.58-1.11c1.35-1.35.67-4.74.31-6.56l0-.18a14.12,14.12,0,0,0-1.37-4.18c-2.09-3.71-6.71-5.3-10.88-6.49a16.26,16.26,0,0,0-5.58-.92c-2,.13-3.47,1.06-5,3.21a.67.67,0,0,1-.49.28.7.7,0,0,1-.53-.17A3.14,3.14,0,0,0,81.48,151Z"/><path class="cls-2_bug-fixing-1-23" d="M106.53,170s4.85,7,3.9,8.43-4.22.59-4.22.59"/><path class="cls-3_bug-fixing-1-23" d="M108.2,180a9.2,9.2,0,0,1-2.18-.29.71.71,0,0,1-.49-.86.7.7,0,0,1,.86-.49c.91.24,2.94.49,3.45-.3.3-.68-1.52-4.26-3.89-7.65a.71.71,0,0,1,.18-1,.7.7,0,0,1,1,.18c1.91,2.74,5,7.58,3.92,9.21A3.18,3.18,0,0,1,108.2,180Z"/><path class="cls-2_bug-fixing-1-23" d="M105.35,160.74c3.06,2.35,2.27,7.49,2.3,10.83q.07,7-.18,14.06c-.11,3-7.91,3.21-9.31,2.35l.9,9.81s-1.73,5.47-8.08,2.74-7.89-6.67-7.89-6.67l.28-13.56s5.16-.08,8.1-6.2,2.65-15.42,2.65-15.42S102.37,158.44,105.35,160.74Z"/><path class="cls-3_bug-fixing-1-23" d="M94.26,202a9,9,0,0,1-3.56-.82c-6.54-2.81-8.19-6.88-8.26-7a.86.86,0,0,1,0-.27l.28-13.56a.7.7,0,0,1,.69-.69c.19,0,4.77-.17,7.47-5.8,2.84-5.89,2.59-15,2.59-15.1a.66.66,0,0,1,.19-.5.64.64,0,0,1,.49-.22c.35,0,8.53-.22,11.68,2.2h0c2.82,2.18,2.7,6.28,2.61,9.58,0,.64,0,1.24,0,1.8,0,4.68,0,9.42-.19,14.09a2.82,2.82,0,0,1-1.74,2.37A13.67,13.67,0,0,1,99,189l.81,8.77a1.24,1.24,0,0,1,0,.27,6.24,6.24,0,0,1-3.11,3.49A5.49,5.49,0,0,1,94.26,202Zm-10.47-8.27c.31.64,2.09,3.85,7.46,6.17a5.86,5.86,0,0,0,4.79.33,4.78,4.78,0,0,0,2.31-2.52l-.88-9.65a.69.69,0,0,1,.32-.66.7.7,0,0,1,.74,0c.75.46,5,.58,7.24-.6.64-.35,1-.75,1-1.19.17-4.65.23-9.37.19-14,0-.57,0-1.19,0-1.85.08-3,.19-6.69-2.07-8.43-2.07-1.6-7.51-2-10.09-1.92,0,2.32-.19,9.75-2.73,15s-6.46,6.28-8,6.53Z"/><path class="cls-2_bug-fixing-1-23" d="M107.29,182.14s-3.64,2.31-5.67-1.4"/><path class="cls-3_bug-fixing-1-23" d="M104.82,183.55a4.17,4.17,0,0,1-1-.13,4.42,4.42,0,0,1-2.78-2.34.7.7,0,0,1,1.23-.67,3.06,3.06,0,0,0,1.89,1.65,4,4,0,0,0,2.8-.52.7.7,0,0,1,.75,1.19A5.91,5.91,0,0,1,104.82,183.55Z"/><path class="cls-2_bug-fixing-1-23" d="M97.46,173.25a6.29,6.29,0,0,0-1.38-3.19A9.57,9.57,0,0,0,94.32,168a3.17,3.17,0,0,0-2.58-.71,2.9,2.9,0,0,0-1.84,1.5,5.37,5.37,0,0,0-.55,2.34,10,10,0,0,0,4.86,8.81l-.27-.28"/><path class="cls-3_bug-fixing-1-23" d="M94.21,180.61a.64.64,0,0,1-.35-.1,10.71,10.71,0,0,1-5.21-9.44,6,6,0,0,1,.63-2.64,3.61,3.61,0,0,1,2.3-1.85,3.79,3.79,0,0,1,3.17.84,9.89,9.89,0,0,1,1.9,2.25,6.74,6.74,0,0,1,1.51,3.55.7.7,0,1,1-1.4.05,5.57,5.57,0,0,0-1.26-2.81,8.49,8.49,0,0,0-1.62-1.94,2.43,2.43,0,0,0-2-.58,2.24,2.24,0,0,0-1.38,1.15,4.5,4.5,0,0,0-.47,2A9.31,9.31,0,0,0,94,178.94a.71.71,0,0,1,.45.2l.27.28a.69.69,0,0,1,.05.92A.67.67,0,0,1,94.21,180.61Z"/><path class="cls-3_bug-fixing-1-23" d="M98.16,188s-4.06-1.14-6-3.83c0,0,.4,7.12,6.64,9Z"/><path class="cls-3_bug-fixing-1-23" d="M98.8,193.9l-.21,0c-6.62-2.05-7.12-9.61-7.12-9.69a.7.7,0,0,1,.46-.7.69.69,0,0,1,.8.26c1.77,2.45,5.58,3.56,5.62,3.57a.72.72,0,0,1,.51.59l.63,5.22a.7.7,0,0,1-.24.62A.75.75,0,0,1,98.8,193.9Zm-5.53-7.64A8.89,8.89,0,0,0,98,192.13l-.44-3.62A14.61,14.61,0,0,1,93.27,186.26Z"/><ellipse class="cls-3_bug-fixing-1-23" cx="103.76" cy="166.85" rx="1.68" ry="0.67" transform="translate(-77.03 243.81) rotate(-81.18)"/><path class="cls-4_bug-fixing-1-23 targetColor" d="M83,189.07s18,3.79,23.69,14.59,10.92,73.6,10.7,74.26S68.64,279,68.64,279s1.49-8.67-1.66-24.88S67.69,187.69,83,189.07Z" style="fill: rgb(104, 225, 253);"/><path class="cls-3_bug-fixing-1-23" d="M48.21,188.83H61.37A9.63,9.63,0,0,1,71,198.46v66.66a0,0,0,0,1,0,0H38.58a0,0,0,0,1,0,0V198.46A9.63,9.63,0,0,1,48.21,188.83Z"/><path class="cls-3_bug-fixing-1-23" d="M71,265.81H38.58a.7.7,0,0,1-.7-.7v-62.8a14.19,14.19,0,0,1,14.18-14.18h5.46A14.19,14.19,0,0,1,71.7,202.31v62.8A.7.7,0,0,1,71,265.81Zm-31.72-1.39h31V202.31a12.81,12.81,0,0,0-12.79-12.79H52.06a12.8,12.8,0,0,0-12.78,12.79Z"/><rect class="cls-2_bug-fixing-1-23" x="36.42" y="253.76" width="36.21" height="16.77" rx="2.56"/><path class="cls-3_bug-fixing-1-23" d="M69,271.23H40A4.28,4.28,0,0,1,35.72,267v-9.61A4.28,4.28,0,0,1,40,253.06H69a4.28,4.28,0,0,1,4.28,4.28V267A4.28,4.28,0,0,1,69,271.23ZM40,254.46a2.89,2.89,0,0,0-2.88,2.88V267A2.88,2.88,0,0,0,40,269.83H69A2.88,2.88,0,0,0,71.92,267v-9.61A2.89,2.89,0,0,0,69,254.46Z"/><rect class="cls-2_bug-fixing-1-23" x="36.42" y="224.18" width="36.21" height="5.58" rx="1.99"/><path class="cls-3_bug-fixing-1-23" d="M69.83,230.46H39.21a3.49,3.49,0,1,1,0-7H69.83a3.49,3.49,0,0,1,0,7Zm-30.62-5.58a2.09,2.09,0,1,0,0,4.18H69.83a2.09,2.09,0,1,0,0-4.18Z"/><rect class="cls-3_bug-fixing-1-23" x="52.45" y="182.08" width="4.68" height="6.75"/><path class="cls-3_bug-fixing-1-23" d="M57.13,189.52H52.45a.69.69,0,0,1-.7-.69v-6.75a.7.7,0,0,1,.7-.7h4.68a.7.7,0,0,1,.7.7v6.75A.69.69,0,0,1,57.13,189.52Zm-4-1.39h3.28v-5.35H53.15Z"/><rect class="cls-2_bug-fixing-1-23" x="43.85" y="184.9" width="21.89" height="6.25" rx="1.14"/><path class="cls-3_bug-fixing-1-23" d="M64.13,191.85H45.45a2.3,2.3,0,0,1-2.3-2.3V186.5a2.3,2.3,0,0,1,2.3-2.3H64.13a2.3,2.3,0,0,1,2.3,2.3v3.05A2.3,2.3,0,0,1,64.13,191.85ZM45.45,185.6a.9.9,0,0,0-.9.9v3.05a.9.9,0,0,0,.9.9H64.13a.9.9,0,0,0,.9-.9V186.5a.9.9,0,0,0-.9-.9Z"/><rect class="cls-2_bug-fixing-1-23" x="48.85" y="178.45" width="11.89" height="3.63"/><path class="cls-3_bug-fixing-1-23" d="M60.73,182.78H48.85a.7.7,0,0,1-.7-.7v-3.63a.7.7,0,0,1,.7-.7H60.73a.7.7,0,0,1,.7.7v3.63A.7.7,0,0,1,60.73,182.78Zm-11.18-1.4H60v-2.23H49.55Z"/><path class="cls-3_bug-fixing-1-23" d="M65.73,197.43S89.89,197.08,99,206s12.67,41-27.95,43.11v3.37s20.75,1.56,30.57-11.88,10.53-23.79,3.24-34.78S73.7,192.83,65.73,193.89Z"/><path class="cls-3_bug-fixing-1-23" d="M73.17,253.2c-1.26,0-2.06-.06-2.22-.07a.7.7,0,0,1-.64-.7v-3.37a.69.69,0,0,1,.66-.69c21.08-1.11,28.83-10.13,31.61-17.51,3.47-9.19.57-19.83-4.11-24.41-8.76-8.57-32.49-8.33-32.73-8.32a.93.93,0,0,1-.5-.2.7.7,0,0,1-.2-.5v-3.54a.68.68,0,0,1,.6-.69c8.28-1.11,32.27.9,39.75,12.19S112,227.46,102.14,241C94,252.09,78.88,253.2,73.17,253.2Zm-1.47-1.43c3.55.11,20.79,0,29.31-11.64,9.46-12.95,10.43-23.11,3.22-34-6.87-10.36-29.47-12.52-37.8-11.65v2.22c4.15,0,24.61.5,33,8.72,5,4.89,8.12,16.18,4.45,25.9C101,239,93,248.42,71.7,249.72Z"/><polygon class="cls-2_bug-fixing-1-23" points="138.34 275.67 133.92 270.07 182.88 232.65 187.3 238.26 138.34 275.67"/><path class="cls-3_bug-fixing-1-23" d="M138.34,276.37a.71.71,0,0,1-.55-.26l-4.42-5.61a.75.75,0,0,1-.14-.52.67.67,0,0,1,.27-.47l49-37.41a.69.69,0,0,1,1,.12l4.42,5.61a.68.68,0,0,1,.14.52.71.71,0,0,1-.27.47l-48.95,37.41A.69.69,0,0,1,138.34,276.37Zm-3.43-6.18,3.55,4.51,47.85-36.56-3.55-4.51Z"/><polygon class="cls-2_bug-fixing-1-23" points="187.07 235.51 185.53 233.55 207.32 217.31 208.86 219.26 187.07 235.51"/><path class="cls-3_bug-fixing-1-23" d="M187.07,236.21a.7.7,0,0,1-.55-.27L185,234a.72.72,0,0,1-.14-.53.67.67,0,0,1,.27-.47l21.79-16.24a.7.7,0,0,1,1,.12l1.54,2a.71.71,0,0,1,.15.52.72.72,0,0,1-.28.47l-21.79,16.25A.71.71,0,0,1,187.07,236.21Zm-.54-2.53.67.86,20.67-15.41-.68-.86Z"/><polygon class="cls-3_bug-fixing-1-23" points="139.14 276.69 133.12 269.05 129.98 271.45 136 279.09 139.14 276.69"/><path class="cls-3_bug-fixing-1-23" d="M136,279.79a.69.69,0,0,1-.55-.27l-6-7.64a.63.63,0,0,1-.14-.51.7.7,0,0,1,.26-.47l3.15-2.4a.69.69,0,0,1,1,.12l6,7.64a.69.69,0,0,1,.14.52.67.67,0,0,1-.27.46l-3.14,2.41A.75.75,0,0,1,136,279.79Zm-5-8.21,5.16,6.54,2-1.55L133,270Z"/><polygon class="cls-2_bug-fixing-1-23" points="135.54 278.51 130.44 272.04 123.5 277.34 128.6 283.81 135.54 278.51"/><path class="cls-3_bug-fixing-1-23" d="M128.6,284.51a.7.7,0,0,1-.55-.27l-5.1-6.47a.69.69,0,0,1-.14-.52.67.67,0,0,1,.27-.47l6.93-5.3a.71.71,0,0,1,1,.12l5.1,6.48a.74.74,0,0,1,.14.52.71.71,0,0,1-.27.47l-6.93,5.3A.76.76,0,0,1,128.6,284.51Zm-4.11-7.05,4.24,5.38,5.82-4.45L130.31,273Z"/><polygon class="cls-2_bug-fixing-1-23" points="127.26 282.1 124.85 279.05 120.77 282.16 123.18 285.22 127.26 282.1"/><path class="cls-3_bug-fixing-1-23" d="M123.18,285.92a.69.69,0,0,1-.55-.27l-2.41-3a.69.69,0,0,1,.12-1l4.08-3.12a.71.71,0,0,1,1,.12l2.41,3.06a.74.74,0,0,1,.14.52.67.67,0,0,1-.27.47l-4.08,3.12A.65.65,0,0,1,123.18,285.92Zm-1.42-3.63,1.54,2,3-2.27-1.55-2Z"/><polygon class="cls-3_bug-fixing-1-23" points="191.35 236.79 185.33 229.16 182.18 231.56 188.2 239.2 191.35 236.79"/><path class="cls-3_bug-fixing-1-23" d="M188.2,239.9a.72.72,0,0,1-.55-.27l-6-7.64a.7.7,0,0,1-.15-.52.67.67,0,0,1,.27-.46l3.15-2.41a.7.7,0,0,1,1,.12l6,7.64a.71.71,0,0,1,.15.52.69.69,0,0,1-.27.47l-3.15,2.4A.66.66,0,0,1,188.2,239.9Zm-5-8.22,5.15,6.55,2-1.56-5.15-6.54Z"/><polygon class="cls-2_bug-fixing-1-23" points="209.82 220.04 206.8 216.2 211.62 211.32 215.81 216.65 209.82 220.04"/><path class="cls-3_bug-fixing-1-23" d="M209.82,220.74a.72.72,0,0,1-.55-.27l-3-3.84a.69.69,0,0,1,.05-.92l4.82-4.88a.72.72,0,0,1,.54-.21.7.7,0,0,1,.51.27l4.19,5.33a.67.67,0,0,1,.14.56.68.68,0,0,1-.34.48l-6,3.39A.67.67,0,0,1,209.82,220.74Zm-2.09-4.49,2.27,2.88,4.76-2.69-3.2-4.06Z"/><path class="cls-2_bug-fixing-1-23" d="M182.54,240.17a6.67,6.67,0,0,0-1.57-3.08,5.45,5.45,0,0,0-2-1.6,5.36,5.36,0,0,0-4.5.54c-3.86,2.08-5.85,6.47-6.75,10.72a3.88,3.88,0,0,0,.06,2.52c1.37,2.79,6.58,1.59,8.76.55C179.9,248.25,183.2,244,182.54,240.17Z"/><path class="cls-3_bug-fixing-1-23" d="M171.48,251.68c-1.83,0-3.53-.53-4.3-2.11a4.47,4.47,0,0,1-.11-3c.8-3.79,2.69-8.81,7.1-11.19a6.06,6.06,0,0,1,5.1-.56,6,6,0,0,1,2.24,1.79,7.45,7.45,0,0,1,1.72,3.41h0c.71,4.1-2.72,8.69-6.36,10.41A13.88,13.88,0,0,1,171.48,251.68Zm6-15.78a5.7,5.7,0,0,0-2.64.74c-3.94,2.13-5.65,6.75-6.4,10.26a3.36,3.36,0,0,0,0,2.06c1,2.13,5.58,1.29,7.84.23,3.17-1.5,6.17-5.43,5.57-8.91h0a5.93,5.93,0,0,0-1.42-2.74,4.53,4.53,0,0,0-1.7-1.4A3.25,3.25,0,0,0,177.47,235.9Z"/><path class="cls-2_bug-fixing-1-23" d="M135.39,258c.84.11,1.47.2,1.66.26,2.49.68,4.93,1.27,7.46.12a16.8,16.8,0,0,0,2.42-1.5,22.64,22.64,0,0,1,8.62-3.45,9.27,9.27,0,0,0-.79,3.67c2.88.54,5.34,1.45,8.29,1.29.6,0,1.3,0,1.64.44a1.44,1.44,0,0,1,.21.84,6.93,6.93,0,0,1-2.09,4.36c-9.33,9.2-23.88,7.18-35.81,5.25-.45-.07-1-.2-1.16-.61a1.39,1.39,0,0,1,0-.88l2.46-10.55S132.83,257.64,135.39,258Z"/><path class="cls-3_bug-fixing-1-23" d="M142.68,271.58a98.8,98.8,0,0,1-15.79-1.64,2.11,2.11,0,0,1-1.69-1,2.07,2.07,0,0,1,0-1.34l2.45-10.54c.14-.75.14-.77,7.87.22h0a14.49,14.49,0,0,1,1.75.27c2.59.71,4.75,1.18,7,.17a13,13,0,0,0,1.79-1.09l.54-.37a23.31,23.31,0,0,1,8.88-3.55.7.7,0,0,1,.76,1,8.74,8.74,0,0,0-.71,2.81c.62.12,1.22.26,1.82.4a19.52,19.52,0,0,0,5.71.76,2.46,2.46,0,0,1,2.25.74,2,2,0,0,1,.34,1.25,7.47,7.47,0,0,1-2.26,4.82C157.7,270,150.12,271.58,142.68,271.58ZM128.84,258l-2.31,10a1.06,1.06,0,0,0-.06.43s.07.12.64.21c13.62,2.2,26.55,3.48,35.21-5.05a6.11,6.11,0,0,0,1.88-3.87.72.72,0,0,0-.08-.43c-.14-.2-.8-.17-1-.16a20.45,20.45,0,0,1-6.11-.78c-.76-.18-1.54-.36-2.35-.52a.68.68,0,0,1-.57-.69,9.68,9.68,0,0,1,.4-2.72,21.85,21.85,0,0,0-7.14,3.09l-.51.35a13.39,13.39,0,0,1-2,1.21c-2.87,1.3-5.68.53-7.94-.09-.05,0-.31-.07-1.56-.23h0C133.25,258.41,130.1,258.07,128.84,258Z"/><path class="cls-4_bug-fixing-1-23 targetColor" d="M94.18,209.53c.33.58,14.5,37.26,14.5,37.26l28.9,6.57-2.27,19.11s-21.81.14-40.6-4.42c-13.85-3.36-22-55.55-20.71-60.67S89.48,201.38,94.18,209.53Z" style="fill: rgb(104, 225, 253);"/><path class="cls-3_bug-fixing-1-23" d="M95.51,367.65a33.73,33.73,0,0,1-4.79-.33c-7.78-1.1-18.5-5.54-25.4-20.44-7.18-15.53-7.25-37.45-6-53.09a234.72,234.72,0,0,1,4.37-30.49.69.69,0,0,1,.84-.53.7.7,0,0,1,.52.84c-.12.53-11.94,53.44,1.58,82.68,6.63,14.33,16.89,18.59,24.33,19.64,12.16,1.72,24.48-4,29.89-10.24,6.77-7.8,3.45-17,.24-25.82-.93-2.56-1.89-5.2-2.55-7.73-4-15.14-3.14-27.51,2.75-38.9a.7.7,0,1,1,1.24.64c-5.72,11.07-6.56,23.11-2.64,37.9.65,2.47,1.56,5,2.52,7.62,3.34,9.23,6.8,18.78-.5,27.21C116.81,362.46,106.56,367.65,95.51,367.65Z"/><path class="cls-2_bug-fixing-1-23" d="M85.4,366a.69.69,0,0,1-.69-.63l-7.29-81.17a.69.69,0,0,1,.63-.76.7.7,0,0,1,.75.63l7.3,81.17a.7.7,0,0,1-.63.76Z"/><path class="cls-2_bug-fixing-1-23" d="M98.38,368.1a44.35,44.35,0,0,1-9-1c-17-3.55-23.19-18.52-23.25-18.67a.7.7,0,0,1,.38-.91.71.71,0,0,1,.91.39c.06.14,6,14.43,22.25,17.82s22-3.18,22.06-3.25a.7.7,0,0,1,1.07.91C112.54,363.61,108.61,368.1,98.38,368.1Z"/><path class="cls-3_bug-fixing-1-23" d="M124,273.17h0c-1.12,0-27.56-.46-33.85-5.34s-16.53-47.29-17-49.09a.7.7,0,1,1,1.36-.33c3.63,15.11,11.73,44.65,16.46,48.32,5.92,4.59,32.74,5,33,5a.7.7,0,0,1,0,1.4Z"/><path class="cls-3_bug-fixing-1-23" d="M127.15,251.69l-.14,0c-.61-.12-15-3.13-18.49-5.57s-11.54-31-12.44-34.26a.7.7,0,1,1,1.35-.37c3.33,12.07,9.5,31.84,11.88,33.48,3.32,2.28,17.84,5.32,18,5.35a.7.7,0,0,1-.14,1.39Z"/></g><g id="Dead_Bugs_bug-fixing-1-23" data-name="Dead Bugs"><path class="cls-2_bug-fixing-1-23" d="M283.63,404.38c0,4.74-7.3,8.58-16.31,8.58S251,409.12,251,404.38Z"/><path class="cls-3_bug-fixing-1-23" d="M267.32,413.6c-9.5,0-16.95-4.05-16.95-9.22a.64.64,0,0,1,.64-.64h32.62a.64.64,0,0,1,.64.64C284.27,409.55,276.83,413.6,267.32,413.6ZM251.7,405c.67,4,7.55,7.3,15.62,7.3s14.95-3.28,15.62-7.3Z"/><path class="cls-3_bug-fixing-1-23" d="M273.33,405a.63.63,0,0,1-.41-.15.64.64,0,0,1-.08-.9c0-.05,2.19-2.79,1.33-9.23a.64.64,0,0,1,.55-.72.66.66,0,0,1,.72.55c.94,7.09-1.52,10.1-1.62,10.22A.65.65,0,0,1,273.33,405Z"/><path class="cls-3_bug-fixing-1-23" d="M258.61,405a.61.61,0,0,1-.45-.19c-.17-.17-4.19-4.29-5.14-8.65a.64.64,0,0,1,.49-.76.63.63,0,0,1,.76.48c.87,4,4.76,8,4.8,8a.65.65,0,0,1,0,.91A.63.63,0,0,1,258.61,405Z"/><path class="cls-3_bug-fixing-1-23" d="M280.32,405a.62.62,0,0,1-.32-.09.63.63,0,0,1-.23-.87c.26-.46,2.67-4.52,5.22-4.74a2.59,2.59,0,0,1,2.26,1,.64.64,0,0,1-1,.82,1.3,1.3,0,0,0-1.17-.58c-1.6.14-3.64,3.09-4.23,4.11A.61.61,0,0,1,280.32,405Z"/><path class="cls-3_bug-fixing-1-23" d="M253.65,405a.65.65,0,0,1-.52-.26c-.09-.12-2.23-3-5.3-2a.64.64,0,0,1-.8-.41.65.65,0,0,1,.41-.81c3.94-1.26,6.61,2.3,6.72,2.45a.63.63,0,0,1-.13.89A.62.62,0,0,1,253.65,405Z"/><path class="cls-3_bug-fixing-1-23" d="M264,404.38s1.29,4.44,5.33,3.34a11,11,0,0,0,5.73-3.34Z"/><path class="cls-3_bug-fixing-1-23" d="M268,408.53c-2.77,0-4.27-2.47-4.7-4a.63.63,0,0,1,.1-.56.62.62,0,0,1,.51-.26H275a.64.64,0,0,1,.51,1,11.63,11.63,0,0,1-6.07,3.56A5.21,5.21,0,0,1,268,408.53ZM264.9,405a3.51,3.51,0,0,0,4.21,2.08,12.22,12.22,0,0,0,4.3-2.08Z"/><path class="cls-2_bug-fixing-1-23" d="M442.69,402.05c0,4.74-7.3,8.59-16.31,8.59s-16.31-3.85-16.31-8.59Z"/><path class="cls-3_bug-fixing-1-23" d="M426.38,411.28c-9.51,0-16.95-4-16.95-9.23a.64.64,0,0,1,.64-.64h32.62a.64.64,0,0,1,.64.64C443.33,407.23,435.88,411.28,426.38,411.28Zm-15.62-8.59c.67,4,7.55,7.31,15.62,7.31s14.95-3.29,15.61-7.31Z"/><path class="cls-3_bug-fixing-1-23" d="M432.39,402.69a.66.66,0,0,1-.42-.15.64.64,0,0,1-.07-.9c0-.05,2.18-2.79,1.32-9.23a.65.65,0,0,1,.55-.72.66.66,0,0,1,.72.55c.95,7.1-1.51,10.1-1.61,10.23A.64.64,0,0,1,432.39,402.69Z"/><path class="cls-3_bug-fixing-1-23" d="M417.67,402.69a.61.61,0,0,1-.45-.19c-.18-.17-4.19-4.29-5.14-8.65a.64.64,0,0,1,.49-.76.65.65,0,0,1,.76.49c.87,4,4.76,8,4.8,8a.64.64,0,0,1-.46,1.09Z"/><path class="cls-3_bug-fixing-1-23" d="M439.38,402.69a.61.61,0,0,1-.32-.08.65.65,0,0,1-.24-.88c.27-.46,2.68-4.52,5.23-4.74a2.56,2.56,0,0,1,2.25,1,.64.64,0,1,1-1,.81,1.27,1.27,0,0,0-1.16-.57c-1.6.13-3.64,3.08-4.23,4.1A.63.63,0,0,1,439.38,402.69Z"/><path class="cls-3_bug-fixing-1-23" d="M412.7,402.69a.63.63,0,0,1-.51-.26c-.09-.12-2.23-3-5.3-2a.65.65,0,0,1-.81-.42.65.65,0,0,1,.42-.8c3.95-1.26,6.61,2.29,6.72,2.45a.63.63,0,0,1-.52,1Z"/><path class="cls-3_bug-fixing-1-23" d="M423,402.05s1.28,4.44,5.33,3.34a10.94,10.94,0,0,0,5.73-3.34Z"/><path class="cls-3_bug-fixing-1-23" d="M427.1,406.21c-2.77,0-4.27-2.47-4.71-4a.66.66,0,0,1,.1-.56.65.65,0,0,1,.52-.26h11.06a.64.64,0,0,1,.57.36.65.65,0,0,1-.06.67,11.53,11.53,0,0,1-6.07,3.57A5.7,5.7,0,0,1,427.1,406.21ZM424,402.69a3.5,3.5,0,0,0,4.21,2.08,12.05,12.05,0,0,0,4.3-2.08Z"/><path class="cls-3_bug-fixing-1-23" d="M216,381.24h7.11s-1.29,3.41-4.42,4.29-7.81,0-7.81,0Z"/><path class="cls-3_bug-fixing-1-23" d="M215.24,386.56a27.86,27.86,0,0,1-4.5-.4.65.65,0,0,1-.5-.47.66.66,0,0,1,.2-.65l5.12-4.29a.66.66,0,0,1,.42-.15h7.11a.63.63,0,0,1,.52.27.66.66,0,0,1,.08.59c-.06.16-1.44,3.73-4.84,4.69A13.84,13.84,0,0,1,215.24,386.56Zm-2.88-1.46a17.58,17.58,0,0,0,6.14-.18,6.37,6.37,0,0,0,3.56-3h-5.85Z"/><path class="cls-2_bug-fixing-1-23" d="M183.36,381.24c0,4.74,7.3,8.58,16.31,8.58S216,386,216,381.24Z"/><path class="cls-3_bug-fixing-1-23" d="M199.67,390.46c-9.51,0-16.95-4-16.95-9.22a.63.63,0,0,1,.64-.64H216a.64.64,0,0,1,.64.64C216.62,386.41,209.17,390.46,199.67,390.46Zm-15.62-8.58c.67,4,7.55,7.3,15.62,7.3s15-3.28,15.61-7.3Z"/><path class="cls-3_bug-fixing-1-23" d="M188.87,381.88a.63.63,0,0,1-.53-.3c-.39-.6-3.78-6-3.78-8.68a.64.64,0,0,1,.64-.64.64.64,0,0,1,.64.64c0,2,2.58,6.43,3.57,8a.64.64,0,0,1-.19.89A.74.74,0,0,1,188.87,381.88Z"/><path class="cls-3_bug-fixing-1-23" d="M193.65,381.88a.62.62,0,0,1-.48-.23c-.11-.12-2.56-3.13-1.62-10.22a.65.65,0,0,1,.72-.55.64.64,0,0,1,.55.72c-.86,6.47,1.31,9.2,1.33,9.23a.65.65,0,0,1-.09.9A.63.63,0,0,1,193.65,381.88Z"/><path class="cls-3_bug-fixing-1-23" d="M202.12,381.88a.61.61,0,0,1-.45-.19.63.63,0,0,1,0-.9s3.93-4,4.8-8a.65.65,0,0,1,.76-.49.64.64,0,0,1,.49.76c-1,4.37-5,8.48-5.14,8.66A.65.65,0,0,1,202.12,381.88Z"/><path class="cls-3_bug-fixing-1-23" d="M207.09,381.88a.63.63,0,0,1-.53-.28.64.64,0,0,1,.16-.89,35.51,35.51,0,0,0,7.39-7.08.64.64,0,1,1,1,.75,36.3,36.3,0,0,1-7.69,7.38A.62.62,0,0,1,207.09,381.88Z"/><path class="cls-3_bug-fixing-1-23" d="M325,394.57h-7.12s1.29,3.41,4.42,4.29,7.82,0,7.82,0Z"/><path class="cls-3_bug-fixing-1-23" d="M325.74,399.9a13.84,13.84,0,0,1-3.61-.42c-3.4-1-4.78-4.53-4.84-4.68a.65.65,0,0,1,.08-.59.62.62,0,0,1,.52-.28H325a.63.63,0,0,1,.41.15l5.12,4.29a.62.62,0,0,1,.2.65.63.63,0,0,1-.5.47A26.08,26.08,0,0,1,325.74,399.9Zm-6.82-4.69a6.37,6.37,0,0,0,3.56,3,17.58,17.58,0,0,0,6.14.18l-3.85-3.22Z"/><path class="cls-2_bug-fixing-1-23" d="M357.63,394.57c0,4.74-7.31,8.58-16.31,8.58S325,399.31,325,394.57Z"/><path class="cls-3_bug-fixing-1-23" d="M341.32,403.79c-9.51,0-16.95-4.05-16.95-9.22a.64.64,0,0,1,.64-.64h32.61a.64.64,0,0,1,.64.64C358.26,399.74,350.82,403.79,341.32,403.79Zm-15.62-8.58c.66,4,7.55,7.31,15.62,7.31s14.95-3.29,15.61-7.31Z"/><path class="cls-3_bug-fixing-1-23" d="M352.11,395.21a.63.63,0,0,1-.54-1c1-1.56,3.58-6,3.58-8a.64.64,0,0,1,.64-.64.64.64,0,0,1,.64.64c0,2.69-3.4,8.08-3.78,8.69A.65.65,0,0,1,352.11,395.21Z"/><path class="cls-3_bug-fixing-1-23" d="M347.32,395.21a.64.64,0,0,1-.49-1h0s2.2-2.76,1.33-9.23a.64.64,0,0,1,.55-.72.65.65,0,0,1,.72.55c.95,7.09-1.51,10.1-1.62,10.22A.62.62,0,0,1,347.32,395.21Z"/><path class="cls-3_bug-fixing-1-23" d="M338.86,395.21a.61.61,0,0,1-.45-.19c-.17-.17-4.19-4.29-5.14-8.65a.63.63,0,0,1,.49-.76.63.63,0,0,1,.76.49c.87,4,4.76,8,4.8,8a.64.64,0,0,1-.46,1.09Z"/><path class="cls-3_bug-fixing-1-23" d="M333.9,395.21a.7.7,0,0,1-.37-.11,36.78,36.78,0,0,1-7.69-7.39.64.64,0,1,1,1-.75,36.28,36.28,0,0,0,7.39,7.09.64.64,0,0,1-.36,1.16Z"/><path class="cls-3_bug-fixing-1-23" d="M413.55,376.25h7.11s-1.28,3.41-4.41,4.29-7.82,0-7.82,0Z"/><path class="cls-3_bug-fixing-1-23" d="M412.82,381.58a26.12,26.12,0,0,1-4.51-.41.65.65,0,0,1-.5-.47.64.64,0,0,1,.21-.65l5.12-4.29a.61.61,0,0,1,.41-.15h7.11a.63.63,0,0,1,.53.28.62.62,0,0,1,.07.59c-.06.15-1.44,3.72-4.84,4.68A13.76,13.76,0,0,1,412.82,381.58Zm-2.88-1.47a17.59,17.59,0,0,0,6.14-.18,6.41,6.41,0,0,0,3.56-3h-5.86Z"/><path class="cls-2_bug-fixing-1-23" d="M380.93,376.25c0,4.74,7.3,8.58,16.31,8.58s16.31-3.84,16.31-8.58Z"/><path class="cls-3_bug-fixing-1-23" d="M397.24,385.47c-9.5,0-16.95-4.05-16.95-9.22a.64.64,0,0,1,.64-.64h32.62a.64.64,0,0,1,.64.64C414.19,381.42,406.74,385.47,397.24,385.47Zm-15.62-8.58c.67,4,7.55,7.3,15.62,7.3s14.95-3.28,15.62-7.3Z"/><path class="cls-3_bug-fixing-1-23" d="M386.45,376.89a.65.65,0,0,1-.54-.3c-.39-.6-3.78-6-3.78-8.68a.64.64,0,0,1,1.28,0c0,2,2.58,6.44,3.58,8a.64.64,0,0,1-.2.88A.59.59,0,0,1,386.45,376.89Z"/><path class="cls-3_bug-fixing-1-23" d="M391.23,376.89a.65.65,0,0,1-.49-.23c-.1-.12-2.56-3.13-1.62-10.22a.66.66,0,0,1,.72-.55.64.64,0,0,1,.55.72c-.86,6.47,1.31,9.2,1.33,9.23a.64.64,0,0,1-.08.9A.65.65,0,0,1,391.23,376.89Z"/><path class="cls-3_bug-fixing-1-23" d="M399.69,376.89a.66.66,0,0,1-.45-.18.65.65,0,0,1,0-.91s3.93-4,4.79-8a.64.64,0,0,1,1.25.28c-.94,4.36-5,8.48-5.13,8.65A.63.63,0,0,1,399.69,376.89Z"/><path class="cls-3_bug-fixing-1-23" d="M404.66,376.89a.68.68,0,0,1-.53-.27.64.64,0,0,1,.16-.89,36,36,0,0,0,7.39-7.09.64.64,0,0,1,1,.75,36.46,36.46,0,0,1-7.7,7.39A.69.69,0,0,1,404.66,376.89Z"/></g><g id="Bugs_bug-fixing-1-23"><path class="cls-3_bug-fixing-1-23" d="M389.47,132.89a2.76,2.76,0,0,1,3.26,1.34,2.84,2.84,0,0,1-.09,2.23c-.81,1.91-4,4.8-5.83,2.38C385.25,136.8,387.33,133.51,389.47,132.89Z"/><path class="cls-3_bug-fixing-1-23" d="M388.54,140.4a2.77,2.77,0,0,1-2.24-1.17,3.61,3.61,0,0,1-.45-3.42,5.63,5.63,0,0,1,3.44-3.54h0a3.42,3.42,0,0,1,4,1.7,3.54,3.54,0,0,1-.09,2.74c-.57,1.33-2.34,3.42-4.32,3.67Zm1.1-6.9a4.38,4.38,0,0,0-2.57,2.71,2.39,2.39,0,0,0,.25,2.24,1.5,1.5,0,0,0,1.43.66,5.24,5.24,0,0,0,3.3-2.9,2.2,2.2,0,0,0,.09-1.73,2.14,2.14,0,0,0-2.5-1Z"/><path class="cls-3_bug-fixing-1-23" d="M403.74,140.32a.55.55,0,0,1-.28-.07.64.64,0,0,1-.3-.85l3.61-7.35-3.95-5.39a.65.65,0,0,1,.14-.89.64.64,0,0,1,.9.14l4.17,5.7a.65.65,0,0,1,.06.66L404.31,140A.62.62,0,0,1,403.74,140.32Z"/><path class="cls-3_bug-fixing-1-23" d="M405.17,146.1a.62.62,0,0,1-.56-.34.63.63,0,0,1,.26-.86l11.83-6.33a.64.64,0,0,1,.6,1.12L405.48,146A.58.58,0,0,1,405.17,146.1Z"/><path class="cls-3_bug-fixing-1-23" d="M380.33,152.51a.64.64,0,0,1-.52-.27l-4.17-5.7a.64.64,0,0,1,1-.75l3.94,5.39,8.09-1.21a.66.66,0,0,1,.73.54.64.64,0,0,1-.54.73l-8.48,1.26Z"/><path class="cls-3_bug-fixing-1-23" d="M392,134.5c-.86,0-1.8-1.77-2.17-2.54-.65-1.36-2.51-6.07.7-9.47a.64.64,0,1,1,.93.88,5.75,5.75,0,0,0-1.43,4.84,9.7,9.7,0,0,0,2.14,5,.66.66,0,0,1,.47.58.64.64,0,0,1-.59.68Z"/><path class="cls-3_bug-fixing-1-23" d="M385.75,162.22a.62.62,0,0,1-.44-.18.65.65,0,0,1,0-.91l8.21-8.52a.64.64,0,0,1,.93.88L386.21,162A.63.63,0,0,1,385.75,162.22Z"/><path class="cls-3_bug-fixing-1-23" d="M399.41,174.94a.61.61,0,0,1-.45-.19l-6.54-6.63a.63.63,0,0,1,0-.86l6-7.27a.64.64,0,0,1,1,.82l-5.64,6.82,6.14,6.22a.65.65,0,0,1,0,.91A.63.63,0,0,1,399.41,174.94Z"/><path class="cls-3_bug-fixing-1-23" d="M422.76,157.86a.64.64,0,0,1-.52-.26l-4.49-6.29-7.93,1.82a.64.64,0,0,1-.29-1.25l8.35-1.92a.62.62,0,0,1,.66.26l4.74,6.63a.63.63,0,0,1-.15.89A.57.57,0,0,1,422.76,157.86Z"/><ellipse class="cls-2_bug-fixing-1-23" cx="398.5" cy="147.8" rx="9.48" ry="14.5" transform="translate(-10.4 263.76) rotate(-36.18)"/><path class="cls-3_bug-fixing-1-23" d="M403,161.4c-4.17,0-9.11-2.81-12.63-7.63-4.93-6.74-5.28-14.9-.77-18.2s12.18-.49,17.11,6.25h0c4.93,6.74,5.27,14.9.77,18.2A7.44,7.44,0,0,1,403,161.4Zm-8.88-26a6.24,6.24,0,0,0-3.77,1.16c-3.93,2.87-3.46,10.24,1.05,16.41s11.39,8.85,15.32,6,3.47-10.24-1.05-16.41C402.35,138.09,397.82,135.45,394.08,135.45Z"/><path class="cls-3_bug-fixing-1-23" d="M388.05,148.86a.64.64,0,0,1-.38-1.15l13.58-9.94a.66.66,0,0,1,.9.14.65.65,0,0,1-.14.9l-13.58,9.93A.68.68,0,0,1,388.05,148.86Z"/><path class="cls-3_bug-fixing-1-23" d="M407.06,160.14a.65.65,0,0,1-.52-.26L394.92,144a.64.64,0,1,1,1-.75l11.63,15.89a.66.66,0,0,1-.14.9A.68.68,0,0,1,407.06,160.14Z"/><path class="cls-3_bug-fixing-1-23" d="M387.21,138.52a.63.63,0,0,1-.53-.28c-.17-.24-4.17-5.92-10.12-3.48a.63.63,0,0,1-.83-.34.64.64,0,0,1,.34-.84c6.92-2.85,11.62,3.87,11.66,3.94a.64.64,0,0,1-.52,1Z"/><path class="cls-3_bug-fixing-1-23" d="M381.85,214.32a2.35,2.35,0,0,1,1.29,2.7,2.4,2.4,0,0,1-1.33,1.36c-1.6.74-5.23.75-5-1.83C377,214.37,380.15,213.49,381.85,214.32Z"/><path class="cls-3_bug-fixing-1-23" d="M379.61,219.45a4.24,4.24,0,0,1-2.43-.66,2.41,2.41,0,0,1-1-2.29,3.16,3.16,0,0,1,1.71-2.48,4.87,4.87,0,0,1,4.27-.28h0a3,3,0,0,1,1.62,3.49,3.07,3.07,0,0,1-1.67,1.73A6.32,6.32,0,0,1,379.61,219.45Zm.76-4.8a3.83,3.83,0,0,0-1.87.48,1.91,1.91,0,0,0-1.07,1.47,1.15,1.15,0,0,0,.48,1.15,4.39,4.39,0,0,0,3.64.05,1.86,1.86,0,0,0,1-1,1.73,1.73,0,0,0-1-1.93A2.82,2.82,0,0,0,380.37,214.65Z"/><path class="cls-3_bug-fixing-1-23" d="M387,227.37a.64.64,0,0,1-.23-1.23l6.4-2.55.58-5.58a.64.64,0,0,1,1.28.13l-.63,6a.63.63,0,0,1-.4.53l-6.76,2.69A.67.67,0,0,1,387,227.37Z"/><path class="cls-3_bug-fixing-1-23" d="M395.62,234.59l-.15,0-11.06-2.76a.64.64,0,0,1,.31-1.24l11,2.76a.63.63,0,0,1,.47.77A.64.64,0,0,1,395.62,234.59Z"/><path class="cls-3_bug-fixing-1-23" d="M371.33,225.73a.58.58,0,0,1-.35-.11l-6.06-4a.65.65,0,0,1-.28-.59l.63-6a.64.64,0,1,1,1.27.13l-.58,5.59,5.73,3.82a.64.64,0,0,1-.36,1.17Z"/><path class="cls-3_bug-fixing-1-23" d="M382.91,217a.61.61,0,0,1-.4-.14c-.61-.47-.25-2,0-2.95.37-1.25,1.9-5.33,5.93-5.64a.64.64,0,1,1,.1,1.27,4.78,4.78,0,0,0-3.53,2.1,8.38,8.38,0,0,0-1.57,4.39.64.64,0,0,1,0,.72A.62.62,0,0,1,382.91,217Zm.39-1.14Z"/><path class="cls-3_bug-fixing-1-23" d="M363.15,230.9a.64.64,0,0,1,0-1.28l10-.68a.64.64,0,0,1,.09,1.27l-10,.68Z"/><path class="cls-3_bug-fixing-1-23" d="M364.5,246.7a.63.63,0,0,1-.64-.62l-.34-7.9a.63.63,0,0,1,.55-.66l7.92-1.15a.64.64,0,0,1,.19,1.27l-7.36,1.06.31,7.33a.64.64,0,0,1-.61.67Z"/><path class="cls-3_bug-fixing-1-23" d="M388.93,249.26h-.08a.64.64,0,0,1-.56-.71l.75-6.46-6-3.34a.64.64,0,0,1,.63-1.12l6.34,3.56a.64.64,0,0,1,.33.63l-.81,6.88A.63.63,0,0,1,388.93,249.26Z"/><ellipse class="cls-2_bug-fixing-1-23" cx="379.03" cy="228.85" rx="12.32" ry="8.05" transform="translate(111.82 581.89) rotate(-84)"/><path class="cls-3_bug-fixing-1-23" d="M378.31,241.77l-.63,0c-2.36-.25-4.42-1.86-5.79-4.53a17.89,17.89,0,0,1,1.9-18c1.89-2.33,4.23-3.48,6.6-3.22s4.42,1.85,5.79,4.52a17.89,17.89,0,0,1-1.9,18A7.82,7.82,0,0,1,378.31,241.77Zm1.45-24.56a6.61,6.61,0,0,0-5,2.79A16.61,16.61,0,0,0,373,236.63c1.17,2.27,2.87,3.64,4.78,3.84s3.87-.78,5.48-2.76A16.61,16.61,0,0,0,385,221.08c-1.17-2.28-2.87-3.64-4.79-3.84A3.91,3.91,0,0,0,379.76,217.21Z"/><path class="cls-3_bug-fixing-1-23" d="M386.43,225.3h-.07l-14.21-1.49a.64.64,0,1,1,.13-1.27L386.49,224a.63.63,0,0,1,.57.7A.64.64,0,0,1,386.43,225.3Z"/><path class="cls-3_bug-fixing-1-23" d="M377.75,241.74h-.07a.64.64,0,0,1-.57-.7l1.75-16.64a.64.64,0,0,1,1.27.13l-1.75,16.64A.63.63,0,0,1,377.75,241.74Z"/><path class="cls-3_bug-fixing-1-23" d="M377.58,216.81h-.08a.64.64,0,0,1-.55-.72c0-.24.74-6-4.32-7.85a.64.64,0,1,1,.43-1.2c6.05,2.18,5.17,9.16,5.16,9.23A.65.65,0,0,1,377.58,216.81Z"/><path class="cls-3_bug-fixing-1-23" d="M337,162.06a3.56,3.56,0,0,1,2,4.11,3.7,3.7,0,0,1-2,2.07c-2.43,1.12-8,1.14-7.64-2.79C329.58,162.14,334.43,160.79,337,162.06Z"/><path class="cls-3_bug-fixing-1-23" d="M333.62,169.52a6.2,6.2,0,0,1-3.53-.93,3.35,3.35,0,0,1-1.42-3.19,4.51,4.51,0,0,1,2.44-3.52,7.06,7.06,0,0,1,6.18-.4,4.22,4.22,0,0,1,2.29,4.9,4.36,4.36,0,0,1-2.36,2.44A9.11,9.11,0,0,1,333.62,169.52Zm1.14-7.29a6.22,6.22,0,0,0-3,.77,3.22,3.22,0,0,0-1.79,2.5,2.08,2.08,0,0,0,.88,2.05c1.49,1,4.42.77,5.86.11a3.07,3.07,0,0,0,1.68-1.7,3,3,0,0,0-1.64-3.33h0A4.53,4.53,0,0,0,334.76,162.23Z"/><path class="cls-3_bug-fixing-1-23" d="M344.79,181.59a.65.65,0,0,1-.6-.41.64.64,0,0,1,.36-.83l9.93-3.95.91-8.69a.64.64,0,0,1,1.28.13l-1,9.08a.65.65,0,0,1-.4.53L345,181.54A.59.59,0,0,1,344.79,181.59Z"/><path class="cls-3_bug-fixing-1-23" d="M358,192.56h-.15L341,188.35a.66.66,0,0,1-.47-.78.64.64,0,0,1,.78-.46l16.82,4.19a.64.64,0,0,1,.46.78A.63.63,0,0,1,358,192.56Z"/><path class="cls-3_bug-fixing-1-23" d="M321,179.09a.66.66,0,0,1-.36-.11l-9.21-6.14a.66.66,0,0,1-.28-.6l.95-9.08a.65.65,0,0,1,.71-.57.65.65,0,0,1,.57.7l-.92,8.7,8.89,5.93a.64.64,0,0,1-.35,1.17Z"/><path class="cls-3_bug-fixing-1-23" d="M338.62,165.85a.61.61,0,0,1-.4-.14c-.83-.64-.1-3.34.15-4.15.55-1.84,2.81-7.87,8.72-8.33a.63.63,0,0,1,.69.58.64.64,0,0,1-.59.69,7.71,7.71,0,0,0-5.89,3.73,12.58,12.58,0,0,0-2.17,6.6.64.64,0,0,1-.51,1Zm.52-1Zm-.13-.16Z"/><path class="cls-3_bug-fixing-1-23" d="M308.56,187a.64.64,0,0,1,0-1.28l15.26-1a.63.63,0,0,1,.69.6.65.65,0,0,1-.6.68l-15.26,1Z"/><path class="cls-3_bug-fixing-1-23" d="M310.6,211a.63.63,0,0,1-.63-.62l-.52-12a.64.64,0,0,1,.55-.66l12.06-1.75a.64.64,0,0,1,.72.54.63.63,0,0,1-.54.72l-11.49,1.67.49,11.45a.63.63,0,0,1-.61.66Z"/><path class="cls-3_bug-fixing-1-23" d="M347.78,214.89h-.08a.64.64,0,0,1-.56-.71l1.17-10.05-9.28-5.2a.65.65,0,0,1-.24-.87.63.63,0,0,1,.87-.24l9.65,5.41a.63.63,0,0,1,.33.63l-1.23,10.47A.63.63,0,0,1,347.78,214.89Z"/><ellipse class="cls-2_bug-fixing-1-23" cx="332.73" cy="184.17" rx="18.74" ry="12.25" transform="translate(114.79 495.83) rotate(-84)"/><path class="cls-3_bug-fixing-1-23" d="M331.61,203.49c-.3,0-.61,0-.91,0-3.48-.37-6.51-2.75-8.55-6.71a25.24,25.24,0,0,1-2.25-13.92c1.12-10.63,7.77-18.7,14.85-17.93s11.92,10,10.8,20.63h0C344.48,195.69,338.33,203.49,331.61,203.49Zm2.22-37.37c-6.07,0-11.65,7.32-12.65,16.84a23.85,23.85,0,0,0,2.11,13.19c1.83,3.57,4.51,5.71,7.54,6,6.38.66,12.4-6.86,13.45-16.79h0c1-9.92-3.29-18.54-9.66-19.21A7.13,7.13,0,0,0,333.83,166.12Zm11.08,19.33h0Z"/><path class="cls-3_bug-fixing-1-23" d="M344,178.43h-.07l-21.63-2.27a.65.65,0,0,1-.57-.7.64.64,0,0,1,.71-.57L344,177.15a.64.64,0,0,1-.06,1.28Z"/><path class="cls-3_bug-fixing-1-23" d="M330.77,203.45h-.07a.65.65,0,0,1-.57-.71l2.66-25.31a.64.64,0,0,1,.7-.57.63.63,0,0,1,.57.7l-2.66,25.32A.63.63,0,0,1,330.77,203.45Z"/><path class="cls-3_bug-fixing-1-23" d="M330.52,165.51h-.09a.65.65,0,0,1-.55-.72c.06-.39,1.18-9.44-6.79-12.31a.64.64,0,0,1-.38-.82.63.63,0,0,1,.82-.38c9,3.22,7.64,13.58,7.62,13.68A.64.64,0,0,1,330.52,165.51Z"/><path class="cls-3_bug-fixing-1-23" d="M265.52,118.32a2.56,2.56,0,0,1,1.41,3,2.67,2.67,0,0,1-1.46,1.49c-1.75.81-5.73.82-5.5-2C260.16,118.38,263.65,117.41,265.52,118.32Z"/><path class="cls-3_bug-fixing-1-23" d="M263.06,123.88a4.55,4.55,0,0,1-2.63-.71,2.56,2.56,0,0,1-1.1-2.46,3.39,3.39,0,0,1,1.85-2.67,5.26,5.26,0,0,1,4.62-.3h0a3.24,3.24,0,0,1,1.74,3.75,3.3,3.3,0,0,1-1.8,1.86A6.74,6.74,0,0,1,263.06,123.88Zm.83-5.26a4.32,4.32,0,0,0-2.08.53,2.16,2.16,0,0,0-1.2,1.66,1.32,1.32,0,0,0,.55,1.32,4.84,4.84,0,0,0,4,.06,2,2,0,0,0,1.11-1.12,1.94,1.94,0,0,0-1.09-2.18h0A3.11,3.11,0,0,0,263.89,118.62Z"/><path class="cls-3_bug-fixing-1-23" d="M271.12,132.57a.65.65,0,0,1-.6-.41.64.64,0,0,1,.36-.83l7.06-2.8.64-6.16a.65.65,0,0,1,.71-.57.63.63,0,0,1,.56.7l-.68,6.54a.65.65,0,0,1-.4.53l-7.41,3A.69.69,0,0,1,271.12,132.57Z"/><path class="cls-3_bug-fixing-1-23" d="M280.61,140.48l-.15,0-12.12-3a.64.64,0,0,1-.47-.77.65.65,0,0,1,.78-.47l12.12,3a.63.63,0,0,1,.46.77A.64.64,0,0,1,280.61,140.48Z"/><path class="cls-3_bug-fixing-1-23" d="M254,130.77a.66.66,0,0,1-.35-.11L247,126.23a.66.66,0,0,1-.28-.6l.69-6.54a.64.64,0,1,1,1.27.14l-.65,6.15,6.32,4.21a.64.64,0,0,1-.36,1.18Z"/><path class="cls-3_bug-fixing-1-23" d="M266.67,121.23a.64.64,0,0,1-.39-.14c-.65-.5-.25-2.21,0-3.18.4-1.35,2.07-5.79,6.45-6.13a.64.64,0,0,1,.1,1.27,5.32,5.32,0,0,0-4,2.38,9.09,9.09,0,0,0-1.69,4.82.65.65,0,0,1,0,.73A.66.66,0,0,1,266.67,121.23Zm.4-1.15Z"/><path class="cls-3_bug-fixing-1-23" d="M245,136.43a.64.64,0,0,1-.64-.6.64.64,0,0,1,.59-.68l11-.75a.65.65,0,0,1,.68.6.63.63,0,0,1-.59.68l-11,.75Z"/><path class="cls-3_bug-fixing-1-23" d="M246.49,153.75a.64.64,0,0,1-.64-.61l-.37-8.67a.65.65,0,0,1,.55-.66l8.69-1.26a.64.64,0,0,1,.18,1.27L246.78,145l.35,8.08a.65.65,0,0,1-.61.67Z"/><path class="cls-3_bug-fixing-1-23" d="M273.27,156.57h-.07a.64.64,0,0,1-.56-.71l.83-7.12L266.89,145a.64.64,0,0,1-.25-.87.63.63,0,0,1,.87-.24l7,3.9a.63.63,0,0,1,.32.63l-.88,7.54A.66.66,0,0,1,273.27,156.57Z"/><ellipse class="cls-2_bug-fixing-1-23" cx="262.43" cy="134.25" rx="13.5" ry="8.83" transform="translate(101.49 381.21) rotate(-84)"/><path class="cls-3_bug-fixing-1-23" d="M261.62,148.35c-.22,0-.45,0-.67,0-2.57-.27-4.8-2-6.3-4.93a19.56,19.56,0,0,1,2.07-19.69c2.07-2.54,4.63-3.79,7.19-3.52,5.19.55,8.75,7.3,7.93,15.06h0C271.06,142.66,266.56,148.35,261.62,148.35Zm1.6-26.92a7.3,7.3,0,0,0-5.51,3.07,18.28,18.28,0,0,0-1.92,18.3c1.29,2.51,3.17,4,5.29,4.24,4.51.48,8.75-4.88,9.49-11.93s-2.31-13.18-6.8-13.65A4.93,4.93,0,0,0,263.22,121.43Zm8,13.74h0Z"/><path class="cls-3_bug-fixing-1-23" d="M270.53,130.29h-.06l-15.59-1.64a.64.64,0,0,1,.14-1.27L270.6,129a.63.63,0,0,1,.57.7A.64.64,0,0,1,270.53,130.29Z"/><path class="cls-3_bug-fixing-1-23" d="M261,148.32H261a.65.65,0,0,1-.57-.71l1.92-18.23a.63.63,0,0,1,.7-.57.63.63,0,0,1,.57.7l-1.92,18.24A.64.64,0,0,1,261,148.32Z"/><path class="cls-3_bug-fixing-1-23" d="M260.84,121h-.09a.65.65,0,0,1-.55-.72c0-.27.83-6.65-4.78-8.68a.64.64,0,0,1,.44-1.2c6.58,2.37,5.62,10,5.61,10.05A.64.64,0,0,1,260.84,121Z"/></g><g id="spray_bug-fixing-1-23"><path class="cls-3_bug-fixing-1-23" d="M218.74,206.63a.59.59,0,0,1-.34-.1.63.63,0,0,1-.2-.88l20.17-32.08a.65.65,0,0,1,.89-.2.63.63,0,0,1,.2.88l-20.18,32.08A.65.65,0,0,1,218.74,206.63Z"/><path class="cls-3_bug-fixing-1-23" d="M221.72,216.28a.63.63,0,0,1-.63-.57.64.64,0,0,1,.56-.71l44.1-5.09a.64.64,0,1,1,.14,1.27l-44.09,5.09Z"/><path class="cls-3_bug-fixing-1-23" d="M353.14,258.48l-.17,0L225.74,223a.64.64,0,1,1,.34-1.23l127.23,35.43a.64.64,0,0,1-.17,1.26Z"/><path class="cls-3_bug-fixing-1-23" d="M210.64,204.71h0A.65.65,0,0,1,210,204l6.56-88.22a.64.64,0,0,1,.69-.6.65.65,0,0,1,.59.69l-6.56,88.23A.65.65,0,0,1,210.64,204.71Z"/></g><g id="line_of_text_bug-fixing-1-23" data-name="line of text"><path class="cls-2_bug-fixing-1-23" d="M199.24,151.28H162.61a.7.7,0,1,1,0-1.39h36.63a.7.7,0,0,1,0,1.39Z"/><path class="cls-2_bug-fixing-1-23" d="M199.24,168.47H162.61a.7.7,0,1,1,0-1.39h36.63a.7.7,0,0,1,0,1.39Z"/><path class="cls-2_bug-fixing-1-23" d="M199.24,185.66H162.61a.7.7,0,1,1,0-1.4h36.63a.7.7,0,0,1,0,1.4Z"/><path class="cls-2_bug-fixing-1-23" d="M199.24,202.84H162.61a.7.7,0,1,1,0-1.39h36.63a.7.7,0,0,1,0,1.39Z"/><path class="cls-2_bug-fixing-1-23" d="M430.57,195.32H411.69a.7.7,0,1,1,0-1.4h18.88a.7.7,0,0,1,0,1.4Z"/><path class="cls-2_bug-fixing-1-23" d="M430.57,206.69H411.69a.7.7,0,1,1,0-1.4h18.88a.7.7,0,0,1,0,1.4Z"/><path class="cls-2_bug-fixing-1-23" d="M430.57,218.06H411.69a.7.7,0,1,1,0-1.4h18.88a.7.7,0,0,1,0,1.4Z"/><path class="cls-2_bug-fixing-1-23" d="M430.57,229.43H411.69a.7.7,0,1,1,0-1.4h18.88a.7.7,0,0,1,0,1.4Z"/><path class="cls-2_bug-fixing-1-23" d="M426.65,240.79h-15a.7.7,0,1,1,0-1.39h15a.7.7,0,1,1,0,1.39Z"/><path class="cls-2_bug-fixing-1-23" d="M260.91,246.31H216.7a.7.7,0,1,1,0-1.4h44.21a.7.7,0,0,1,0,1.4Z"/><path class="cls-2_bug-fixing-1-23" d="M251.76,256.75H216.7a.7.7,0,1,1,0-1.39h35.06a.7.7,0,1,1,0,1.39Z"/></g></svg>