<svg version="1.1" id="Layer_1" xmlns="http://www.w3.org/2000/svg" xmlns:xlink="http://www.w3.org/1999/xlink" x="0px" y="0px" viewBox="0 0 500 500" style="width: 166px;" xml:space="preserve" data-imageid="calendar-29" imageName="Calendar" class="illustrations_image">
<style type="text/css">
	.st0_calendar-29{fill:#093F68;}
	.st1_calendar-29{fill:#FFFFFF;}
	.st2_calendar-29{fill:#68E1FD;}
	.st3_calendar-29{fill:#DFEAEF;}
	.st4_calendar-29{fill:#F56132;}
	.st5_calendar-29{fill:#70CC40;}
</style>
<g id="calendar_calendar-29">
	<path class="st0_calendar-29" d="M443,367.1H55.3c-0.9,0.1-1.7-0.6-1.8-1.5s0.6-1.7,1.5-1.8c0.1,0,0.2,0,0.3,0H443c0.9,0.1,1.6,0.9,1.5,1.8&#10;&#9;&#9;C444.5,366.4,443.8,367,443,367.1z"/>
	<g id="calendar-2_calendar-29">
		<path class="st1_calendar-29" d="M111.4,149.2h248.5c10.2,0,18.5,8.3,18.5,18.5v179.3c0,10.2-8.3,18.5-18.5,18.5H111.4&#10;&#9;&#9;&#9;c-10.2,0-18.5-8.3-18.5-18.5V167.6C92.9,157.4,101.2,149.2,111.4,149.2z"/>
		<path class="st0_calendar-29" d="M359.9,367.1H111.4c-11.1,0-20.1-9-20.1-20.1V167.6c0-11.1,9-20.1,20.1-20.1h248.5c11.1,0,20.1,9,20.1,20.1&#10;&#9;&#9;&#9;v179.3C380,358.1,371,367.1,359.9,367.1z M111.4,150.9c-9.3,0-16.8,7.5-16.8,16.8v179.3c0,9.3,7.5,16.8,16.8,16.8h248.5&#10;&#9;&#9;&#9;c9.3,0,16.8-7.5,16.8-16.8V167.6c0-9.3-7.5-16.8-16.8-16.8H111.4z"/>
		<path class="st2_calendar-29 targetColor" d="M378.3,167.6v23.1H92.9v-23.1c0-10.2,8.3-18.5,18.5-18.5l0,0h248.5C370.1,149.2,378.3,157.4,378.3,167.6&#10;&#9;&#9;&#9;L378.3,167.6z" style="fill: rgb(104, 225, 253);"/>
		<path class="st0_calendar-29" d="M378.3,192.4H92.9c-0.9,0-1.7-0.7-1.7-1.7c0,0,0,0,0,0v-23.1c0-11.1,9-20.1,20.1-20.1h248.5&#10;&#9;&#9;&#9;c11.1,0,20.1,9,20.1,20.1v23.1C380,191.7,379.2,192.4,378.3,192.4z M94.6,189.1h282.1v-21.5c0-9.3-7.5-16.8-16.8-16.8H111.4&#10;&#9;&#9;&#9;c-9.3,0-16.8,7.5-16.8,16.8V189.1z"/>
		<rect x="172.1" y="215.3" class="st1_calendar-29" width="29.6" height="29.6"/>
		<path class="st3_calendar-29" d="M201.7,246.7h-29.6c-0.9,0-1.7-0.8-1.7-1.7v-29.7c0-0.9,0.7-1.7,1.7-1.7h29.6c0.9,0,1.7,0.7,1.7,1.7V245&#10;&#9;&#9;&#9;C203.4,245.9,202.6,246.7,201.7,246.7z M173.7,243.3H200V217h-26.3V243.3z"/>
		<rect x="220.8" y="215.3" class="st1_calendar-29" width="29.6" height="29.6"/>
		<path class="st3_calendar-29" d="M250.4,246.7h-29.6c-0.9,0-1.7-0.8-1.7-1.7v-29.7c0-0.9,0.8-1.7,1.7-1.7h29.6c0.9,0,1.7,0.7,1.7,1.7V245&#10;&#9;&#9;&#9;C252.1,245.9,251.4,246.7,250.4,246.7z M222.4,243.3h26.3V217h-26.3V243.3z"/>
		<rect x="269.5" y="215.3" class="st1_calendar-29" width="29.6" height="29.6"/>
		<path class="st3_calendar-29" d="M299.2,246.7h-29.6c-0.9,0-1.7-0.7-1.7-1.7c0,0,0,0,0,0v-29.7c0-0.9,0.7-1.7,1.7-1.7l0,0h29.6&#10;&#9;&#9;&#9;c0.9,0,1.7,0.7,1.7,1.7v0V245C300.9,245.9,300.1,246.7,299.2,246.7z M271.2,243.3h26.3V217h-26.3V243.3z"/>
		<rect x="318.3" y="215.3" class="st4_calendar-29" width="29.6" height="29.6"/>
		<path class="st0_calendar-29" d="M347.9,246.7h-29.6c-0.9,0-1.7-0.8-1.7-1.7v-29.7c0-0.9,0.7-1.7,1.7-1.7l0,0h29.6c0.9,0,1.7,0.7,1.7,1.7v0&#10;&#9;&#9;&#9;V245C349.6,245.9,348.9,246.7,347.9,246.7z M319.9,243.3h26.3V217H320L319.9,243.3z"/>
		<rect x="123.3" y="260.4" class="st1_calendar-29" width="29.6" height="29.6"/>
		<path class="st3_calendar-29" d="M153,291.7h-29.7c-0.9,0-1.7-0.8-1.7-1.7v-29.7c0-0.9,0.7-1.7,1.7-1.7c0,0,0,0,0,0H153c0.9,0,1.7,0.7,1.7,1.7&#10;&#9;&#9;&#9;l0,0V290C154.7,290.9,153.9,291.7,153,291.7C153,291.7,153,291.7,153,291.7z M125,288.4h26.3v-26.3H125V288.4z"/>
		<rect x="172.1" y="260.4" class="st1_calendar-29" width="29.6" height="29.6"/>
		<path class="st3_calendar-29" d="M201.7,291.7h-29.6c-0.9,0-1.7-0.8-1.7-1.7v-29.7c0-0.9,0.7-1.7,1.7-1.7h0h29.6c0.9,0,1.7,0.7,1.7,1.7V290&#10;&#9;&#9;&#9;C203.4,290.9,202.6,291.7,201.7,291.7C201.7,291.7,201.7,291.7,201.7,291.7z M173.7,288.4H200v-26.3h-26.3V288.4z"/>
		<rect x="220.8" y="260.4" class="st1_calendar-29" width="29.6" height="29.6"/>
		<path class="st3_calendar-29" d="M250.4,291.7h-29.6c-0.9,0-1.7-0.8-1.7-1.7v-29.7c0-0.9,0.8-1.7,1.7-1.7h29.6c0.9,0,1.7,0.7,1.7,1.7V290&#10;&#9;&#9;&#9;C252.1,290.9,251.4,291.7,250.4,291.7C250.5,291.7,250.4,291.7,250.4,291.7z M222.4,288.4h26.3v-26.3h-26.3V288.4z"/>
		<rect x="269.5" y="260.4" class="st1_calendar-29" width="29.6" height="29.6"/>
		<path class="st3_calendar-29" d="M299.2,291.7h-29.6c-0.9,0-1.7-0.7-1.7-1.7c0,0,0,0,0,0v-29.7c0-0.9,0.7-1.7,1.7-1.7h0h29.6&#10;&#9;&#9;&#9;c0.9,0,1.7,0.7,1.7,1.7v0V290C300.9,290.9,300.1,291.7,299.2,291.7C299.2,291.7,299.2,291.7,299.2,291.7z M271.2,288.4h26.3v-26.3&#10;&#9;&#9;&#9;h-26.3V288.4z"/>
		<rect x="318.3" y="260.4" class="st4_calendar-29" width="29.6" height="29.6"/>
		<path class="st0_calendar-29" d="M347.9,291.7h-29.6c-0.9,0-1.7-0.8-1.7-1.7v-29.7c0-0.9,0.7-1.7,1.7-1.7h0h29.6c0.9,0,1.7,0.7,1.7,1.7v0V290&#10;&#9;&#9;&#9;C349.6,290.9,348.9,291.7,347.9,291.7C347.9,291.7,347.9,291.7,347.9,291.7z M319.9,288.4h26.3v-26.3H320L319.9,288.4z"/>
		<rect x="123.3" y="305.4" class="st1_calendar-29" width="29.6" height="29.6"/>
		<path class="st3_calendar-29" d="M153,336.7h-29.7c-0.9,0-1.7-0.7-1.7-1.7l0,0v-29.6c0-0.9,0.7-1.7,1.7-1.7c0,0,0,0,0,0H153&#10;&#9;&#9;&#9;c0.9,0,1.7,0.7,1.7,1.7l0,0V335C154.7,336,153.9,336.7,153,336.7L153,336.7z M125,333.4h26.3v-26.3H125V333.4z"/>
		<rect x="172.1" y="305.4" class="st1_calendar-29" width="29.6" height="29.6"/>
		<path class="st0_calendar-29" d="M201.7,336.7h-29.6c-0.9,0-1.7-0.7-1.7-1.7l0,0v-29.6c0-0.9,0.7-1.7,1.7-1.7h0h29.6c0.9,0,1.7,0.7,1.7,1.7&#10;&#9;&#9;&#9;V335C203.4,336,202.6,336.7,201.7,336.7C201.7,336.7,201.7,336.7,201.7,336.7z M173.7,333.4H200v-26.3h-26.3V333.4z"/>
		<rect x="220.8" y="305.4" class="st1_calendar-29" width="29.6" height="29.6"/>
		<path class="st3_calendar-29" d="M250.4,336.7h-29.6c-0.9,0-1.7-0.7-1.7-1.7c0,0,0,0,0,0v-29.6c0-0.9,0.8-1.7,1.7-1.7h29.6&#10;&#9;&#9;&#9;c0.9,0,1.7,0.7,1.7,1.7V335C252.1,336,251.4,336.7,250.4,336.7C250.4,336.7,250.4,336.7,250.4,336.7z M222.4,333.4h26.3v-26.3&#10;&#9;&#9;&#9;h-26.3V333.4z"/>
		<rect x="269.5" y="305.4" class="st1_calendar-29" width="29.6" height="29.6"/>
		<path class="st3_calendar-29" d="M299.2,336.7h-29.6c-0.9,0-1.7-0.7-1.7-1.6c0,0,0,0,0,0v-29.6c0-0.9,0.7-1.7,1.7-1.7h0h29.6&#10;&#9;&#9;&#9;c0.9,0,1.7,0.7,1.7,1.7v0V335C300.9,336,300.1,336.7,299.2,336.7L299.2,336.7z M271.2,333.4h26.3v-26.3h-26.3V333.4z"/>
		<circle class="st0_calendar-29" cx="163.2" cy="168.2" r="7.9"/>
		<path class="st0_calendar-29" d="M163.2,177.7c-5.3,0-9.5-4.3-9.5-9.5c0-5.3,4.3-9.5,9.5-9.5c5.3,0,9.5,4.3,9.5,9.5c0,0,0,0,0,0&#10;&#9;&#9;&#9;C172.8,173.4,168.5,177.7,163.2,177.7z M163.2,162c-3.4,0-6.2,2.8-6.2,6.2c0,3.4,2.8,6.2,6.2,6.2s6.2-2.8,6.2-6.2c0,0,0,0,0,0&#10;&#9;&#9;&#9;C169.4,164.8,166.7,162,163.2,162L163.2,162z"/>
		<path class="st1_calendar-29" d="M161.1,133.9h4.3c1.8,0,3.2,1.4,3.2,3.2v31c0,1.8-1.4,3.2-3.2,3.2h-4.3c-1.8,0-3.2-1.4-3.2-3.2v-31&#10;&#9;&#9;&#9;C157.9,135.3,159.3,133.9,161.1,133.9z"/>
		<path class="st0_calendar-29" d="M163.2,172.9c-3.9,0-7.1-3.2-7.1-7.1l0,0v-26.6c0-3.9,3.2-7.1,7.1-7.1s7.1,3.2,7.1,7.1v26.6&#10;&#9;&#9;&#9;C170.3,169.8,167.1,172.9,163.2,172.9L163.2,172.9z M163.2,135.5c-2,0-3.7,1.7-3.7,3.7v26.6c0.1,2,1.9,3.6,3.9,3.5&#10;&#9;&#9;&#9;c1.9-0.1,3.4-1.6,3.5-3.5v-26.6C166.9,137.2,165.3,135.5,163.2,135.5L163.2,135.5z"/>
		<circle class="st0_calendar-29" cx="308" cy="168.2" r="7.9"/>
		<path class="st0_calendar-29" d="M308,177.7c-5.3,0-9.5-4.3-9.5-9.5s4.3-9.5,9.5-9.5s9.5,4.3,9.5,9.5c0,0,0,0,0,0&#10;&#9;&#9;&#9;C317.5,173.4,313.3,177.7,308,177.7z M308,162c-3.4,0-6.2,2.8-6.2,6.2c0,3.4,2.8,6.2,6.2,6.2c3.4,0,6.2-2.8,6.2-6.2v0&#10;&#9;&#9;&#9;C314.2,164.8,311.4,162,308,162L308,162z"/>
		<path class="st1_calendar-29" d="M305.8,133.9h4.3c1.8,0,3.2,1.4,3.2,3.2v31c0,1.8-1.4,3.2-3.2,3.2h-4.3c-1.8,0-3.2-1.4-3.2-3.2v-31&#10;&#9;&#9;&#9;C302.6,135.3,304,133.9,305.8,133.9z"/>
		<path class="st0_calendar-29" d="M308,172.9c-3.9,0-7-3.2-7-7.1v-26.6c0-3.9,3.2-7.1,7-7.1c3.9,0,7.1,3.2,7.1,7.1v26.6&#10;&#9;&#9;&#9;C315.1,169.8,311.9,172.9,308,172.9C308,172.9,308,172.9,308,172.9z M308,135.5c-2,0-3.7,1.7-3.7,3.7v26.6c0.1,2,1.9,3.6,3.9,3.5&#10;&#9;&#9;&#9;c1.9-0.1,3.4-1.6,3.5-3.5v-26.6C311.7,137.2,310,135.5,308,135.5L308,135.5z"/>
	</g>
</g>
<g id="checklist_calendar-29">
	<path class="st5_calendar-29" d="M184.3,329.7c-0.2,0-0.4,0-0.6-0.1c-0.8-0.2-1.4-0.7-1.7-1.5l-5-12c-0.5-1.3,0.1-2.7,1.4-3.3&#10;&#9;&#9;c1.3-0.5,2.7,0.1,3.3,1.4l3.7,8.9l21.6-17.7c1.1-0.9,2.7-0.7,3.5,0.3s0.7,2.7-0.3,3.5l0,0l-24.2,19.9&#10;&#9;&#9;C185.4,329.5,184.9,329.7,184.3,329.7z"/>
</g>
<g id="pencil_calendar-29">
	<path class="st2_calendar-29 targetColor" d="M55.5,209.8l9.8-8.7c1.7-1.5,4.4-1.4,5.9,0.4l76.5,86.6l0,0l-16.1,14.2l0,0l-76.5-86.6&#10;&#9;&#9;C53.6,214,53.8,211.3,55.5,209.8z" style="fill: rgb(104, 225, 253);"/>
	<path class="st0_calendar-29" d="M131.6,304h-0.1c-0.4,0-0.9-0.2-1.2-0.6L55.8,219c-3.2-3.6-2.8-9.1,0.8-12.3l5.6-4.9c3.6-3.2,9.1-2.8,12.3,0.8&#10;&#9;&#9;L149,287c0.6,0.7,0.5,1.7-0.1,2.4c0,0,0,0,0,0l-16.1,14.2C132.4,303.9,132,304,131.6,304z M67.9,202.9c-1.3,0-2.6,0.5-3.6,1.3&#10;&#9;&#9;l-5.6,4.9c-1.1,0.9-1.7,2.3-1.8,3.7c-0.1,1.4,0.4,2.8,1.3,3.9l73.5,83.2l13.6-12l-73.5-83.3C70.9,203.6,69.4,202.9,67.9,202.9z"/>
	<polygon class="st1_calendar-29" points="147.8,288.1 154.8,305.2 160.2,318.4 147.7,311.4 131.6,302.4 &#9;"/>
	<path class="st0_calendar-29" d="M160.2,320.1c-0.3,0-0.6-0.1-0.8-0.2l-28.5-16c-0.5-0.3-0.8-0.7-0.8-1.3c-0.1-0.5,0.1-1.1,0.6-1.4l16.1-14.2&#10;&#9;&#9;c0.7-0.6,1.7-0.6,2.4,0.1c0.1,0.1,0.2,0.3,0.3,0.5l12.4,30.3c0.3,0.7,0.1,1.4-0.4,1.9C161,320,160.6,320.1,160.2,320.1z&#10;&#9;&#9; M134.5,302.1l22.3,12.5l-9.7-23.7L134.5,302.1z"/>
	<polygon class="st5_calendar-29" points="153.6,302.4 160.2,318.4 144.7,309.7 &#9;"/>
	<path class="st0_calendar-29" d="M160.2,320.1c-0.3,0-0.6-0.1-0.8-0.2l-15.5-8.7c-0.8-0.5-1.1-1.5-0.6-2.3c0.1-0.2,0.2-0.3,0.4-0.5l8.9-7.3&#10;&#9;&#9;c0.7-0.6,1.8-0.5,2.4,0.2c0.1,0.1,0.2,0.3,0.3,0.4l6.6,16c0.3,0.7,0.1,1.4-0.4,1.9C161,319.9,160.6,320.1,160.2,320.1z&#10;&#9;&#9; M147.7,309.5l9.1,5.1l-3.9-9.5L147.7,309.5z"/>
</g>
<g id="plant_calendar-29">
	<path class="st5_calendar-29" d="M404,335.4c0,0-15.2-30.9-13-51.8c0,0,12.2,5.5,18.1,21.8c9,24.9,6.9,30,6.9,30H404z"/>
	<path class="st0_calendar-29" d="M416,337.1L416,337.1h-11.9c-0.6,0-1.2-0.4-1.5-0.9c-0.6-1.3-15.4-31.6-13.2-52.7c0-0.5,0.4-1,0.8-1.3&#10;&#9;&#9;c0.5-0.3,1-0.3,1.5-0.1c0.5,0.2,12.9,6,19,22.8c8.7,24.2,7.3,30.3,6.9,31.2C417.3,336.7,416.7,337.2,416,337.1z M405.1,333.8h9.4&#10;&#9;&#9;c0.1-2.5-0.5-9.8-7-27.8c-2.8-8-8-14.8-15-19.6C391.9,304.4,402.8,328.7,405.1,333.8L405.1,333.8z"/>
	<path class="st5_calendar-29" d="M411.2,333.9c0,0-11.4-44.1,5-73.6c0,0,9.4,10.8,11.7,36.9c1.8,21.2-6.8,36-6.8,36L411.2,333.9z"/>
	<path class="st0_calendar-29" d="M411.2,335.6c-0.8,0-1.4-0.5-1.6-1.3c-2-8.6-3.2-17.3-3.7-26c-0.8-13.6,0.2-33.2,8.8-48.8&#10;&#9;&#9;c0.3-0.5,0.7-0.8,1.3-0.9c0.5-0.1,1.1,0.2,1.4,0.6c0.4,0.5,9.8,11.5,12.1,37.8c1.9,21.5-6.7,36.4-7,37c-0.3,0.5-0.8,0.8-1.3,0.8&#10;&#9;&#9;l-9.9,0.7L411.2,335.6z M416.5,263.6c-12.6,25.6-5.5,61.3-3.9,68.6l7.5-0.5c5.1-10.7,7.2-22.5,6.2-34.3&#10;&#9;&#9;C424.6,278.5,419.1,267.8,416.5,263.6z"/>
	<path class="st5_calendar-29" d="M416.2,332.6c0,0,3.5-29.4,27.3-48.6c0,0,7,21.9-12.6,51.2L416.2,332.6z"/>
	<path class="st0_calendar-29" d="M430.8,336.8c-0.1,0-0.2,0-0.3,0l-14.7-2.6c-0.9-0.1-1.5-1-1.4-1.9c0.1-1.2,3.9-30.3,27.9-49.7&#10;&#9;&#9;c0.4-0.3,1-0.5,1.5-0.3c0.5,0.2,0.9,0.6,1.1,1.1c0.3,0.9,7,23-12.8,52.7C431.9,336.6,431.4,336.8,430.8,336.8z M418.1,331.2l12,2.1&#10;&#9;&#9;c14.5-22.1,13.4-39.9,12.4-46.3C424.3,303,419.2,325.2,418.1,331.2L418.1,331.2z"/>
	<polygon class="st1_calendar-29" points="432.5,365.6 402.5,365.6 398.1,329.2 436.9,329.2 &#9;"/>
	<path class="st0_calendar-29" d="M432.5,367.3h-29.9c-0.8,0-1.6-0.6-1.7-1.5l-4.4-36.4c-0.1-0.9,0.5-1.8,1.5-1.9c0.1,0,0.1,0,0.2,0h38.8&#10;&#9;&#9;c0.5,0,0.9,0.2,1.2,0.6c0.3,0.4,0.5,0.8,0.4,1.3l-4.4,36.4C434,366.6,433.3,367.3,432.5,367.3z M404,363.9h27l4-33.1h-35L404,363.9&#10;&#9;&#9;z"/>
</g>
</svg>