<svg id="_0066_calling" xmlns="http://www.w3.org/2000/svg" xmlns:xlink="http://www.w3.org/1999/xlink" viewBox="0 0 500 500" data-imageid="calling-88" imageName="Calling" class="illustrations_image" style="width: 166px;"><defs><style>.cls-1_calling-88{fill:url(#linear-gradient);}.cls-1_calling-88,.cls-2_calling-88,.cls-3_calling-88,.cls-4_calling-88,.cls-5_calling-88,.cls-6_calling-88,.cls-7_calling-88,.cls-8_calling-88,.cls-9_calling-88,.cls-10_calling-88,.cls-11_calling-88,.cls-12_calling-88,.cls-13_calling-88,.cls-14_calling-88{stroke-width:0px;}.cls-2_calling-88{isolation:isolate;opacity:.18;}.cls-2_calling-88,.cls-14_calling-88{fill:#68e1fd;}.cls-3_calling-88{fill:url(#linear-gradient-4-calling-88);}.cls-4_calling-88{fill:url(#linear-gradient-2-calling-88);}.cls-5_calling-88{fill:url(#linear-gradient-3-calling-88);}.cls-6_calling-88{fill:url(#linear-gradient-8-calling-88);}.cls-7_calling-88{fill:url(#linear-gradient-9-calling-88);}.cls-8_calling-88{fill:url(#linear-gradient-7-calling-88);}.cls-9_calling-88{fill:url(#linear-gradient-5-calling-88);}.cls-10_calling-88{fill:url(#linear-gradient-6-calling-88);}.cls-11_calling-88{fill:#231f20;}.cls-12_calling-88{fill:#fff;}.cls-13_calling-88{fill:#ffb4a3;}</style><linearGradient id="linear-gradient-calling-88" x1="289.34" y1="1759.67" x2="296.78" y2="1476.73" gradientTransform="translate(-31.01 2125.12) scale(1 -1)" gradientUnits="userSpaceOnUse"><stop offset="0" stop-color="#000" stop-opacity="0"/><stop offset=".91" stop-color="#000" stop-opacity=".85"/><stop offset=".93" stop-color="#000" stop-opacity=".89"/><stop offset=".98" stop-color="#000"/></linearGradient><linearGradient id="linear-gradient-2-calling-88" x1="143.13" y1="-305.47" x2="572.95" y2="-304.12" gradientTransform="translate(-31.01 602.49)" gradientUnits="userSpaceOnUse"><stop offset="0" stop-color="#231f20" stop-opacity="0"/><stop offset="1" stop-color="#231f20"/></linearGradient><linearGradient id="linear-gradient-3-calling-88" x1="426.78" y1="1401.17" x2="438.2" y2="1940.36" gradientTransform="translate(-165.91 1957.12) scale(1 -1)" xlink:href="#linear-gradient-2-calling-88"/><linearGradient id="linear-gradient-4-calling-88" x1="433.16" y1="1590.51" x2="437.53" y2="1355.49" gradientTransform="translate(-165.91 1957.12) scale(1 -1)" xlink:href="#linear-gradient-2-calling-88"/><linearGradient id="linear-gradient-5-calling-88" x1="429.87" y1="1798" x2="488.29" y2="1798" gradientTransform="translate(-165.91 1957.12) scale(1 -1)" xlink:href="#linear-gradient-2-calling-88"/><linearGradient id="linear-gradient-6-calling-88" x1="424.36" y1="1877.74" x2="494.86" y2="1860.32" gradientTransform="translate(-165.91 1957.12) scale(1 -1)" xlink:href="#linear-gradient-2-calling-88"/><linearGradient id="linear-gradient-7-calling-88" x1="325.84" y1="-568.16" x2="334.86" y2="-561.28" gradientTransform="translate(-31.01 602.49)" xlink:href="#linear-gradient-2-calling-88"/><linearGradient id="linear-gradient-8-calling-88" x1="270.14" y1="1926.34" x2="279.05" y2="1918.1" gradientTransform="translate(-31.01 2125.12) scale(1 -1)" xlink:href="#linear-gradient-2-calling-88"/><linearGradient id="linear-gradient-9-calling-88" x1="301.08" y1="1928.45" x2="309.76" y2="1918.63" gradientTransform="translate(-31.01 2125.12) scale(1 -1)" xlink:href="#linear-gradient-2-calling-88"/></defs><path id="shadow_calling-88" class="cls-1_calling-88" d="M136.09,439.66c-12.02,3.51-26.29,11.06-25.3,23.54,1.02,12.77,16.92,17.79,29.65,18.98,24.25,2.24,48.66,2.04,73.01,1.84l101.87-.86c23.52-.2,47.2-.42,70.27-4.97,7.31-1.44,14.91-3.53,20.19-8.81,5.28-5.29,7.16-14.61,2.15-20.12-4.67-5.13-12.77-4.9-18.9-8.17-6.84-3.65-10.5-11.22-16.03-16.66-12.14-11.84-31.21-11.84-48.18-11.11l-111.09,4.88c-13.8.6-32.86-2.08-45.83,3.21-11.06,4.42-18.04,18.25-31.83,18.25Z"/><path id="background_calling-88" class="cls-2_calling-88 targetColor" d="M97.61,383.25c-5.35-26.22,5.61-54.66-3.9-79.67-7.85-20.58-27.79-33.91-39.5-52.57-14.99-23.9-14.6-56.56.98-80.08,16.48-24.84,45.88-37.29,69.03-56.09,15.09-12.28,27.68-27.47,43.27-39.08,15.59-11.61,35.8-19.5,54.49-14.1,12.02,3.46,21.87,11.92,33.37,16.73,25.96,10.88,55.37,1.96,83.44-.22,24.51-1.89,49.13,1.53,72.19,10.02,14.61,5.39,29.06,13.32,37.57,26.36,8.95,13.72,10.03,31.52,5.9,47.37-4.13,15.85-12.97,30.06-22.79,43.18-15.23,20.34-34.14,44.07-25.94,68.11,5.19,15.23,19.94,24.84,29.75,37.57,21.24,27.61,14.91,72.23-13.13,92.85-11.39,8.37-25.64,13.23-34.52,24.22-4.91,6.08-7.78,13.62-12.82,19.62-13.01,15.62-36.16,16.83-56.48,16.67-24.67-.19-49.33-.58-73.98-1.15-21.71-.5-51.68,3.8-72.39-2.72-30.67-9.66-68.02-45.23-74.53-77.03Z" style="fill: rgb(104, 225, 253);"/><g id="phone_calling-88"><rect class="cls-14_calling-88 targetColor" x="159.73" y="124.8" width="199.07" height="345.37" rx="18.96" ry="18.96" style="fill: rgb(104, 225, 253);"/><rect class="cls-4_calling-88" x="159.73" y="124.8" width="199.07" height="345.37" rx="18.96" ry="18.96"/><rect class="cls-14_calling-88 targetColor" x="167.17" y="124.8" width="199.07" height="345.37" rx="18.96" ry="18.96" style="fill: rgb(104, 225, 253);"/><path class="cls-5_calling-88" d="M356.71,151.96v257.42c0,9.13-7.41,16.54-16.54,16.54h-146.93c-9.13,0-16.54-7.41-16.54-16.54V151.96c0-9.13,7.41-16.54,16.54-16.54h39.47v5.51c0,4.81,3.9,8.71,8.71,8.71h58.63c4.81,0,8.71-3.9,8.71-8.71h0v-5.48h31.41c9.12,0,16.52,7.39,16.54,16.51Z"/><path class="cls-3_calling-88" d="M284.96,457.27h-32.41c-5.47,0-9.9-4.43-9.9-9.9h0c-.02-5.47,4.4-9.91,9.86-9.93h32.45c5.46,0,9.88,4.44,9.88,9.9h0c.02,5.47-4.39,9.91-9.86,9.94h-.02Z"/><path class="cls-12_calling-88" d="M223.89,275.68c-10.52,0-19.07-8.56-19.07-19.07s8.56-19.07,19.07-19.07,19.07,8.56,19.07,19.07-8.56,19.07-19.07,19.07ZM223.89,238.19c-10.15,0-18.41,8.26-18.41,18.42s8.26,18.41,18.41,18.41,18.42-8.26,18.42-18.41-8.26-18.42-18.42-18.42Z"/><path class="cls-12_calling-88" d="M272.08,275.67c-10.52,0-19.07-8.56-19.07-19.07s8.56-19.07,19.07-19.07,19.07,8.56,19.07,19.07-8.56,19.07-19.07,19.07ZM272.08,238.19c-10.15,0-18.41,8.26-18.41,18.41s8.26,18.42,18.41,18.42,18.42-8.26,18.42-18.42-8.26-18.41-18.42-18.41Z"/><path class="cls-12_calling-88" d="M320.26,275.67c-10.52,0-19.07-8.56-19.07-19.07s8.56-19.07,19.07-19.07,19.07,8.56,19.07,19.07-8.56,19.07-19.07,19.07ZM320.26,238.19c-10.15,0-18.42,8.26-18.42,18.41s8.26,18.42,18.42,18.42,18.41-8.26,18.41-18.42-8.26-18.41-18.41-18.41Z"/><path class="cls-12_calling-88" d="M223.89,325.33c-1.45,0-2.91-.17-4.38-.51-4.96-1.17-9.16-4.2-11.84-8.53-2.68-4.33-3.51-9.45-2.34-14.41l.32.08-.32-.08c2.42-10.23,12.7-16.6,22.94-14.18,4.96,1.17,9.16,4.2,11.84,8.53s3.51,9.45,2.34,14.41c-2.07,8.77-9.92,14.69-18.56,14.69ZM223.89,287.84c-8.35,0-15.92,5.72-17.92,14.19h0c-1.13,4.79-.33,9.73,2.26,13.91,2.59,4.18,6.65,7.11,11.43,8.24,9.88,2.33,19.82-3.81,22.15-13.69,1.13-4.79.33-9.73-2.26-13.91-2.59-4.18-6.65-7.11-11.43-8.24-1.42-.33-2.83-.49-4.23-.49Z"/><path class="cls-12_calling-88" d="M272.08,325.33c-1.45,0-2.91-.17-4.38-.51-10.23-2.42-16.6-12.71-14.18-22.94h0c1.17-4.96,4.2-9.16,8.53-11.84,4.33-2.68,9.45-3.51,14.41-2.34,10.23,2.42,16.6,12.71,14.18,22.94-2.07,8.77-9.92,14.69-18.56,14.69ZM253.83,301.95l.32.08c-2.33,9.88,3.81,19.82,13.69,22.15,9.88,2.33,19.82-3.81,22.15-13.69,2.33-9.88-3.81-19.82-13.69-22.15-4.79-1.13-9.73-.33-13.91,2.26-4.18,2.59-7.11,6.65-8.24,11.43l-.32-.08Z"/><circle class="cls-14_calling-88 targetColor" cx="274.16" cy="376.37" r="25.35" style="fill: rgb(104, 225, 253);"/><path class="cls-12_calling-88" d="M320.31,325.34c-1.47,0-2.95-.17-4.42-.52-10.23-2.42-16.6-12.71-14.18-22.94h0c2.42-10.24,12.71-16.6,22.94-14.18,10.23,2.42,16.6,12.71,14.18,22.94-1.17,4.96-4.2,9.16-8.53,11.84-3.05,1.89-6.49,2.86-9.99,2.86ZM302.03,301.95l.32.08c-2.33,9.88,3.81,19.82,13.69,22.15,4.79,1.13,9.73.33,13.91-2.26s7.11-6.65,8.24-11.43c2.33-9.88-3.81-19.82-13.69-22.15-9.88-2.33-19.82,3.81-22.15,13.69l-.32-.08Z"/><path class="cls-12_calling-88" d="M258.58,375.12c-.59,0-1.07-.5-1.06-1.09h0c0-.13.03-.27.08-.39.87-2.2,3.21-9.06,16.31-9.06,12.37,0,15.16,6.84,16.07,9.04.23.54-.02,1.18-.56,1.41-.13.06-.27.09-.41.09h-4.95c-.38,0-.74-.21-.92-.54-.65-1.2-2.12-6.98-9.46-6.98-5.98,0-8.2,3.21-9.43,6.8-.14.43-.55.73-1,.73h-4.66Z"/><rect class="cls-12_calling-88" x="254.41" y="374.13" width="12.29" height="7.17" rx="2.96" ry="2.96"/><rect class="cls-12_calling-88" x="280.26" y="374.13" width="12.29" height="7.17" rx="2.96" ry="2.96"/></g><g id="character_calling-88"><path class="cls-9_calling-88" d="M300.53,139.77c-2.44,2.31-6.05,3.67-7.26,6.81-1,2.6,0,5.48.4,8.24.8,6.19-1.82,12.23-3.56,18.23-1.72,5.93-2.58,12.08-2.56,18.25,0,3.03.18,6.27-1.41,8.81s-5.83,3.67-7.6,1.21c-.36-.55-.63-1.15-.8-1.78-2.86-9.18-1.14-19.09-1.26-28.73-.12-9.64-3.13-20.47-11.68-24.91-1.88,16.76-4.85,33.37-8.89,49.74-.87,3.53-2.76,7.81-6.41,7.73-.67-5.19-.94-10.42-1.2-15.66-1.03-19.86-2.02-39.74-3-59.62-.08-1.6-.14-3.38.6-4.81,1.11-2.21,3.7-3.21,6.08-3.89,9.04-2.69,18.38-4.21,27.81-4.54,6.31-.22,15.6,1.01,20.13,6.11,4.22,4.74,5.49,14.18.61,18.8Z"/><path class="cls-13_calling-88" d="M252.22,70.95c-1.27-2.1-6.13-13.54-7.91-17.63l-6.28-14.34c-.65,1.33-.65,2.9,0,4.23-4.18.2-8.34.67-12.45,1.42-1.42.26-3.15.88-3.27,2.32-.09.98.66,1.81,1.39,2.46,2.5,2.17,5.49,3.71,8.72,4.48,1.79.42,3.84.73,4.9,2.23.52.88.83,1.88.9,2.9.96,6.58,2.3,13.1,4.01,19.53.61,2.29,1.6,4.89,3.81,5.61,1.44.47,3.01,0,4.44-.48,4.36-1.47,8.73-3.21,12.28-6.11,4.27-3.51,19.23-22.44,11.83-26.89-3.58-2.19-13.4,9.49-15.31,11.87-2.89,3.65-3.49,5.33-7.05,8.41Z"/><path class="cls-11_calling-88" d="M338.44,95.54c-1.54.85-3.24,1.36-4.98,1.49-1.12.15-2.27.25-3.41.3-6.84.28-13.83-1.29-19.1-5.56-2.8-2.28-5.07-5.25-8.2-7.07-2.4-1.27-5.02-2.06-7.72-2.32-2.2-.3-4.44-.43-6.63-.7-4.89-.58-10.26-2.28-12.52-6.66-1.6-3.01-1.29-6.63-.8-9.99.93-6.41,2.46-12.82,2.73-19.35.15-3.53-.11-7.21-2-10.2-1.27-1.99-3.16-3.48-4.64-5.3-4.15-5.13-1.28-13.25,4.17-16.31,1.04-.47,2.02-1.05,2.94-1.72,1.11-.98,1.72-2.4,2.7-3.53,2.73-3.16,7.54-3.21,11.67-3.05l7.09.3c2.29.1,4.94.39,6.15,2.33.94,1.49.8,3.65,2.14,4.75.49.35,1.03.62,1.6.8,5.23,1.96,9.27,6.22,10.94,11.55,2.04,6.78-.06,14.29,1.98,21.06.15.63.45,1.22.87,1.71.6.47,1.29.83,2.02,1.06,4.46,1.96,5.83,7.67,5.47,12.52-.2,2.73-.75,5.61.26,8.13.73,1.83,2.19,3.25,3.57,4.65,2.92,2.92,5.81,6.12,7.01,10.08s.2,8.87-3.32,11.04Z"/><path class="cls-11_calling-88" d="M330.05,97.33c-6.84.28-13.83-1.29-19.1-5.56-2.8-2.28-5.07-5.25-8.2-7.07-2.4-1.27-5.02-2.06-7.72-2.32-2.88-3.21-5.72-6.47-8.48-9.78-2.13-2.56-4.23-5.22-5.51-8.3s-1.6-6.22-2.01-9.42c-1.08-8.93-2.13-18.2.67-26.75.35-1.23.89-2.4,1.6-3.46,4.81-6.65,17.57-5.61,21.76,1.07,1.08,1.91,1.82,3.99,2.21,6.15.76,3.49,1.27,7.04,1.51,10.6.19,2.97.3,6.22,2.25,8.47,1.22,1.4,3.01,2.21,4.32,3.53,5.03,5.04,1.05,14.42,5.11,20.29,1.05,1.35,2.31,2.53,3.73,3.49,3.21,2.4,6.73,4.76,8.75,8.26,2.02,3.5,2.04,8.25-.88,10.8Z"/><path class="cls-11_calling-88" d="M264.25,101.77s-29.72,5.44-30.58,13.4c-.86,7.96,5.39,73.85,5.39,73.85h6.8s12.22-36.06,10.11-46.66-4.25-13.55-4.25-13.55c0,0,12.38,6.11,24.09-7.37,11.71-13.49,6.48-22.5,6.48-22.5l-18.05,2.84Z"/><path class="cls-11_calling-88" d="M280.97,100.15s-28.34,10.47-27.83,18.43c.51,7.97,17.96,71.82,17.96,71.82l6.71-1.17s5.86-37.6,1.96-47.71c-3.89-10.11-6.47-12.6-6.47-12.6,0,0,16.4,7.53,26.03-7.51,8.16-12.76-5.35-25.69-13.67-22.85l-4.68,1.59Z"/><path class="cls-14_calling-88 targetColor" d="M264.25,101.77v-16.74s-4.92-9.14-5.72-13.84c-.46-2.72,2.97-11.08,6.93-14.31,2.76-2.24,4.81-6.24,8.33-6.35l17.3-.52,8.48,24.04-2.99,27.87s-7.27-3.77-32.33-.14Z" style="fill: rgb(104, 225, 253);"/><path class="cls-10_calling-88" d="M282.02,97.94c-.2.33-1.18,1.84-1.08,2.21s4.61.49,6.23.65c2.76.27,6.64.8,9.39,1.11,1.87-9.16.94-14.95,2.3-19.9.26-.58.38-1.21.38-1.84-.16-1.11-4.11-6.79-5.1-7.21-3.21-1.39-3.21,3.46-3.57,5.26-1.33,7.09-4.78,13.64-8.54,19.73Z"/><path class="cls-13_calling-88" d="M270.23,22.17s-4.01,13.36-1.27,15.65c2.74,2.29,5.13,2.61,5.69,3.75s1.97,5.97,0,9.14c-1.97,3.17-1.03,7.68,1.84,6.16,2.88-1.52,9.27-6.19,9.27-6.19l3.69-13.41s5.9-14.06,4.98-17.13-15.28-11.32-24.21,2.03Z"/><path class="cls-11_calling-88" d="M287.59,25.65c.43,1.68-.34,3.51.14,5.18.58,2.07,2.83,3.21,4.92,3.68s4.36.64,6.15,1.85c2.02,1.36,3.25,4.01,5.61,4.53,1.18.17,2.38.05,3.51-.34,2.6-.67,5.39-1.47,7.03-3.61.85-1.18,1.35-2.56,1.47-4.01.58-5.66-3.3-10.99-8.13-14-4.83-3.01-10.54-4.17-16.03-5.61-3.05-.8-10.26-3.06-11.94,1.04-1.19,2.91,1.53,8.2,4.94,5.45-.33,2.26,1.83,3.77,2.35,5.83Z"/><path class="cls-14_calling-88 targetColor" d="M294.59,38.09s-3.55,2.87-5.71,2.08-5.85,4.01-5.85,4.01c0,0-1.14,1.94,1.38,2.88,2.83,1.01,5.95.83,8.65-.49,4.6-2.33,9.88-9.02,11.85-10.99,4.34-4.42,3.37-14.42-1.55-15.01s-4.1,4.99-3.93,5.25c.34.23.7.42,1.07.58,1.1.49,1.59,1.78,1.11,2.88h0c-.04.09-.09.17-.14.26-1.83,2.92-5.03,7.79-6.89,8.55Z" style="fill: rgb(104, 225, 253);"/><path class="cls-8_calling-88" d="M294.59,38.09s-3.55,2.87-5.71,2.08-5.85,4.01-5.85,4.01c0,0-1.14,1.94,1.38,2.88,2.83,1.01,5.95.83,8.65-.49,4.6-2.33,9.88-9.02,11.85-10.99,4.34-4.42,3.37-14.42-1.55-15.01s-4.1,4.99-3.93,5.25c.34.23.7.42,1.07.58,1.1.49,1.59,1.78,1.11,2.88h0c-.04.09-.09.17-.14.26-1.83,2.92-5.03,7.79-6.89,8.55Z"/><path class="cls-13_calling-88" d="M234.64,196.63c-.13.25-.19.52-.17.8.1.38.42.66.8.73.38.06.77.04,1.14-.06,2.46-.38,5.03-.49,7.01-2,1.98-1.51,4.44-5.34,2.72-7.36,0-.2-6.71,0-7.44.53-1.9,1.34-3.16,5.26-4.06,7.35Z"/><path class="cls-14_calling-88 targetColor" d="M231.75,201.08l2.89-4.45s6.65,3.28,10.5-3.66c1.97-3.57,1.01-4.19,1.01-4.19,0,0,2.33.52,2.71,4.74.22,2.52.22,5.05,0,7.56l-1.74.96-.94-3.81s-4.44,6.02-5.83,8.06c-.71,1.05-4.01,1.84-6.98,2.36-1.68.29-3.28-.84-3.57-2.52,0,0,0,0,0,0h0c-.11-.63-.02-1.29.26-1.87.47-.93,1.02-1.97,1.68-3.18Z" style="fill: rgb(104, 225, 253);"/><path class="cls-13_calling-88" d="M267.68,197.03c-.11.25-.15.53-.1.8.12.35.43.59.8.63.36.03.72,0,1.07-.12,2.29-.5,5.04-1.07,6.81-2.61s3.1-5.3,1.78-6.76c0-.18-6.31.4-6.97.94-1.78,1.4-2.73,5.13-3.38,7.12Z"/><path class="cls-14_calling-88 targetColor" d="M265.2,201.41l2.48-4.38s6.41,2.69,9.62-4.05c1.6-3.47.71-4.01.71-4.01,0,0,2.22.36,2.82,4.3.36,2.35.51,4.73.44,7.11l-1.6,1.01-1.11-3.55s-3.81,5.95-4.98,7.92c-.6,1.03-3.64,1.97-6.41,2.64-1.56.39-3.14-.55-3.53-2.11h0c-.16-.63-.1-1.29.16-1.88.38-.8.84-1.81,1.4-2.99Z" style="fill: rgb(104, 225, 253);"/><path class="cls-6_calling-88" d="M231.75,201.08l2.89-4.45s6.65,3.28,10.5-3.66c1.97-3.57,1.01-4.19,1.01-4.19,0,0,2.33.52,2.71,4.74.22,2.52.22,5.05,0,7.56l-1.74.96-.94-3.81s-4.44,6.02-5.83,8.06c-.71,1.05-4.01,1.84-6.98,2.36-1.68.29-3.28-.84-3.57-2.52,0,0,0,0,0,0h0c-.11-.63-.02-1.29.26-1.87.47-.93,1.02-1.97,1.68-3.18Z"/><path class="cls-7_calling-88" d="M265.2,201.41l2.48-4.38s6.41,2.69,9.62-4.05c1.6-3.47.71-4.01.71-4.01,0,0,2.22.36,2.82,4.3.36,2.35.51,4.73.44,7.11l-1.6,1.01-1.11-3.55s-3.81,5.95-4.98,7.92c-.6,1.03-3.64,1.97-6.41,2.64-1.56.39-3.14-.55-3.53-2.11h0c-.16-.63-.1-1.29.16-1.88.38-.8.84-1.81,1.4-2.99Z"/><path class="cls-13_calling-88" d="M286.51,59.34s12.77,38.02,27.37,23.75c2.83-2.76-8.41-43.14-9-44.07s.8-7.21-.59-8.37c-1.06-.84-2.23-1.53-3.48-2.06,0,0-1.97.32-1.9,1.66.07,1.34-1.89,2.53-2.29,3.48s-2.49,3.85-2.16,5.05c.46,1.36,1.08,2.66,1.85,3.88.3.31,5.5,24.15,5.5,24.15,0,0-4.93-18.29-10.71-16.83-5.79,1.47-4.58,9.37-4.58,9.37Z"/></g></svg>