<svg version="1.1" id="Layer_1" xmlns="http://www.w3.org/2000/svg" xmlns:xlink="http://www.w3.org/1999/xlink" x="0px" y="0px" viewBox="0 0 500 500" style="width: 166px;" xml:space="preserve" data-imageid="career-53" imageName="Career" class="illustrations_image">
<style type="text/css">
	.st0_career-53{fill:#FFFFFF;}
	.st1_career-53{fill:#231F20;}
	.st2_career-53{fill:#D1D3D4;}
	.st3_career-53{fill:#68E1FD;}
	.st4_career-53{fill:none;}
</style>
<g id="Character_Male_career-53">
	<path class="st0_career-53" d="M65.9,270.7l39,13.9c2.2,0.8,3.3,3.2,2.6,5.4l-8,22.5c-0.8,2.2-3.2,3.3-5.4,2.6l-39-13.9&#10;&#9;&#9;c-2.2-0.8-3.3-3.2-2.6-5.4l8-22.5C61.3,271,63.7,269.9,65.9,270.7z"/>
	<path class="st1_career-53" d="M95.5,316.2c-0.6,0-1.1-0.1-1.7-0.3l0,0l-39-14c-2.6-0.9-3.9-3.8-3-6.4c0,0,0,0,0,0l8-22.5&#10;&#9;&#9;c0.9-2.6,3.8-4,6.4-3.1c0,0,0,0,0,0l39,14c2.6,0.9,3.9,3.8,3,6.4c0,0,0,0,0,0l-8,22.5C99.5,314.8,97.6,316.2,95.5,316.2z&#10;&#9;&#9; M94.3,314.4c1.8,0.6,3.8-0.3,4.4-2.1l8-22.5c0.6-1.8-0.3-3.8-2.1-4.4c0,0,0,0,0,0l-39-14c-1.8-0.6-3.8,0.3-4.4,2.1c0,0,0,0,0,0&#10;&#9;&#9;l-8,22.5c-0.6,1.8,0.3,3.8,2.1,4.4L94.3,314.4L94.3,314.4z"/>
	<path class="st2_career-53" d="M101.1,293.3c-0.1,0-0.2,0-0.3,0L63.6,280c-0.4-0.1-0.7-0.5-0.6-1c0.1-0.4,0.5-0.7,1-0.6c0.1,0,0.1,0,0.1,0.1&#10;&#9;&#9;l37.2,13.3c0.4,0.1,0.6,0.6,0.5,1C101.7,293.1,101.4,293.3,101.1,293.3z"/>
	
		<rect x="78.1" y="285.3" transform="matrix(0.3331 -0.9429 0.9429 0.3331 -215.8166 268.4235)" class="st2_career-53" width="7.4" height="3.1"/>
	<path class="st1_career-53" d="M94.1,281.6c-0.1,0-0.2,0-0.3,0l-17.4-6.2c-0.4-0.1-0.6-0.6-0.5-1l1.2-3.3c0.7-2.1,3-3.1,5.1-2.4l11.3,4&#10;&#9;&#9;c2.1,0.7,3.1,3,2.4,5.1l-1.2,3.3C94.7,281.3,94.4,281.6,94.1,281.6z M77.7,274.1l15.9,5.7l0.9-2.6c0.4-1.2-0.2-2.6-1.4-3.1&#10;&#9;&#9;c0,0,0,0,0,0l-11.3-4c-1.3-0.4-2.6,0.2-3.1,1.5L77.7,274.1z"/>
	<path class="st0_career-53" d="M217.2,170.3c0,0,7.3-2.8,7.7-4.4s-1.2-4.7-1.2-4.7s8.3-6.4,7.1-7.6s-21.2,10.7-21.2,10.7"/>
	<path class="st1_career-53" d="M217.2,171.1c-0.3,0-0.6-0.2-0.7-0.5c-0.1-0.4,0.1-0.8,0.4-1c3.6-1.4,7-3.2,7.2-3.9c0.2-1-0.6-3-1.2-4.1&#10;&#9;&#9;c-0.2-0.3-0.1-0.8,0.2-1c2.8-2.2,5.9-4.9,6.7-6.2c-2.6,0.7-11.8,5.7-20,10.6c-0.4,0.2-0.9,0.1-1.1-0.3c-0.2-0.4-0.1-0.9,0.3-1.1&#10;&#9;&#9;c20.5-12.2,21.7-11,22.2-10.5c0.3,0.3,0.4,0.6,0.4,1c-0.1,1.8-4.6,5.5-7,7.4c0.5,1,1.4,3.2,1,4.6c-0.5,1.9-5.9,4.1-8.2,5&#10;&#9;&#9;C217.4,171.1,217.3,171.1,217.2,171.1z"/>
	<path class="st0_career-53" d="M97.3,260.7c0,0-1.2,3.2-1.8,5.6c-0.4,2.2-0.5,4.5-0.4,6.8c-0.6-0.6-1.6-0.7-2.2-1.3c0,1-0.1,1.9-0.4,2.9&#10;&#9;&#9;c-0.3,0.9-1.1,1.6-2,1.9c-0.5,0.1-1,0-1.5-0.1c-1.8-0.4-4.8-1.2-5.4-3.3c-0.2-0.8-0.1-1.7,0.2-2.4c1-3.3,6.3-12,7.2-13.4"/>
	<path class="st1_career-53" d="M89.9,277.4c-0.4,0-0.8-0.1-1.2-0.2c-1.6-0.4-5.3-1.2-6-3.9c-0.2-1-0.1-2,0.3-2.9c1.2-3.6,7.2-13.5,7.2-13.6&#10;&#9;&#9;c0.2-0.4,0.7-0.5,1.1-0.3c0.4,0.2,0.5,0.7,0.3,1.1c-1.6,2.5-6.2,10.3-7.1,13.2c-0.3,0.6-0.3,1.3-0.2,2c0.5,1.8,3.6,2.5,4.8,2.7&#10;&#9;&#9;c0.4,0.1,0.8,0.2,1.2,0.1c0.7-0.2,1.2-0.7,1.4-1.4c0.3-0.8,0.4-1.7,0.4-2.6c0-0.4,0.4-0.8,0.8-0.8c0.2,0,0.3,0.1,0.5,0.2&#10;&#9;&#9;c0.3,0.2,0.5,0.3,0.8,0.4h0.1c0-1.9,0.1-3.7,0.5-5.5c0.6-2.4,1.8-5.5,1.8-5.7c0.2-0.4,0.6-0.6,1-0.5c0.4,0.1,0.6,0.6,0.5,1&#10;&#9;&#9;c0,0-1.2,3.2-1.8,5.5c-0.4,2.2-0.5,4.3-0.4,6.5c0,0.4-0.3,0.8-0.8,0.8c-0.2,0-0.4-0.1-0.6-0.2c-0.3-0.2-0.6-0.4-1-0.5l0,0&#10;&#9;&#9;c0,0.6-0.2,1.3-0.4,1.9c-0.4,1.2-1.4,2.1-2.6,2.4C90.3,277.4,90.1,277.4,89.9,277.4z"/>
	<path class="st3_career-53 targetColor" d="M136.5,216.4c-0.9,0.5-34.2,40.3-38.7,48.3l-10.8-5.4c0,0,11.1-24.5,36.7-56&#10;&#9;&#9;C134.8,196.3,136.5,216.4,136.5,216.4z" style="fill: rgb(104, 225, 253);"/>
	<path class="st1_career-53" d="M167.3,247.3c0,0,42.9,6.4,43.8,13.5c0.8,7.2-7.5,43.8-7.5,43.8l-18.6-2c0,0,7.2-32,5.3-33.5&#10;&#9;&#9;s-35.3-4.2-35.3-4.2L125,356.5l-18.1-2.8l21-99.2L167.3,247.3z"/>
	<path class="st1_career-53" d="M125,357.3h-0.1l-18.1-2.8c-0.2,0-0.4-0.2-0.5-0.3c-0.1-0.2-0.2-0.4-0.1-0.6l21-99.2c0.1-0.3,0.3-0.6,0.6-0.6&#10;&#9;&#9;l39.3-7.3c0.1,0,0.2,0,0.3,0c0.1,0,10.9,1.6,21.6,4.1c22.2,5.1,22.6,8.9,22.8,10.1c0.8,7.2-7.1,42.6-7.5,44.1&#10;&#9;&#9;c-0.1,0.4-0.5,0.7-0.9,0.6l-18.6-2c-0.2,0-0.4-0.1-0.6-0.3c-0.1-0.2-0.2-0.4-0.1-0.6c3.3-14.8,6.3-31.1,5.5-32.8&#10;&#9;&#9;c-1.5-0.9-21.5-2.8-34.2-3.9l-29.7,91C125.6,357.1,125.3,357.3,125,357.3z M107.8,353.1l16.6,2.5l29.7-90.9&#10;&#9;&#9;c0.1-0.3,0.4-0.6,0.8-0.5c7.9,0.6,33.8,2.8,35.8,4.3s-1.5,18.8-4.8,33.4l17,1.8c1.1-5,8-36.5,7.3-42.9c-0.6-4.8-26.6-10.4-43-12.8&#10;&#9;&#9;l-38.7,7.2L107.8,353.1z"/>
	<path class="st0_career-53" d="M167.3,247.3l-39.4,7.3l9.8-58.1c0,0,19.8-0.7,23.3,1.3S167.3,247.3,167.3,247.3z"/>
	<path class="st1_career-53" d="M127.9,255.4c-0.2,0-0.4-0.1-0.6-0.2c-0.2-0.2-0.3-0.4-0.2-0.7l9.8-58.1c0.1-0.4,0.4-0.6,0.8-0.7&#10;&#9;&#9;c2.1-0.1,20.1-0.7,23.8,1.4s6,38.9,6.6,50.1c0,0.4-0.3,0.7-0.6,0.8l-39.4,7.3L127.9,255.4z M138.4,197.2l-9.5,56.4l37.6-7&#10;&#9;&#9;c-1.3-22.7-3.8-46.7-5.8-48.2C158,196.9,144.2,197.1,138.4,197.2z"/>
	<path class="st3_career-53 targetColor" d="M144.4,192.5c-0.6,0.4,1.1,8.8,1.2,9.6c0.9,7.1,2.1,14.4,2.7,21.5c1.3,14.1-7.1,29-13.2,41.1&#10;&#9;&#9;c-0.8,1.6-1.7,3.3-3.4,4.1c-1.2,0.4-2.5,0.6-3.8,0.3c-5.4-0.6-10.7-2.3-15.4-5.1c-0.7-0.3-1.2-0.8-1.6-1.4c-0.5-1,0-2.3,0.4-3.4&#10;&#9;&#9;c6.2-13.8,6.5-35.5,8.5-50.5C133.6,193.8,134.9,198.6,144.4,192.5z" style="fill: rgb(104, 225, 253);"/>
	<path class="st3_career-53 targetColor" d="M171.6,186.2c0.2,0,1.2,24.6,1.3,25.6c0.6,7.5-2.6,23.5-6.2,29.9c0.2-8.1-4-18.6-7.5-25.7&#10;&#9;&#9;c-1.7-3.5-2.1-11-2.4-14.9c0-0.4-1.1-8.9-1.3-8.9C155.5,192.2,165.3,185,171.6,186.2z" style="fill: rgb(104, 225, 253);"/>
	<path class="st1_career-53" d="M152.4,202.5l-3,2.9l2.4,1.7c0,0-2.6,19-11.5,21.7s-12.5,1.8-12.5,1.8l-4.9,6.4c0,0,7.7,2.2,8.2,2.4&#10;&#9;&#9;s16.8-3.6,19.4-13.7c1.5-6,2.5-12,3-18.1l1.6-2L152.4,202.5z"/>
	<path class="st1_career-53" d="M142.5,222.1c-0.2,0-0.5-0.1-0.6-0.3l-7.6-10.3c-0.2-0.3-0.2-0.7,0.1-1l4.2-4.4l-5.2-1.4&#10;&#9;&#9;c-0.3-0.1-0.5-0.3-0.6-0.6c-0.1-0.3,0-0.6,0.2-0.8l6.9-7.4c0.3-0.3,0.8-0.3,1.1,0c0,0,0,0,0,0c0.3,0.3,0.3,0.8,0,1.1l-6,6.5&#10;&#9;&#9;l5.3,1.4c0.4,0.1,0.7,0.5,0.6,1c0,0.1-0.1,0.2-0.2,0.3l-4.7,4.8l7.2,9.8c0.3,0.4,0.2,0.8-0.2,1.1&#10;&#9;&#9;C142.9,222,142.7,222.1,142.5,222.1L142.5,222.1z"/>
	<path class="st1_career-53" d="M121.6,258.1c-0.4,0-0.8-0.4-0.8-0.8c0-0.3,0.2-0.6,0.5-0.7c4.5-1.9,12.7-5.5,12.7-5.5c0.4-0.2,0.9,0,1,0.4&#10;&#9;&#9;s0,0.9-0.4,1c-0.1,0-8.3,3.7-12.8,5.5C121.8,258.1,121.7,258.1,121.6,258.1z"/>
	<path class="st3_career-53 targetColor" d="M159.2,189.9l52.8-28.7l9.3,9.3l-54,34.9L159.2,189.9z" style="fill: rgb(104, 225, 253);"/>
	<path class="st1_career-53" d="M172.6,208.2L172.6,208.2c-0.5,0-0.8-0.4-0.8-0.9c0-0.1,1-12.6-1.8-17.1c-0.3-0.4-0.2-0.8,0.2-1.1&#10;&#9;&#9;c0.4-0.3,0.8-0.2,1.1,0.2c0,0,0,0,0,0.1c3.1,4.9,2.1,17.5,2,18C173.4,207.9,173.1,208.2,172.6,208.2z"/>
	<path class="st1_career-53" d="M162.7,214.7c-0.1,0-0.2,0-0.3,0c-0.4-0.1-0.6-0.6-0.5-1l4.3-11.9l-5.2-1.2c-0.3-0.1-0.5-0.2-0.6-0.5&#10;&#9;&#9;c-0.1-0.2-0.1-0.5,0.1-0.7l3.4-5.4l-4.4-0.9c-0.4-0.1-0.7-0.5-0.6-0.9c0.1-0.4,0.5-0.7,0.9-0.6c0,0,0,0,0,0l5.6,1.1&#10;&#9;&#9;c0.3,0.1,0.5,0.2,0.6,0.5c0.1,0.2,0.1,0.5-0.1,0.7l-3.4,5.5l4.9,1.2c0.4,0.1,0.7,0.5,0.6,1c0,0,0,0,0,0l-4.6,12.7&#10;&#9;&#9;C163.3,214.5,163,214.7,162.7,214.7z"/>
	<path class="st0_career-53" d="M186.9,302.7l-3.2,10.8l32.6,0.6c-1.7-7.2-12.7-9.4-12.7-9.4"/>
	<path class="st1_career-53" d="M216.3,314.8L216.3,314.8l-32.6-0.6c-0.4,0-0.8-0.4-0.8-0.8c0-0.1,0-0.1,0-0.2l3.2-10.8&#10;&#9;&#9;c0.1-0.4,0.5-0.7,0.9-0.6c0.4,0.1,0.7,0.5,0.6,0.9c0,0,0,0.1,0,0.1l-2.9,9.8l30.5,0.5c-2.3-5.9-11.7-7.8-11.8-7.8&#10;&#9;&#9;c-0.4-0.1-0.7-0.5-0.6-0.9s0.5-0.7,0.9-0.6c0.5,0.1,11.6,2.4,13.3,10c0,0.2,0,0.5-0.2,0.7C216.7,314.7,216.5,314.8,216.3,314.8z"/>
	<path class="st0_career-53" d="M145.6,190.8c-7.5,2.6-12.3-10.3-13.5-16c-0.3-1.2-0.4-2.5-0.2-3.8c0.6-2.4,2.2-4.5,4.4-5.6&#10;&#9;&#9;c2.2-1.1,4.5-2.1,6.8-2.9c5.1-2.1,9.6-5.6,13-9.9c1.2-1.5,2.5-3.2,4.4-3.2c1.2,0.1,2.3,0.7,3,1.7c1.7,2.3,2.1,5.4,1,8.1&#10;&#9;&#9;c-1.1,2.8-3.2,4.5-5.4,6.4c1.5,1.7,2.1,2.1,2,4.3c-0.2,2.1-0.8,4.1-1.8,6c-1,1.9-2.2,3.8-3.5,5.6c-2.6,3.9-5.3,7.6-9.9,9.4&#10;&#9;&#9;L145.6,190.8z"/>
	<path class="st1_career-53" d="M143.7,192c-1.2,0-2.3-0.3-3.3-0.9c-5.1-2.9-8.1-11.8-9-16.1c-0.3-1.3-0.4-2.7-0.2-4.1&#10;&#9;&#9;c0.6-3.2,3.3-5.2,4.8-6.1c1.5-0.8,3.1-1.5,4.7-2.1c0.7-0.3,1.4-0.5,2.1-0.8c5-2.1,9.4-5.4,12.7-9.7c1.3-1.6,2.8-3.5,5-3.5l0,0&#10;&#9;&#9;c1.5,0.1,2.8,0.8,3.6,2c1.9,2.6,2.3,5.9,1.1,8.9c-1,2.7-3,4.5-5,6.1c1.2,1,1.9,2.6,1.7,4.3c-0.2,2.2-0.9,4.3-1.8,6.3&#10;&#9;&#9;c-0.8,1.6-1.7,3.1-2.7,4.5l-0.8,1.2c-2.8,4.2-5.5,7.8-10.2,9.7l-0.4,0.1l0,0C145.2,191.9,144.4,192,143.7,192z M145.7,190.9&#10;&#9;&#9;L145.7,190.9z M160.5,150.2L160.5,150.2c-1.4,0-2.6,1.5-3.7,2.8c-3.5,4.5-8.1,8-13.4,10.2c-0.7,0.3-1.4,0.6-2.2,0.9&#10;&#9;&#9;c-1.6,0.5-3.1,1.2-4.5,2c-2,1-3.5,2.9-4.1,5.1c-0.1,1.2-0.1,2.4,0.2,3.5c1,4.7,4,12.7,8.2,15c1.3,0.8,2.8,0.9,4.2,0.4l0.4-0.1&#10;&#9;&#9;c4.3-1.7,6.8-5,9.5-9.1l0.8-1.2c1-1.3,1.9-2.8,2.6-4.3c0.9-1.8,1.5-3.7,1.7-5.7c0.1-1.6-0.2-1.9-1.3-3.1l-0.6-0.6&#10;&#9;&#9;c-0.1-0.2-0.2-0.4-0.2-0.6c0-0.2,0.1-0.4,0.3-0.5l0.4-0.3c2-1.7,3.9-3.3,4.8-5.7c1-2.4,0.7-5.2-0.9-7.3&#10;&#9;&#9;C162.3,150.7,161.4,150.2,160.5,150.2L160.5,150.2z"/>
	<path class="st0_career-53" d="M161.2,176.4c0,0,3.9,5.2,3.3,6.4s-3.2,0.6-3.2,0.6"/>
	<path class="st1_career-53" d="M162.6,184.3c-0.5,0-1-0.1-1.5-0.2c-0.4-0.1-0.7-0.5-0.6-0.9c0,0,0,0,0-0.1c0.1-0.4,0.5-0.7,0.9-0.6&#10;&#9;&#9;c0.8,0.2,2.1,0.2,2.3-0.2c0.1-0.5-1.4-3.1-3.2-5.5c-0.3-0.3-0.2-0.9,0.1-1.1c0.3-0.3,0.9-0.2,1.1,0.1l0,0c1.9,2.6,4.1,5.9,3.3,7.2&#10;&#9;&#9;C164.6,183.9,163.6,184.3,162.6,184.3z"/>
	<path class="st0_career-53" d="M159.4,164.5c2.4,1.7,2.6,10.4,2.8,13c0.2,3.6,0.3,7.2,0.4,10.8c0,2.3-5.9,2.7-6.9,2.1l1.5,8.9&#10;&#9;&#9;c0,0-2.8,1-7.7-0.9s-5-3-5-3l-0.3-10.5c0,0,3.9-0.2,5.9-5s1.4-11.9,1.4-11.9S157,162.9,159.4,164.5z"/>
	<path class="st1_career-53" d="M155,200.4c-2,0-4.1-0.5-5.9-1.2c-4.7-1.8-5.5-3.1-5.5-3.7l-0.2-10.5c0-0.4,0.3-0.8,0.8-0.8&#10;&#9;&#9;c0.1,0,3.4-0.3,5.2-4.5c1.9-4.6,1.4-11.5,1.4-11.6c0-0.2,0.1-0.5,0.2-0.6c1-0.9,6.2-5.5,8.9-3.6l0,0c2.2,1.6,2.8,7.4,3.1,12.9v0.7&#10;&#9;&#9;c0.2,3.6,0.3,7.2,0.4,10.8c0,0.9-0.6,1.7-1.4,2.1c-1.7,0.8-3.5,1.1-5.4,1l1.3,7.8c0.1,0.4-0.2,0.8-0.5,0.9&#10;&#9;&#9;C156.5,200.3,155.8,200.4,155,200.4z M145.1,195.2c0.2,0.2,1,1.1,4.5,2.5c2,0.9,4.3,1.2,6.5,1.1l-1.4-8.2c-0.1-0.3,0.1-0.6,0.3-0.8&#10;&#9;&#9;c0.3-0.2,0.6-0.2,0.8,0c1.8,0.3,3.6,0.1,5.2-0.7c0.4-0.2,0.6-0.5,0.6-0.7c0-3.6-0.2-7.2-0.4-10.8v-0.7c-0.1-2.6-0.5-10.3-2.4-11.7&#10;&#9;&#9;c-1.2-0.9-4.6,1.3-6.6,3.2c0.1,1.6,0.3,7.6-1.5,11.9c-0.9,2.6-3.1,4.7-5.8,5.4L145.1,195.2z"/>
	<path class="st0_career-53" d="M162.2,185.6c-2,0.6-4.2-0.5-5-2.4"/>
	<path class="st1_career-53" d="M161.2,186.6c-2,0-3.8-1.2-4.6-3c-0.2-0.4-0.1-0.9,0.2-1.1c0.4-0.2,0.9-0.1,1.1,0.2c0,0,0,0.1,0.1,0.1&#10;&#9;&#9;c0.7,1.6,2.4,2.4,4,2c0.4-0.1,0.9,0.1,1,0.5c0,0,0,0,0,0c0.1,0.4-0.1,0.9-0.5,1C162,186.5,161.6,186.6,161.2,186.6z"/>
	<path class="st0_career-53" d="M154.5,179.1c-0.2-0.9-0.6-1.7-1.2-2.4c-0.4-0.6-0.9-1.1-1.4-1.6c-0.6-0.5-1.3-0.6-2-0.5&#10;&#9;&#9;c-0.6,0.2-1.1,0.6-1.3,1.2c-0.2,0.6-0.4,1.2-0.3,1.8c0.1,2.8,1.6,5.3,4,6.6l-0.2-0.2"/>
	<path class="st1_career-53" d="M152.2,185.1c-0.1,0-0.2,0-0.3-0.1c-2.7-1.5-4.4-4.2-4.4-7.3c0-0.7,0.1-1.5,0.4-2.1c0.3-0.8,1-1.4,1.9-1.6&#10;&#9;&#9;c0.9-0.2,1.9,0,2.6,0.6c0.6,0.5,1.1,1.1,1.6,1.7c0.7,0.8,1.2,1.8,1.3,2.8c0,0.4-0.3,0.8-0.7,0.8c0,0,0,0,0,0&#10;&#9;&#9;c-0.4,0-0.8-0.3-0.9-0.7c-0.1-0.7-0.5-1.4-1-2c-0.3-0.5-0.8-1-1.2-1.4c-0.4-0.3-0.8-0.4-1.3-0.3c-0.4,0.1-0.7,0.4-0.8,0.8&#10;&#9;&#9;c-0.2,0.5-0.3,1-0.3,1.5c0.1,2.3,1.2,4.4,3.2,5.7c0.1,0,0.3,0.1,0.4,0.2c0.3,0.3,0.4,0.8,0.2,1.1&#10;&#9;&#9;C152.7,184.9,152.4,185.1,152.2,185.1z"/>
	<path class="st1_career-53" d="M155.6,190.4c-1.8-0.4-3.4-1.4-4.7-2.8c0,0,0.6,5.5,5.3,6.8L155.6,190.4z"/>
	<path class="st1_career-53" d="M156.2,195.2H156c-5.3-1.4-5.9-7.2-5.9-7.4c0-0.4,0.2-0.7,0.5-0.8c0.3-0.1,0.7,0,0.9,0.2&#10;&#9;&#9;c1.1,1.2,2.6,2.1,4.2,2.5c0.3,0.1,0.5,0.3,0.6,0.6l0.7,4c0,0.3,0,0.5-0.2,0.7C156.6,195.1,156.4,195.2,156.2,195.2z M152.3,189.9&#10;&#9;&#9;c0.6,1.4,1.6,2.5,2.9,3.3l-0.4-2.1C154,190.8,153.1,190.4,152.3,189.9z"/>
	<ellipse transform="matrix(0.1031 -0.9947 0.9947 0.1031 -30.4689 314.2833)" class="st1_career-53" cx="159" cy="174" rx="1.3" ry="0.5"/>
	<line class="st4_career-53" x1="160.1" y1="172.9" x2="157.5" y2="171.9"/>
	<path class="st1_career-53" d="M160.1,173.7c-0.1,0-0.2,0-0.3,0l-2.6-1c-0.4-0.2-0.6-0.6-0.5-1c0.2-0.4,0.6-0.6,1-0.5l0,0l2.6,1&#10;&#9;&#9;c0.4,0.2,0.6,0.6,0.5,1C160.7,173.5,160.4,173.7,160.1,173.7z"/>
	<line class="st4_career-53" x1="111.7" y1="244" x2="129.6" y2="223.9"/>
	<path class="st1_career-53" d="M111.7,244.8c-0.2,0-0.4-0.1-0.5-0.2c-0.3-0.3-0.4-0.8-0.1-1.1l17.9-20.2c0.2-0.4,0.7-0.5,1.1-0.3&#10;&#9;&#9;c0.4,0.2,0.5,0.7,0.3,1.1c-0.1,0.1-0.1,0.2-0.2,0.2l-17.8,20.2C112.2,244.7,112,244.8,111.7,244.8z"/>
	<path class="st0_career-53" d="M107.5,349.2l-3.2,10.8l32.6,0.5c-1.7-7.2-12.7-9.4-12.7-9.4"/>
	<path class="st1_career-53" d="M136.9,361.4L136.9,361.4l-32.6-0.5c-0.2,0-0.5-0.1-0.6-0.3c-0.2-0.2-0.2-0.5-0.1-0.7l3.2-10.8&#10;&#9;&#9;c0.1-0.4,0.6-0.7,1-0.5c0,0,0,0,0,0c0.4,0.1,0.7,0.6,0.5,1c0,0,0,0,0,0l-2.9,9.8l30.5,0.5c-2.3-5.9-11.7-7.8-11.8-7.8&#10;&#9;&#9;c-0.4-0.1-0.7-0.5-0.6-0.9c0.1-0.4,0.5-0.7,0.9-0.6c0,0,0,0,0,0c0.5,0.1,11.6,2.4,13.3,10c0.1,0.2,0,0.5-0.1,0.7&#10;&#9;&#9;C137.4,361.3,137.2,361.4,136.9,361.4z"/>
</g>
<g id="Steps_career-53">
	<polygon class="st0_career-53" points="358.5,173.9 358.5,220.5 292,220.5 292,267.2 292,267.2 225.4,267.2 225.4,313.8 225.4,313.8 &#10;&#9;&#9;225.4,313.8 225.4,313.8 158.8,313.8 158.8,360.5 92.2,360.5 92.2,407.1 447.8,407.1 447.8,173.9 &#9;"/>
	<path class="st1_career-53" d="M447.8,408H92.2c-0.4,0-0.8-0.4-0.8-0.8v-46.7c0-0.4,0.4-0.8,0.8-0.8H158v-45.8c0-0.4,0.4-0.8,0.8-0.8h65.8&#10;&#9;&#9;v-45.8c0-0.5,0.4-0.8,0.8-0.8h0h65.8v-45.8c0-0.4,0.4-0.8,0.8-0.8h65.8v-45.8c0-0.4,0.4-0.8,0.8-0.8h89.3c0.4,0,0.8,0.4,0.8,0.8&#10;&#9;&#9;v233.3C448.6,407.6,448.3,408,447.8,408C447.8,408,447.8,408,447.8,408z M93.1,406.3H447V174.7h-87.7v45.8c0,0.4-0.4,0.8-0.8,0.8&#10;&#9;&#9;h-65.8v45.8c0,0.5-0.4,0.8-0.8,0.8l0,0h-65.7v45.8c0,0.4-0.4,0.8-0.8,0.8h-65.8v45.8c0,0.4-0.4,0.8-0.8,0.8c0,0,0,0,0,0H93.1V406.3&#10;&#9;&#9;z"/>
	<rect x="285.7" y="369.3" class="st1_career-53" width="32.3" height="37.8"/>
	<path class="st1_career-53" d="M318.1,407.9h-32.3c-0.4,0-0.8-0.3-0.8-0.8v-37.8c0-0.4,0.4-0.8,0.8-0.8c0,0,0,0,0,0h32.3&#10;&#9;&#9;c0.4,0,0.8,0.4,0.8,0.8c0,0,0,0,0,0v37.8C318.9,407.6,318.5,407.9,318.1,407.9C318.1,407.9,318.1,407.9,318.1,407.9z M286.5,406.4&#10;&#9;&#9;h30.8v-36.3h-30.8V406.4z"/>
	<path class="st2_career-53" d="M211.4,378.2h-23.7c-0.4,0-0.8-0.4-0.8-0.8l0,0v-22.6c0-0.4,0.4-0.8,0.8-0.8h23.7c0.4,0,0.8,0.4,0.8,0.8l0,0&#10;&#9;&#9;v22.6C212.2,377.9,211.9,378.2,211.4,378.2L211.4,378.2z M188.6,376.7h22.1v-21h-22.1V376.7z"/>
	<path class="st2_career-53" d="M262.6,378.2h-23.7c-0.4,0-0.8-0.4-0.8-0.8l0,0v-22.6c0-0.4,0.4-0.8,0.8-0.8h23.7c0.4,0,0.8,0.4,0.8,0.8&#10;&#9;&#9;c0,0,0,0,0,0v22.6C263.4,377.9,263,378.2,262.6,378.2C262.6,378.2,262.6,378.2,262.6,378.2z M239.7,376.7h22.1v-21h-22.1&#10;&#9;&#9;L239.7,376.7z"/>
	<path class="st2_career-53" d="M364.9,378.2h-23.7c-0.4,0-0.8-0.4-0.8-0.8c0,0,0,0,0,0v-22.6c0-0.4,0.4-0.8,0.8-0.8h23.7&#10;&#9;&#9;c0.4,0,0.8,0.4,0.8,0.8c0,0,0,0,0,0v22.6C365.7,377.9,365.3,378.2,364.9,378.2C364.9,378.2,364.9,378.2,364.9,378.2z M342,376.7&#10;&#9;&#9;h22.1v-21H342V376.7z"/>
	<path class="st2_career-53" d="M416,378.2h-23.6c-0.4,0-0.8-0.4-0.8-0.8c0,0,0,0,0,0v-22.6c0-0.4,0.4-0.8,0.8-0.8H416c0.4,0,0.8,0.4,0.8,0.8&#10;&#9;&#9;c0,0,0,0,0,0v22.6C416.8,377.9,416.4,378.2,416,378.2C416,378.2,416,378.2,416,378.2z M393.1,376.7h22.1v-21h-22L393.1,376.7z"/>
	<path class="st2_career-53" d="M364.9,331.7h-23.7c-0.4,0-0.8-0.4-0.8-0.8v-22.6c0-0.4,0.4-0.8,0.8-0.8c0,0,0,0,0,0h23.7&#10;&#9;&#9;c0.4,0,0.8,0.4,0.8,0.8c0,0,0,0,0,0v22.6C365.7,331.4,365.3,331.7,364.9,331.7C364.9,331.7,364.9,331.7,364.9,331.7z M342,330.1&#10;&#9;&#9;h22.1v-21H342V330.1z"/>
	<path class="st2_career-53" d="M416,331.7h-23.6c-0.4,0-0.8-0.4-0.8-0.8v-22.6c0-0.4,0.4-0.8,0.8-0.8c0,0,0,0,0,0H416c0.4,0,0.8,0.4,0.8,0.8&#10;&#9;&#9;c0,0,0,0,0,0v22.6C416.8,331.4,416.4,331.7,416,331.7C416,331.7,416,331.7,416,331.7z M393.1,330.1h22.1v-21h-22L393.1,330.1z"/>
	<path class="st2_career-53" d="M262.6,331.7h-23.7c-0.4,0-0.8-0.4-0.8-0.8v-22.6c0-0.4,0.4-0.8,0.8-0.8l0,0h23.7c0.4,0,0.8,0.4,0.8,0.8&#10;&#9;&#9;c0,0,0,0,0,0v22.6C263.4,331.4,263,331.7,262.6,331.7C262.6,331.7,262.6,331.7,262.6,331.7z M239.7,330.1h22.1v-21h-22.1&#10;&#9;&#9;L239.7,330.1z"/>
	<path class="st2_career-53" d="M313.7,331.7h-23.7c-0.4,0-0.8-0.4-0.8-0.8v-22.6c0-0.4,0.4-0.8,0.8-0.8c0,0,0,0,0,0h23.7&#10;&#9;&#9;c0.4,0,0.8,0.4,0.8,0.8c0,0,0,0,0,0v22.6C314.5,331.4,314.2,331.7,313.7,331.7C313.7,331.7,313.7,331.7,313.7,331.7z M290.9,330.1&#10;&#9;&#9;H313v-21h-22.1V330.1z"/>
	<path class="st2_career-53" d="M364.9,285.2h-23.7c-0.4,0-0.8-0.4-0.8-0.8c0,0,0,0,0,0v-22.5c0-0.4,0.4-0.8,0.8-0.8c0,0,0,0,0,0h23.7&#10;&#9;&#9;c0.4,0,0.8,0.4,0.8,0.8c0,0,0,0,0,0v22.5C365.7,284.8,365.3,285.2,364.9,285.2C364.9,285.2,364.9,285.2,364.9,285.2z M342,283.6&#10;&#9;&#9;h22.1v-21H342V283.6z"/>
	<path class="st2_career-53" d="M416,285.2h-23.6c-0.4,0-0.8-0.4-0.8-0.8c0,0,0,0,0,0v-22.5c0-0.4,0.4-0.8,0.8-0.8c0,0,0,0,0,0H416&#10;&#9;&#9;c0.4,0,0.8,0.4,0.8,0.8c0,0,0,0,0,0v22.5C416.8,284.8,416.4,285.2,416,285.2C416,285.2,416,285.2,416,285.2z M393.1,283.6h22.1v-21&#10;&#9;&#9;h-22L393.1,283.6z"/>
</g>
<g id="Flag_career-53">
	<path class="st3_career-53 targetColor" d="M346.3,120.4c29.2,19.8,43.2-14,58.3,7.7V97C377.6,83,380.8,114.1,346.3,120.4z" style="fill: rgb(104, 225, 253);"/>
	<path class="st1_career-53" d="M404.6,173.8c-0.5,0-0.8-0.4-0.8-0.8v0V92.9c0-0.5,0.5-0.8,0.9-0.7c0.4,0,0.7,0.3,0.7,0.7v80.1&#10;&#9;&#9;C405.5,173.4,405.1,173.8,404.6,173.8z"/>
	<rect x="386.4" y="164.2" class="st0_career-53" width="33.8" height="9.7"/>
	<path class="st1_career-53" d="M420.2,174.7h-33.8c-0.5,0-0.8-0.4-0.8-0.8v0v-9.7c0-0.4,0.4-0.8,0.8-0.8h33.8c0.4,0,0.8,0.4,0.8,0.8v9.7&#10;&#9;&#9;C421,174.3,420.6,174.7,420.2,174.7L420.2,174.7z M387.2,173.1h32.2v-8h-32.2V173.1z"/>
</g>
</svg>