<svg id="_0510_pie_chart_1" data-name="0510_pie_chart_1" xmlns="http://www.w3.org/2000/svg" xmlns:xlink="http://www.w3.org/1999/xlink" viewBox="0 0 500 500" data-imageid="chart-1-53-b490a" imageName="Chart 1" class="illustrations_image" style="width: 166px;"><defs><style>.cls-1_chart-1-53-b490a{fill:#dd6f31;}.cls-2_chart-1-53-b490a{fill:url(#linear-gradient);}.cls-3_chart-1-53-b490a{fill:url(#linear-gradient-2-chart-1-53-b490a);}.cls-4_chart-1-53-b490a{fill:url(#linear-gradient-3-chart-1-53-b490a);}.cls-5_chart-1-53-b490a{fill:#68e1fd;}.cls-13_chart-1-53-b490a,.cls-6_chart-1-53-b490a{fill:#606060;}.cls-6_chart-1-53-b490a{opacity:0.26;}.cls-7_chart-1-53-b490a{fill:#edaf24;}.cls-8_chart-1-53-b490a{fill:#ffcb44;}.cls-9_chart-1-53-b490a{fill:#c90180;}.cls-10_chart-1-53-b490a{fill:#f0008d;}.cls-11_chart-1-53-b490a{fill:#fff;}.cls-12_chart-1-53-b490a{fill:#8fdb5e;}.cls-13_chart-1-53-b490a{opacity:0.52;}.cls-14_chart-1-53-b490a{fill:#aa4731;}</style><linearGradient id="linear-gradient-chart-1-53-b490a" x1="188.77" y1="360.62" x2="230.74" y2="309.23" gradientUnits="userSpaceOnUse"><stop offset="0" stop-color="#dd6f31"/><stop offset="0.92" stop-color="#aa4731"/></linearGradient><linearGradient id="linear-gradient-2-chart-1-53-b490a" x1="66.87" y1="313.53" x2="76.75" y2="295.06" xlink:href="#linear-gradient-chart-1-53-b490a"/><linearGradient id="linear-gradient-3-chart-1-53-b490a" x1="395.05" y1="349.96" x2="416.6" y2="333.57" xlink:href="#linear-gradient-chart-1-53-b490a"/></defs><g id="background_chart-1-53-b490a"><path class="cls-1_chart-1-53-b490a" d="M243.27,439.12,19.32,306.76c-7.13-4-13.24-10.58-6.29-14.88L237.79,162.34c3.37-2.09,8.49-3.45,11.92-1.46L484.79,297.31c7.13,4.14,8.41,15.71,1.27,19.85L272.79,438.9A29.78,29.78,0,0,1,243.27,439.12Z"/><path class="cls-2_chart-1-53-b490a" d="M164.32,278.5c-3.91.92-47.71,30.13-47.71,30.13s-1.93,34.53,44.78,58.4,76.06,14.9,76.06,14.9L332,325.54"/><polyline class="cls-3_chart-1-53-b490a" points="51.97 289.98 32.65 299.29 80.23 326.76 108.39 314.14"/><path class="cls-4_chart-1-53-b490a" d="M423,333l-55.23,19.73s-6.71.48,21.07,17l46-32"/></g><g id="data_2_chart-1-53-b490a" data-name="data 2"><ellipse class="cls-5_chart-1-53-b490a targetColor" cx="58.92" cy="292.58" rx="11.96" ry="5.39" style="fill: rgb(104, 225, 253);"/><polyline class="cls-5_chart-1-53-b490a targetColor" points="46.96 292.58 46.96 262.6 70.88 262.6 70.88 292.58 62.12 295.49" style="fill: rgb(104, 225, 253);"/><path class="cls-6_chart-1-53-b490a" d="M47,262.6v30c0,3,5.35,5.39,12,5.39s12-2.42,12-5.39v-30Z"/><ellipse class="cls-5_chart-1-53-b490a targetColor" cx="58.92" cy="262.6" rx="11.96" ry="5.39" style="fill: rgb(104, 225, 253);"/><ellipse class="cls-7_chart-1-53-b490a" cx="76.79" cy="303.36" rx="11.96" ry="5.39"/><polyline class="cls-7_chart-1-53-b490a" points="64.83 303.36 64.83 281.8 88.75 281.8 88.75 303.36 79.99 306.27"/><ellipse class="cls-8_chart-1-53-b490a" cx="76.79" cy="281.8" rx="11.96" ry="5.39"/><ellipse class="cls-9_chart-1-53-b490a" cx="97.84" cy="311.6" rx="11.96" ry="5.39"/><polyline class="cls-9_chart-1-53-b490a" points="85.88 311.6 85.88 298.8 109.8 298.8 109.8 311.6 101.04 314.51"/><ellipse class="cls-10_chart-1-53-b490a" cx="97.84" cy="299.29" rx="11.96" ry="5.39"/></g><g id="data_1_chart-1-53-b490a" data-name="data 1"><path class="cls-5_chart-1-53-b490a targetColor" d="M481.71,267.23V180.77c0-2.87-.4-4.47-2.61-5.68l-117.45-68a1.56,1.56,0,0,0-2.48,1.25l.28,88.9Z" style="fill: rgb(104, 225, 253);"/><ellipse class="cls-11_chart-1-53-b490a" cx="394.05" cy="137.9" rx="5.09" ry="5.72" transform="translate(-22.28 106.87) rotate(-15.02)"/><ellipse class="cls-1_chart-1-53-b490a" cx="381.45" cy="132.22" rx="5.09" ry="5.72" transform="translate(-21.24 103.41) rotate(-15.02)"/><ellipse class="cls-12_chart-1-53-b490a" cx="369.11" cy="126.54" rx="5.09" ry="5.73" transform="translate(-6.55 21.02) rotate(-3.23)"/><path class="cls-11_chart-1-53-b490a" d="M381.34,153.41c7.91-2.51,16.77,3.94,20.17,14.68a24.43,24.43,0,0,1,.37,14.38c-1.45,4.71-4.42,8-8.38,9.25a11.35,11.35,0,0,1-3.46.53,14.32,14.32,0,0,1-8.72-3.25,24.44,24.44,0,0,1-8-12C369.92,166.3,373.44,155.92,381.34,153.41Z"/><path class="cls-1_chart-1-53-b490a" d="M387.41,153.15c.06,0,0,19.91,0,19.91l-14.61-10S375.61,151.08,387.41,153.15Z"/><path class="cls-12_chart-1-53-b490a" d="M387.41,173.06l-14.81,1.23s-1.87-6.4.2-11.19Z"/><path class="cls-11_chart-1-53-b490a" d="M416.7,172.66c7.9-2.51,16.76,3.94,20.17,14.68a24.35,24.35,0,0,1,.36,14.38c-1.44,4.71-4.42,8-8.38,9.25a11.36,11.36,0,0,1-3.46.54,14.31,14.31,0,0,1-8.71-3.26,24.48,24.48,0,0,1-8-12C405.27,185.55,408.79,175.17,416.7,172.66Z"/><path class="cls-1_chart-1-53-b490a" d="M422.76,172.4c.07,0,0,19.91,0,19.91l-14.61-10S411,170.34,422.76,172.4Z"/><path class="cls-12_chart-1-53-b490a" d="M422.76,192.31,408,193.54s-1.87-6.39.19-11.19Z"/><path class="cls-11_chart-1-53-b490a" d="M453.34,192.35c7.91-2.5,16.77,4,20.18,14.69a24.51,24.51,0,0,1,.36,14.38c-1.45,4.7-4.42,8-8.38,9.24a11.36,11.36,0,0,1-3.46.54,14.36,14.36,0,0,1-8.72-3.26,24.48,24.48,0,0,1-8-12C441.92,205.24,445.44,194.86,453.34,192.35Z"/><path class="cls-1_chart-1-53-b490a" d="M459.41,192.09c.06,0,0,19.91,0,19.91l-14.61-9.95S447.61,190,459.41,192.09Z"/><path class="cls-12_chart-1-53-b490a" d="M459.41,212l-14.81,1.23s-1.86-6.39.2-11.18Z"/></g><g id="pie_chart_chart-1-53-b490a" data-name="pie chart"><path class="cls-5_chart-1-53-b490a targetColor" d="M309.44,164.59c-15.34-6.2-34-9.83-54.09-9.83-49.17,0-89.59,21.73-94.23,49.53h0v81.84l94.09,3.63,54.25-42.57v-82.6Z" style="fill: rgb(104, 225, 253);"/><polygon class="cls-5_chart-1-53-b490a targetColor" points="255.97 203.45 254.32 279.37 309.39 238.22 309.44 164.59 255.97 203.45" style="fill: rgb(104, 225, 253);"/><polygon class="cls-13_chart-1-53-b490a" points="255.97 203.45 254.32 279.37 309.39 238.22 309.44 164.59 255.97 203.45"/><polygon class="cls-6_chart-1-53-b490a" points="255.97 203.45 161.12 204.29 160.89 251.55 254.32 279.37 255.97 203.45"/><path class="cls-9_chart-1-53-b490a" d="M271.1,330.53V351.8s26-2,46.44-14.16,25.08-22.69,26.29-32.43c.19-1.57.32-25.84.32-25.84"/><path class="cls-10_chart-1-53-b490a" d="M254.32,279.37l55.07-41.15s32.65,11.16,34.76,41.15-43.3,48.6-73,51.16Z"/><path class="cls-7_chart-1-53-b490a" d="M272.69,290.27v61.41s-38,6.43-76.76-11.33c-27.32-12.52-32.25-27.47-34.79-38.66l0-65"/><path class="cls-8_chart-1-53-b490a" d="M161.12,236.72h94l17.55,53.55s-48.75,6.48-84.83-15.48C156.58,255.75,161.12,236.72,161.12,236.72Z"/></g><g id="plant_chart-1-53-b490a"><path class="cls-12_chart-1-53-b490a" d="M407.56,272.34a11,11,0,0,1,5.29,1,8.63,8.63,0,0,1,3.73,4.26c.81,1.71,1.17,4.15,2.86,5.25a4.88,4.88,0,0,1,1.68,1.45,4.37,4.37,0,0,1,.52,4.06c-.75,1.5-3.88,2.42-5.31,2.15"/><path class="cls-14_chart-1-53-b490a" d="M406.18,272.53a12,12,0,0,0-1.59.27,11.1,11.1,0,0,0-7.42,7.46,13.41,13.41,0,0,0-.07,6.36c.41,1.69,1.41,4.62,3.47,4.75,2.79.17,3.69-2.44,4.57-4.58s1.8-4.5,4-5.34a6,6,0,0,1,6.43,1.45Z"/><path class="cls-12_chart-1-53-b490a" d="M418.92,283.85c-1.68-2.18-3.08-4.56-4.71-6.78a20,20,0,0,0-3.27-3.95c-3.87-1.88-8.75-.16-11.61,3.14.39.12.94.14,1.24.25a11,11,0,0,1,4.44,3.14c1.71,1.9,3.05,4.22,4.56,6.23,2.46,3.28,5.73,6,9.95,4C422.22,288.64,420.1,285.38,418.92,283.85Z"/><path class="cls-14_chart-1-53-b490a" d="M432.59,255.82s8.73-.69,8.56,13.12-13.2,4.73-10.34-3.59"/><path class="cls-12_chart-1-53-b490a" d="M431.33,269.41c-.09-4.2,4.63-7.27,8.61-7.81-.63-2.41-3.08-6.29-7.89-6.17-6,.16-10.46,6.23-11.47,13.39S425,280.5,425,280.5l2.88,2.46C433.17,280.89,431.2,273.24,431.33,269.41Z"/><path class="cls-14_chart-1-53-b490a" d="M455.11,279.29a18.19,18.19,0,0,0-2-7.5,8.24,8.24,0,0,0-5.67-4.4l-4.92,9.47s7.32-12.81,4.33-2.95,6.88,20.92,8.23,6.21Z"/><path class="cls-5_chart-1-53-b490a targetColor" d="M420.37,303.93s-6.57,4.27-4.74,14.27a54.91,54.91,0,0,0,2.91,10.14c1.28,3.25,2.21,7.45,5.49,9.29,3.05,1.7,7.78,2,10.86.14,2.82-1.72,3.82-5.63,4.86-8.54a53.31,53.31,0,0,0,2.52-11C445.37,294,420.37,303.93,420.37,303.93Z" style="fill: rgb(104, 225, 253);"/><ellipse class="cls-14_chart-1-53-b490a" cx="429.22" cy="305.39" rx="9.58" ry="3.47"/><path class="cls-14_chart-1-53-b490a" d="M430,286.93c-1.34-3.23-3.84-5.94-4.63-9.41a12.3,12.3,0,0,1,4.9-12.56c.73-.53,0-1.76-.72-1.23-6.12,4.45-7.3,12-3.74,18.52,1.11,2,2.56,3.93,3.23,6.14.88,2.88-.1,5-1.45,7.13a8.22,8.22,0,0,0-2.13-5.81c-1.59-1.48-3.94-1.72-5.91-2.39-3.82-1.29-7.18-3.47-7.83-7.72-.13-.9-1.5-.52-1.36.37.53,3.48,2.82,6,5.89,7.55a42.57,42.57,0,0,0,5.69,2,6.64,6.64,0,0,1,3.75,3.66c.9,2.09.29,3.51-.22,5.54-.67,2.62-1.71,4.88.09,7.36.53.73,1.76,0,1.23-.71-2.88-4,1.71-7.73,3.26-11.13A8.79,8.79,0,0,0,430,286.93Z"/><path class="cls-14_chart-1-53-b490a" d="M447.67,278.24c-6.05-1.06-10.18,3.63-9.82,9.49a22.14,22.14,0,0,0,.81,4.34c.27,1,1,2.75.8,3.76a5.72,5.72,0,0,1-3.46,4.05c-2.63,1.24-4.32,2.73-5.11,5.61a.71.71,0,0,0,1.37.38c1.4-5.13,8.56-4.39,8.62-10,0-2.75-1.45-5.34-1.61-8.1-.3-4.83,2.85-9,8-8.12C448.19,279.77,448.57,278.4,447.67,278.24Z"/><path class="cls-12_chart-1-53-b490a" d="M453.08,271.79c-2.34-4.33-6.6-5.34-10.79-4.06a14.49,14.49,0,0,0-1.68.82c-10.52,7.79-3.05,25.38-1.43,25.24,5.36-.44,4.81-3.59,6.6-12.41a8.32,8.32,0,0,1,8.37-7.05A14.86,14.86,0,0,0,453.08,271.79Z"/><path class="cls-14_chart-1-53-b490a" d="M450.78,268.92a8.75,8.75,0,0,0-9,4.29c-3.85,6.43-3,13.92-2.45,21,.07.91,1.48.92,1.42,0-.37-5.12-1.1-10.2.3-15.23.68-2.47,1.5-5.22,3.48-7a7.26,7.26,0,0,1,7.91-1.13l-.53-.73C451.55,269.74,451.16,269.33,450.78,268.92Z"/></g></svg>