<svg version="1.1" id="Layer_1" xmlns="http://www.w3.org/2000/svg" xmlns:xlink="http://www.w3.org/1999/xlink" x="0px" y="0px" viewBox="0 0 500 500" style="width: 166px;" xml:space="preserve" data-imageid="chart-2-76" imageName="Chart 2" class="illustrations_image">
<style type="text/css">
	.st0_chart-2-76{fill:#F7B11B;}
	.st1_chart-2-76{fill:url(#SVGID_1_);}
	.st2_chart-2-76{fill:url(#SVGID_00000129897299957387613880000010821501162180416177_);}
	.st3_chart-2-76{fill:url(#SVGID_00000021120171162641995410000011286909230899096968_);}
	.st4_chart-2-76{fill:#9A6CFF;}
	.st5_chart-2-76{fill:#68E1FD;}
	.st6_chart-2-76{fill:#FFFFFF;}
	.st7_chart-2-76{fill:#007F68;}
	.st8_chart-2-76{fill:#FFA197;}
	.st9_chart-2-76{fill:#003B94;}
</style>
<g id="background_chart-2-76">
	<path class="st0_chart-2-76" d="M246.1,392.9L22.6,260.9c-7.1-4-13.2-10.6-6.3-14.9l224.3-129.3c3.4-2.1,8.5-3.4,11.9-1.5l234.6,136.2&#10;&#9;&#9;c7.1,4.1,8.4,15.7,1.3,19.8L275.5,392.7C266.4,398,255.2,398.1,246.1,392.9z"/>
	
		<linearGradient id="SVGID_1_-chart-2-76" gradientUnits="userSpaceOnUse" x1="232.1825" y1="206.7262" x2="318.5225" y2="263.2462" gradientTransform="matrix(1 0 0 -1 0 502)">
		<stop offset="0" style="stop-color:#F7B11B"/>
		<stop offset="1" style="stop-color:#DD6F31"/>
	</linearGradient>
	<polygon class="st1_chart-2-76" points="199.1,307.5 278.1,258.4 297.2,256.2 207.4,320.9 &#9;"/>
	
		<linearGradient id="SVGID_00000149384248196575423880000010105636779472253352_-chart-2-76" gradientUnits="userSpaceOnUse" x1="160.4001" y1="184.4199" x2="231.3001" y2="265.2699" gradientTransform="matrix(1 0 0 -1 0 502)">
		<stop offset="0" style="stop-color:#F7B11B"/>
		<stop offset="1" style="stop-color:#DD6F31"/>
	</linearGradient>
	<polygon style="fill:url(#SVGID_00000149384248196575423880000010105636779472253352_);" points="318.5,195.8 318.2,192.6 &#10;&#9;&#9;158.8,278.3 116.2,303.7 120.4,307.5 129.7,313.1 318.5,201.6 &#9;"/>
	
		<linearGradient id="SVGID_00000067212762648875804440000000455001238302110339_-chart-2-76" gradientUnits="userSpaceOnUse" x1="409.0663" y1="223.2815" x2="429.9362" y2="238.6715" gradientTransform="matrix(1 0 0 -1 0 502)">
		<stop offset="0" style="stop-color:#F7B11B"/>
		<stop offset="1" style="stop-color:#DD6F31"/>
	</linearGradient>
	<path style="fill:url(#SVGID_00000067212762648875804440000000455001238302110339_);" d="M422.5,290.8l27.4-26.7l-14.7-10.8&#10;&#9;&#9;L391,270C404.5,279.7,408.1,282.5,422.5,290.8z"/>
</g>
<g id="data_chart-2-76">
	<path class="st4_chart-2-76" d="M127.1,303.7V168.3c0-4.5,0.6-7,4.1-8.9L315,52.9c1.8-1,3.9-0.1,3.9,2l-0.5,139.2L127.1,303.7z"/>
	<polygon class="st5_chart-2-76 targetColor" points="158.8,197.6 158.8,248.4 169.4,242.2 169.5,191.5 &#9;" style="fill: rgb(104, 225, 253);"/>
	<polygon class="st5_chart-2-76 targetColor" points="176.5,178.9 176.3,238.6 187.4,232.1 187.4,172.8 &#9;" style="fill: rgb(104, 225, 253);"/>
	<polygon class="st5_chart-2-76 targetColor" points="194.3,162.8 194.2,228.6 204,222.9 204,156.9 &#9;" style="fill: rgb(104, 225, 253);"/>
	<path class="st6_chart-2-76" d="M253.7,204.3c-2.8,0-5.7-0.4-8.4-1.3c-9.5-3-16.7-10.9-20.2-22.3c-3.2-10.4-2.9-22.8,0.9-34.6&#10;&#9;&#9;c8.2-25.9,29.6-41.4,48.6-35.4s27.5,31.1,19.3,56.9l0,0c-3.8,11.9-10.6,22.1-19.3,28.8C268,201.6,260.8,204.3,253.7,204.3z&#10;&#9;&#9; M266.4,123.2c-10.5,0-22.2,11.3-27.2,27.1c-2.9,9.3-3.2,18.7-0.8,26.5c2.1,6.9,6.1,11.6,11.2,13.2s11.1,0.1,16.8-4.3&#10;&#9;&#9;c6.5-5,11.6-12.8,14.6-22.1c5.7-17.9,0.9-36.1-10.4-39.7C269.2,123.4,267.8,123.2,266.4,123.2z"/>
	<path class="st7_chart-2-76" d="M270.5,123.8c5,1.6,9.1,7.4,11.2,13.4c3.6-3.2,7.4-6.7,10.9-10.1c-4.3-8.6-10.4-14-18-16.4&#10;&#9;&#9;c-5.1-1.6-10.5-1.7-15.6-0.4v14.6c2.3-1.1,4.8-1.7,7.3-1.7C267.8,123.2,269.2,123.4,270.5,123.8z"/>
	<path class="st8_chart-2-76" d="M292.6,127.1c-3.5,3.5-7.1,6.9-10.9,10.1c2.2,7.4,2.1,16.9-0.9,26.3s-8.1,17.1-14.6,22.1&#10;&#9;&#9;c-1.1,0.9-2.3,1.7-3.6,2.4v14.9c4.3-1.4,8.4-3.6,12-6.4c8.6-6.7,15.5-16.9,19.3-28.8C298.7,152.7,297.9,138,292.6,127.1z"/>
	<path class="st5_chart-2-76 targetColor" d="M159.8,254.6L159.8,254.6c0,1.4,1.1,2.5,2.4,2.5c0.4,0,0.9-0.1,1.2-0.3l45.2-25.8c0.8-0.4,1.2-1.2,1.2-2.1l0,0&#10;&#9;&#9;c0-1.3-1.1-2.4-2.4-2.4c-0.4,0-0.8,0.1-1.2,0.3L161,252.5C160.2,252.9,159.8,253.8,159.8,254.6z" style="fill: rgb(104, 225, 253);"/>
</g>
<g id="plant_chart-2-76">
	<path class="st5_chart-2-76 targetColor" d="M429.6,217.7c-6.5,8.3-9.6,18.7-8.9,29.2c1.2,17.1,10.8,22,10.8,22l11.4,0.6c0,0,13.6-4.4,11.8-26.6&#10;&#9;&#9;c-1.7-20.8-8.4-25.7-8.4-25.7" style="fill: rgb(104, 225, 253);"/>
	<ellipse class="st9_chart-2-76" cx="438" cy="217.7" rx="8.4" ry="3"/>
	<ellipse class="st5_chart-2-76 targetColor" cx="438" cy="267.1" rx="8.4" ry="3" style="fill: rgb(104, 225, 253);"/>
	<path class="st7_chart-2-76" d="M434.6,218.6l-10.2-58.4c-0.2-1.3-2.1-0.7-1.9,0.5l10.2,58.4C432.9,220.4,434.8,219.8,434.6,218.6z"/>
	<path class="st7_chart-2-76" d="M436.4,218.8c0.3-0.1,0.6-0.1,0.9,0c0.4,0.1,0.7,0.3,1,0.6c0.8-16.3,1-32.6,0.4-49c0-1.3-2.1-1.3-2,0&#10;&#9;&#9;C437.4,186.5,437.2,202.7,436.4,218.8z"/>
	<path class="st7_chart-2-76" d="M459.3,162.1c-7.6,18.3-14.2,37.1-19.7,56.1c-0.1,0.5,0.2,1.1,0.7,1.2c0.5,0.1,1.1-0.2,1.2-0.7&#10;&#9;&#9;c5.5-19.1,12.1-37.8,19.7-56.1C461.8,161.4,459.8,160.9,459.3,162.1z"/>
	<path class="st7_chart-2-76" d="M426.6,184.3c0,0-1.1-0.1-5.9-5.2s1.3-8.9-1.5-14.5s1.1-13.1,2-18.9c0.5,4,2,7.8,4.2,11.1&#10;&#9;&#9;c3.6,5.2,5.6,9.9,5.3,16.4c-0.3,4.2-1,8.3-2.1,12.3"/>
	<path class="st7_chart-2-76" d="M436.9,193.3c0,0-1-0.4-4.5-6.5s3.4-8.3,2.1-14.5s4.3-12.5,6.5-17.8c-0.4,4,0,8,1.4,11.8&#10;&#9;&#9;c2.3,5.9,3.1,10.9,1.1,17.2c-1.3,4-2.9,7.8-5,11.4"/>
	<path class="st7_chart-2-76" d="M451.2,182.7c0,0-0.9-0.6-3-7.2s5-7.4,5-13.8s6.8-11.3,10-16.1c-1.3,3.8-1.6,7.9-1.1,11.9&#10;&#9;&#9;c1,6.2,0.8,11.3-2.4,17.1c-2.1,3.6-4.5,7-7.3,10.1"/>
</g>
<g id="search_chart-2-76">
	<path class="st5_chart-2-76 targetColor" d="M243.6,199.8c4.4-12,12.8-22,23.8-28.4c11.1-6.4,23.3-8,34.5-4.6c11.2,3.4,20.2,11.7,24.5,22.5&#10;&#9;&#9;c4.5,10.9,4.6,23.6,0.1,35.7c-4.4,12-12.8,22-23.8,28.4c-11.1,6.4-23.3,8-34.5,4.6c-2.4-0.7-4.8-1.7-7-2.9&#10;&#9;&#9;C243.2,245.4,235.3,222.2,243.6,199.8z M298.9,174.6c-8.8-2.7-18.5-1.3-27.3,3.8c-9.2,5.4-16.2,13.8-19.8,23.9&#10;&#9;&#9;c-7.7,20.8,1,42.3,19.4,47.8c8.8,2.7,18.5,1.3,27.3-3.8c9.2-5.4,16.2-13.8,19.8-23.9c3.8-10.2,3.7-20.8,0-29.9&#10;&#9;&#9;c-2.6-6.7-7.5-12.2-13.8-15.6C302.7,176,300.8,175.2,298.9,174.6L298.9,174.6z" style="fill: rgb(104, 225, 253);"/>
	<path class="st5_chart-2-76 targetColor" d="M256.9,244.9l-48,52.5c-1.4,1.6-1.9,3.8-1.2,5.8c1.2,3.4,6,5.7,9.1,3.6c1.4-0.9,2.6-1.9,3.9-3&#10;&#9;&#9;c4-3.5,7.6-7.3,11.3-11.1c4.6-4.8,9.1-9.8,13.5-14.7s8.6-9.7,12.8-14.6c3-3.5,6.1-7,9.1-10.6l2.6-3.1" style="fill: rgb(104, 225, 253);"/>
</g>
</svg>