<svg version="1.1" id="Layer_1" xmlns="http://www.w3.org/2000/svg" xmlns:xlink="http://www.w3.org/1999/xlink" x="0px" y="0px" viewBox="0 0 500 500" style="width: 166px;" xml:space="preserve" data-imageid="chatting-1-99" imageName="Chatting 1" class="illustrations_image">
<style type="text/css">
	.st0_chatting-1-99{fill:#A0D1F9;}
	.st1_chatting-1-99{fill:url(#SVGID_1_);}
	.st2_chatting-1-99{fill:url(#SVGID_00000121243470015223053070000016249910358779769527_);}
	.st3_chatting-1-99{fill:url(#SVGID_00000051354893600978245040000010494009261101260202_);}
	.st4_chatting-1-99{fill:#F2E2D1;}
	.st5_chatting-1-99{fill:#2D2D2D;}
	.st6_chatting-1-99{fill:#E8BC95;}
	.st7_chatting-1-99{fill:#F7ECDF;}
	.st8_chatting-1-99{fill:#68E1FD;}
	.st9_chatting-1-99{opacity:0.62;fill:#2D2D2D;enable-background:new    ;}
	.st10_chatting-1-99{fill:#FFC4B0;}
	.st11_chatting-1-99{fill:#E54B5D;}
	.st12_chatting-1-99{opacity:0.13;fill:#2D2D2D;enable-background:new    ;}
	.st13_chatting-1-99{opacity:0.9;}
	.st14_chatting-1-99{opacity:0.9;fill:#2D2D2D;enable-background:new    ;}
	.st15_chatting-1-99{fill:#F2F2F2;}
</style>
<path id="Base_chatting-1-99" class="st0_chatting-1-99" d="M39.5,291.4l164.4-95.6c2.4-1.4,5.4-1.4,7.8,0l245.8,140.7c3.7,2.1,5,6.9,2.9,10.6&#10;&#9;c-0.7,1.2-1.7,2.2-2.9,2.9l-157.2,90.7c-7.9,4.5-17.5,4.5-25.4,0L39.5,304.9c-3.7-2.1-5-6.9-2.8-10.6&#10;&#9;C37.3,293.1,38.3,292.1,39.5,291.4z"/>
<g id="Shadow_chatting-1-99">
	<g id="Shadow_00000090290498053026542780000001346029312444181120__chatting-1-99">
		
			<linearGradient id="SVGID_1_-chatting-1-99" gradientUnits="userSpaceOnUse" x1="327.2424" y1="131.3591" x2="280.8163" y2="87.2163" gradientTransform="matrix(1 0 0 -1 0 502)">
			<stop offset="0" style="stop-color:#29ABE2"/>
			<stop offset="1" style="stop-color:#F2F2F2;stop-opacity:0"/>
		</linearGradient>
		<path class="st1_chatting-1-99" d="M280.3,442.8l56.7-30.6l-28.4-51.4l-79.9,52.7C237.3,419.4,271.9,436.7,280.3,442.8z"/>
		
			<linearGradient id="SVGID_00000039108548447986773020000018015136871457292709_-chatting-1-99" gradientUnits="userSpaceOnUse" x1="215.1695" y1="201.6342" x2="179.3141" y2="148.7257" gradientTransform="matrix(1 0 0 -1 0 502)">
			<stop offset="0" style="stop-color:#29ABE2"/>
			<stop offset="1" style="stop-color:#F2F2F2;stop-opacity:0"/>
		</linearGradient>
		<path style="fill:url(#SVGID_00000039108548447986773020000018015136871457292709_);" d="M218.5,407.6l87.2-48.8L166,267l-96.3,56&#10;&#9;&#9;&#9;C78.3,328.8,210.1,401.5,218.5,407.6z"/>
		
			<linearGradient id="SVGID_00000008840511565098664070000001043617738964963736_-chatting-1-99" gradientUnits="userSpaceOnUse" x1="396.0853" y1="177.7242" x2="361.2899" y2="148.3414" gradientTransform="matrix(1 0 0 -1 0 502)">
			<stop offset="0" style="stop-color:#29ABE2"/>
			<stop offset="1" style="stop-color:#F2F2F2;stop-opacity:0"/>
		</linearGradient>
		<path style="fill:url(#SVGID_00000008840511565098664070000001043617738964963736_);" d="M326,401.4l94.4-58.8L385,320.1l-96.3,56&#10;&#9;&#9;&#9;C297.3,382,317.5,395.3,326,401.4z"/>
	</g>
</g>
<g id="Sofa_chatting-1-99">
	<path class="st4_chatting-1-99" d="M288.7,368.9c0,0,5.7-0.7,12.3-5.8s-12.3-4.3-12.3-4.3V368.9z"/>
	<path class="st5_chatting-1-99" d="M150.6,275.6v16.9c0,0,0.9,2.4,4.8,2.1s4.5-2.6,4.5-2.6v-20.2L150.6,275.6z"/>
	<path class="st5_chatting-1-99" d="M274,351.2V368c0,0,0.9,2.4,4.8,2.1s4.5-2.6,4.5-2.6v-20.2L274,351.2z"/>
	<path class="st6_chatting-1-99" d="M301.2,279.1c8.4-5.6,17.1-10.7,25.5-16.3l-136.2-77.9c-5.5-3.1-12.2-3.1-17.6,0.1l-37.7,22.1&#10;&#9;&#9;c-6.2,3.6-5.2,9.2-5.2,9.2s-1.7,51.7,0,55.1s6.9,5.8,6.9,5.8L288.8,369C301.2,359.5,291.1,285.8,301.2,279.1z"/>
	<path class="st4_chatting-1-99" d="M308.3,290.9c0,0-126.7-72.7-126.5-73.4s0-27.3,0-27.3l149.5,86.1L308.3,290.9z"/>
	<path class="st7_chatting-1-99" d="M143.9,238.8l38.3-21.4l144.7,83.1l-43.5,23.8c-2.1,1.1-4.6,1.1-6.6,0l-132.9-74.6c-3-1.7-4.1-5.5-2.4-8.5&#10;&#9;&#9;C142.1,240.2,142.9,239.4,143.9,238.8z"/>
	<path class="st4_chatting-1-99" d="M344,274.4l-1.7-0.1c-2.6,2-5.5,3.6-8.6,4.9c-12.6,9.5-26.7,17.4-40.8,24.5v60.8c1.8,0.4,3.6,0.5,5.5,0.3&#10;&#9;&#9;l39-23.1c5.1-3,8.3-8.5,8.2-14.5V276C345,275.5,344.5,274.9,344,274.4z"/>
	<path class="st7_chatting-1-99" d="M131.2,208.8c0,0-3.7,1.2,0,5.8s17.1-5.1,17.1-5.1l33.5-19.2l149.5,86.1l-39,22.2c0,0-3,2.4-0.7,5&#10;&#9;&#9;s5.5,1.4,11.8-1.7s41-22.7,41-22.7s3.4-2.3-1.8-6.8s-153.7-88-153.7-88s-5.5-5.1-12.3-1.6S131.2,208.8,131.2,208.8z"/>
</g>
<g id="Character_Female_chatting-1-99">
	<path class="st5_chatting-1-99" d="M165.6,293.1c0,0-0.2,7.4-1.7,8.7s-8.6,5.1-11.9,5.3s-3,3.6-1.1,5.6s16.9,1.2,18,0.1s5.2-7.8,4.6-7.9&#10;&#9;&#9;s-0.9,9-0.3,9.3c0.8,0.2,1.7,0.3,2.5,0.2l2.2-23.8"/>
	<path class="st5_chatting-1-99" d="M181.8,295.1c0,0,1,7.4-0.3,8.8s-7.6,6.5-10.8,7.2s-2.4,4.1-0.1,5.8s16.9-1.7,17.7-2.9s3.8-8.5,3.2-8.5&#10;&#9;&#9;s0.6,9,1.2,9.2c0.8,0.1,1.7,0,2.5-0.2l-1.8-23.8"/>
	<path class="st8_chatting-1-99 targetColor" d="M193.2,198.6c0,0-19.4,11.5-40.4-0.1l-1,15.3c0,0,23.1,9.2,39.3,5.4" style="fill: rgb(104, 225, 253);"/>
	<path class="st9_chatting-1-99" d="M193.2,198.6c0,0-19.4,11.5-40.4-0.1l-1,15.3c0,0,23.1,9.2,39.3,5.4"/>
	<path class="st10_chatting-1-99" d="M152.6,201.8c0,0-2.5-1.2-2.8-1.3c-1.1-0.7-2.1-1.5-3.1-2.2c-0.9-0.8-1.9-1.4-3.1-1.7&#10;&#9;&#9;c-0.9-0.1-1.7,0.5-1.8,1.3c0,0.2,0,0.4,0,0.7c0.2,1.2,2.2,2.4,2.9,3.3c0.1,0.1,0.6-1.4,0.7-1.4c-0.2,0.5-0.4,0.9-0.7,1.4&#10;&#9;&#9;c0,0.2-0.1,0.3-0.1,0.5c-0.9,1.7-2.2,3.2-3.2,4.9c-0.1,0.3-0.3,0.5-0.4,0.8c-0.1,0.2-0.2,0.4-0.2,0.6c1.2,0.2,2.4,0.4,3.6,0.4&#10;&#9;&#9;c2.5,0.6,5.1,0.8,7.7,0.7C152.3,207.1,152.4,204.5,152.6,201.8z"/>
	<path class="st5_chatting-1-99" d="M147.5,206.5c-2.4-1-2.3-3.5-1.9-5.7c0.1-0.4-0.6-0.6-0.6-0.2c-0.5,2.6-0.4,5.3,2.4,6.5&#10;&#9;&#9;C147.8,207.3,147.9,206.7,147.5,206.5z"/>
	<path class="st11_chatting-1-99" d="M179.1,259c1.5,0.1,15.7,1.8,26.3-2.1c2.7-3.8,4.2-8.4,5.3-12.8c1-4.1,1.7-8.2,2-12.4l-10.8,0.5&#10;&#9;&#9;c-10.6,0.3-21.2,1.6-31.7,3.8c-6.1,1.4-13,2.8-17.3,7.6c-5,5.5-3.5,13.1-2.1,19.6c2.4,10.6,5.7,21,9.8,31.1l26.1-3.9&#10;&#9;&#9;C186.8,290.4,176.3,258.8,179.1,259z"/>
	<path class="st11_chatting-1-99" d="M190,263.3c9.1,0.7,25.1,4.1,29.2-7.1c0.5-1.3,2.1-20.1,0-20l-6.3,0.3c-10.6,0.3-21.2,1.6-31.6,3.8&#10;&#9;&#9;c-6.1,1.4-12.9,2.8-17.3,7.6c-5,5.5-3.5,13.1-2.1,19.7c2.4,10.6,5.7,21,9.8,31.1l26.1-3.9C197.7,294.7,187.2,263.1,190,263.3z"/>
	<path class="st5_chatting-1-99" d="M144.2,224.2l8-9.9c0.4-0.5,0.4-1.2,0.1-1.7l-12.4-19.2c-0.4-0.7-1.3-0.9-2-0.4c-0.1,0.1-0.2,0.2-0.3,0.3&#10;&#9;&#9;l-9.3,11c-0.4,0.5-0.4,1.3,0,1.8l13.7,18.1c0.5,0.6,1.4,0.7,2,0.3C144.1,224.3,144.2,224.3,144.2,224.2z"/>
	<path class="st10_chatting-1-99" d="M157.9,227.1h-0.1c0.4-0.7,0.1-1.5-0.6-1.9c0,0-0.1,0-0.1-0.1c0.3-0.8-0.1-1.7-0.9-1.9c-0.1,0-0.2,0-0.2-0.1&#10;&#9;&#9;c-1.8-0.3-3.5-0.8-5.2-1.4c-1.1-0.5-2.2-1-3.2-1.6c-1.1-0.6-2.2-1.2-3.2-1.8c-1.4-0.9-2.7-2-3.9-3.3c-0.5-0.6-1-1.1-1.6-1.7&#10;&#9;&#9;c-0.6-0.5-1.1-1-1.6-1.6c-0.8-1.2-1.9-1.6-2.6-0.2s0.9,2.7,1.7,4.1c-1.4-0.2-2.7-0.4-4.1-0.6l-0.1,0.1c-1.3,1.1-1.5,2.1-0.6,2.9&#10;&#9;&#9;c0.2,0.3,0.1,0.6-0.1,0.9c-0.6,0.8-1.5,2.7,0.2,3c0.4,0.1,0.6,0.5,0.5,0.9c-0.2,1.5,0.4,3,1.6,3.9c2.1,0.9,4.3,0.8,6.7,1.1&#10;&#9;&#9;c2.4,0.5,4.8,1.1,7.2,2c2.4,0.6,4.8,1.3,7.2,2.1c0.8,0.3,1.7-0.2,2-1.1c0.1-0.3,0.1-0.7,0-1l0.5,0.1&#10;&#9;&#9;C158.8,230.4,159.5,227.7,157.9,227.1z"/>
	<path class="st5_chatting-1-99" d="M131.4,219l-0.1,0.2l5,0.6c0.2,0,0.3-0.1,0.4-0.3c0-0.2-0.1-0.3-0.3-0.4l-4.7-0.6&#10;&#9;&#9;C131.6,218.7,131.6,218.9,131.4,219z"/>
	<path class="st5_chatting-1-99" d="M132.1,222.8c1.5,0.1,3,0.3,4.4,0.4c0.4,0,0.5-0.6,0.1-0.7c-1.6-0.1-3.2-0.3-4.7-0.4&#10;&#9;&#9;C132.1,222.3,132.2,222.6,132.1,222.8z"/>
	<path class="st5_chatting-1-99" d="M132.9,226l4.2,0.2c0.4,0,0.5-0.6,0.1-0.7l-4.6-0.2C132.6,225.6,132.8,225.8,132.9,226z"/>
	<path class="st8_chatting-1-99 targetColor" d="M192.5,198.5c0,0-15,21-45,21.7l-3.9,12.6c0,0,27.4,8.9,45.4-6.1l3,7.6c0,0,15.3,7.3,27.3,1.7&#10;&#9;&#9;c0,0-0.4-33.5-24.5-44.8" style="fill: rgb(104, 225, 253);"/>
	<path class="st12_chatting-1-99" d="M192.5,198.5c0,0-16.9,21.6-45,21.7l-3.9,12.6c0,0,27.4,8.9,45.4-6.1l3,7.6c0,0,15.3,7.3,27.3,1.7&#10;&#9;&#9;c0,0-0.4-33.5-24.5-44.8"/>
	<path class="st10_chatting-1-99" d="M179.9,183.4c0,0-0.8,15.1,6.6,16.9c8.4,2.1,14.1-9.6,10.3-16.1S181.9,178.4,179.9,183.4z"/>
	<path class="st11_chatting-1-99" d="M184.7,177c-3,0.9-5.5,3.1-6.8,6c-0.1,0.2-0.2,0.4-0.2,0.6c-0.1,0.6-0.1,1.2-0.1,1.8c0,1.5,0.9,2.9,2.3,3.5&#10;&#9;&#9;c0-2.4,0.3-4.8,2.5-6.9c0,0-0.9,1.7,7.2,5.3c0,0,5.6,7.4,4,11.2c0.1-0.4,1.2-0.9,1.5-1.1c1.2-1,2.3-2.2,3.3-3.4&#10;&#9;&#9;C205.4,185,194.4,174,184.7,177z"/>
	<path class="st11_chatting-1-99" d="M182.5,182c0,0,0.2,6.9,8.5,8.2c5,0.8-5.6,9.9-0.6,12.8s14.3-3.5,16.5-8.2s-5.1-18.5-17-19.2&#10;&#9;&#9;c0,0-8.5-1.6-12,7.9"/>
	<path class="st5_chatting-1-99" d="M184.8,190.4c-0.2,0-0.3,0.1-0.4,0.3c0,0.2,0.1,0.3,0.3,0.3s0.3-0.1,0.4-0.3&#10;&#9;&#9;C185.1,190.6,184.9,190.4,184.8,190.4z"/>
	<path class="st5_chatting-1-99" d="M181.1,189.6l-0.2,0.1c-0.4,0.1-0.2,0.8,0.2,0.6l0.2-0.1C181.7,190.1,181.5,189.5,181.1,189.6z"/>
	<path class="st10_chatting-1-99" d="M194.4,190.2c-1.4-2.4-4.6,0.1-4.5,2.2c0,0.3,0.3,0.6,0.6,0.6h0.1c0,0.1,0,0.2,0.1,0.2c-0.2,0-0.3,0-0.5,0&#10;&#9;&#9;c-0.8-0.2-1,1.2-0.2,1.3C192,194.9,195.8,192.7,194.4,190.2z M191.6,191.3c0.1,0.1,0.2,0.2,0.2,0.2c0.2,0.1,0.5,0.1,0.6-0.1&#10;&#9;&#9;c0,0.1-0.1,0.2-0.1,0.2c-0.2,0.3-0.6,0.5-1,0.5h-0.1C191.2,191.9,191.4,191.6,191.6,191.3L191.6,191.3z"/>
	<path class="st5_chatting-1-99" d="M183.5,194.2c-1.3-0.1-0.6-1.5-0.4-2.2s0.4-1.4,0.7-2.1c0.1-0.4-0.5-0.6-0.6-0.2c-0.2,0.7-0.5,1.4-0.7,2.1&#10;&#9;&#9;c-0.2,0.6-0.4,1.2-0.5,1.8c0,0.9,0.8,1.1,1.5,1.2C183.9,194.9,183.9,194.2,183.5,194.2z"/>
	<path class="st5_chatting-1-99" d="M186.8,194.1c-0.2,0.6-0.6,1.1-1.1,1.4c-0.7,0.3-1.5,0.4-2.2,0.2c-0.4-0.1-0.6,0.6-0.2,0.6&#10;&#9;&#9;c0.8,0.2,1.7,0.1,2.5-0.2c0.7-0.4,1.3-1,1.5-1.8C187.5,194,186.9,193.7,186.8,194.1z"/>
	<path class="st5_chatting-1-99" d="M196.2,236.8c-11.8,0.6-30.6,0.6-35.9,13.9c-2.6,6.7-0.6,15.2,0.8,21.9c2,8.4,4.6,16.8,7.6,24.9&#10;&#9;&#9;c0.3,0.9,1.7,0.5,1.4-0.4c-2.4-6.7-4.7-13.5-6.5-20.4s-3.7-14.5-2.9-21.7c1.9-16.1,23.2-16.3,35.4-16.9&#10;&#9;&#9;C197.1,238.1,197.1,236.7,196.2,236.8z"/>
</g>
<g id="Character_Male_chatting-1-99">
	<path class="st8_chatting-1-99 targetColor" d="M326,348.1c-3.4,2.8-7.7,9.7-10.2,13.1c-0.6,0.7-1.2,1.5-1.8,2.3l-6.6-7.2l10-15.7L326,348.1z" style="fill: rgb(104, 225, 253);"/>
	<path class="st8_chatting-1-99 targetColor" d="M310.9,350.3c1.7,3.4,4.8,5.8,8.3,5.8c-0.7,2.5-2.5,7.2-1.6,9.1c1.3,2.8,11.8,15.1,5.1,16.8&#10;&#9;&#9;c-5,1.2-19.6-16-18.9-19C304.2,360.9,308.9,353.4,310.9,350.3z" style="fill: rgb(104, 225, 253);"/>
	<path class="st8_chatting-1-99 targetColor" d="M328.7,381.4c0.7,4.1,1.3,8.1,2.4,10.9c2.3,5.8,12.9,18.8,3.1,22c-10.4,3.4-16.9-15.4-17.5-18.7&#10;&#9;&#9;c-0.5-2.5-0.9-10.4-0.2-14.4C320.1,383.3,324.8,382.9,328.7,381.4z" style="fill: rgb(104, 225, 253);"/>
	<g class="st13_chatting-1-99">
		<path class="st5_chatting-1-99" d="M326,348.1c-3.4,2.8-7.7,9.7-10.2,13.1c-0.6,0.7-1.2,1.5-1.8,2.3l-6.6-7.2l10-15.7L326,348.1z"/>
		<path class="st5_chatting-1-99" d="M310.9,350.3c1.7,3.4,4.8,5.8,8.3,5.8c-0.7,2.5-2.5,7.2-1.6,9.1c1.3,2.8,11.8,15.1,5.1,16.8&#10;&#9;&#9;&#9;c-5,1.2-19.6-16-18.9-19C304.2,360.9,308.9,353.4,310.9,350.3z"/>
	</g>
	<path class="st8_chatting-1-99 targetColor" d="M331.9,257.4c0,0,29,39.5,26,52.8s-27.6,38.9-27.6,38.9l-2.6-26.1c0,0,7-12.3,6.4-14.1s-7.6-8.3-7.6-8.3&#10;&#9;&#9;l-9.9-38.6" style="fill: rgb(104, 225, 253);"/>
	<path class="st8_chatting-1-99 targetColor" d="M313.6,374.2c-3.8-17.4-6.1-38.5-6.4-39.7c-0.4-1.7-10.1-56.5-10.1-56.5c1.8-8.5-2.2-6.4-1.1-15&#10;&#9;&#9;c2-0.2,9.9-3.3,11.8-3.7c4-0.8,7.8-6.4,11.5-8.2c3.8,21.7,9.9,85.5,12.8,119.6C329.3,376.7,322.6,377.8,313.6,374.2z" style="fill: rgb(104, 225, 253);"/>
	<path class="st9_chatting-1-99" d="M331.9,257.4c0,0,29,39.5,26,52.8s-27.6,38.9-27.6,38.9l-2.6-26.1c0,0,7-12.3,6.4-14.1s-8.9-9.9-8.9-9.9&#10;&#9;&#9;l-4.8-39.1"/>
	<path class="st10_chatting-1-99" d="M349,236.3c2.8-1.5,4.3-4.4,6.9-6.2l0.1-0.1l0.2-0.1c0.9-0.2,1.9,0.3,2.1,1.3c0.1,0.4,0,0.9-0.2,1.3&#10;&#9;&#9;c-0.7,1.3-1.8,2.3-3.1,3c-0.2,0.4-0.6,0.7-1,0.8c-1.6,0.4-3.1,1-4.6,1.6c-0.8,0.5-1.9,0.2-2.4-0.6c-0.2-0.4-0.3-0.9-0.2-1.3&#10;&#9;&#9;C347.4,236.5,348.3,236.7,349,236.3z"/>
	<path class="st10_chatting-1-99" d="M348.8,241.4C348.8,241.3,348.8,241.3,348.8,241.4c1-2.4,1.9-4.8,2.8-7.2c0.6-0.6,1.2-1.2,1.8-1.9&#10;&#9;&#9;c0.1,0,0.3,0,0.4,0c0.9,0,1.6,0.7,1.6,1.6c0,0.2,0,0.3-0.1,0.5l-0.2,0.6c0.2,0.4,0.1,0.9-0.1,1.4c-0.7,1.5-1.5,3.1-2.2,4.6&#10;&#9;&#9;c-0.2,0.8-0.6,1.5-1,2.1l-0.5,0.9c-1,2-4,0.2-3-1.7L348.8,241.4z"/>
	<path class="st5_chatting-1-99" d="M329.1,219.4c1,7.9,0,16.4,3.3,23.9c1.1,2.4,2.5,4.6,4.2,6.6l0.3,0.3c-7.1-0.2-9.8-1.2-9.8-1.2l1.1-35&#10;&#9;&#9;c0.2,0.6,0.7,2.1,1.3,4.1C329.2,218.4,329,218.9,329.1,219.4z"/>
	<path class="st10_chatting-1-99" d="M328.8,373.6c-0.5,4.6-1.1,9.2-0.4,13.7c0.1,1,0.3,2.1,0.5,3.1l-11.6-2v-14.9L328.8,373.6z"/>
	<path class="st14_chatting-1-99" d="M328.7,381.4c0.7,4.1,1.3,8.1,2.4,10.9c2.3,5.8,12.9,18.8,3.1,22c-10.4,3.4-16.9-15.4-17.5-18.7&#10;&#9;&#9;c-0.5-2.5-0.9-10.4-0.2-14.4C320.1,383.3,324.8,382.9,328.7,381.4z"/>
	<path class="st9_chatting-1-99" d="M313.6,374.2c-3.8-17.4-6.1-38.5-6.4-39.7c-0.4-1.7-10.1-56.5-10.1-56.5c1.8-8.5-2.2-6.4-1.1-15&#10;&#9;&#9;c2-0.2,9.9-3.3,11.8-3.7c4-0.8,7.8-6.4,11.5-8.2c3.8,21.7,9.9,85.5,12.8,119.6C329.3,376.7,322.6,377.8,313.6,374.2z"/>
	<path class="st10_chatting-1-99" d="M297.2,295.5c0.2-2.7,0.5-5.3,1.1-7.9c0-3,0.2-6.1,0.7-9.1c3.3-0.1,6.6-0.1,9.9,0.1c0,1.6,0,3.3,0.1,4.9&#10;&#9;&#9;c0.4,1.2,0.7,2.4,1,3.6c0.2,0.2,0.4,0.4,0.5,0.6c1.5,3.1,2.5,6.4,2.9,9.8c0.1,1.7-2.5,2.4-3.3,0.9c-0.5-1.1-1-2.2-1.4-3.3&#10;&#9;&#9;c0,1.5,0,3.1-0.1,4.6c0,1-0.8,1.7-1.8,1.7c-0.9,0.1-1.7-0.4-2.1-1.2c-0.6,0.8-1.5,1-2.4,0.7c-0.7-0.4-1.2-1-1.5-1.7&#10;&#9;&#9;c-0.6,0.3-1.4,0.3-2.1,0C297.3,298.5,297.1,296.9,297.2,295.5z"/>
	<path class="st8_chatting-1-99 targetColor" d="M351.3,230.2c-1.1,0.5-2.2,1.1-3.3,1.5c-4.1,1.6-10,2.3-12.7-2c-2.1-3.4-2.8-7.5-3.4-11.4&#10;&#9;&#9;c-0.6-3.5-0.6-7.8-3.4-10.4c-1.5-1.3-3.4-2.2-5.4-2.5c-4.9-1.1-7.4,0-11.9,2.1c-5.6,2.7-12.7,6.1-15.5,12.1&#10;&#9;&#9;c-3.5,7.6-4.4,35.2-0.2,61.5c5.4,0.2,10.6,0.1,15.5-2c-0.7-6-1.5-12.3-1.5-12.3c0.6-0.7,14,1,22.4-9.5l-0.5-7.9&#10;&#9;&#9;c1.9,0.4,1.2,0.6,3,0.7c5.2,0.2,10.3-0.6,15.2-2.4C351.8,242.4,351.7,236.1,351.3,230.2z" style="fill: rgb(104, 225, 253);"/>
	<path class="st12_chatting-1-99" d="M351.3,230.2c-1.1,0.5-2.2,1.1-3.3,1.5c-4.1,1.6-10,2.3-12.7-2c-2.1-3.4-2.8-7.5-3.4-11.4&#10;&#9;&#9;c-0.6-3.5-0.6-7.8-3.4-10.4c-1.5-1.3-3.4-2.2-5.4-2.5c-4.9-1.1-7.4,0-11.9,2.1c-5.6,2.7-12.7,6.1-15.5,12.1&#10;&#9;&#9;c-3.5,7.6-4.4,35.2-0.2,61.5c5.4,0.2,10.6,0.1,15.5-2c-0.7-6-1.5-12.3-1.5-12.3c0.6-0.7,14,1,22.4-9.5l-0.5-7.9&#10;&#9;&#9;c1.9,0.4,1.2,0.6,3,0.7c5.2,0.2,10.3-0.6,15.2-2.4C351.8,242.4,351.7,236.1,351.3,230.2z"/>
	<path class="st10_chatting-1-99" d="M317.2,213.1c-1.1,0.7-2.3,1-3.6,1.1c-4.1,0.2-6.5-4.1-8.1-7.2c-1.8-3.6-3.3-7.8-3.4-11.8&#10;&#9;&#9;c0-0.7,0.1-1.4,0.2-2c1.5-4.7,18.3-8.2,19.2,1.1C322.2,199.6,322.6,209.8,317.2,213.1z"/>
	<path class="st10_chatting-1-99" d="M304.1,200.1c1.2-0.1,2.3,0.4,3.1,1.2c0.9,0.8,1.5,1.9,1.6,3.1c0.1,0.5-0.1,1-0.6,1.2c-0.4,0.7-1.3,0.9-2,0.5&#10;&#9;&#9;c0,0-0.1,0-0.1-0.1c-1.1-0.7-2.1-1.6-2.9-2.7C302.6,202.3,302.5,200.4,304.1,200.1z"/>
	<path class="st5_chatting-1-99" d="M298,188.8c0.3-2,1.4-3.8,3.2-4.9c1.9-1.3,4.2-1.6,6.4-1c0.8-1.4,2.1-2.4,3.6-3c2.8-0.9,5.9,0,7.7,2.3&#10;&#9;&#9;c2.4-0.3,4.8,0.3,6.8,1.6c2.3,1.4,3.2,3.9,3.5,6.5c0,0.4,0,0.8,0,1.1c0.1,0.7,0.1,1.3-0.1,2c-0.9,4.6-4.8,5.7-7.2,5.9&#10;&#9;&#9;c0.4-2.5,0-7.2-2.9-6c-0.2,0-0.3,0-0.5,0.1c-1.8,0.9-0.3,3.3-2.9,3.7s-4.1-1.6-6.5,0.7s2.9,4.9-2.7,9.2c0,0.3-0.1,0.6-0.1,0.9&#10;&#9;&#9;c0.1-0.4-2.2-2.4-2.5-2.8c-0.9-1-1.8-2.1-2.6-3.2c-1.5-1.8-2.7-3.8-3.5-6C297.1,193.6,297.5,191.2,298,188.8z"/>
	<path class="st10_chatting-1-99" d="M304.7,203.4c-0.2-1.6,1-2.5,2.3-1.9c1.9,1.2,3.2,3.2,3.2,5.5c0,0.4-0.1,0.9-0.5,1.2&#10;&#9;&#9;c-0.1,0.1-0.1,0.2-0.2,0.3c-0.6,0.6-1.5,0.6-2.1,0l-0.1-0.1C305.9,207.1,304.9,205.3,304.7,203.4z"/>
	<path class="st5_chatting-1-99" d="M321.3,205.8c-0.3,0-0.6-0.1-0.9-0.2c-1.5-0.9-1.8-4.1-1.8-4.4v-0.3l0.3-0.1c0.4-0.1,3.5-1.2,5.4-1.9l0.5-0.2&#10;&#9;&#9;v0.5c0,0.2,0.2,5.2-2.7,6.4C321.9,205.8,321.6,205.8,321.3,205.8z M319.4,201.4c0.1,1,0.5,3,1.4,3.5c0.3,0.2,0.7,0.2,1,0&#10;&#9;&#9;c1.9-0.8,2.2-3.9,2.2-5.2C322.9,200.2,320.4,201.1,319.4,201.4z"/>
	<path class="st5_chatting-1-99" d="M313.6,208.5c-0.6,0-1.3-0.2-1.8-0.6c-1.5-1.2-1.6-3.8-1.6-3.9v-0.3l6.4-2.2l0.1,0.4c0,0.1,1,3.1-0.1,5&#10;&#9;&#9;c-0.5,0.8-1.3,1.4-2.2,1.5C314.2,208.4,313.9,208.5,313.6,208.5z M311,204.2c0,1.2,0.5,2.3,1.3,3.1c0.6,0.4,1.3,0.5,2,0.4&#10;&#9;&#9;s1.3-0.5,1.7-1.2c0.7-1.3,0.4-3.3,0.2-4.1L311,204.2z"/>
	<path class="st5_chatting-1-99" d="M307.9,201.3l2.8,2.4c0.4,0.3-0.2,0.8-0.5,0.5l-2.7-2.4C307,201.5,307.5,201,307.9,201.3z"/>
	<path class="st5_chatting-1-99" d="M318.4,208c0.5,0,1.1-0.2,1.1-0.7c-0.1-0.4-0.2-0.7-0.4-1c-0.3-0.6-0.6-1.2-0.9-1.8c-0.1-0.2,0-0.4,0.2-0.5&#10;&#9;&#9;c0.1-0.1,0.3,0,0.4,0.1c0.3,0.6,0.6,1.2,0.9,1.8c0.3,0.5,0.5,1,0.5,1.5c0,0.9-1.2,1.2-1.9,1.2C318,208.8,318,208.1,318.4,208z"/>
	<path class="st5_chatting-1-99" d="M316.1,201.7c1-0.2,2.1-0.5,3.1-0.8c0.4-0.1,0.6,0.6,0.2,0.7c-1,0.3-2,0.6-3.1,0.8&#10;&#9;&#9;C315.9,202.4,315.7,201.8,316.1,201.7z"/>
	<polygon class="st5_chatting-1-99" points="369.6,231.1 358.2,247.1 349.9,247.8 361.2,230.7 &#9;"/>
	<polygon class="st5_chatting-1-99" points="366.4,228.2 358.5,229 346.1,246.2 349.9,247.8 360,233.8 369.6,231.1 &#9;"/>
	<path class="st10_chatting-1-99" d="M357.8,242.9h0.6c-0.6-0.8-0.4-1.9,0.3-2.5c0.3-0.2,0.6-0.3,1-0.4h1.4c-0.6-0.6-0.7-1.4-0.3-2.1&#10;&#9;&#9;c0.7-1.1,3.8-1.2,4.4,0c0.5,0.8,0.2,1.9-0.6,2.4l-0.4,0.2c0.7,0.7,0.7,1.8,0,2.5c-0.3,0.3-0.7,0.5-1.1,0.5h-0.2&#10;&#9;&#9;c0.5,0.8,0.4,1.8-0.4,2.4c-0.3,0.2-0.6,0.3-1,0.3c-1.2,0.1-2.4,0.2-3.6,0.1c-0.9,0-1.7-0.8-1.7-1.7&#10;&#9;&#9;C356.1,243.6,356.9,242.9,357.8,242.9z"/>
	<path class="st5_chatting-1-99" d="M324.7,282.6c-0.1-0.7-1.2-0.8-1.2,0c3.2,28.8,5.7,57.6,7.5,86.5c0,0.8,1.2,0.8,1.2,0&#10;&#9;&#9;C330.4,340.2,327.9,311.4,324.7,282.6z"/>
	<path class="st5_chatting-1-99" d="M309.5,266.9c-0.6-1.8-3.7-32.3-3.7-32.3l6.6,32L309.5,266.9z"/>
	<path class="st5_chatting-1-99" d="M336.7,250.2c-1.3-2-7.4-11.2-9.1-17.4l3.8,17C333.2,250.1,334.9,250.3,336.7,250.2z"/>
</g>
<g id="Plant_chatting-1-99">
	<ellipse class="st8_chatting-1-99 targetColor" cx="398.7" cy="330" rx="29" ry="20.4" style="fill: rgb(104, 225, 253);"/>
	<ellipse class="st9_chatting-1-99" cx="398.7" cy="330" rx="29" ry="20.4"/>
	<ellipse class="st5_chatting-1-99" cx="398.7" cy="318" rx="21.7" ry="8.9"/>
	<path class="st10_chatting-1-99" d="M397.9,303.2c0-4-0.1-8-0.5-12c-0.1-1-0.2-2.1-0.3-3.1c0-0.2-0.2-1.4-0.2-2s-0.3-2.1-0.3-2.1&#10;&#9;&#9;c-0.1-0.8-0.3-1.6-0.4-2.4c-2.4-13.6-7.7-26.5-15.5-37.9c-2.9,7-4.4,14.6-4.3,22.2c0,2.2,0.2,4.4,0.4,6.6c0,0.6,0.1,0.8,0.1,0.9&#10;&#9;&#9;c0-0.1,0-0.1,0.1,0.4c0.2,1.1,0.4,2.1,0.6,3.2c0.9,4.1,2,8.1,3.4,12c1.3,3.6,2.8,7.1,4.7,10.5c2,3.8,4.1,7.5,6.4,11.1&#10;&#9;&#9;c1.8,2.8,3.5,5.3,5.2,7.7C397.6,313.2,397.9,308.2,397.9,303.2z"/>
	<path class="st10_chatting-1-99" d="M405.4,306.3c2.2-3.4,4.2-6.8,6.1-10.4c0.5-0.9,1-1.8,1.4-2.8l0.9-1.9c0.2-0.5,0.9-2,0.9-1.9&#10;&#9;&#9;c0.3-0.8,0.6-1.5,1-2.3c5.3-12.7,7.9-26.4,7.4-40.2c-6.3,4.3-11.6,9.9-15.6,16.3c-1.2,1.9-2.2,3.8-3.2,5.7&#10;&#9;&#9;c-0.3,0.5-0.4,0.7-0.4,0.8c0-0.1,0.1-0.1-0.1,0.4c-0.4,1-0.9,2-1.2,3c-1.5,3.9-2.7,7.9-3.6,12c-0.9,3.7-1.4,7.5-1.7,11.3&#10;&#9;&#9;c-0.4,4.2-0.6,8.5-0.6,12.8c0,3.3,0.1,6.4,0.2,9.3C399.7,314.6,402.6,310.5,405.4,306.3z"/>
	<path class="st10_chatting-1-99" d="M405.2,316.3c2.3-1.1,4.5-2.3,6.6-3.6c0.6-0.3,1.1-0.7,1.7-1l1.1-0.7l1.1-0.8l1.2-0.9&#10;&#9;&#9;c7-5.1,12.8-11.7,17-19.3c-4.8,0.3-9.4,1.6-13.7,3.8c-1.2,0.6-2.4,1.3-3.6,2l-0.5,0.3c0,0,0.1,0-0.2,0.1c-0.6,0.4-1.1,0.8-1.6,1.2&#10;&#9;&#9;c-2.1,1.6-4,3.4-5.8,5.3c-1.7,1.7-3.2,3.6-4.6,5.6c-1.6,2.2-3.1,4.4-4.4,6.7c-1.1,1.8-2,3.5-2.9,5.1&#10;&#9;&#9;C399.5,318.9,402.4,317.7,405.2,316.3z"/>
</g>
<g id="Wall_Painting_chatting-1-99">
	<path class="st10_chatting-1-99" d="M278.5,117.7l-1.1,59.6c0,2.1-1.8,3.7-3.8,3.7c-0.6,0-1.1-0.1-1.6-0.4l-50.7-25.2c-1.7-0.9-2.8-2.6-2.8-4.5&#10;&#9;&#9;l1.1-59.7c0-2.2,1.9-4,4.1-4c0.6,0,1.2,0.2,1.8,0.4l50.2,25.5C277.5,114,278.5,115.8,278.5,117.7z"/>
	<path class="st11_chatting-1-99" d="M227.3,126.7c9.6,2.7,6.3,13.4,13.2,19.1c8.4,6.9,11.6-12.7,22-11.5c12.4,1.5,14.8,43,14.8,43&#10;&#9;&#9;c-2,4.7-5.4,3.3-5.4,3.3L218.5,154l0.4-23C221.1,128.4,223.9,126.3,227.3,126.7z"/>
</g>
<g id="Chat_bubble_2_chatting-1-99">
	<polyline class="st10_chatting-1-99" points="161.6,153.3 150.7,177.1 150.7,156.6 &#9;"/>
	<path class="st10_chatting-1-99" d="M162.5,117.2l-43.2,24.9c-0.7,0.4-1.1,1.1-1.1,1.9v35.2c0,1.2,1,2.2,2.2,2.2c0.4,0,0.8-0.1,1.1-0.3l43.2-25.3&#10;&#9;&#9;c0.7-0.4,1.1-1.1,1.1-1.9v-34.8c0-1.2-1-2.2-2.2-2.2C163.2,116.9,162.8,117,162.5,117.2z"/>
	<path class="st15_chatting-1-99" d="M125.3,155.1l28.6-16.2l4.1-2.3c0.5-0.4,0.6-1.1,0.3-1.6c-0.3-0.4-0.9-0.6-1.4-0.4l-28.6,16.2l-4.1,2.3&#10;&#9;&#9;c-0.5,0.3-0.7,1-0.4,1.5C124.1,155.3,124.7,155.4,125.3,155.1z"/>
	<path class="st15_chatting-1-99" d="M126.6,165.5l28.1-15.9l4-2.3c0.5-0.3,0.7-1,0.4-1.5s-1-0.7-1.5-0.4l0,0l-28.1,15.9l-4,2.3&#10;&#9;&#9;c-0.5,0.3-0.7,1-0.4,1.5C125.3,165.6,126,165.8,126.6,165.5L126.6,165.5z"/>
</g>
<g id="Chat_bubble_1_chatting-1-99">
	<polyline class="st8_chatting-1-99 targetColor" points="358.4,190.2 369.4,214 369.4,193.6 &#9;" style="fill: rgb(104, 225, 253);"/>
	<path class="st8_chatting-1-99 targetColor" d="M357.5,154.1l43.2,24.9c0.7,0.4,1.1,1.1,1.1,1.9v35.2c0,1.2-1,2.2-2.2,2.2c-0.4,0-0.8-0.1-1.1-0.3l-43.2-25.3&#10;&#9;&#9;c-0.7-0.4-1.1-1.1-1.1-1.9V156c0-1.2,1-2.2,2.3-2.2C356.8,153.8,357.2,153.9,357.5,154.1z" style="fill: rgb(104, 225, 253);"/>
	<path class="st15_chatting-1-99" d="M394.4,190.6l-28.6-16.2l-4.1-2.3c-0.6-0.3-1.2-0.1-1.5,0.5c-0.3,0.5-0.1,1.1,0.4,1.4l28.6,16.3l4.1,2.3&#10;&#9;&#9;c0.6,0.3,1.2,0,1.5-0.5C395,191.5,394.9,191,394.4,190.6L394.4,190.6z"/>
	<path class="st15_chatting-1-99" d="M393.1,199.8L365,183.9l-4-2.3c-0.6-0.3-1.3-0.1-1.6,0.4s-0.1,1.3,0.4,1.6l28.1,15.9l4,2.3&#10;&#9;&#9;c0.6,0.3,1.2,0,1.5-0.5C393.7,200.7,393.6,200.1,393.1,199.8L393.1,199.8z"/>
</g>
</svg>