<svg version="1.1" id="Layer_1" xmlns="http://www.w3.org/2000/svg" xmlns:xlink="http://www.w3.org/1999/xlink" x="0px" y="0px" viewBox="0 0 500 500" style="width: 166px;" xml:space="preserve" data-imageid="cocktail-33" imageName="Cocktail" class="illustrations_image">
<style type="text/css">
	.st0_cocktail-33{fill:#231F20;}
	.st1_cocktail-33{fill:#D1D3D4;}
	.st2_cocktail-33{fill:#68E1FD;}
	.st3_cocktail-33{fill:#FFFFFF;}
</style>
<g id="Eyeglass_arm_cocktail-33">
	<path class="st0_cocktail-33" d="M379.7,313.9c0,0-98-9.9-109.9-8.8s-24.8,24.5-18.5,27.7c6.2,3.2,12.9-16.9,20.5-18.3s107.9,12.7,107.9,12.7&#10;&#9;&#9;L379.7,313.9L379.7,313.9z"/>
	<path class="st0_cocktail-33" d="M252.7,333.9c-0.6,0-1.2-0.2-1.7-0.4c-1.2-0.6-2.6-2.3-1.8-6.4c1.6-8.3,11.2-21.8,20.5-22.6&#10;&#9;&#9;c11.8-1,106,8.4,110,8.8c0.4,0,0.6,0.3,0.6,0.7v13.3c0,0.2-0.1,0.4-0.2,0.5c-0.1,0.1-0.3,0.2-0.5,0.2c-1-0.1-100.3-14.1-107.7-12.8&#10;&#9;&#9;c-3.3,0.6-6.5,5.2-9.6,9.7C259.1,329.4,256,333.8,252.7,333.9L252.7,333.9z M272.2,305.7c-1,0-1.8,0-2.4,0.1&#10;&#9;&#9;c-8.4,0.7-17.7,13.5-19.3,21.5c-0.3,1.5-0.6,4.1,1,4.9c2.8,1.4,6.1-3.2,9.5-8.1c3.3-4.7,6.7-9.5,10.5-10.3&#10;&#9;&#9;c7.4-1.4,97.2,11.2,107.4,12.6v-11.9C371,313.8,290.2,305.7,272.2,305.7L272.2,305.7z"/>
</g>
<ellipse id="Shadow_cocktail-33" class="st1_cocktail-33" cx="229.9" cy="377.8" rx="106.5" ry="28.9"/>
<g id="Glass_cocktail-33">
	<path class="st0_cocktail-33" d="M224.2,400c-33.2,0-59.3-10-59.3-22.7l-22.3-210.9c0-0.4,0.3-0.7,0.7-0.7c0.4,0,0.7,0.2,0.7,0.6l22.3,210.9&#10;&#9;&#9;c0,11.8,26,21.4,57.9,21.4s57.9-9.6,57.9-21.3l22.3-211c0-0.4,0.4-0.7,0.7-0.7c0.4,0,0.7,0.4,0.7,0.7c0,0,0,0,0,0.1l-22.3,210.9&#10;&#9;&#9;C283.5,390,257.5,400,224.2,400L224.2,400z"/>
	<path class="st0_cocktail-33" d="M224.2,194.2c-45,0-81.6-12.5-81.6-27.9s36.6-27.9,81.6-27.9s81.6,12.5,81.6,27.9S269.2,194.2,224.2,194.2&#10;&#9;&#9;L224.2,194.2z M224.2,139.8c-44.2,0-80.2,11.9-80.2,26.5s36,26.5,80.2,26.5s80.2-11.9,80.2-26.5S268.4,139.8,224.2,139.8z"/>
	<path class="st2_cocktail-33 targetColor" d="M294,239.1l-17.3,140.4c0,0-17.6,16.1-56.5,14.4s-49.2-15.8-49.2-15.8l-16.7-139L294,239.1L294,239.1z" style="fill: rgb(104, 225, 253);"/>
	<path class="st0_cocktail-33" d="M225.7,394.7c-1.8,0-3.6,0-5.6-0.1c-38.8-1.7-49.3-15.5-49.8-16.1c-0.1-0.1-0.1-0.2-0.1-0.3l-16.7-139&#10;&#9;&#9;c0-0.2,0-0.4,0.2-0.6c0.1-0.2,0.3-0.2,0.5-0.2H294c0.4,0,0.7,0.3,0.7,0.7c0,0,0,0,0,0.1l-17.4,140.3c0,0.2-0.1,0.3-0.2,0.4&#10;&#9;&#9;C276.9,380.1,260.6,394.7,225.7,394.7L225.7,394.7z M171.7,377.8c0.6,0.7,3.3,3.8,9.8,7c6.7,3.4,18.9,7.5,38.8,8.4&#10;&#9;&#9;c36,1.5,53.8-12.4,55.8-14.1l17.2-139.3H155.1L171.7,377.8L171.7,377.8z"/>
	<ellipse class="st2_cocktail-33 targetColor" cx="224.1" cy="237.3" rx="69.9" ry="20.9" style="fill: rgb(104, 225, 253);"/>
	<path class="st0_cocktail-33" d="M224.1,258.9c-39.6,0-70.6-9.5-70.6-21.6s31-21.6,70.6-21.6s70.6,9.5,70.6,21.6S263.7,258.9,224.1,258.9z&#10;&#9;&#9; M224.1,217.1c-37.5,0-69.2,9.2-69.2,20.2s31.7,20.2,69.2,20.2s69.2-9.2,69.2-20.2S261.6,217.1,224.1,217.1L224.1,217.1z"/>
	<path class="st3_cocktail-33" d="M194.2,233.9l-27.4-100.7l-4.8,3.3l26.6,98.8C188.6,235.3,190.6,237.3,194.2,233.9L194.2,233.9z"/>
	<path class="st0_cocktail-33" d="M190.4,236.6c-0.8,0-1.6-0.3-2.2-0.8c-0.1-0.1-0.1-0.2-0.2-0.3l-26.6-98.8c-0.1-0.3,0-0.6,0.3-0.8l4.8-3.3&#10;&#9;&#9;c0.3-0.2,0.8-0.1,1,0.2c0,0.1,0.1,0.1,0.1,0.2l27.4,100.7c0.1,0.2,0,0.5-0.2,0.7C193.6,235.6,192,236.4,190.4,236.6L190.4,236.6z&#10;&#9;&#9; M189.3,234.9c0.4,0.3,1.8,0.9,4.1-1.2l-27-99.4l-3.6,2.4L189.3,234.9L189.3,234.9z"/>
	<path class="st3_cocktail-33" d="M237.8,137c-16.2-30.4-50.1-46.8-82.1-37.5s-51.7,41.5-49,75.8L237.8,137L237.8,137z"/>
	<path class="st0_cocktail-33" d="M106.8,176.1c-0.4,0-0.7-0.3-0.7-0.6c-2.8-35.1,18-67.3,49.5-76.5s66.4,6.7,82.9,37.8c0.1,0.2,0.1,0.4,0,0.6&#10;&#9;&#9;c-0.1,0.2-0.2,0.3-0.4,0.4L107,176C106.9,176,106.9,176,106.8,176.1L106.8,176.1z M173.8,97.7c-6,0-12,0.9-17.8,2.5&#10;&#9;&#9;c-30.6,9-50.9,40.1-48.5,74.2l129.4-37.9C223.6,112.3,198.9,97.7,173.8,97.7L173.8,97.7z"/>
	<path class="st1_cocktail-33" d="M218,142.8c-14.2-31-39.9-49.8-62.2-43.3s-33.9,36.2-29.1,70L218,142.8L218,142.8z"/>
	<path class="st0_cocktail-33" d="M126.6,170.2c-0.1,0-0.3,0-0.4-0.1c-0.2-0.1-0.3-0.3-0.3-0.5c-5-35.1,7.2-64.2,29.6-70.8s48.3,11.4,63.1,43.7&#10;&#9;&#9;c0.1,0.2,0.1,0.4,0,0.6c-0.1,0.2-0.2,0.3-0.4,0.4l-91.3,26.7C126.8,170.2,126.7,170.2,126.6,170.2L126.6,170.2z M164.6,99&#10;&#9;&#9;c-3,0-5.9,0.4-8.7,1.2c-21.2,6.2-33.2,34.9-28.7,68.4l89.8-26.3C204.6,115.8,183.8,99,164.6,99L164.6,99z"/>
	<path class="st3_cocktail-33" d="M192.3,150.3c-11.5-31.8-36.6-50.8-36.6-50.8s-10.9,29.4-3.4,62.5L192.3,150.3L192.3,150.3z"/>
	<path class="st0_cocktail-33" d="M152.3,162.7c-0.1,0-0.3,0-0.4-0.1c-0.2-0.1-0.3-0.3-0.3-0.4c-7.4-32.8,3.3-62.6,3.4-62.9&#10;&#9;&#9;c0.1-0.2,0.2-0.4,0.5-0.4c0.2-0.1,0.4,0,0.6,0.1c0.2,0.2,25.3,19.5,36.8,51.1c0.1,0.2,0.1,0.4,0,0.6c-0.1,0.2-0.2,0.3-0.4,0.4&#10;&#9;&#9;l-40,11.7C152.5,162.7,152.4,162.7,152.3,162.7L152.3,162.7z M156.1,100.7c-1.7,5.2-9.5,31.5-3.2,60.4l38.6-11.3&#10;&#9;&#9;C181.1,122.2,160.3,104.2,156.1,100.7L156.1,100.7z"/>
	<path class="st3_cocktail-33" d="M367.1,81l-18.2,3.6L332.3,88l-15.5,3.1l-16.7,3.3l-23.9,4.8l-0.4,2.4l-2.6,15.8l-3.5,21l-2.6,15.3l-2.7,16.1&#10;&#9;&#9;l-2.5,15.2l0,0l-2.8,16.6l-2.6,15.3l-3,18.2c0,0,1.4,3.6,8.4,4c6.9,0.4,7.4-4,7.4-4l1.5-9.1l0,0l2.6-15.7l0,0l2.8-16.6l2.6-15.6&#10;&#9;&#9;l2.6-15.2l2.6-15.8l3-18.1l2.9-17.1v-0.3l20.6-4l14.9-2.9l17.5-3.4l14.5-2.8l12.1-2.3C369.5,96.4,374.8,85.7,367.1,81L367.1,81z"/>
	<path class="st0_cocktail-33" d="M262.7,239.8c-0.3,0-0.6,0-0.9,0c-7.3-0.4-8.9-4.3-9-4.4c0-0.1,0-0.3,0-0.4l22.7-136c0-0.3,0.3-0.5,0.5-0.6&#10;&#9;&#9;l91-18.1c0.2,0,0.4,0,0.5,0.1c8.2,5,2.8,16.1,2.7,16.2c-0.1,0.2-0.3,0.3-0.5,0.4l-79.2,15.2l-20.6,122.9&#10;&#9;&#9;C269.9,235.2,269.3,239.8,262.7,239.8L262.7,239.8z M254.1,235c0.4,0.6,2.1,3.1,7.7,3.4c6.1,0.4,6.7-3.2,6.7-3.4l20.7-123.4&#10;&#9;&#9;c0-0.3,0.3-0.5,0.6-0.6L369,95.8c0.8-1.7,4.1-10-2.1-14l-90.2,18L254.1,235L254.1,235z"/>
	<path class="st1_cocktail-33" d="M332.3,88c4,4.2,7.5,8.7,10.6,13.5l14.5-2.8c-2.4-4.9-5.3-9.6-8.5-14L332.3,88L332.3,88z"/>
	<path class="st0_cocktail-33" d="M342.9,102.2c-0.2,0-0.5-0.1-0.6-0.3c-3.1-4.8-6.6-9.3-10.6-13.4c-0.2-0.2-0.2-0.4-0.2-0.7&#10;&#9;&#9;c0.1-0.2,0.3-0.4,0.5-0.5l16.6-3.3c0.3-0.1,0.5,0,0.7,0.3c3.3,4.5,6.2,9.2,8.6,14.1c0.1,0.2,0.1,0.4,0,0.6&#10;&#9;&#9;c-0.1,0.2-0.3,0.3-0.5,0.4L342.9,102.2L342.9,102.2L342.9,102.2z M333.7,88.4c3.5,3.8,6.8,7.9,9.6,12.3l13.2-2.5&#10;&#9;&#9;c-2.3-4.5-4.9-8.7-7.8-12.8L333.7,88.4L333.7,88.4z"/>
	<path class="st1_cocktail-33" d="M273.1,117.3c5,3.4,9.7,7.3,13.9,11.7l2.9-17.1c-4.2-4.1-9-7.6-14.1-10.5L273.1,117.3z"/>
	<path class="st0_cocktail-33" d="M287,129.8c-0.2,0-0.4-0.1-0.5-0.2c-4.2-4.4-8.8-8.3-13.8-11.6c-0.2-0.2-0.3-0.4-0.3-0.7l2.6-15.8&#10;&#9;&#9;c0-0.2,0.2-0.4,0.4-0.5c0.2-0.1,0.4-0.1,0.6,0c5.2,2.9,10,6.4,14.3,10.6c0.2,0.2,0.2,0.4,0.2,0.6l-2.9,17.1c0,0.3-0.2,0.5-0.5,0.6&#10;&#9;&#9;L287,129.8z M273.9,117c4.6,3.1,8.8,6.6,12.7,10.6l2.6-15.3c-3.9-3.7-8.2-6.9-12.9-9.6L273.9,117z"/>
	<path class="st1_cocktail-33" d="M267,153.7c5.1,2.5,9.9,5.6,14.3,9.2l2.7-15.7c-4.5-3.4-9.3-6.4-14.4-8.8L267,153.7z"/>
	<path class="st0_cocktail-33" d="M281.3,163.6c-0.2,0-0.3-0.1-0.5-0.2c-4.4-3.6-9.1-6.6-14.2-9.2c-0.3-0.1-0.4-0.4-0.4-0.7l2.6-15.3&#10;&#9;&#9;c0-0.2,0.2-0.4,0.4-0.5c0.2-0.1,0.4-0.1,0.6,0c5.1,2.5,10,5.4,14.5,8.9c0.2,0.2,0.3,0.4,0.3,0.7L282,163c0,0.2-0.2,0.5-0.5,0.5&#10;&#9;&#9;C281.5,163.6,281.4,163.6,281.3,163.6L281.3,163.6z M267.8,153.3c4.6,2.4,8.9,5.1,13,8.3l2.4-14.1c-4.1-3.1-8.5-5.8-13.1-8.1&#10;&#9;&#9;L267.8,153.3z"/>
	<path class="st1_cocktail-33" d="M261.8,185L261.8,185c5.1,2.4,9.9,5.4,14.4,8.7l2.6-15.6c-4.5-3.3-9.3-6.1-14.5-8.4L261.8,185z"/>
	<path class="st0_cocktail-33" d="M276.1,194.4c-0.2,0-0.3-0.1-0.4-0.1c-4.4-3.4-9.2-6.3-14.2-8.7c-0.2-0.1-0.4-0.4-0.4-0.6v-0.1l2.5-15.2&#10;&#9;&#9;c0-0.4,0.4-0.6,0.8-0.6c0.1,0,0.2,0,0.2,0.1c5.2,2.3,10,5.1,14.6,8.4c0.2,0.1,0.3,0.4,0.3,0.7l-2.6,15.6c0,0.2-0.2,0.4-0.4,0.5&#10;&#9;&#9;C276.3,194.4,276.2,194.4,276.1,194.4L276.1,194.4z M262.6,184.6c4.6,2.2,9,4.9,13.1,7.9l2.4-14c-4.1-3-8.5-5.6-13.1-7.7&#10;&#9;&#9;L262.6,184.6L262.6,184.6z"/>
	<path class="st1_cocktail-33" d="M256.4,216.9c5.1,2.5,9.9,5.6,14.3,9.1l2.6-15.7l0,0c-4.5-3.4-9.3-6.3-14.4-8.7L256.4,216.9z"/>
	<path class="st0_cocktail-33" d="M270.7,226.7c-0.2,0-0.3-0.1-0.4-0.2c-4.4-3.5-9.1-6.5-14.2-9c-0.3-0.1-0.4-0.4-0.4-0.7l2.6-15.3&#10;&#9;&#9;c0-0.2,0.2-0.4,0.4-0.5c0.2-0.1,0.4-0.1,0.6,0c5.1,2.4,10,5.4,14.5,8.8c0.2,0.1,0.3,0.3,0.3,0.6l-2.7,15.8&#10;&#9;&#9;C271.4,226.5,271.1,226.8,270.7,226.7L270.7,226.7z M257.2,216.5c4.6,2.3,8.9,5.1,13,8.2l2.4-14.1c-4.1-3.1-8.5-5.8-13.1-8&#10;&#9;&#9;L257.2,216.5z"/>
	<path class="st1_cocktail-33" d="M300.1,94.4c3.8,4.2,7.3,8.6,10.5,13.4l14.9-2.9c-2.4-4.9-5.3-9.5-8.7-13.8L300.1,94.4L300.1,94.4z"/>
	<path class="st0_cocktail-33" d="M310.5,108.4c-0.2,0-0.5-0.1-0.6-0.3c-3.1-4.7-6.6-9.1-10.4-13.3c-0.3-0.3-0.2-0.7,0-1&#10;&#9;&#9;c0.1-0.1,0.2-0.1,0.3-0.2l16.7-3.3c0.3,0,0.5,0,0.7,0.2c3.4,4.3,6.3,9,8.8,13.9c0.1,0.2,0.1,0.4,0,0.6c-0.1,0.2-0.3,0.3-0.5,0.4&#10;&#9;&#9;l-14.9,2.9L310.5,108.4L310.5,108.4z M301.4,94.8c3.4,3.8,6.6,7.9,9.5,12.2l13.5-2.6c-2.2-4.4-4.9-8.6-7.9-12.5L301.4,94.8&#10;&#9;&#9;L301.4,94.8z"/>
	<path class="st0_cocktail-33" d="M224.2,194.2c-45,0-81.6-12.5-81.6-27.9c0-0.4,0.3-0.7,0.7-0.7c0.4,0,0.7,0.3,0.7,0.7&#10;&#9;&#9;c0,14.6,36,26.5,80.2,26.5s80.2-11.9,80.2-26.5c0-0.4,0.4-0.7,0.8-0.6c0.3,0,0.6,0.3,0.6,0.6C305.8,181.9,270,194.2,224.2,194.2&#10;&#9;&#9;L224.2,194.2z"/>
	<path class="st3_cocktail-33" d="M241.4,288.3c-4.6,0-4.6,7.1,0,7.1S246.1,288.3,241.4,288.3z"/>
	<path class="st3_cocktail-33" d="M250.1,353.6l-0.3-0.7c-0.3-0.6-0.8-1.1-1.4-1.5c-0.5-0.5-1.1-0.8-1.8-1c-0.7-0.2-1.4-0.3-2.1-0.1&#10;&#9;&#9;c-0.7,0-1.4,0.2-2,0.6l-1.1,0.8c-0.7,0.7-1.1,1.5-1.4,2.4c-0.1,0.5-0.1,1-0.2,1.4c0,1,0.3,1.9,0.7,2.7l0.3,0.7&#10;&#9;&#9;c0.3,0.6,0.8,1.1,1.4,1.5c0.5,0.5,1.1,0.8,1.8,1c0.7,0.2,1.4,0.3,2.1,0.1c0.7,0,1.4-0.2,2-0.6l1.1-0.8c0.7-0.7,1.1-1.5,1.4-2.4&#10;&#9;&#9;c0.1-0.5,0.1-1,0.2-1.4C250.9,355.4,250.6,354.4,250.1,353.6z"/>
	<path class="st3_cocktail-33" d="M197.5,274.8c-6.9,0-6.9,10.7,0,10.7S204.4,274.8,197.5,274.8z"/>
	<path class="st3_cocktail-33" d="M224.7,310.4c-6.9,0-6.9,10.7,0,10.7S231.6,310.4,224.7,310.4z"/>
	<path class="st3_cocktail-33" d="M196.8,343.6c-6.9,0-6.9,10.7,0,10.7S203.7,343.6,196.8,343.6z"/>
	<path class="st3_cocktail-33" d="M266.6,295.9c-6.9,0-6.9,10.7,0,10.7S273.5,295.9,266.6,295.9z"/>
	<path class="st3_cocktail-33" d="M186.9,306.5c-6.9,0-6.9,10.7,0,10.7S193.8,306.5,186.9,306.5z"/>
	<path class="st3_cocktail-33" d="M263.9,331.2c-6.9,0-6.9,10.7,0,10.7S270.9,331.2,263.9,331.2z"/>
	<path class="st3_cocktail-33" d="M220.3,279.3c-4.6,0-4.6,7.1,0,7.1S224.9,279.3,220.3,279.3z"/>
	<path class="st3_cocktail-33" d="M222.6,364.7c-0.1-0.2-0.2-0.4-0.4-0.6c-0.2-0.2-0.4-0.3-0.6-0.4c-0.2-0.1-0.5-0.2-0.7-0.1l-0.5,0.1&#10;&#9;&#9;c-0.3,0.1-0.6,0.2-0.8,0.5c-0.1,0.1-0.2,0.2-0.3,0.4c-0.2,0.3-0.3,0.6-0.2,0.9v0.7c0,0.2,0,0.5,0.1,0.7c0.1,0.2,0.2,0.4,0.4,0.6&#10;&#9;&#9;c0.2,0.2,0.4,0.3,0.6,0.4c0.2,0.1,0.5,0.2,0.7,0.1l0.5-0.1c0.3-0.1,0.6-0.2,0.8-0.5l0.3-0.4c0.2-0.3,0.2-0.6,0.2-0.9v-0.7&#10;&#9;&#9;C222.8,365.2,222.7,364.9,222.6,364.7z"/>
	<path class="st3_cocktail-33" d="M204.9,324c-5.8,0-5.8,8.9,0,8.9S210.6,324,204.9,324z"/>
	<path class="st3_cocktail-33" d="M245.8,322c-5.8,0-5.8,8.9,0,8.9S251.6,322,245.8,322z"/>
	<path class="st3_cocktail-33" d="M176.7,269.2c-4.6,0-4.6,7.1,0,7.1S181.3,269.2,176.7,269.2z"/>
	<path class="st3_cocktail-33" d="M269.3,270.5c-4.6,0-4.6,7.1,0,7.1S273.9,270.5,269.3,270.5z"/>
</g>
<g id="Eyeglass_cocktail-33">
	<path class="st0_cocktail-33" d="M216.4,337.7c7-7.6,44-10.1,64.7-8.6s31.3,10.3,34.5,21.2s6.6,44.7-20.3,56.4s-61.6,10.5-73.4-6.2&#10;&#9;&#9;S209.4,345.3,216.4,337.7L216.4,337.7z"/>
	<path class="st0_cocktail-33" d="M258.2,415.1c-15.6,0-29.8-4.4-36.8-14.2c-12.2-17.3-12.7-55.9-5.5-63.7l0.5,0.5l-0.5-0.5&#10;&#9;&#9;c7.6-8.2,46.5-10.1,65.2-8.9c18.9,1.3,31.4,9,35.1,21.7c3.2,11.1,6.4,45.4-20.6,57.2C283.8,412.4,271.1,415,258.2,415.1&#10;&#9;&#9;L258.2,415.1z M268.7,329.4c-20.6,0-46.3,2.8-51.8,8.8l0,0c-6.8,7.4-6.1,45.4,5.6,61.9c9.8,13.9,41.3,19.6,72.5,5.9&#10;&#9;&#9;c26.2-11.4,23-44.8,19.9-55.5c-3.6-12.1-15.6-19.5-34-20.7C277.3,329.5,273.1,329.4,268.7,329.4L268.7,329.4z"/>
	<path class="st0_cocktail-33" d="M327.9,336.6c0,0-2.7,26.2,8.6,43.1s29.8,9.4,42,0.2s17.4-38.8,15.3-53.5s-7.7-16.8-21.6-15.6&#10;&#9;&#9;S334.4,319.5,327.9,336.6L327.9,336.6z"/>
	<path class="st0_cocktail-33" d="M354.2,390.5c-1.2,0-2.5-0.1-3.7-0.3c-5.9-1-10.8-4.4-14.6-10.1c-11.3-16.9-8.7-43.3-8.7-43.6&#10;&#9;&#9;c0-0.1,0-0.1,0-0.2c6.5-17.2,30.5-25.1,45-26.3c14-1.1,20.1,0.9,22.3,16.2s-3.4,44.9-15.6,54.2&#10;&#9;&#9;C373.8,384.4,364.1,390.5,354.2,390.5L354.2,390.5z M328.6,336.8c-0.2,1.7-2.2,26.6,8.5,42.6c3.6,5.4,8.2,8.6,13.6,9.5&#10;&#9;&#9;c10.6,1.8,21.7-5.2,27.4-9.5c5.4-4.1,9.9-12.7,12.8-24.3c2.5-10.1,3.4-21,2.3-28.5c-2-14.1-7-16.1-20.8-15.1&#10;&#9;&#9;C358.2,312.5,335,320.2,328.6,336.8L328.6,336.8z"/>
	<path class="st0_cocktail-33" d="M334,341.3c0,0-3.9-3.8-14-2.4s-14.8,6.9-14.8,6.9l3,8c0,0,12.6-10,24.7-3.2L334,341.3L334,341.3z"/>
	<path class="st0_cocktail-33" d="M308.2,354.6c-0.1,0-0.1,0-0.2,0c-0.2-0.1-0.4-0.2-0.5-0.4l-3-8c-0.1-0.2,0-0.5,0.1-0.7&#10;&#9;&#9;c0.2-0.2,5-5.7,15.2-7.2s14.4,2.4,14.6,2.6c0.2,0.1,0.2,0.4,0.2,0.6l-1,9.3c0,0.4-0.4,0.7-0.8,0.6c-0.1,0-0.2,0-0.2-0.1&#10;&#9;&#9;c-11.5-6.5-23.9,3.1-24,3.2C308.6,354.5,308.4,354.6,308.2,354.6L308.2,354.6z M306,346l2.6,6.8c2.9-2,13.5-8.4,23.8-3.2l0.8-7.9&#10;&#9;&#9;c-1-0.7-5-3.2-13.1-2S307.1,344.9,306,346z"/>
	<path class="st0_cocktail-33" d="M228,335.2c0,0-86.2,2.1-98.2,1.9s-21.9,20.7-16,24.6s9.8-12.3,17.4-12.9s92.3,1.5,92.3,1.5L228,335.2&#10;&#9;&#9;L228,335.2z"/>
	<path class="st0_cocktail-33" d="M115.7,363c-0.8,0-1.6-0.3-2.2-0.7c-2.2-1.5-2.7-4.9-1.3-9.4c2.1-6.9,8.9-16.5,17.5-16.5h0.2&#10;&#9;&#9;c11.8,0.2,97.3-1.8,98.1-1.9c0.2,0,0.4,0.1,0.6,0.3c0.1,0.2,0.2,0.4,0.1,0.6l-4.4,15c-0.1,0.3-0.4,0.5-0.7,0.5&#10;&#9;&#9;c-0.9,0-84.7-2.1-92.2-1.5c-3.3,0.3-6.1,4-8.5,7.4C120.6,359.8,118.3,363,115.7,363L115.7,363z M129.6,337.8c-7,0-13.8,8-16.2,15.5&#10;&#9;&#9;c-1.2,3.8-0.9,6.7,0.7,7.8c2.4,1.6,4.4-0.9,7.5-5.1c2.6-3.6,5.5-7.6,9.5-7.9c7.4-0.6,84,1.3,91.8,1.5l4-13.6&#10;&#9;&#9;c-9.5,0.2-86.1,2-97.2,1.8L129.6,337.8L129.6,337.8z"/>
</g>
</svg>