<svg version="1.1" id="Layer_1" xmlns="http://www.w3.org/2000/svg" xmlns:xlink="http://www.w3.org/1999/xlink" x="0px" y="0px" viewBox="0 0 500 500" style="width: 166px;" xml:space="preserve" data-imageid="coding-4-46" imageName="Coding 4" class="illustrations_image">
<style type="text/css">
	.st0_coding-4-46{fill:#AA29A4;}
	.st1_coding-4-46{fill:#F96156;}
	.st2_coding-4-46{fill:#200904;}
	.st3_coding-4-46{fill:#68E1FD;}
	.st4_coding-4-46{opacity:0.1;fill:#2E90A0;enable-background:new    ;}
	.st5_coding-4-46{opacity:0.47;fill:#2E90A0;enable-background:new    ;}
	.st6_coding-4-46{fill:#8CC63F;}
	.st7_coding-4-46{fill:#F67770;}
	.st8_coding-4-46{fill:#172D51;}
	.st9_coding-4-46{fill:#F7931E;}
	.st10_coding-4-46{fill:#2E90A0;}
	.st11_coding-4-46{fill:#FFFFFF;}
</style>
<path id="Base_coding-4-46" class="st0_coding-4-46" d="M63,349.6l171.5,100.1c4.5,2.6,10,2.6,14.5,0l204.7-118.1c6.9-4,9.3-12.8,5.3-19.8&#10;&#9;c-1.3-2.2-3.1-4.1-5.4-5.3l-173.5-98.9c-4.5-2.6-9.9-2.6-14.4,0l-202.6,117c-6.9,4-9.3,12.8-5.4,19.7C59,346.5,60.8,348.3,63,349.6z&#10;&#9;"/>
<g id="Lower_Body_coding-4-46">
	<path class="st1_coding-4-46" d="M325.2,317.4c0.4,1.8-0.1,3.8-1.3,5.2c-2,2.1-9.5,8.8-10.2,10.2s-1.7,5.4,0,6.8s5.1,1.5,9.2,0s14-7.9,15.8-9.9&#10;&#9;&#9;s0-22.3,0-22.3s-10.6-2.6-14.1,0L325.2,317.4z"/>
	<path class="st2_coding-4-46" d="M312.9,335.6c-0.2,1.5-0.2,3.1,0.8,3.9c1.7,1.4,5,1.5,9.1,0s14-7.9,15.8-9.9c0.5-0.5,0.7-2.3,0.8-4.6&#10;&#9;&#9;C332.6,331.6,318.1,342.5,312.9,335.6z"/>
	<path class="st2_coding-4-46" d="M329.6,325.1c-0.6-0.9-1.5-1.7-2.5-2.2c-1.2-0.4-2.5-0.5-3.7-0.4c-1,0.1-1,1.7,0,1.6c2-0.1,3.6,0.1,4.9,1.8&#10;&#9;&#9;C328.8,326.7,330.2,325.9,329.6,325.1z"/>
	<path class="st2_coding-4-46" d="M327.3,327.9c-1.7-2-4.3-2.9-6.9-2.4c-1,0.2-0.6,1.8,0.4,1.6c2-0.3,4.1,0.4,5.3,2&#10;&#9;&#9;C326.8,329.8,328,328.7,327.3,327.9z"/>
	<path class="st1_coding-4-46" d="M350.3,329.8c0.4,1.8-0.1,3.7-1.3,5.2c-2,2.1-9.5,8.8-10.2,10.2s-1.7,5.4,0,6.8s5.1,1.5,9.2,0s14-7.9,15.8-9.9&#10;&#9;&#9;s0-22.3,0-22.3s-10.6-2.6-14.1,0L350.3,329.8z"/>
	<path class="st2_coding-4-46" d="M338,348c-0.2,1.5-0.2,3.1,0.8,3.9c1.7,1.4,5,1.5,9.1,0s14-7.9,15.8-9.9c0.5-0.5,0.7-2.3,0.8-4.6&#10;&#9;&#9;C357.6,344,343.2,355,338,348z"/>
	<path class="st2_coding-4-46" d="M354.6,337.5c-0.6-0.9-1.5-1.7-2.5-2.2c-1.2-0.4-2.5-0.5-3.7-0.4c-1,0.1-1,1.7,0,1.6c2-0.1,3.6,0.1,4.9,1.8&#10;&#9;&#9;C353.8,339.2,355.2,338.4,354.6,337.5z"/>
	<path class="st2_coding-4-46" d="M352.3,340.4c-1.7-2-4.3-2.9-6.9-2.4c-1,0.2-0.6,1.8,0.4,1.6c2-0.4,4.1,0.4,5.3,2&#10;&#9;&#9;C351.9,342.3,353,341.1,352.3,340.4z"/>
	<path class="st2_coding-4-46" d="M327.4,191.4c-5.6,12.9-8.8,26.8-9.2,40.9c-0.4,22.4,2.3,82.4,2.3,82.4s6.2,6,19.8,3.9v-83.4&#10;&#9;&#9;c0,0,4.8,1.8,4.8,5.3s4.3,88.8,4.3,88.8s2.4,4.5,20.2-2.4c0,0,2.4-111.6-10.6-133.6"/>
</g>
<g id="Box_coding-4-46">
	<polyline class="st3_coding-4-46 targetColor" points="261.9,227.9 261.9,356.4 298.9,377.5 340.7,352.8 340.7,224.3 &#9;" style="fill: rgb(104, 225, 253);"/>
	<polygon class="st3_coding-4-46 targetColor" points="261.9,227.9 304.9,203.4 340.7,224.3 298.9,249 &#9;" style="fill: rgb(104, 225, 253);"/>
	<polygon class="st3_coding-4-46 targetColor" points="298.9,249 298.9,377.5 340.7,352.8 340.7,224.3 &#9;" style="fill: rgb(104, 225, 253);"/>
	<polyline class="st4_coding-4-46" points="261.9,227.9 261.9,356.4 298.9,377.5 340.7,352.8 340.7,224.3 &#9;"/>
	<polygon class="st3_coding-4-46 targetColor" points="261.9,227.9 304.9,203.4 340.7,224.3 298.9,249 &#9;" style="fill: rgb(104, 225, 253);"/>
	<polygon class="st5_coding-4-46" points="298.9,249 298.9,377.5 340.7,352.8 340.7,224.3 &#9;"/>
</g>
<g id="Line_coding-4-46">
	<polygon class="st2_coding-4-46" points="277.8,366 277.1,365.6 172.6,309.1 173.1,308.2 276.8,364.3 276.8,236.3 298,226.2 298.4,227.1 &#10;&#9;&#9;277.8,237 &#9;"/>
</g>
<g id="Upper_Body_coding-4-46">
	<polygon class="st2_coding-4-46" points="318.1,242.2 349.2,223.9 299.7,196.1 270.8,214.4 &#9;"/>
	<path class="st6_coding-4-46" d="M325.5,197.2c8.5,3,17.2,3.1,26.1,2.6c3.5-3.7,6.5-7.9,8.8-12.5c7.6-15.7,10.4-42.2,10.4-42.2&#10;&#9;&#9;s-11.3-8.8-18.9-10.9s-24.2,1.6-26.9,6.2s-3.7,25.1,0,54.2C325.1,195.2,325.4,196.8,325.5,197.2z"/>
	<path class="st6_coding-4-46" d="M339.9,137c-2.7,0.6-3.2-6.8-2-7.5s13.6-0.8,15.5,0.1c4.2,1.9,0,8.1,0,8.1"/>
	<path class="st2_coding-4-46" d="M355.9,106.2c-2.4-0.4-2.3-4.4-6.8-6.3s-9.7,0.8-11.7,2.2s-3.4-1.5-5.5,0.7s-0.8,5.6-2,6.8&#10;&#9;&#9;c-0.1,0.1-0.1,0.1-0.2,0.1c-1.1,1.8-1.1,4.1-0.2,6c1,1.3,2.1,2.5,3.4,3.5l20,10.4c2.4-1.7,7-17.8,6.8-19.8&#10;&#9;&#9;C359.5,107.9,357.9,106.4,355.9,106.2z"/>
	<path class="st7_coding-4-46" d="M333.9,112.3c-0.9,1,2.1,20.3,8,21s12.8-7.1,13.4-9.4s0.2-14.7-2.1-15.8S339.4,106.4,333.9,112.3z"/>
	<path class="st2_coding-4-46" d="M336.6,106.8c0,0-1.1,4.5,5.9,5.3s7.5,2.4,8.3,4.9c1.6,4.6,6.5,10,8.2-3.9c0.1-0.7-5-10.2-10.4-10.9&#10;&#9;&#9;S336.6,106.8,336.6,106.8z"/>
	<path class="st7_coding-4-46" d="M351.4,119.4c0,0,2.2-3.8,3.9-2s0.5,6-1.8,7.4"/>
	<path class="st7_coding-4-46" d="M298.3,199.5c0,0-5.7,4.5-7.2,5.4s6.5,3.5,6.6,4.4s7.8-6.1,7.8-6.1L298.3,199.5z"/>
	<polygon class="st8_coding-4-46" points="318.1,242.2 305.9,210.9 258.6,183 270.8,214.4 &#9;"/>
	<path class="st6_coding-4-46" d="M325,140.4c0,0-3.1,4.4-4.5,16s-5.5,21.8-7.9,25.4s-18.1,18.4-17.5,19.8s4.8,4.1,7.6,5c0,0,12.3-7.4,20.3-17.7&#10;&#9;&#9;s7.8-28.6,7.8-28.6"/>
	<path class="st7_coding-4-46" d="M330.3,230.2c0.2-1.2,0-2.5,0.7-3.6c0.4-0.6,1-1.1,1.7-1.4c0.8-0.5,1.5-1.1,2.2-1.7l5.5-5.8l-8.3-1.2&#10;&#9;&#9;c-1.8,1.2-3.7,2.3-5.7,3.4c-0.4,0.1-5.7,3.2-5.4,4.1s3.8-1.9,3.8-1.9s-5.1,2.4-5.7,3.1s-1.5,4.6-0.9,5.2s1.5-0.1,2.1-0.3&#10;&#9;&#9;s-0.4,1.6,0.5,1.9c0.7,0.2,1.4,0.4,2.2,0.4c0.7,0.4,1.6,0.2,2.2-0.3c1.2-1,2.4-4.5,2.4-4.5s-0.2,4.7,1.1,4.4&#10;&#9;&#9;C329.2,231.7,329.8,231,330.3,230.2z"/>
	<path class="st2_coding-4-46" d="M324.5,223.4c-1,0.4-1.9,1.1-2.7,1.8c-1,1.3-1.7,2.9-1.8,4.5c-0.1,0.5,0.6,0.6,0.7,0.1&#10;&#9;&#9;c0.3-1.5,0.6-3.3,1.9-4.4c0.8-0.6,1.7-1.2,2.6-1.6C324.9,223.7,324.7,223.5,324.5,223.4z"/>
	<path class="st2_coding-4-46" d="M326.4,224.2c-0.8,0.6-1.6,1.3-2.2,2c-1.1,1.4-1.2,4-1.6,5.7c-0.1,0.4,0.6,0.5,0.7,0.1c0.5-2.1,0.7-4.4,2.2-6&#10;&#9;&#9;c0.6-0.6,1.2-1.1,1.8-1.7C327,224.2,326.7,224.2,326.4,224.2z"/>
	<path class="st6_coding-4-46" d="M370.8,145.1c0,0,3.3,0.7,2.8,12.5s-3.3,35.2-8.7,40.9s-29.9,26-29.9,26s-7.6-3.3-7-6.1s26.6-28.5,26.6-28.5&#10;&#9;&#9;S358.5,137.6,370.8,145.1z"/>
	<path class="st2_coding-4-46" d="M326.7,149.3l-1.8,47.7c0,1.1,1.6,1,1.6,0l1.8-47.7C328.3,148.3,326.7,148.3,326.7,149.3z"/>
	<path class="st2_coding-4-46" d="M354.7,161.4l-2.5,15.3c-0.8,5.2-1,11.2-3.6,15.9c-2.5,4.5-6.5,8.3-9.8,12.2c-3.7,4.3-7.3,8.6-11,12.9&#10;&#9;&#9;c-0.7,0.8,0.5,2,1.1,1.1l11.6-13.6c3.2-3.8,7.1-7.5,9.6-11.9s2.7-9.9,3.5-14.8c0.9-5.6,1.8-11.2,2.7-16.9&#10;&#9;&#9;C356.4,160.8,354.9,160.4,354.7,161.4z"/>
</g>
<g id="Smartphone_coding-4-46">
	<path class="st8_coding-4-46" d="M216.6,36.2c-22.5,13.3-78.1,46.2-94.7,55.8c-2.9,1.7-4.7,4.8-4.6,8.1v228.4c-0.3,4.7,4.9,9,9.2,6.5l93.5-53.2&#10;&#9;&#9;c3.8-2.1,6.2-5.2,6.2-9.5V41.6c0-3.5-2.8-6.3-6.3-6.3C218.6,35.3,217.5,35.6,216.6,36.2z"/>
	<path class="st3_coding-4-46 targetColor" d="M225.5,38.9L195.7,56v6.3c0,1.1-0.6,2.1-1.5,2.7l-22.8,13.2c-1,0.6-2.2,0.2-2.7-0.7c-0.2-0.3-0.3-0.7-0.3-1&#10;&#9;&#9;v-4.6l-42.8,25.1c-0.8,0.5-1.3,1.4-1.3,2.3v228.2c0,1,0.8,1.8,1.8,1.8c0.3,0,0.6-0.1,0.9-0.3l99-57.4c0.3,3.6-1.3,7.1-4.4,9.1&#10;&#9;&#9;c-5.1,3.3-95.3,54.3-95.3,54.3s-7.1,3.2-9.2-5.3V100.2c0-3,1.4-5.8,3.9-7.6c4.1-3,95.5-56.4,95.5-56.4S222.3,33,225.5,38.9z" style="fill: rgb(104, 225, 253);"/>
	<polygon class="st6_coding-4-46" points="136.3,129.7 136.3,136.2 211.4,92.5 211.4,87.2 &#9;"/>
	<polygon class="st9_coding-4-46" points="175.8,125.9 136.3,148.3 136.3,154.7 175.8,131.8 &#9;"/>
	<polygon class="st10_coding-4-46" points="181.3,122.8 181.3,128.6 189.7,123.7 189.7,118 &#9;"/>
	<polygon class="st1_coding-4-46" points="195.3,114.9 195.3,120.5 211.4,111.1 211.4,105.8 &#9;"/>
	<polygon class="st1_coding-4-46" points="171.2,144.5 136.3,164.3 136.3,170.7 171.2,150.5 &#9;"/>
	<polygon class="st6_coding-4-46" points="137.3,182.2 137.3,188.7 212.4,145 212.4,139.7 &#9;"/>
	<polygon class="st10_coding-4-46" points="161.6,187 161.6,193.1 179.8,182.5 179.8,176.7 &#9;"/>
	<polygon class="st1_coding-4-46" points="156.1,190.1 137.3,200.8 137.3,207.2 156.1,196.3 &#9;"/>
	<polygon class="st9_coding-4-46" points="185.3,173.6 185.3,179.3 212.4,163.5 212.4,158.2 &#9;"/>
	<polygon class="st9_coding-4-46" points="200,181.2 137.3,216.8 137.3,223.2 200,186.7 &#9;"/>
	<polygon class="st10_coding-4-46" points="205.5,178.1 205.5,183.5 212.4,179.5 212.4,174.2 &#9;"/>
	<polygon class="st10_coding-4-46" points="137.3,236.2 137.3,242.6 212.4,199 212.4,193.6 &#9;"/>
	<polygon class="st9_coding-4-46" points="165,239 165,245 212.4,217.5 212.4,212.2 &#9;"/>
	<polygon class="st1_coding-4-46" points="159.5,242.1 137.3,254.7 137.3,261.2 159.5,248.3 &#9;"/>
	<polygon class="st10_coding-4-46" points="183.8,244.4 137.3,270.7 137.3,277.2 183.8,250.2 &#9;"/>
	<polygon class="st6_coding-4-46" points="189.3,241.3 189.3,246.9 212.4,233.5 212.4,228.2 &#9;"/>
</g>
<g id="Code_coding-4-46">
	<path class="st1_coding-4-46" d="M280.7,406.1l-1-4.1c0,0.7-0.2,1.5-0.7,2c-0.2,0.3-0.5,0.5-0.9,0.7L249,423c-1.1,0.6-2.4,0.9-3.6,0.8&#10;&#9;&#9;c-0.9-0.1-1.8-0.4-2.6-0.8l-36.4-20.2c-0.2-0.1-0.3-0.2-0.4-0.3c-0.7-0.5-1.3-1.1-1.6-1.9l0.9,4.1c0.3,1.2,1.1,2.3,2.2,2.9&#10;&#9;&#9;l36.4,20.2c0.8,0.4,1.7,0.7,2.6,0.8c1.3,0.1,2.5-0.1,3.6-0.8l29.2-18.3C280.5,408.8,281.1,407.4,280.7,406.1z"/>
	<g>
		<polygon class="st11_coding-4-46" points="250.3,389.4 252.3,390.8 249.8,401.2 246.8,399.1 248.4,392.9 241.2,395.4 238.2,393.3 &#9;&#9;"/>
		<polygon class="st11_coding-4-46" points="234.9,393.1 246.9,407.5 245.3,409.1 233.3,394.6 &#9;&#9;"/>
		<polygon class="st11_coding-4-46" points="230.8,400.6 233.8,402.6 232.2,408.8 239.4,406.4 242.4,408.5 230.3,412.4 228.2,411 &#9;&#9;"/>
	</g>
	<path class="st9_coding-4-46" d="M279.7,401.9c0,0.7-0.2,1.5-0.7,2c-0.2,0.3-0.5,0.5-0.9,0.7L249,423c-1.1,0.6-2.4,0.9-3.6,0.8&#10;&#9;&#9;c-0.9-0.1-1.8-0.4-2.6-0.8l-36.4-20.2c-0.2-0.1-0.3-0.2-0.4-0.3c-0.7-0.5-1.3-1.1-1.6-1.9c-0.5-1.4,0-2.9,1.3-3.6l27.6-17.8&#10;&#9;&#9;c1.1-0.7,2.4-0.9,3.7-0.8c0.8,0.1,1.7,0.3,2.4,0.7l38,19.6C278.6,399.3,279.5,400.5,279.7,401.9z M245.3,409.1l1.6-1.5l-12-14.4&#10;&#9;&#9;l-1.6,1.5L245.3,409.1 M230.2,412.4l12-3.9l-3-2l-7.2,2.4l1.6-6.2l-3-2l-2.4,10.4L230.2,412.4 M249.8,401.2l2.6-10.4l-2.1-1.4&#10;&#9;&#9;l-12,3.9l3,2l7.2-2.4l-1.6,6.2L249.8,401.2"/>
</g>
</svg>