<svg version="1.1" id="Layer_1" xmlns="http://www.w3.org/2000/svg" xmlns:xlink="http://www.w3.org/1999/xlink" x="0px" y="0px" viewBox="0 0 500 500" style="width: 166px;" xml:space="preserve" data-imageid="consulting-86" imageName="Consulting" class="illustrations_image">
<style type="text/css">
	.st0_consulting-86{fill:#D1D3D4;}
	.st1_consulting-86{fill:#FFFFFF;}
	.st2_consulting-86{fill:#231F20;}
	.st3_consulting-86{fill:#68E1FD;}
</style>
<path id="Floor_consulting-86" class="st0_consulting-86" d="M472.2,349.4h-433c-0.4,0-0.7-0.3-0.7-0.7c0-0.4,0.3-0.7,0.7-0.7h433c0.4,0,0.7,0.3,0.7,0.7&#10;&#9;S472.6,349.3,472.2,349.4C472.3,349.4,472.3,349.4,472.2,349.4z"/>
<g id="Chair_consulting-86">
	<path class="st1_consulting-86" d="M73.7,198.6c-20.9,15.2-23.7,46.9-24.2,70.8c-0.5,22.4,4.5,43.8,9.1,65.6c4.6,21.4,21.9,33,42.6,37.8&#10;&#9;&#9;c30.7,7.1,64.4,8,95.7,4.5s32.1-34.2,28.9-59.5c-0.9-7-5.8-11.3-11.1-15.1c-6.5-4.7-12.3-9.6-16.9-16.3&#10;&#9;&#9;c-14.8-21.5-15.7-47-25.6-70.4c-7.8-18.5-25.3-31.4-45.4-30.7S87.6,188.5,73.7,198.6L73.7,198.6z"/>
	<path class="st2_consulting-86" d="M161.3,380c-20.3,0.1-40.5-2.1-60.3-6.5c-30.4-7-40.2-24.8-43.2-38.4l-1-4.6c-4.5-20.7-8.7-40.3-8.2-61.2&#10;&#9;&#9;c1.2-48.3,13.7-63.5,24.5-71.3l0.4,0.6l-0.4-0.6c14.7-10.7,35.3-12.7,53.6-13.3c19.7-0.6,37.8,11.6,46,31.1&#10;&#9;&#9;c3.9,9.1,6.4,18.8,8.9,28c3.8,14.3,7.7,29.2,16.6,42.2c4,5.8,9,10.6,16.7,16.1c5.4,3.8,10.5,8.4,11.4,15.6&#10;&#9;&#9;c2.9,23.1,0.5,39.1-7.2,48.9c-5.1,6.5-12.6,10.3-22.3,11.4C185.1,379.3,173.2,380,161.3,380L161.3,380z M74.1,199.1&#10;&#9;&#9;c-20.1,14.6-23.3,45.2-23.9,70.2c-0.5,20.8,3.7,40.2,8.1,60.9l1,4.6c2.8,13.2,12.4,30.4,42.1,37.3c28.7,6.7,61.7,8.2,95.4,4.5&#10;&#9;&#9;c9.3-1,16.5-4.7,21.4-10.8c7.5-9.5,9.8-25.1,6.9-47.8c-0.8-6.7-5.7-11-10.8-14.6c-7.9-5.6-13-10.6-17.1-16.5&#10;&#9;&#9;c-9.1-13.2-13-28.2-16.9-42.7c-2.4-9.2-5-18.8-8.8-27.8c-8.1-19-25.6-31-44.7-30.3C108.9,186.7,88.5,188.7,74.1,199.1L74.1,199.1&#10;&#9;&#9;L74.1,199.1z"/>
	<path class="st0_consulting-86" d="M128.5,316.9c-3.7,0-7.4-0.2-11.2-0.6c-7.1-0.8-14.1-2.3-20.9-4.5c-9.3-3-15.5-6.5-20.2-11.1&#10;&#9;&#9;c-7.1-7.1-9.8-16.7-10.9-23.5c-2.4-15.7,0.1-33.1,1.7-42.1c2.3-12.4,9.9-23.2,20.9-29.5c7.5-4.4,16.5-7.2,27.4-8.6&#10;&#9;&#9;c11.5-1.5,19.7-0.3,26,3.9c10.2,6.8,13.1,19.7,15.2,32.4l3.6,21.6c0.9,5.4,2.1,12.7,6.3,16.2c1.5,1.1,3.1,2.1,4.8,2.9&#10;&#9;&#9;c2.9,1.5,6,3,7.7,6.4c2.1,4.2,3,11.2,0.8,15.8c-2.4,5.1-7.3,8.4-10.8,10.5C157.4,313.3,143.6,316.9,128.5,316.9L128.5,316.9z&#10;&#9;&#9; M124.1,197.6c-2.8,0-5.7,0.2-8.5,0.6c-10.8,1.4-19.6,4.2-26.9,8.5c-10.6,6.1-18,16.5-20.2,28.5c-1.7,8.9-4.1,26.1-1.7,41.6&#10;&#9;&#9;c1,6.6,3.6,15.9,10.5,22.8c4.5,4.5,10.6,7.9,19.7,10.8c6.7,2.2,13.6,3.7,20.7,4.5l0,0c19,2.1,36.5-1.2,50.8-9.7&#10;&#9;&#9;c3.3-2,8-5.1,10.2-9.9c2-4.2,1.1-10.7-0.8-14.6c-1.5-3-4.2-4.4-7.1-5.8c-1.8-0.8-3.4-1.8-5-3c-4.6-3.8-5.9-11.4-6.8-17l-3.6-21.6&#10;&#9;&#9;c-2.1-12.4-4.9-25.1-14.6-31.5C136.4,199,131,197.6,124.1,197.6L124.1,197.6z"/>
	<path class="st0_consulting-86" d="M77,295c-0.3,0-0.5-0.2-0.7-0.4c-0.1-0.4,0-0.8,0.4-0.9c0,0,0,0,0,0c9-3.7,15-2.8,15.2-2.8&#10;&#9;&#9;c0.4,0.1,0.6,0.4,0.6,0.8c-0.1,0.4-0.4,0.6-0.8,0.6c-0.1,0-5.9-0.8-14.5,2.7C77.2,295,77.1,295,77,295z"/>
</g>
<g id="Chair-2_consulting-86">
	<path class="st1_consulting-86" d="M437.8,198.6c20.9,15.2,23.7,46.9,24.2,70.8c0.5,22.4-4.5,43.8-9.1,65.6c-4.6,21.4-21.9,33-42.6,37.8&#10;&#9;&#9;c-30.7,7.1-64.4,8-95.7,4.5s-32.1-34.2-28.9-59.5c0.9-7,5.8-11.3,11.1-15.1c6.5-4.7,12.3-9.6,16.9-16.3&#10;&#9;&#9;c14.8-21.5,15.7-47,25.6-70.4c7.8-18.5,25.3-31.4,45.4-30.7S423.9,188.5,437.8,198.6L437.8,198.6z"/>
	<path class="st2_consulting-86" d="M350.2,380c-11.9,0-23.8-0.7-35.6-2c-9.7-1.1-17.2-4.9-22.3-11.4c-7.8-9.8-10.1-25.8-7.2-48.9&#10;&#9;&#9;c0.9-7.2,6-11.8,11.4-15.6c7.8-5.5,12.8-10.4,16.7-16.1c9-13,12.9-27.9,16.6-42.2c2.5-9.3,5-18.9,8.9-28&#10;&#9;&#9;c8.3-19.6,26.4-31.7,46-31.1c18.2,0.6,38.9,2.6,53.6,13.3c20.6,15,23.9,46,24.5,71.3c0.5,20.9-3.7,40.5-8.2,61.2l-1,4.6&#10;&#9;&#9;c-2.9,13.6-12.8,31.3-43.1,38.4C390.7,377.9,370.4,380.1,350.2,380z M383.2,186c-18.6,0-35.4,11.8-43.3,30.3&#10;&#9;&#9;c-3.8,9.1-6.4,18.6-8.8,27.8c-3.8,14.5-7.8,29.4-16.9,42.7c-4.1,5.9-9.2,10.8-17.1,16.5c-5.1,3.6-10,7.9-10.8,14.6&#10;&#9;&#9;c-2.8,22.7-0.6,38.3,6.9,47.8c4.9,6.2,12,9.8,21.4,10.8c33.7,3.7,66.7,2.2,95.4-4.5c29.7-6.9,39.3-24.1,42.1-37.3l1-4.6&#10;&#9;&#9;c4.4-20.6,8.6-40.1,8.1-60.9c-1.1-47.6-13.4-62.6-23.9-70.2l0,0c-14.4-10.4-34.8-12.4-52.8-13.1C384.1,186,383.7,186,383.2,186&#10;&#9;&#9;L383.2,186z"/>
	<path class="st0_consulting-86" d="M383,316.9c-15,0-28.8-3.6-40.5-10.5c-3.5-2.1-8.4-5.4-10.8-10.5c-2.2-4.6-1.3-11.6,0.8-15.8&#10;&#9;&#9;c1.7-3.4,4.8-4.9,7.7-6.4c1.7-0.8,3.3-1.7,4.8-2.9c4.2-3.5,5.4-10.8,6.3-16.2l3.6-21.6c2.1-12.7,5-25.7,15.2-32.4&#10;&#9;&#9;c6.3-4.1,14.5-5.4,26-3.9c10.9,1.4,19.9,4.2,27.4,8.6c11,6.2,18.6,17,20.9,29.5c1.7,9,4.1,26.3,1.7,42.1c-1,6.8-3.8,16.4-10.9,23.6&#10;&#9;&#9;c-4.7,4.7-10.9,8.1-20.2,11.1c-6.8,2.2-13.8,3.7-20.9,4.5l0,0C390.4,316.6,386.7,316.8,383,316.9L383,316.9z M387.4,197.6&#10;&#9;&#9;c-6.9,0-12.2,1.4-16.5,4.2c-9.8,6.4-12.6,19.1-14.6,31.5l-3.6,21.6c-0.9,5.6-2.2,13.2-6.8,17c-1.6,1.2-3.2,2.2-5,3&#10;&#9;&#9;c-2.9,1.5-5.6,2.8-7.1,5.8c-2,3.9-2.8,10.4-0.8,14.6c2.2,4.7,6.9,7.9,10.2,9.9c14.3,8.5,31.8,11.8,50.8,9.7l0,0&#10;&#9;&#9;c7-0.8,13.9-2.3,20.6-4.5c9.1-2.9,15.1-6.3,19.7-10.8c6.9-6.9,9.5-16.2,10.5-22.8c2.4-15.5-0.1-32.7-1.7-41.6&#10;&#9;&#9;c-2.2-12-9.6-22.5-20.2-28.5c-7.4-4.3-16.2-7.1-26.9-8.5C393.1,197.7,390.3,197.5,387.4,197.6L387.4,197.6z"/>
	<path class="st0_consulting-86" d="M434.5,295c-0.1,0-0.2,0-0.3,0c-8.6-3.5-14.4-2.7-14.5-2.7c-0.4,0.1-0.7-0.2-0.8-0.6c-0.1-0.4,0.2-0.7,0.6-0.8&#10;&#9;&#9;c0.2,0,6.2-0.9,15.2,2.8c0.4,0.2,0.5,0.6,0.4,0.9C435,294.8,434.8,295,434.5,295L434.5,295z"/>
</g>
<g id="Character_Male_consulting-86">
	<path class="st1_consulting-86" d="M250.7,366.9c0.4,0.5,3,2.5,5.3,2.6c2.3,0.1,27.7-4.7,28.7-1.2s-1,5.2-7.1,8.1c-8.1,3.8-35.4,12.8-35.4,12.8&#10;&#9;&#9;l-6-14L250.7,366.9L250.7,366.9z"/>
	<path class="st2_consulting-86" d="M242.3,389.8c-0.3,0-0.5-0.2-0.6-0.4l-6-14c-0.1-0.3,0-0.6,0.3-0.8l14.4-8.2c0.3-0.1,0.6-0.1,0.8,0.1&#10;&#9;&#9;c0.4,0.4,2.8,2.3,4.8,2.4c1.7-0.1,3.4-0.3,5.1-0.6c15.1-2.1,23.4-2.8,24.2-0.1c1.2,4-1.3,6-7.4,8.8c-8.1,3.8-35.2,12.7-35.4,12.8&#10;&#9;&#9;C242.4,389.8,242.3,389.8,242.3,389.8L242.3,389.8z M237.1,375.4l5.5,13c3.9-1.3,27.4-9.1,34.7-12.6c6.2-2.9,7.6-4.4,6.8-7.3&#10;&#9;&#9;c-0.6-2.1-17.4,0.2-22.8,1c-3.1,0.4-4.7,0.6-5.3,0.6c-2.1,0-4.4-1.6-5.4-2.4L237.1,375.4L237.1,375.4z"/>
	<path class="st1_consulting-86" d="M171.9,381.9c0,0,27.2,9.3,28.3,11.1s-0.9,3.9-8.1,4.5s-38.2-1-38.2-1s-0.4-8.4,1.6-12.6&#10;&#9;&#9;S171.9,381.9,171.9,381.9z"/>
	<path class="st2_consulting-86" d="M186.9,398.4c-11.1,0-32-1.1-33.1-1.2c-0.3,0-0.6-0.3-0.6-0.6c0-0.4-0.4-8.6,1.6-12.9&#10;&#9;&#9;c2.1-4.6,15.6-2.5,17.1-2.3c0,0,0.1,0,0.1,0c6.4,2.2,27.5,9.5,28.7,11.4c0.5,0.7,0.6,1.6,0.2,2.3c-0.8,1.7-3.9,2.8-8.8,3.3&#10;&#9;&#9;C191,398.4,189.2,398.4,186.9,398.4L186.9,398.4z M154.5,395.9c4.3,0.2,31,1.6,37.5,1c6.3-0.6,7.5-2.1,7.8-2.5&#10;&#9;&#9;c0.2-0.3,0.1-0.7-0.1-1c-1.1-1.3-17.7-7.3-28-10.8c-5.4-0.9-14.4-1.2-15.7,1.6C154.4,387.6,154.4,393.9,154.5,395.9L154.5,395.9z"/>
	<path class="st3_consulting-86 targetColor" d="M101.4,293.4c0,0-22.2-55.4-19.8-82.8s20.2-29,26.4-29.4s39.1-4.8,51.1,9.9s8.9,85.6,8.9,85.6L101.4,293.4&#10;&#9;&#9;L101.4,293.4z" style="fill: rgb(104, 225, 253);"/>
	<polygon class="st2_consulting-86" points="140.6,193.9 140.2,249.4 116.6,190.1 &#9;"/>
	<path class="st2_consulting-86" d="M140.2,250.1c-0.3,0-0.5-0.2-0.6-0.4l-23.6-59.3c-0.2-0.3,0-0.8,0.3-0.9c0.1-0.1,0.3-0.1,0.4-0.1l24,3.7&#10;&#9;&#9;c0.3,0.1,0.6,0.4,0.6,0.7l-0.4,55.5c0,0.3-0.2,0.6-0.6,0.7L140.2,250.1L140.2,250.1z M117.7,191l21.8,54.8l0.4-51.4L117.7,191&#10;&#9;&#9;L117.7,191z"/>
	<path class="st2_consulting-86" d="M169.4,262.7c0,0,27.1,7.3,51.3,23.7c11.1,7.6,31.9,81.6,31.9,81.6s-2.3,12.8-17.1,10.8L170.8,295&#10;&#9;&#9;C170.8,295,156.9,262.4,169.4,262.7L169.4,262.7z"/>
	<path class="st2_consulting-86" d="M238.5,379.8c-1,0-2.1-0.1-3.1-0.2c-0.2,0-0.4-0.1-0.5-0.3l-64.7-83.9c0,0-0.1-0.1-0.1-0.1&#10;&#9;&#9;c-0.4-1-10.1-23.9-5.3-31c1-1.5,2.8-2.3,4.6-2.2c0.1,0,0.1,0,0.2,0c0.3,0.1,27.5,7.5,51.6,23.8c11.2,7.6,31.3,78.9,32.1,82&#10;&#9;&#9;c0,0.1,0,0.2,0,0.3C253.3,368.3,251,379.8,238.5,379.8L238.5,379.8z M235.9,378.2c13,1.6,15.7-8.7,16-10.1&#10;&#9;&#9;c-1.1-3.9-21-73.9-31.6-81c-23.2-15.8-49.4-23.1-51-23.6h-0.1c-1.3-0.1-2.5,0.5-3.2,1.5c-4.3,6.3,4.8,28.1,5.4,29.6L235.9,378.2&#10;&#9;&#9;L235.9,378.2z"/>
	<path class="st2_consulting-86" d="M101.4,293.4c0,0,51.3-20.9,64.5-22.8c0,0,18.8,7,28.5,24.8S171.9,382,171.9,382c-5.3,3.1-11.6,4.2-17.6,3.1&#10;&#9;&#9;l-0.4-71.9C153.9,313.2,91.8,319.3,101.4,293.4z"/>
	<path class="st2_consulting-86" d="M159,386.2c-1.6,0-3.2-0.2-4.8-0.5c-0.3-0.1-0.6-0.3-0.6-0.7l-0.4-71.1c-5.9,0.5-41.9,3.1-51.2-8.9&#10;&#9;&#9;c-2.5-3.2-2.9-7.2-1.2-11.8c0.1-0.2,0.2-0.3,0.4-0.4c2.1-0.9,51.6-20.9,64.7-22.9c0.1,0,0.2,0,0.4,0c0.2,0.1,19.2,7.3,28.9,25.2&#10;&#9;&#9;s-21.2,84.3-22.5,87.1c-0.1,0.1-0.1,0.2-0.2,0.3C168.3,384.9,163.7,386.2,159,386.2L159,386.2z M155,384.5c5.6,0.9,11.4-0.2,16.4-3&#10;&#9;&#9;c1.8-4,31.6-68.8,22.5-85.7c-9-16.5-26.1-23.7-28-24.5c-12.7,2-59.7,21-63.9,22.6c-1.4,4-1.1,7.5,1,10.2&#10;&#9;&#9;c9.5,12.3,50.3,8.4,50.8,8.3c0.2,0,0.4,0.1,0.5,0.2c0.1,0.1,0.2,0.3,0.2,0.5L155,384.5L155,384.5z"/>
	<path class="st1_consulting-86" d="M193.3,325h-0.1c-0.4-0.1-0.6-0.4-0.6-0.8c1.8-10.3,3.7-26.5,1.3-29c-7.5-8.2-26-22-26.2-22.1&#10;&#9;&#9;c-0.3-0.2-0.4-0.7-0.1-1s0.7-0.4,1-0.1l0,0c0.2,0.1,18.8,13.9,26.4,22.3c3.5,3.9-0.5,27.5-1,30.2&#10;&#9;&#9;C193.9,324.8,193.6,325.1,193.3,325L193.3,325z"/>
	<path class="st3_consulting-86 targetColor" d="M159.1,191.2c0,0,8.9,17.1,14.1,25.9s16.6,21.4,16.6,21.4s40.3,14.3,40.5,15.1s-3.8,14.3-3.8,14.3&#10;&#9;&#9;s-42.3-3-49.2-6.3s-21.2-19.6-21.2-19.6L159.1,191.2L159.1,191.2z" style="fill: rgb(104, 225, 253);"/>
	<polygon class="st1_consulting-86" points="131.4,200 128.5,204.7 131.7,206.6 132.1,229 140.2,249.4 140.6,230.6 133.8,206 135.8,203.6 &#9;"/>
	<path class="st2_consulting-86" d="M140.2,250.1c-0.3,0-0.5-0.2-0.6-0.4l-8.1-20.4c0-0.1,0-0.2-0.1-0.2l-0.4-22l-2.9-1.7&#10;&#9;&#9;c-0.2-0.1-0.3-0.3-0.3-0.4c0-0.2,0-0.4,0.1-0.5l3-4.7c0.1-0.2,0.3-0.3,0.5-0.3c0.2,0,0.4,0,0.6,0.1l4.4,3.6&#10;&#9;&#9;c0.1,0.1,0.2,0.3,0.2,0.5c0,0.2,0,0.4-0.2,0.5l-1.8,2.1l6.7,24.2c0,0.1,0,0.1,0,0.2l-0.4,18.9C140.8,249.8,140.6,250,140.2,250.1&#10;&#9;&#9;L140.2,250.1L140.2,250.1z M132.8,228.9l6.8,17.1l0.3-15.3l-6.7-24.5c-0.1-0.2,0-0.5,0.1-0.6l1.6-1.8l-3.2-2.7l-2.2,3.4l2.6,1.6&#10;&#9;&#9;c0.2,0.1,0.3,0.3,0.3,0.6L132.8,228.9L132.8,228.9z"/>
	<path class="st1_consulting-86" d="M115.1,136.5c0.8-0.3,1.7-0.5,2.5-0.6c3.4-0.4,3.5,0.3,6.1-1.9c4-3.2,8.9-5,14-5.3c9.8-0.6,16.9,4.3,14.7,15&#10;&#9;&#9;c-0.9,4.3-3.2,8.2-5.7,11.7c-5.5,7.7-13.4,14.6-22.8,15.3c-2.8,0.2-8.1,0-10.1-2.3c-5.8-6.6-7.8-15.8-5.2-24.3&#10;&#9;&#9;c0.5-1.8,1.4-3.4,2.6-4.9C112.3,138,113.7,137.1,115.1,136.5L115.1,136.5z"/>
	<path class="st2_consulting-86" d="M122.2,171.5c-2.5,0-6.9-0.3-8.9-2.6c-6-6.8-8-16.3-5.3-25c0.5-1.9,1.5-3.6,2.7-5.1c1.1-1.3,2.6-2.4,4.2-3&#10;&#9;&#9;c0.9-0.3,1.8-0.6,2.7-0.7c0.9-0.1,1.6-0.1,2.1-0.1c1.4-0.1,1.8-0.1,3.6-1.6c4.1-3.3,9.1-5.2,14.3-5.4c5.8-0.4,10.5,1.1,13.2,4.3&#10;&#9;&#9;c2.4,2.8,3.2,6.8,2.2,11.6c-0.8,3.8-2.6,7.4-5.9,12c-4.8,6.7-12.8,14.8-23.3,15.6C123.7,171.5,123.1,171.5,122.2,171.5L122.2,171.5&#10;&#9;&#9;z M139.4,129.4c-0.5,0-1.1,0-1.6,0.1c-4.9,0.3-9.7,2.1-13.6,5.1c-2,1.7-2.7,1.8-4.4,1.9c-0.5,0-1.2,0-2,0.1&#10;&#9;&#9;c-0.8,0.1-1.6,0.3-2.3,0.6l0,0c-1.4,0.5-2.7,1.4-3.7,2.6c-1.1,1.4-1.9,3-2.4,4.7c-2.6,8.2-0.7,17.1,5,23.6c1.6,1.8,6,2.3,9.5,2.1&#10;&#9;&#9;c10-0.8,17.6-8.6,22.3-15c3.1-4.4,4.9-7.9,5.6-11.4c0.9-4.3,0.2-7.9-1.9-10.4S144,129.4,139.4,129.4L139.4,129.4z M115.1,136.5&#10;&#9;&#9;L115.1,136.5z"/>
	<path class="st1_consulting-86" d="M140.6,179.1v14.8c0,0-3.5,8.1-13.1,5.7s-10.9-9.4-10.9-9.4l0.4-27.4c0,0,7.2-3.8,5.3-19.4&#10;&#9;&#9;c7.9,3.5,16.6,4.8,25.2,3.8c0,0,3,17.1,1.9,24.6C148.4,179.1,140.7,179,140.6,179.1z"/>
	<path class="st2_consulting-86" d="M130.9,200.7c-1.2,0-2.5-0.2-3.7-0.5c-10-2.5-11.3-9.7-11.4-10l0.4-27.5c0-0.3,0.1-0.5,0.4-0.6&#10;&#9;&#9;c0.1,0,6.8-3.8,4.9-18.7c0-0.3,0.1-0.5,0.3-0.7c0.2-0.2,0.5-0.2,0.7-0.1c7.8,3.4,16.3,4.7,24.8,3.7c0.4,0,0.7,0.2,0.8,0.6&#10;&#9;&#9;c0.1,0.7,3,17.3,1.9,24.9c-0.6,4.5-3.8,7.2-8.8,7.8v14.1c0,0.1,0,0.2-0.1,0.3C139.3,198.1,135.3,200.7,130.9,200.7L130.9,200.7z&#10;&#9;&#9; M117.7,163.2l-0.4,27c0,0.1,1.2,6.4,10.3,8.7c8.5,2.1,11.8-4.1,12.3-5.1v-14.6c0-0.2,0.1-0.4,0.3-0.6c0.2-0.1,0.4-0.2,0.6-0.2&#10;&#9;&#9;c4.7-0.4,7.4-2.7,7.9-6.6c0.9-6.5-1.3-20.6-1.8-23.8c-8.1,0.8-16.2-0.3-23.8-3.4C124.4,157.7,119.1,162.2,117.7,163.2L117.7,163.2z&#10;&#9;&#9; M140.6,193.9L140.6,193.9z"/>
	<path class="st1_consulting-86" d="M122.7,162.4c-0.3-1.3-1.1-2.5-2.1-3.4c-1-0.8-2.2-1.4-3.4-1.8c-0.6-0.3-1.3-0.4-2-0.4c-0.5,0.1-1,0.2-1.4,0.5&#10;&#9;&#9;c-1.1,0.5-1.9,1.4-2.4,2.4c-0.3,0.9-0.3,1.8-0.2,2.8c0.1,1,0.3,2,0.7,3c1.6,3.9,6.1,5.8,10,4.2c0,0,0.1,0,0.1,0"/>
	<path class="st2_consulting-86" d="M119.1,170.9c-3.4,0-6.4-2-7.7-5.2c-0.4-1-0.6-2.1-0.8-3.1c-0.2-1-0.1-2.1,0.2-3.1c0.5-1.2,1.5-2.2,2.7-2.8&#10;&#9;&#9;c0.5-0.3,1.1-0.5,1.6-0.6c0.8,0,1.6,0.1,2.3,0.4c1.3,0.4,2.5,1,3.6,1.9c1.2,1,2,2.3,2.3,3.8c0.1,0.4-0.1,0.8-0.5,0.8&#10;&#9;&#9;c-0.4,0.1-0.7-0.1-0.8-0.5c-0.3-1.2-0.9-2.2-1.9-3c-1-0.7-2-1.3-3.2-1.6c-0.5-0.2-1.1-0.4-1.7-0.4c-0.4,0.1-0.8,0.2-1.1,0.4&#10;&#9;&#9;c-0.9,0.4-1.6,1.2-2,2.1c-0.2,0.8-0.3,1.6-0.1,2.4c0.1,1,0.3,1.9,0.7,2.8c1.5,3.6,5.6,5.3,9.2,3.8c0,0,0,0,0,0&#10;&#9;&#9;c0.3-0.2,0.8,0,0.9,0.3c0,0,0,0,0,0c0.2,0.4,0,0.8-0.4,0.9c0,0,0,0,0,0C121.4,170.7,120.3,170.9,119.1,170.9L119.1,170.9z"/>
	<path class="st1_consulting-86" d="M140,157c0,0,5.3,7.5,4.1,8.8s-4.6,0.6-4.6,0.6"/>
	<path class="st2_consulting-86" d="M141.6,167.3c-0.7,0-1.5-0.1-2.2-0.2c-0.4-0.1-0.6-0.5-0.5-0.8c0,0,0,0,0,0c0.1-0.4,0.5-0.6,0.8-0.5&#10;&#9;&#9;c1.2,0.3,3.2,0.4,3.9-0.3c0.3-0.7-1.6-4.4-4.1-7.9c-0.2-0.3-0.2-0.8,0.2-1c0,0,0,0,0,0c0.3-0.2,0.8-0.2,1,0.2c0,0,0,0,0,0&#10;&#9;&#9;c2.1,3,5.4,8.1,4,9.7C143.8,167,142.7,167.4,141.6,167.3L141.6,167.3z"/>
	
		<ellipse transform="matrix(6.157113e-02 -0.9981 0.9981 6.157113e-02 -27.6458 281.408)" class="st2_consulting-86" cx="135.8" cy="155.4" rx="1.8" ry="1.3"/>
	
		<ellipse transform="matrix(0.9975 -7.010469e-02 7.010469e-02 0.9975 -10.5361 10.6623)" class="st2_consulting-86" cx="146.6" cy="155.4" rx="1.3" ry="1.8"/>
	<path class="st2_consulting-86" d="M140.3,171.8c-2.9,0-6.7-0.5-9.3-2.5c-0.3-0.3-0.3-0.7,0-1c0.2-0.2,0.6-0.3,0.9-0.1c4,3.2,12.2,1.9,12.3,1.9&#10;&#9;&#9;c0.4-0.1,0.7,0.2,0.8,0.6c0,0,0,0,0,0c0.1,0.4-0.2,0.7-0.6,0.8C143,171.7,141.6,171.8,140.3,171.8L140.3,171.8z"/>
	<path class="st2_consulting-86" d="M149.7,164.8c-0.5,0-1.1,0-1.6-0.1c-5.1-0.9-8.5-5.8-7.7-10.9c0,0,0,0,0,0l0,0c0.9-5.1,5.7-8.6,10.9-7.7&#10;&#9;&#9;c5.1,0.9,8.6,5.7,7.7,10.9C158.3,161.5,154.3,164.8,149.7,164.8L149.7,164.8z M141.8,154c-0.8,4.4,2.2,8.5,6.5,9.3&#10;&#9;&#9;c4.4,0.8,8.5-2.2,9.3-6.5c0.8-4.4-2.2-8.5-6.5-9.3c-2.1-0.4-4.2,0.1-6,1.3C143.4,150,142.2,151.9,141.8,154z"/>
	<path class="st2_consulting-86" d="M131.5,164.1c-0.5,0-1.1,0-1.6-0.1c-5.1-0.9-8.6-5.8-7.7-10.9s5.8-8.6,10.9-7.7c5.1,0.9,8.6,5.8,7.7,10.9&#10;&#9;&#9;c-0.4,2.5-1.8,4.7-3.9,6.1C135.2,163.5,133.4,164.1,131.5,164.1L131.5,164.1z M131.5,146.7c-4.4,0-8,3.6-8,8c0,4.4,3.6,8,8,8&#10;&#9;&#9;c4.4,0,8-3.6,8-8c0-3.9-2.8-7.2-6.6-7.9C132.4,146.7,131.9,146.7,131.5,146.7z"/>
	<path class="st2_consulting-86" d="M140.6,179.1c0,0-9.2,2.1-14.6-1c0,0,6,12.4,14.6,11.1V179.1z"/>
	<path class="st2_consulting-86" d="M139.3,190c-8.3,0-13.7-11.1-14-11.6c-0.2-0.3-0.1-0.8,0.3-1c0.2-0.1,0.5-0.1,0.7,0c5.1,2.9,14,0.9,14.1,0.9&#10;&#9;&#9;c0.2,0,0.4,0,0.6,0.1c0.2,0.1,0.3,0.3,0.3,0.6v10.1c0,0.3-0.3,0.6-0.6,0.7C140.2,190,139.7,190,139.3,190L139.3,190z M127.6,179.6&#10;&#9;&#9;c1.9,3.2,6.5,9.4,12.3,9v-8.6C137.8,180.3,132.1,181.1,127.6,179.6L127.6,179.6z"/>
	<path class="st3_consulting-86 targetColor" d="M90.5,187.9c-7.5,1.3-38,71.7-27.5,79.8c16.3,12.5,72.9-0.1,72.9-0.1l-4.6-21.8c0,0-36.4,1-36.9-6.5&#10;&#9;&#9;s21.2-42.1,18.3-47.3S90.5,187.9,90.5,187.9L90.5,187.9z" style="fill: rgb(104, 225, 253);"/>
	<path class="st2_consulting-86" d="M108.3,274.8c-0.4,0-0.7-0.3-0.7-0.7c0-0.3,0.2-0.6,0.6-0.7l17.1-2.9l0.5-20l-32.1-3.3c-0.2,0-0.4-0.1-0.5-0.3&#10;&#9;&#9;c-0.1-0.2-0.2-0.4-0.1-0.6l14.2-49.2c0.1-0.4,0.5-0.6,0.9-0.5c0.4,0.1,0.6,0.5,0.5,0.9l0,0l-14,48.4l31.9,3.3&#10;&#9;&#9;c0.4,0,0.6,0.4,0.6,0.7l-0.6,21.2c0,0.3-0.2,0.6-0.6,0.7l-17.7,3L108.3,274.8z"/>
	<path class="st1_consulting-86" d="M127.3,253.1c6.1,0.4,12.1,0.1,18.1-0.9c4.6-0.9,8.7-1.8,13.5-1.6c6,0.3,11.9,1.6,17.4,4&#10;&#9;&#9;c0.2,0.1,0.4,0.2,0.6,0.4c0.5,0.8-0.7,1.5-1.6,1.5c-2.4,0.1-4.8-0.2-7.1-0.9c5.7,2.1,11.1,5,16.1,8.6c0.6,0.4,1.2,1,0.9,1.7&#10;&#9;&#9;s-1.4,0.5-2.2,0.2l-13-6c3.4,1.3,6.5,3.2,9.2,5.6c0.4,0.3,0.8,0.8,0.7,1.3c-0.2,0.9-1.5,0.7-2.3,0.3c-4-2-7.7-4.3-11.3-6.9l8,6.2&#10;&#9;&#9;c0.1,0.7-0.6,1.2-1.3,1.2c-0.7,0-1.3-0.3-1.9-0.6l-9-5.2l5.6,3.9c0.9,0.6,1.9,1.6,1.4,2.6c-0.5,1.2-2.2,0.8-3.4,0.3&#10;&#9;&#9;c-4.6-2-9.4-3.5-14.4-4.4c-1.8-0.4-3.5-1.1-5.3-1.1c-2.6,0.1-5.6,1.2-8.2,1.8c-4,0.9-8.1,1.8-12.2,2.8"/>
	<path class="st2_consulting-86" d="M168,269.9c-0.8,0-1.5-0.2-2.2-0.5c-4.6-2-9.4-3.5-14.2-4.4c-0.6-0.1-1.2-0.3-1.8-0.5&#10;&#9;&#9;c-1.1-0.4-2.2-0.6-3.4-0.6c-1.9,0.2-3.7,0.5-5.5,1.1c-0.9,0.2-1.7,0.5-2.5,0.7c-4.1,0.9-8.1,1.8-12.1,2.8c-0.3,0.1-0.7-0.1-0.8-0.5&#10;&#9;&#9;c-0.1-0.3,0.1-0.7,0.5-0.8c4.1-1,8.1-1.9,12.2-2.8c0.8-0.2,1.6-0.4,2.5-0.6c1.9-0.6,3.8-1,5.8-1.1c1.3,0,2.5,0.2,3.8,0.6&#10;&#9;&#9;c0.6,0.2,1.1,0.3,1.7,0.4c5,0.9,9.9,2.4,14.5,4.5c0.7,0.4,1.4,0.5,2.2,0.4c0.1-0.1,0.3-0.2,0.3-0.3c0.3-0.7-0.9-1.6-1.2-1.8&#10;&#9;&#9;l-5.6-3.9c-0.3-0.2-0.4-0.6-0.2-0.9c0.2-0.3,0.6-0.4,0.9-0.2l0,0l9,5.2c0.4,0.3,1,0.5,1.5,0.6c0.2,0,0.4-0.1,0.6-0.3v0l-7.7-5.9&#10;&#9;&#9;c-0.2-0.3-0.2-0.7,0-0.9c0.2-0.2,0.5-0.2,0.7-0.1c3.5,2.6,7.3,4.9,11.2,6.8c0.4,0.2,0.9,0.3,1.3,0.2c0.1-0.1,0.1-0.3-0.4-0.8&#10;&#9;&#9;c-1.9-1.6-3.9-3-6.2-4.2l-2.9-1.3c-0.3-0.1-0.5-0.5-0.3-0.8c0.1-0.3,0.5-0.5,0.8-0.3c1,0.4,2,0.9,3,1.4l10.1,4.6&#10;&#9;&#9;c0.4,0.2,0.8,0.3,1.2,0.2c0.2-0.3-0.1-0.6-0.6-1c-4.9-3.5-10.3-6.4-16-8.5c-0.3-0.1-0.5-0.5-0.4-0.8c0.1-0.3,0.4-0.5,0.8-0.4&#10;&#9;&#9;c2.2,0.6,4.6,0.9,6.9,0.9c0.4,0,0.9-0.2,1.2-0.5l-0.3-0.1c-5.5-2.3-11.3-3.7-17.2-3.9c-3.9-0.1-7.9,0.3-11.7,1.2l-1.6,0.3&#10;&#9;&#9;c-6,1-12.2,1.3-18.2,0.9c-0.4,0-0.6-0.3-0.6-0.7c0,0,0,0,0,0c0-0.3,0.3-0.6,0.6-0.6c0,0,0,0,0,0c6,0.4,12,0.1,18-0.9l1.6-0.3&#10;&#9;&#9;c3.9-0.9,8-1.3,12-1.2c6.1,0.3,12.1,1.6,17.7,4c0.3,0.1,0.6,0.3,0.9,0.6c0.3,0.4,0.3,0.9,0.1,1.3c-0.5,0.8-1.4,1.2-2.3,1.2&#10;&#9;&#9;c-0.6,0-1.2,0-1.8,0c3.9,1.8,7.7,4,11.2,6.5c1.1,0.8,1.5,1.7,1.1,2.5c-0.2,0.4-0.4,0.6-0.8,0.8c-0.7,0.2-1.5,0.1-2.2-0.2l-3.1-1.4&#10;&#9;&#9;l0,0c0.6,0.4,1,1.2,0.9,1.9c-0.1,0.4-0.4,0.8-0.8,1c-0.8,0.3-1.7,0.2-2.4-0.2c-0.8-0.4-1.6-0.8-2.3-1.2c0,0.4-0.1,0.7-0.4,1&#10;&#9;&#9;c-0.4,0.4-0.9,0.7-1.5,0.7c-0.8,0-1.6-0.3-2.2-0.7l-1.1-0.6c0.3,0.5,0.3,1.1,0.1,1.6c-0.2,0.5-0.5,0.8-1,1&#10;&#9;&#9;C168.6,269.8,168.3,269.8,168,269.9L168,269.9z"/>
	<path class="st1_consulting-86" d="M151.5,200c0,0,6.7,27.2,12.7,46.5"/>
	<path class="st2_consulting-86" d="M164.1,247.2c-0.3,0-0.5-0.2-0.6-0.4c-5.9-19.1-12.6-46.3-12.7-46.6c-0.1-0.3,0.1-0.7,0.5-0.8&#10;&#9;&#9;c0.3-0.1,0.7,0.1,0.8,0.5c0,0,0,0,0,0c0.1,0.3,6.7,27.4,12.6,46.5c0.1,0.3-0.1,0.7-0.4,0.8C164.3,247.1,164.2,247.2,164.1,247.2z"/>
	<polygon class="st1_consulting-86" points="231.4,279.3 231.1,283.1 145.4,295.6 146.3,291.6 &#9;"/>
	<path class="st2_consulting-86" d="M145.4,296.3c-0.2,0-0.4-0.1-0.5-0.2c-0.2-0.2-0.2-0.4-0.2-0.6l0.9-4c0.1-0.3,0.3-0.5,0.6-0.5l85.1-12.3&#10;&#9;&#9;c0.2,0,0.4,0,0.6,0.2c0.2,0.1,0.2,0.4,0.2,0.6l-0.3,3.8c0,0.3-0.3,0.6-0.6,0.6l-85.7,12.5L145.4,296.3L145.4,296.3z M146.9,292.3&#10;&#9;&#9;l-0.6,2.5l84.1-12.3l0.2-2.4L146.9,292.3L146.9,292.3z"/>
	<path class="st1_consulting-86" d="M231.4,279.3c0,0-19.5-16.7-20.1-16.6S123,273.4,123,273.4l23.3,18.2L231.4,279.3L231.4,279.3z"/>
	<path class="st2_consulting-86" d="M146.3,292.4c-0.2,0-0.3-0.1-0.4-0.1L122.6,274c-0.2-0.2-0.3-0.5-0.2-0.7c0.1-0.3,0.3-0.5,0.6-0.5&#10;&#9;&#9;c0.9-0.1,86.8-10.4,88.2-10.6c0.4-0.1,1-0.2,20.7,16.7c0.2,0.2,0.3,0.5,0.2,0.7c-0.1,0.3-0.3,0.5-0.6,0.5l-85.1,12.3L146.3,292.4&#10;&#9;&#9;L146.3,292.4z M124.8,273.9l21.7,17l83.3-12.1c-6.9-5.9-17.1-14.5-18.6-15.4C206.6,264.1,142,271.8,124.8,273.9L124.8,273.9z"/>
	<polygon class="st1_consulting-86" points="145.4,295.6 122.7,277.2 123,273.4 146.3,291.6 &#9;"/>
	<path class="st2_consulting-86" d="M145.4,296.3c-0.2,0-0.3-0.1-0.4-0.2l-22.7-18.4c-0.2-0.1-0.3-0.4-0.3-0.6l0.3-3.8c0-0.3,0.2-0.5,0.4-0.6&#10;&#9;&#9;c0.2-0.1,0.5-0.1,0.7,0.1l23.3,18.2c0.2,0.2,0.3,0.4,0.2,0.7l-0.9,4c0,0.2-0.2,0.4-0.4,0.5C145.6,296.3,145.5,296.3,145.4,296.3&#10;&#9;&#9;L145.4,296.3z M123.4,276.9l21.6,17.5l0.5-2.5l-21.9-17.2L123.4,276.9L123.4,276.9z"/>
	<polygon class="st1_consulting-86" points="231.4,279.3 247.9,224.2 157.6,239.6 146.3,291.6 &#9;"/>
	<path class="st2_consulting-86" d="M146.3,292.4c-0.2,0-0.4-0.1-0.5-0.2c-0.2-0.2-0.2-0.4-0.2-0.6l11.3-52.1c0.1-0.3,0.3-0.5,0.6-0.5l90.3-15.4&#10;&#9;&#9;c0.2,0,0.5,0,0.6,0.2c0.2,0.2,0.2,0.4,0.1,0.7l-16.5,55.2c-0.1,0.3-0.3,0.5-0.6,0.5l-85.1,12.3L146.3,292.4L146.3,292.4z&#10;&#9;&#9; M158.2,240.2l-11,50.6l83.7-12.1l16-53.6L158.2,240.2L158.2,240.2z M231.4,279.3L231.4,279.3z"/>
</g>
<g id="Character_Female_consulting-86">
	<path class="st1_consulting-86" d="M332.5,213.3L289,189.4c0,0-2.5-7.1-5.1-9.3s-1,5.6-1,5.6s-14.9-9.5-16.4-6.9s-4,13,1,17.1&#10;&#9;&#9;c4.5,3.6,12.8,4.4,12.8,4.4c23.2,18.7,55.9,39.3,55.9,39.3"/>
	<path class="st2_consulting-86" d="M336.2,240.3c-0.1,0-0.3,0-0.4-0.1c-0.3-0.2-32.9-20.8-55.8-39.2c-1.4-0.2-8.7-1.2-12.9-4.6&#10;&#9;&#9;c-5.3-4.2-3-15-1.2-18c0.2-0.4,0.6-0.6,1-0.7c2.8-0.7,11.5,4.4,15,6.6c-0.3-2-0.5-4.4,0.6-5c0.4-0.2,1-0.4,1.9,0.4&#10;&#9;&#9;c2.6,2.1,4.8,8,5.3,9.4l43.2,23.7c0.3,0.2,0.5,0.6,0.3,0.9c-0.2,0.3-0.6,0.5-1,0.3l-43.4-23.9c-0.2-0.1-0.3-0.2-0.3-0.4&#10;&#9;&#9;c0-0.1-2.4-7-4.9-9c-0.1-0.1-0.2-0.1-0.3-0.2c-0.2,0.6-0.1,2.9,0.4,5.1c0.1,0.3,0,0.6-0.3,0.7c-0.2,0.2-0.5,0.2-0.8,0&#10;&#9;&#9;c-4.8-3-13.2-7.7-15.2-7.2c-0.1,0-0.1,0-0.1,0.1c-1.6,2.6-3.8,12.5,0.9,16.1c4.2,3.4,12.3,4.3,12.4,4.3c0.1,0,0.3,0.1,0.4,0.1&#10;&#9;&#9;c22.9,18.4,55.5,39.1,55.9,39.3c0.3,0.2,0.4,0.6,0.2,1C336.7,240.2,336.5,240.3,336.2,240.3L336.2,240.3z"/>
	<path class="st1_consulting-86" d="M321.7,348.1c0,0,3.1,35.9,1.9,38.3s-32.1,7-32.7,3.7s15.1-9.7,15.1-9.7l-3.4-29.4"/>
	<path class="st2_consulting-86" d="M295.5,391.9c-1,0-2,0-3-0.2c-0.9-0.2-2.1-0.5-2.3-1.5c-0.6-3.4,10.8-8.5,15-10.3l-3.4-28.9&#10;&#9;&#9;c0-0.4,0.2-0.7,0.6-0.8c0,0,0,0,0,0c0.4,0,0.7,0.2,0.8,0.6l3.5,29.4c0,0.3-0.1,0.6-0.4,0.7c-7.3,3-15,7.3-14.7,9&#10;&#9;&#9;c0,0,0.4,0.5,3.4,0.5c9,0.3,26.8-3.1,28-4.5c0.8-1.8-0.8-24.1-2-37.8c0-0.4,0.3-0.7,0.6-0.8c0.4,0,0.7,0.3,0.8,0.6&#10;&#9;&#9;c0.5,6,3.1,36.3,1.8,38.7S304.1,391.9,295.5,391.9L295.5,391.9z"/>
	<path class="st1_consulting-86" d="M367.3,357.5c0,0,4.3,31.8,2.1,32.7s-32.7,2.4-32.2-0.3s15.5-7.8,15.5-7.8l-5.4-31"/>
	<path class="st2_consulting-86" d="M349.2,392.2c-5.9,0-11.1-0.3-12.3-1.3c-0.3-0.2-0.5-0.7-0.4-1.1c0.5-2.7,11.3-6.7,15.4-8.1l-5.3-30.4&#10;&#9;&#9;c-0.1-0.4,0.2-0.7,0.6-0.8c0,0,0,0,0,0c0.4-0.1,0.7,0.2,0.8,0.5c0,0,0,0,0,0l5.4,31c0.1,0.3-0.1,0.7-0.5,0.8&#10;&#9;&#9;c-6.8,2.3-14.2,5.6-15,7c0.9,0.5,4.9,1.1,15.4,0.8c7.6-0.2,14.5-0.7,15.7-1.1c1-1.8-0.5-17.5-2.4-32c0-0.4,0.2-0.7,0.6-0.8&#10;&#9;&#9;c0.4-0.1,0.7,0.2,0.8,0.6c0,0,0,0,0,0c2,14.7,3.9,32.5,1.7,33.4C368.3,391.4,358,392.2,349.2,392.2L349.2,392.2z"/>
	<path class="st2_consulting-86" d="M333.8,293.9c-0.7,2.5-7.2,69.3-7.2,69.3h-26.2c0,0-12.1-67-8.1-83.6c2.7-11.4,15.1-17,27.7-13.3&#10;&#9;&#9;c18.8-0.7,38-3.1,38-3.1L333.8,293.9z"/>
	<path class="st2_consulting-86" d="M326.5,363.9h-26.2c-0.3,0-0.6-0.2-0.7-0.6c-0.5-2.7-12-67.4-8.1-83.9c1.2-5,4.4-9.4,8.9-11.9&#10;&#9;&#9;c5.5-3.2,12.6-3.9,19.5-1.9c18.5-0.7,37.6-3.1,37.8-3.1c0.4-0.1,0.7,0.2,0.8,0.6c0,0.2,0,0.4-0.1,0.5l-24.1,30.6&#10;&#9;&#9;c-0.7,3.4-5.4,50.8-7.2,69.1C327.2,363.6,326.9,363.9,326.5,363.9L326.5,363.9z M300.9,362.5h25c0.7-7.2,6.5-66.3,7.2-68.8&#10;&#9;&#9;c0-0.1,0.1-0.2,0.1-0.2l23.1-29.4c-5.1,0.6-21,2.3-36.4,2.9c-0.1,0-0.1,0-0.2,0c-6.6-1.9-13.3-1.3-18.5,1.7&#10;&#9;&#9;c-4.2,2.4-7.2,6.4-8.3,11C289.3,295.2,299.8,355.9,300.9,362.5L300.9,362.5z"/>
	<path class="st2_consulting-86" d="M414.6,272.5c0,0,8.2,13.7-4.5,29.1s-49-0.8-49-0.8l9.1,60.3l-26.6-0.3c0,0-27.8-82.1-24.6-90.6&#10;&#9;&#9;s25.9-12.4,25.9-12.4L414.6,272.5L414.6,272.5z"/>
	<path class="st2_consulting-86" d="M370.2,361.8L370.2,361.8l-26.6-0.3c-0.3,0-0.6-0.2-0.7-0.5c-1.1-3.4-27.8-82.5-24.5-91.1s25.5-12.7,26.4-12.9&#10;&#9;&#9;c0.1,0,0.2,0,0.3,0l69.7,14.7c0.2,0,0.4,0.2,0.5,0.3c0.1,0.1,8.4,14.3-4.6,29.9c-5.4,6.5-15.8,8.5-30,5.6&#10;&#9;&#9;c-6.4-1.3-12.6-3.3-18.7-5.7l8.9,59.1c0.1,0.4-0.2,0.7-0.6,0.8C370.2,361.8,370.2,361.8,370.2,361.8L370.2,361.8z M344.1,360.1&#10;&#9;&#9;l25.3,0.3l-8.9-59.5c0-0.3,0.1-0.5,0.3-0.7c0.2-0.2,0.5-0.2,0.7-0.1c0.4,0.2,36,15.8,48.2,1c6.4-7.8,7.3-15,6.9-19.8&#10;&#9;&#9;c-0.2-2.9-1-5.7-2.3-8.3l-69.2-14.6c-1.8,0.3-22.3,4.2-25.2,12C317.2,277.2,336.3,337.1,344.1,360.1L344.1,360.1z"/>
	<path class="st1_consulting-86" d="M328.3,314.8c-0.3,0-0.5-0.2-0.6-0.4c-0.6-1.5-14.7-37.5-10.3-46.6c0.4-1,1.3-1.8,2.4-2.1&#10;&#9;&#9;c0.4-0.1,0.8,0.1,0.9,0.4c0.1,0.4-0.1,0.8-0.4,0.9c0,0,0,0-0.1,0c-0.7,0.2-1.2,0.7-1.5,1.4c-4.1,8.5,10.2,45.1,10.3,45.4&#10;&#9;&#9;c0.1,0.4,0,0.8-0.4,0.9C328.5,314.7,328.4,314.8,328.3,314.8L328.3,314.8z"/>
	<path class="st1_consulting-86" d="M361.1,301.5c-0.1,0-0.3,0-0.4-0.1c-0.4-0.2-8.6-5.2-11-8.8c-0.2-0.3-0.1-0.8,0.2-1s0.8-0.1,1,0.2l0,0&#10;&#9;&#9;c2.2,3.3,10.4,8.3,10.5,8.4c0.3,0.2,0.5,0.6,0.3,1c0,0,0,0,0,0C361.6,301.4,361.4,301.6,361.1,301.5L361.1,301.5z"/>
	<path class="st3_consulting-86 targetColor" d="M414.6,272.5c0,0,29.2-72.1,7.6-88.6s-52.4-9.2-56.6,6.3s-20.8,67.6-20.8,67.6S398,273.6,414.6,272.5&#10;&#9;&#9;L414.6,272.5z" style="fill: rgb(104, 225, 253);"/>
	<polygon class="st2_consulting-86" points="384.1,191.8 379,242.6 406.9,188.2 &#9;"/>
	<path class="st2_consulting-86" d="M379,243.3c-0.1,0-0.1,0-0.2,0c-0.3-0.1-0.5-0.4-0.5-0.7l5.1-50.9c0-0.3,0.3-0.6,0.6-0.6l22.8-3.6&#10;&#9;&#9;c0.3,0,0.5,0.1,0.7,0.3c0.2,0.2,0.2,0.5,0.1,0.7L379.6,243C379.5,243.2,379.3,243.4,379,243.3L379,243.3z M384.7,192.3l-4.6,46.7&#10;&#9;&#9;l25.6-49.9L384.7,192.3L384.7,192.3z"/>
	<path class="st3_consulting-86 targetColor" d="M367.6,184l-36.5,25.8l3.3,32.8l39.1-16.5C373.6,226.1,380,189.8,367.6,184L367.6,184z" style="fill: rgb(104, 225, 253);"/>
	<path class="st1_consulting-86" d="M381.7,184.7c2.7-0.7,5.3-1.4,8.2-0.9c4.3,0.8,8.2,2.8,12.6,3.4c4.7,0.6,9.7,0.2,14.5,0c1.4-0.1,0.1,1.8,1.2,1&#10;&#9;&#9;c4-2.9,3.8-8.6,3.7-12.9c0.1-9.9-1.1-19.8-3.7-29.4c-1.4-5-6.9-23.2-15-15.3c1.8-1.8-7-5.9-8.3-6.3c-11.4-3.2-21.8,6.9-24.4,17.4&#10;&#9;&#9;c-1.9,7.6-2,15.1-5.6,22.3c-1.6,3.1-3.7,6.3-3.8,9.8c-0.2,4.2,2.7,8.2,6.5,10.2c3.9,1.8,8.3,2.2,12.5,1.1&#10;&#9;&#9;C380.6,185,381.2,184.9,381.7,184.7L381.7,184.7z"/>
	<path class="st2_consulting-86" d="M417.8,189.2c-0.1,0-0.3,0-0.4-0.1c-0.3-0.2-0.5-0.6-0.4-1V188l-2.2,0.1c-4.1,0.3-8.2,0.3-12.4-0.1&#10;&#9;&#9;c-2.3-0.4-4.6-1-6.8-1.8c-1.9-0.7-3.8-1.2-5.8-1.6c-2.6-0.4-5,0.1-7.5,0.8l-0.4,0.1l-1.7,0.4c-3.4,0.7-8.4,1.1-12.9-1.2&#10;&#9;&#9;c-4.3-2.2-7-6.5-6.9-10.8c0.1-3,1.6-5.8,3-8.4c0.3-0.6,0.6-1.1,0.9-1.7c2.4-4.7,3.2-9.6,4.1-14.7c0.4-2.4,0.8-4.9,1.5-7.4&#10;&#9;&#9;c1.7-6.6,5.8-12.3,11.6-15.9c4.1-2.5,9-3.2,13.6-2c0.8,0.2,7.3,3.1,8.7,5.5c1.3-1,3-1.4,4.5-1c4.9,1.3,8.4,10.3,10.5,17.6&#10;&#9;&#9;c2.6,9.7,3.8,19.6,3.7,29.6v0.6c0,4.2,0,10-4,12.9C418.4,189.1,418.1,189.2,417.8,189.2L417.8,189.2z M417,186.6&#10;&#9;&#9;c0.4,0,0.7,0.1,1,0.4c0.1,0.1,0.2,0.2,0.2,0.4c3-2.7,3-7.5,3-11.4v-0.5c0.1-9.9-1.1-19.7-3.7-29.2c-2.8-9.9-6.2-15.8-9.5-16.7&#10;&#9;&#9;c-1.4-0.4-2.8,0.2-4.4,1.6c-0.3,0.3-0.7,0.3-1,0s-0.3-0.7,0-1c0.3-1.1-6-4.6-8-5.1c-4.3-1.1-8.8-0.5-12.5,1.8&#10;&#9;&#9;c-5.5,3.4-9.4,8.8-11,15c-0.6,2.4-1,4.9-1.4,7.3c-0.9,5-1.8,10.2-4.3,15.1c-0.3,0.6-0.6,1.2-0.9,1.7c-1.3,2.5-2.7,5-2.8,7.8&#10;&#9;&#9;c-0.1,3.8,2.3,7.6,6.1,9.5c4.2,2.1,8.8,1.8,12,1.1c0.5-0.1,1.1-0.2,1.6-0.4l0.4-0.1c2.5-0.6,5.2-1.3,8-0.8c2,0.4,4,1,6,1.7&#10;&#9;&#9;c2.1,0.8,4.3,1.4,6.6,1.8c4,0.4,8.1,0.4,12.1,0.1l2.2-0.1L417,186.6L417,186.6z"/>
	<path class="st1_consulting-86" d="M374.9,145.8c0,0-3.8,11.8-1.5,20.5c1.2,5,5.2,8.9,10.2,9.8l0.5,15.6c0,0,0.2,8,9.9,6.5&#10;&#9;&#9;c5.8-0.9,10.6-4.7,12.9-10.1l0.3-28.8c0,0-11.3-6.1-10.6-16.4C396.5,142.9,383.5,149.7,374.9,145.8L374.9,145.8z"/>
	<path class="st2_consulting-86" d="M391.6,199.1c-2,0.1-4-0.5-5.6-1.8c-1.6-1.4-2.6-3.4-2.7-5.6l-0.4-15.1c-5.1-1.2-9-5.1-10.2-10.2&#10;&#9;&#9;c-2.3-8.9,1.4-20.4,1.6-20.9c0.1-0.2,0.2-0.3,0.4-0.4c0.2-0.1,0.4-0.1,0.6,0c8.2,3.7,20.9-2.8,21-2.8c0.2-0.1,0.5-0.1,0.7,0&#10;&#9;&#9;c0.2,0.1,0.3,0.4,0.3,0.6c-0.6,9.8,10.1,15.7,10.3,15.8c0.2,0.1,0.4,0.4,0.4,0.6l-0.3,28.8c0,0.1,0,0.2,0,0.2&#10;&#9;&#9;c-2.3,5.6-7.4,9.6-13.4,10.5C393.3,199,392.5,199.1,391.6,199.1L391.6,199.1z M375.4,146.7c-0.8,2.7-3.2,12.2-1.3,19.4&#10;&#9;&#9;c1.1,4.8,4.9,8.4,9.7,9.3c0.3,0,0.6,0.3,0.6,0.7l0.5,15.6c0.1,1.7,0.9,3.4,2.2,4.5c1.6,1.3,3.9,1.8,6.9,1.3&#10;&#9;&#9;c5.5-0.9,10.1-4.5,12.3-9.5l0.3-28.3c-1.9-1.1-10.5-6.7-10.6-15.7C392.6,145.6,382.7,149.6,375.4,146.7L375.4,146.7z"/>
	<path class="st1_consulting-86" d="M401.7,157.5c0,0,4.5-11,10.2-4.3s-2.1,14.4-6.9,13.9"/>
	<path class="st2_consulting-86" d="M405.4,167.8c-0.2,0-0.4,0-0.5,0c-0.4-0.1-0.6-0.4-0.6-0.8c0.1-0.4,0.4-0.6,0.7-0.6c2.4,0.2,5.7-1.9,7.2-4.8&#10;&#9;&#9;c1.5-2.6,1.1-5.8-0.9-8c-1.2-1.4-2.4-2.1-3.6-1.9c-2.5,0.4-4.8,4.5-5.4,6c-0.2,0.3-0.6,0.5-0.9,0.3c-0.3-0.2-0.4-0.5-0.3-0.8&#10;&#9;&#9;c0.1-0.2,2.6-6.2,6.5-6.9c1.7-0.3,3.3,0.5,4.9,2.4c2.4,2.6,2.8,6.5,1.1,9.5C411.8,165.5,408.3,167.8,405.4,167.8L405.4,167.8z"/>
	<path class="st2_consulting-86" d="M381.2,166.6c-0.8,0-1.5-0.1-2.2-0.4c-0.3-0.2-0.6-0.5-0.7-0.8c-0.5-2,3.3-7.5,4.4-9.2c0.2-0.3,0.7-0.4,1-0.2&#10;&#9;&#9;c0.3,0.2,0.4,0.7,0.2,1c-2.5,3.6-4.5,7.3-4.2,8c1.2,0.5,3.6,0,4.4-0.2c0.4-0.1,0.8,0.1,0.9,0.4c0.1,0.4-0.1,0.8-0.4,0.9&#10;&#9;&#9;c0,0,0,0-0.1,0C383.5,166.4,382.4,166.6,381.2,166.6L381.2,166.6z"/>
	<path class="st2_consulting-86" d="M383.6,176.1c0,0,8.4,0.8,13.1-0.6c0,0-4.9,12.5-12.8,12.6L383.6,176.1z"/>
	<path class="st2_consulting-86" d="M383.9,188.9c-0.4,0-0.7-0.3-0.7-0.7l-0.3-12.1c0-0.2,0.1-0.4,0.2-0.5c0.1-0.1,0.3-0.2,0.5-0.2&#10;&#9;&#9;c0.1,0,8.3,0.8,12.9-0.5c0.3-0.1,0.5,0,0.7,0.2c0.2,0.2,0.2,0.5,0.1,0.7C397.2,176.3,392.2,188.7,383.9,188.9L383.9,188.9z&#10;&#9;&#9; M384.3,176.9l0.3,10.6c5.6-0.7,9.5-7.9,10.9-10.9C391.8,177.1,388.1,177.2,384.3,176.9L384.3,176.9z"/>
	
		<ellipse transform="matrix(2.547903e-02 -0.9997 0.9997 2.547903e-02 224.1295 539.4955)" class="st2_consulting-86" cx="388.8" cy="154.8" rx="2.1" ry="1.2"/>
	
		<ellipse transform="matrix(2.547903e-02 -0.9997 0.9997 2.547903e-02 213.3608 527.9066)" class="st2_consulting-86" cx="377.4" cy="154.5" rx="2.1" ry="1.2"/>
	<path class="st1_consulting-86" d="M421.8,169.8c0.6,9.2,1.4,26.1-13.2,21.9c-3.1-0.9-5.7-2.9-7.2-5.7c-2.9-5,4.7-12.2,8.3-15.5"/>
	<path class="st2_consulting-86" d="M412.7,193c-1.5,0-2.9-0.2-4.4-0.7c-3.2-0.9-6-3.1-7.7-6c-2.9-5.1,3.4-11.8,8.4-16.4c0.3-0.2,0.8-0.1,1,0.2&#10;&#9;&#9;c0.2,0.2,0.2,0.6,0,0.8c-2.7,2.5-10.8,9.9-8.2,14.7c1.5,2.6,3.9,4.5,6.8,5.4c3.7,1,6.6,0.8,8.6-0.9c4.8-3.9,4.1-15,3.8-20.4&#10;&#9;&#9;c0-0.4,0.3-0.7,0.6-0.7c0,0,0,0,0,0c0.4,0,0.7,0.3,0.7,0.6c0,0,0,0,0,0c0.4,6,1.1,17.2-4.3,21.5C416.6,192.4,414.7,193,412.7,193&#10;&#9;&#9;L412.7,193z"/>
	<path class="st2_consulting-86" d="M389.9,169.8c0,0.8-1.2,1.4-2.8,1.4s-0.9-0.6-0.9-1.4s-0.6-1.4,0.9-1.4S389.9,169.1,389.9,169.8z"/>
	<path class="st3_consulting-86 targetColor" d="M424.8,187.7c0,0-12.9,10.8-13,19.9s9.8,51.8,9.8,51.8l26.9-15C448.6,244.4,438,191.4,424.8,187.7L424.8,187.7&#10;&#9;&#9;z" style="fill: rgb(104, 225, 253);"/>
	<path class="st2_consulting-86" d="M346.4,253.9c-0.1,0-0.1,0-0.2,0c-0.4-0.1-0.6-0.5-0.5-0.9c0,0,0,0,0,0l19.3-63c0.1-0.4,0.5-0.6,0.8-0.5&#10;&#9;&#9;s0.6,0.5,0.5,0.8c0,0,0,0.1,0,0.1l-19.3,63C346.9,253.7,346.7,253.9,346.4,253.9L346.4,253.9z"/>
	<path class="st2_consulting-86" d="M421.9,257.2c-0.3,0-0.6-0.2-0.7-0.5c-10.9-48.6-10.2-49.2-9.8-49.6c0.3-0.3,0.7-0.2,1,0.1&#10;&#9;&#9;c0.2,0.2,0.2,0.5,0.1,0.7c-0.1,2.3,6,30.2,10.1,48.5c0.1,0.4-0.2,0.8-0.5,0.8L421.9,257.2z"/>
	<polygon class="st1_consulting-86" points="384.3,256.5 334.1,275.4 311.9,259.4 355.7,246.2 &#9;"/>
	<path class="st2_consulting-86" d="M334.1,276.1c-0.1,0-0.3,0-0.4-0.1l-22.3-16c-0.2-0.2-0.3-0.4-0.3-0.7c0-0.3,0.2-0.5,0.5-0.6l43.9-13.2&#10;&#9;&#9;c0.1,0,0.3,0,0.4,0l28.6,10.3c0.3,0.1,0.5,0.4,0.5,0.6c0,0.3-0.2,0.6-0.5,0.7l-50.2,18.9C334.3,276.1,334.2,276.1,334.1,276.1&#10;&#9;&#9;L334.1,276.1z M313.4,259.7l20.8,15l48.1-18.1l-26.6-9.6L313.4,259.7L313.4,259.7z"/>
	<path class="st1_consulting-86" d="M445.4,246.2c0,0,5.5,28.3-9.7,31S370,270,370,270s-17.6,3.1-16.4-1.3s12.1-6.5,12.1-6.5s-9-4.4-4.6-4.4&#10;&#9;&#9;s14.1,1.6,14.1,1.6l46.8-6.2"/>
	<path class="st2_consulting-86" d="M428.9,278.4c-19.1,0-55.8-7.1-58.8-7.6c-2.6,0.5-14.2,2.3-16.7-0.3c-0.5-0.5-0.6-1.2-0.5-1.9&#10;&#9;&#9;c0.9-3.7,7.4-5.7,10.7-6.6c-4.8-2.5-4.5-3.5-4.5-3.9c0.2-0.9,1.4-0.9,1.9-0.9c4.7,0.3,9.5,0.8,14.1,1.6l46.7-6.2&#10;&#9;&#9;c0.4-0.1,0.7,0.2,0.8,0.6c0.1,0.4-0.2,0.7-0.6,0.8l-46.8,6.2h-0.2c-0.1,0-9.7-1.5-14-1.6h-0.2c1.6,1.2,3.3,2.2,5.1,3&#10;&#9;&#9;c0.3,0.1,0.4,0.4,0.4,0.7c0,0.3-0.3,0.5-0.6,0.6c-2.9,0.5-10.7,2.7-11.5,6c-0.1,0.2,0,0.4,0.1,0.6c1.5,1.6,10.3,0.8,15.5-0.1&#10;&#9;&#9;c0.1,0,0.2,0,0.3,0c0.5,0.1,50.6,9.8,65.5,7.2c2.7-0.5,5.1-2,6.6-4.3c5.7-8.3,2.6-25.2,2.5-25.9c-0.1-0.4,0.2-0.8,0.6-0.8&#10;&#9;&#9;c0.4-0.1,0.8,0.2,0.8,0.6l0,0l-0.7,0.1l0.7-0.1c0.4,1.9,3.2,18.3-2.7,27c-1.7,2.6-4.4,4.4-7.5,4.9&#10;&#9;&#9;C433.7,278.3,431.3,278.4,428.9,278.4L428.9,278.4z"/>
	<path class="st2_consulting-86" d="M279.8,196.5c-0.4,0-0.7-0.3-0.7-0.6c-0.5-4.6,3-10.3,3.1-10.6c0.2-0.3,0.6-0.5,0.9-0.3s0.5,0.6,0.3,0.9&#10;&#9;&#9;c0,0,0,0.1-0.1,0.1c0,0.1-3.4,5.5-2.9,9.7C280.5,196.1,280.3,196.5,279.8,196.5C279.9,196.5,279.9,196.5,279.8,196.5L279.8,196.5&#10;&#9;&#9;L279.8,196.5z"/>
	<path class="st0_consulting-86" d="M337,270.1c-0.1,0-0.3,0-0.4-0.1L321,260c-0.3-0.2-0.4-0.6-0.2-1c0,0,0,0,0,0c0.2-0.3,0.6-0.4,1-0.2&#10;&#9;&#9;c0,0,0,0,0,0l15.6,10c0.3,0.2,0.4,0.6,0.2,1c0,0,0,0,0,0C337.5,270,337.3,270.2,337,270.1z"/>
	<path class="st0_consulting-86" d="M342.7,267.6c-0.1,0-0.3,0-0.4-0.1l-14.8-9.5c-0.3-0.2-0.4-0.6-0.2-1c0,0,0,0,0,0c0.2-0.3,0.6-0.4,1-0.2&#10;&#9;&#9;c0,0,0,0,0,0l14.8,9.5c0.3,0.2,0.4,0.6,0.2,1c0,0,0,0,0,0C343.2,267.5,342.9,267.7,342.7,267.6z"/>
	<path class="st0_consulting-86" d="M348.1,265.8c-0.1,0-0.3,0-0.4-0.1l-15-9.6c-0.3-0.2-0.4-0.6-0.2-1c0,0,0,0,0,0c0.2-0.3,0.6-0.4,1-0.2&#10;&#9;&#9;c0,0,0,0,0,0l15,9.6c0.3,0.2,0.4,0.6,0.2,1c0,0,0,0,0,0C348.6,265.7,348.3,265.8,348.1,265.8z"/>
	<path class="st0_consulting-86" d="M355,263.9c-0.1,0-0.2,0-0.4-0.1l-16.1-9.5c-0.3-0.2-0.5-0.6-0.3-1c0,0,0,0,0,0c0.2-0.3,0.6-0.5,0.9-0.3&#10;&#9;&#9;c0,0,0,0,0.1,0l16.1,9.5c0.3,0.2,0.5,0.6,0.3,1c0,0,0,0,0,0C355.5,263.8,355.3,263.9,355,263.9L355,263.9z"/>
	<path class="st0_consulting-86" d="M359.9,262.3c-0.1,0-0.2,0-0.4-0.1l-16.1-9.5c-0.3-0.2-0.5-0.6-0.3-1c0,0,0,0,0,0c0.2-0.3,0.6-0.5,0.9-0.3&#10;&#9;&#9;c0,0,0,0,0.1,0l16.1,9.5c0.3,0.2,0.5,0.6,0.3,1c0,0,0,0,0,0C360.4,262.1,360.2,262.3,359.9,262.3L359.9,262.3z"/>
</g>
</svg>