<svg version="1.1" id="Layer_1" xmlns="http://www.w3.org/2000/svg" xmlns:xlink="http://www.w3.org/1999/xlink" x="0px" y="0px" viewBox="0 0 500 500" style="width: 166px;" xml:space="preserve" data-imageid="creative-process-1-52" imageName="Creative Process 1" class="illustrations_image">
<style type="text/css">
	.st0_creative-process-1-52{fill:#FFFFFF;}
	.st1_creative-process-1-52{fill:#093F68;}
	.st2_creative-process-1-52{fill:#DFEAEF;}
	.st3_creative-process-1-52{fill:#FFC9B0;}
	.st4_creative-process-1-52{fill:#FFBC0E;}
	.st5_creative-process-1-52{fill:#68E1FD;}
</style>
<g id="board_creative-process-1-52">
	<rect x="84.6" y="147.7" class="st0_creative-process-1-52" width="294.8" height="252.2"/>
	<path class="st1_creative-process-1-52" d="M379.3,402.1H84.6c-1.2,0-2.2-1-2.2-2.2c0,0,0,0,0,0V147.7c0-1.2,1-2.2,2.2-2.2h294.8c1.2,0,2.2,1,2.2,2.2l0,0&#10;&#9;&#9;v252.2C381.6,401.1,380.6,402.1,379.3,402.1C379.3,402.1,379.3,402.1,379.3,402.1z M86.8,397.6h290.3V149.9H86.8V397.6z"/>
	<path class="st2_creative-process-1-52" d="M345.6,195.7h-34.4c-1.2,0.1-2.3-0.8-2.4-2.1s0.8-2.3,2.1-2.4c0.1,0,0.2,0,0.3,0h34.4c1.2-0.1,2.3,0.8,2.4,2.1&#10;&#9;&#9;s-0.8,2.3-2.1,2.4C345.8,195.7,345.7,195.7,345.6,195.7z"/>
	<path class="st2_creative-process-1-52" d="M221.5,331.2c-25.8,0-46.7-20.9-46.7-46.7c0-25.8,20.9-46.7,46.7-46.7c25.8,0,46.7,20.9,46.7,46.7&#10;&#9;&#9;C268.2,310.3,247.3,331.2,221.5,331.2z M221.5,242.3c-23.3,0-42.3,18.9-42.3,42.2c0,23.3,18.9,42.3,42.2,42.3&#10;&#9;&#9;c23.3,0,42.3-18.9,42.3-42.2c0,0,0,0,0,0C263.7,261.2,244.8,242.3,221.5,242.3z"/>
	<path class="st2_creative-process-1-52" d="M288.6,182.2h-51.5c-1.2,0-2.2-1-2.2-2.2c0-1.2,1-2.2,2.2-2.2h51.5c1.2,0,2.2,1,2.2,2.2&#10;&#9;&#9;C290.8,181.2,289.8,182.2,288.6,182.2L288.6,182.2z"/>
	<path class="st2_creative-process-1-52" d="M288.6,199.9h-51.5c-1.2,0.1-2.3-0.8-2.4-2.1s0.8-2.3,2.1-2.4c0.1,0,0.2,0,0.3,0h51.5c1.2-0.1,2.3,0.8,2.4,2.1&#10;&#9;&#9;s-0.8,2.3-2.1,2.4C288.8,199.9,288.7,199.9,288.6,199.9L288.6,199.9z"/>
	<path class="st2_creative-process-1-52" d="M270.2,217.5h-33.1c-1.2,0-2.2-1-2.2-2.2c0-1.2,1-2.2,2.2-2.2h33.1c1.2,0,2.2,1,2.2,2.2&#10;&#9;&#9;C272.5,216.5,271.5,217.5,270.2,217.5z"/>
	<path class="st2_creative-process-1-52" d="M324.1,383.3h-78.3c-1.2,0-2.2-1-2.2-2.2c0,0,0,0,0,0v-33.9c0-1.2,1-2.2,2.2-2.2c0,0,0,0,0,0h78.3&#10;&#9;&#9;c1.2,0,2.2,1,2.2,2.2c0,0,0,0,0,0v33.9C326.4,382.3,325.4,383.3,324.1,383.3C324.1,383.3,324.1,383.3,324.1,383.3z M248.1,378.8&#10;&#9;&#9;h73.8v-29.4h-73.9L248.1,378.8z"/>
	<path class="st2_creative-process-1-52" d="M154.5,336.5c-1.2,0-2.2-1-2.2-2.2c0-0.5,0.2-1,0.5-1.4c7.4-9.7,16-18.3,25.7-25.7c1-0.8,2.4-0.6,3.1,0.3&#10;&#9;&#9;c0.8,1,0.6,2.4-0.3,3.1c-0.1,0-0.1,0.1-0.2,0.1c-9.3,7.1-17.6,15.5-24.7,24.8C155.9,336.2,155.2,336.5,154.5,336.5z"/>
	<path class="st2_creative-process-1-52" d="M179.2,218.2h-40.1c-1.2-0.1-2.2-1.1-2.1-2.4c0.1-1.1,1-2,2.1-2.1h40.1c1.2-0.1,2.3,0.8,2.4,2.1&#10;&#9;&#9;s-0.8,2.3-2.1,2.4C179.4,218.2,179.3,218.2,179.2,218.2z"/>
	<path class="st2_creative-process-1-52" d="M179.2,239h-40.1c-1.2,0-2.2-1-2.2-2.2c0-1.2,1-2.2,2.2-2.2h40.1c1.2,0,2.2,1,2.2,2.2&#10;&#9;&#9;C181.4,238,180.4,239,179.2,239z"/>
	<path class="st2_creative-process-1-52" d="M170.3,250.1h-12.6c-1.2,0-2.2-1-2.2-2.2c0-1.2,1-2.2,2.2-2.2h12.6c1.2,0,2.2,1,2.2,2.2&#10;&#9;&#9;C172.5,249.1,171.5,250.1,170.3,250.1z"/>
	<path class="st2_creative-process-1-52" d="M151.7,259.7h-12.6c-1.2,0-2.2-1-2.2-2.2s1-2.2,2.2-2.2h12.6c1.2,0,2.2,1,2.2,2.2S152.9,259.7,151.7,259.7&#10;&#9;&#9;L151.7,259.7z"/>
	<path class="st2_creative-process-1-52" d="M262.9,251.7c-1.2,0-2.2-1-2.2-2.2c0-1,0.6-1.8,1.5-2.1l0,0c0.7-0.2,17.3-6.1,20.6-27.3c0.1-1.2,1.2-2.1,2.5-2&#10;&#9;&#9;s2.1,1.2,2,2.5c0,0.1,0,0.1,0,0.2c-3.8,23.9-22.8,30.5-23.6,30.8C263.3,251.7,263.1,251.7,262.9,251.7z"/>
	<path class="st2_creative-process-1-52" d="M131.7,373.5c-0.2,0-0.4,0-0.7-0.1c-1.2-0.4-1.8-1.6-1.5-2.8c0,0,0,0,0,0c1.7-5.3,3.6-10.5,5.9-15.6&#10;&#9;&#9;c3.7-8.3,8.2-9.7,11.3-9.4c4.6,0.5,7.4,4.8,9,8s3.1,5.7,5.4,6.3c1.8,0.5,3.7-0.6,5-1.7c1.6-1.7,2.9-3.6,3.9-5.6l11.7-21.3&#10;&#9;&#9;c0.6-1.1,2-1.5,3-0.9s1.5,2,0.9,3l0,0l-11.7,21.3c-1.2,2.5-2.8,4.8-4.8,6.8c-2.4,2.3-5.7,3.4-9,2.7c-4.5-1.1-6.8-5.6-8.3-8.6&#10;&#9;&#9;c-1.2-2.3-3-5.4-5.5-5.6c-3.2-0.3-5.6,4.1-6.8,6.7c-2.2,4.9-4.1,10-5.7,15.1C133.6,372.8,132.7,373.5,131.7,373.5z"/>
	<path class="st2_creative-process-1-52" d="M203.4,189.9h-73.2c-1.2,0-2.2-1-2.2-2.2v-18.9c0-1.2,1-2.2,2.2-2.2h73.2c1.2,0,2.2,1,2.2,2.2v18.9&#10;&#9;&#9;C205.6,188.9,204.6,189.9,203.4,189.9z M132.4,185.5h68.8V171h-68.8V185.5z"/>
</g>
<g id="pencil_creative-process-1-52">
	<path class="st3_creative-process-1-52" d="M444.5,399.9c-0.3-1.5-24.5-166.2-40.2-193.1c-12.4-21.2-61.4-20.2-69.7-17.9s-63.3,30.1-66,32.5&#10;&#9;&#9;c-6.6,5.6-7.9,19.9,9,19.3c6.2,4.3,12.1,8.9,17.7,13.9c10.4,9,11.5,12,11.5,12s25.7,24.4,36.8,31.5c0,0-6.9,16.2,0.6,23.6&#10;&#9;&#9;s17.8,12.1,17.8,12.1l6.6,66.1H444.5z"/>
	<path class="st1_creative-process-1-52" d="M444.5,402.1h-75.9c-1.1,0-2.1-0.9-2.2-2l-6.5-64.9c-3-1.5-11.1-5.8-17.3-11.9c-6.9-6.9-3.4-19.6-1.7-24.3&#10;&#9;&#9;c-11.7-8.1-34.6-29.8-35.6-30.7c-0.3-0.2-0.4-0.5-0.6-0.9c0,0-1.4-3-10.8-11.1c-5.4-4.7-11-9.2-16.9-13.3&#10;&#9;&#9;c-9.9,0.2-13.2-4.7-14.4-7.6c-2-5.1,0-11.8,4.6-15.7c3.4-2.9,58.6-30.6,66.9-32.9c8.9-2.5,59.1-3.5,72.2,18.9&#10;&#9;&#9;c12.7,21.8,30.5,128.6,39.9,190.3c0.3,2,0.5,3.2,0.5,3.4c0.1,0.7-0.1,1.3-0.5,1.8C445.8,401.8,445.2,402.1,444.5,402.1z&#10;&#9;&#9; M370.6,397.6h71.3c0-0.3-0.1-0.6-0.1-1c-16-104.5-30.3-173.3-39.3-188.8c-6.2-10.6-22.3-14.9-34.8-16.7&#10;&#9;&#9;c-14.6-2.1-28.6-1.2-32.4-0.2c-8.5,2.4-62.4,29.8-65.2,32c-3.1,2.6-4.5,7.4-3.3,10.6c1.6,4.1,6.8,4.8,10.8,4.7&#10;&#9;&#9;c0.5,0,0.9,0.1,1.3,0.4c6.3,4.3,12.2,9,17.9,14c8.5,7.4,11,11,11.8,12.4c2.9,2.7,26,24.5,36.1,30.9c0.9,0.6,1.3,1.7,0.9,2.7&#10;&#9;&#9;c-1.7,4.1-5.1,16,0.1,21.2c7.1,7,17.1,11.6,17.2,11.6c0.7,0.3,1.2,1,1.3,1.8L370.6,397.6z"/>
	<polygon class="st4_creative-process-1-52" points="289.5,296 256.5,261.7 325.6,196.2 358.7,230.6 &#9;"/>
	<path class="st1_creative-process-1-52" d="M289.5,298.2c-0.6,0-1.2-0.2-1.6-0.7l-33-34.4c-0.9-0.9-0.8-2.3,0.1-3.2c0,0,0,0,0,0l69.2-65.4&#10;&#9;&#9;c0.9-0.8,2.3-0.8,3.1,0.1l33,34.4c0.9,0.9,0.8,2.3-0.1,3.1c0,0,0,0,0,0L291,297.6C290.6,298,290,298.2,289.5,298.2z M259.6,261.7&#10;&#9;&#9;l29.9,31.1l66-62.4l-29.9-31.1L259.6,261.7z"/>
	<polygon class="st0_creative-process-1-52" points="289.5,296 254.8,311 227.1,322.9 240.1,295.7 256.5,261.7 &#9;"/>
	<path class="st1_creative-process-1-52" d="M227.1,325.1c-1.2,0-2.2-1-2.2-2.2c0-0.3,0.1-0.7,0.2-1l29.3-61.2c0.5-1.1,1.9-1.6,3-1&#10;&#9;&#9;c0.2,0.1,0.4,0.3,0.6,0.5l33,34.3c0.5,0.5,0.7,1.3,0.6,2c-0.1,0.7-0.6,1.3-1.3,1.6L228,324.9C227.7,325.1,227.4,325.1,227.1,325.1z&#10;&#9;&#9; M257.1,265.5l-25.4,53l53.9-23.2L257.1,265.5z"/>
	<path class="st5_creative-process-1-52 targetColor" d="M447.5,187.5c21.6-20.8,22.3-55.2,1.6-76.8s-55.2-22.3-76.8-1.6c-10.4,10-16.4,23.7-16.7,38.1&#10;&#9;&#9;c-0.3,9.9-3.4,19.6-8.9,27.9l-1,1.6l33.4,34.8l2-1.2c8.8-5.1,18.8-7.7,28.9-7.6C423.9,202.7,437.4,197.3,447.5,187.5z" style="fill: rgb(104, 225, 253);"/>
	<path class="st1_creative-process-1-52" d="M379,213.7c-0.6,0-1.2-0.2-1.6-0.7L344,178.2c-0.7-0.8-0.8-1.9-0.3-2.8l1-1.6c5.3-7.9,8.2-17.2,8.6-26.7&#10;&#9;&#9;c0.6-31.2,26.5-56,57.7-55.4c13.8,0.3,26.9,5.6,37.1,14.9c11.6,10.5,18.2,25.4,18.4,41.1c0.2,15.6-6.1,30.6-17.4,41.4l0,0&#10;&#9;&#9;c-10.5,10.1-24.5,15.8-39.1,15.8c-9.8-0.1-19.4,2.4-27.8,7.3l-2,1.2C379.8,213.6,379.4,213.7,379,213.7z M348.4,176.4l31,32.2&#10;&#9;&#9;l0.5-0.3c9.1-5.3,19.5-8,30.1-7.9c13.4,0,26.3-5.2,36-14.5l0,0c20.8-19.9,21.5-52.9,1.6-73.7c-19.1-19.9-50.4-21.5-71.4-3.6&#10;&#9;&#9;c-11.3,9.7-18,23.7-18.3,38.6c-0.3,10.3-3.5,20.4-9.3,29L348.4,176.4z M447.5,187.5L447.5,187.5z"/>
	<path class="st0_creative-process-1-52" d="M344.7,175.8l35.1,36.6c0.9,0.9,0.8,2.3-0.1,3.2l-4.8,4.6c-0.9,0.9-2.3,0.8-3.2-0.1l-35.1-36.6&#10;&#9;&#9;c-0.9-0.9-0.8-2.3,0.1-3.2l4.8-4.6C342.4,174.9,343.8,174.9,344.7,175.8z"/>
	<path class="st1_creative-process-1-52" d="M373.5,221.9h-0.1c-1.9,0-3.7-0.8-5.1-2.2L337,187.1c-2.8-2.9-2.7-7.5,0.2-10.2l0.8-0.8&#10;&#9;&#9;c2.9-2.8,7.5-2.7,10.2,0.2l31.3,32.6c2.8,2.9,2.7,7.5-0.2,10.2l-0.8,0.8C377.2,221.1,375.4,221.9,373.5,221.9z M343,178.5&#10;&#9;&#9;c-0.7,0-1.4,0.3-1.9,0.8l-0.8,0.8c-1.1,1.1-1.1,2.8-0.1,3.9l31.3,32.6l0,0c0.5,0.5,1.2,0.8,2,0.9c0.7,0,1.5-0.3,2-0.8l0.8-0.8&#10;&#9;&#9;c1.1-1.1,1.1-2.8,0.1-3.9L345,179.3C344.5,178.8,343.8,178.5,343,178.5z"/>
	<path class="st0_creative-process-1-52" d="M336.7,183.5l35.1,36.6c0.9,0.9,0.8,2.3-0.1,3.2l-4.8,4.6c-0.9,0.9-2.3,0.8-3.2-0.1l-35.1-36.6&#10;&#9;&#9;c-0.9-0.9-0.8-2.3,0.1-3.2l4.8-4.6C334.4,182.6,335.8,182.6,336.7,183.5z"/>
	<path class="st1_creative-process-1-52" d="M365.5,229.6c-2,0-3.9-0.8-5.2-2.2l0,0l-31.3-32.6c-2.8-2.9-2.7-7.5,0.2-10.2c0,0,0,0,0,0l0.8-0.8&#10;&#9;&#9;c1.4-1.3,3.2-2.1,5.2-2c1.9,0,3.7,0.8,5.1,2.2l31.3,32.6c2.8,2.9,2.7,7.5-0.2,10.2c0,0,0,0,0,0l-0.8,0.8&#10;&#9;&#9;C369.1,228.9,367.3,229.6,365.5,229.6z M363.5,224.3c1.1,1.1,2.8,1.1,3.9,0.1l0.8-0.8c0.5-0.5,0.8-1.2,0.9-2c0-0.7-0.3-1.5-0.8-2&#10;&#9;&#9;L337,187.1c-1.1-1.1-2.8-1.2-3.9-0.1c0,0,0,0-0.1,0.1l-0.8,0.8c-0.5,0.5-0.8,1.2-0.9,1.9c0,0.7,0.3,1.5,0.8,2L363.5,224.3z"/>
	<path class="st0_creative-process-1-52" d="M328.6,191.3l35.1,36.6c0.9,0.9,0.8,2.3-0.1,3.2l-4.8,4.6c-0.9,0.9-2.3,0.8-3.2-0.1L320.6,199&#10;&#9;&#9;c-0.9-0.9-0.8-2.3,0.1-3.2l4.8-4.6C326.3,190.3,327.8,190.4,328.6,191.3z"/>
	<path class="st1_creative-process-1-52" d="M357.4,237.3c-2,0-3.9-0.8-5.2-2.2l0,0l-31.3-32.6c-2.8-2.9-2.7-7.5,0.2-10.2l0.8-0.8&#10;&#9;&#9;c2.9-2.8,7.5-2.7,10.2,0.2l31.3,32.6c2.8,2.9,2.7,7.5-0.2,10.2l-0.8,0.8C361.1,236.6,359.3,237.3,357.4,237.3z M355.4,232&#10;&#9;&#9;c1.1,1.1,2.8,1.2,4,0.1c0,0,0,0,0,0l0.8-0.8c0.5-0.5,0.8-1.2,0.9-2c0-0.7-0.3-1.5-0.8-2L329,194.7c-1.1-1.1-2.8-1.1-3.9-0.1&#10;&#9;&#9;l-0.8,0.8c-1.1,1.1-1.1,2.8-0.1,3.9L355.4,232z"/>
	<path class="st1_creative-process-1-52" d="M367.5,199.8c-1.2,0-2.2-1-2.2-2.2c0-0.6,0.2-1.2,0.7-1.6c7.2-7.1,14.6-14.1,22.3-21.2&#10;&#9;&#9;c-2.3-1.8-4.4-3.8-6.4-5.9c-6.2,7.9-12.8,15.6-19.8,22.8c-0.9,0.9-2.3,0.9-3.2,0.1s-0.9-2.3-0.1-3.2l0,0&#10;&#9;&#9;c7.1-7.4,13.8-15.1,20.1-23.2l-0.2-0.3c-8.4-10.8-9.6-20.8-3.8-30.7c1.9-3.1,4.3-6.6,8-8.6c2.6-1.4,5.6-1.6,8.4-0.6&#10;&#9;&#9;c3.1,1.1,5.7,3.4,7,6.5c2.7,6-0.2,12.5-2.7,16.9c-3.3,5.8-6.9,11.3-10.9,16.7c2.1,2.3,4.5,4.5,6.9,6.5l0,0&#10;&#9;&#9;c9.6-9,20.4-14.2,30.5-14.9c2.3-0.2,4.7,0.1,6.8,1c4.2,2,6.9,6.2,7,10.8c0,4.3-1.8,8.5-5,11.5c-4.3,4.1-10.1,6.3-16,6.1&#10;&#9;&#9;c-7.9-0.1-16-3.7-23-8.7c-7.8,7.3-15.4,14.4-22.7,21.6C368.7,199.6,368.1,199.8,367.5,199.8z M395.2,174.3&#10;&#9;&#9;c6.2,4.2,13.3,7.2,19.7,7.3c4.7,0.2,9.3-1.6,12.8-4.8c2.3-2.1,3.6-5.1,3.6-8.2c0-2.9-1.7-5.5-4.2-6.8c-1.5-0.6-3.2-0.8-4.8-0.6&#10;&#9;&#9;C413.5,161.8,403.9,166.4,395.2,174.3L395.2,174.3z M387.7,129c-1,0-1.9,0.2-2.8,0.7c-2.8,1.4-4.7,4.3-6.2,6.9&#10;&#9;&#9;c-4.9,8.2-4,15.9,2.9,25c3.6-4.9,7-10,10-15.3c2.2-3.8,4.4-8.8,2.5-12.9c-0.8-1.9-2.4-3.4-4.4-4.1C389.1,129.1,388.4,129,387.7,129&#10;&#9;&#9;z"/>
	<polygon class="st1_creative-process-1-52" points="254.8,311 227.1,322.9 240.1,295.7 &#9;"/>
	<path class="st1_creative-process-1-52" d="M227.1,325.1c-0.6,0-1.2-0.2-1.6-0.7c-0.6-0.7-0.8-1.7-0.4-2.5l13-27.2c0.5-1.1,1.9-1.6,3-1&#10;&#9;&#9;c0.2,0.1,0.5,0.3,0.6,0.5l14.6,15.2c0.5,0.5,0.7,1.3,0.6,2c-0.1,0.7-0.6,1.3-1.3,1.6L228,325C227.7,325.1,227.4,325.1,227.1,325.1z&#10;&#9;&#9; M240.8,299.6l-9.1,18.9l19.3-8.3L240.8,299.6z"/>
	<path class="st1_creative-process-1-52" d="M266.7,274.5c-1.2,0-2.2-1-2.2-2.2c0-0.6,0.3-1.2,0.7-1.6l65.2-61.6c0.9-0.9,2.3-0.9,3.2,0&#10;&#9;&#9;c0.9,0.9,0.9,2.3,0,3.2c0,0-0.1,0.1-0.1,0.1l-65.2,61.6C267.8,274.3,267.3,274.5,266.7,274.5z"/>
	<path class="st1_creative-process-1-52" d="M279.2,287.6c-0.6,0-1.2-0.2-1.6-0.7c-0.8-0.9-0.8-2.3,0.1-3.1c0,0,0,0,0,0l65.2-61.6c0.9-0.8,2.3-0.7,3.1,0.2&#10;&#9;&#9;c0.8,0.9,0.7,2.2-0.1,3L280.8,287C280.4,287.4,279.8,287.6,279.2,287.6z"/>
	<path class="st3_creative-process-1-52" d="M351.8,252.9c0,0-66-23.8-72.4-18.4s-7.7,11.7,3.7,24.4c11.4,12.7,40.9,25.8,40.9,25.8s-11.8,36.8,38.1,49"/>
	<path class="st1_creative-process-1-52" d="M362,336c-0.2,0-0.4,0-0.5-0.1c-17.8-4.4-30-12.3-36.3-23.6c-4.4-8-5.7-17.4-3.8-26.3&#10;&#9;&#9;c-6.6-3-29.8-14.3-39.9-25.6c-6.5-7.3-9.4-13-9.1-18c0.2-3.5,2-6.6,5.6-9.6c6.6-5.6,54.3,10.8,74.5,18c1.1,0.6,1.5,1.9,1,3&#10;&#9;&#9;c-0.5,0.9-1.5,1.4-2.5,1.2c-30.5-11-66-21.3-70.2-18.8c-2.6,2.2-3.8,4.2-4,6.5c-0.3,3.7,2.3,8.5,7.9,14.8&#10;&#9;&#9;c10.9,12.2,39.8,25.1,40.1,25.2c1,0.5,1.6,1.6,1.2,2.7c-2.2,8.3-1.1,17.2,3,24.8c5.7,10.1,17,17.3,33.5,21.4c1.2,0.3,2,1.4,1.7,2.6&#10;&#9;&#9;C364.1,335.3,363.1,336,362,336z"/>
</g>
<g id="setting_creative-process-1-52">
	<path class="st5_creative-process-1-52 targetColor" d="M179.7,339c-0.1-3.3-2.5-6.1-5.7-6.9c-2.8-0.6-5.6-1-8.3-1.5c-0.8-0.1-1.4-0.6-1.6-1.4&#10;&#9;&#9;c-0.8-2.2-1.8-4.4-2.7-6.6c-0.3-0.5-0.3-1.2,0.1-1.7c1.7-2.3,3.4-4.6,4.9-7c1.9-2.8,1.6-6.5-0.6-8.9c-2.6-2.8-5.3-5.4-7.9-8.1&#10;&#9;&#9;c-2.7-3.1-7.4-3.5-10.7-1c-2.1,1.5-4.2,2.9-6.2,4.4c-0.5,0.4-1.1,0.5-1.7,0.2c-2.4-1-4.7-2-7.1-3c-0.6-0.2-1-0.7-1.1-1.3&#10;&#9;&#9;c-0.4-2.6-0.8-5.1-1.3-7.6c-0.5-3.7-3.6-6.5-7.4-6.6c-3.9-0.1-7.9-0.1-11.8,0c-3.4,0.1-6.4,2.5-7.1,5.8c-0.6,2.9-1.1,5.8-1.6,8.6&#10;&#9;&#9;c-0.1,0.6-0.5,1.1-1.1,1.3c-2.3,0.9-4.6,1.9-6.8,2.9c-0.5,0.3-1.1,0.2-1.6-0.1c-2.3-1.7-4.5-3.4-6.9-4.9c-2.8-1.9-6.5-1.7-9,0.6&#10;&#9;&#9;c-3,2.7-5.9,5.6-8.7,8.6s-2.8,6.7-0.5,10c1.5,2.2,3.1,4.4,4.6,6.6c0.2,0.4,0.3,0.8,0.1,1.2c-1,2.5-1.9,4.9-3,7.4&#10;&#9;&#9;c-0.2,0.4-0.5,0.7-0.9,0.8c-2.5,0.5-5.1,0.9-7.6,1.3c-3.8,0.6-6.7,3.5-6.8,7.2c-0.1,4.1-0.1,8.2,0,12.3c0.1,3.3,2.5,6.1,5.7,6.8&#10;&#9;&#9;c2.9,0.7,5.9,1.1,8.8,1.6c0.6,0,1.1,0.4,1.2,1c0.9,2.3,1.9,4.6,2.9,6.9c0.3,0.5,0.2,1.1-0.1,1.5c-1.6,2.1-3.1,4.2-4.6,6.4&#10;&#9;&#9;c-2.4,3.2-2,7.6,0.9,10.4c2.4,2.5,4.9,5,7.4,7.5c3.2,3.1,7,3.4,10.6,0.8c2.1-1.5,4.3-3,6.4-4.6c0.4-0.3,0.9-0.4,1.4-0.1&#10;&#9;&#9;c2.2,0.9,4.4,1.9,6.6,2.7c0.7,0.2,1.2,0.8,1.2,1.5c0.4,2.5,0.8,5,1.2,7.5c0.5,3.6,3.4,6.3,7,6.6c4.1,0.1,8.3,0.1,12.4,0&#10;&#9;&#9;c3.3-0.2,6.1-2.5,6.9-5.8c0.6-2.8,1-5.6,1.5-8.4c0-0.7,0.5-1.3,1.2-1.5c2.3-0.9,4.6-1.8,6.9-2.8c0.5-0.3,1.1-0.2,1.5,0.1&#10;&#9;&#9;c2.1,1.5,4.2,3,6.4,4.6c1.5,1.1,3.3,1.6,5.1,1.6c1.7,0,3.3-0.7,4.6-1.9c2.7-2.6,5.3-5.2,8-7.8c3.2-3.2,3.6-7.1,1-10.8&#10;&#9;&#9;c-1.5-2.1-2.9-4.2-4.4-6.2c-0.4-0.4-0.4-1-0.1-1.5c1-2.3,2-4.6,2.9-7c0.2-0.6,0.7-1,1.3-1.1c2.5-0.4,5.1-0.8,7.6-1.2&#10;&#9;&#9;c3.7-0.5,6.5-3.6,6.7-7.3C179.8,347,179.8,343,179.7,339z M116.6,372.3c-15,0-27.2-12.2-27.1-27.3c0-15,12.2-27.2,27.3-27.1&#10;&#9;&#9;c15,0,27.2,12.2,27.1,27.2C143.8,360.2,131.6,372.3,116.6,372.3L116.6,372.3z" style="fill: rgb(104, 225, 253);"/>
	<path class="st1_creative-process-1-52" d="M116.8,374.3h-0.2c-7.8,0-15.4-3.2-20.8-8.8c-5.4-5.4-8.4-12.8-8.3-20.5c0.2-16,13.1-29,29.2-29.1l0,0&#10;&#9;&#9;c16.1,0,29.2,13.1,29.2,29.2c0,7.8-3.2,15.3-8.7,20.8C131.7,371.3,124.4,374.3,116.8,374.3z M116.7,319.9&#10;&#9;&#9;c-13.9,0-25.1,11.1-25.2,25c0,0,0,0.1,0,0.1c-0.1,6.6,2.5,12.9,7.1,17.6c4.7,4.9,11.2,7.6,18,7.6h0.2c6.5,0,12.8-2.6,17.5-7.2&#10;&#9;&#9;c4.8-4.7,7.5-11.2,7.6-18C141.9,331.2,130.6,319.9,116.7,319.9L116.7,319.9z"/>
	<path class="st1_creative-process-1-52" d="M116.5,410.2c-2.1,0-4.2,0-6.2-0.1c-4.6-0.3-8.3-3.7-8.9-8.2c-0.4-2.5-0.9-5.1-1.2-7.6&#10;&#9;&#9;c-2.2-0.8-4.4-1.8-6.3-2.6c-2.1,1.5-4.2,3-6.1,4.4c-4.4,3.1-9.3,2.7-13.1-1c-2.4-2.4-4.9-4.8-7.5-7.5c-3.6-3.4-4-8.9-1.1-12.9&#10;&#9;&#9;c1.5-2.2,3-4.3,4.4-6.2c-1.1-2.5-2-4.6-2.8-6.6l-1.7-0.3c-2.3-0.4-4.7-0.8-7-1.3c-4.1-0.9-7.1-4.5-7.2-8.7c-0.1-4.3-0.1-8.5,0-12.4&#10;&#9;&#9;c0.2-4.6,3.7-8.3,8.5-9.1c2.3-0.4,4.8-0.8,7.2-1.2c0.9-2.2,1.8-4.4,2.7-6.6c-0.8-1.1-1.5-2.2-2.3-3.3s-1.4-2-2.1-3&#10;&#9;&#9;c-2.9-4.2-2.7-8.9,0.7-12.5c2.7-2.9,5.5-5.7,8.8-8.7c3.2-2.9,7.9-3.2,11.5-0.8c2.3,1.5,4.5,3.2,6.7,4.8l0,0c2.4-1.1,4.6-2,6.6-2.8&#10;&#9;&#9;l0.2-1.4c0.4-2.3,0.8-4.8,1.3-7.1c0.9-4.2,4.7-7.3,9-7.4c4-0.1,8-0.1,11.9,0c4.7,0.2,8.6,3.6,9.3,8.3c0.4,2.4,0.9,4.9,1.2,7.5&#10;&#9;&#9;c2.4,0.9,4.6,1.9,6.9,2.9c1.9-1.4,3.9-2.8,6.1-4.3c4.1-3.1,9.8-2.6,13.2,1.2l2,2c2,2,4.1,4,6,6.2c2.8,3.2,3.2,7.8,0.9,11.4&#10;&#9;&#9;c-1.4,2.1-2.9,4.2-4.4,6.2l-0.5,0.7c1.1,2.5,2,4.6,2.7,6.5v0.1h0.1c3,0.5,5.7,0.9,8.4,1.5c4.2,0.9,7.1,4.5,7.3,8.8&#10;&#9;&#9;c0.1,4.3,0.1,8.3,0,12.2c-0.2,4.7-3.7,8.6-8.3,9.2c-2.8,0.5-5.2,0.9-7.5,1.2c-0.8,2.1-1.7,4.3-2.7,6.6c1.4,1.9,2.8,3.9,4.3,6&#10;&#9;&#9;c3.1,4.5,2.7,9.5-1.2,13.4l-1.5,1.5c-2.1,2.1-4.3,4.3-6.5,6.4c-1.6,1.5-3.7,2.4-5.9,2.4c-2.3,0.1-4.5-0.6-6.4-1.9l-2.6-1.8&#10;&#9;&#9;c-1.2-0.9-2.4-1.7-3.6-2.6c-2.5,1.1-4.6,2-6.6,2.7l-0.2,1.3c-0.4,2.3-0.8,4.8-1.3,7.1c-0.9,4.1-4.5,7.2-8.8,7.4&#10;&#9;&#9;C120.7,410.2,118.6,410.2,116.5,410.2z M93.7,387.5c0.5,0,1,0.1,1.4,0.3c2,0.9,4.2,1.8,6.5,2.7c1.4,0.5,2.4,1.7,2.5,3.1&#10;&#9;&#9;c0.4,2.5,0.8,5,1.2,7.5c0.3,2.7,2.5,4.8,5.1,5c3.9,0.1,7.9,0.1,12.3,0c2.4-0.1,4.5-1.8,5-4.2c0.5-2.3,0.9-4.6,1.2-6.9l0.2-1.4&#10;&#9;&#9;c0.2-1.4,1.1-2.6,2.4-3c2-0.8,4.2-1.7,6.8-2.8c1.1-0.6,2.5-0.4,3.5,0.4c1.2,0.9,2.5,1.8,3.8,2.7l2.6,1.9c1.1,0.8,2.5,1.3,3.9,1.2&#10;&#9;&#9;c1.2,0,2.4-0.5,3.2-1.3c2.2-2.1,4.4-4.2,6.4-6.3l1.5-1.5c2.5-2.5,2.8-5.4,0.7-8.3c-1.5-2.2-3-4.2-4.4-6.2c-0.8-1-0.9-2.3-0.4-3.5&#10;&#9;&#9;c1.1-2.5,2-4.7,2.9-6.9c0.4-1.3,1.6-2.2,2.9-2.3c2.3-0.3,4.8-0.8,7.6-1.2c2.8-0.3,4.9-2.6,5-5.4c0.1-3.8,0.1-7.7,0-12l0,0&#10;&#9;&#9;c-0.1-2.4-1.8-4.5-4.1-5c-2.6-0.6-5.3-1-8.2-1.5c-1.5-0.2-2.8-1.2-3.2-2.6c-0.7-1.9-1.6-4-2.7-6.5c-0.6-1.2-0.5-2.6,0.4-3.7&#10;&#9;&#9;l0.6-0.9c1.4-2,2.9-4,4.2-6c1.4-2,1.2-4.7-0.4-6.5c-1.9-2.1-3.9-4.1-5.9-6c-0.7-0.7-1.3-1.3-2-2c-2.1-2.4-5.7-2.7-8.1-0.7&#10;&#9;&#9;c-2.3,1.6-4.3,3-6.2,4.4c-1,0.8-2.5,1-3.7,0.4c-2.3-1-4.7-2-7.1-2.9c-1.3-0.4-2.2-1.5-2.3-2.9c-0.4-2.6-0.8-5.1-1.3-7.6&#10;&#9;&#9;c-0.3-2.8-2.7-4.9-5.4-5c-3.8-0.1-7.7-0.1-11.7,0c-2.5,0-4.7,1.8-5.2,4.3c-0.5,2.3-0.9,4.6-1.3,6.9l-0.3,1.6&#10;&#9;&#9;c-0.2,1.3-1.1,2.4-2.3,2.8c-2.1,0.8-4.3,1.7-6.8,2.9c-1.2,0.6-2.6,0.5-3.6-0.3l-0.3-0.3c-2.1-1.6-4.3-3.2-6.5-4.6&#10;&#9;&#9;c-2-1.4-4.7-1.2-6.6,0.4c-3.2,2.9-6,5.7-8.6,8.5c-2.1,2.2-2.2,4.9-0.3,7.5c0.7,1,1.4,2,2.1,2.9c0.9,1.2,1.8,2.4,2.6,3.7&#10;&#9;&#9;c0.6,0.9,0.7,2,0.3,3c-1,2.5-2,5-3,7.4c-0.4,1-1.3,1.7-2.4,1.9c-2.6,0.5-5.2,0.9-7.7,1.3c-2.8,0.3-4.9,2.5-5.2,5.3&#10;&#9;&#9;c-0.1,3.9-0.1,7.9,0,12.2c0.1,2.4,1.8,4.4,4.1,4.9c2.2,0.5,4.5,0.9,6.8,1.3l2,0.3c1.3,0.2,2.3,1,2.8,2.2c0.8,2.1,1.7,4.2,2.9,6.8&#10;&#9;&#9;c0.6,1.1,0.4,2.5-0.3,3.5c-1.4,1.9-3,4.1-4.5,6.3c-1.9,2.4-1.6,5.8,0.7,7.8c2.6,2.6,5,5.1,7.4,7.4s5.2,2.6,8,0.6&#10;&#9;&#9;c2-1.4,4.2-3,6.4-4.5C92.3,387.8,93,387.5,93.7,387.5z M67.8,328.8L67.8,328.8z"/>
	<path class="st5_creative-process-1-52 targetColor" d="M129.3,225.6c-0.1-2.5-1.9-4.7-4.3-5.2c-2.1-0.5-4.2-0.8-6.3-1.1c-0.6,0-1.1-0.4-1.2-1c-0.6-1.7-1.3-3.3-2.1-5&#10;&#9;&#9;c-0.2-0.4-0.2-0.9,0.1-1.3c1.3-1.8,2.6-3.5,3.8-5.3c1.4-2.1,1.2-4.9-0.5-6.8c-1.9-2.1-4-4.1-6-6.2c-2.1-2.3-5.6-2.6-8.1-0.7&#10;&#9;&#9;c-1.6,1.1-3.2,2.2-4.7,3.4c-0.4,0.3-0.9,0.4-1.3,0.1c-1.8-0.8-3.6-1.5-5.4-2.2c-0.5-0.1-0.8-0.5-0.8-1c-0.3-1.9-0.6-3.9-1-5.8&#10;&#9;&#9;c-0.4-2.8-2.8-4.9-5.6-5c-3-0.1-6-0.1-8.9,0c-2.6,0-4.8,1.9-5.4,4.4c-0.5,2.2-0.8,4.4-1.2,6.6c0,0.5-0.4,0.9-0.8,1&#10;&#9;&#9;c-1.7,0.7-3.5,1.4-5.2,2.2c-0.4,0.2-0.9,0.2-1.2-0.1c-1.7-1.3-3.4-2.6-5.2-3.7c-2.1-1.4-4.9-1.3-6.8,0.4c-2.3,2.1-4.5,4.2-6.6,6.5&#10;&#9;&#9;c-2,2.1-2.2,5.3-0.4,7.6c1.2,1.7,2.4,3.3,3.5,5c0.2,0.3,0.2,0.6,0.1,0.9c-0.7,1.9-1.5,3.7-2.3,5.6c-0.1,0.3-0.4,0.5-0.7,0.6&#10;&#9;&#9;c-1.9,0.4-3.9,0.7-5.8,1c-2.8,0.3-5,2.6-5.2,5.4c-0.1,3.1-0.1,6.2,0,9.3c0.1,2.5,1.9,4.6,4.3,5.1c2.2,0.5,4.5,0.8,6.7,1.2&#10;&#9;&#9;c0.4,0,0.8,0.3,0.9,0.8c0.7,1.8,1.5,3.5,2.2,5.2c0.2,0.4,0.2,0.8-0.1,1.1c-1.2,1.6-2.3,3.2-3.5,4.8c-1.8,2.4-1.5,5.8,0.7,7.8&#10;&#9;&#9;c1.9,1.9,3.7,3.8,5.7,5.7c2.1,2.3,5.6,2.5,8,0.6c1.6-1.1,3.2-2.3,4.8-3.5c0.3-0.2,0.7-0.3,1.1-0.1c1.7,0.7,3.3,1.4,5,2&#10;&#9;&#9;c0.5,0.1,0.9,0.6,0.9,1.2c0.3,1.9,0.6,3.8,0.9,5.7c0.4,2.7,2.6,4.8,5.3,5c3.1,0.1,6.3,0.1,9.4,0c2.5-0.1,4.6-1.9,5.2-4.4&#10;&#9;&#9;c0.5-2.1,0.8-4.3,1.1-6.4c0-0.5,0.4-1,0.9-1.1c1.8-0.7,3.5-1.4,5.2-2.2c0.4-0.2,0.8-0.2,1.1,0.1c1.6,1.2,3.2,2.3,4.8,3.5&#10;&#9;&#9;c1.1,0.8,2.5,1.2,3.9,1.2c1.3,0,2.5-0.5,3.5-1.4c2.1-1.9,4-3.9,6-5.9c2.4-2.1,2.7-5.7,0.7-8.2c-1.1-1.6-2.2-3.2-3.4-4.7&#10;&#9;&#9;c-0.3-0.3-0.3-0.8-0.1-1.1c0.8-1.7,1.5-3.5,2.2-5.3c0.1-0.5,0.5-0.8,1-0.8c1.9-0.3,3.9-0.6,5.8-1c2.8-0.4,5-2.7,5.1-5.6&#10;&#9;&#9;C129.4,231.7,129.4,228.6,129.3,225.6z M81.5,250.8c-11.4,0-20.6-9.3-20.6-20.7c0-11.4,9.3-20.6,20.7-20.6&#10;&#9;&#9;c11.4,0,20.6,9.3,20.6,20.7C102.1,241.6,92.9,250.9,81.5,250.8C81.5,250.8,81.5,250.8,81.5,250.8z" style="fill: rgb(104, 225, 253);"/>
	<path class="st1_creative-process-1-52" d="M81.6,252.8h-0.2c-6.1,0-11.9-2.5-16.1-6.8c-4.2-4.2-6.5-9.9-6.4-15.9c0.1-12.4,10.2-22.5,22.6-22.6l0,0&#10;&#9;&#9;c6,0,11.8,2.4,16.1,6.7c4.3,4.2,6.6,10,6.6,16c0,6.1-2.5,11.9-6.8,16.1C93.2,250.5,87.5,252.8,81.6,252.8z M81.5,211.6&#10;&#9;&#9;c-10.3,0-18.6,8.2-18.6,18.5c0,0,0,0.1,0,0.1c-0.1,4.9,1.8,9.5,5.3,13c3.5,3.6,8.3,5.6,13.3,5.6l0,0c4.9,0,9.6-1.9,13.1-5.3&#10;&#9;&#9;c3.6-3.5,5.6-8.3,5.6-13.3C100.1,219.9,91.8,211.6,81.5,211.6L81.5,211.6z"/>
	<path class="st1_creative-process-1-52" d="M81.4,280.1c-1.6,0-3.2,0-4.7-0.1c-3.7-0.2-6.7-3-7.2-6.7c-0.3-1.8-0.6-3.7-0.9-5.5c-1.5-0.6-3-1.2-4.3-1.8&#10;&#9;&#9;c-1.5,1.1-2.9,2.1-4.4,3.1c-3.2,2.5-7.8,2.2-10.6-0.8c-1.8-1.8-3.7-3.7-5.7-5.7c-2.9-2.7-3.3-7.2-0.9-10.4c1-1.4,2-2.9,3.2-4.5&#10;&#9;&#9;c-0.7-1.7-1.4-3.1-1.9-4.5l-1-0.2c-1.7-0.3-3.5-0.6-5.3-1c-3.3-0.8-5.7-3.7-5.9-7.1c-0.1-3.3-0.1-6.4,0-9.5&#10;&#9;&#9;c0.2-3.8,3.1-6.9,6.9-7.4c1.7-0.3,3.5-0.6,5.2-0.9c0.6-1.5,1.2-3,1.8-4.5l-1.6-2.3c-0.5-0.7-1.1-1.5-1.6-2.2&#10;&#9;&#9;c-2.3-3-2.1-7.3,0.6-10.1c2-2.2,4.2-4.4,6.7-6.6c2.6-2.3,6.4-2.6,9.3-0.6c1.7,1.1,3.3,2.3,4.9,3.5c1.6-0.7,3.1-1.4,4.5-1.9l0.1-0.8&#10;&#9;&#9;c0.3-1.8,0.6-3.6,1-5.4c0.8-3.5,3.8-5.9,7.3-6c3-0.1,6.1-0.1,9,0c3.8,0.1,6.9,2.9,7.5,6.7c0.3,1.8,0.6,3.6,0.9,5.4&#10;&#9;&#9;c1.6,0.6,3.2,1.3,4.8,2c1.3-1,2.8-2,4.4-3.1c3.3-2.5,7.9-2,10.7,1l1.5,1.5c1.5,1.5,3.1,3.1,4.6,4.7c2.3,2.6,2.6,6.3,0.7,9.2&#10;&#9;&#9;c-1.1,1.6-2.2,3.2-3.3,4.7l-0.2,0.3c0.8,1.7,1.4,3.2,1.9,4.5c2.2,0.4,4.2,0.7,6.2,1.1c3.4,0.8,5.8,3.7,5.9,7.1l0,0&#10;&#9;&#9;c0.1,3.3,0.1,6.3,0,9.3c-0.1,3.8-3,6.9-6.7,7.5c-1.8,0.3-3.6,0.6-5.4,0.9c-0.6,1.4-1.2,2.9-1.9,4.5c1,1.4,2.1,2.9,3.1,4.4&#10;&#9;&#9;c2.5,3.3,2.1,8-1,10.8l-1.1,1.1c-1.6,1.6-3.3,3.3-4.9,4.9c-1.3,1.3-3,2-4.8,2c-1.8,0.1-3.6-0.5-5.1-1.6c-0.7-0.5-1.3-1-2-1.4&#10;&#9;&#9;L99,266c-1.7,0.7-3.1,1.3-4.5,1.9l-0.1,0.7c-0.3,1.8-0.6,3.6-1,5.5c-0.7,3.4-3.6,5.8-7.1,6C84.6,280.1,83,280.1,81.4,280.1z&#10;&#9;&#9; M64.1,261.9c0.4,0,0.9,0.1,1.3,0.3c1.5,0.6,3.2,1.4,4.9,2c1.2,0.4,2.1,1.5,2.2,2.8c0.3,1.9,0.6,3.8,0.9,5.7&#10;&#9;&#9;c0.2,1.8,1.6,3.2,3.4,3.3c2.9,0.1,6,0.1,9.3,0c1.6-0.1,3-1.2,3.3-2.8c0.4-1.7,0.7-3.5,0.9-5.2l0.2-1c0.1-1.2,1-2.3,2.2-2.7&#10;&#9;&#9;c1.5-0.6,3.2-1.3,5.1-2.1c1-0.5,2.2-0.4,3.1,0.3c0.9,0.7,1.9,1.4,2.8,2l2,1.4c0.8,0.6,1.7,0.9,2.7,0.8c0.8,0,1.6-0.3,2.1-0.9&#10;&#9;&#9;c1.6-1.5,3.3-3.2,4.9-4.8l1.1-1.1c1.7-1.4,1.9-3.9,0.5-5.6c0,0,0,0,0,0c-1.1-1.6-2.2-3.1-3.3-4.7c-0.7-0.9-0.8-2.1-0.3-3.1&#10;&#9;&#9;c0.8-1.9,1.5-3.6,2.2-5.2c0.4-1.1,1.4-1.9,2.6-2.1c1.9-0.3,3.8-0.6,5.8-0.9c1.9-0.2,3.3-1.8,3.4-3.6c0.1-2.9,0.1-5.8,0-9.1l0,0&#10;&#9;&#9;c-0.1-1.6-1.2-3-2.8-3.3c-2-0.4-4-0.8-6.2-1.1c-1.3-0.2-2.4-1.1-2.8-2.3c-0.5-1.4-1.2-3-2-4.9c-0.5-1.1-0.4-2.3,0.3-3.3l0.5-0.7&#10;&#9;&#9;c1.1-1.5,2.2-3,3.2-4.5c0.9-1.3,0.8-3.1-0.3-4.4c-1.4-1.6-3-3.1-4.4-4.6l-1.5-1.5c-1.4-1.6-3.8-1.9-5.5-0.5&#10;&#9;&#9;c-1.7,1.2-3.3,2.3-4.7,3.3c-0.9,0.7-2.2,0.9-3.2,0.4c-1.8-0.8-3.6-1.5-5.3-2.2c-1.1-0.4-1.9-1.4-2.1-2.5c-0.3-1.9-0.6-3.9-1-5.8&#10;&#9;&#9;c-0.2-1.9-1.8-3.3-3.7-3.4c-2.9-0.1-5.9-0.1-8.8,0c-1.7,0-3.1,1.2-3.5,2.9c-0.4,1.7-0.7,3.5-0.9,5.2l-0.2,1.2&#10;&#9;&#9;c-0.2,1.2-1,2.1-2.1,2.5c-1.6,0.6-3.2,1.3-5.1,2.2c-1,0.5-2.3,0.4-3.2-0.3l-0.2-0.1c-1.6-1.2-3.3-2.4-4.9-3.5&#10;&#9;&#9;c-1.3-0.9-3.2-0.8-4.4,0.2c-2.4,2.2-4.5,4.3-6.5,6.4c-1.4,1.4-1.5,3.6-0.2,5.1c0.5,0.7,1,1.5,1.5,2.2c0.7,0.9,1.3,1.9,2,2.8&#10;&#9;&#9;c0.5,0.8,0.6,1.8,0.3,2.7c-0.7,1.9-1.5,3.8-2.3,5.6c-0.4,0.9-1.2,1.5-2.2,1.8c-2,0.4-3.9,0.7-5.8,1c-1.9,0.2-3.3,1.7-3.5,3.5&#10;&#9;&#9;c-0.1,2.9-0.1,5.9,0,9.2c0.1,1.6,1.2,2.9,2.7,3.3c1.7,0.4,3.4,0.7,5.1,0.9l1.5,0.2c1.1,0.1,2.1,0.9,2.5,2c0.6,1.6,1.3,3.2,2.2,5.2&#10;&#9;&#9;c0.5,1,0.4,2.2-0.3,3.1c-1.3,1.8-2.4,3.3-3.4,4.8c-1.3,1.6-1.1,4,0.5,5.3c2,2,3.8,3.9,5.6,5.6c1.4,1.6,3.9,1.8,5.5,0.4c0,0,0,0,0,0&#10;&#9;&#9;c1.6-1.1,3.2-2.3,4.8-3.4C62.8,262.1,63.4,261.9,64.1,261.9z M44.3,217.4L44.3,217.4z"/>
</g>
</svg>