<svg version="1.1" id="Layer_1" xmlns="http://www.w3.org/2000/svg" xmlns:xlink="http://www.w3.org/1999/xlink" x="0px" y="0px" viewBox="0 0 500 500" style="width: 166px;" xml:space="preserve" data-imageid="crossed-flags-30" imageName="Crossed Flags" class="illustrations_image">
<style type="text/css">
	.st0_crossed-flags-30{fill:#FFFFFF;}
	.st1_crossed-flags-30{fill:#093F68;}
	.st2_crossed-flags-30{fill:#68E1FD;}
</style>
<g id="circle_crossed-flags-30">
	<path class="st0_crossed-flags-30" d="M428.9,250c0,1.9,0,3.9-0.1,5.8c-2.4,78.7-56.2,146.4-132.2,166.7c-3.4,0.9-6.8,1.8-10.3,2.5&#10;&#9;&#9;c-23.8,4.9-48.4,4.9-72.2,0c-3.5-0.7-6.9-1.5-10.3-2.5c-76-20.3-129.7-88.1-132.2-166.7c-0.1-2-0.1-3.9-0.1-5.8&#10;&#9;&#9;c0-10.2,0.9-20.4,2.6-30.4c0.7-4.3,1.6-8.6,2.7-12.9c23.9-95.8,121-154,216.7-130.1c54.5,13.6,99.5,52.1,121.3,103.9&#10;&#9;&#9;c3.6,8.5,6.5,17.2,8.7,26.1c1.1,4.2,2,8.5,2.7,12.9C428,229.6,428.9,239.8,428.9,250z"/>
	<path class="st1_crossed-flags-30" d="M250.2,430.6c-12.3,0-24.5-1.2-36.5-3.7c-3.8-0.8-7.2-1.6-10.4-2.5c-76.8-20.5-131.1-89-133.6-168.5&#10;&#9;&#9;c-0.1-2-0.1-3.9-0.1-5.9c0-10.3,0.9-20.6,2.6-30.8c0.7-4.3,1.6-8.7,2.7-13C99.2,109.5,197.2,50.6,294,74.8&#10;&#9;&#9;c55.1,13.8,100.6,52.7,122.6,105.1c3.6,8.6,6.5,17.4,8.8,26.4c1.1,4.3,2,8.7,2.7,13c1.7,10.2,2.6,20.4,2.6,30.7c0,2,0,3.9-0.1,5.9&#10;&#9;&#9;c-2.5,79.5-56.8,148-133.6,168.5c-3.2,0.9-6.7,1.7-10.4,2.5C274.7,429.4,262.5,430.6,250.2,430.6z M250.2,73.2&#10;&#9;&#9;c-81.2-0.1-151.9,55.2-171.5,133.9c-1.1,4.2-2,8.5-2.7,12.7c-1.7,9.9-2.6,20-2.6,30.1c0,1.9,0,3.9,0.1,5.8&#10;&#9;&#9;c2.4,77.8,55.5,144.8,130.8,164.9c3.2,0.9,6.5,1.7,10.2,2.4c23.6,4.8,47.8,4.8,71.4,0c3.7-0.8,7-1.5,10.2-2.4&#10;&#9;&#9;c75.2-20.1,128.3-87.1,130.8-164.9c0-1.9,0.1-3.9,0.1-5.8c0-10.1-0.9-20.2-2.6-30.1c-0.7-4.2-1.6-8.5-2.7-12.7&#10;&#9;&#9;C402.1,128.4,331.4,73.2,250.2,73.2z"/>
</g>
<g id="flag-1_crossed-flags-30">
	
		<rect x="171.5" y="149.5" transform="matrix(0.9552 -0.2959 0.2959 0.9552 -40.8121 63.2196)" class="st2_crossed-flags-30 targetColor" width="33.9" height="33.9" style="fill: rgb(104, 225, 253);"/>
	<path class="st1_crossed-flags-30" d="M177.3,189.6c-0.8,0-1.6-0.5-1.8-1.4l-10-32.4c-0.3-1,0.3-2.1,1.3-2.4l32.4-10c1-0.3,2.1,0.3,2.4,1.3v0&#10;&#9;&#9;l10,32.4c0.2,0.5,0.1,1-0.1,1.5c-0.2,0.5-0.6,0.8-1.1,0.9l-32.4,10C177.7,189.5,177.5,189.6,177.3,189.6z M169.7,156.6l8.9,28.7&#10;&#9;&#9;l28.7-8.9l-8.9-28.7L169.7,156.6z"/>
	
		<rect x="137.6" y="159.2" transform="matrix(0.9545 -0.2983 0.2983 0.9545 -45.542 54.1509)" class="st0_crossed-flags-30" width="34.1" height="34.1"/>
	<path class="st1_crossed-flags-30" d="M145,199.6c-0.8,0-1.6-0.6-1.8-1.4l-10-32.4c-0.3-1,0.3-2.1,1.3-2.4l32.4-10c1-0.3,2.1,0.3,2.4,1.3l10,32.4&#10;&#9;&#9;c0.3,1-0.3,2.1-1.3,2.4l-32.4,10C145.4,199.6,145.2,199.6,145,199.6z M137.4,166.6l8.9,28.7l28.7-8.9l-9-28.7L137.4,166.6z"/>
	
		<rect x="106.8" y="169.6" transform="matrix(0.9552 -0.2959 0.2959 0.9552 -49.6388 44.9677)" class="st2_crossed-flags-30 targetColor" width="33.9" height="33.9" style="fill: rgb(104, 225, 253);"/>
	<path class="st1_crossed-flags-30" d="M112.6,209.6c-0.8,0-1.6-0.6-1.8-1.4l-10-32.4c-0.3-1,0.3-2.1,1.3-2.4l32.4-10c1-0.3,2.1,0.2,2.4,1.3l10,32.4&#10;&#9;&#9;c0.3,1-0.3,2.1-1.3,2.4l-32.4,10C113,209.6,112.8,209.6,112.6,209.6z M105,176.6l8.9,28.7l28.7-8.9l-8.9-28.7L105,176.6z"/>
	
		<rect x="74.5" y="179.6" transform="matrix(0.9552 -0.2959 0.2959 0.9552 -54.0537 35.841)" class="st0_crossed-flags-30" width="33.9" height="33.9"/>
	<path class="st1_crossed-flags-30" d="M80.2,219.6c-0.8,0-1.6-0.5-1.8-1.4l-10-32.4c-0.3-1,0.3-2.1,1.3-2.4l32.4-10c1-0.3,2.1,0.3,2.4,1.3l10,32.4&#10;&#9;&#9;c0.3,1-0.3,2.1-1.3,2.4l-32.4,10C80.6,219.6,80.4,219.6,80.2,219.6z M72.6,186.6l8.9,28.7l28.7-8.9l-8.9-28.7L72.6,186.6z"/>
	
		<rect x="42.1" y="189.6" transform="matrix(0.9552 -0.2959 0.2959 0.9552 -58.4657 26.7138)" class="st2_crossed-flags-30 targetColor" width="33.9" height="33.9" style="fill: rgb(104, 225, 253);"/>
	<path class="st1_crossed-flags-30" d="M47.9,229.6c-0.9,0-1.6-0.5-1.9-1.3l-10-32.4c-0.3-1,0.3-2.1,1.3-2.4l32.4-10c1-0.3,2.1,0.3,2.4,1.3l10,32.4&#10;&#9;&#9;c0.3,1-0.3,2.1-1.3,2.4l-32.4,10C48.2,229.6,48.1,229.6,47.9,229.6z M40.2,196.6l8.9,28.7l28.7-8.9l-8.9-28.7L40.2,196.6z"/>
	
		<rect x="181.6" y="181.9" transform="matrix(0.9552 -0.2959 0.2959 0.9552 -49.9359 67.634)" class="st0_crossed-flags-30" width="33.9" height="33.9"/>
	<path class="st1_crossed-flags-30" d="M187.3,221.9c-0.3,0-0.6-0.1-0.9-0.2c-0.5-0.2-0.8-0.6-0.9-1.1l-10-32.4c-0.3-1,0.2-2.1,1.3-2.4l32.4-10&#10;&#9;&#9;c1-0.3,2.1,0.3,2.4,1.3l10,32.4c0.3,1-0.3,2.1-1.3,2.4l-32.4,10C187.7,221.9,187.5,221.9,187.3,221.9z M179.7,188.9l8.9,28.7&#10;&#9;&#9;l28.7-8.9l-8.9-28.7L179.7,188.9z"/>
	
		<rect x="147.4" y="191.5" transform="matrix(0.9545 -0.2983 0.2983 0.9545 -54.7104 58.5543)" class="st2_crossed-flags-30 targetColor" width="34.1" height="34.1" style="fill: rgb(104, 225, 253);"/>
	<path class="st1_crossed-flags-30" d="M155,232c-0.8,0-1.6-0.6-1.8-1.4l-10-32.4c-0.3-1,0.2-2.1,1.2-2.4c0,0,0,0,0,0l32.4-10c1-0.3,2.1,0.3,2.4,1.3&#10;&#9;&#9;l10,32.4c0.3,1-0.3,2.1-1.3,2.4l-32.4,10C155.4,232,155.2,232,155,232z M147.4,199l8.9,28.7l28.7-8.9l-9-28.8L147.4,199z"/>
	
		<rect x="116.8" y="201.9" transform="matrix(0.9552 -0.2959 0.2959 0.9552 -58.763 49.3792)" class="st0_crossed-flags-30" width="33.9" height="33.9"/>
	<path class="st1_crossed-flags-30" d="M122.6,242c-0.8,0-1.6-0.6-1.8-1.4l-10-32.4c-0.3-1,0.2-2.1,1.2-2.4c0,0,0,0,0,0l32.4-10&#10;&#9;&#9;c1-0.3,2.1,0.2,2.4,1.3l10,32.4c0.3,1-0.2,2.1-1.3,2.4c0,0,0,0,0,0l-32.4,10C123,242,122.8,242,122.6,242z M115,209l8.9,28.7&#10;&#9;&#9;l28.7-8.9l-8.9-28.7L115,209z"/>
	
		<rect x="84.5" y="211.9" transform="matrix(0.9552 -0.2959 0.2959 0.9552 -63.1788 40.2528)" class="st2_crossed-flags-30 targetColor" width="33.9" height="33.9" style="fill: rgb(104, 225, 253);"/>
	<path class="st1_crossed-flags-30" d="M90.2,252c-0.8,0-1.6-0.5-1.8-1.4l-10-32.4c-0.3-1,0.2-2.1,1.3-2.4c0,0,0,0,0,0l32.4-10c1-0.3,2.1,0.3,2.4,1.3&#10;&#9;&#9;l10,32.4c0.3,1-0.3,2.1-1.3,2.4c0,0,0,0,0,0l-32.4,10C90.6,252,90.4,252,90.2,252z M82.6,219l8.9,28.7l28.7-8.9l-8.9-28.7L82.6,219&#10;&#9;&#9;z"/>
	
		<rect x="52.1" y="222" transform="matrix(0.9552 -0.2959 0.2959 0.9552 -67.5937 31.126)" class="st0_crossed-flags-30" width="33.9" height="33.9"/>
	<path class="st1_crossed-flags-30" d="M57.9,262c-0.8,0-1.6-0.5-1.8-1.4L46,228.3c-0.3-1,0.2-2.1,1.3-2.4l32.4-10c1-0.3,2.1,0.3,2.4,1.3l10,32.4&#10;&#9;&#9;c0.3,1-0.3,2.1-1.3,2.4c0,0,0,0,0,0l-32.4,10C58.2,262,58.1,262,57.9,262z M50.3,229l8.9,28.7l28.7-8.9L79,220.1L50.3,229z"/>
	
		<rect x="191.6" y="214.2" transform="matrix(0.9552 -0.2959 0.2959 0.9552 -59.0644 72.0433)" class="st2_crossed-flags-30 targetColor" width="33.9" height="33.9" style="fill: rgb(104, 225, 253);"/>
	<path class="st1_crossed-flags-30" d="M197.4,254.3c-0.8,0-1.6-0.5-1.8-1.4l-10-32.4c-0.3-1,0.2-2.1,1.3-2.4l32.4-10c1-0.3,2.1,0.3,2.4,1.3l10,32.4&#10;&#9;&#9;c0.3,1-0.3,2.1-1.3,2.4h0l-32.4,10C197.7,254.2,197.6,254.3,197.4,254.3z M189.7,221.3l8.9,28.7l28.7-8.9l-8.9-28.7L189.7,221.3z"/>
	
		<rect x="159.2" y="224.3" transform="matrix(0.9552 -0.2959 0.2959 0.9552 -63.4789 62.9195)" class="st0_crossed-flags-30" width="33.9" height="33.9"/>
	<path class="st1_crossed-flags-30" d="M165,264.3c-0.8,0-1.6-0.6-1.8-1.4l-10-32.4c-0.3-1,0.2-2.1,1.3-2.4c0,0,0,0,0,0l32.3-10&#10;&#9;&#9;c1-0.3,2.1,0.3,2.4,1.3l10,32.4c0.3,1-0.2,2.1-1.3,2.4c0,0,0,0,0,0l-32.4,10C165.4,264.3,165.2,264.3,165,264.3z M157.4,231.3&#10;&#9;&#9;l8.9,28.7l28.7-8.9l-8.9-28.7L157.4,231.3z"/>
	
		<rect x="125" y="233.6" transform="matrix(0.9545 -0.2983 0.2983 0.9545 -68.2844 53.7827)" class="st2_crossed-flags-30 targetColor" width="34.1" height="34.1" style="fill: rgb(104, 225, 253);"/>
	<path class="st1_crossed-flags-30" d="M132.6,274.3c-0.8,0-1.6-0.5-1.8-1.3l-10-32.4c-0.3-1,0.2-2.1,1.3-2.4c0,0,0,0,0,0l32.4-10&#10;&#9;&#9;c1-0.3,2.1,0.3,2.4,1.3l10,32.4c0.3,1-0.2,2.1-1.3,2.4c0,0,0,0,0,0l-32.4,10C133,274.3,132.8,274.3,132.6,274.3z M125,241.3&#10;&#9;&#9;l8.9,28.7l28.7-8.9l-8.9-28.7L125,241.3z"/>
	
		<rect x="94.5" y="244.3" transform="matrix(0.9552 -0.2959 0.2959 0.9552 -72.3056 44.6677)" class="st0_crossed-flags-30" width="33.9" height="33.9"/>
	<path class="st1_crossed-flags-30" d="M100.3,284.4c-0.8,0-1.6-0.5-1.8-1.4l-10-32.4c-0.3-1,0.2-2.1,1.3-2.4c0,0,0,0,0,0l32.4-10&#10;&#9;&#9;c1-0.3,2.1,0.2,2.4,1.3c0,0,0,0,0,0l10,32.4c0.3,1-0.2,2.1-1.2,2.4c0,0,0,0,0,0l-32.4,10C100.7,284.3,100.5,284.3,100.3,284.4z&#10;&#9;&#9; M92.7,251.4l8.9,28.6l28.7-8.9l-8.9-28.7L92.7,251.4z"/>
	
		<rect x="62.1" y="254.3" transform="matrix(0.9552 -0.2959 0.2959 0.9552 -76.7205 35.5409)" class="st2_crossed-flags-30 targetColor" width="33.9" height="33.9" style="fill: rgb(104, 225, 253);"/>
	<path class="st1_crossed-flags-30" d="M67.9,294.4c-0.8,0-1.6-0.6-1.8-1.4l-10-32.4c-0.1-0.5-0.1-1,0.1-1.5c0.2-0.5,0.7-0.8,1.1-0.9l32.4-10&#10;&#9;&#9;c1-0.3,2.1,0.3,2.4,1.3c0,0,0,0,0,0l10,32.4c0.2,0.5,0.1,1-0.1,1.5c-0.2,0.5-0.6,0.8-1.1,0.9l-32.4,10&#10;&#9;&#9;C68.3,294.3,68.1,294.4,67.9,294.4z M60.3,261.4l8.9,28.6l28.7-8.9L89,252.5L60.3,261.4z"/>
	<path class="st0_crossed-flags-30" d="M296.6,422.6c-3.4,0.9-6.8,1.8-10.3,2.5l-36.1-116.5l-5.5-17.9l-15-48.3l-20-64.7l-10-32.3l-2.8-9.2&#10;&#9;&#9;c-0.1-0.5-0.2-1-0.2-1.6c0.1-2.9,2.5-5.2,5.4-5.2c2.2,0,4.2,1.5,4.9,3.6l43.3,139.8l5.5,17.9L296.6,422.6z"/>
	<path class="st1_crossed-flags-30" d="M286.3,426.9c-0.8,0-1.6-0.5-1.8-1.4L195,136.7c-0.2-0.7-0.3-1.4-0.3-2.1c0-4,3.2-7.2,7.2-7.2&#10;&#9;&#9;c3.2,0,6,2.1,6.9,5.1L298.4,422c0.2,0.5,0.1,1-0.1,1.5c-0.3,0.5-0.7,0.8-1.2,0.9c-3.3,0.9-6.7,1.7-10.4,2.5&#10;&#9;&#9;C286.6,426.9,286.4,426.9,286.3,426.9z M201.9,131.2c-0.3,0-0.7,0-1,0.1c-1.4,0.4-2.4,1.7-2.4,3.2c0,0.3,0.1,0.7,0.1,1L252,307.9&#10;&#9;&#9;l35.6,114.9c2.3-0.5,4.5-1,6.6-1.6L205,133.6C204.6,132.2,203.3,131.2,201.9,131.2z"/>
</g>
<g id="flag-2_crossed-flags-30">
	
		<rect x="295" y="149.5" transform="matrix(0.2959 -0.9552 0.9552 0.2959 60.6279 415.1681)" class="st2_crossed-flags-30 targetColor" width="33.9" height="33.9" style="fill: rgb(104, 225, 253);"/>
	<path class="st1_crossed-flags-30" d="M323.1,189.6c-0.2,0-0.4,0-0.6-0.1l-32.4-10c-1-0.3-1.6-1.4-1.3-2.4l10-32.4c0.3-1,1.4-1.6,2.4-1.3&#10;&#9;&#9;c0,0,0,0,0,0l32.4,10c0.5,0.1,0.9,0.5,1.1,0.9c0.2,0.4,0.3,1,0.1,1.5l-10,32.4C324.7,189,323.9,189.6,323.1,189.6z M293.1,176.3&#10;&#9;&#9;l28.7,8.9l8.9-28.7l-28.7-8.9L293.1,176.3z"/>
	
		<rect x="327.3" y="159.5" transform="matrix(0.2959 -0.9552 0.9552 0.2959 73.8435 453.1283)" class="st0_crossed-flags-30" width="33.9" height="33.9"/>
	<path class="st1_crossed-flags-30" d="M355.5,199.6c-0.2,0-0.4,0-0.6-0.1l-32.4-10c-1-0.3-1.6-1.4-1.3-2.4l10-32.4c0.3-1,1.4-1.6,2.4-1.3&#10;&#9;&#9;c0,0,0,0,0,0l32.4,10c1,0.3,1.6,1.4,1.3,2.4c0,0,0,0,0,0l-10,32.4C357,199,356.3,199.6,355.5,199.6z M325.5,186.4l28.7,8.9&#10;&#9;&#9;l8.9-28.7l-28.7-8.9L325.5,186.4z"/>
	
		<rect x="359.7" y="169.6" transform="matrix(0.2959 -0.9552 0.9552 0.2959 87.0453 491.1089)" class="st2_crossed-flags-30 targetColor" width="33.9" height="33.9" style="fill: rgb(104, 225, 253);"/>
	<path class="st1_crossed-flags-30" d="M387.8,209.6c-0.2,0-0.4,0-0.6-0.1l-32.4-10c-1-0.3-1.6-1.4-1.3-2.4l10-32.4c0.3-1,1.4-1.6,2.4-1.3l32.4,10&#10;&#9;&#9;c1,0.3,1.6,1.4,1.3,2.4c0,0,0,0,0,0l-10,32.4C389.4,209.1,388.7,209.6,387.8,209.6z M357.9,196.4l28.7,8.9l8.9-28.7l-28.7-8.9&#10;&#9;&#9;L357.9,196.4z"/>
	
		<rect x="392.1" y="179.6" transform="matrix(0.2959 -0.9552 0.9552 0.2959 100.2609 529.0692)" class="st0_crossed-flags-30" width="33.9" height="33.9"/>
	<path class="st1_crossed-flags-30" d="M420.2,219.6c-0.2,0-0.4,0-0.6-0.1l-32.4-10c-1-0.3-1.6-1.4-1.3-2.4l10-32.4c0.3-1,1.4-1.6,2.4-1.3&#10;&#9;&#9;c0,0,0,0,0,0l32.4,10c1,0.3,1.6,1.4,1.3,2.4l-10,32.4C421.8,219.1,421,219.6,420.2,219.6z M390.2,206.4l28.7,8.9l8.9-28.7&#10;&#9;&#9;l-28.7-8.9L390.2,206.4z"/>
	
		<rect x="424.4" y="189.6" transform="matrix(0.2959 -0.9552 0.9552 0.2959 113.4669 567.0364)" class="st2_crossed-flags-30 targetColor" width="33.9" height="33.9" style="fill: rgb(104, 225, 253);"/>
	<path class="st1_crossed-flags-30" d="M452.5,229.6c-0.2,0-0.4,0-0.6-0.1l-32.4-10c-1-0.3-1.6-1.4-1.3-2.4l10-32.4c0.3-1,1.4-1.6,2.4-1.3&#10;&#9;&#9;c0,0,0,0,0,0l32.4,10c1,0.3,1.6,1.4,1.3,2.4l-10,32.4C454.1,229.1,453.4,229.6,452.5,229.6z M422.5,216.4l28.7,8.9l8.9-28.7&#10;&#9;&#9;l-28.7-8.9L422.5,216.4z"/>
	
		<rect x="285" y="181.9" transform="matrix(0.2959 -0.9552 0.9552 0.2959 22.6606 428.3741)" class="st0_crossed-flags-30" width="33.9" height="33.9"/>
	<path class="st1_crossed-flags-30" d="M313.1,221.9c-0.2,0-0.4,0-0.6-0.1l-32.4-10c-1-0.3-1.6-1.4-1.3-2.4l10-32.4c0.3-1,1.4-1.6,2.4-1.3l32.4,10&#10;&#9;&#9;c1,0.3,1.6,1.4,1.3,2.4l-10,32.4c-0.1,0.5-0.5,0.9-0.9,1.1C313.7,221.9,313.4,221.9,313.1,221.9z M283.1,208.7l28.7,8.9l8.9-28.7&#10;&#9;&#9;L292,180L283.1,208.7z"/>
	
		<rect x="317.3" y="191.9" transform="matrix(0.2959 -0.9552 0.9552 0.2959 35.8833 466.3438)" class="st2_crossed-flags-30 targetColor" width="33.9" height="33.9" style="fill: rgb(104, 225, 253);"/>
	<path class="st1_crossed-flags-30" d="M345.4,232c-0.2,0-0.4,0-0.6-0.1l-32.4-10c-1-0.3-1.6-1.4-1.3-2.4l10-32.4c0.3-1,1.4-1.6,2.4-1.3l32.4,10&#10;&#9;&#9;c1,0.3,1.6,1.4,1.3,2.4l-10,32.4C347,231.4,346.3,232,345.4,232z M315.4,218.8l28.7,8.9L353,199l-28.7-8.9L315.4,218.8z"/>
	
		<rect x="349.7" y="201.9" transform="matrix(0.2959 -0.9552 0.9552 0.2959 49.0781 504.315)" class="st0_crossed-flags-30" width="33.9" height="33.9"/>
	<path class="st1_crossed-flags-30" d="M377.8,242c-0.2,0-0.4,0-0.6-0.1l-32.4-10c-1-0.3-1.6-1.4-1.3-2.4c0,0,0,0,0,0l10-32.4c0.3-1,1.4-1.6,2.4-1.3&#10;&#9;&#9;l32.4,10c1,0.3,1.6,1.4,1.3,2.4l-10,32.4C379.4,241.5,378.6,242,377.8,242z M347.8,228.8l28.7,8.9l8.9-28.7l-28.7-8.9L347.8,228.8z&#10;&#9;&#9;"/>
	
		<rect x="382" y="212" transform="matrix(0.2959 -0.9552 0.9552 0.2959 62.2841 542.2822)" class="st2_crossed-flags-30 targetColor" width="33.9" height="33.9" style="fill: rgb(104, 225, 253);"/>
	<path class="st1_crossed-flags-30" d="M410.2,252c-0.2,0-0.4,0-0.6-0.1l-32.4-10c-1-0.3-1.6-1.4-1.3-2.4c0,0,0,0,0,0l10-32.4c0.3-1,1.4-1.6,2.4-1.3&#10;&#9;&#9;l32.4,10c1,0.3,1.6,1.4,1.3,2.4l-10,32.4C411.8,251.5,411,252,410.2,252z M380.2,238.8l28.7,8.9l8.9-28.7l-28.7-8.9L380.2,238.8z"/>
	
		<rect x="414.4" y="222" transform="matrix(0.2959 -0.9552 0.9552 0.2959 75.5067 580.252)" class="st0_crossed-flags-30" width="33.9" height="33.9"/>
	<path class="st1_crossed-flags-30" d="M442.5,262c-0.2,0-0.4,0-0.6-0.1l-32.4-10c-1-0.3-1.6-1.4-1.3-2.4c0,0,0,0,0,0l10-32.4c0.3-1,1.4-1.6,2.4-1.3&#10;&#9;&#9;l32.4,10c1,0.3,1.6,1.4,1.3,2.4l-10,32.4C444.1,261.5,443.4,262,442.5,262z M412.5,248.8l28.7,8.9l8.9-28.7l-28.7-8.9L412.5,248.8z&#10;&#9;&#9;"/>
	
		<rect x="274.9" y="214.2" transform="matrix(0.2959 -0.9552 0.9552 0.2959 -15.2996 441.5897)" class="st2_crossed-flags-30 targetColor" width="33.9" height="33.9" style="fill: rgb(104, 225, 253);"/>
	<path class="st1_crossed-flags-30" d="M303.1,254.3c-0.2,0-0.4,0-0.6-0.1l-32.4-10c-1-0.3-1.6-1.4-1.3-2.4c0,0,0,0,0,0l10-32.4&#10;&#9;&#9;c0.3-1,1.4-1.6,2.4-1.3l32.4,10c1,0.3,1.6,1.4,1.3,2.4l-10,32.4c-0.2,0.5-0.5,0.9-0.9,1.1C303.7,254.2,303.4,254.3,303.1,254.3z&#10;&#9;&#9; M273.1,241.1l28.7,8.9l8.9-28.7l-28.7-8.9L273.1,241.1z"/>
	
		<rect x="307.3" y="224.3" transform="matrix(0.2959 -0.9552 0.9552 0.2959 -2.0935 479.5569)" class="st0_crossed-flags-30" width="33.9" height="33.9"/>
	<path class="st1_crossed-flags-30" d="M335.4,264.3c-0.2,0-0.4,0-0.6-0.1l-32.4-10c-1-0.3-1.6-1.4-1.3-2.4l10-32.4c0.3-1,1.4-1.6,2.4-1.3l32.4,10&#10;&#9;&#9;c1,0.3,1.6,1.4,1.3,2.4c0,0,0,0,0,0l-10,32.4C337,263.8,336.3,264.3,335.4,264.3z M305.4,251.1l28.7,8.9l8.9-28.7l-28.7-8.9&#10;&#9;&#9;L305.4,251.1z"/>
	
		<rect x="339.7" y="234.3" transform="matrix(0.2959 -0.9552 0.9552 0.2959 11.1179 517.5306)" class="st2_crossed-flags-30 targetColor" width="33.9" height="33.9" style="fill: rgb(104, 225, 253);"/>
	<path class="st1_crossed-flags-30" d="M367.8,274.3c-0.2,0-0.4,0-0.6-0.1l-32.4-10c-1-0.3-1.6-1.4-1.3-2.4c0,0,0,0,0,0l10-32.4&#10;&#9;&#9;c0.3-1,1.4-1.6,2.4-1.3c0,0,0,0,0,0l32.4,10c1,0.3,1.6,1.4,1.3,2.4c0,0,0,0,0,0l-10,32.4C369.4,273.8,368.6,274.3,367.8,274.3z&#10;&#9;&#9; M337.8,261.1l28.7,8.9l8.9-28.7l-28.7-8.9L337.8,261.1z"/>
	
		<rect x="372" y="244.3" transform="matrix(0.2959 -0.9552 0.9552 0.2959 24.3239 555.4978)" class="st0_crossed-flags-30" width="33.9" height="33.9"/>
	<path class="st1_crossed-flags-30" d="M400.1,284.4c-0.2,0-0.4,0-0.6-0.1l-32.4-10c-1-0.3-1.6-1.4-1.3-2.4l0,0l10-32.4c0.3-1,1.4-1.6,2.4-1.3&#10;&#9;&#9;c0,0,0,0,0,0l32.4,10c1,0.3,1.6,1.4,1.3,2.4c0,0,0,0,0,0L402,283C401.7,283.8,401,284.4,400.1,284.4z M370.2,271.1l28.7,8.9&#10;&#9;&#9;l8.9-28.7l-28.7-8.9L370.2,271.1z"/>
	
		<rect x="404.4" y="254.3" transform="matrix(0.2959 -0.9552 0.9552 0.2959 37.5395 593.458)" class="st2_crossed-flags-30 targetColor" width="33.9" height="33.9" style="fill: rgb(104, 225, 253);"/>
	<path class="st1_crossed-flags-30" d="M432.5,294.4c-0.2,0-0.4,0-0.6-0.1l-32.4-10c-0.5-0.1-0.9-0.5-1.1-0.9c-0.2-0.5-0.3-1-0.1-1.5l10-32.4&#10;&#9;&#9;c0.3-1,1.4-1.6,2.4-1.3l32.4,10c0.5,0.2,0.9,0.5,1.1,0.9c0.2,0.5,0.3,1,0.1,1.5l-10,32.4C434.1,293.8,433.3,294.4,432.5,294.4z&#10;&#9;&#9; M402.5,281.2l28.7,8.8l8.9-28.7l-28.7-8.9L402.5,281.2z"/>
	<path class="st0_crossed-flags-30" d="M303.8,134.5c0,0.5-0.1,1.1-0.2,1.6l-2.8,9.2l-10,32.4l-20,64.7l-15,48.3l-5.5,17.9L214.1,425&#10;&#9;&#9;c-3.5-0.7-6.9-1.5-10.3-2.5l40.9-131.9l5.5-17.9L293.5,133c0.9-2.8,3.8-4.4,6.6-3.5C302.3,130.2,303.8,132.2,303.8,134.5&#10;&#9;&#9;L303.8,134.5z"/>
	<path class="st1_crossed-flags-30" d="M214.1,426.9c-0.1,0-0.3,0-0.4,0c-3.8-0.8-7.2-1.6-10.4-2.5c-0.5-0.1-0.9-0.5-1.2-0.9c-0.3-0.5-0.3-1-0.1-1.5&#10;&#9;&#9;l89.7-289.6c1.2-3.8,5.2-5.9,9-4.8c3,0.9,5.1,3.7,5.1,6.9c0,0.7-0.1,1.4-0.3,2.1L216,425.6C215.7,426.4,215,427,214.1,426.9z&#10;&#9;&#9; M206.2,421.2c2.1,0.5,4.3,1.1,6.6,1.6l89-287.2c0.1-0.3,0.1-0.7,0.1-1c0-1.9-1.5-3.4-3.3-3.4c-1.5,0-2.8,1-3.3,2.4L206.2,421.2z"/>
</g>
</svg>