<svg id="_0565_currency" xmlns="http://www.w3.org/2000/svg" viewBox="0 0 500 500" data-imageid="currencies-81" imageName="Currencies" class="illustrations_image" style="width: 166px;"><defs><style>.cls-1_currencies-81,.cls-2_currencies-81,.cls-3_currencies-81{fill:#fff;}.cls-4_currencies-81{fill:#f4a28c;}.cls-5_currencies-81,.cls-6_currencies-81{fill:#e6e6e6;}.cls-7_currencies-81{opacity:.03;}.cls-7_currencies-81,.cls-8_currencies-81{fill:none;}.cls-6_currencies-81{opacity:.3;}.cls-8_currencies-81,.cls-9_currencies-81{opacity:.08;}.cls-10_currencies-81{opacity:.09;}.cls-10_currencies-81,.cls-9_currencies-81,.cls-11_currencies-81{fill:#000001;}.cls-12_currencies-81{fill:#ce8172;opacity:.31;}.cls-2_currencies-81{opacity:.46;}.cls-13_currencies-81{fill:#24285b;}.cls-3_currencies-81{opacity:.36;}.cls-14_currencies-81{fill:#ffd200;}.cls-15_currencies-81{fill:#68e1fd;}</style></defs><g id="bg_currencies-81"><path class="cls-6_currencies-81" d="m113.67,52.46C62.21,70.3,21.7,112.44,15.54,190.29c-5.19,65.6,2.84,181.51,89.65,200.86,168.92,37.66,294.65,36.06,356.43-64.67,38.17-62.24,34.77-249.16-59.93-275.86-66.99-18.88-177.73-36.39-288.01,1.83Z"/></g><g id="sd_currencies-81" class="cls-7_currencies-81"><ellipse class="cls-11_currencies-81" cx="249.36" cy="445.93" rx="231.83" ry="24.33"/></g><g id="dollar_currencies-81"><path class="cls-15_currencies-81 targetColor" d="m356.46,430.34s-5.27,5.19-10.96,2.74c-5.7-2.45-9.86,2.4-5.66,6.51,4.2,4.11,20.09,4.29,20.09,4.29l4.66-10.77-8.13-2.76Z" style="fill: rgb(104, 225, 253);"/><path class="cls-15_currencies-81 targetColor" d="m445.04,427.93s2.58,7.09-1.72,11.73c-4.3,4.63-1.61,10.52,3.59,7.97,5.2-2.55,11.34-17.98,11.34-17.98l-7.72-8.61-5.49,6.89Z" style="fill: rgb(104, 225, 253);"/><path class="cls-13_currencies-81" d="m459.16,294.66s5.56,23.15-4.11,34.53c-9.67,11.39-24.47,65.32,0,92.29l-9.67,9.59s-42.37-22.77-30.29-104.88l-30.25-31.54h74.33Z"/><path class="cls-13_currencies-81" d="m384.83,294.66l-31.07,136.41,15.53,2.4s31.07-93.49,51.58-112.67l-36.05-26.14Z"/><path class="cls-15_currencies-81 targetColor" d="m377.61,174.72s-32.4,13.81-27.44,64.41l31.65-2.71-4.21-61.69Z" style="fill: rgb(104, 225, 253);"/><path class="cls-3_currencies-81" d="m377.61,174.72s-32.4,13.81-27.44,64.41l31.65-2.71-4.21-61.69Z"/><polygon class="cls-4_currencies-81" points="411.32 131.37 420.3 163.04 402.49 166.74 403.11 142.21 411.32 131.37"/><path class="cls-12_currencies-81" d="m402.75,147.58s3.25-1.07,5.42-4.18c0,0,.46,6.01-5.41,12.69l-.02-8.52Z"/><path class="cls-15_currencies-81 targetColor" d="m420.3,163.04l-10.56,2.19s-48.32,5.21-50.28,32.48c-1.96,27.27,25.33,96.95,25.33,96.95h73.2s58.65-138.83-37.7-131.62Z" style="fill: rgb(104, 225, 253);"/><path class="cls-4_currencies-81" d="m392.88,132.3s.89,10.01,3.72,16.26c1.14,2.54,4.18,3.68,6.7,2.5,3.13-1.47,6.94-4.36,7.11-9.78l1.42-9.16s.69-5.77-5.6-8.79c-6.29-3.02-14.2,2.9-13.35,8.97Z"/><path class="cls-10_currencies-81" d="m441.93,175.75s-25.04,14.54-19.23,47.45c5.81,32.91,15.48,44.23-5.18,39.63-20.65-4.6-29.14-14.96-29.14-14.96,0,0-14.86,12.13,0,21.33,14.86,9.2,35.03,9.18,38.21,25.46h31.41s2.54-7.14,5.91-16.12c3.37-8.99-21.99-102.79-21.99-102.79Z"/><path class="cls-13_currencies-81" d="m395.41,132.27c1.74-.22,4.91-.79,8.99-2.32,0,0-2.33,4.86,1.61,9.05,3.93,4.19,8.59,1.24,8.59,1.24l-2.42-12.67c-.59-3.72-3.15-6.83-6.7-8.08-1.45-.51-3.04-.99-4.61-1.32-3.98-.83-9.61.76-11.81,4.31-.95,1.53-1.26,3.43-.86,5.18s1.52,3.33,3.04,4.28c1.07.68,2.98.48,4.17.33Z"/><path class="cls-4_currencies-81" d="m404.89,138.9s-.6-3.82,2.31-4.03c2.91-.21,3.82,5.3.02,6.5l-2.33-2.47Z"/><circle class="cls-9_currencies-81" cx="340.38" cy="231.02" r="74.21"/><circle class="cls-14_currencies-81" cx="340.38" cy="231.02" r="74.21"/><g class="cls-8_currencies-81"><circle class="cls-11_currencies-81" cx="339.16" cy="215.46" r="74.21"/></g><circle class="cls-9_currencies-81" cx="340.38" cy="231.02" r="74.21"/><circle class="cls-14_currencies-81" cx="339.16" cy="215.46" r="74.21"/><path class="cls-1_currencies-81" d="m344.23,177.2c2.09.17,2.67.95,2.5,3.04l-.37,4.46c8.27,1.87,12.75,6.45,15.7,14.02.91,2.27.36,3.42-2.19,4.31l-4.62,1.64c-2.17.83-3.14.29-4.14-1.99-2.07-4.93-4.88-7.45-11.07-7.96-7.73-.63-11.46,1.35-11.89,6.53-.28,3.37,2.64,5.71,5.78,6.61,1.52.49,3.67,1.03,6.47,1.54,5.06.87,7.57,1.45,11.9,3.36,2.21,1.01,3.86,2.06,5.13,3.35,2.35,2.57,4.25,7.31,3.78,13.13-.81,9.91-8.01,16.1-19.88,16.87l-.39,4.73c-.17,2.09-.87,2.77-2.96,2.6l-5-.41c-2.09-.17-2.76-.96-2.59-3.05l.38-4.64c-9-1.93-14.71-7.07-17.04-15.5-.56-2.06.28-3.37,2.44-4.01l4.59-1.27c2.34-.63,3.3,0,4.11,2.35,1.58,5.26,5.47,8.14,11.65,8.65,8.37.69,12.77-1.61,13.21-6.97.23-2.82-.9-4.65-3.45-5.96-2.56-1.22-4.8-1.77-8.86-2.47-4.97-.87-7.74-1.64-11.97-3.64-2.12-1-3.76-2.14-5.03-3.43-2.53-2.68-4.35-7.22-3.9-12.77.81-9.82,7.53-15.86,19.3-16.46l.37-4.46c.17-2.09.96-2.76,3.05-2.59l5,.41Z"/><path class="cls-4_currencies-81" d="m480.54,233.91s4.13,42.27-16.63,44.63c-15.67,1.78-40.78-7.06-56.13-11.44-6.64-1.89-9.87-2.78-14.97-7.44-6.12-5.59-14.61-9.57-8.01-14.88,11.72-9.44,20.03,6.72,20.03,6.72,0,0,14.99,4.59,30.06,5.01,8.2.23,14.31-7.52,12.2-15.45l-3.88-14.56s27.47-25.77,37.32,7.4Z"/><path class="cls-4_currencies-81" d="m393.77,138.57l-2.08,4.3c-.51,1.06.25,2.3,1.43,2.31l3.91.04-3.26-6.65Z"/><path class="cls-15_currencies-81 targetColor" d="m458.99,172.44c10.72,8.28,27.01,26.58,26.69,61.14l-44.35,2.83s-12.81-37.94.59-60.66c3.56-6.04,11.52-7.59,17.06-3.31Z" style="fill: rgb(104, 225, 253);"/><path class="cls-3_currencies-81" d="m458.99,172.44c10.72,8.28,27.01,26.58,26.69,61.14l-44.35,2.83s-12.81-37.94.59-60.66c3.56-6.04,11.52-7.59,17.06-3.31Z"/><path class="cls-4_currencies-81" d="m271.74,225.93c1.53,1.63,2.31,3.86,2.48,6.09.09,1.21,0,2.49-.64,3.52-.38.62-.94,1.11-1.54,1.53-2.43,1.68-6.13,1.92-8.07-.3-1.11-1.28-1.41-3.06-1.44-4.75-.04-1.99-.24-5.93,1.37-7.47,2.14-2.05,6.17-.39,7.84,1.39Z"/></g><g id="euro_currencies-81"><path class="cls-13_currencies-81" d="m91.49,135.27s-9.76-7.54-16.9-1.65c-7.14,5.89-1.11,28.12-17.44,23.69,0,0,18.14,13.71,29.31-10.53l5.03-11.52Z"/><path class="cls-15_currencies-81 targetColor" d="m84.69,151.01s-6.43-.62-4.18-9.45c2.25-8.83,9.48-8.83,11.65-6.64l-7.47,16.09Z" style="fill: rgb(104, 225, 253);"/><path class="cls-4_currencies-81" d="m103.57,145.43s-.44,7.61-2.44,12.43c-.81,1.95-3.08,2.89-5.03,2.06-2.41-1.04-5.37-3.14-5.63-7.25l-1.3-6.92s-.66-4.36,4.04-6.8c4.7-2.44,10.85,1.87,10.34,6.49Z"/><polygon class="cls-4_currencies-81" points="87.79 149.69 83.94 174.38 97.7 175.54 95.04 157.57 87.79 149.69"/><path class="cls-4_currencies-81" d="m103.04,150.21l1.68,3.21c.41.79-.14,1.75-1.03,1.79l-2.96.12,2.32-5.12Z"/><path class="cls-12_currencies-81" d="m95.12,158.08s-2.87-.74-4.3-2.52c0,0-1.34,5.31,5.06,7.66l-.76-5.15Z"/><path class="cls-4_currencies-81" d="m88.31,149.79s.37-2.91-1.85-3.01-2.77,4.11.14,4.94l1.71-1.93Z"/><path class="cls-13_currencies-81" d="m102.04,144.85c-1.84.23-4.22.13-7.3-.52,0,0-2.13,8.35-8.98,10.01,0,0-5.49-13.05,2.64-17.4,6.81-3.65,11.91-6.95,16.96-1.71,3.23,3.35,1.3,9.04-3.31,9.62Z"/><path class="cls-4_currencies-81" d="m118.2,248.29s2.81,52.6,38.6,54.51c35.79,1.9,53.46-69.5,53.46-69.5,0,0,5.75-7.4-.54-11.88,0,0,3.72-11.28,0-11.64-3.72-.36-7.59,19.38-7.59,19.38,0,0-19.04,37.27-36.15,40.86-17.11,3.59-5.44-53.79-45.47-79.75-40.04-25.96-2.31,58.02-2.31,58.02Z"/><path class="cls-4_currencies-81" d="m94.56,148.79s-.11-3.4-2.84-3.06c-2.74.34-2.96,4.3.32,6.1l2.52-3.03Z"/><path class="cls-15_currencies-81 targetColor" d="m83.94,174.38l13.76,1.15s75.63,32.19,35.52,84.14c-3.36,4.35-5.49,9.53-5.93,15.01l-2.46,30.91-55.6,2.51s-85.49-111.22,14.71-133.72Z" style="fill: rgb(104, 225, 253);"/><polygon class="cls-4_currencies-81" points="131.07 348.26 136.86 439.26 131.05 441.24 108.38 356.03 131.07 348.26"/><path class="cls-9_currencies-81" d="m85.62,202.81s16.62,22.87-3.68,46.15c-20.3,23.28-7.07,42.18,16.53,25.79,23.6-16.39,28.43,3.36,28.43,3.36l-.88,12.58-37.83,1.29-41.89,2.05-16.33-34.29,55.66-56.92Z"/><path class="cls-15_currencies-81 targetColor" d="m136.65,437.93s3.77,4.05,8.12,3.48,5.49,5.55-1.58,5.49c-2.7-.02-4.89-.28-6.57-.58-2-.36-4,.01-5.91.69-.6.21-1.3.13-2.07-.64-2.19-2.18,2.27-7.97,2.27-7.97l5.73-.47Z" style="fill: rgb(104, 225, 253);"/><polygon class="cls-4_currencies-81" points="55.13 351.49 53 442.65 58.88 444.4 78.12 358.34 55.13 351.49"/><path class="cls-15_currencies-81 targetColor" d="m53.15,441.31s-3.6,4.2-7.98,3.8c-4.37-.4-5.27,5.77,1.8,5.42,2.7-.13,4.88-.47,6.54-.85,1.98-.44,3.99-.15,5.93.45.6.19,1.31.08,2.04-.72,2.1-2.27-2.59-7.88-2.59-7.88l-5.75-.24Z" style="fill: rgb(104, 225, 253);"/><polygon class="cls-13_currencies-81" points="126.02 290.69 145.74 383.59 105.24 385.41 88.13 386.19 39.15 389.46 56.26 293.84 126.02 290.69"/><circle class="cls-9_currencies-81" cx="182.99" cy="268.21" r="74.21"/><circle class="cls-14_currencies-81" cx="182.99" cy="268.21" r="74.21"/><g class="cls-8_currencies-81"><circle class="cls-11_currencies-81" cx="179.08" cy="253.1" r="74.21"/></g><circle class="cls-9_currencies-81" cx="182.99" cy="268.21" r="74.21"/><circle class="cls-14_currencies-81" cx="179.08" cy="253.1" r="74.21"/><path class="cls-1_currencies-81" d="m193.9,223.92l3.12-6.84c.48-1.05.11-2.32-.89-2.88-3.15-1.77-6.53-2.93-10.09-3.44-9.74-1.4-18.21,1.7-25.44,8.09-7.26,6.42-10.19,14.9-10.6,24.38-.13,3.07-.12,3.07-3.14,3.89-2.3.62-4.61,1.24-6.94,1.87-.78.21-1.26,1.02-1.04,1.8l1.47,5.47c.21.78,1.02,1.25,1.8,1.04l8.96-2.41,1.15,4.28-8.95,2.41c-.78.21-1.25,1.02-1.04,1.8l1.48,5.5c.21.78,1.02,1.25,1.8,1.04l9.89-2.66c7.22,12.97,17.46,20.53,32.76,18.96,10.7-1.1,18.81-6.14,24.06-15.29.83-1.44.32-3.3-1.14-4.1l-5.26-2.9c-1.36-.75-3.04-.31-3.91.98-1.98,2.94-4.36,5.45-7.7,7-4.52,2.09-9.22,2.64-13.99.9-4.68-1.71-7.9-5.1-10.55-9.44l24.41-6.57c1.22-.33,1.94-1.58,1.61-2.8l-1.07-3.96c-.33-1.22-1.58-1.94-2.8-1.61l-25.55,6.88-1.15-4.26,25.54-6.88c1.22-.33,1.94-1.58,1.61-2.8l-1.04-3.87c-.33-1.22-1.58-1.94-2.8-1.61l-24.27,6.53c.29-6.82,2.41-12.64,8.09-16.51,6.07-4.14,12.28-4.06,18.53-.91,1.14.58,2.53.09,3.07-1.08Z"/><path class="cls-4_currencies-81" d="m53.36,187.69c12.88-10.23,32.39-1.33,32.26,15.12-.15,20.1-21.91,42.57-28.74,55.48-3.78,7.15-8.83,16.17-4.59,21.8,13.76,18.26,60.48-13.97,60.48-13.97,0,0,3.17-9.57,9.29-7.75,5.86,1.74,2.61,13.45-4.39,15.34l.02.03s-85.1,77.69-96.7,8.3c-9.56-57.21,14.96-80.52,32.36-94.34Z"/><path class="cls-15_currencies-81 targetColor" d="m78.63,175.71s-2.17-5.82,8.69-7.55c10.86-1.73,19.78,2.52,16.55,10.4,0,0-7.93,6.92-25.24-2.85Z" style="fill: rgb(104, 225, 253);"/><path class="cls-2_currencies-81" d="m78.63,175.71s-2.17-5.82,8.69-7.55c10.86-1.73,19.78,2.52,16.55,10.4,0,0-7.93,6.92-25.24-2.85Z"/></g><g id="exchange_currencies-81"><path class="cls-5_currencies-81" d="m306.39,133.64s-43.06-18.77-77.62,5.35l11.05,15.93-51.07-6.91,15.81-41.26,11.04,14.04s57.36-24.53,90.79,12.86Z"/><path class="cls-5_currencies-81" d="m194.48,351.92s43.06,18.77,77.62-5.35l-11.05-15.93,51.07,6.91-15.81,41.26-11.04-14.04s-57.36,24.53-90.79-12.86Z"/></g></svg>