<svg version="1.1" id="Layer_1" xmlns="http://www.w3.org/2000/svg" xmlns:xlink="http://www.w3.org/1999/xlink" x="0px" y="0px" viewBox="0 0 500 500" style="width: 166px;" xml:space="preserve" data-imageid="data-analysis-1-60" imageName="Data Analysis 1" class="illustrations_image">
<style type="text/css">
	.st0_data-analysis-1-60{fill:#D1D3D4;}
	.st1_data-analysis-1-60{fill:#231F20;}
	.st2_data-analysis-1-60{fill:#FFFFFF;}
	.st3_data-analysis-1-60{fill:#68E1FD;}
</style>
<g id="Back_Screen_data-analysis-1-60">
	<path class="st0_data-analysis-1-60" d="M301.4,183.9c0,0,15.3,0.7,37.6,19.5s30.5,31.7,30.5,31.7v-74.1c0,0-28.4-32.9-65.9-45.4L301.4,183.9&#10;&#9;&#9;L301.4,183.9z"/>
	<path class="st1_data-analysis-1-60" d="M369.5,235.7c-0.2,0-0.5-0.1-0.6-0.3c-0.1-0.1-8.4-13.1-30.3-31.5s-37-19.3-37.2-19.3c-0.4,0-0.7-0.3-0.7-0.7&#10;&#9;&#9;l2.2-68.3c0-0.2,0.1-0.4,0.3-0.6c0.2-0.1,0.4-0.2,0.6-0.1c37.3,12.4,65.9,45.2,66.2,45.6c0.1,0.1,0.2,0.3,0.2,0.5V235&#10;&#9;&#9;c0,0.3-0.2,0.6-0.5,0.7C369.6,235.7,369.5,235.7,369.5,235.7L369.5,235.7z M302.1,183.2c3.2,0.4,17.5,2.9,37.3,19.6&#10;&#9;&#9;c17.3,14.6,26.2,25.8,29.3,30v-71.6c-2.4-2.7-29.5-32.7-64.5-44.7L302.1,183.2z"/>
	<path class="st0_data-analysis-1-60" d="M140.7,209.8v-66.1c0,0,35.5-13.9,80-10.8v63.4C220.7,196.3,171.7,197.6,140.7,209.8z"/>
	<path class="st1_data-analysis-1-60" d="M140.7,210.5c-0.1,0-0.3,0-0.4-0.1c-0.2-0.1-0.3-0.3-0.3-0.6v-66.1c0-0.3,0.2-0.5,0.4-0.6&#10;&#9;&#9;c0.4-0.1,36.2-13.9,80.3-10.8c0.4,0,0.7,0.3,0.6,0.7v63.4c0,0.4-0.3,0.7-0.7,0.7c-0.5,0-49.2,1.5-79.7,13.4&#10;&#9;&#9;C140.8,210.5,140.7,210.5,140.7,210.5L140.7,210.5z M141.4,144.2v64.6c28.8-10.9,72.6-12.9,78.6-13.1v-62&#10;&#9;&#9;C179.1,130.9,145.6,142.6,141.4,144.2L141.4,144.2z"/>
	<path class="st1_data-analysis-1-60" d="M150.2,198.9c-0.1,0-0.3,0-0.4-0.1c-0.2-0.1-0.3-0.3-0.3-0.6v-46.9c0-0.4,0.3-0.7,0.7-0.7&#10;&#9;&#9;c0.4,0,0.7,0.3,0.7,0.7c0,0,0,0,0,0v46c6.4-2,42.2-12.9,55.6-10.1c0.4,0.1,0.6,0.5,0.5,0.8c0,0,0,0,0,0c-0.1,0.4-0.4,0.6-0.8,0.5&#10;&#9;&#9;c0,0,0,0,0,0c-14-2.9-55.3,10.2-55.8,10.4C150.3,198.9,150.2,198.9,150.2,198.9L150.2,198.9z"/>
	<path class="st0_data-analysis-1-60" d="M109.9,246.5c0,0-23.8,9.9-32.8,39.1v-58.4c0,0-0.4-28.3,32.8-46.3L109.9,246.5L109.9,246.5z"/>
	<path class="st1_data-analysis-1-60" d="M77.1,286.3H77c-0.3-0.1-0.6-0.3-0.6-0.7v-58.4c0-0.3-0.1-28.9,33.2-46.9c0.2-0.1,0.5-0.1,0.7,0&#10;&#9;&#9;c0.2,0.1,0.3,0.4,0.3,0.6v65.6c0,0.3-0.2,0.5-0.4,0.6c-0.2,0.1-23.6,10.1-32.4,38.6C77.7,286.1,77.4,286.3,77.1,286.3L77.1,286.3z&#10;&#9;&#9; M109.2,182.1c-31.4,17.6-31.4,44.8-31.4,45.1v54.2c9.1-24.1,28.3-33.9,31.4-35.3V182.1L109.2,182.1z M109.9,246.5L109.9,246.5z"/>
	<path class="st2_data-analysis-1-60" d="M77.1,227.2c0,0,5.9,25.4,28.3,33.8v68.3c0,0-25.6-17.7-28.3-43.7L77.1,227.2L77.1,227.2z"/>
	<path class="st1_data-analysis-1-60" d="M105.4,330c-0.1,0-0.3,0-0.4-0.1c-0.3-0.2-25.9-18.2-28.6-44.2v-58.5c0-0.4,0.3-0.7,0.7-0.7&#10;&#9;&#9;c0.3,0,0.6,0.2,0.7,0.5c0.1,0.2,6,25.1,27.9,33.3c0.3,0.1,0.5,0.4,0.4,0.6v68.3c0,0.3-0.1,0.5-0.4,0.6&#10;&#9;&#9;C105.7,330,105.5,330,105.4,330L105.4,330z M77.8,231.7v53.9c2.3,22.3,22,38.6,26.9,42.4v-66.5C88.2,255.1,80.6,239.4,77.8,231.7z"/>
	<path class="st0_data-analysis-1-60" d="M99.3,273.4c-0.1,0-0.3,0-0.4-0.1c-10.6-7.1-18.2-17.7-18.3-17.8c-0.2-0.3-0.2-0.8,0.2-1&#10;&#9;&#9;c0.3-0.2,0.8-0.2,1,0.2c0.1,0.1,7.5,10.5,18,17.4c0.3,0.2,0.4,0.6,0.2,0.9c0,0,0,0,0,0.1C99.8,273.3,99.6,273.4,99.3,273.4&#10;&#9;&#9;L99.3,273.4z"/>
	<path class="st1_data-analysis-1-60" d="M357.9,210.5c-0.2,0-0.4-0.1-0.5-0.2c-14.7-16.9-43.3-34.2-43.6-34.3c-0.2-0.1-0.3-0.4-0.3-0.6v-45.7&#10;&#9;&#9;c0-0.4,0.3-0.7,0.7-0.7c0.4,0,0.7,0.3,0.7,0.7c0,0,0,0,0,0v45.3c3.3,2,29.6,18.3,43.6,34.4c0.3,0.3,0.2,0.7-0.1,1&#10;&#9;&#9;C358.2,210.4,358.1,210.5,357.9,210.5L357.9,210.5z"/>
	<path class="st1_data-analysis-1-60" d="M342.5,180.6c-0.5,0-1-0.1-1.4-0.3c-2.5-1.2-3.2-5.8-3.9-10.6c-0.5-3.5-1.1-7.1-2.3-9.2&#10;&#9;&#9;c-0.2-0.5-0.7-0.8-1.3-0.8c-3.9-0.1-12,10.5-14.9,14.6c-0.2,0.3-0.6,0.5-1,0.3c-0.3-0.2-0.5-0.6-0.3-1c0,0,0-0.1,0.1-0.1&#10;&#9;&#9;c1.1-1.6,10.7-15.2,16-15.2h0.1c1,0,1.9,0.6,2.4,1.6c1.4,2.4,1.9,6.1,2.5,9.7c0.7,4.2,1.3,8.6,3.2,9.6c0.8,0.3,1.8,0.2,2.5-0.3&#10;&#9;&#9;c3-1.7,5.7-3.9,7.9-6.5c2.5-3,5.5-5.5,8.9-7.4c0.3-0.2,0.8-0.1,0.9,0.3c0,0,0,0,0,0c0.2,0.3,0.1,0.8-0.3,0.9&#10;&#9;&#9;c-3.2,1.8-6.1,4.2-8.5,7.1c-2.3,2.7-5.1,5-8.2,6.8C344.1,180.3,343.3,180.6,342.5,180.6L342.5,180.6z"/>
	<path class="st1_data-analysis-1-60" d="M163.1,195.1c-0.4,0-0.7-0.3-0.7-0.7v-39.5c0-0.3,0.2-0.6,0.5-0.7c2.7-0.8,5.4-1.4,8.1-1.8&#10;&#9;&#9;c0.4,0,0.7,0.2,0.8,0.6c0,0,0,0,0,0.1v38.7c0,0.4-0.3,0.7-0.7,0.7c-0.4,0-0.7-0.3-0.7-0.7v-37.9c-2.2,0.4-4.4,0.9-6.6,1.5v39&#10;&#9;&#9;C163.8,194.8,163.5,195.1,163.1,195.1L163.1,195.1z"/>
	<path class="st0_data-analysis-1-60" d="M125,233.6c-0.2,0-0.5-0.1-0.6-0.4c-0.2-0.3-0.1-0.8,0.2-1c0,0,0,0,0.1,0c9.5-5.6,28.9-9.7,29.7-9.9&#10;&#9;&#9;c0.4-0.1,0.7,0.2,0.8,0.5c0.1,0.4-0.2,0.7-0.5,0.8c-0.2,0-20,4.3-29.3,9.7C125.3,233.5,125.1,233.6,125,233.6L125,233.6z"/>
	<path class="st0_data-analysis-1-60" d="M125,240.6c-0.2,0-0.5-0.1-0.6-0.4c-0.2-0.3-0.1-0.8,0.2-1c0,0,0,0,0.1,0c9.5-5.6,28.9-9.7,29.7-9.9&#10;&#9;&#9;c0.4-0.1,0.7,0.2,0.8,0.5c0.1,0.4-0.2,0.7-0.5,0.8c-0.2,0-20,4.2-29.3,9.7C125.3,240.6,125.1,240.6,125,240.6L125,240.6z"/>
	<path class="st0_data-analysis-1-60" d="M125,247.7c-0.2,0-0.5-0.1-0.6-0.4c-0.2-0.3-0.1-0.8,0.2-1c0,0,0,0,0.1,0c9.5-5.6,28.9-9.7,29.7-9.9&#10;&#9;&#9;c0.4-0.1,0.7,0.2,0.8,0.5c0.1,0.4-0.2,0.7-0.5,0.8c0,0,0,0,0,0c-0.2,0-20,4.3-29.3,9.7C125.3,247.6,125.1,247.6,125,247.7&#10;&#9;&#9;L125,247.7z"/>
	<path class="st0_data-analysis-1-60" d="M125,254.7c-0.2,0-0.5-0.1-0.6-0.4c-0.2-0.3-0.1-0.8,0.2-1c0,0,0,0,0.1,0c3.8-2.3,9.8-4.6,17.6-6.8&#10;&#9;&#9;c0.4-0.1,0.8,0.1,0.9,0.5c0.1,0.4-0.1,0.8-0.5,0.9c-7.6,2.2-13.6,4.5-17.3,6.7C125.3,254.6,125.1,254.6,125,254.7L125,254.7z"/>
	<path class="st0_data-analysis-1-60" d="M99.3,286.3c-0.1,0-0.3,0-0.4-0.1c-10.6-7.1-18.2-17.7-18.3-17.8c-0.2-0.3-0.2-0.8,0.2-1s0.8-0.2,1,0.2&#10;&#9;&#9;c0.1,0.1,7.5,10.5,18,17.4c0.3,0.2,0.4,0.6,0.2,0.9c0,0,0,0,0,0.1C99.8,286.2,99.6,286.3,99.3,286.3L99.3,286.3z"/>
	<path class="st0_data-analysis-1-60" d="M99.3,299.1c-0.1,0-0.3,0-0.4-0.1c-10.6-7.1-18.2-17.7-18.3-17.8c-0.2-0.3-0.2-0.8,0.2-1s0.8-0.2,1,0.2&#10;&#9;&#9;c0.1,0.1,7.5,10.5,18,17.4c0.3,0.2,0.4,0.6,0.2,0.9c0,0,0,0,0,0.1C99.8,299,99.6,299.2,99.3,299.1L99.3,299.1z"/>
</g>
<g id="Character_data-analysis-1-60">
	<path class="st2_data-analysis-1-60" d="M379.5,282.1c-2.6,0.5-116.7,53.2-116.7,53.2s-44.6-16.3-45.7-15.8s112.4-46.8,112.4-46.8L379.5,282.1z"/>
	<path class="st1_data-analysis-1-60" d="M262.8,336c-0.1,0-0.2,0-0.2,0c-17.2-6.3-43.5-15.7-45.3-15.7v-0.1c-0.5,0.1-0.6,0-0.7-0.3&#10;&#9;&#9;c-0.2-0.3,0-0.7,0.3-0.9h0.1l0,0c1.5-0.6,111.3-46.3,112.4-46.8c0.1,0,0.3,0,0.4,0l49.9,9.4c0.3,0.1,0.6,0.3,0.6,0.7&#10;&#9;&#9;c0,0.3-0.2,0.6-0.6,0.7c-2.5,0.6-77.3,35-116.5,53.1c-0.1,0-0.2,0.1-0.3,0.1L262.8,336z M219.4,319.4c4,1.1,14.7,4.7,43.4,15.2&#10;&#9;&#9;c11.9-5.5,98.6-45.5,114.2-52.2l-47.4-8.9l-56,23.3L235,312.8l-12.7,5.3L219.4,319.4L219.4,319.4z"/>
	<path class="st0_data-analysis-1-60" d="M262.8,328.8c-0.1,0-0.1,0-0.2,0l-30.3-9.3c-0.3-0.1-0.5-0.3-0.5-0.6c0-0.3,0.2-0.6,0.4-0.7l85.8-36&#10;&#9;&#9;c0.3-0.1,0.7,0,0.9,0.3l8.9,15.8c0.1,0.2,0.1,0.4,0.1,0.6c-0.1,0.2-0.2,0.3-0.4,0.4l-64.4,29.5C263,328.8,262.9,328.8,262.8,328.8&#10;&#9;&#9;L262.8,328.8z M234.5,318.7l28.2,8.6l63.4-29.1l-8.2-14.6L234.5,318.7L234.5,318.7z"/>
	<path class="st2_data-analysis-1-60" d="M214.5,101.1c-3.6,0.8-6.9,2.4-9.8,4.7c-2.8,2-5.6,5.2-4.7,8.4c0.4,1.2,1.3,2.7,0.5,3.7&#10;&#9;&#9;c-0.5,0.7-1.5,0.8-2.4,0.9c-5,0.7-8.4,5.4-7.7,10.3c0.3,1.9,1.1,3.6,2.5,5c-6.1,0-11.3,6.3-10.3,12.3c0.3,1.6,0.8,3.1,1.6,4.5&#10;&#9;&#9;c1.2,2.4,2.6,5,2.2,7.6c-2.8-0.6-5.4,2.4-5.3,5.2s2.3,5.3,4.7,6.7c-2.8,0.5-4.5,3.7-4,6.6s2.5,5.1,4.9,6.7c5.7,4,13,4.9,19.6,2.5&#10;&#9;&#9;c0.4,2.7,2.6,4.8,5.1,5.8c2.6,0.8,5.2,1.2,7.9,1c5,0,10.5-0.4,14.2-3.8c0.8-0.8,1.6-2,1-3c-0.7-1.2-2.9-1.2-3-2.6&#10;&#9;&#9;c3.8-0.2,7.4-1.6,10.4-3.8c2.1-1.6,3.9-3.8,4.1-6.4c0.1-2.1-0.8-4.1-2.6-5.4c2.1-1.8,4.4-4.5,3.3-7c-0.9-2-3.7-3.3-3.1-5.4&#10;&#9;&#9;c5.1-2.2,7.4-8,5.3-13.1c-0.5-1.2-1.3-2.3-2.3-3.3c5.2-1.9,7.8-7.7,5.9-12.9c-1-2.8-3.3-5-6.1-6c2.1-3.4,1-7.9-2.5-10&#10;&#9;&#9;c-1.2-0.7-2.5-1.1-3.8-1.1c1.3-1.7,0.4-4.3-1.3-5.5c-1.8-1.1-4-1.4-6.1-1c-3.5,0.5-5.8,1.5-9,0S217.9,100.4,214.5,101.1&#10;&#9;&#9;L214.5,101.1z"/>
	<path class="st1_data-analysis-1-60" d="M218.6,193.7c-2.6,0.1-5.1-0.2-7.5-1.1c-2.5-0.9-4.5-2.9-5.4-5.5c-6.6,2.2-13.8,1.1-19.5-2.9&#10;&#9;&#9;c-2-1.4-4.6-3.9-5.1-7.2c-0.5-2.7,0.8-5.4,3.1-6.9c-2.2-1.5-3.6-3.8-3.9-6.5c-0.1-1.8,0.7-3.6,2.1-4.8c0.9-0.8,2-1.3,3.2-1.2&#10;&#9;&#9;c0.1-2-0.9-3.9-1.8-5.9l-0.3-0.7c-0.8-1.5-1.3-3.1-1.6-4.7c-0.5-3.2,0.5-6.5,2.6-8.9c1.7-2.1,4.2-3.6,6.9-4.1&#10;&#9;&#9;c-3.2-4.4-2.2-10.5,2.2-13.6c1.3-0.9,2.8-1.5,4.3-1.8h0.3c0.7-0.1,1.3-0.2,1.6-0.6s0.1-1.2-0.3-2.2c-0.1-0.3-0.2-0.6-0.3-0.9&#10;&#9;&#9;c-1.2-4,2.6-7.5,4.9-9.2c3-2.3,6.4-4,10.1-4.8l0,0c3.5-0.7,6.2,0.1,9.7,1.7c2.3,1,4.1,0.7,6.5,0.3c0.6-0.1,1.3-0.2,2.1-0.4&#10;&#9;&#9;c2.8-0.4,5,0,6.6,1.1c1.2,0.8,1.9,2.1,2.1,3.5c0.1,0.7,0.1,1.4-0.2,2c4.4,0.6,7.4,4.6,6.8,9c-0.1,0.8-0.3,1.6-0.7,2.3&#10;&#9;&#9;c5.4,2.3,8,8.6,5.7,14c-1,2.4-2.9,4.3-5.2,5.4c3.8,4.5,3.3,11.2-1.2,15.1c-0.7,0.6-1.5,1.1-2.4,1.6c0,0.7,0.5,1.4,1.4,2.4&#10;&#9;&#9;c0.7,0.7,1.2,1.4,1.7,2.3c0.9,2.2,0,4.6-2.9,7.3c1.5,1.4,2.3,3.4,2.2,5.5c-0.2,3.1-2.5,5.5-4.4,6.9c-2.8,2.1-6,3.4-9.4,3.9l0.5,0.2&#10;&#9;&#9;c0.7,0.3,1.4,0.8,1.8,1.4c0.8,1.3-0.1,2.9-1.2,3.8c-3.8,3.4-9.3,4-14.7,4L218.6,193.7L218.6,193.7z M206.3,185.5&#10;&#9;&#9;c0.1,0,0.3,0,0.4,0.1c0.2,0.1,0.3,0.3,0.3,0.5c0.5,2.4,2.3,4.4,4.6,5.2c2.5,0.8,5.1,1.2,7.7,1c5.1,0,10.3-0.5,13.7-3.6&#10;&#9;&#9;c0.7-0.6,1.2-1.5,0.9-2.1c-0.3-0.4-0.7-0.7-1.2-0.8c-0.8-0.4-1.8-0.9-1.9-2c0-0.2,0-0.4,0.2-0.5c0.1-0.1,0.3-0.2,0.5-0.2&#10;&#9;&#9;c3.6-0.2,7.1-1.5,10-3.7c1.4-1,3.6-3.1,3.8-5.9c0.1-1.9-0.7-3.7-2.3-4.8c-0.2-0.1-0.3-0.3-0.3-0.5c0-0.2,0.1-0.4,0.2-0.6&#10;&#9;&#9;c2.8-2.4,3.9-4.6,3.1-6.2c-0.4-0.7-0.9-1.3-1.4-1.9c-1-1.1-2.2-2.4-1.7-4c0.1-0.2,0.2-0.4,0.4-0.5c4.7-2,6.9-7.5,4.9-12.2&#10;&#9;&#9;c-0.5-1.1-1.2-2.2-2.1-3c-0.2-0.2-0.2-0.4-0.2-0.6c0-0.2,0.2-0.4,0.4-0.5c4.8-1.8,7.3-7.1,5.5-11.9c-1-2.6-3.1-4.7-5.8-5.6&#10;&#9;&#9;c-0.2-0.1-0.4-0.2-0.4-0.4c-0.1-0.2,0-0.4,0.1-0.6c1.9-3.1,0.9-7.2-2.2-9c-1-0.6-2.2-1-3.4-1l0,0c-0.3,0-0.5-0.2-0.6-0.4&#10;&#9;&#9;c-0.1-0.2-0.1-0.5,0.1-0.7c0.4-0.6,0.6-1.3,0.4-2c-0.2-1-0.7-1.9-1.6-2.5c-1.3-0.9-3.2-1.2-5.6-0.9c-0.7,0.1-1.4,0.2-2,0.3&#10;&#9;&#9;c-2.5,0.5-4.7,0.9-7.3-0.4c-3.2-1.5-5.7-2.2-8.8-1.6c-3,0.6-6,2-9.5,4.6c-1.7,1.2-5.4,4.3-4.4,7.7c0.1,0.3,0.2,0.5,0.3,0.8&#10;&#9;&#9;c0.4,1.1,0.9,2.4,0.1,3.5c-0.7,0.7-1.6,1.1-2.6,1.1h-0.3c-4.6,0.7-7.7,4.9-7.1,9.5c0.3,1.7,1.1,3.4,2.3,4.6&#10;&#9;&#9;c0.2,0.2,0.2,0.5,0.1,0.8c-0.1,0.3-0.4,0.4-0.6,0.4c-5.7,0.3-10,5.2-9.7,10.9c0,0.2,0,0.4,0.1,0.6c0.3,1.5,0.8,3,1.5,4.4l0.3,0.7&#10;&#9;&#9;c1.1,2.3,2.3,4.7,1.9,7.3c0,0.2-0.1,0.4-0.3,0.5c-0.2,0.1-0.4,0.1-0.5,0.1c-1-0.2-2,0.1-2.8,0.8c-1.1,0.9-1.7,2.3-1.6,3.7&#10;&#9;&#9;c0.1,2.3,1.8,4.6,4.4,6.1c0.3,0.2,0.4,0.6,0.2,1c-0.1,0.2-0.3,0.3-0.5,0.3c-2.4,0.4-3.8,3.4-3.4,5.7c0.5,2.9,2.8,5,4.6,6.3&#10;&#9;&#9;c5.5,3.8,12.5,4.7,18.8,2.4c0.1,0,0.2,0,0.2,0L206.3,185.5z M214.5,101.1L214.5,101.1z"/>
	<path class="st2_data-analysis-1-60" d="M252.5,189.1c0,0,40.3,51.9,42.7,52.1c0,0,42.5-6,45.2-10.2s5.6-3,5.6-3s2.6-5,5.9-5.7s13.5,5.6,7.6,9.6&#10;&#9;&#9;s-58.9,37.3-66.1,38.1c-22.8,2.4-44.5-52.2-42-59.4L252.5,189.1L252.5,189.1z"/>
	<path class="st1_data-analysis-1-60" d="M292,270.8c-6.8,0-14.1-4.7-21.3-13.8c-12.4-15.7-21.7-41-20-46.6l1.1-21.4c0-0.3,0.2-0.5,0.5-0.6&#10;&#9;&#9;c0.3-0.1,0.6,0,0.8,0.2c15.5,20,39.4,50,42.2,51.8c16.3-2.3,42.7-7,44.5-9.8c2.2-3.5,4.7-3.6,5.9-3.4c0.8-1.3,3.1-5,6.1-5.5&#10;&#9;&#9;c2.7-0.5,8.6,2.7,9.9,6c0.4,1.1,0.8,3.1-1.8,4.9c-4.6,3-58.8,37.4-66.4,38.2C293,270.8,292.5,270.8,292,270.8L292,270.8z&#10;&#9;&#9; M253.1,191l-1,19.6c0,0.1,0,0.1,0,0.2c-1.5,4.4,7,29.2,19.8,45.3c5.1,6.5,13.1,14,21.5,13.2c6.9-0.7,58.1-32.9,65.8-38&#10;&#9;&#9;c1.4-0.9,1.8-2,1.3-3.2c-1.1-2.8-6.4-5.5-8.4-5.1c-2.4,0.5-4.7,4-5.4,5.3c-0.2,0.3-0.5,0.5-0.9,0.3c-0.1,0-2.5-0.9-4.8,2.8&#10;&#9;&#9;c-2.8,4.3-41.3,9.9-45.7,10.5h-0.2C292.9,241.6,265.9,207.3,253.1,191L253.1,191z M251.4,210.6L251.4,210.6z"/>
	<path class="st3_data-analysis-1-60 targetColor" d="M222.7,175.2c0,0-18.2-7.4-40.4,11.7c-10,8.6-12,17.8-16.2,27.4c3.4,31.9,15,87.1,15,87.1h76.2&#10;&#9;&#9;c0,0,6.1-46.3,8.4-74.2c1.4-17.4-6.5-30.4-10.7-37.2C247.9,178,222.6,175.2,222.7,175.2L222.7,175.2z" style="fill: rgb(104, 225, 253);"/>
	<path class="st1_data-analysis-1-60" d="M210.8,179.3c1.4,2.7,24.6,63.5,24.6,63.5v-56.9L210.8,179.3z"/>
	<path class="st1_data-analysis-1-60" d="M235.4,243.4c-0.3,0-0.6-0.2-0.6-0.4c-0.2-0.6-23.2-60.8-24.6-63.4c-0.1-0.2-0.1-0.5,0.1-0.8&#10;&#9;&#9;c0.2-0.2,0.5-0.3,0.7-0.2l24.6,6.6c0.3,0.1,0.5,0.4,0.5,0.7v56.9c0,0.3-0.2,0.6-0.6,0.7L235.4,243.4L235.4,243.4z M212,180.3&#10;&#9;&#9;c3.3,8,18.1,46.5,22.7,58.6v-52.5L212,180.3z"/>
	<path class="st2_data-analysis-1-60" d="M244.5,128.7c0.4,1.3,0.8,2.6,1.1,3.9c0.5,1.7,2,2.3,2.6,3.8c0.7,1.6,0.4,4.5,0.5,6.3c0.3,4.3,0,8.5-0.9,12.7&#10;&#9;&#9;c-1.3,5.5-5.8,9.8-11.3,10.8l-0.5,17.3c0,0-0.2,8.8-11,7.1c-6.3-1-11.7-5.2-14.2-11.2l-0.1-22.5c0-2.4-0.9-6.9-0.1-9.1&#10;&#9;&#9;s5.1-3.7,6.9-5.8c2.4-2.8,3.8-6.4,4-10.1c4,0.2,7.7-1.9,9.6-5.4c3.2,4,9.1,4.6,13.1,1.5C244.4,128.1,244.4,128.4,244.5,128.7&#10;&#9;&#9;L244.5,128.7z"/>
	<path class="st1_data-analysis-1-60" d="M227.6,191.4c-0.9,0-1.8-0.1-2.7-0.2c-6.6-1-12.2-5.4-14.7-11.6c0-0.1,0-0.2,0-0.2l-0.2-22.5&#10;&#9;&#9;c0-0.7-0.1-1.6-0.2-2.6c-0.2-2.4-0.5-5.1,0.2-6.8c0.6-1.5,2.3-2.6,4-3.7c1.1-0.6,2.1-1.4,3-2.4c2.3-2.7,3.7-6.1,3.8-9.7&#10;&#9;&#9;c0-0.4,0.3-0.7,0.7-0.7c0,0,0,0,0,0c3.7,0.2,7.2-1.8,9-5.1c0.2-0.3,0.6-0.5,0.9-0.3c0.1,0,0.2,0.1,0.2,0.2c3,3.6,8.4,4.2,12.1,1.4&#10;&#9;&#9;c0.2-0.2,0.4-0.2,0.6-0.1c0.2,0.1,0.4,0.2,0.5,0.5l0.3,0.9l0,0l1.1,3.9c0.3,0.7,0.7,1.4,1.3,1.9c0.5,0.5,1,1.1,1.3,1.7&#10;&#9;&#9;c0.5,1.6,0.7,3.3,0.5,5c0,0.6,0,1.1,0,1.6c0.3,4.3,0,8.7-0.9,12.9c-1.4,5.6-5.7,9.9-11.3,11.2l-0.5,16.7c-0.1,2.3-1.2,4.5-2.9,6.1&#10;&#9;&#9;C232.1,190.8,229.9,191.5,227.6,191.4L227.6,191.4z M211.5,179.2c2.4,5.6,7.6,9.6,13.6,10.6c3.4,0.5,6,0.1,7.7-1.4&#10;&#9;&#9;c1.4-1.3,2.3-3.1,2.4-5l0.6-17.3c0-0.3,0.3-0.6,0.6-0.7c5.3-1,9.6-5,10.8-10.3c0.9-4.1,1.2-8.3,0.9-12.5c0-0.5,0-1,0-1.6&#10;&#9;&#9;c0.1-1.5,0-3-0.4-4.4c-0.3-0.5-0.6-1-1.1-1.4c-0.7-0.7-1.3-1.5-1.6-2.4l-1.1-3.8c-4,2.5-9.2,1.9-12.6-1.4c-2,3-5.4,4.9-9.1,5&#10;&#9;&#9;c-0.3,3.6-1.8,7.1-4.1,9.9c-1,1-2.1,1.9-3.4,2.6c-1.5,0.9-3,1.9-3.4,3c-0.6,1.4-0.3,4-0.1,6.1c0.1,1,0.2,2,0.2,2.7l0.1,22.4&#10;&#9;&#9;L211.5,179.2z"/>
	<path class="st2_data-analysis-1-60" d="M216.6,148c0,0-5-12.1-11.2-4.8s2.2,15.9,7.6,15.4"/>
	<path class="st1_data-analysis-1-60" d="M212.6,159.3c-3.2,0-7-2.6-8.9-6.1c-1.9-3.4-1.4-7.6,1.2-10.4c1.7-2,3.5-2.9,5.3-2.6c4.2,0.7,6.9,7.3,7.1,7.5&#10;&#9;&#9;c0.1,0.4,0,0.8-0.4,0.9c-0.4,0.1-0.8,0-0.9-0.4c0,0,0,0,0,0c0-0.1-2.6-6.1-6-6.7c-1.3-0.2-2.7,0.5-4.1,2.1c-2.2,2.4-2.6,6-1,8.9&#10;&#9;&#9;c1.7,3.2,5.3,5.6,8,5.4c0.4,0,0.7,0.2,0.8,0.6c0,0.4-0.2,0.7-0.6,0.8c0,0,0,0,0,0L212.6,159.3L212.6,159.3z"/>
	<path class="st1_data-analysis-1-60" d="M239.2,155.6c-1.2,0-2.5-0.2-3.6-0.6c-0.4-0.1-0.6-0.5-0.4-0.9c0.1-0.3,0.5-0.5,0.8-0.4c0.9,0.3,3.6,0.9,5,0.2&#10;&#9;&#9;c0.3-0.7-1.9-4.9-4.7-8.9c-0.3-0.3-0.2-0.7,0.1-1c0.3-0.3,0.7-0.2,1,0.1c0,0,0.1,0.1,0.1,0.1c1.3,1.8,5.4,7.9,4.8,10.1&#10;&#9;&#9;c-0.1,0.4-0.4,0.7-0.7,0.9C240.8,155.4,240,155.6,239.2,155.6L239.2,155.6z"/>
	<path class="st1_data-analysis-1-60" d="M234.9,160.8c-1,0-2-0.1-3-0.4c-3-0.8-5.5-2.7-7.2-5.2c-0.1-0.4,0-0.8,0.4-0.9c0,0,0,0,0,0&#10;&#9;&#9;c0.4-0.1,0.8,0,0.9,0.4c1.6,2.2,3.9,3.8,6.5,4.5c3.4,0.8,6.9-0.1,10.5-2.9c0.3-0.2,0.7-0.2,1,0.1c0,0,0,0,0,0&#10;&#9;&#9;c0.2,0.3,0.2,0.7-0.1,1c0,0,0,0,0,0C241.3,159.5,238.2,160.7,234.9,160.8z"/>
	<path class="st1_data-analysis-1-60" d="M236.5,166.1c0,0-9.3,0.9-14.5-0.6c0,0,5.4,13.8,14.1,14L236.5,166.1L236.5,166.1z"/>
	<path class="st1_data-analysis-1-60" d="M236.1,180.1L236.1,180.1c-9.1-0.2-14.5-13.9-14.8-14.4c-0.1-0.4,0-0.8,0.4-0.9c0.1-0.1,0.3-0.1,0.5,0&#10;&#9;&#9;c5.1,1.5,14.2,0.6,14.2,0.6c0.4,0,0.7,0.3,0.8,0.6c0,0,0,0.1,0,0.1l-0.4,13.3C236.8,179.8,236.5,180.1,236.1,180.1L236.1,180.1z&#10;&#9;&#9; M223.2,166.4c1.5,3.2,5.9,11.5,12.2,12.2l0.4-11.8C231.6,167.2,227.4,167.1,223.2,166.4L223.2,166.4z"/>
	
		<ellipse transform="matrix(0.9997 -2.251284e-02 2.251284e-02 0.9997 -3.1506 5.2344)" class="st1_data-analysis-1-60" cx="230.9" cy="142.5" rx="1.4" ry="2.4"/>
	
		<ellipse transform="matrix(0.9997 -2.251284e-02 2.251284e-02 0.9997 -3.1409 5.5157)" class="st1_data-analysis-1-60" cx="243.4" cy="142.3" rx="1.4" ry="2.4"/>
	<path class="st1_data-analysis-1-60" d="M227.5,147.9c-4.1,0-4.3-0.3-4.5-0.5s-0.5-0.7-0.7-8.2c0-0.4,0.3-0.7,0.7-0.7c13.7-0.7,14.1-0.5,14.2-0.5&#10;&#9;&#9;c0.3,0.1,0.5,0.4,0.5,0.7l-0.6,8.3c0,0.4-0.3,0.6-0.7,0.6C232.4,147.8,229.5,147.9,227.5,147.9L227.5,147.9z M224.2,146.4&#10;&#9;&#9;c1.3,0.2,6.7,0.1,11.7-0.1l0.5-6.9c-2,0-8.2,0.3-12.5,0.5C223.9,142.6,224,145.5,224.2,146.4L224.2,146.4z"/>
	<path class="st1_data-analysis-1-60" d="M253.3,147.7h-12.9c-0.4,0-0.7-0.3-0.7-0.7l-0.1-8.3c0-0.4,0.3-0.7,0.7-0.7c13.2-0.1,13.6,0,13.8,0.1&#10;&#9;&#9;c0.3,0.1,0.5,0.4,0.5,0.7L254,147C254,147.4,253.7,147.7,253.3,147.7L253.3,147.7z M241.1,146.3h11.6l0.5-6.9c-2,0-7.9,0-12.1,0&#10;&#9;&#9;L241.1,146.3L241.1,146.3z"/>
	<path class="st1_data-analysis-1-60" d="M240.3,142.9h-3.2c-0.4,0-0.7-0.3-0.7-0.7c0-0.4,0.3-0.7,0.7-0.7c0,0,0,0,0,0h3.2c0.4,0,0.7,0.3,0.7,0.7&#10;&#9;&#9;C241,142.6,240.7,142.9,240.3,142.9z"/>
	<path class="st2_data-analysis-1-60" d="M198.3,227.2c0,0-3.9,38-2,47.2l63.9,9c0,0,16.4-0.6,24.2,2.2c4.8,1.7,13.6,9.3,12,11.6s-5.9,5.3-9.9,4.2&#10;&#9;&#9;s-14.8-4.6-14.8-4.6s8.5,7.7,3.4,7.2s-10.8-4.1-10.8-4.1s-35.5,6.7-58.2,5.5c-28.1-1.5-39.9-8-43.1-24.6s0.2-59.8,2.9-66.6"/>
	<path class="st1_data-analysis-1-60" d="M211.8,306.3c-1.9,0-3.8,0-5.6-0.1c-28.7-1.5-40.5-8.3-43.7-25.2c-3.2-16.7,0.3-60.3,3-67&#10;&#9;&#9;c0.1-0.4,0.5-0.6,0.9-0.5s0.6,0.5,0.5,0.9c0,0,0,0.1,0,0.1c-2.7,6.6-6,49.7-2.9,66.2c3.1,16.1,14.6,22.6,42.4,24&#10;&#9;&#9;c22.4,1.1,57.7-5.5,58-5.5c0.2,0,0.4,0,0.5,0.1c0,0,5.6,3.5,10.5,4c0.7,0.1,0.9-0.1,0.9-0.1c0.2-0.6-2.1-3.5-4.8-5.9&#10;&#9;&#9;c-0.2-0.2-0.3-0.6-0.1-0.9c0.2-0.3,0.5-0.4,0.8-0.3c0.1,0,10.9,3.5,14.8,4.6c3.5,1,7.6-1.7,9.1-4c0.1-0.2,0.1-0.5,0-0.8&#10;&#9;&#9;c-0.9-2.8-7.5-8.3-11.6-9.8c-7.7-2.7-23.8-2.1-24-2.1l-64-9c-0.3,0-0.5-0.3-0.6-0.5c-1.9-9.1,1.8-45.9,2-47.4&#10;&#9;&#9;c0-0.4,0.4-0.7,0.7-0.6c0,0,0,0,0,0c0.4,0,0.7,0.4,0.6,0.8c0,0.4-3.7,36.8-2.1,46.5l63.4,8.9c0.5,0,16.5-0.6,24.4,2.2&#10;&#9;&#9;c4.2,1.5,11.4,7.3,12.5,10.7c0.3,0.7,0.2,1.4-0.1,2c-1.8,2.6-6.4,5.7-10.6,4.5c-2.7-0.7-8.5-2.6-12-3.7c1.8,1.9,3.6,4.2,3,5.5&#10;&#9;&#9;c-0.3,0.7-1.1,1-2.3,0.9c-4.7-0.5-9.7-3.4-10.9-4.1C261.2,301.1,233,306.2,211.8,306.3L211.8,306.3z"/>
	<path class="st1_data-analysis-1-60" d="M198.3,227.9h-0.1c-0.4-0.1-0.6-0.4-0.6-0.8l5-27.8c0.1-0.4,0.4-0.6,0.8-0.6c0.4,0.1,0.6,0.4,0.6,0.8l-5,27.8&#10;&#9;&#9;C198.9,227.6,198.6,227.9,198.3,227.9z"/>
</g>
<g id="Front_Screen_data-analysis-1-60">
	<path class="st3_data-analysis-1-60 targetColor" d="M299.7,326.6V225.7c0,0,87.1-3.3,123.2-39.4v104.2C422.9,290.6,386.8,320,299.7,326.6z" style="fill: rgb(104, 225, 253);"/>
	<path class="st1_data-analysis-1-60" d="M299.7,327.3c-0.4,0-0.7-0.3-0.7-0.7v0V225.7c0-0.4,0.3-0.7,0.7-0.7c0.9,0,87.3-3.8,122.7-39.2&#10;&#9;&#9;c0.3-0.3,0.7-0.3,1,0c0.1,0.1,0.2,0.3,0.2,0.5v104.2c0,0.2-0.1,0.4-0.3,0.5C422.9,291.4,386.1,320.7,299.7,327.3L299.7,327.3&#10;&#9;&#9;L299.7,327.3z M300.4,226.4v99.5c81.6-6.4,118.4-33.1,121.8-35.7V188C387.4,221.1,308.5,226,300.4,226.4L300.4,226.4z"/>
	<path class="st2_data-analysis-1-60" d="M119.5,364v-69.2c0,0,38.7,25.6,96.6,19.9v67.5C216.1,382.1,178.2,393.6,119.5,364z"/>
	<path class="st1_data-analysis-1-60" d="M195.9,385c-17,0-43.7-3.6-76.7-20.4c-0.2-0.1-0.4-0.4-0.4-0.6v-69.3c0-0.4,0.3-0.7,0.7-0.7&#10;&#9;&#9;c0.1,0,0.3,0,0.4,0.1c0.4,0.2,39.2,25.4,96.1,19.8c0.2,0,0.4,0.1,0.5,0.2c0.1,0.1,0.2,0.3,0.2,0.5v67.5c0,0.3-0.2,0.6-0.5,0.7&#10;&#9;&#9;C216.1,382.9,208.8,385,195.9,385L195.9,385z M120.2,363.6c53.9,27.1,90.5,19.2,95.2,18v-66.2c-51.7,4.9-88.5-15.4-95.2-19.4&#10;&#9;&#9;L120.2,363.6L120.2,363.6z"/>
	<path class="st1_data-analysis-1-60" d="M320,308c-0.4,0-0.7-0.3-0.7-0.7v0v-71.8c0-0.4,0.3-0.7,0.6-0.7c4.5-0.4,21.9-2.5,22-2.5&#10;&#9;&#9;c0.4,0,0.7,0.2,0.8,0.6c0,0,0,0,0,0.1v70.5c0,0.3-0.2,0.5-0.4,0.6C335.8,306.8,320.6,308,320,308L320,308L320,308z M320.7,236v70.5&#10;&#9;&#9;c3.1-0.3,15-1.4,20.7-3.6v-69.1c-3.3,0.4-16,1.9-20.7,2.4V236z"/>
	<path class="st1_data-analysis-1-60" d="M355.7,300.7c-0.2,0-0.3-0.1-0.5-0.2c-0.1-0.1-0.2-0.3-0.2-0.5v-55.8c0-0.3,0.2-0.6,0.6-0.7&#10;&#9;&#9;c7.5-1.4,14.8-3.4,21.9-6.3c0.2-0.1,0.5-0.1,0.7,0.1c0.2,0.1,0.3,0.3,0.3,0.6v54.5c0,0.3-0.1,0.5-0.4,0.6c-7,3.6-14.5,6.2-22.3,7.6&#10;&#9;&#9;L355.7,300.7L355.7,300.7z M356.4,244.8v54.3c7.2-1.4,14.1-3.8,20.7-7.1v-53.1C370.4,241.5,363.4,243.5,356.4,244.8L356.4,244.8z"/>
	<path class="st1_data-analysis-1-60" d="M390.4,288.2c-0.2,0-0.3-0.1-0.4-0.1c-0.2-0.1-0.3-0.3-0.3-0.5v-39.6c0-0.3,0.2-0.6,0.5-0.7&#10;&#9;&#9;c7-1.7,13.6-4.6,19.6-8.5c0.3-0.2,0.8-0.2,1,0.2c0.1,0.1,0.1,0.3,0.1,0.4v40.1c0,0.2-0.1,0.5-0.3,0.6c-8.7,5.5-19.9,8.2-20,8.3&#10;&#9;&#9;L390.4,288.2L390.4,288.2z M391.1,248.4v38.2c2.7-0.7,11.4-3.3,18.4-7.7v-38.4C403.8,244,397.6,246.7,391.1,248.4L391.1,248.4z"/>
	<path class="st2_data-analysis-1-60" d="M383.5,222.2c-0.4,0-0.7-0.3-0.7-0.7c0-0.3,0.2-0.6,0.5-0.7c0.2,0,16-4.1,28-13.2c0.3-0.2,0.7-0.2,1,0.1&#10;&#9;&#9;c0.2,0.3,0.2,0.7-0.1,1c-12.2,9.2-28.4,13.4-28.5,13.5C383.5,222.2,383.5,222.2,383.5,222.2z"/>
	<path class="st2_data-analysis-1-60" d="M395.5,225.8c-0.3,0-0.5-0.2-0.6-0.4c-0.2-0.4,0-0.8,0.4-0.9c0.8-0.4,1.6-0.7,2.5-1.1c4.6-2,9.4-4.1,13.6-7.7&#10;&#9;&#9;c0.3-0.3,0.7-0.2,1,0.1c0.3,0.3,0.2,0.7-0.1,1l0,0c-4.4,3.7-9.4,5.9-13.9,7.9l-2.5,1.1C395.7,225.8,395.6,225.8,395.5,225.8&#10;&#9;&#9;L395.5,225.8z"/>
	<path class="st0_data-analysis-1-60" d="M196.2,371.8L196.2,371.8c-0.3,0-0.5-0.2-0.6-0.5l-15.4-43l-17,33c-0.1,0.2-0.3,0.4-0.6,0.4&#10;&#9;&#9;c-0.2,0-0.5-0.1-0.6-0.3l-16.8-22l-10.5,16.9c-0.2,0.3-0.6,0.4-0.9,0.2l-9-5.4c-0.3-0.2-0.5-0.6-0.3-1c0,0,0,0,0,0&#10;&#9;&#9;c0.2-0.3,0.6-0.5,1-0.3c0,0,0,0,0,0l8.4,5.1l10.6-17c0.1-0.2,0.3-0.3,0.6-0.3c0.2,0,0.5,0.1,0.6,0.3l16.7,21.9l17.2-33.5&#10;&#9;&#9;c0.1-0.2,0.4-0.4,0.7-0.4c0.3,0,0.5,0.2,0.6,0.5l15.4,42.9l7.4-15.7c0.2-0.3,0.6-0.5,0.9-0.3c0.3,0.2,0.5,0.6,0.3,0.9c0,0,0,0,0,0&#10;&#9;&#9;l-8.1,17.2C196.7,371.7,196.5,371.8,196.2,371.8L196.2,371.8z"/>
	<circle class="st2_data-analysis-1-60" cx="134" cy="356" r="2.1"/>
	<path class="st0_data-analysis-1-60" d="M134,358.9c-1.6,0-2.8-1.3-2.8-2.8c0-1.6,1.3-2.8,2.8-2.8c1.6,0,2.8,1.3,2.8,2.8l0,0&#10;&#9;&#9;C136.8,357.6,135.6,358.9,134,358.9z M134,354.6c-0.8,0-1.4,0.6-1.4,1.4s0.6,1.4,1.4,1.4s1.4-0.6,1.4-1.4&#10;&#9;&#9;C135.4,355.3,134.8,354.6,134,354.6L134,354.6z"/>
	<circle class="st2_data-analysis-1-60" cx="145.1" cy="338.3" r="2.1"/>
	<path class="st0_data-analysis-1-60" d="M145.1,341.2c-1.6,0-2.8-1.3-2.8-2.8c0-1.6,1.3-2.8,2.8-2.8c1.6,0,2.8,1.3,2.8,2.8l0,0&#10;&#9;&#9;C147.9,339.9,146.7,341.2,145.1,341.2z M145.1,336.9c-0.8,0-1.4,0.6-1.4,1.4s0.6,1.4,1.4,1.4s1.4-0.6,1.4-1.4&#10;&#9;&#9;C146.5,337.5,145.9,336.9,145.1,336.9z"/>
	<circle class="st2_data-analysis-1-60" cx="180.2" cy="326.6" r="2.1"/>
	<path class="st0_data-analysis-1-60" d="M180.2,329.5c-1.6,0-2.8-1.3-2.8-2.8c0-1.6,1.3-2.8,2.8-2.8c1.6,0,2.8,1.3,2.8,2.8l0,0&#10;&#9;&#9;C183.1,328.2,181.8,329.5,180.2,329.5z M180.2,325.2c-0.8,0-1.4,0.6-1.4,1.4s0.6,1.4,1.4,1.4s1.4-0.6,1.4-1.4&#10;&#9;&#9;C181.7,325.8,181,325.2,180.2,325.2z"/>
	<circle class="st2_data-analysis-1-60" cx="196.2" cy="371.1" r="2.1"/>
	<path class="st0_data-analysis-1-60" d="M196.2,374c-1.6,0-2.8-1.3-2.8-2.8c0-1.6,1.3-2.8,2.8-2.8c1.6,0,2.8,1.3,2.8,2.8l0,0&#10;&#9;&#9;C199,372.7,197.8,374,196.2,374z M196.2,369.7c-0.8,0-1.4,0.6-1.4,1.4s0.6,1.4,1.4,1.4s1.4-0.6,1.4-1.4&#10;&#9;&#9;C197.7,370.4,197,369.7,196.2,369.7C196.2,369.7,196.2,369.7,196.2,369.7L196.2,369.7z"/>
	<circle class="st2_data-analysis-1-60" cx="162.5" cy="361.1" r="2.1"/>
	<path class="st0_data-analysis-1-60" d="M162.5,364c-1.6,0-2.8-1.3-2.8-2.8c0-1.6,1.3-2.8,2.8-2.8c1.6,0,2.8,1.3,2.8,2.8l0,0&#10;&#9;&#9;C165.4,362.7,164.1,364,162.5,364z M162.5,359.7c-0.8,0-1.4,0.6-1.4,1.4s0.6,1.4,1.4,1.4s1.4-0.6,1.4-1.4&#10;&#9;&#9;C164,360.4,163.4,359.7,162.5,359.7C162.5,359.7,162.5,359.7,162.5,359.7L162.5,359.7z"/>
	<path class="st2_data-analysis-1-60" d="M309.8,338.9C281.2,353,250,353.2,250,353.2V399c20.7,0.6,41.2-3.8,59.8-13V338.9z"/>
	<path class="st1_data-analysis-1-60" d="M253.7,399.8c-1.2,0-2.4,0-3.7,0c-0.4,0-0.7-0.3-0.7-0.7v-45.8c0-0.4,0.3-0.7,0.7-0.7&#10;&#9;&#9;c0.3,0,31.4-0.4,59.5-14.3c0.2-0.1,0.5-0.1,0.7,0c0.2,0.1,0.3,0.3,0.3,0.6V386c0,0.3-0.2,0.5-0.4,0.6&#10;&#9;&#9;C292.6,395.3,273.2,399.8,253.7,399.8L253.7,399.8z M250.7,398.4c20.2,0.5,40.2-3.8,58.4-12.7V340c-25.8,12.4-53.7,13.8-58.4,14&#10;&#9;&#9;V398.4L250.7,398.4z"/>
	<path class="st3_data-analysis-1-60 targetColor" d="M263.9,372.5c0,9.3,7.6,16.9,16.9,16.9s16.9-7.6,16.9-16.9h-16.9v-16.9C271.5,355.7,263.9,363.2,263.9,372.5&#10;&#9;&#9;L263.9,372.5z" style="fill: rgb(104, 225, 253);"/>
	<path class="st0_data-analysis-1-60" d="M283.5,353.2v16.9h16.9C300.4,360.7,292.9,353.2,283.5,353.2L283.5,353.2z"/>
	<path class="st0_data-analysis-1-60" d="M338.2,340.3c-0.3,0-0.6-0.2-0.7-0.6c-0.1-0.4,0.2-0.7,0.5-0.8c0,0,0,0,0,0c0.3-0.1,33.2-6.2,52-16.6&#10;&#9;&#9;c0.3-0.2,0.8-0.1,1,0.2c0.2,0.3,0.1,0.8-0.2,1c0,0-0.1,0-0.1,0c-18.9,10.6-52,16.7-52.4,16.8L338.2,340.3L338.2,340.3z"/>
	<path class="st0_data-analysis-1-60" d="M338.2,352.7c-0.3,0-0.6-0.2-0.7-0.6c-0.1-0.4,0.2-0.7,0.5-0.8c0,0,0,0,0,0c0.3-0.1,33.2-6.2,52-16.6&#10;&#9;&#9;c0.3-0.2,0.8,0,0.9,0.3c0.1,0.3,0,0.7-0.3,0.9c-18.9,10.6-52,16.7-52.4,16.8L338.2,352.7L338.2,352.7z"/>
	<path class="st0_data-analysis-1-60" d="M338.2,365.1c-0.3,0-0.6-0.2-0.7-0.6c-0.1-0.4,0.2-0.7,0.5-0.8c0,0,0,0,0,0c0.3-0.1,33.2-6.2,52-16.6&#10;&#9;&#9;c0.3-0.2,0.8-0.1,1,0.2c0.2,0.3,0.1,0.8-0.2,1c0,0-0.1,0-0.1,0c-18.9,10.6-52,16.7-52.4,16.8L338.2,365.1L338.2,365.1z"/>
	<path class="st0_data-analysis-1-60" d="M338.2,377.5c-0.3,0-0.6-0.2-0.7-0.6c-0.1-0.4,0.2-0.7,0.5-0.8c0,0,0,0,0,0c9.6-1.9,19-4.2,28.3-7.1&#10;&#9;&#9;c0.4-0.1,0.8,0.1,0.9,0.5c0,0,0,0,0,0c0.1,0.4-0.1,0.8-0.5,0.9c-9.4,2.9-18.9,5.2-28.5,7.1L338.2,377.5L338.2,377.5z"/>
</g>
</svg>