<svg version="1.1" id="Layer_1" xmlns="http://www.w3.org/2000/svg" xmlns:xlink="http://www.w3.org/1999/xlink" x="0px" y="0px" viewBox="0 0 500 500" style="width: 166px;" xml:space="preserve" data-imageid="data-center-76" imageName="Data Center" class="illustrations_image">
<style type="text/css">
	.st0_data-center-76{fill:#FE9881;}
	.st1_data-center-76{fill:#BABABC;}
	.st2_data-center-76{fill:#F2F2F2;}
	.st3_data-center-76{opacity:0.32;fill:url(#SVGID_1_);enable-background:new    ;}
	.st4_data-center-76{opacity:0.32;fill:url(#SVGID_00000091003057727650267200000000466032197882251905_);enable-background:new    ;}
	.st5_data-center-76{opacity:0.32;fill:url(#SVGID_00000058571271378997854690000004367596675262341286_);enable-background:new    ;}
	.st6_data-center-76{fill:#42BCC5;}
	.st7_data-center-76{fill:#053855;}
	.st8_data-center-76{opacity:0.1;fill:#053855;enable-background:new    ;}
	.st9_data-center-76{fill:#55D5D8;}
	.st10_data-center-76{fill:#7374B7;}
	.st11_data-center-76{opacity:0.23;fill:#053855;enable-background:new    ;}
	.st12_data-center-76{fill:#7F252B;}
	.st13_data-center-76{fill:#8CC63F;}
</style>
<path id="Base_data-center-76" class="st0_data-center-76" d="M29,320.3l177.7,102.5l265.6-152.5L294.3,167.6L29,320.3z"/>
<g id="Connection_data-center-76">
	<polyline class="st1_data-center-76" points="133,288.9 133,284.1 147.3,284.1 147.3,288.9 &#9;"/>
	<path class="st2_data-center-76" d="M231.2,365.7l-60.7-35.8l-52.7-30.1l128.4-75.1l0.4,0.2l116,63.6L231.2,365.7z M120.6,299.8l50.6,28.9l60,35.4&#10;&#9;&#9;l128.6-75.6l-113.6-62.2L120.6,299.8z"/>
	<ellipse class="st1_data-center-76" cx="285.7" cy="333.9" rx="7.1" ry="3.6"/>
	<polyline class="st1_data-center-76" points="278.6,333.9 278.6,329.2 292.8,329.2 292.8,333.9 &#9;"/>
	<ellipse class="st2_data-center-76" cx="285.7" cy="329.2" rx="7.1" ry="3.6"/>
	<ellipse class="st1_data-center-76" cx="140.1" cy="288.9" rx="7.1" ry="3.6"/>
	<ellipse class="st2_data-center-76" cx="140.1" cy="284.1" rx="7.1" ry="3.6"/>
</g>
<g id="Shadow_data-center-76">
	
		<linearGradient id="SVGID_1_-data-center-76" gradientUnits="userSpaceOnUse" x1="189.2297" y1="-1771.9703" x2="233.9297" y2="-1811.5204" gradientTransform="matrix(1 0 0 1 0 2038.04)">
		<stop offset="0" style="stop-color:#BF5A00;stop-opacity:3.000000e-02"/>
		<stop offset="0.84" style="stop-color:#BF5A00;stop-opacity:0.84"/>
		<stop offset="1" style="stop-color:#BF5A00"/>
	</linearGradient>
	<path class="st3_data-center-76" d="M273.4,229.4l-40.8-22.6l-59.3,35.5c13,6.8,25.6,13.9,40,22.5C233.4,253.1,253.7,241.8,273.4,229.4z"/>
	
		<linearGradient id="SVGID_00000121254507169661079070000000806882105112863618_-data-center-76" gradientUnits="userSpaceOnUse" x1="271.6963" y1="-1739.9052" x2="309.9863" y2="-1766.8253" gradientTransform="matrix(1 0 0 1 0 2038.04)">
		<stop offset="0" style="stop-color:#BF5A00;stop-opacity:3.000000e-02"/>
		<stop offset="0.84" style="stop-color:#BF5A00;stop-opacity:0.84"/>
		<stop offset="1" style="stop-color:#BF5A00"/>
	</linearGradient>
	<path style="opacity:0.32;fill:url(#SVGID_00000121254507169661079070000000806882105112863618_);enable-background:new    ;" d="&#10;&#9;&#9;M302.9,264.4c-15.2,9.6-31,18.4-46.6,27.5c7.1,4.2,14.7,8.9,23.4,14.3c16.2-8.7,34.6-19,46.5-31.5L302.9,264.4z"/>
	
		<linearGradient id="SVGID_00000053546670386089077590000004304303879512544700_-data-center-76" gradientUnits="userSpaceOnUse" x1="112.3876" y1="-1650.2028" x2="157.0976" y2="-1689.7528" gradientTransform="matrix(1 0 0 1 0 2038.04)">
		<stop offset="0" style="stop-color:#BF5A00;stop-opacity:3.000000e-02"/>
		<stop offset="0.84" style="stop-color:#BF5A00;stop-opacity:0.84"/>
		<stop offset="1" style="stop-color:#BF5A00"/>
	</linearGradient>
	<path style="opacity:0.32;fill:url(#SVGID_00000053546670386089077590000004304303879512544700_);enable-background:new    ;" d="&#10;&#9;&#9;M157.2,392.8c21-11.3,40.9-24.9,61.7-36.4l-75.5-41.7l-59.3,35.5C106.1,361.6,126.8,374,157.2,392.8z"/>
</g>
<g id="Laptop_data-center-76">
	<polyline class="st6_data-center-76" points="114.3,332.2 114.3,334.4 115.4,335.9 &#9;"/>
	<path class="st6_data-center-76" d="M160.1,304.7L115.6,332c-1.3,0.9-1.7,2.6-0.8,3.9c0.2,0.3,0.5,0.6,0.9,0.9l67.2,38.3c1.9,1.1,4.3,1.1,6.2,0&#10;&#9;&#9;l44.2-25.8c3.2-2.6,3-7.6,0-7.8l-66.8-36.9C164.5,303.5,162,303.5,160.1,304.7z"/>
	<path class="st2_data-center-76" d="M160.1,302.8l-44.5,27.3c-1.3,0.9-1.6,2.6-0.8,3.9c0.2,0.3,0.5,0.6,0.9,0.9l67.2,38.3c1.9,1.1,4.3,1.1,6.2,0&#10;&#9;&#9;l44.3-25.8c1.6-1,2.2-3,1.2-4.7c-0.3-0.5-0.7-0.9-1.2-1.2l-66.8-38.8C164.5,301.6,162,301.6,160.1,302.8z"/>
	<path class="st7_data-center-76" d="M161.9,299c0,0,18.7-59.4,18.6-59.4s0.6-2.6,3.9-1.1l70.5,41.9c0,0,3.4,1.4,2.8,4.6s-18.2,58.1-18.2,58.1&#10;&#9;&#9;c-0.7,1.1-2.1,1.5-3.3,1.1c-2.3-0.7-72.5-41.9-72.5-41.9C162.2,301.9,161.5,300.4,161.9,299z"/>
	<polygon class="st2_data-center-76" points="181.6,244 253.8,286.5 238.6,336.8 165.4,295.6 &#9;"/>
	<path class="st6_data-center-76" d="M157.3,309.1l-16.2,10c-0.9,0.5-1.2,1.7-0.7,2.7c0,0,0,0,0,0c0.2,0.3,0.4,0.5,0.7,0.7l58.1,33.4&#10;&#9;&#9;c1.8,1,4,1,5.7,0c3.8-2.2,10.2-6.1,14.2-8.4c1.1-0.7,1.5-2.1,0.8-3.3c-0.2-0.3-0.5-0.6-0.8-0.8l-58.4-34.3&#10;&#9;&#9;C159.6,308.5,158.3,308.5,157.3,309.1z"/>
	<path class="st6_data-center-76" d="M158.1,336.5l20.3,11.5c1,0.5,1.3,1.7,0.8,2.7c-0.2,0.4-0.5,0.6-0.8,0.8l-12,7c-0.8,0.5-1.9,0.5-2.7,0&#10;&#9;&#9;l-20.8-11.9c-0.8-0.5-1.1-1.5-0.7-2.3c0,0,0,0,0,0c0.2-0.3,0.4-0.5,0.6-0.6l12.5-7.1C156.2,336,157.2,336,158.1,336.5z"/>
	<path class="st8_data-center-76" d="M157.3,309.1l-16.2,10c-0.9,0.5-1.2,1.7-0.7,2.7c0,0,0,0,0,0c0.2,0.3,0.4,0.5,0.7,0.7l58.1,33.4&#10;&#9;&#9;c1.8,1,4,1,5.7,0c3.8-2.2,10.2-6.1,14.2-8.4c1.1-0.7,1.5-2.1,0.8-3.3c-0.2-0.3-0.5-0.6-0.8-0.8l-58.4-34.3&#10;&#9;&#9;C159.6,308.5,158.3,308.5,157.3,309.1z"/>
	<path class="st8_data-center-76" d="M158.1,336.5l20.3,11.5c1,0.5,1.3,1.7,0.8,2.7c-0.2,0.4-0.5,0.6-0.8,0.8l-12,7c-0.8,0.5-1.9,0.5-2.7,0&#10;&#9;&#9;l-20.8-11.9c-0.8-0.5-1.1-1.5-0.7-2.3c0,0,0,0,0,0c0.2-0.3,0.4-0.5,0.6-0.6l12.5-7.1C156.2,336,157.2,336,158.1,336.5z"/>
</g>
<g id="Server_data-center-76">
	<polyline class="st9_data-center-76" points="293.4,158.7 293.4,218.8 246.8,245.7 208.9,223.2 208.9,167.3 &#9;"/>
	<polygon class="st6_data-center-76" points="246.8,245.7 246.8,186.4 208.9,164.2 208.9,223.2 &#9;"/>
	<polygon class="st10_data-center-76" points="255,136 293.4,158.7 246.8,186.4 208.9,164.2 &#9;"/>
	<polygon class="st10_data-center-76" points="287.3,168.6 287.3,181 252.4,200.9 252.4,188.7 &#9;"/>
	<ellipse transform="matrix(0.2934 -0.956 0.956 0.2934 -3.1148 381.2761)" class="st0_data-center-76" cx="256.4" cy="192.7" rx="1.5" ry="0.9"/>
	<ellipse transform="matrix(0.2934 -0.956 0.956 0.2934 0.6517 382.899)" class="st7_data-center-76" cx="259.3" cy="191" rx="1.5" ry="0.9"/>
	
		<rect x="261" y="183.3" transform="matrix(0.8679 -0.4967 0.4967 0.8679 -55.0252 160.0307)" class="st2_data-center-76" width="24.9" height="0.4"/>
	<polygon class="st10_data-center-76" points="288.1,186 288.1,198.5 253.2,218.4 253.2,206.2 &#9;"/>
	<ellipse transform="matrix(0.2934 -0.956 0.956 0.2934 -19.2183 394.413)" class="st0_data-center-76" cx="257.2" cy="210.2" rx="1.5" ry="0.9"/>
	<ellipse transform="matrix(0.2934 -0.956 0.956 0.2934 -15.4487 396.0017)" class="st7_data-center-76" cx="260.2" cy="208.5" rx="1.5" ry="0.9"/>
	<polygon class="st2_data-center-76" points="263.5,207.2 263.4,206.9 284.9,194.6 285.1,194.9 &#9;"/>
	<polygon class="st10_data-center-76" points="288.1,203.4 288.1,215.9 253.2,235.8 253.2,223.6 &#9;"/>
	<ellipse transform="matrix(0.2934 -0.956 0.956 0.2934 -35.8825 406.7022)" class="st0_data-center-76" cx="257.2" cy="227.6" rx="1.5" ry="0.9"/>
	
		<ellipse transform="matrix(0.2892 -0.9573 0.9573 0.2892 -29.5446 408.3285)" class="st7_data-center-76" cx="260.2" cy="224.1" rx="1.5" ry="0.9"/>
	
		<rect x="261.8" y="218.2" transform="matrix(0.8679 -0.4967 0.4967 0.8679 -72.2328 165.0448)" class="st2_data-center-76" width="24.9" height="0.4"/>
	<polygon class="st7_data-center-76" points="246.6,207.3 246.5,207.2 208.8,185 209,184.7 246.6,206.9 293.3,179.8 293.5,180.1 &#9;"/>
	<polygon class="st7_data-center-76" points="246.6,224.7 246.5,224.7 208.8,202.4 209,202.1 246.6,224.3 293.3,197.2 293.5,197.5 &#9;"/>
	<polyline class="st9_data-center-76" points="293.4,99.9 293.4,160.1 246.8,186.9 208.9,164.4 208.9,108.5 &#9;"/>
	<polygon class="st6_data-center-76" points="246.8,186.9 246.8,127.6 208.9,105.4 208.9,164.4 &#9;"/>
	<polygon class="st6_data-center-76" points="255,77.2 293.4,99.9 246.8,127.6 208.9,105.4 &#9;"/>
	<polygon class="st10_data-center-76" points="287.3,109.8 287.3,122.3 252.4,142.2 252.4,130 &#9;"/>
	<ellipse transform="matrix(0.2934 -0.956 0.956 0.2934 53.0559 339.7644)" class="st0_data-center-76" cx="256.4" cy="134" rx="1.5" ry="0.9"/>
	<ellipse transform="matrix(0.2934 -0.956 0.956 0.2934 56.8232 341.3696)" class="st7_data-center-76" cx="259.3" cy="132.2" rx="1.5" ry="0.9"/>
	<polygon class="st2_data-center-76" points="262.7,131 262.5,130.7 284.1,118.3 284.3,118.6 &#9;"/>
	<polygon class="st10_data-center-76" points="288.1,127.2 288.1,139.7 253.2,159.6 253.2,147.4 &#9;"/>
	<ellipse transform="matrix(0.2934 -0.956 0.956 0.2934 36.9444 352.871)" class="st0_data-center-76" cx="257.2" cy="151.4" rx="1.5" ry="0.9"/>
	<ellipse transform="matrix(0.2934 -0.956 0.956 0.2934 40.7467 354.4922)" class="st7_data-center-76" cx="260.2" cy="149.7" rx="1.5" ry="0.9"/>
	
		<rect x="261.8" y="142" transform="matrix(0.8679 -0.4967 0.4967 0.8679 -34.3875 154.9813)" class="st2_data-center-76" width="24.9" height="0.4"/>
	<polygon class="st10_data-center-76" points="288.1,144.7 288.1,157.1 253.2,177 253.2,164.8 &#9;"/>
	<ellipse transform="matrix(0.2934 -0.956 0.956 0.2934 20.2731 365.1833)" class="st0_data-center-76" cx="257.2" cy="168.9" rx="1.5" ry="0.9"/>
	<ellipse transform="matrix(0.2934 -0.956 0.956 0.2934 24.0737 366.8014)" class="st7_data-center-76" cx="260.2" cy="167.1" rx="1.5" ry="0.9"/>
	<polygon class="st2_data-center-76" points="263.5,165.9 263.4,165.6 284.9,153.2 285.1,153.5 &#9;"/>
	<polygon class="st7_data-center-76" points="246.6,148.5 246.5,148.5 208.8,126.2 209,125.9 246.6,148.1 293.3,121 293.5,121.3 &#9;"/>
	<polygon class="st7_data-center-76" points="246.6,166 246.5,165.9 208.8,143.6 209,143.3 246.6,165.6 293.3,138.4 293.5,138.8 &#9;"/>
</g>
<g id="Cloud_data-center-76">
	<rect x="117.9" y="231.6" class="st2_data-center-76" width="1.4" height="68.3"/>
	<path class="st8_data-center-76" d="M179.9,169c-1.3-1.6-19.1-12.2-19.1-12.2v0.1c-3.6-4-10.4-2.6-19.2,5c0,0-0.3-8.4-10.4-9.8s-13,3.3-13,3.3&#10;&#9;&#9;s-3.4-16-23.6-10c-18.4,5.4-15.8,24-15.8,24s-11.4-2.8-20.5,9.7c-5.5,8-8.5,17.5-8.4,27.3c0,0-19.2,7-21.6,24.4&#10;&#9;&#9;c-0.2,1.5-0.4,3-0.5,4.4v0.4c-0.1,3.8,0.3,7.5,1,11.2c0.4,2.2,1.7,4.1,3.6,5.2l20.4,11.6c0.6-5.1-0.1-10.2-2.1-14.9l100.8-58.5&#10;&#9;&#9;c0,0,7.7-6.8,10.9-15.8l7.8-2C170.1,172.5,181.1,170.6,179.9,169z"/>
	<path class="st8_data-center-76" d="M179.9,169c-1.3-1.6-19.1-12.2-19.1-12.2v0.1c-3.6-4-10.4-2.6-19.2,5c0,0-0.3-8.4-10.4-9.8s-13,3.3-13,3.3&#10;&#9;&#9;s-3.4-16-23.6-10c-18.4,5.4-15.8,24-15.8,24s-11.4-2.8-20.5,9.7c-5.5,8-8.5,17.5-8.4,27.3c0,0-19.2,7-21.6,24.4&#10;&#9;&#9;c-0.2,1.5-0.4,3-0.5,4.4v0.4c-0.1,3.8,0.3,7.5,1,11.2c0.4,2.2,1.7,4.1,3.6,5.2l20.4,11.6c0.6-5.1-0.1-10.2-2.1-14.9l100.8-58.5&#10;&#9;&#9;c0,0,7.7-6.8,10.9-15.8l7.8-2C170.1,172.5,181.1,170.6,179.9,169z"/>
	<path class="st6_data-center-76" d="M179.9,169c-1.3-1.6-19.1-12.2-19.1-12.2v0.1c-3.6-4-10.4-2.6-19.2,5c0,0-0.3-8.4-10.4-9.8s-13,3.3-13,3.3&#10;&#9;&#9;s-3.4-16-23.6-10c-18.4,5.4-15.8,24-15.8,24s-11.4-2.8-20.5,9.7c-5.5,8-8.5,17.5-8.4,27.3c0,0-19.2,7-21.6,24.4&#10;&#9;&#9;c-0.2,1.5-0.4,3-0.5,4.4v0.4c-0.1,3.8,0.3,7.5,1,11.2c0.4,2.2,1.7,4.1,3.6,5.2l20.4,11.6c0.6-5.1-0.1-10.2-2.1-14.9l100.8-58.5&#10;&#9;&#9;c0,0,7.7-6.8,10.9-15.8l7.8-2C170.1,172.5,181.1,170.6,179.9,169z"/>
	<path class="st11_data-center-76" d="M179.9,169c-1.3-1.6-19.1-12.2-19.1-12.2v0.1c-3.6-4-10.4-2.6-19.2,5c0,0-0.3-8.4-10.4-9.8s-13,3.3-13,3.3&#10;&#9;&#9;s-3.4-16-23.6-10c-18.4,5.4-15.8,24-15.8,24s-11.4-2.8-20.5,9.7c-5.5,8-8.5,17.5-8.4,27.3c0,0-19.2,7-21.6,24.4&#10;&#9;&#9;c-0.2,1.5-0.4,3-0.5,4.4v0.4c-0.1,3.8,0.3,7.5,1,11.2c0.4,2.2,1.7,4.1,3.6,5.2l20.4,11.6c0.6-5.1-0.1-10.2-2.1-14.9l100.8-58.5&#10;&#9;&#9;c0,0,7.7-6.8,10.9-15.8l7.8-2C170.1,172.5,181.1,170.6,179.9,169z"/>
	<path class="st6_data-center-76" d="M63.8,264.9l107.1-62.2c0,0,13.1-11.5,12.3-24.4s-9.4-15-22.2-3.8c0,0-0.3-10.8-10.4-9.8s-14,7.7-14,7.7&#10;&#9;&#9;s2-19.2-18.2-13.2c-10.6,3-18.5,11.9-20.2,22.8c0,0-11.4-2.8-20.5,9.7c-5.5,8-8.5,17.5-8.4,27.3c0,0-19.2,7-21.6,24.4&#10;&#9;&#9;S53.6,268.5,63.8,264.9z"/>
</g>
<g id="Character_data-center-76">
	<path class="st7_data-center-76" d="M316.1,272.5l5.3-1.5l-0.8-6.5C320.5,264.5,314.8,265.5,316.1,272.5z"/>
	<path class="st12_data-center-76" d="M323.3,253.6c0,0,1.9,21.9,1.4,22.2s-5.6,0.7-5.6,0.3s-0.3-10-0.3-10s-2.6,4.2-2.7,6.4c0,0-6.1-3.5-7.2-6.3&#10;&#9;&#9;s2.6-14.5,4-15.1"/>
	<path class="st7_data-center-76" d="M302.9,284l6-6.4l-4-5C304.9,272.6,301.3,280.7,302.9,284z"/>
	<path class="st12_data-center-76" d="M311.8,258.6l2.8,26.3c-1.7,0.6-3.5,1.1-5.4,1.4c-1.1-0.4-2.2-0.9-3.3-1.5l-1-8.8c0,0-2.6,2.6-2.1,8&#10;&#9;&#9;c0-0.4-4.2-1.7-4.7-2c-1.7-0.7-3.3-1.6-4.8-2.6c-1.6-1.1-7.5-6-4.4-8c2.7-1.7,11.5-0.9,11.5-0.9l0.1-10.9"/>
	<path class="st13_data-center-76" d="M322.4,164.4c-0.1-0.3,0.1-0.7,0.5-0.8h0.2c-0.6-2.3-1.6-4.5-3-6.4l-25.5-3c0,0-5.1,18.2-7.1,49.6&#10;&#9;&#9;c-1.5,24.3,10.4,60.5,10.4,60.5s12.4,3.1,18.3-3l-0.2-5.2c3.1,0,6.1-0.3,9.2-0.8C328.2,225,325.9,194.4,322.4,164.4z"/>
	<path class="st7_data-center-76" d="M316.9,259.8l-3.2-22.5c-1-7.2-2.6-14.6-2.6-21.9s2.5-13.8,3.7-20.8c1.1-6.7,1.4-13.6,0.9-20.4&#10;&#9;&#9;c-0.1-1.6-2.4-1.6-2.3,0c0.7,7.6,0.2,15.2-1.4,22.7c-1.4,6.7-3.4,13-3.1,20s1.7,14,2.7,21l3.2,22.5&#10;&#9;&#9;C314.9,262,317.1,261.4,316.9,259.8z"/>
	<path class="st0_data-center-76" d="M280.7,147c-1.1-0.4-2.2-0.7-3.4-1h-0.1c-3.2-1.2-6.5-2.1-9.8-2.8l-6.4-4.4l0,0c-0.5-0.4-1.1-0.3-1.5,0.1&#10;&#9;&#9;c-0.1,0.1-0.2,0.3-0.2,0.5c-0.4,1.1,1.9,3.4,2.6,4l0.3,0.2c0.1,0.1,0.7,0.7,0.9,0.7c-2.2,0.1-4.3,0.7-6.2,1.8&#10;&#9;&#9;c-0.5,0.3-0.7,1-0.4,1.6c0.1,0.2,0.2,0.3,0.4,0.4c0.4,0.2,0.8,0.3,1.3,0.3l-0.2,0.1c-1.4,0.6-2.1,1.7-0.8,3&#10;&#9;&#9;c0.1,0.1,0.2,0.2,0.4,0.2c0.3,0.2,0.6,0.3,1,0.2v0.2c-0.2,0.5-0.1,1,0.1,1.4c0.5,0.8,1.6,0.9,2.4,0.4c0,0,0,0,0,0l0,0l0.5-0.2&#10;&#9;&#9;c0.6,1.4,2.2,1.4,3.6,0.9s3-1.3,4.6-1.9l4.6,1.6c1.2,0.5,3.4,1.9,4.8,1.4s0.8-2.7-0.6-2.2c0.3-0.1-0.3-0.2-0.5-0.2l-1.3-0.5&#10;&#9;&#9;c1.1,0.5,2.4,0.7,3.6,0.7c0.6,0,1.1-0.6,1.1-1.2c0-0.3-0.1-0.6-0.3-0.8c-0.7-0.6-1.4-1.2-2.1-1.7c0.1-0.3,0.1-0.5,0-0.8h0.1&#10;&#9;&#9;c0.3,0,0.5,0,0.8-0.1l0.3,0.1C281.5,149.7,282.1,147.5,280.7,147z"/>
	<path class="st6_data-center-76" d="M312,117.1c0,0-14.2,0-19.1,8.9c-4.2,7.5-3.3,20-3.3,20l-16.3-1.3c-2.9,1.4-4.4,4.7-3.5,7.8&#10;&#9;&#9;c0.6,3.2,16.8,4.7,25.8,6.9s25.1,2.8,27.6-2.5s2.2-27.1-0.7-33.4S312,117.1,312,117.1z"/>
	<path class="st0_data-center-76" d="M298.9,103.4c0,0-0.7,10.8,2.5,13.3s8.7-1.6,8.7-1.6"/>
	<path class="st12_data-center-76" d="M301.6,98c-1.4,1.1-2.6,2.5-3.3,4.2c-2.7,6.8,4.6,15.2,11.1,16.5l3.4-1.1c0,0,4.5-6.6,4.5-10.3&#10;&#9;&#9;c0-3.6-1.3-7-3.8-9.6C310,94.6,305,95.2,301.6,98z"/>
	<path class="st12_data-center-76" d="M309.4,118.8c0,0-12.2,35.2-3.1,41s27.2,0.5,23.6-8.2s-17.2-33.9-17.2-33.9"/>
</g>
</svg>