<svg version="1.1" id="Layer_1" xmlns="http://www.w3.org/2000/svg" xmlns:xlink="http://www.w3.org/1999/xlink" x="0px" y="0px" viewBox="0 0 500 500" style="width: 166px;" xml:space="preserve" data-imageid="data-storage-2-63" imageName="Data Storage 2" class="illustrations_image">
<style type="text/css">
	.st0_data-storage-2-63{fill:#FFFFFF;}
	.st1_data-storage-2-63{fill:#093F68;}
	.st2_data-storage-2-63{fill:#DFEAEF;}
	.st3_data-storage-2-63{fill:#68E1FD;}
	.st4_data-storage-2-63{fill:#FFBC0E;}
	.st5_data-storage-2-63{fill:#FFC9B0;}
	.st6_data-storage-2-63{fill:#725858;}
</style>
<g id="file_data-storage-2-63">
	<polygon class="st0_data-storage-2-63" points="297,121.4 279.3,95.8 140.2,95.8 140.2,121.4 140.2,404.6 470.2,404.6 470.2,121.4 &#9;"/>
	<path class="st1_data-storage-2-63" d="M470.2,406.4h-330c-1,0-1.8-0.8-1.8-1.8c0,0,0,0,0,0V95.8c0-1,0.8-1.8,1.8-1.8c0,0,0,0,0,0h139.1&#10;&#9;&#9;c0.6,0,1.2,0.3,1.5,0.8l17.1,24.8h172.2c1,0,1.8,0.8,1.8,1.8c0,0,0,0,0,0l0,0v283.2c0.1,0.9-0.6,1.7-1.5,1.8&#10;&#9;&#9;C470.4,406.4,470.3,406.4,470.2,406.4L470.2,406.4z M142,402.8h326.3V123.2H297c-0.6,0-1.2-0.3-1.5-0.8l-17.2-24.8H142V402.8z"/>
	<path class="st2_data-storage-2-63" d="M398.9,386.6h-67.5c-1,0-1.8-0.8-1.8-1.8c0-1,0.8-1.8,1.8-1.8h67.5c1,0,1.8,0.8,1.8,1.8&#10;&#9;&#9;C400.7,385.8,399.9,386.6,398.9,386.6z"/>
	<path class="st2_data-storage-2-63" d="M231.3,154.2h-22.6c-1,0-1.8-0.8-1.8-1.8s0.8-1.8,1.8-1.8h22.6c1,0,1.8,0.8,1.8,1.8S232.3,154.2,231.3,154.2z"/>
	<path class="st2_data-storage-2-63" d="M188.7,154.2h-24c-1,0-1.8-0.8-1.8-1.8s0.8-1.8,1.8-1.8h24c1,0,1.8,0.8,1.8,1.8S189.7,154.2,188.7,154.2&#10;&#9;&#9;L188.7,154.2z"/>
	<path class="st2_data-storage-2-63" d="M231.3,178.8h-66.6c-1,0.1-1.8-0.6-1.9-1.6c0,0,0-0.1,0-0.1c-0.1-1,0.7-1.8,1.7-1.9c0,0,0,0,0,0h66.9&#10;&#9;&#9;c1-0.1,1.8,0.6,1.9,1.6c0,0,0,0.1,0,0.1c0.1,1-0.7,1.8-1.7,1.9c0,0,0,0,0,0H231.3z"/>
	<path class="st2_data-storage-2-63" d="M204.7,203.4h-40c-1,0.1-1.8-0.6-1.9-1.6c0,0,0-0.1,0-0.1c-0.1-1,0.7-1.8,1.7-1.9c0,0,0,0,0,0h40.3&#10;&#9;&#9;c1-0.1,1.8,0.6,1.9,1.6c0,0,0,0.1,0,0.1c0.1,1-0.7,1.8-1.7,1.9c0,0,0,0,0,0C205,203.5,204.8,203.5,204.7,203.4&#10;&#9;&#9;C204.8,203.4,204.7,203.4,204.7,203.4z"/>
</g>
<g id="data_network_data-storage-2-63">
	<path class="st3_data-storage-2-63 targetColor" d="M266.4,146.7H344c1.6,0,2.9,1.3,2.9,2.9v54.8c0,1.6-1.3,2.9-2.9,2.9h-77.6c-1.6,0-2.9-1.3-2.9-2.9v-54.8&#10;&#9;&#9;C263.5,148,264.8,146.7,266.4,146.7C266.4,146.7,266.4,146.7,266.4,146.7z" style="fill: rgb(104, 225, 253);"/>
	<path class="st1_data-storage-2-63" d="M341.7,209.1h-73c-3.9,0-7-3.1-7-7v-50.2c0-3.9,3.1-7,7-7h73c3.9,0,7,3.1,7,7v50.2&#10;&#9;&#9;C348.7,206,345.6,209.1,341.7,209.1C341.7,209.1,341.7,209.1,341.7,209.1z M268.7,148.5c-1.9,0-3.4,1.5-3.4,3.3c0,0,0,0,0,0.1v50.2&#10;&#9;&#9;c0,1.9,1.5,3.4,3.3,3.4c0,0,0,0,0.1,0h73c1.9,0,3.4-1.5,3.4-3.3c0,0,0,0,0-0.1v-50.2c0-1.9-1.5-3.4-3.3-3.4c0,0,0,0-0.1,0H268.7z"/>
	<rect x="293.1" y="207.3" class="st1_data-storage-2-63" width="24.1" height="17.1"/>
	<path class="st1_data-storage-2-63" d="M317.2,226.2h-24.1c-1,0-1.8-0.8-1.8-1.8c0,0,0,0,0,0v-17.1c0-1,0.8-1.8,1.8-1.8c0,0,0,0,0,0h24.1&#10;&#9;&#9;c1,0,1.8,0.8,1.8,1.8c0,0,0,0,0,0l0,0v17.1c0.1,0.9-0.6,1.7-1.6,1.8C317.4,226.2,317.3,226.2,317.2,226.2L317.2,226.2z M295,222.6&#10;&#9;&#9;h20.4v-13.5H295V222.6z"/>
	<path class="st1_data-storage-2-63" d="M324.8,226.9h-39.3c-1,0-1.8-0.8-1.8-1.8s0.8-1.8,1.8-1.8l0,0h39.3c1,0,1.8,0.8,1.8,1.8c0,0,0,0,0,0&#10;&#9;&#9;c0,1-0.7,1.8-1.7,1.8C324.9,226.9,324.9,226.9,324.8,226.9z"/>
	<path class="st3_data-storage-2-63 targetColor" d="M180.5,237.1h77.6c1.6,0,2.9,1.3,2.9,2.9v54.8c0,1.6-1.3,2.9-2.9,2.9h-77.6c-1.6,0-2.9-1.3-2.9-2.9V240&#10;&#9;&#9;C177.6,238.4,178.9,237.1,180.5,237.1C180.5,237.1,180.5,237.1,180.5,237.1z" style="fill: rgb(104, 225, 253);"/>
	<path class="st1_data-storage-2-63" d="M255.7,299.5h-73c-3.9,0-7-3.1-7-7v-50.2c0-3.9,3.1-7,7-7h73c3.9,0,7,3.1,7,7v50.2&#10;&#9;&#9;C262.7,296.4,259.6,299.5,255.7,299.5z M182.7,238.9c-1.9,0-3.4,1.5-3.4,3.3c0,0,0,0,0,0.1v50.2c0,1.9,1.5,3.4,3.3,3.4&#10;&#9;&#9;c0,0,0,0,0.1,0h73c1.9,0,3.4-1.5,3.4-3.3c0,0,0,0,0-0.1v-50.2c0-1.9-1.5-3.4-3.3-3.4c0,0,0,0-0.1,0L182.7,238.9z"/>
	<rect x="207.2" y="297.7" class="st1_data-storage-2-63" width="24.1" height="17.1"/>
	<path class="st1_data-storage-2-63" d="M231.3,316.6h-24.1c-1,0-1.8-0.8-1.8-1.8c0,0,0,0,0,0v-17.1c0-1,0.8-1.8,1.8-1.8c0,0,0,0,0,0h24.1&#10;&#9;&#9;c1,0,1.8,0.8,1.8,1.8c0,0,0,0,0,0l0,0v17.1C233.1,315.8,232.3,316.6,231.3,316.6C231.3,316.6,231.3,316.6,231.3,316.6z M209,312.9&#10;&#9;&#9;h20.4v-13.4H209V312.9z"/>
	<path class="st1_data-storage-2-63" d="M238.9,317.3h-39.3c-1,0-1.8-0.8-1.8-1.8c0-1,0.8-1.8,1.8-1.8h39.3c1,0,1.8,0.8,1.8,1.8&#10;&#9;&#9;C240.7,316.5,239.9,317.3,238.9,317.3L238.9,317.3z"/>
	<path class="st3_data-storage-2-63 targetColor" d="M352.3,237.1h77.6c1.6,0,2.9,1.3,2.9,2.9v54.8c0,1.6-1.3,2.9-2.9,2.9h-77.6c-1.6,0-2.9-1.3-2.9-2.9V240&#10;&#9;&#9;C349.4,238.4,350.7,237.1,352.3,237.1z" style="fill: rgb(104, 225, 253);"/>
	<path class="st1_data-storage-2-63" d="M427.6,299.5h-73c-3.9,0-7-3.1-7-7v-50.2c0-3.9,3.1-7,7-7h73c3.9,0,7,3.1,7,7v50.2&#10;&#9;&#9;C434.6,296.4,431.5,299.5,427.6,299.5z M354.6,238.9c-1.9,0-3.4,1.5-3.4,3.3c0,0,0,0,0,0.1v50.2c0,1.9,1.5,3.4,3.3,3.4&#10;&#9;&#9;c0,0,0,0,0.1,0h73c1.9,0,3.4-1.5,3.4-3.3c0,0,0,0,0-0.1v-50.2c0-1.9-1.5-3.4-3.3-3.4c0,0,0,0-0.1,0L354.6,238.9z"/>
	<rect x="379.1" y="297.7" class="st1_data-storage-2-63" width="24.1" height="17.1"/>
	<path class="st1_data-storage-2-63" d="M403.1,316.6H379c-1,0-1.8-0.8-1.8-1.8c0,0,0,0,0,0v-17.1c0-1,0.8-1.8,1.8-1.8c0,0,0,0,0,0h24.1&#10;&#9;&#9;c1,0,1.8,0.8,1.8,1.8c0,0,0,0,0,0l0,0v17.1c0,1-0.7,1.8-1.7,1.8C403.2,316.6,403.1,316.6,403.1,316.6L403.1,316.6z M380.9,312.9&#10;&#9;&#9;h20.4v-13.4h-20.4V312.9z"/>
	<path class="st1_data-storage-2-63" d="M410.8,317.3h-39.3c-1,0-1.8-0.8-1.8-1.8c0-1,0.8-1.8,1.8-1.8h39.3c1,0,1.8,0.8,1.8,1.8&#10;&#9;&#9;C412.6,316.5,411.8,317.3,410.8,317.3z"/>
	<path class="st1_data-storage-2-63" d="M305.2,357c-1,0-1.8-0.8-1.8-1.8c0,0,0,0,0,0l0,0v-118c-0.1-1,0.6-1.8,1.6-1.9c0,0,0.1,0,0.1,0&#10;&#9;&#9;c1,0,1.8,0.7,1.9,1.7v118.3C306.9,356.2,306.1,357,305.2,357L305.2,357z"/>
	<path class="st1_data-storage-2-63" d="M392.8,352H217.6c-1,0-1.8-0.8-1.8-1.8c0,0,0,0,0,0l0,0v-21.4c-0.1-1,0.7-1.8,1.7-1.9c1-0.1,1.8,0.7,1.9,1.7&#10;&#9;&#9;v19.9H391v-19.6c0-1,0.8-1.8,1.8-1.8c1,0,1.8,0.8,1.8,1.8v21.4C394.5,351.2,393.7,351.9,392.8,352L392.8,352z"/>
	<circle class="st3_data-storage-2-63 targetColor" cx="305.4" cy="350.1" r="14.5" style="fill: rgb(104, 225, 253);"/>
	<path class="st1_data-storage-2-63" d="M305.4,366.4c-9,0-16.3-7.3-16.3-16.3s7.3-16.3,16.3-16.3c9,0,16.3,7.3,16.3,16.3c0,0,0,0,0,0&#10;&#9;&#9;C321.7,359.1,314.4,366.4,305.4,366.4z M305.4,337.4c-7,0-12.7,5.7-12.7,12.7s5.7,12.7,12.7,12.7s12.7-5.7,12.7-12.7l0,0&#10;&#9;&#9;C318.1,343.1,312.4,337.4,305.4,337.4z"/>
	<path class="st1_data-storage-2-63" d="M305.2,390.1c-1,0-1.8-0.8-1.8-1.8c0,0,0,0,0,0V381c-0.1-1,0.7-1.8,1.7-1.9c1-0.1,1.8,0.7,1.9,1.7l0,0v7.6&#10;&#9;&#9;C307,389.4,306.2,390.1,305.2,390.1L305.2,390.1z M305.2,375.6c-1,0-1.8-0.8-1.8-1.8c0,0,0,0,0,0l0,0v-7.3c0-1,0.9-1.7,1.9-1.7&#10;&#9;&#9;c0,0,0,0,0,0c0.9,0.1,1.6,0.8,1.7,1.7v7.3C307,374.8,306.2,375.6,305.2,375.6C305.2,375.6,305.2,375.6,305.2,375.6L305.2,375.6z"/>
</g>
<g id="character_data-storage-2-63">
	<polygon class="st1_data-storage-2-63" points="108.8,348.5 114.9,403.7 51.7,403.7 61.2,348.5 &#9;"/>
	<path class="st1_data-storage-2-63" d="M114.9,405H51.7c-0.7,0-1.3-0.6-1.3-1.3c0-0.1,0-0.1,0-0.2l9.5-55.2c0.1-0.6,0.6-1.1,1.3-1.1h47.6&#10;&#9;&#9;c0.7,0,1.2,0.5,1.3,1.1l6.2,55.2c0.1,0.7-0.4,1.3-1.1,1.4C115,405,115,405,114.9,405z M53.2,402.4h60.3l-5.9-52.6H62.3L53.2,402.4z&#10;&#9;&#9;"/>
	<path class="st4_data-storage-2-63" d="M77,406l-45.5,11c-1,0.2-2.1-0.4-2.3-1.4l-6.7-27.8c-0.2-1,0.4-2.1,1.4-2.3l33.5-8.1l1.4-4.1l9.7-1.9&#10;&#9;&#9;c0.3-0.1,0.6,2.1,0.8,2.2c1.1,0.4,1.9,1.3,2.4,2.3l6.7,27.8C78.6,404.8,78,405.8,77,406z"/>
	<path class="st1_data-storage-2-63" d="M31.9,418.4c-2.2,0-4.2-1.5-4.7-3.7l-6.1-25.3c-0.6-2.6,1-5.2,3.6-5.8l43.1-10.4c2.6-0.6,5.2,1,5.8,3.6&#10;&#9;&#9;l6.1,25.3c0.3,1.3,0.1,2.6-0.6,3.7c-0.7,1.1-1.7,1.9-3,2.2L33,418.3C32.6,418.3,32.3,418.4,31.9,418.4z M68.1,371.1&#10;&#9;&#9;c-0.1,0-0.2,0-0.4,0l-9,2.2l-2,6l-31.3,7.5c-0.8,0.2-1.3,1-1.1,1.8l6.1,25.3c0.1,0.4,0.3,0.7,0.7,0.9c0.3,0.2,0.8,0.3,1.2,0.2&#10;&#9;&#9;l43.1-10.4l0,0c0.4-0.1,0.7-0.3,0.9-0.7c0.2-0.3,0.3-0.8,0.2-1.1l-6.1-25.3C70.2,376.8,68.8,371.1,68.1,371.1z"/>
	<path class="st5_data-storage-2-63" d="M41,342.6c-4,0.6-8,1.3-12.1,2c1.5,11.9,3.4,27.4,4.2,31.9c1.2,6,2.6,11.4,4.3,12.6s7.8-0.4,9.2-1.2&#10;&#9;&#9;s-2.1-8-2.1-8l4-0.6c0.3-1.3-4.2-6.5-4.2-6.5C44.4,372.1,42.6,355,41,342.6z"/>
	<path class="st1_data-storage-2-63" d="M39.7,390.8c-1,0.1-2-0.2-2.9-0.7c-1.2-0.9-2.8-3.2-4.8-13.4c-0.6-3.3-1.8-12.4-3-22c-0.4-3.4-0.9-6.8-1.3-10&#10;&#9;&#9;c-0.1-0.7,0.3-1.3,1-1.4c4.1-0.7,8.1-1.4,12.1-2c0.7-0.1,1.3,0.4,1.5,1.1c0,0,0,0,0,0.1c1.4,11.1,3.1,26.7,3.4,29.8&#10;&#9;&#9;c4.7,5.5,4.3,6.9,4.2,7.4c-0.1,0.5-0.5,0.9-1.1,1l-2.3,0.3c3,6.7,1.5,7.6,0.9,8C44.9,390.1,42.3,390.7,39.7,390.8z M30.4,345.6&#10;&#9;&#9;c0.4,2.8,0.7,5.8,1.1,8.8c1.2,9.2,2.3,18.6,3,21.8c1.9,9.5,3.3,11.4,3.8,11.8c0.9,0.7,5.8-0.3,7.5-1.1c0-1-1-3.9-2.3-6.5&#10;&#9;&#9;c-0.3-0.6,0-1.4,0.6-1.7c0.1-0.1,0.3-0.1,0.4-0.1l2.5-0.4c-1-1.6-2.2-3.2-3.5-4.6c-0.2-0.2-0.3-0.5-0.3-0.8&#10;&#9;&#9;c0-0.7-1.7-16.1-3.2-28.7C36.7,344.5,33.6,345.1,30.4,345.6z"/>
	<path class="st5_data-storage-2-63" d="M197.4,257.9c-1.6-1.2-10.8,4.5-13.2,7.2c0,0,1.9-3.5,3.8-7.6c1.1-2.4-1.5-4.8-4.7,0&#10;&#9;&#9;c-2.7,4.3-5.1,8.8-7.3,13.3l-4.5,2l-13,5.8l-18.4,8.2l5,11.2l40.2-17.9c0.9-0.4,2.5-0.2,3.6-0.5c1.4-0.5,7.4-3.2,10.7-7.4&#10;&#9;&#9;C204.2,266.2,198.1,258.4,197.4,257.9z"/>
	<path class="st1_data-storage-2-63" d="M145.1,299.2c-0.2,0-0.3,0-0.5-0.1c-0.3-0.1-0.6-0.4-0.7-0.7l-5-11.2c-0.3-0.6,0-1.4,0.6-1.7l35.5-15.8&#10;&#9;&#9;c2.2-4.5,4.6-8.8,7.2-13c2.8-4.3,5.2-3.4,5.9-3c1.4,0.9,1.8,2.8,1,4.2c-0.4,0.8-0.8,1.6-1.1,2.4c3.7-2.5,8.3-4.8,10.1-3.5&#10;&#9;&#9;c2.3,2.4,3.8,5.5,4.4,8.8c0.4,2.6-0.3,5.3-1.9,7.4c-3.5,4.5-9.9,7.3-11.3,7.8c-0.7,0.2-1.4,0.3-2.1,0.3c-0.5,0-0.9,0.1-1.4,0.2&#10;&#9;&#9;l-40.2,17.9C145.4,299.2,145.2,299.2,145.1,299.2z M141.8,287.4l3.9,8.8l39.1-17.4c0.7-0.3,1.5-0.4,2.2-0.4c0.5,0,1-0.1,1.4-0.2&#10;&#9;&#9;c1-0.4,6.9-3,10.1-6.9c3.7-4.8-0.8-11.2-1.9-12.4c-1.8-0.1-9.3,4.4-11.5,6.9c-0.5,0.5-1.3,0.5-1.8,0.1c-0.4-0.4-0.5-1-0.3-1.5&#10;&#9;&#9;c0,0,1.9-3.5,3.8-7.5c0.3-0.5,0.1-0.9,0.1-0.9s-1.1,0.1-2.5,2.2c-2.6,4.3-5,8.7-7.2,13.2c-0.1,0.3-0.4,0.5-0.6,0.6L141.8,287.4z&#10;&#9;&#9; M196.8,259L196.8,259z"/>
	<path class="st1_data-storage-2-63" d="M185.8,273.2c-0.7,0-1.3-0.6-1.3-1.3c0-0.3,0.1-0.5,0.2-0.7c0.6-0.8,0.8-1.8,0.7-2.8c-0.3-1-0.9-1.8-1.8-2.3&#10;&#9;&#9;c-0.6-0.4-0.8-1.1-0.5-1.8c0.3-0.6,1.1-0.8,1.7-0.5c0,0,0,0,0,0c1.4,0.9,2.5,2.3,3,3.9c0.4,1.7,0,3.4-1,4.8&#10;&#9;&#9;C186.6,273,186.2,273.2,185.8,273.2z"/>
	<path class="st6_data-storage-2-63" d="M68.2,200.3c0,0-24.2-1.3-27.8,21.7s1.2,96.7,1.2,96.7l82.2-3.8c0,0,1.3-70.9,0-100.1&#10;&#9;&#9;C122.8,192,81.4,181,68.2,200.3z"/>
	<path class="st1_data-storage-2-63" d="M41.6,320c-0.7,0-1.2-0.5-1.3-1.2c-0.2-3-4.7-74.2-1.2-97c3.4-21.5,24.2-22.7,28.4-22.7&#10;&#9;&#9;c7.5-10.3,22.5-11.6,34.2-8.3c13.7,3.9,22.8,13.3,23.2,23.9c1.2,28.9,0,99.5,0,100.2c0,0.7-0.5,1.2-1.2,1.3L41.6,320L41.6,320z&#10;&#9;&#9; M67.6,201.6c-3.9,0-7.8,0.8-11.5,2.2c-8.1,3.2-13,9.4-14.4,18.4c-3.3,20.9,0.5,85.3,1.1,95.1l79.7-3.7c0.2-9.5,1.1-72,0-98.8&#10;&#9;&#9;c-0.4-9.5-8.8-18-21.4-21.6c-11-3.1-25.1-2-31.8,7.8c-0.2,0.4-0.7,0.6-1.1,0.6L67.6,201.6z"/>
	<path class="st3_data-storage-2-63 targetColor" d="M152.5,297.9c-0.3-1.5-0.5-3.1-0.7-4.6l-0.1-1.1c-0.5-2.3-1.1-4.6-1.8-6.8c-0.4-1.4-0.9-2.8-1.3-4.2&#10;&#9;&#9;c-9.1,0.6-26.5,2.2-51.1,5.7c-13.4,1.9-30,3.9-36.4,6.6s-19.6,11.9-28,30.2c-2.7,6.1-4.8,12.5-6.4,19l16.4,4.2&#10;&#9;&#9;c1.3-5.5,3.2-10.9,5.4-16.1c3-6.3,7.3-11.9,12.8-16.2v33.9h47.6v-26.8c1.8-2.8,3.2-5.9,4-9.1c0.7-3.4-0.4-7.1-1.6-10L152.5,297.9z" style="fill: rgb(104, 225, 253);"/>
	<path class="st1_data-storage-2-63" d="M108.8,349.8H61.2c-0.7,0-1.3-0.6-1.3-1.3l0,0v-31.1c-4.3,3.9-7.8,8.7-10.3,14c-2.2,5.1-4,10.5-5.3,15.9&#10;&#9;&#9;c-0.2,0.7-0.9,1.1-1.6,0.9c0,0,0,0,0,0L26.3,344c-0.3-0.1-0.6-0.3-0.8-0.6c-0.2-0.3-0.2-0.7-0.1-1c1.6-6.6,3.8-13,6.5-19.2&#10;&#9;&#9;c7.7-17,20.3-27.2,28.6-30.9c5.6-2.4,18.4-4.2,30.8-5.9l5.9-0.8c25.1-3.6,42.8-5.1,51.2-5.7c0.6,0,1.2,0.4,1.3,1&#10;&#9;&#9;c0.3,1.2,0.7,2.4,1.1,3.6l0.2,0.5c0.7,2.2,1.3,4.5,1.9,6.9l0.2,1.2c0.2,1.5,0.5,3,0.7,4.6c0.1,0.4,0,0.7-0.2,1&#10;&#9;&#9;c-0.2,0.3-0.5,0.5-0.9,0.5l-39.6,4.5c1.2,2.9,1.5,6.1,1,9.1c-0.8,3.3-2.2,6.4-4,9.2v26.4C110,349.2,109.5,349.8,108.8,349.8z&#10;&#9;&#9; M62.5,347.2h45v-25.5c0-0.2,0.1-0.5,0.2-0.7c1.8-2.7,3.1-5.6,3.8-8.7c0.7-3.2-0.5-6.8-1.5-9.2c-0.2-0.4-0.2-0.8,0-1.2&#10;&#9;&#9;c0.2-0.4,0.6-0.6,1-0.6l40-4.5c-0.2-1.1-0.4-2.2-0.5-3.3c0-0.3-0.1-0.5-0.1-0.8v-0.3c-0.5-2.3-1.1-4.5-1.8-6.6l-0.2-0.5&#10;&#9;&#9;c-0.3-0.9-0.6-1.8-0.9-2.8c-8.7,0.6-25.9,2.2-49.9,5.6l-5.9,0.8c-11.6,1.6-24.8,3.4-30.1,5.7c-1.8,0.8-17.5,8.1-27.3,29.6&#10;&#9;&#9;c-2.5,5.7-4.5,11.5-6,17.5l13.9,3.6c1.3-5.2,3-10.2,5.2-15.1c3-6.5,7.5-12.2,13.1-16.7c0.4-0.3,0.9-0.4,1.4-0.2&#10;&#9;&#9;c0.4,0.2,0.7,0.7,0.7,1.2L62.5,347.2z"/>
	<polygon class="st0_data-storage-2-63" points="81.8,290.7 89.6,330.1 92.8,292.8 &#9;"/>
	<path class="st1_data-storage-2-63" d="M89.5,331.4c-0.6,0-1.1-0.4-1.3-1L80.6,291c-0.1-0.4,0-0.8,0.3-1.1c0.3-0.3,0.7-0.4,1.2-0.4l10.9,2&#10;&#9;&#9;c0.6,0.1,1.1,0.7,1,1.4l-3.2,37.3C90.7,330.9,90.2,331.4,89.5,331.4L89.5,331.4z M83.4,292.3l5.6,28.6l2.3-27.1L83.4,292.3z"/>
	<path class="st3_data-storage-2-63 targetColor" d="M145.2,280.3l5-0.7c1.2-0.2,2.4,0.7,2.6,1.9l2.2,15.4c0.2,1.2-0.7,2.4-1.9,2.6l-5,0.7&#10;&#9;&#9;c-1.2,0.2-2.4-0.7-2.6-1.9l-2.2-15.4C143,281.6,143.9,280.5,145.2,280.3z" style="fill: rgb(104, 225, 253);"/>
	<path class="st1_data-storage-2-63" d="M148.2,301.4c-2.1,0-3.9-1.6-4.2-3.6l-2-14.1c-0.3-2.3,1.3-4.4,3.6-4.8l3.7-0.5c2.3-0.3,4.4,1.3,4.8,3.6&#10;&#9;&#9;l2,14.1c0.3,2.3-1.3,4.4-3.6,4.8l-3.7,0.5C148.6,301.4,148.4,301.4,148.2,301.4z M149.9,280.9c-0.1,0-0.2,0-0.2,0l-3.7,0.5&#10;&#9;&#9;c-0.9,0.1-1.5,1-1.4,1.9l2,14.1c0.1,0.4,0.3,0.8,0.6,1.1c0.4,0.3,0.8,0.4,1.2,0.3l0,0l3.7-0.5c0.4-0.1,0.8-0.3,1.1-0.6&#10;&#9;&#9;c0.3-0.3,0.4-0.8,0.3-1.2l-2-14.1C151.4,281.5,150.7,280.9,149.9,280.9z"/>
	<path class="st5_data-storage-2-63" d="M81.8,284.2h11.4l0,0v7.6c0,2.1-1.7,3.8-3.8,3.8c0,0,0,0,0,0h-3.9c-2.1,0-3.8-1.7-3.8-3.8l0,0&#10;&#9;&#9;C81.8,291.8,81.8,284.2,81.8,284.2z"/>
	<path class="st1_data-storage-2-63" d="M88.4,296.8h-1.7c-3.4,0-6.1-2.7-6.1-6.1v-6.6c0-0.7,0.6-1.3,1.3-1.3c0,0,0,0,0,0h11.4c0.7,0,1.3,0.6,1.3,1.3&#10;&#9;&#9;c0,0,0,0,0,0v6.6C94.5,294.1,91.8,296.8,88.4,296.8z M83.1,285.4v5.3c0,2,1.6,3.5,3.6,3.5h1.7c2,0,3.6-1.6,3.6-3.5v-5.3H83.1z"/>
	<ellipse class="st5_data-storage-2-63" cx="117" cy="255.8" rx="8.5" ry="9.5"/>
	<path class="st1_data-storage-2-63" d="M117,266.6c-5.4,0-9.8-4.9-9.8-10.8s4.4-10.8,9.8-10.8s9.8,4.9,9.8,10.8S122.4,266.6,117,266.6z M117,247.5&#10;&#9;&#9;c-4,0-7.2,3.7-7.2,8.2c0,4.6,3.2,8.2,7.2,8.2s7.3-3.7,7.3-8.2S121,247.5,117,247.5L117,247.5z"/>
	<path class="st5_data-storage-2-63" d="M87.2,286.9c-18.7,0-35.5-23.1-35.5-41.6l4.5,1.7c0,0,23.3-19.2,20.2-30.1c0,0,6.9,8.2,16.8,8.1&#10;&#9;&#9;c18.2,0,25.3-4.9,25.3-4.9v33.3C118.4,271.9,105.9,286.9,87.2,286.9z"/>
	<path class="st1_data-storage-2-63" d="M87.2,288.1c-19.5,0-36.8-24-36.8-42.8c0-0.7,0.6-1.3,1.3-1.3c0.2,0,0.3,0,0.5,0.1l3.8,1.4&#10;&#9;&#9;c6.6-5.6,21.5-20.3,19.2-28.3c-0.2-0.6,0.1-1.2,0.6-1.5c0.5-0.3,1.2-0.1,1.6,0.3c0.1,0.1,6.6,7.7,15.8,7.7l0,0&#10;&#9;&#9;c17.5,0,24.5-4.6,24.6-4.6c0.4-0.3,0.9-0.3,1.3-0.1c0.4,0.2,0.7,0.7,0.7,1.1v33.3C119.7,273.5,106,288.1,87.2,288.1z M53,247.2&#10;&#9;&#9;c1.1,20.5,19.5,38.4,34.2,38.4c17.4,0,30-13.5,30-32.1v-31.2c-3.3,1.5-10.8,4-24,4l0,0c-6.8,0-12.3-3.6-15.2-6.2&#10;&#9;&#9;c-0.5,4.5-3.7,10.1-9.5,16.8c-3.6,4-7.4,7.7-11.5,11.2c-0.4,0.3-0.8,0.4-1.3,0.2L53,247.2z"/>
	<ellipse class="st1_data-storage-2-63" cx="74.6" cy="248.8" rx="3.1" ry="3.1"/>
	<circle class="st1_data-storage-2-63" cx="104.9" cy="248.8" r="3.1"/>
	<path class="st1_data-storage-2-63" d="M93.7,258.9c-1,0-2.1-0.1-3.1-0.3c-0.7-0.1-1.2-0.8-1-1.5c0.1-0.7,0.8-1.2,1.5-1c1.4,0.2,2.8,0.3,4.2,0.1&#10;&#9;&#9;c0-1.1-1.1-4.1-2.6-6.9c-0.3-0.6-0.1-1.4,0.6-1.8s1.4-0.1,1.8,0.6l0,0c1.4,2.6,3.5,7.3,2.6,9.4c-0.2,0.6-0.7,1-1.3,1.1&#10;&#9;&#9;C95.4,258.9,94.5,258.9,93.7,258.9z"/>
	<path class="st1_data-storage-2-63" d="M70.3,241.9c-1.4,0-2.6-1.1-2.6-2.6c0-1.3,1-2.4,2.3-2.6l14.7-1.3c1.4-0.1,2.7,0.9,2.8,2.4&#10;&#9;&#9;c0.1,1.4-0.9,2.6-2.3,2.8l-14.7,1.3L70.3,241.9z"/>
	<path class="st1_data-storage-2-63" d="M98,240.2c-1.4,0-2.6-1.1-2.6-2.5c0-1.4,1.1-2.6,2.5-2.6l0,0l14.7-0.7c1.4,0,2.6,1,2.7,2.4&#10;&#9;&#9;c0.1,1.4-1,2.6-2.4,2.7l-14.7,0.7L98,240.2z"/>
	<path class="st5_data-storage-2-63" d="M58.4,247.6c0,0-8.1-5.6-12.5,1.6s-0.2,19.6,13.3,16"/>
	<path class="st1_data-storage-2-63" d="M54.7,267.2c-3.7,0.2-7.2-1.5-9.4-4.4c-3-4.2-3.2-9.8-0.5-14.3c1.1-2.1,3.1-3.6,5.5-4.1c4.4-0.9,8.7,2,8.9,2.1&#10;&#9;&#9;c0.6,0.4,0.7,1.2,0.3,1.8s-1.2,0.7-1.8,0.3c-0.1,0-3.6-2.4-6.9-1.7c-1.6,0.4-3,1.5-3.8,3c-2.1,3.6-2,8,0.4,11.4&#10;&#9;&#9;c2.3,3.1,6.4,4.1,11.5,2.7c0.7-0.2,1.4,0.3,1.5,1c0.2,0.7-0.2,1.3-0.9,1.5C57.9,267,56.3,267.2,54.7,267.2z"/>
	<path class="st3_data-storage-2-63 targetColor" d="M44.9,340.5l0.4,5c0.1,1.2-0.8,2.4-2.1,2.5l-15.5,1.4c-1.2,0.1-2.4-0.8-2.5-2.1l-0.4-5&#10;&#9;&#9;c-0.1-1.2,0.8-2.4,2.1-2.5l15.5-1.4C43.6,338.3,44.7,339.2,44.9,340.5z" style="fill: rgb(104, 225, 253);"/>
	<path class="st1_data-storage-2-63" d="M28.1,350.6c-2.2,0-4-1.7-4.1-3.8l-0.4-3.7l0,0c-0.1-1.1,0.3-2.2,1-3.1c0.7-0.9,1.7-1.4,2.9-1.5l14.2-1.3&#10;&#9;&#9;c2.3-0.2,4.3,1.5,4.5,3.8l0.3,3.7c0.2,2.3-1.5,4.4-3.8,4.6l-14.2,1.3L28.1,350.6z M26.2,342.8l0.3,3.7c0.1,0.9,0.9,1.6,1.7,1.5&#10;&#9;&#9;c0,0,0,0,0,0l14.2-1.3c0.9-0.1,1.6-0.8,1.5-1.7l-0.3-3.7c-0.1-0.9-0.9-1.6-1.8-1.5c0,0,0,0,0,0L27.7,341&#10;&#9;&#9;C26.8,341.1,26.1,341.9,26.2,342.8L26.2,342.8z"/>
	<path class="st1_data-storage-2-63" d="M111.2,303.9c-0.5,0-1-0.3-1.2-0.8l-2.7-7.1c-0.2-0.7,0.2-1.4,0.9-1.6c0.6-0.2,1.3,0.1,1.5,0.7l2.7,7.1&#10;&#9;&#9;c0.2,0.7-0.1,1.4-0.7,1.6c0,0,0,0,0,0C111.5,303.9,111.3,303.9,111.2,303.9z"/>
	<path class="st0_data-storage-2-63" d="M98,263.6l-13,0.6c0,0,1.1,13.3,5.8,14.6S98.6,271.5,98,263.6z"/>
	<path class="st1_data-storage-2-63" d="M91.7,280.2c-0.4,0-0.8-0.1-1.2-0.2c-5.3-1.4-6.5-13.4-6.7-15.7c0-0.3,0.1-0.7,0.3-1c0.2-0.3,0.6-0.4,0.9-0.4&#10;&#9;&#9;l13-0.6c0.7,0,1.3,0.5,1.3,1.2c0.5,6.5-1.4,13-4.4,15.5C94,279.8,92.9,280.2,91.7,280.2z M86.4,265.4c0.6,5,2.3,11.5,4.7,12.1&#10;&#9;&#9;c0.7,0.2,1.5,0,2.1-0.5c2.2-1.8,3.7-7,3.6-12.1L86.4,265.4z"/>
</g>
<g id="document_data-storage-2-63">
	<polygon class="st0_data-storage-2-63" points="226.2,282.5 187.3,282.5 187.3,226.9 214.5,226.9 226.2,235.3 &#9;"/>
	<path class="st1_data-storage-2-63" d="M226.2,284h-38.9c-0.8,0-1.5-0.7-1.5-1.5v-55.6c0-0.8,0.7-1.5,1.5-1.5h27.2c0.3,0,0.6,0.1,0.9,0.3l11.7,8.4&#10;&#9;&#9;c0.4,0.3,0.6,0.7,0.6,1.2v47.2C227.7,283.4,227,284,226.2,284z M188.8,281h35.9v-45l-10.7-7.6h-25.2V281z"/>
	<path class="st1_data-storage-2-63" d="M215.3,244.9h-17.5c-0.8,0-1.5-0.7-1.5-1.5s0.7-1.5,1.5-1.5h17.5c0.8,0,1.5,0.7,1.5,1.5&#10;&#9;&#9;S216.1,244.9,215.3,244.9z"/>
	<path class="st1_data-storage-2-63" d="M215.3,254.9h-17.5c-0.8,0-1.5-0.7-1.5-1.5s0.7-1.5,1.5-1.5h17.5c0.8,0,1.5,0.7,1.5,1.5&#10;&#9;&#9;S216.1,254.9,215.3,254.9z"/>
	<path class="st1_data-storage-2-63" d="M215.3,264.9h-17.5c-0.8,0-1.5-0.7-1.5-1.5s0.7-1.5,1.5-1.5h17.5c0.8,0,1.5,0.7,1.5,1.5&#10;&#9;&#9;S216.1,264.9,215.3,264.9z"/>
</g>
</svg>