<svg version="1.1" id="Layer_1" xmlns="http://www.w3.org/2000/svg" xmlns:xlink="http://www.w3.org/1999/xlink" x="0px" y="0px" viewBox="0 0 500 500" style="width: 166px;" xml:space="preserve" data-imageid="data-storage-56" imageName="Data Storage" class="illustrations_image">
<style type="text/css">
	.st0_data-storage-56{fill:#0071BC;}
	.st1_data-storage-56{fill:#F2F2F2;}
	.st2_data-storage-56{opacity:0.1;fill:#053855;enable-background:new    ;}
	.st3_data-storage-56{fill:#68E1FD;}
	.st4_data-storage-56{opacity:0.23;fill:#053855;enable-background:new    ;}
	.st5_data-storage-56{fill:#A0D700;}
	.st6_data-storage-56{fill:#CBED4F;}
	.st7_data-storage-56{fill:#FF8F6F;}
	.st8_data-storage-56{fill:#053855;}
	.st9_data-storage-56{fill:#FFB5A9;}
	.st10_data-storage-56{fill:#BA4F32;}
	.st11_data-storage-56{opacity:0.3;fill:#A0D700;enable-background:new    ;}
</style>
<g id="background_data-storage-56">
	<path class="st0_data-storage-56" d="M243,403.1L17.5,269.8c-7.2-4-13.3-10.6-6.3-15l226.3-130.4c3.4-2.1,8.6-3.5,12-1.5l236.7,137.4&#10;&#9;&#9;c7.2,4.2,8.5,15.8,1.3,20L272.7,402.9C263.5,408.2,252.2,408.2,243,403.1z"/>
</g>
<g id="data_data-storage-56">
	<polygon class="st1_data-storage-56" points="137.5,274.8 133.7,274.8 133.7,227.6 206.7,185.8 206.7,134.4 210.4,134.4 210.4,188 137.5,229.8 &#9;"/>
	<path class="st2_data-storage-56" d="M263.6,83.3c-1.1-1.4-17.1-10.9-17.1-10.9v0.1c-3.3-3.6-9.4-2.3-17.2,4.5c0,0-0.3-7.5-9.3-8.8&#10;&#9;&#9;s-11.6,2.9-11.6,2.9s-3-14.3-21.2-8.9C170.7,67.1,173,83.6,173,83.6s-10.2-2.6-18.4,8.7s-7.6,24.4-7.6,24.4s-17.2,6.2-19.4,21.9&#10;&#9;&#9;c-0.2,1.4-0.3,2.7-0.3,4.1v0.4c-0.1,3.4,0.2,6.7,0.9,10c0.3,1.9,1.5,3.6,3.2,4.6l18.2,10.4c0.6-4.5-0.1-9.1-1.9-13.4l90.2-52.4&#10;&#9;&#9;c0,0,6.9-6.1,9.8-14.1l7-1.8C254.8,86.4,264.7,84.7,263.6,83.3z"/>
	<path class="st2_data-storage-56" d="M263.6,83.3c-1.1-1.4-17.1-10.9-17.1-10.9v0.1c-3.3-3.6-9.4-2.3-17.2,4.5c0,0-0.3-7.5-9.3-8.8&#10;&#9;&#9;s-11.6,2.9-11.6,2.9s-3-14.3-21.2-8.9C170.7,67.1,173,83.6,173,83.6s-10.2-2.6-18.4,8.7s-7.6,24.4-7.6,24.4s-17.2,6.2-19.4,21.9&#10;&#9;&#9;c-0.2,1.4-0.3,2.7-0.3,4.1v0.4c-0.1,3.4,0.2,6.7,0.9,10c0.3,1.9,1.5,3.6,3.2,4.6l18.2,10.4c0.6-4.5-0.1-9.1-1.9-13.4l90.2-52.4&#10;&#9;&#9;c0,0,6.9-6.1,9.8-14.1l7-1.8C254.8,86.4,264.7,84.7,263.6,83.3z"/>
	<path class="st3_data-storage-56 targetColor" d="M263.6,83.3c-1.1-1.4-17.1-10.9-17.1-10.9v0.1c-3.3-3.6-9.4-2.3-17.2,4.5c0,0-0.3-7.5-9.3-8.8&#10;&#9;&#9;s-11.6,2.9-11.6,2.9s-3-14.3-21.2-8.9C170.7,67.1,173,83.6,173,83.6s-10.2-2.6-18.4,8.7s-7.6,24.4-7.6,24.4s-17.2,6.2-19.4,21.9&#10;&#9;&#9;c-0.2,1.4-0.3,2.7-0.3,4.1v0.4c-0.1,3.4,0.2,6.7,0.9,10c0.3,1.9,1.5,3.6,3.2,4.6l18.2,10.4c0.6-4.5-0.1-9.1-1.9-13.4l90.2-52.4&#10;&#9;&#9;c0,0,6.9-6.1,9.8-14.1l7-1.8C254.8,86.4,264.7,84.7,263.6,83.3z" style="fill: rgb(104, 225, 253);"/>
	<path class="st4_data-storage-56" d="M263.6,83.3c-1.1-1.4-17.1-10.9-17.1-10.9v0.1c-3.3-3.6-9.4-2.3-17.2,4.5c0,0-0.3-7.5-9.3-8.8&#10;&#9;&#9;s-11.6,2.9-11.6,2.9s-3-14.3-21.2-8.9C170.7,67.1,173,83.6,173,83.6s-10.2-2.6-18.4,8.7s-7.6,24.4-7.6,24.4s-17.2,6.2-19.4,21.9&#10;&#9;&#9;c-0.2,1.4-0.3,2.7-0.3,4.1v0.4c-0.1,3.4,0.2,6.7,0.9,10c0.3,1.9,1.5,3.6,3.2,4.6l18.2,10.4c0.6-4.5-0.1-9.1-1.9-13.4l90.2-52.4&#10;&#9;&#9;c0,0,6.9-6.1,9.8-14.1l7-1.8C254.8,86.4,264.7,84.7,263.6,83.3z"/>
	<path class="st3_data-storage-56 targetColor" d="M159.5,169.3l96-55.8c0,0,11.8-10.3,11.1-21.9s-8.4-13.4-19.9-3.4c0,0-0.2-9.7-9.3-8.8s-12.5,6.9-12.5,6.9&#10;&#9;&#9;s1.8-17.2-16.3-11.9c-9.5,2.7-16.6,10.6-18.1,20.4c0,0-10.2-2.6-18.4,8.7s-7.5,24.5-7.5,24.5s-17.2,6.2-19.4,21.9&#10;&#9;&#9;S150.5,172.5,159.5,169.3z" style="fill: rgb(104, 225, 253);"/>
	<polygon class="st1_data-storage-56" points="210.4,235.4 206.7,235.4 206.7,185.8 300.8,131.2 300.8,172.2 297,172.2 297,137.7 210.4,188 &#9;"/>
	<polygon class="st5_data-storage-56" points="180,261 225.9,287 279.5,255.8 279.5,234.8 225.9,266 180,239.8 &#9;"/>
	<polygon class="st6_data-storage-56" points="180,239.8 234.6,208.4 279.5,234.8 225.9,266 &#9;"/>
	<polygon class="st6_data-storage-56" points="225.9,266 225.9,287 279.5,255.8 279.5,234.8 &#9;"/>
	<polygon class="st5_data-storage-56" points="96.5,310 142.9,336.2 196.9,304.7 196.9,283.5 142.9,315 96.5,288.5 &#9;"/>
	<polygon class="st6_data-storage-56" points="96.5,288.5 151.6,256.9 196.9,283.5 142.9,315 &#9;"/>
	<polygon class="st6_data-storage-56" points="142.9,315 142.9,336.2 196.9,304.7 196.9,283.5 &#9;"/>
	<polygon class="st5_data-storage-56" points="258.2,215.9 304.1,241.8 357.7,210.6 357.7,189.6 304.1,220.8 258.2,194.6 &#9;"/>
	<polygon class="st6_data-storage-56" points="258.2,194.6 312.8,163.2 357.7,189.6 304.1,220.8 &#9;"/>
	<polygon class="st6_data-storage-56" points="304.1,220.8 304.1,241.8 357.7,210.6 357.7,189.6 &#9;"/>
	<polygon class="st4_data-storage-56" points="225.9,266 225.9,287 279.5,255.8 279.5,234.8 &#9;"/>
	<polygon class="st4_data-storage-56" points="142.9,315 142.9,336.2 196.9,304.7 196.9,283.5 &#9;"/>
	<polygon class="st4_data-storage-56" points="304.1,220.8 304.1,241.8 357.7,210.6 357.7,189.6 &#9;"/>
	<path d="M171.5,282.8c-6.4-6.4-15.4-9.1-21.8-15.6c-1.1-1.1-2.9,0.6-1.8,1.8c6.4,6.4,15.4,9.2,21.8,15.6c0.5,0.4,1.3,0.4,1.8-0.2&#10;&#9;&#9;C171.9,283.9,171.9,283.2,171.5,282.8z"/>
	<path class="st3_data-storage-56 targetColor" d="M140.8,277.3c-1.1-0.9-1.8-2.2-2.3-3.5c-0.2-0.7-0.9-1.1-1.6-0.9c-0.2,0.1-0.4,0.2-0.5,0.3&#10;&#9;&#9;c-1.2,0.9-2.5,1.5-4,1.7c-1.6,0.3-0.9,2.7,0.7,2.4c0.7-0.1,1.4-0.3,2.1-0.6c-2.3,4.7-4.6,9.3-6.9,13.9c-0.7,1.4,1.5,2.7,2.2,1.3&#10;&#9;&#9;c2.4-4.8,4.7-9.6,7.1-14.5c0.4,0.6,0.9,1.1,1.4,1.6C140.2,280.2,142,278.4,140.8,277.3z" style="fill: rgb(104, 225, 253);"/>
	<path class="st3_data-storage-56 targetColor" d="M172.5,281.7c-7.1-5.1-14.2-10.4-21.1-15.8c-2.6-2-5.3,2.2-2.8,4.2c6.9,5.4,13.9,10.7,21.1,15.8&#10;&#9;&#9;C172.4,287.7,175.1,283.5,172.5,281.7z" style="fill: rgb(104, 225, 253);"/>
	<path class="st3_data-storage-56 targetColor" d="M162.5,286.5c-4.6-3.9-9.3-7.6-14.2-11.2c-2.6-1.9-5.1,2.5-2.5,4.3c4.5,3.3,8.9,6.7,13.2,10.4&#10;&#9;&#9;C161.4,292.1,164.9,288.6,162.5,286.5z" style="fill: rgb(104, 225, 253);"/>
	<path class="st3_data-storage-56 targetColor" d="M154.3,291.6l-8.8-7.1c-1-0.9-2.6-0.9-3.6,0c-1,1-1,2.6,0,3.5l8.8,7.1c1,0.9,2.6,0.9,3.6,0&#10;&#9;&#9;C155.3,294.2,155.3,292.6,154.3,291.6z" style="fill: rgb(104, 225, 253);"/>
	<path class="st3_data-storage-56 targetColor" d="M146.4,297.3c-2.1-1.8-4.2-3.5-6.4-5.1c-1.2-0.7-2.7-0.3-3.4,0.9c-0.7,1.2-0.3,2.7,0.9,3.4&#10;&#9;&#9;c1.9,1.4,3.6,2.8,5.4,4.4c1,0.9,2.6,0.9,3.6,0C147.4,299.8,147.4,298.3,146.4,297.3z" style="fill: rgb(104, 225, 253);"/>
	<ellipse class="st3_data-storage-56 targetColor" cx="229.8" cy="237" rx="19" ry="13.8" style="fill: rgb(104, 225, 253);"/>
	<path class="st7_data-storage-56" d="M222.1,224.4l7.7,12.6l9.6-11.9C239.4,225.1,232.6,221.8,222.1,224.4z"/>
	<path class="st8_data-storage-56" d="M317.3,171.7c-12.7,7.8-25.4,15.7-37.9,23.9c-2.7,1.8-0.3,6.1,2.5,4.4c12.5-8.2,25.1-16.1,37.9-23.9&#10;&#9;&#9;C322.5,174.4,320.1,170,317.3,171.7z"/>
	<path class="st3_data-storage-56 targetColor" d="M325.4,178.5c-12.7,7.8-25.4,15.7-37.9,23.9c-2.7,1.8-0.3,6.1,2.5,4.4c12.5-8.2,25.1-16.1,37.9-23.9&#10;&#9;&#9;C330.6,181.2,328.2,176.8,325.4,178.5z" style="fill: rgb(104, 225, 253);"/>
	<path class="st3_data-storage-56 targetColor" d="M334,184.1c-12.7,7.8-25.4,15.7-37.9,23.9c-2.7,1.8-0.3,6.1,2.5,4.4c12.5-8.2,25.1-16.1,37.9-23.9&#10;&#9;&#9;C339.2,186.8,336.8,182.4,334,184.1z" style="fill: rgb(104, 225, 253);"/>
	<path class="st3_data-storage-56 targetColor" d="M317.3,171.7c-12.7,7.8-25.4,15.7-37.9,23.9c-2.7,1.8-0.3,6.1,2.5,4.4c12.5-8.2,25.1-16.1,37.9-23.9&#10;&#9;&#9;C322.5,174.4,320.1,170,317.3,171.7z" style="fill: rgb(104, 225, 253);"/>
	<path class="st7_data-storage-56" d="M325.4,178.5c-4.4,2.7-8.8,5.4-13.2,8.1c1.5,1,2.9,2.1,4.2,3.3c3.8-2.3,7.6-4.7,11.4-7&#10;&#9;&#9;C330.6,181.2,328.2,176.8,325.4,178.5z"/>
	<path class="st1_data-storage-56" d="M304.7,202.5c-2.9,1.8-5.7,3.7-8.6,5.6c-2.7,1.8-0.3,6.1,2.5,4.4c3.5-2.3,7.1-4.6,10.7-6.9&#10;&#9;&#9;C307.7,204.5,306.2,203.6,304.7,202.5z"/>
</g>
<g id="character_data-storage-56">
	<polygon class="st1_data-storage-56" points="242.1,215.9 251.7,239.7 267.2,232.9 257,208.9 &#9;"/>
	<path class="st9_data-storage-56" d="M253.7,238.2c-0.3-1.1-2.1-6.4-2.3-7.5c0.5-1.6-0.3-3.2-0.5-4.9c-0.1-0.5-0.6-0.6-1-0.2&#10;&#9;&#9;c-0.9,0.9-0.2,2.1-0.5,3.5c-0.6-0.9-1.2-1.8-1.7-2.8c-0.2-0.4-0.4-0.7-0.7-1c-0.4-0.7-0.9-1.3-1.7-1.1c-0.3,0.1-0.5,0.3-0.5,0.6&#10;&#9;&#9;c0,0.2,0,0.4,0.1,0.7c-0.5,0-0.9,0.3-1,0.8c-0.1,0.7,0.1,1.5,0.4,2.1c-0.6,0.3-0.9,0.9-0.6,1.5c0,0,0,0.1,0.1,0.1&#10;&#9;&#9;c0.4,0.7,1,1.3,1.6,1.8c0.7,0.6,1.3,1.4,1.7,2.2c0.1,0.1,0.1,0.2,0.3,0.2c0.8,1.8,2.1,4.9,2.3,5.4&#10;&#9;&#9;C251.2,239.2,252.1,238.5,253.7,238.2z"/>
	<path class="st7_data-storage-56" d="M283.1,224.7c5,4.3,8.8,9.9,11,16.1c3.9,10.6-5.8,28.1-5.8,28.1l-15-11.9"/>
	<path class="st8_data-storage-56" d="M284.8,365.6l4.1-2.2l-1-5.8c0,0-6.1,0.6-6.6,2.7"/>
	<path class="st3_data-storage-56 targetColor" d="M283.2,365.5c-0.9-0.6-1.9-1.1-2.8-1.6c-2.4-1.3-5.8-2.6-7.2-5c-0.6-1-0.5-2.2,0.2-3.2&#10;&#9;&#9;c2.1-2.6,6.8,1.7,9.2-1.2c0.5-0.6,0.7-9.5,0.7-9.5l9.1,2.5c0,0,1.5,18,1.4,19.1s-3.3,2.2-3.3,2.2c-0.9-0.2-1.8-0.5-2.6-1&#10;&#9;&#9;c-1-0.7-0.1-9.1-1.3-8s-1.7,5.8-1.7,5.8C284.3,365.7,283.7,365.6,283.2,365.5z" style="fill: rgb(104, 225, 253);"/>
	<path class="st8_data-storage-56" d="M267.4,374.3l4.1-2.2l-1-5.8c0,0-6.1,0.6-6.6,2.7"/>
	<path class="st3_data-storage-56 targetColor" d="M265.9,374.3c-0.9-0.6-1.9-1.1-2.8-1.6c-2.4-1.3-5.8-2.6-7.2-5c-0.6-1-0.5-2.2,0.2-3.2&#10;&#9;&#9;c2.1-2.6,6.8,1.7,9.2-1.2c0.5-0.6,0.7-9.5,0.7-9.5l9.1,2.4c0,0,1.5,18,1.4,19.1s-3.3,2.2-3.3,2.2c-0.9-0.2-1.8-0.5-2.6-1&#10;&#9;&#9;c-1-0.7-0.1-9.1-1.3-8s-1.8,5.8-1.8,5.8C266.9,374.4,266.4,374.3,265.9,374.3z" style="fill: rgb(104, 225, 253);"/>
	<path class="st8_data-storage-56" d="M297,315.8l2.6,35.8c0,0-4.3,5.9-18.6,2.6l0,0l-0.2-24.2"/>
	<path class="st8_data-storage-56" d="M280.4,322.9c0.3,3.1,0,37.1,0,37.1s-4,7.4-21.2,0l0.2-28.9"/>
	<path class="st8_data-storage-56" d="M295.5,325c-4.5,2.6-9.2,4.7-14.1,6.2l-0.1,0c-0.5-0.2-1.1,0-1.3,0.5c-3,0.9-6.1,1.6-9.3,2.1&#10;&#9;&#9;c-4,0.6-7.4-2.3-11.5-2.5c0-15.8-0.1-60.8,6.7-70.3l19.9-6.6c0.1,1.6,9.7,12.7,9.4,26.2c-0.1,12,0.5,24,1.8,36"/>
	<path class="st7_data-storage-56" d="M264.1,242.7l1.8,18.1c0,0,14.9,0.6,21.2-3.8v-15.4"/>
	<path class="st7_data-storage-56" d="M275.7,225.7c0,0-9.3,2.4-12.1,6.9c-1.8,3.1-3.4,6.4-4.7,9.7l-5.2-8.1c0,0-6.3,1.9-8.8,5c0,0,7.5,16.3,14,17.7&#10;&#9;&#9;s19.6-6.9,19.6-6.9s-4.8,1.8-5.1-3.1"/>
	<path class="st10_data-storage-56" d="M269,243.6c2-1.7,3.6-3.8,4.4-6.3c0.9-2.9-0.2-5.4-1.2-8c-1.1-2.6-1.7-5.4-1.8-8.3c-0.1-2.8,0.2-5.6,0.4-8.4&#10;&#9;&#9;c0-0.1,0-0.2,0-0.4c0.9-3.1,2.9-5.8,6.6-6.1c9.8-0.8,10.4,10,10.3,14.4s-0.5,7.4,2.7,9.2s5.6,6.7,2.5,10.6s-0.3,2.5,1.8,6&#10;&#9;&#9;s1.5,7.8-2.7,9.4c-4.2,1.6-24-1.4-25.8-3.2c-0.6-0.7-1-1.7-0.9-2.7C265.6,247.3,267.1,245.4,269,243.6z"/>
	<path class="st1_data-storage-56" d="M279.9,284.8v74c0,0.3,0.4,0.6,0.7,0.5c0.3,0,0.5-0.3,0.5-0.5v-74c0-0.3-0.4-0.6-0.7-0.5&#10;&#9;&#9;C280.2,284.3,280,284.5,279.9,284.8z"/>
</g>
<g id="plant_data-storage-56">
	<polyline class="st3_data-storage-56 targetColor" points="414.3,254.5 414.3,270 439.4,270 439.4,254.5 &#9;" style="fill: rgb(104, 225, 253);"/>
	<ellipse class="st3_data-storage-56 targetColor" cx="426.9" cy="254.5" rx="12.5" ry="6.2" style="fill: rgb(104, 225, 253);"/>
	<ellipse class="st10_data-storage-56" cx="426.9" cy="254.5" rx="12.5" ry="6.2"/>
	<ellipse class="st3_data-storage-56 targetColor" cx="426.9" cy="270.6" rx="12.5" ry="6.2" style="fill: rgb(104, 225, 253);"/>
	<path d="M440.9,218.5c-2.6-1.1-6.3-4.7-9.5-4.6c-1.1,3.1-1.7,6.3-1.9,9.5c-0.6,5.3-0.7,10.6-0.4,15.9c0.1,1.2,0.2,2.4,0.3,3.5&#10;&#9;&#9;c0,0.3,0.1,0.7,0.3,1V256c0,0.2,0.2,0.4,0.4,0.4c0.2,0,0.4-0.2,0.4-0.4v-11.8c1.3-0.4,2.5-1,3.6-1.7c2.3-1.5,4.1-3.7,5-6.3&#10;&#9;&#9;c2-5.6,0.8-11.9,2.7-17.5L440.9,218.5z"/>
	<path class="st5_data-storage-56" d="M435.5,209.2c-1.5,0.9-2.7,2.1-3.6,3.7c-0.2,0.3-0.4,0.7-0.6,1.1c0,0.1-0.1,0.2-0.1,0.2l0,0&#10;&#9;&#9;c-0.2,0.6-0.4,1.3-0.6,1.9c0.3-0.5,0.8-0.8,1.3-1c0.7-0.3,1.4-0.4,2.1-0.2c0.7,0.3,1.3,0.6,1.9,1c0.9,0.5,1.8,1.1,2.6,1.7&#10;&#9;&#9;c4.1,2.6,9.7,2.9,12.9-0.9c0-0.1,0.1-0.3,0.1-0.5C452.1,213.6,444.6,203.9,435.5,209.2z"/>
	<path d="M449.6,218.4c0.2-0.1,0.3-0.2,0.5-0.4c0-0.1,0-0.2-0.1-0.3c-2.5-2.6-5.2-5.1-8.6-6.4c-2.5-0.9-5.1-1.2-7.7-0.8&#10;&#9;&#9;c-0.3,0.3-0.5,0.7-0.8,1c3-0.8,6.1-0.5,8.9,0.7c3,1.3,5.4,3.6,7.7,5.9C449.5,218.3,449.6,218.3,449.6,218.4z"/>
	<path d="M407.6,224c-3.7,1.9-5.9,5.9-5.6,10c0.3,7.4,12.5,0.2,15.7-6.1s3.7,2.7,3.7,2.7"/>
	<path class="st5_data-storage-56" d="M418.5,221.4c-2.3,0-4.6,0.3-6.8,0.9c-1.5,0.4-2.9,0.9-4.2,1.6c0.8,0.5,1.6,0.9,2.4,1.3&#10;&#9;&#9;c1.5,0.6,3.1,1.4,3.9,2.8c0.2,0.4,0.4,0.7,0.5,1.1c0.8,2.4,0.1,5.4,1.1,7.8s3,4.6,5.9,4.8c3.4,0.2,5-3.1,5.7-5.9s1.6-6.7,0.5-9.7&#10;&#9;&#9;C426.4,222.8,421.8,221.5,418.5,221.4z"/>
	<path d="M423.1,232.9c-1.4-4.7-4.5-9.1-9-11.1h-0.2l-0.2,0.1l-0.8,0.2c5.2,1.9,8.5,7.1,9.8,12.3c1.7,6.7,1.1,14,1.1,20.8&#10;&#9;&#9;c0,0.2,0.2,0.4,0.4,0.4c0.2,0,0.4-0.2,0.4-0.4C424.6,247.9,425.2,240,423.1,232.9z"/>
	<path class="st11_data-storage-56" d="M440.9,218.5c-2.6-1.1-6.3-4.7-9.5-4.6c-1.1,3.1-1.7,6.3-1.9,9.5c-0.6,5.3-0.7,10.6-0.4,15.9&#10;&#9;&#9;c0.1,1.2,0.2,2.4,0.3,3.5c0,0.3,0.1,0.7,0.3,1V256c0,0.2,0.2,0.4,0.4,0.4c0.2,0,0.4-0.2,0.4-0.4v-11.8c1.3-0.4,2.5-1,3.6-1.7&#10;&#9;&#9;c2.3-1.5,4.1-3.7,5-6.3c2-5.6,0.8-11.9,2.7-17.5L440.9,218.5z"/>
	<path class="st11_data-storage-56" d="M449.6,218.4c0.2-0.1,0.3-0.2,0.5-0.4c0-0.1,0-0.2-0.1-0.3c-2.5-2.6-5.2-5.1-8.6-6.4&#10;&#9;&#9;c-2.5-0.9-5.1-1.2-7.7-0.8c-0.3,0.3-0.5,0.7-0.8,1c3-0.8,6.1-0.5,8.9,0.7c3,1.3,5.4,3.6,7.7,5.9&#10;&#9;&#9;C449.5,218.3,449.6,218.3,449.6,218.4z"/>
	<path class="st11_data-storage-56" d="M407.6,224c-3.7,1.9-5.9,5.9-5.6,10c0.3,7.4,12.5,0.2,15.7-6.1s3.7,2.7,3.7,2.7"/>
	<path class="st11_data-storage-56" d="M423.1,232.9c-1.4-4.7-4.5-9.1-9-11.1h-0.2l-0.2,0.1l-0.8,0.2c5.2,1.9,8.5,7.1,9.8,12.3&#10;&#9;&#9;c1.7,6.7,1.1,14,1.1,20.8c0,0.2,0.2,0.4,0.4,0.4c0.2,0,0.4-0.2,0.4-0.4C424.6,247.9,425.2,240,423.1,232.9z"/>
</g>
</svg>