<svg version="1.1" id="Layer_1" xmlns="http://www.w3.org/2000/svg" xmlns:xlink="http://www.w3.org/1999/xlink" x="0px" y="0px" viewBox="0 0 500 500" style="width: 166px;" xml:space="preserve" data-imageid="data-visualization-73" imageName="Data Visualization" class="illustrations_image">
<style type="text/css">
	.st0_data-visualization-73{fill:#F7F7F7;}
	.st1_data-visualization-73{fill:#093F68;}
	.st2_data-visualization-73{fill:#68E1FD;}
	.st3_data-visualization-73{fill:#DFEAEF;}
	.st4_data-visualization-73{fill:#FFBC0E;}
	.st5_data-visualization-73{fill:#70CC40;}
	.st6_data-visualization-73{fill:#F56132;}
</style>
<g id="screen_data-visualization-73">
	<path class="st0_data-visualization-73" d="M46.6,130.5H428l0,0V369c0,2.9-2.3,5.2-5.2,5.2h0h-371c-2.9,0-5.2-2.3-5.2-5.2l0,0L46.6,130.5L46.6,130.5z"/>
	<path class="st1_data-visualization-73" d="M418.3,376.1h-362c-6.4,0-11.5-5.2-11.5-11.5v-234c0-1,0.8-1.9,1.9-1.9l0,0H428c1,0,1.9,0.8,1.9,1.9v234&#10;&#9;&#9;C429.9,370.9,424.7,376.1,418.3,376.1z M48.5,132.4v232.2c0,4.3,3.5,7.8,7.8,7.8h362c4.3,0,7.8-3.5,7.8-7.8V132.4H48.5z"/>
	<path class="st2_data-visualization-73 targetColor" d="M51.8,104.3h371c2.9,0,5.2,2.3,5.2,5.2v0v22.8l0,0H46.6l0,0v-22.8C46.6,106.6,48.9,104.3,51.8,104.3&#10;&#9;&#9;C51.8,104.3,51.8,104.3,51.8,104.3z" style="fill: rgb(104, 225, 253);"/>
	<path class="st1_data-visualization-73" d="M428,134.1H46.6c-1,0-1.9-0.8-1.9-1.9l0,0V114c0-6.4,5.2-11.5,11.5-11.5h362c6.4,0,11.5,5.2,11.5,11.5v18.3&#10;&#9;&#9;C429.8,133.3,429,134.1,428,134.1z M48.5,130.4h377.6V114c0-4.3-3.5-7.8-7.8-7.8h-362c-4.3,0-7.8,3.5-7.8,7.8c0,0,0,0,0,0V130.4z"/>
	<circle class="st1_data-visualization-73" cx="68.6" cy="118.2" r="5.4"/>
	<circle class="st1_data-visualization-73" cx="87.6" cy="118.2" r="5.4"/>
	<circle class="st1_data-visualization-73" cx="106.7" cy="118.2" r="5.4"/>
	<path class="st3_data-visualization-73" d="M94.3,270.6H68.6c-1-0.1-1.8-1-1.7-2c0.1-0.9,0.8-1.7,1.7-1.7h25.7c1-0.1,1.9,0.7,2,1.7c0.1,1-0.7,1.9-1.7,2&#10;&#9;&#9;C94.5,270.6,94.4,270.6,94.3,270.6z"/>
	<path class="st3_data-visualization-73" d="M104.3,287H68.6c-1,0-1.9-0.8-1.9-1.9c0-1,0.8-1.9,1.9-1.9h35.7c1,0,1.9,0.8,1.9,1.9&#10;&#9;&#9;C106.1,286.2,105.3,287,104.3,287z"/>
	<path class="st3_data-visualization-73" d="M120,303.5H68.6c-1,0-1.9-0.8-1.9-1.9c0-1,0.8-1.9,1.9-1.9H120c1,0,1.9,0.8,1.9,1.9&#10;&#9;&#9;C121.9,302.6,121,303.5,120,303.5L120,303.5z"/>
	<path class="st3_data-visualization-73" d="M346,152.6H157.3c-1,0-1.9-0.8-1.9-1.9s0.8-1.9,1.9-1.9H346c1,0,1.9,0.8,1.9,1.9S347,152.6,346,152.6z"/>
	<path class="st3_data-visualization-73" d="M346,171.2H214.6c-1-0.1-1.8-1-1.7-2c0.1-0.9,0.8-1.7,1.7-1.7H346c1,0.1,1.8,1,1.7,2&#10;&#9;&#9;C347.7,170.4,346.9,171.1,346,171.2z"/>
	<path class="st3_data-visualization-73" d="M317.8,360.6H203.7c-1,0-1.9-0.8-1.9-1.9v-23.7c0-1,0.8-1.9,1.9-1.9h114.1c1,0,1.9,0.8,1.9,1.9v23.6&#10;&#9;&#9;C319.6,359.8,318.8,360.6,317.8,360.6L317.8,360.6z M205.5,356.9h110.4V337H205.5L205.5,356.9z"/>
	<path class="st3_data-visualization-73" d="M243.8,361c-1,0-1.9-0.8-1.9-1.9v-24c-0.1-1,0.7-1.9,1.7-2c1-0.1,1.9,0.7,2,1.7c0,0.1,0,0.2,0,0.3v24.1&#10;&#9;&#9;C245.7,360.2,244.8,361,243.8,361z"/>
	<path class="st3_data-visualization-73" d="M302.7,361c-1,0-1.9-0.8-1.9-1.8c0,0,0,0,0,0v-24c-0.1-1,0.7-1.9,1.7-2c1-0.1,1.9,0.7,2,1.7c0,0.1,0,0.2,0,0.3&#10;&#9;&#9;v24.1C304.5,360.2,303.7,361,302.7,361z"/>
</g>
<g id="visual_data-visualization-73">
	<path class="st0_data-visualization-73" d="M374.4,244.1c4.7,4.4,4.7,10.6,0,14.9c-19.4,17.8-73.4,61.5-137.1,61.5S119.6,276.8,100.2,259&#10;&#9;&#9;c-4.7-4.3-4.7-10.6,0-14.9c19.4-17.8,73.5-61.5,137.1-61.5S355,226.3,374.4,244.1z"/>
	<path class="st1_data-visualization-73" d="M237.3,322.4c-64,0-118.1-43.3-138.4-62c-4.9-4-5.6-11.2-1.5-16.1c0.5-0.6,1-1.1,1.5-1.5&#10;&#9;&#9;c20.3-18.6,74.4-62,138.4-62s118.1,43.4,138.4,62l0,0c4.9,4,5.6,11.3,1.5,16.1c-0.5,0.6-1,1.1-1.5,1.5&#10;&#9;&#9;C355.4,279,301.3,322.4,237.3,322.4z M237.3,184.5c-62.7,0-115.9,42.7-135.9,61c-3.4,2.7-3.9,7.5-1.3,10.9c0.4,0.5,0.8,0.9,1.3,1.3&#10;&#9;&#9;c20,18.3,73.2,61,135.9,61s115.9-42.7,135.9-61c3.4-2.7,3.9-7.5,1.3-10.9c-0.4-0.5-0.8-0.9-1.3-1.3l0,0&#10;&#9;&#9;C353.2,227.1,300,184.5,237.3,184.5z"/>
	<circle class="st2_data-visualization-73 targetColor" cx="237.3" cy="251.6" r="68.9" style="fill: rgb(104, 225, 253);"/>
	<path class="st1_data-visualization-73" d="M237.3,322.4c-39.1,0-70.8-31.7-70.8-70.8c0-39.1,31.7-70.8,70.8-70.8c39.1,0,70.8,31.7,70.8,70.8c0,0,0,0,0,0&#10;&#9;&#9;C308.1,290.6,276.4,322.3,237.3,322.4z M237.3,184.5c-37.1,0-67.1,30-67.1,67.1s30,67.1,67.1,67.1s67.1-30,67.1-67.1&#10;&#9;&#9;C304.4,214.5,274.3,184.5,237.3,184.5z"/>
	<circle class="st1_data-visualization-73" cx="237.3" cy="251.6" r="33.6"/>
	<path class="st1_data-visualization-73" d="M237.3,287c-19.6,0-35.5-15.9-35.5-35.5c0-19.6,15.9-35.5,35.5-35.5s35.5,15.9,35.5,35.5c0,0,0,0,0,0&#10;&#9;&#9;C272.8,271.1,256.9,287,237.3,287z M237.3,219.7c-17.6,0-31.8,14.2-31.8,31.8c0,17.6,14.2,31.8,31.8,31.8s31.8-14.2,31.8-31.8&#10;&#9;&#9;C269,234,254.8,219.8,237.3,219.7L237.3,219.7z"/>
	<circle class="st0_data-visualization-73" cx="258.5" cy="276.2" r="14.6"/>
	<path class="st1_data-visualization-73" d="M258.5,292.7c-9.1,0-16.5-7.4-16.5-16.5c0-9.1,7.4-16.5,16.5-16.5c9.1,0,16.5,7.4,16.5,16.5&#10;&#9;&#9;C275,285.3,267.6,292.7,258.5,292.7C258.5,292.7,258.5,292.7,258.5,292.7z M258.5,263.4c-7.1,0-12.8,5.7-12.8,12.8&#10;&#9;&#9;s5.7,12.8,12.8,12.8s12.8-5.7,12.8-12.8l0,0C271.2,269.1,265.5,263.4,258.5,263.4z"/>
</g>
<g id="chart_data-visualization-73">
	<circle class="st0_data-visualization-73" cx="415.2" cy="192.4" r="50.2"/>
	<path class="st1_data-visualization-73" d="M415.2,244.4c-28.7,0-52-23.3-52-52s23.3-52,52-52s52,23.3,52,52C467.1,221.1,443.9,244.4,415.2,244.4z&#10;&#9;&#9; M415.2,144.1c-26.7,0-48.3,21.6-48.3,48.3s21.6,48.3,48.3,48.3s48.3-21.6,48.3-48.3c0,0,0,0,0,0&#10;&#9;&#9;C463.4,165.8,441.8,144.2,415.2,144.1z"/>
	<path class="st4_data-visualization-73" d="M415.2,192.4h50.2c0,27.7-22.4,50.1-50.1,50.1c-27.7,0-50.1-22.4-50.1-50.1s22.4-50.1,50.1-50.1&#10;&#9;&#9;c6.9,0,13.6,1.4,19.9,4.1L415.2,192.4z"/>
	<path class="st1_data-visualization-73" d="M415.2,244.4c-28.7,0-52-23.4-51.9-52.1s23.4-52,52.1-51.9c7.1,0,14.1,1.5,20.5,4.3c0.5,0.2,0.8,0.5,1,1&#10;&#9;&#9;c0.2,0.5,0.2,1,0,1.4L418,190.6h47.3c1,0,1.9,0.8,1.9,1.9C467.2,221.1,443.9,244.4,415.2,244.4z M415.2,144.1&#10;&#9;&#9;c-26.7,0-48.3,21.6-48.3,48.3c0,26.7,21.6,48.3,48.3,48.3c26,0,47.3-20.5,48.3-46.4h-48.3c-1,0-1.9-0.8-1.9-1.9&#10;&#9;&#9;c0-0.2,0.1-0.5,0.1-0.7l19.2-44.3C427.1,145.2,421.2,144.1,415.2,144.1z"/>
</g>
<g id="graph-2_data-visualization-73">
	<rect x="67.5" y="321.8" class="st5_data-visualization-73" width="116" height="73.9"/>
	<path class="st1_data-visualization-73" d="M183.6,397.6h-116c-1,0-1.9-0.8-1.9-1.9v-73.9c0-1,0.8-1.8,1.8-1.8h116c1,0,1.9,0.8,1.9,1.9v73.9&#10;&#9;&#9;C185.4,396.8,184.6,397.6,183.6,397.6z M69.4,393.9h112.3v-70.2H69.4V393.9z"/>
	<path class="st1_data-visualization-73" d="M171.4,382.3H87.2c-1,0-1.9-0.8-1.9-1.8c0,0,0,0,0,0v-42.6c-0.1-1,0.7-1.9,1.7-2c1-0.1,1.9,0.7,2,1.7&#10;&#9;&#9;c0,0.1,0,0.2,0,0.3v40.7h82.3c1-0.1,1.9,0.7,2,1.7c0.1,1-0.7,1.9-1.7,2C171.5,382.3,171.5,382.3,171.4,382.3z"/>
	<rect x="101.8" y="360.6" class="st0_data-visualization-73" width="10.9" height="19.8"/>
	<path class="st1_data-visualization-73" d="M112.7,382.3h-10.9c-1,0-1.9-0.8-1.9-1.9v-19.8c0-1,0.8-1.9,1.9-1.9h10.9c1,0,1.9,0.8,1.9,1.9v19.8&#10;&#9;&#9;C114.6,381.5,113.7,382.3,112.7,382.3C112.7,382.3,112.7,382.3,112.7,382.3z M103.6,378.6h7.2v-16.1h-7.2V378.6z"/>
	<rect x="125.6" y="355" class="st0_data-visualization-73" width="10.9" height="25.5"/>
	<path class="st1_data-visualization-73" d="M136.5,382.3h-10.9c-1,0-1.9-0.8-1.9-1.9V355c0-1,0.8-1.9,1.9-1.9h10.9c1,0,1.9,0.8,1.9,1.9v25.5&#10;&#9;&#9;C138.3,381.5,137.5,382.3,136.5,382.3L136.5,382.3z M127.4,378.6h7.2v-21.8h-7.2V378.6z"/>
	<rect x="149.3" y="337.9" class="st0_data-visualization-73" width="10.9" height="42.6"/>
	<path class="st1_data-visualization-73" d="M160.3,382.3h-10.9c-1,0-1.9-0.8-1.9-1.9v-42.6c0-1,0.8-1.9,1.9-1.9h10.9c1,0,1.9,0.8,1.9,1.9v42.5&#10;&#9;&#9;C162.1,381.5,161.3,382.3,160.3,382.3C160.3,382.3,160.3,382.3,160.3,382.3z M151.2,378.6h7.2v-38.8h-7.2V378.6z"/>
</g>
<g id="graph-3_data-visualization-73">
	<rect x="338.4" y="295.7" class="st6_data-visualization-73" width="109" height="63"/>
	<path class="st1_data-visualization-73" d="M447.4,360.6h-109c-1,0-1.9-0.8-1.9-1.9v-63c0-1,0.8-1.9,1.8-1.9c0,0,0,0,0,0h109c1,0,1.9,0.8,1.9,1.8&#10;&#9;&#9;c0,0,0,0,0,0v63C449.3,359.8,448.4,360.6,447.4,360.6z M340.3,356.9h105.3v-59.3H340.3L340.3,356.9z"/>
	<path class="st1_data-visualization-73" d="M357.4,340.4c-1,0-1.9-0.8-1.9-1.9c0-0.6,0.2-1.1,0.7-1.4l27.4-22.8c0.7-0.5,1.6-0.5,2.3,0l22.5,17.3&#10;&#9;&#9;l23.5-19.2c0.8-0.6,2-0.5,2.6,0.4c0.6,0.8,0.5,1.9-0.3,2.5l-24.6,20.1c-0.7,0.5-1.6,0.5-2.3,0l-22.5-17.3l-26.2,21.9&#10;&#9;&#9;C358.3,340.2,357.8,340.4,357.4,340.4z"/>
	<circle class="st0_data-visualization-73" cx="357.4" cy="338.5" r="6.7"/>
	<path class="st1_data-visualization-73" d="M357.4,347.1c-4.7,0-8.6-3.8-8.6-8.6c0-4.7,3.8-8.6,8.6-8.6c4.7,0,8.6,3.8,8.6,8.6&#10;&#9;&#9;C366,343.2,362.1,347.1,357.4,347.1z M357.4,333.6c-2.7,0-4.9,2.2-4.9,4.9s2.2,4.9,4.9,4.9s4.9-2.2,4.9-4.9v0&#10;&#9;&#9;C362.3,335.8,360.1,333.6,357.4,333.6z"/>
	<circle class="st0_data-visualization-73" cx="384.8" cy="315.8" r="6.7"/>
	<path class="st1_data-visualization-73" d="M384.8,324.3c-4.7,0-8.6-3.8-8.6-8.6c0-4.7,3.8-8.6,8.6-8.6c4.7,0,8.6,3.8,8.6,8.6c0,0,0,0,0,0&#10;&#9;&#9;C393.4,320.5,389.5,324.3,384.8,324.3z M384.8,310.9c-2.7,0-4.9,2.2-4.9,4.9c0,2.7,2.2,4.9,4.9,4.9s4.9-2.2,4.9-4.8c0,0,0,0,0,0&#10;&#9;&#9;C389.6,313.1,387.5,310.9,384.8,310.9z"/>
	<circle class="st0_data-visualization-73" cx="408.5" cy="334" r="6.7"/>
	<path class="st1_data-visualization-73" d="M408.5,342.5c-4.7,0-8.6-3.8-8.6-8.6c0-4.7,3.8-8.6,8.6-8.6c4.7,0,8.6,3.8,8.6,8.6c0,0,0,0,0,0.1&#10;&#9;&#9;C417,338.7,413.2,342.5,408.5,342.5z M408.5,329.1c-2.7,0-4.9,2.2-4.9,4.9c0,2.7,2.2,4.9,4.9,4.9c2.7,0,4.9-2.2,4.9-4.9&#10;&#9;&#9;c0,0,0,0,0,0C413.3,331.3,411.1,329.1,408.5,329.1L408.5,329.1z"/>
	<circle class="st0_data-visualization-73" cx="433" cy="313.8" r="6.7"/>
	<path class="st1_data-visualization-73" d="M433,322.4c-4.7,0-8.6-3.8-8.6-8.6c0-4.7,3.8-8.6,8.6-8.6c4.7,0,8.6,3.8,8.6,8.6&#10;&#9;&#9;C441.6,318.5,437.8,322.3,433,322.4z M433,308.9c-2.7,0-4.9,2.2-4.9,4.9c0,2.7,2.2,4.9,4.9,4.9s4.9-2.2,4.9-4.8c0,0,0,0,0,0&#10;&#9;&#9;C437.9,311.1,435.7,308.9,433,308.9z"/>
</g>
<g id="graph-1_data-visualization-73">
	<path class="st0_data-visualization-73" d="M39.1,146.6h77.2c2.5,0,4.5,2,4.5,4.5v57.7c0,2.5-2,4.5-4.5,4.5H39.1c-2.5,0-4.5-2-4.5-4.5v-57.7&#10;&#9;&#9;C34.6,148.6,36.6,146.6,39.1,146.6z"/>
	<path class="st1_data-visualization-73" d="M112.4,215.1H43c-5.7,0-10.2-4.6-10.2-10.2V155c0-5.7,4.6-10.3,10.2-10.3c0,0,0,0,0,0h69.4&#10;&#9;&#9;c5.7,0,10.3,4.6,10.3,10.3c0,0,0,0,0,0v49.9C122.7,210.6,118.1,215.1,112.4,215.1z M43,148.4c-3.6,0-6.5,2.9-6.5,6.5c0,0,0,0,0,0&#10;&#9;&#9;v49.9c0,3.6,2.9,6.5,6.5,6.5h69.4c3.6,0,6.5-2.9,6.6-6.5V155c0-3.6-2.9-6.5-6.5-6.5L43,148.4z"/>
	<path class="st3_data-visualization-73" d="M108.5,202.9H47.7c-1,0-1.9-0.8-1.9-1.8c0,0,0,0,0,0v-40.5c-0.1-1,0.7-1.9,1.7-2c1-0.1,1.9,0.7,2,1.7&#10;&#9;&#9;c0,0.1,0,0.2,0,0.3v38.7h59c1-0.1,1.9,0.7,2,1.7c0.1,1-0.7,1.9-1.7,2C108.7,202.9,108.6,202.9,108.5,202.9L108.5,202.9z"/>
	<path class="st0_data-visualization-73" d="M53,192.4c3.5-7,7.2-14.7,13.5-19.2c3.3-2.3,7.4-3.6,11.1-2.2c4.9,1.8,8.8,7.4,14.6,5s10.2-8.2,12.3-13.9"/>
	<path class="st1_data-visualization-73" d="M53,194.3c-0.3,0-0.6-0.1-0.8-0.2c-0.9-0.5-1.3-1.6-0.8-2.5l0.5-1c3.5-7,7.2-14.3,13.6-18.9&#10;&#9;&#9;c4.2-3,8.9-3.9,12.8-2.4c1.8,0.7,3.4,1.6,5,2.8c3.3,2.2,5.4,3.4,8.3,2.2c5.4-2.3,9.6-8.1,11.3-12.8c0.3-1,1.4-1.5,2.3-1.2&#10;&#9;&#9;c1,0.3,1.5,1.4,1.2,2.3c0,0,0,0.1,0,0.1c-2.4,6.7-7.7,12.5-13.3,14.9c-4.8,2.1-8.5-0.4-11.8-2.6c-1.3-0.9-2.7-1.7-4.2-2.4&#10;&#9;&#9;c-2.8-1-6.3-0.3-9.4,2c-5.6,4-9.1,10.9-12.4,17.5l-0.5,1C54.4,193.9,53.7,194.3,53,194.3z"/>
</g>
</svg>