<svg version="1.1" id="Layer_1" xmlns="http://www.w3.org/2000/svg" xmlns:xlink="http://www.w3.org/1999/xlink" x="0px" y="0px" viewBox="0 0 500 500" style="width: 166px;" xml:space="preserve" data-imageid="data-center-2-35" imageName="Data Center 2" class="illustrations_image">
<style type="text/css">
	.st0_data-center-2-35{fill:#093F68;}
	.st1_data-center-2-35{fill:#68E1FD;}
	.st2_data-center-2-35{fill:#F56132;}
	.st3_data-center-2-35{fill:#FFBC0E;}
	.st4_data-center-2-35{fill:#FFC9B0;}
	.st5_data-center-2-35{fill:#FFFFFF;}
	.st6_data-center-2-35{fill:#DFEAEF;}
</style>
<g id="data_data-center-2-35">
	<rect x="148.9" y="136.7" class="st0_data-center-2-35" width="217.9" height="195.2"/>
	<path class="st0_data-center-2-35" d="M366.8,333.8H148.9c-1,0-1.9-0.8-1.9-1.9V136.7c0-1,0.8-1.9,1.9-1.9l0,0h217.9c1,0,1.9,0.8,1.9,1.9v195.2&#10;&#9;&#9;C368.7,333,367.9,333.8,366.8,333.8L366.8,333.8z M150.8,330.1H365V138.6H150.8L150.8,330.1z"/>
	<path class="st1_data-center-2-35 targetColor" d="M145.6,247.6h224.6c2.8,0,5,2.3,5,5v39.9c0,2.8-2.3,5-5,5H145.6c-2.8,0-5-2.3-5-5v-39.9&#10;&#9;&#9;C140.5,249.9,142.8,247.6,145.6,247.6z" style="fill: rgb(104, 225, 253);"/>
	<path class="st0_data-center-2-35" d="M365.9,299.5h-216c-6.2,0-11.2-5-11.2-11.2V257c0-6.2,5-11.2,11.2-11.2h216c6.2,0,11.2,5,11.2,11.2v31.3&#10;&#9;&#9;C377.1,294.5,372,299.5,365.9,299.5z M149.9,249.5c-4.1,0-7.5,3.4-7.5,7.5l0,0v31.3c0,4.1,3.4,7.5,7.5,7.5h216&#10;&#9;&#9;c4.1,0,7.5-3.4,7.5-7.5V257c0-4.1-3.4-7.5-7.5-7.5L149.9,249.5z"/>
	<circle class="st2_data-center-2-35" cx="341.7" cy="272.6" r="9"/>
	<path class="st0_data-center-2-35" d="M341.7,283.5c-6,0-10.9-4.8-10.9-10.8c0-6,4.8-10.9,10.8-10.9c6,0,10.9,4.8,10.9,10.8c0,0,0,0,0,0&#10;&#9;&#9;C352.5,278.6,347.7,283.4,341.7,283.5z M341.7,265.5c-3.9,0-7.1,3.2-7.1,7.1s3.2,7.1,7.1,7.1c3.9,0,7.1-3.2,7.1-7.1c0,0,0,0,0,0&#10;&#9;&#9;C348.8,268.7,345.6,265.5,341.7,265.5L341.7,265.5z"/>
	<path class="st1_data-center-2-35 targetColor" d="M145.6,193.3h224.6c2.8,0,5,2.3,5,5v39.9c0,2.8-2.3,5-5,5H145.6c-2.8,0-5-2.3-5-5v-39.9&#10;&#9;&#9;C140.5,195.5,142.8,193.3,145.6,193.3z" style="fill: rgb(104, 225, 253);"/>
	<path class="st0_data-center-2-35" d="M365.9,245.1h-216c-6.2,0-11.2-5-11.2-11.2v-31.3c0-6.2,5-11.2,11.2-11.2h216c6.2,0,11.2,5,11.2,11.2v31.3&#10;&#9;&#9;C377.1,240.1,372.1,245.1,365.9,245.1C365.9,245.1,365.9,245.1,365.9,245.1z M149.9,195.1c-4.1,0-7.5,3.4-7.5,7.5v31.3&#10;&#9;&#9;c0,4.1,3.4,7.5,7.5,7.5h216c4.1,0,7.5-3.4,7.5-7.5v-31.3c0-4.1-3.4-7.5-7.5-7.5H149.9z"/>
	<circle class="st3_data-center-2-35" cx="341.7" cy="218.3" r="9"/>
	<path class="st0_data-center-2-35" d="M341.7,229.1c-6,0-10.8-4.9-10.8-10.8s4.9-10.8,10.8-10.8c6,0,10.8,4.9,10.8,10.8l0,0&#10;&#9;&#9;C352.5,224.2,347.7,229.1,341.7,229.1z M341.7,211.1c-3.9,0-7.1,3.2-7.1,7.1s3.2,7.1,7.1,7.1c3.9,0,7.1-3.2,7.1-7.1c0,0,0,0,0,0&#10;&#9;&#9;C348.8,214.3,345.6,211.1,341.7,211.1L341.7,211.1z"/>
	<path class="st1_data-center-2-35 targetColor" d="M145.6,138.9h224.6c2.8,0,5,2.3,5,5v39.9c0,2.8-2.3,5-5,5H145.6c-2.8,0-5-2.3-5-5v-39.9&#10;&#9;&#9;C140.5,141.2,142.8,138.9,145.6,138.9z" style="fill: rgb(104, 225, 253);"/>
	<path class="st0_data-center-2-35" d="M365.9,190.8h-216c-6.2,0-11.2-5-11.2-11.2v-31.3c0-6.2,5-11.2,11.2-11.2h216c6.2,0,11.2,5,11.2,11.2v31.3&#10;&#9;&#9;C377.1,185.8,372.1,190.8,365.9,190.8C365.9,190.8,365.9,190.8,365.9,190.8z M149.9,140.8c-4.1,0-7.5,3.4-7.5,7.5l0,0v31.3&#10;&#9;&#9;c0,4.1,3.4,7.5,7.5,7.5h216c4.1,0,7.5-3.4,7.5-7.5v-31.3c0-4.1-3.4-7.5-7.5-7.5l0,0L149.9,140.8z"/>
	<circle class="st2_data-center-2-35" cx="341.7" cy="163.9" r="9"/>
	<path class="st0_data-center-2-35" d="M341.7,174.8c-6,0-10.8-4.9-10.8-10.8s4.9-10.8,10.8-10.8c6,0,10.8,4.9,10.8,10.8l0,0&#10;&#9;&#9;C352.5,169.9,347.7,174.7,341.7,174.8z M341.7,156.8c-3.9,0-7.1,3.2-7.1,7.1c0,3.9,3.2,7.1,7.1,7.1c3.9,0,7.1-3.2,7.1-7.1&#10;&#9;&#9;c0,0,0,0,0,0C348.8,160,345.6,156.8,341.7,156.8L341.7,156.8z"/>
	<path class="st1_data-center-2-35 targetColor" d="M145.6,84.6h224.6c2.8,0,5,2.3,5,5v39.9c0,2.8-2.3,5-5,5H145.6c-2.8,0-5-2.3-5-5V89.6&#10;&#9;&#9;C140.5,86.8,142.8,84.6,145.6,84.6z" style="fill: rgb(104, 225, 253);"/>
	<path class="st0_data-center-2-35" d="M365.9,136.4h-216c-6.2,0-11.2-5-11.2-11.2V93.9c0-6.2,5-11.2,11.2-11.2h216c6.2,0,11.2,5,11.2,11.2v31.3&#10;&#9;&#9;C377.1,131.4,372.1,136.4,365.9,136.4C365.9,136.4,365.9,136.4,365.9,136.4z M149.9,86.4c-4.1,0-7.5,3.4-7.5,7.5l0,0v31.3&#10;&#9;&#9;c0,4.1,3.4,7.5,7.5,7.5h216c4.1,0,7.5-3.4,7.5-7.5V93.9c0-4.1-3.4-7.5-7.5-7.5l0,0L149.9,86.4z"/>
	<circle class="st3_data-center-2-35" cx="341.7" cy="109.6" r="9"/>
	<path class="st0_data-center-2-35" d="M341.7,120.4c-6,0-10.9-4.8-10.9-10.8c0-6,4.8-10.9,10.8-10.9c6,0,10.9,4.8,10.9,10.8c0,0,0,0,0,0&#10;&#9;&#9;C352.5,115.5,347.7,120.4,341.7,120.4z M341.7,102.4c-3.9,0-7.1,3.2-7.1,7.1s3.2,7.1,7.1,7.1c3.9,0,7.1-3.2,7.1-7.1c0,0,0,0,0,0&#10;&#9;&#9;C348.8,105.6,345.6,102.4,341.7,102.4L341.7,102.4z"/>
	<path class="st0_data-center-2-35" d="M163.7,265.5h108.8c1.2,0,2.1,0.9,2.1,2.1v9.9c0,1.2-0.9,2.1-2.1,2.1H163.7c-1.2,0-2.1-0.9-2.1-2.1v-9.9&#10;&#9;&#9;C161.6,266.5,162.5,265.5,163.7,265.5z"/>
	<path class="st0_data-center-2-35" d="M270.7,281.6H165.5c-3.2,0-5.8-2.6-5.8-5.8v-6.3c0-3.2,2.6-5.8,5.8-5.8h105.1c3.2,0,5.8,2.6,5.8,5.8v6.3&#10;&#9;&#9;C276.5,279,273.9,281.6,270.7,281.6z M165.5,267.4c-1.1,0-2.1,0.9-2.1,2.1v6.3c0,1.1,0.9,2.1,2.1,2.1h0h105.1&#10;&#9;&#9;c1.1,0,2.1-0.9,2.1-2.1v-6.3c0-1.1-0.9-2.1-2.1-2.1H165.5z"/>
	<path class="st0_data-center-2-35" d="M163.7,211.2h108.8c1.2,0,2.1,0.9,2.1,2.1v9.9c0,1.2-0.9,2.1-2.1,2.1H163.7c-1.2,0-2.1-0.9-2.1-2.1v-9.9&#10;&#9;&#9;C161.6,212.1,162.5,211.2,163.7,211.2z"/>
	<path class="st0_data-center-2-35" d="M270.7,227.2H165.5c-3.2,0-5.8-2.6-5.8-5.8v-6.3c0-3.2,2.6-5.8,5.8-5.8h105.1c3.2,0,5.8,2.6,5.8,5.8v6.3&#10;&#9;&#9;C276.5,224.6,273.9,227.2,270.7,227.2z M165.5,213c-1.1,0-2.1,0.9-2.1,2.1v6.3c0,1.1,0.9,2.1,2.1,2.1h105.1c1.1,0,2.1-0.9,2.1-2.1&#10;&#9;&#9;v-6.3c0-1.1-0.9-2.1-2.1-2.1H165.5z"/>
	<path class="st0_data-center-2-35" d="M163.7,156.8h108.8c1.2,0,2.1,0.9,2.1,2.1v9.9c0,1.2-0.9,2.1-2.1,2.1H163.7c-1.2,0-2.1-0.9-2.1-2.1v-9.9&#10;&#9;&#9;C161.6,157.8,162.5,156.8,163.7,156.8z"/>
	<path class="st0_data-center-2-35" d="M270.7,172.9H165.5c-3.2,0-5.8-2.6-5.8-5.8v-6.3c0-3.2,2.6-5.8,5.8-5.8h105.1c3.2,0,5.8,2.6,5.8,5.8v6.3&#10;&#9;&#9;C276.5,170.3,273.9,172.9,270.7,172.9z M165.5,158.7c-1.1,0-2.1,0.9-2.1,2.1v6.3c0,1.1,0.9,2.1,2.1,2.1h105.1&#10;&#9;&#9;c1.1,0,2.1-0.9,2.1-2.1v-6.3c0-1.1-0.9-2.1-2.1-2.1H165.5z"/>
	<path class="st0_data-center-2-35" d="M163.7,102.5h108.8c1.2,0,2.1,0.9,2.1,2.1v9.9c0,1.2-0.9,2.1-2.1,2.1H163.7c-1.2,0-2.1-0.9-2.1-2.1v-9.9&#10;&#9;&#9;C161.6,103.4,162.5,102.5,163.7,102.5z"/>
	<path class="st0_data-center-2-35" d="M270.7,118.5H165.5c-3.2,0-5.8-2.6-5.8-5.8v-6.3c0-3.2,2.6-5.8,5.8-5.8h105.1c3.2,0,5.8,2.6,5.8,5.8v6.3&#10;&#9;&#9;C276.5,115.9,273.9,118.5,270.7,118.5z M165.5,104.3c-1.1,0-2.1,0.9-2.1,2.1v6.3c0,1.1,0.9,2.1,2.1,2.1h105.1&#10;&#9;&#9;c1.1,0,2.1-0.9,2.1-2.1v-6.3c0-1.1-0.9-2.1-2.1-2.1H165.5z"/>
</g>
<g id="hand_data-center-2-35">
	<path class="st4_data-center-2-35" d="M111,366.6c0,0,28.5-57.6,50.8-72.1c7.7-5,121-9.5,130.2-0.3s7.7,22.9-15.4,27.5s-39.5,4.6-39.5,4.6&#10;&#9;&#9;s48.7,4.1,61.5,0s81-39.4,86.7-34.7s16.6,19.1-3.4,31.6s-59.2,41.7-72,45.3s-109.8,37.9-109.8,37.9L111,366.6z"/>
	<path class="st0_data-center-2-35" d="M200.3,408.2c-0.3,0-0.5-0.1-0.8-0.2l-89.2-39.7c-0.5-0.2-0.8-0.6-1-1.1c-0.2-0.5-0.1-1,0.1-1.5&#10;&#9;&#9;c1.2-2.4,29-58.2,51.5-72.8c5.2-3.4,42.9-5.3,65.5-5.8s61-0.3,67,5.7c5,5,6.9,10.9,5.3,16.3c-2.1,6.9-9.7,12-21.6,14.3&#10;&#9;&#9;c-5.1,1-10,1.8-14.4,2.5c13.8,0.5,29.2,0.6,35.5-1.4c4.2-1.3,14.7-6.2,26.9-11.9c40.1-18.6,57.5-25.8,61.5-22.5&#10;&#9;&#9;c4.3,3.5,9.2,10.3,8.8,17.7c-0.4,6.4-4.6,12.1-12.4,17c-6.3,4-14.6,9.6-23.4,15.6c-19.7,13.5-40,27.4-49.1,29.9&#10;&#9;&#9;c-12.6,3.5-108.7,37.5-109.7,37.8C200.6,408.2,200.4,408.2,200.3,408.2z M113.6,365.7l86.7,38.6c9.5-3.3,96.9-34.2,109.2-37.7&#10;&#9;&#9;c8.5-2.4,29.5-16.7,48-29.4c8.8-6,17.1-11.7,23.5-15.7c6.7-4.2,10.3-8.9,10.6-14.1c0.4-6-3.8-11.6-7.4-14.5&#10;&#9;&#9;c-4.2-1.7-38.9,14.4-57.6,23c-12.3,5.7-22.9,10.6-27.3,12c-13,4.2-60.2,0.2-62.3,0.1c-1-0.1-1.8-1-1.7-2c0.1-0.9,0.9-1.7,1.8-1.7&#10;&#9;&#9;c13.1-0.4,26.2-1.9,39.1-4.6c10.4-2.1,17.1-6.3,18.8-11.8c1.2-4-0.4-8.6-4.3-12.6c-7.9-7.9-120.1-4.6-127.9,0.5&#10;&#9;&#9;C143.4,308.8,118.5,356.1,113.6,365.7z"/>
	<polygon class="st5_data-center-2-35" points="217.8,415.4 223.4,402.2 107.6,356.2 70.6,415.4 &#9;"/>
	<path class="st0_data-center-2-35" d="M217.8,417.3H70.6c-0.7,0-1.3-0.4-1.6-1c-0.3-0.6-0.3-1.3,0-1.9l37-59.2c0.5-0.8,1.4-1.1,2.3-0.8l115.9,46&#10;&#9;&#9;c0.5,0.2,0.8,0.5,1,1c0.2,0.5,0.2,1,0,1.4l-5.6,13.2C219.2,416.8,218.5,417.3,217.8,417.3z M73.9,413.6h142.6l4.4-10.3l-112.7-44.7&#10;&#9;&#9;L73.9,413.6z"/>
</g>
<g id="lines_data-center-2-35">
	<path class="st6_data-center-2-35" d="M68.6,197.1c-1,0-1.9-0.8-1.9-1.9l0,0V185c0-1,0.8-1.9,1.9-1.9s1.9,0.8,1.9,1.9v10.2&#10;&#9;&#9;C70.5,196.3,69.6,197.1,68.6,197.1C68.6,197.1,68.6,197.1,68.6,197.1z"/>
	<path class="st6_data-center-2-35" d="M68.6,217.6c-1,0-1.9-0.8-1.9-1.9l0,0v-10.2c0-1,0.8-1.9,1.9-1.9s1.9,0.8,1.9,1.9v10.2&#10;&#9;&#9;C70.5,216.7,69.6,217.6,68.6,217.6L68.6,217.6z"/>
	<path class="st6_data-center-2-35" d="M84,202.2H73.7c-1,0-1.9-0.8-1.9-1.9s0.8-1.9,1.9-1.9H84c1,0,1.9,0.8,1.9,1.9S85,202.2,84,202.2z"/>
	<path class="st6_data-center-2-35" d="M63.5,202.2H53.3c-1,0-1.9-0.8-1.9-1.9s0.8-1.9,1.9-1.9h10.2c1,0,1.9,0.8,1.9,1.9S64.5,202.2,63.5,202.2z"/>
	<path class="st6_data-center-2-35" d="M417.2,224c-1,0-1.9-0.8-1.9-1.9v-10.2c0-1,0.8-1.9,1.9-1.9c1,0,1.9,0.8,1.9,1.9v10.2&#10;&#9;&#9;C419.1,223.2,418.2,224,417.2,224C417.2,224,417.2,224,417.2,224z"/>
	<path class="st6_data-center-2-35" d="M417.2,244.4c-1,0-1.9-0.8-1.9-1.9v-10.2c0-1,0.8-1.9,1.9-1.9c1,0,1.9,0.8,1.9,1.9v10.2&#10;&#9;&#9;C419.1,243.6,418.2,244.4,417.2,244.4C417.2,244.4,417.2,244.4,417.2,244.4z"/>
	<path class="st6_data-center-2-35" d="M432.5,229.1h-10.2c-1-0.1-1.8-1-1.7-2c0.1-0.9,0.8-1.7,1.7-1.7h10.2c1,0.1,1.8,1,1.7,2&#10;&#9;&#9;C434.2,228.3,433.5,229,432.5,229.1z"/>
	<path class="st6_data-center-2-35" d="M412.1,229.1h-10.2c-1,0.1-1.9-0.7-2-1.7c-0.1-1,0.7-1.9,1.7-2c0.1,0,0.2,0,0.3,0h10.2c1-0.1,1.9,0.7,2,1.7&#10;&#9;&#9;c0.1,1-0.7,1.9-1.7,2C412.3,229.1,412.2,229.1,412.1,229.1z"/>
	<path class="st6_data-center-2-35" d="M434.5,171.5c-1,0-1.9-0.8-1.9-1.8c0,0,0,0,0,0v-24.4c0.1-1,1-1.8,2-1.7c0.9,0.1,1.7,0.8,1.7,1.7v24.4&#10;&#9;&#9;C436.4,170.6,435.5,171.5,434.5,171.5z"/>
	<path class="st6_data-center-2-35" d="M446.7,159.3h-24.4c-1-0.1-1.8-1-1.7-2c0.1-0.9,0.8-1.7,1.7-1.7h24.4c1-0.1,1.9,0.7,2,1.7c0.1,1-0.7,1.9-1.7,2&#10;&#9;&#9;C446.9,159.3,446.8,159.3,446.7,159.3z"/>
	<path class="st6_data-center-2-35" d="M106.3,121c-1,0-1.9-0.8-1.9-1.9l0,0V100c0-1,0.8-1.9,1.9-1.9s1.9,0.8,1.9,1.9v19.1&#10;&#9;&#9;C108.2,120.1,107.4,121,106.3,121C106.3,121,106.3,121,106.3,121z"/>
	<path class="st6_data-center-2-35" d="M115.8,111.4H96.7c-1,0.1-1.9-0.7-2-1.7s0.7-1.9,1.7-2c0.1,0,0.2,0,0.3,0h19.1c1-0.1,1.9,0.7,2,1.7&#10;&#9;&#9;s-0.7,1.9-1.7,2C116,111.4,115.9,111.4,115.8,111.4z"/>
	<path class="st6_data-center-2-35" d="M115.8,268.5c-1,0-1.9-0.8-1.9-1.8c0,0,0,0,0,0v-19.1c-0.1-1,0.7-1.9,1.7-2c1-0.1,1.9,0.7,2,1.7&#10;&#9;&#9;c0,0.1,0,0.2,0,0.3v19.1C117.7,267.7,116.8,268.5,115.8,268.5z"/>
	<path class="st6_data-center-2-35" d="M125.3,259h-19.1c-1,0.1-1.9-0.7-2-1.7c-0.1-1,0.7-1.9,1.7-2c0.1,0,0.2,0,0.3,0h19.1c1-0.1,1.9,0.7,2,1.7&#10;&#9;&#9;c0.1,1-0.7,1.9-1.7,2C125.5,259,125.4,259,125.3,259z"/>
</g>
</svg>