<svg version="1.1" id="Layer_1" xmlns="http://www.w3.org/2000/svg" xmlns:xlink="http://www.w3.org/1999/xlink" x="0px" y="0px" viewBox="0 0 500 500" style="width: 166px;" xml:space="preserve" data-imageid="data-storage-1-64" imageName="Data Storage 1" class="illustrations_image">
<style type="text/css">
	.st0_data-storage-1-64{fill:#FF6161;}
	.st1_data-storage-1-64{fill:url(#SVGID_1_);}
	.st2_data-storage-1-64{fill:url(#SVGID_00000107573012137817342720000018356216231980663720_);}
	.st3_data-storage-1-64{fill:url(#SVGID_00000109740541367780713210000018190645484308304768_);}
	.st4_data-storage-1-64{fill:#68E1FD;}
	.st5_data-storage-1-64{fill:#3129A3;}
	.st6_data-storage-1-64{fill:#6565C4;}
	.st7_data-storage-1-64{fill:#A7A7A7;}
	.st8_data-storage-1-64{fill:#FFFFFF;}
	.st9_data-storage-1-64{opacity:0.2;fill:#A7A7A7;enable-background:new    ;}
	.st10_data-storage-1-64{opacity:0.5;fill:#A7A7A7;enable-background:new    ;}
	.st11_data-storage-1-64{fill:#595958;}
	.st12_data-storage-1-64{opacity:0.28;fill:#3129A3;enable-background:new    ;}
	.st13_data-storage-1-64{opacity:0.21;fill:#595958;enable-background:new    ;}
	.st14_data-storage-1-64{opacity:0.44;fill:#FFFFFF;enable-background:new    ;}
	.st15_data-storage-1-64{fill:#FFC36C;}
	.st16_data-storage-1-64{opacity:0.2;fill:#3129A3;enable-background:new    ;}
	.st17_data-storage-1-64{fill:#FFAC99;}
</style>
<g id="background_data-storage-1-64">
	<path class="st0_data-storage-1-64" d="M241.8,395.4l-226-133.6c-7.2-4-13.4-10.7-6.4-15l226.8-130.7c3.4-2.1,8.6-3.5,12-1.5l237.3,137.7&#10;&#9;&#9;c7.2,4.2,8.5,15.8,1.3,20L271.6,395.2C262.4,400.5,251.1,400.6,241.8,395.4z"/>
	
		<linearGradient id="SVGID_1_-data-storage-1-64" gradientUnits="userSpaceOnUse" x1="280.7213" y1="124.9281" x2="265.8413" y2="145.8181" gradientTransform="matrix(1 0 0 -1 0 502)">
		<stop offset="0" style="stop-color:#FF6161"/>
		<stop offset="1" style="stop-color:#9E005D"/>
	</linearGradient>
	<path class="st1_data-storage-1-64" d="M273.2,392.5l46.8-25.6l-52.8-31.6L223.4,362C239.1,373.2,273.2,392.5,273.2,392.5z"/>
	
		<linearGradient id="SVGID_00000091017287468978848130000011381715108908319121_-data-storage-1-64" gradientUnits="userSpaceOnUse" x1="303.3381" y1="182.6887" x2="272.4481" y2="228.2587" gradientTransform="matrix(1 0 0 -1 0 502)">
		<stop offset="0" style="stop-color:#FF6161"/>
		<stop offset="1" style="stop-color:#9E005D"/>
	</linearGradient>
	<polyline style="fill:url(#SVGID_00000091017287468978848130000011381715108908319121_);" points="193,323 248,358.5 393.4,285.7 &#10;&#9;&#9;328.4,246.8 &#9;"/>
	
		<linearGradient id="SVGID_00000031908969364645605010000017582675597071241910_-data-storage-1-64" gradientUnits="userSpaceOnUse" x1="467.212" y1="225.6114" x2="459.902" y2="235.8714" gradientTransform="matrix(1 0 0 -1 0 502)">
		<stop offset="0" style="stop-color:#FF6161"/>
		<stop offset="1" style="stop-color:#9E005D"/>
	</linearGradient>
	<path style="fill:url(#SVGID_00000031908969364645605010000017582675597071241910_);" d="M463.4,283.1l22.4-11.2l-25.2-15.1&#10;&#9;&#9;l-20.9,11.8C447,273.7,463.4,283.1,463.4,283.1z"/>
</g>
<g id="data_storage_data-storage-1-64">
	<path class="st4_data-storage-1-64 targetColor" d="M282.8,337.9l-4.3-6.2l81.5-55.8c1.8-1.2,3.5-2.4,5.3-3.5c12.3-8.1,23-15.2,23.9-30.1&#10;&#9;&#9;c0.8-14.1-10.3-23.6-17-28.1c-28.4-18.8-60.4,6.8-60.7,7.1l-4.8-5.8c0.4-0.3,36.6-29.3,69.6-7.5c13.9,9.2,21.1,21.5,20.4,34.8&#10;&#9;&#9;c-1.1,18.7-14.4,27.5-27.3,35.9c-1.7,1.1-3.5,2.3-5.2,3.4L282.8,337.9z" style="fill: rgb(104, 225, 253);"/>
	<path class="st5_data-storage-1-64" d="M230.8,341.5V355l29,14.9l27.3-15.1c0,0,9-17.2-3.7-25.4"/>
	<path class="st6_data-storage-1-64" d="M230.8,341.5l30.1,16.8l27-15c0,0,4.5-8.7-7.2-15.8s-24.3-1.3-24.3-1.3L230.8,341.5z"/>
	<polygon class="st7_data-storage-1-64" points="223.4,354.2 223.4,362 243.7,373.6 243.7,365.7 &#9;"/>
	<polygon class="st8_data-storage-1-64" points="223.4,354.2 243.6,365.7 256.4,358.5 236.2,346.8 &#9;"/>
	<polygon class="st9_data-storage-1-64" points="223.4,354.2 243.6,365.7 256.4,358.5 236.2,346.8 &#9;"/>
	<path class="st8_data-storage-1-64" d="M256.4,358.5v8.2c0,0-12.7,7.3-12.7,6.9v-7.9L256.4,358.5z"/>
	<path class="st10_data-storage-1-64" d="M256.4,358.5v8.2c0,0-12.7,7.3-12.7,6.9v-7.9L256.4,358.5z"/>
	<polygon class="st11_data-storage-1-64" points="225.2,357.3 225.2,361.7 241.6,371.2 241.6,366.6 &#9;"/>
	<path class="st4_data-storage-1-64 targetColor" d="M342.1,252L342.1,252L342.1,252v-18.8l-14.7,8.2l-65.5-37.6c-3.5-2-7.8-2-11.2,0l-110.6,63.8l-18.2-5.5v19.2&#10;&#9;&#9;l0,0c0.1,1.6,1,3,2.5,3.8l80.4,44.6c2.9,1.6,6.4,1.6,9.2-0.1l126.3-74.5C341.4,254.4,342.1,253.3,342.1,252L342.1,252z" style="fill: rgb(104, 225, 253);"/>
	<path class="st12_data-storage-1-64" d="M342.1,252L342.1,252L342.1,252v-18.8l-14.7,8.2l-65.5-37.6c-3.5-2-7.8-2-11.2,0l-110.6,63.8l-18.2-5.5v19.2&#10;&#9;&#9;l0,0c0.1,1.6,1,3,2.5,3.8l80.4,44.6c2.9,1.6,6.4,1.6,9.2-0.1l126.3-74.5C341.4,254.4,342.1,253.3,342.1,252L342.1,252z"/>
	<path class="st4_data-storage-1-64 targetColor" d="M124.4,267.1l80.4,44.6c2.9,1.6,6.4,1.6,9.2-0.1l126.3-74.5c1.8-1,2.3-3.3,1.3-5c-0.3-0.5-0.8-1-1.3-1.3&#10;&#9;&#9;l-78.4-45c-3.5-2-7.8-2-11.2,0l-126.3,72.9c-2.3,1.3-3.2,4.3-1.8,6.6C123,266,123.6,266.6,124.4,267.1z" style="fill: rgb(104, 225, 253);"/>
	
		<ellipse transform="matrix(0.8001 -0.5999 0.5999 0.8001 -141.6864 137.39)" class="st8_data-storage-1-64" cx="135.3" cy="281.3" rx="2.8" ry="3.4"/>
	<path class="st8_data-storage-1-64" d="M143.5,288.2l15.4,8.9c0.8,0.4,1.7,0.2,2.1-0.6c0.4-0.8,0.2-1.7-0.6-2.1l0,0l-15.4-8.9&#10;&#9;&#9;c-0.8-0.4-1.7-0.1-2.1,0.7C142.6,286.9,142.8,287.7,143.5,288.2z"/>
	<path class="st4_data-storage-1-64 targetColor" d="M342.2,226.1L342.2,226.1L342.2,226.1v-18.8l-14.7,8.2L262,177.9c-3.5-2-7.8-2-11.2,0l-110.5,63.8l-18.2-5.5&#10;&#9;&#9;v19.2l0,0c0.1,1.6,1.1,3,2.5,3.8l80.4,44.6c2.9,1.6,6.4,1.6,9.2-0.1l126.3-74.5C341.5,228.5,342.2,227.4,342.2,226.1L342.2,226.1z" style="fill: rgb(104, 225, 253);"/>
	<path class="st12_data-storage-1-64" d="M342.2,226.1L342.2,226.1L342.2,226.1v-18.8l-14.7,8.2L262,177.9c-3.5-2-7.8-2-11.2,0l-110.5,63.8l-18.2-5.5&#10;&#9;&#9;v19.2l0,0c0.1,1.6,1.1,3,2.5,3.8l80.4,44.6c2.9,1.6,6.4,1.6,9.2-0.1l126.3-74.5C341.5,228.5,342.2,227.4,342.2,226.1L342.2,226.1z"/>
	<path class="st4_data-storage-1-64 targetColor" d="M124.6,240l80.4,44.6c2.9,1.6,6.4,1.6,9.2-0.1L340.5,210c1.7-1,2.3-3.3,1.3-5c-0.3-0.6-0.8-1-1.3-1.3l-78.4-45&#10;&#9;&#9;c-3.5-2-7.8-2-11.2,0l-126.3,72.9c-2.3,1.3-3.2,4.3-1.8,6.6C123.1,238.9,123.8,239.6,124.6,240z" style="fill: rgb(104, 225, 253);"/>
	
		<ellipse transform="matrix(0.8001 -0.5999 0.5999 0.8001 -126.1437 132.3063)" class="st8_data-storage-1-64" cx="135.4" cy="255.4" rx="2.8" ry="3.4"/>
	<path class="st8_data-storage-1-64" d="M143.6,262.3l15.4,8.9c0.7,0.4,1.7,0.2,2.1-0.6s0.2-1.7-0.6-2.1l-15.4-8.9c-0.7-0.4-1.7-0.2-2.1,0.6&#10;&#9;&#9;S142.8,261.9,143.6,262.3L143.6,262.3L143.6,262.3z"/>
	<path class="st4_data-storage-1-64 targetColor" d="M342.2,199.2L342.2,199.2L342.2,199.2v-18.8l-14.7,8.2L262,150.9c-3.5-2-7.8-2-11.2,0l-110.5,63.8l-18.2-5.5&#10;&#9;&#9;v19.2l0,0c0.1,1.6,1.1,3,2.5,3.8l80.4,44.6c2.9,1.6,6.4,1.6,9.2-0.1l126.3-74.5C341.5,201.6,342.2,200.4,342.2,199.2L342.2,199.2z" style="fill: rgb(104, 225, 253);"/>
	<path class="st12_data-storage-1-64" d="M342.2,199.2L342.2,199.2L342.2,199.2v-18.8l-14.7,8.2L262,150.9c-3.5-2-7.8-2-11.2,0l-110.5,63.8l-18.2-5.5&#10;&#9;&#9;v19.2l0,0c0.1,1.6,1.1,3,2.5,3.8l80.4,44.6c2.9,1.6,6.4,1.6,9.2-0.1l126.3-74.5C341.5,201.6,342.2,200.4,342.2,199.2L342.2,199.2z"/>
	<path class="st4_data-storage-1-64 targetColor" d="M124.6,214.3l80.4,44.6c2.9,1.6,6.4,1.6,9.2-0.1l126.3-74.5c1.7-1,2.3-3.3,1.3-5c-0.3-0.6-0.8-1-1.3-1.3&#10;&#9;&#9;l-78.4-45c-3.5-2-7.8-2-11.2,0l-126.3,72.9c-2.3,1.3-3.2,4.3-1.8,6.6C123.1,213.2,123.8,213.8,124.6,214.3z" style="fill: rgb(104, 225, 253);"/>
	
		<ellipse transform="matrix(0.8001 -0.5999 0.5999 0.8001 -109.9842 126.9252)" class="st8_data-storage-1-64" cx="135.5" cy="228.5" rx="2.8" ry="3.4"/>
	<path class="st8_data-storage-1-64" d="M143.6,235.4l15.4,8.9c0.8,0.4,1.7,0.1,2.1-0.7c0.3-0.7,0.1-1.5-0.5-2l-15.4-8.9c-0.7-0.4-1.7-0.2-2.1,0.6&#10;&#9;&#9;C142.6,234,142.8,235,143.6,235.4L143.6,235.4z"/>
	<polyline class="st4_data-storage-1-64 targetColor" points="426,232.2 426.1,261.6 451.8,276 470.5,265.2 470.5,236 &#9;" style="fill: rgb(104, 225, 253);"/>
	<polygon class="st13_data-storage-1-64" points="451.8,276 451.8,246.8 470.5,236 470.5,265.2 &#9;"/>
	<polygon class="st13_data-storage-1-64" points="429.8,238.5 429.8,244.8 447.6,255 447.6,248.8 &#9;"/>
	<polygon class="st13_data-storage-1-64" points="429.8,246 429.8,252.4 447.6,262.6 447.6,256.3 &#9;"/>
	
		<ellipse transform="matrix(0.9955 -9.497707e-02 9.497707e-02 0.9955 -21.7246 43.3017)" class="st8_data-storage-1-64" cx="444" cy="249.9" rx="0.8" ry="1.1"/>
	
		<ellipse transform="matrix(0.9955 -9.497707e-02 9.497707e-02 0.9955 -22.4433 43.2815)" class="st8_data-storage-1-64" cx="443.5" cy="257.4" rx="0.8" ry="1.1"/>
	<polygon class="st13_data-storage-1-64" points="429.8,253.4 429.8,259.7 447.6,269.9 447.6,263.7 &#9;"/>
	
		<ellipse transform="matrix(0.9955 -9.497707e-02 9.497707e-02 0.9955 -23.1401 43.3144)" class="st8_data-storage-1-64" cx="443.5" cy="264.7" rx="0.8" ry="1.1"/>
	<polygon class="st4_data-storage-1-64 targetColor" points="451.8,246.8 426,232.2 444.9,221.1 470.5,235.9 &#9;" style="fill: rgb(104, 225, 253);"/>
	<polygon class="st14_data-storage-1-64" points="451.8,246.8 426,232.2 444.9,221.1 470.5,235.9 &#9;"/>
</g>
<g id="character_data-storage-1-64">
	<path class="st5_data-storage-1-64" d="M241.3,147.8c-0.8,0.4-7.6,12.5-2,15.4s14.6-0.5,14.1-3.5s3.1-5.9-1.6-13"/>
	<path class="st5_data-storage-1-64" d="M287.3,260.9c0,0,2.3,4.4,4.1,5.5s10.9-0.1,10.9,2s-11.1,5.1-15,5.6c0,0-2.3-0.8-4.5-4.2s-5.7-11.8-5.7-11.8"/>
	<path class="st5_data-storage-1-64" d="M296.7,254.1c0,0,2.3,4.4,4,5.5s10.9-0.1,10.9,2s-11.1,5.1-15,5.6c0,0-2.3-0.8-4.6-4.2s-5.7-11.8-5.7-11.8"/>
	<path class="st15_data-storage-1-64" d="M257.9,168.6c0,0,12.1,17,15.1,19.1c0,0-8.8,3.2-8.9,10c0,0-10.6-5.8-13-9.1S257.9,168.6,257.9,168.6z"/>
	<path class="st0_data-storage-1-64" d="M271.9,230.5c2.7,6.6,5.3,13.3,8.1,19.9C276.7,244.6,272.8,236.8,271.9,230.5z"/>
	<path class="st0_data-storage-1-64" d="M244,187.5c3.5-2,10.7-12.3,10.8,0.7c0,0,26.2,12.6,29.1,25.5c2.1,9.1,12.2,29.6,16.8,41.6&#10;&#9;&#9;c-4,2.9-8.5,4.8-13.4,5.7c-5.1-11-9.6-22.3-14.1-33.6c-0.2-0.6-0.8-0.9-1.4-0.8c0-0.3,0.1-0.6,0.1-0.8c0,0-19-1.1-27-9.7&#10;&#9;&#9;C240.1,211,240.5,189.5,244,187.5z"/>
	<path class="st16_data-storage-1-64" d="M244,187.5c3.5-2,10.7-12.3,10.8,0.7c0,0,26.2,12.6,29.1,25.5c2.1,9.1,12.2,29.6,16.8,41.6&#10;&#9;&#9;c-4,2.9-8.5,4.8-13.4,5.7c-5.1-11-9.6-22.3-14.1-33.6c-0.2-0.6-0.8-0.9-1.4-0.8c0-0.3,0.1-0.6,0.1-0.8c0,0-19-1.1-27-9.7&#10;&#9;&#9;C240.1,211,240.5,189.5,244,187.5z"/>
	<path class="st0_data-storage-1-64" d="M234.6,190.7c3.5-2,15-10.7,15.1,2.3c0,0,18.3,9.8,21.3,22.7c2.5,10.9,17.6,38.2,19.5,47&#10;&#9;&#9;c-3.7,1.7-6,3.5-10,3.7c-3.8-4.9-18.8-22.7-27.6-39.2c0,0-11-5.5-19-14.1C229.1,208.1,231.1,192.7,234.6,190.7z"/>
	<path class="st15_data-storage-1-64" d="M231.2,197.1c0,0-2.4-22.7,3.4-30.9s18-11.9,21.2-10.2c3.3,1.7,3.5,35.5-1.7,36.8&#10;&#9;&#9;C246.6,194.7,239,196.1,231.2,197.1z"/>
	<polyline class="st5_data-storage-1-64" points="261.6,214.4 246.9,206.7 271.5,188.9 285.2,193.6 &#9;"/>
	<path class="st5_data-storage-1-64" d="M261.5,213c-0.3-1.1,5.9-21.4,5.9-21.4l28.5-18.1l-7.9,23.3l-26.4,17.7L261.5,213z"/>
	<path class="st15_data-storage-1-64" d="M241.7,169.4c-0.1,0.5-4.2,15.9,3.2,21.7s11.9,7.4,11.9,7.4s-6.4,6.9-5.9,9.8c0,0-28.3-7.7-21.8-38.5"/>
	<path class="st17_data-storage-1-64" d="M253,146c0,0,2.2,14.1-4.1,16.8c-4.6,1.9-7.6-4-8.2-7.7c-0.6-4.4,1.3-8.8,4.8-11.4&#10;&#9;&#9;C248.4,141.3,252.3,141.7,253,146z"/>
	<path class="st5_data-storage-1-64" d="M243,150.3c0,0,1.3-0.6,1.8-0.1s-0.4,2.7,1.3,2.8s6.5,0,9.3-3.3s-0.7-11.2-6.8-11.8s-14.9,5.1-16,13.6&#10;&#9;&#9;s-0.9,9-3.6,11.6s-6,2.7-4,7.3s7.4,2.6,7.4,6.6s5.7,8.4,11.5,5s4.7-9.8,0.9-12.5S239.6,153.7,243,150.3z"/>
	<path class="st17_data-storage-1-64" d="M255.4,200c0,0,6.2-0.3,6.1,0.5s-2.6,2-2.6,2s4.2,3.6,4.1,4.1s-2.1,3.5-4.1,3.6s-7.4-4.4-7.4-4.4&#10;&#9;&#9;C252.5,203.7,253.8,201.8,255.4,200z"/>
</g>
</svg>