<svg version="1.1" id="Layer_1" xmlns="http://www.w3.org/2000/svg" xmlns:xlink="http://www.w3.org/1999/xlink" x="0px" y="0px" viewBox="0 0 500 500" style="width: 166px;" xml:space="preserve" data-imageid="diversity-54" imageName="Diversity" class="illustrations_image">
<style type="text/css">
	.st0_diversity-54{fill:#BC0F5D;}
	.st1_diversity-54{fill:url(#SVGID_1_);}
	.st2_diversity-54{fill:#F7931E;}
	.st3_diversity-54{fill:#8EA7D9;}
	.st4_diversity-54{fill:#312725;}
	.st5_diversity-54{fill:#FCDED2;}
	.st6_diversity-54{fill:#FFAC73;}
	.st7_diversity-54{fill:url(#SVGID_00000006695477534085330850000011541691890092763790_);}
	.st8_diversity-54{fill:#FF8386;}
	.st9_diversity-54{fill:#C27A62;}
	.st10_diversity-54{fill:#68E1FD;}
	.st11_diversity-54{fill:#99CE34;}
	.st12_diversity-54{fill:url(#SVGID_00000159453375086310287980000015973424233236108205_);}
	.st13_diversity-54{opacity:0.47;fill:#312725;enable-background:new    ;}
</style>
<path id="field_diversity-54" class="st0_diversity-54" d="M484.5,237.6L300.1,130.3c-2.7-1.5-6-1.5-8.7,0L15.5,288.1c-4.2,2.4-5.6,7.7-3.2,11.9c0,0,0,0,0,0&#10;&#9;c0.8,1.3,1.9,2.4,3.2,3.2l176.4,101.9c8.8,5.1,19.7,5.1,28.5,0l264.1-152.5c4.2-2.4,5.6-7.7,3.2-11.9&#10;&#9;C486.9,239.4,485.8,238.3,484.5,237.6L484.5,237.6z"/>
<g id="race3_diversity-54">
	
		<linearGradient id="SVGID_1_-diversity-54" gradientUnits="userSpaceOnUse" x1="303.8459" y1="-1992.9275" x2="321.4559" y2="-1964.2075" gradientTransform="matrix(1 0 0 1 0 2195.05)">
		<stop offset="0" style="stop-color:#312725"/>
		<stop offset="1" style="stop-color:#BC0F5D"/>
	</linearGradient>
	<path class="st1_diversity-54" d="M330.4,231.1c-6.1,3.6-19.5,9.6-25.4,13.5l-49-30.1l65.3-29.8l43.5,26.4C361.3,212.8,333.7,229.2,330.4,231.1z&#10;&#9;&#9;"/>
	<path class="st2_diversity-54" d="M288.6,234.5c-11.9,0-28.4-1.8-40.4-10.3c-5.4-3.5-8.5-9.7-8.1-16.1c0.4-7.7,5.2-15,12.5-19.1l1.3-0.7&#10;&#9;&#9;c9.5-5.3,15.8-8.9,26.4-12.3c1.5-0.5,3.2-1.1,5-1.8c3.9-1.5,7.9-3,11.5-3.2c8.3-0.7,16.6-0.7,24.9,0.1c16.3,1.4,27.5,10,32.1,16.9&#10;&#9;&#9;c3.1,4.7,4.1,9.5,2.8,14.2c-2.7,10.1-15.1,17.6-22.3,21.1c-14,7.1-29.4,10.9-45,11.2L288.6,234.5z M308.6,172.5&#10;&#9;&#9;c-3.9,0-7.8,0.2-11.7,0.5l0,0c-3.3,0.2-7.2,1.7-10.9,3.1c-1.8,0.7-3.5,1.3-5.1,1.8c-10.5,3.4-16.7,6.9-26.1,12.2l-1.3,0.7&#10;&#9;&#9;c-6.8,3.8-11.2,10.5-11.5,17.5c-0.3,5.7,2.5,11.2,7.3,14.4c11.9,8.3,28.2,9.9,39.9,9.9c15.3-0.3,30.4-4.1,44.1-11&#10;&#9;&#9;c6.9-3.4,18.7-10.4,21.2-19.8c1.1-4.1,0.3-8.4-2.5-12.6c-6.5-9.8-20-15.1-30.6-16C317.1,172.7,312.9,172.5,308.6,172.5L308.6,172.5&#10;&#9;&#9;z"/>
	<path class="st3_diversity-54" d="M255.9,214.7c0,0,1.3-20.4,1.7-25.4c0.4-4.6,2-24.5,14.4-30.9c15.8-8,34-18.4,50.9-13.5&#10;&#9;&#9;c13.6,3.9,18.3,51.2,18.1,54.3C340.8,204.9,298.5,234.8,255.9,214.7z"/>
	<path class="st4_diversity-54" d="M283,152.9c0,0-2.9,17.7,13.8,19.1c11.7,1,9.1-8.5,9.1-8.5s5.8,4.6,11.8,1s-3.9-17.7-8.4-18.6&#10;&#9;&#9;S293.9,145.2,283,152.9z"/>
	
		<ellipse transform="matrix(0.6685 -0.7437 0.7437 0.6685 12.0266 243.7081)" class="st2_diversity-54" cx="279.4" cy="108.4" rx="13.2" ry="13.2"/>
	<path class="st2_diversity-54" d="M316.9,119.4c2.1-2.6,3.3-5.9,3.4-9.2c0.2-1.6,0.1-3.3-0.2-4.9c-0.5-1.7-1.6-3-3.1-3.9&#10;&#9;&#9;c-1.1-0.7-2.2-1.6-3.1-2.6c0,0-34.5-6.7-38.4,13.3l0,0c-0.7,5.6-0.3,22.6,15.1,29.7c15.7,7.2,8.4-18.4,8.4-18.4"/>
	<path class="st5_diversity-54" d="M308.6,147.9L288,137.8l1.7,14.3c0,0,0.1,0.3,0.4,0.7c3.7,3.4,9.5,4.5,15.2,4.1c1.3-0.1,2.3-1.1,2.4-2.3&#10;&#9;&#9;C308,152.4,308.2,150.2,308.6,147.9z"/>
	<path class="st5_diversity-54" d="M317.6,115.6c0,0,1.2-6.7-6.4-7.9c-2-0.3-4-0.3-5.2,1.6c-1.5,2.3-1.7,5.1-3.9,7.1c-2.2,1.9-5.3,2.4-8,1.3&#10;&#9;&#9;c0,2.2,0.3,3.9,3,4.6S315.5,119.9,317.6,115.6z"/>
	<path class="st2_diversity-54" d="M290.3,109.2c8.2-2.9,16-4.7,24.7-3.5c0.8,0,1.4,0.6,1.4,1.4c0,0,0,0,0,0c0.6-3.5,1.4-12.3-5.6-15&#10;&#9;&#9;c-8.9-3.3-23.8,0.9-27.9,8.9c-2.1,4-3.1,8.4-2.9,12.9C283.1,111.7,286.8,110.5,290.3,109.2z"/>
	<path class="st6_diversity-54" d="M308,151.6l-0.3,3c0,0-13.7-0.4-15.6-11.5L308,151.6z"/>
	<path class="st5_diversity-54" d="M317.7,115v18.1c0,5.2-5.1,18.7-10.6,18.7c-8.6,0-17.3-10.4-17.3-12.6c0,0-8.6-5.4-3.8-9.5s5.2,2.9,5.2,2.9&#10;&#9;&#9;s2.6-3.8,2.9-14.1C302.2,119.5,310.3,118.3,317.7,115z"/>
	<path class="st4_diversity-54" d="M329.9,209.5c0.8-0.5,1.6-1,2.3-1.6c-0.4-10.3-1.7-20.6-4.2-30.6c-0.4-1.8-3.1-1-2.7,0.8&#10;&#9;&#9;c2.5,10.4,3.8,21,4.1,31.7L329.9,209.5z"/>
	<path class="st4_diversity-54" d="M277.4,221c0.4,0,0.8,0.1,1.2,0.1l1-35.3c-0.2-0.8-1-1.2-1.8-1c-0.5,0.1-0.9,0.5-1,1l-1,35.1&#10;&#9;&#9;C276.3,220.9,276.8,220.9,277.4,221z"/>
</g>
<g id="race2_diversity-54">
	
		<linearGradient id="SVGID_00000106122574367997259860000010057309807016055741_-diversity-54" gradientUnits="userSpaceOnUse" x1="305.5201" y1="-1899.8563" x2="326.8201" y2="-1865.1163" gradientTransform="matrix(1 0 0 1 0 2195.05)">
		<stop offset="0" style="stop-color:#312725"/>
		<stop offset="1" style="stop-color:#BC0F5D"/>
	</linearGradient>
	<path style="fill:url(#SVGID_00000106122574367997259860000010057309807016055741_);" d="M337.6,330.2&#10;&#9;&#9;c-7.4,4.3-23.6,11.5-30.7,16.3l-59.2-36.4l78.9-36.1l52.6,31.9C375,308.1,341.6,327.9,337.6,330.2z"/>
	<path class="st4_diversity-54" d="M320.4,208.8c-0.1-0.5-0.4-0.9-0.9-1.2c1.3-2.3,1-5.2-0.6-7.2c-0.5-0.6-1.2-1-2-1.2c-0.3-1.6-1.2-3.1-2.6-4&#10;&#9;&#9;c-0.1-2.7-1.8-5-4.2-6l0,0c-0.4-0.2-0.8-0.4-1.2-0.5c-0.4-0.1-0.8-0.1-1.2,0c-0.4,0-0.9,0-1.3,0c-2-3.8-6.7-5.3-10.6-3.3&#10;&#9;&#9;c0,0,0,0,0,0c-0.3,0.2-0.6,0.3-0.9,0.6c-0.2-0.2-0.4-0.5-0.7-0.7c-1.8-1.3-4-1.1-6.1-0.7c-1.9,0.1-3.6,1.2-4.7,2.8&#10;&#9;&#9;c-0.1,0.2-0.2,0.5-0.3,0.8c-1.9-0.9-4.1-0.3-5.4,1.4c-0.5,0.6-0.8,1.3-1,2c-1.2-0.1-2.5,0.2-3.5,0.9c-1.5,1-2.3,2.8-2.1,4.6&#10;&#9;&#9;c-0.2,0.3-0.5,0.6-0.7,0.9c-1.8,0.4-3.4,1.6-4.3,3.2c-0.6,1-0.8,2.2-0.7,3.4c-2.2,0.4-3.9,2.1-4.2,4.4c-0.2,1.5,0.4,2.9,1.6,3.8&#10;&#9;&#9;c-1,1.6-1.1,3.6-0.1,5.2c0.5,0.8,1.1,1.5,1.8,2c-1.7,1.6-2.1,4.1-0.9,6.1c0.8,1.3,2.2,2.3,3.8,2.5c0,0.1,0.1,0.3,0.2,0.4&#10;&#9;&#9;c0.1,0.3,0.3,0.5,0.5,0.8c-0.6,2.2-0.9,5,1.8,5.8c0.9,0.2,1.9,0.2,2.8,0c1.2,1.5,3.3,1.9,5,0.9l0.7,0.2c1.1,0.3,2.3-0.3,2.7-1.4&#10;&#9;&#9;c0.5-1.9,0.4-3.9-0.2-5.8c0.2-0.6,0.5-1.1,0.7-1.7c0.3-0.3,0.5-0.7,0.6-1.2c0.3-0.5,0.5-1,0.8-1.4c0.4-0.5,0.7-0.9,1.1-1.3&#10;&#9;&#9;c1,0.1,1.9-0.6,2.1-1.5c0.3-1.2,0.2-2.5-0.3-3.7c1.3-0.7,2.2-2,2.4-3.4c0-0.4,0-0.8,0-1.2c0.9,0.3,1.9,0.3,2.8-0.1&#10;&#9;&#9;c1.1-0.4,2-1.2,2.5-2.2c1.9,1.8,4.5,2.9,6.9,1.6c1-0.5,1.8-1.4,2.2-2.4c0.8,0.5,1.8,0.7,2.8,0.7c1.1,0,2.2-0.6,2.7-1.6&#10;&#9;&#9;c0.5,0.4,1,0.7,1.6,0.9l0.6,7.8c0,0.2,0,0.3,0.1,0.5c-0.6,1.1-0.2,2.4,0.9,3c0.5,0.3,1,0.3,1.6,0.2c5.7-1.4,9.3-7.1,7.9-12.9&#10;&#9;&#9;C320.5,209.1,320.5,209,320.4,208.8z"/>
	<path class="st2_diversity-54" d="M279.8,329.5c-12.3,0-29.2-1.9-41.7-10.5c-5.5-3.6-8.7-9.9-8.4-16.5c0.4-7.9,5.3-15.5,12.9-19.7l1.6-0.9&#10;&#9;&#9;c9.6-5.4,16-9,26.9-12.4c1.5-0.5,3.2-1.1,5-1.8c4.1-1.6,8.3-3.2,12-3.4c8.5-0.7,17.1-0.7,25.6,0.1c10.5,0.9,25.5,6,33,17.4&#10;&#9;&#9;c3.2,4.8,4.2,9.8,2.9,14.6c-2.8,10.5-15.6,18.1-22.9,21.7c-14.4,7.3-30.2,11.2-46.3,11.5H279.8z M300.3,265.6c-4,0-8,0.2-12,0.5&#10;&#9;&#9;l0,0c-3.4,0.2-7.5,1.8-11.4,3.3c-1.8,0.7-3.5,1.3-5.1,1.8c-10.7,3.4-17,7-26.5,12.3l-1.6,0.9c-7,3.9-11.5,10.8-11.9,18.1&#10;&#9;&#9;c-0.3,5.9,2.5,11.6,7.5,14.8c12.2,8.5,29.1,10.2,41.1,10.1c15.8-0.3,31.3-4.2,45.4-11.3c7.1-3.5,19.3-10.7,21.9-20.4&#10;&#9;&#9;c1.2-4.3,0.3-8.6-2.6-13c-6.7-10.1-20.7-15.6-31.5-16.5C309.2,265.8,304.8,265.6,300.3,265.6L300.3,265.6z"/>
	<path class="st8_diversity-54" d="M247.9,310c0,0,1.3-21,1.8-26.1c0.4-4.7,2-25.3,14.9-31.8c16.3-8.2,35-18.9,52.4-13.9&#10;&#9;&#9;c14.1,4,18.9,52.7,18.7,55.9C335.4,299.9,291.8,330.7,247.9,310z"/>
	<path class="st5_diversity-54" d="M276.1,249.4c0,1,11.5,14,14.2,12.3s4-13.4,5.8-12.3s8,8.6,8.9,8s-1.4-20.7-3.2-24S276.1,242,276.1,249.4z"/>
	<path class="st9_diversity-54" d="M310.1,205.8v18.7c0.1,5.3-2.2,19.8-10.9,19.3s-17.8-10.7-17.8-13c0,0-8.9-5.5-3.9-9.8s5.5,2.9,5.5,2.9&#10;&#9;&#9;s2.7-3.9,2.9-14.6C294.1,210.4,302.5,209.2,310.1,205.8z"/>
	<path class="st9_diversity-54" d="M281.8,244.9c4.5,4.1,11.8,4.9,18.5,3.9c1-0.1,1.9-0.9,2-1.9c0.1-2.1,0.2-4.1,0.4-6.2l-23.1-11.3l1.8,14.7&#10;&#9;&#9;C281.4,244.2,281.5,244.4,281.8,244.9z"/>
	<path class="st4_diversity-54" d="M297.7,249.1c0.9,0,1.8-0.1,2.7-0.3c1-0.1,1.8-0.8,1.9-1.8c0-1.1,0.1-2.1,0.2-3.2c-4.9,0-13.6-1.2-18.2-10.2&#10;&#9;&#9;C285.5,240.8,290.7,246.8,297.7,249.1z"/>
	<path class="st4_diversity-54" d="M274.1,316.9h1.3c-0.1-8.8-0.1-17.5,0-26.3c0-0.8-0.6-1.4-1.4-1.4s-1.4,0.6-1.4,1.4c-0.1,8.7-0.1,17.4,0,26.1&#10;&#9;&#9;L274.1,316.9z"/>
	<path class="st4_diversity-54" d="M321.6,305.9L321.6,305.9l0.3-0.1l0.8-0.4l0.9-0.5l0.8-0.4c0-10.4-0.3-20.8-0.9-31.2c-0.1-1.9-3-1.9-2.9,0&#10;&#9;&#9;c0.6,10.7,0.9,21.4,0.9,32.1C321.5,305.6,321.5,305.8,321.6,305.9z"/>
	<path class="st4_diversity-54" d="M314.4,207.1c-0.2-0.8-0.9-1.5-1.8-1.5c0-0.3,0-0.6,0-0.9c-0.1-2.8-4.4-2.8-4.3,0c0,0.2-0.1,0.4-0.2,0.6&#10;&#9;&#9;c-0.1-1.1-1-2-2.2-2.1c-0.3-0.2-0.6-0.3-1-0.3c-1.2,0-2.1,1-2.2,2.2c0,0.4,0.1,0.8,0.2,1.1c-0.4,0.6-0.8,1.2-1.3,1.8&#10;&#9;&#9;c-0.3,0.3-2.5,2.3-3,1.4h0.1c0.8-0.8,0.8-2.2,0-3c-0.4-0.4-0.9-0.6-1.5-0.6c-0.4-0.5-1-0.7-1.6-0.7c-1.2,0-2.1,1-2.2,2.2v0.3&#10;&#9;&#9;c-1.4,0.4-3,0.3-4.3-0.3c-0.2-0.1-0.4-0.1-0.6-0.1c-0.1-0.2-0.2-0.4-0.3-0.6c-0.6-1-1.9-1.3-3-0.8c-1,0.6-1.4,1.9-0.8,3&#10;&#9;&#9;c0,0,0,0,0,0c0.1,0.1,0.1,0.2,0.2,0.3l0,0c-0.3-0.1-0.6-0.1-1,0c-0.3-1.1-1.6-1.8-2.7-1.4c-1.1,0.3-1.7,1.5-1.5,2.6&#10;&#9;&#9;c0.3,1.5,1.4,2.8,2.9,3.4c0,0.1,0,0.3,0.1,0.4c-1.1,0.1-1.9,1.1-1.8,2.2c0,0.3,0.1,0.6,0.3,0.9c0.3,0.4,0.7,0.8,1.1,1.2&#10;&#9;&#9;c-0.1,0.3-0.2,0.6-0.3,0.9c0,0.1-0.1,0.2-0.1,0.2c-1,3.1-0.8,6.4,0.8,9.3c0.6,1,1.9,1.4,3,0.8c0,0,0,0,0,0c0.3-0.2,0.6-0.4,0.8-0.7&#10;&#9;&#9;c1.3-2.8,2-5.8,1.8-8.9c0.3-0.1,0.6-0.1,0.8-0.2c1.5-0.7,2.7-1.9,3.2-3.5c1.7-0.3,3.2-1.4,4.1-2.9c1.1,0.7,2.4,0.9,3.7,0.7&#10;&#9;&#9;c1.6-0.3,3-1.2,4-2.4c1,1.7,2.9,2.7,4.9,2.6c3,0,5.5-2.5,5.5-5.5c0-0.4,0-0.8-0.1-1.2L314.4,207.1z"/>
</g>
<g id="plant_diversity-54">
	<path class="st10_diversity-54 targetColor" d="M408.9,227.3c0,0-3.2,25.5,11.3,30.5c14.5,4.9,22.2-7.9,22.4-30.5" style="fill: rgb(104, 225, 253);"/>
	<ellipse class="st4_diversity-54" cx="425.8" cy="227.4" rx="16.9" ry="9.1"/>
	<path class="st11_diversity-54" d="M425.8,227.3c0,0,0-35.4-18.1-49.7c0,0-9.6,5.8-7.2,14.6s12.8,2.3,14.6,6.9s-3.6,6,0.1,10.7&#10;&#9;&#9;S425.8,218.3,425.8,227.3z"/>
	<path class="st11_diversity-54" d="M429.5,224.4c0,0-1.4-41,7.6-53.2s15.1,4.5,11,12s-11.2,5.6-8.6,12s7,9.8,2,12.5S429.1,219.2,429.5,224.4z"/>
</g>
<g id="race1_diversity-54">
	
		<linearGradient id="SVGID_00000100384640169104321090000003410803717438305952_-diversity-54" gradientUnits="userSpaceOnUse" x1="153.9763" y1="-1909.2738" x2="175.2763" y2="-1874.5338" gradientTransform="matrix(1 0 0 1 0 2195.05)">
		<stop offset="0" style="stop-color:#312725"/>
		<stop offset="1" style="stop-color:#BC0F5D"/>
	</linearGradient>
	<path style="fill:url(#SVGID_00000100384640169104321090000003410803717438305952_);" d="M186.1,320.8&#10;&#9;&#9;c-7.4,4.3-23.6,11.5-30.7,16.3l-59.3-36.4l78.9-36.1l52.6,31.8C223.5,298.7,190.1,318.5,186.1,320.8z"/>
	<path class="st2_diversity-54" d="M129.3,320.5c-12.3,0-29.2-1.9-41.7-10.5c-8.5-6.1-10.9-17.6-5.5-26.6c11.3-19.3,36.9-23.8,55.6-27&#10;&#9;&#9;c8.4-1.5,17-1.9,25.5-1.2c16.8,1.5,28.3,10.3,33,17.4c3.2,4.8,4.2,9.8,2.9,14.6c-2.8,10.5-15.6,18.1-22.9,21.7&#10;&#9;&#9;c-14.3,7.3-30.1,11.2-46.2,11.6H129.3z M155.3,256.9c-5.8,0-11.5,0.5-17.2,1.5l0,0c-18.3,3.2-43.4,7.5-54.2,26&#10;&#9;&#9;c-4.9,8-2.7,18.4,4.9,23.9c12.2,8.5,29.1,10.2,41.1,10.1c15.8-0.3,31.3-4.2,45.4-11.4c7.1-3.5,19.3-10.7,21.9-20.4&#10;&#9;&#9;c1.1-4.3,0.3-8.6-2.6-13c-6.7-10.1-20.7-15.6-31.5-16.5C160.5,257,158,256.9,155.3,256.9L155.3,256.9z"/>
	<path class="st10_diversity-54 targetColor" d="M96.1,299.8c0,0,1.3-21,1.8-26.1c0.4-4.7,2-25.3,14.9-31.8c16.3-8.2,35.1-18.9,52.4-13.9&#10;&#9;&#9;c14.1,4,18.9,52.7,18.7,55.9C183.6,289.7,140,320.5,96.1,299.8z" style="fill: rgb(104, 225, 253);"/>
	<path class="st10_diversity-54 targetColor" d="M121.7,237.4c0.3-0.1,9.5,6.7,9.9,17s2,52.2,2,52.2s22.3-1.3,36.2-11c0,0-3.2-48.6-7.5-58.2&#10;&#9;&#9;s-16.7-9.5-16.7-9.5L121.7,237.4z" style="fill: rgb(104, 225, 253);"/>
	<path class="st13_diversity-54" d="M121.7,237.4c0.3-0.1,9.5,6.7,9.9,17s2,52.2,2,52.2s22.3-1.3,36.2-11c0,0-3.2-48.6-7.5-58.2&#10;&#9;&#9;s-16.7-9.5-16.7-9.5L121.7,237.4z"/>
	<path class="st4_diversity-54" d="M157.5,200.2c2.6-2.6,4.5-5.8,5.4-9.4c2-6.5-1.3-16-8.4-16.9s-9.2,2.8-9.2,2.8s-26.4-4.6-30.4,16l0,0&#10;&#9;&#9;c-0.8,5.8-3.9,26.8,13.2,31.4s11-19.7,11-19.7"/>
	<path class="st6_diversity-54" d="M158.3,195.6v18.7c0.1,5.3-2.2,19.8-10.9,19.3s-17.8-10.6-17.8-13c0,0-8.9-5.5-3.9-9.8s5.4,2.9,5.4,2.9&#10;&#9;&#9;s2.7-3.9,2.9-14.6C142.2,200.2,150.6,199,158.3,195.6z"/>
	<path class="st6_diversity-54" d="M130,234.7c4.5,4.1,11.8,4.9,18.5,3.9c1-0.1,1.9-0.9,2-1.9c0.1-2.1,0.2-4.1,0.4-6.2l-23.1-11.3l1.8,14.7&#10;&#9;&#9;C129.5,234,129.7,234.3,130,234.7z"/>
	<path class="st2_diversity-54" d="M145.8,238.9c0.9,0,1.8-0.1,2.7-0.3c1-0.1,1.8-0.9,1.9-1.9c0-1.1,0.1-2.1,0.2-3.2c-4.9,0-13.6-1.1-18.2-10.2&#10;&#9;&#9;C133.7,230.6,138.8,236.6,145.8,238.9z"/>
	<path class="st4_diversity-54" d="M159.4,194c-3.2-1-6.7-0.8-9.9,0.5c-5.3,2.4-9.5,3.7-14.9,0.8c-0.1-0.1-0.3-0.2-0.4-0.2h-0.1&#10;&#9;&#9;c-1.1-0.6-2.4-0.2-3,0.9c-0.3,0.6-0.3,1.2-0.1,1.8c-0.3,5.2-1.2,11.3-0.3,16.7c0,3.7,4.8,21.4,19.7,22.4c0,0,7.8-0.1,7.8-20.6&#10;&#9;&#9;c-1.7,2.2-4,4-6.6,5c-2.9,0.9-9.9-0.8-15.6-4l0,0c-1.9-4.9-1.2-11.3-0.7-16.9c2.6,1,5.5,1.4,8.3,1.1c5.4-0.6,9.1-4.8,14.8-3.2&#10;&#9;&#9;c1.2,0.3,2.4-0.5,2.7-1.6C161.3,195.4,160.6,194.3,159.4,194L159.4,194z"/>
</g>
</svg>