<svg version="1.1" id="Layer_1" xmlns="http://www.w3.org/2000/svg" xmlns:xlink="http://www.w3.org/1999/xlink" x="0px" y="0px" viewBox="0 0 500 500" style="width: 166px;" xml:space="preserve" data-imageid="diversity-83" imageName="Diversity" class="illustrations_image">
<style type="text/css">
	.st0_diversity-83{fill:#68E1FD;}
	.st1_diversity-83{fill:#FFFFFF;}
	.st2_diversity-83{fill:#231F20;}
	.st3_diversity-83{fill:#D1D3D4;}
	.st4_diversity-83{fill:none;}
</style>
<g id="Character_Female_1_diversity-83">
	<path class="st0_diversity-83 targetColor" d="M133.8,291.2c0,0-0.1-7.3,22.6-19.4s57-8.9,69-1.7s17.9,8.6,22.8,24.5c3,10.1,4.6,20.5,4.7,31H130L133.8,291.2&#10;&#9;&#9;z" style="fill: rgb(104, 225, 253);"/>
	<path class="st1_diversity-83" d="M176.9,304.1c2.7,2.2,14.8,4.4,17.6,3.7c7.4-1.9,15.2-4.5,19.8-11c2.6-3.6,3.8-8.1,4.8-12.5&#10;&#9;&#9;c1.1-5.1,2-10.6,0.6-15.6c-5-17-31.2-18.8-44.3-11.9C156.5,266.8,163.7,293.1,176.9,304.1z"/>
	<path class="st2_diversity-83" d="M192.9,308.6c-4.6,0-14-2-16.4-4l0,0c-8.7-7.3-14.3-20.4-13.1-31.1c0.6-7.4,5-13.9,11.6-17.3&#10;&#9;&#9;c9-4.8,22.7-5.2,32.6-1c6.6,2.8,11,7.4,12.7,13.3c1.5,5.2,0.6,10.7-0.5,16c-0.9,4.1-2.1,8.9-4.9,12.7c-4.6,6.5-12.4,9.2-20.2,11.2&#10;&#9;&#9;C194.1,308.6,193.5,308.7,192.9,308.6z M177.4,303.6c2.4,2,14.2,4.2,16.9,3.5c7.5-1.9,15.1-4.6,19.4-10.7c2.6-3.7,3.8-8.2,4.6-12.2&#10;&#9;&#9;c1.1-5.1,2-10.5,0.6-15.3c-1.6-5.5-5.7-9.8-11.9-12.5c-9.4-4-22.8-3.5-31.4,1c-6.2,3.1-10.3,9.3-10.9,16.2&#10;&#9;&#9;C163.6,284,169,296.6,177.4,303.6L177.4,303.6z"/>
	<path class="st1_diversity-83" d="M183.5,193.8c-12.7,2.2-24.1,9.9-23.9,24.1c0.2,8.7,4.8,16.8,11.4,22.5c9.6,8.4,23.7,11.7,35.5,7&#10;&#9;&#9;c10-4,17.6-14,18.2-24.8c0.5-8.6-3.3-22.6-12.3-25.7c-3.4-1.2-7.7,1.5-7.7,1.5C202.9,193.5,188.8,192.9,183.5,193.8z"/>
	<path class="st2_diversity-83" d="M195.1,250.2c-9,0-17.7-3.3-24.6-9.2c-7.2-6.3-11.4-14.7-11.6-23c-0.2-12.8,8.9-22,24.4-24.8&#10;&#9;&#9;c5.3-0.9,18.8-0.4,21.5,4.4c1.4-0.7,4.7-2.2,7.6-1.2c9.1,3.1,13.3,17.3,12.8,26.4c-0.6,10.9-8.2,21.3-18.6,25.4&#10;&#9;&#9;C203,249.6,199,250.3,195.1,250.2z M188.6,194.1c-1.7,0-3.4,0.1-5.1,0.4l0,0c-14.8,2.6-23.6,11.4-23.4,23.5c0.1,8,4.2,16,11.1,22.1&#10;&#9;&#9;c9.7,8.5,23.8,11.3,34.9,6.9c9.9-3.9,17.2-13.9,17.8-24.3c0.5-8.6-3.4-22.1-11.9-25.1c-3.1-1.1-7.1,1.5-7.2,1.5&#10;&#9;&#9;c-0.2,0.1-0.4,0.1-0.6,0.1c-0.2-0.1-0.3-0.2-0.4-0.4C202.9,195.3,194.8,194.1,188.6,194.1L188.6,194.1z M183.5,193.8L183.5,193.8z"/>
	<path class="st1_diversity-83" d="M206,261l0.1,18.5c0,0-1.9,10.4-13.2,7.2c-6.7-2-12.3-6.8-15-13.3c0,0-0.9-39.1-1.2-50.9&#10;&#9;&#9;c13.7-0.2,28.8-9,28.8-9s4.7,7.1,6.8,9.3c1.6,1.7,3.1,3.6,4.2,5.6c1.9,3.6,1.8,8,1.7,12c0,4.7-0.5,9.4-1.4,14&#10;&#9;&#9;C215.1,263.2,206,261,206,261z"/>
	<path class="st2_diversity-83" d="M196.9,288c-1.4,0-2.8-0.2-4.2-0.6c-7-2-12.6-7-15.4-13.7c0-0.1,0-0.1,0-0.2c0-0.4-0.9-39.2-1.2-50.9&#10;&#9;&#9;c0-0.2,0.1-0.3,0.2-0.5c0.1-0.1,0.3-0.2,0.4-0.2c13.4-0.2,28.3-8.9,28.5-9c0.3-0.2,0.7-0.1,0.9,0.2c0,0.1,4.7,7.1,6.7,9.2&#10;&#9;&#9;c1.7,1.7,3.1,3.6,4.3,5.7c2,3.8,1.9,8.5,1.8,12.3c0,4.7-0.5,9.4-1.4,14.1c-0.4,2.4-1.7,4.5-3.8,5.9c-2.2,1.2-4.7,1.7-7.2,1.3&#10;&#9;&#9;l0.1,17.8c-0.6,2.9-2.2,5.4-4.6,7C200.6,287.5,198.8,288,196.9,288z M178.6,273.3c2.7,6.2,8,10.9,14.5,12.8&#10;&#9;&#9;c3.4,0.9,6.1,0.7,8.3-0.6c2-1.5,3.5-3.6,4-6.1l-0.1-18.4c0-0.2,0.1-0.4,0.2-0.5c0.2-0.1,0.4-0.2,0.5-0.1c0,0,4,0.9,7-1&#10;&#9;&#9;c1.7-1.2,2.9-3,3.2-5.1c0.9-4.6,1.3-9.2,1.4-13.9c0.1-3.8,0.2-8.2-1.7-11.7c-1.1-2-2.5-3.8-4.1-5.5c-1.8-1.9-5.4-7.2-6.5-8.9&#10;&#9;&#9;c-2.8,1.5-15.8,8.4-28,8.8C177.7,235.3,178.5,271.1,178.6,273.3L178.6,273.3z"/>
	<path class="st2_diversity-83" d="M205.9,270.1c0,0-7.5,0.3-12.4-4.7s-4.1-10.1-4.1-10.1s8.1,5.5,16.6,5.7L205.9,270.1z"/>
	<path class="st2_diversity-83" d="M205.5,270.8c-1.6,0-8.1-0.3-12.5-4.9c-5-5.2-4.3-10.4-4.3-10.6c0-0.2,0.2-0.4,0.4-0.5&#10;&#9;&#9;c0.2-0.1,0.4-0.1,0.6,0.1c0.1,0,8.1,5.4,16.3,5.5c0.3,0,0.6,0.3,0.6,0.6c0,0,0,0,0,0l-0.1,9.1c0,0.3-0.3,0.6-0.6,0.6L205.5,270.8z&#10;&#9;&#9; M205.9,270.1L205.9,270.1z M190,256.5c0.2,3.2,1.7,6.3,4,8.5c3.8,4,9.5,4.5,11.3,4.5l0.1-7.9C198.6,261.3,192.3,257.9,190,256.5z"/>
	<path class="st1_diversity-83" d="M198.7,231.4c0,0,6,8.9,4.6,10.5s-5.4,0.5-5.4,0.5"/>
	<path class="st2_diversity-83" d="M200.5,243.4c-0.9,0-1.9-0.1-2.8-0.4c-0.3-0.1-0.5-0.4-0.4-0.8c0.1-0.3,0.4-0.5,0.7-0.4&#10;&#9;&#9;c0.9,0.2,3.8,0.7,4.8-0.3c0.6-0.6-1.6-5.2-4.6-9.7c-0.2-0.2-0.3-0.6,0-0.9c0.2-0.2,0.6-0.3,0.9,0c0.1,0.1,0.1,0.1,0.1,0.2&#10;&#9;&#9;c1.9,2.8,6.1,9.5,4.5,11.2C202.8,243.1,201.7,243.5,200.5,243.4z"/>
	
		<ellipse transform="matrix(0.9992 -3.925982e-02 3.925982e-02 0.9992 -8.8173 8.2853)" class="st2_diversity-83" cx="206.5" cy="228.6" rx="1" ry="1.9"/>
	
		<ellipse transform="matrix(2.966619e-02 -0.9996 0.9996 2.966619e-02 -44.3004 410.5869)" class="st2_diversity-83" cx="189.3" cy="228.1" rx="1.9" ry="1"/>
	<path class="st1_diversity-83" d="M180.6,234.7c-2-2.8-5-7.8-9.1-6.3c-1.1,0.4-2,1.2-2.8,2.1c-3.3,3.9-2.8,9.1-0.6,13.4&#10;&#9;&#9;c1.9,3.7,7.8,9.3,11.8,4.6"/>
	<path class="st2_diversity-83" d="M176.3,250.9c-0.2,0-0.4,0-0.6,0c-3.7-0.4-7-4.4-8.2-6.7c-2.6-5.2-2.4-10.5,0.7-14.1c0.8-1,1.8-1.8,3-2.3&#10;&#9;&#9;c4.2-1.6,7.4,2.9,9.4,5.8l0.5,0.7c0.2,0.3,0.1,0.7-0.1,0.9c-0.3,0.2-0.7,0.1-0.9-0.1c0,0,0,0,0,0l-0.5-0.7&#10;&#9;&#9;c-1.9-2.8-4.6-6.6-7.9-5.4c-1,0.4-1.9,1-2.5,1.9c-2.7,3.2-2.9,8-0.5,12.7c1.2,2.3,4.1,5.7,7.2,6c1.4,0.2,2.7-0.4,3.6-1.5&#10;&#9;&#9;c0.2-0.3,0.6-0.3,0.9-0.1s0.3,0.6,0.1,0.9C179.3,250.2,177.8,250.9,176.3,250.9z"/>
	<path class="st2_diversity-83" d="M199.4,252.1c-0.3,0-0.7,0-1-0.1c-5.9-0.7-10-6.7-10.2-7c-0.1-0.3,0-0.7,0.3-0.8c0.2-0.1,0.5,0,0.7,0.1&#10;&#9;&#9;c0,0.1,4,5.9,9.3,6.5c2.6,0.3,5.2-0.7,7.6-3c0.2-0.2,0.6-0.3,0.9,0c0.2,0.2,0.3,0.6,0,0.9c0,0,0,0-0.1,0&#10;&#9;&#9;C205,250.8,202.3,252,199.4,252.1z"/>
	<path class="st2_diversity-83" d="M153.9,326.3c-0.4,0-0.7-0.3-0.7-0.7l0,0v-29.1c0-0.4,0.3-0.7,0.7-0.7c0.4,0,0.7,0.3,0.7,0.7v29.1&#10;&#9;&#9;C154.6,326,154.3,326.3,153.9,326.3z"/>
	<path class="st2_diversity-83" d="M227.9,326.4c-0.3,0-0.6-0.2-0.7-0.6l-5.7-30.3c-0.1-0.4,0.2-0.7,0.6-0.8s0.7,0.2,0.8,0.6l5.7,30.3&#10;&#9;&#9;c0.1,0.4-0.2,0.7-0.6,0.8c0,0,0,0,0,0L227.9,326.4z"/>
	<path class="st1_diversity-83" d="M193.3,284.5c0,0-15.7,16.6-14.9,32.9l26.4,3c0,0-4.8-28.8-1.8-36L193.3,284.5z"/>
	<path class="st2_diversity-83" d="M204.8,321.1L204.8,321.1l-26.5-3c-0.3,0-0.6-0.3-0.6-0.7c-0.8-16.4,14.4-32.7,15.1-33.4&#10;&#9;&#9;c0.1-0.1,0.3-0.2,0.5-0.2l9.7-0.2c0.2,0,0.5,0.1,0.6,0.3c0.1,0.2,0.2,0.4,0.1,0.7c-2.9,7,1.8,35.4,1.9,35.7&#10;&#9;&#9;c0.1,0.4-0.2,0.7-0.6,0.8C204.9,321.1,204.8,321.1,204.8,321.1L204.8,321.1z M179.1,316.7l24.9,2.9c-0.8-4.8-4.1-26.8-2-34.5&#10;&#9;&#9;l-8.4,0.1C191.8,287.2,178.7,302.1,179.1,316.7L179.1,316.7z"/>
	<path class="st3_diversity-83" d="M191.6,303.1h-0.1c-0.4,0-0.6-0.4-0.6-0.8c0,0,0,0,0,0c0.8-5.5,2.9-10.7,6.1-15.3c0.2-0.3,0.7-0.4,1-0.1&#10;&#9;&#9;c0,0,0,0,0,0c0.3,0.2,0.4,0.7,0.1,1c0,0,0,0,0,0c-3.1,4.4-5,9.4-5.8,14.6C192.2,302.9,191.9,303.1,191.6,303.1z"/>
	<path class="st3_diversity-83" d="M207.3,290.4c-0.1,0-0.2,0-0.3,0c-0.4-0.2-0.5-0.6-0.4-0.9c0,0,0,0,0,0c1.5-3.2,2.6-6.5,3.5-9.8&#10;&#9;&#9;c0.9-3.3,0.8-6.8-0.2-10.1c-0.1-0.4,0.1-0.8,0.4-0.9c0.4-0.1,0.8,0.1,0.9,0.4c1.1,3.5,1.1,7.3,0.2,10.8c-0.9,3.5-2.1,6.8-3.6,10.1&#10;&#9;&#9;C207.8,290.3,207.5,290.4,207.3,290.4z"/>
	<path class="st2_diversity-83" d="M191.8,234.2h-7.9c-2.8,0-5-2.2-5-5v-5.4c0-0.4,0.3-0.7,0.7-0.7h16.5c0.4,0,0.7,0.3,0.7,0.7v5.4&#10;&#9;&#9;C196.8,231.9,194.6,234.2,191.8,234.2C191.8,234.2,191.8,234.2,191.8,234.2z M180.3,224.5v4.7c0,2,1.6,3.6,3.6,3.6h7.9&#10;&#9;&#9;c2,0,3.6-1.6,3.6-3.6v-4.7H180.3z"/>
	<path class="st2_diversity-83" d="M211.4,234.2h-7.9c-2.8,0-5-2.2-5-5v-5.4c0-0.4,0.3-0.7,0.7-0.7h16.5c0.4,0,0.7,0.3,0.7,0.7v5.4&#10;&#9;&#9;C216.4,231.9,214.2,234.2,211.4,234.2C211.4,234.2,211.4,234.2,211.4,234.2z M199.9,224.5v4.7c0,2,1.6,3.6,3.6,3.6h7.9&#10;&#9;&#9;c2,0,3.6-1.6,3.6-3.6v-4.7H199.9z"/>
	<line class="st4_diversity-83" x1="194.9" y1="223.8" x2="203.5" y2="223.8"/>
	<path class="st2_diversity-83" d="M203.5,224.5h-8.6c-0.4,0-0.7-0.3-0.7-0.7c0-0.4,0.3-0.7,0.7-0.7h8.6c0.4,0,0.7,0.3,0.7,0.7&#10;&#9;&#9;C204.2,224.2,203.9,224.5,203.5,224.5z"/>
</g>
<g id="Character_Male_1_diversity-83">
	<path class="st0_diversity-83 targetColor" d="M71.4,263.7c0,0-24.5,0.8-34.1,18.5s-10,43.5-10,43.5h111.7c0,0-12.5-42.5-29.3-52.6S71.4,263.7,71.4,263.7z" style="fill: rgb(104, 225, 253);"/>
	<path class="st2_diversity-83" d="M44.2,319c-0.1,0-0.2,0-0.3-0.1c-0.3-0.2-0.5-0.6-0.3-0.9c0,0,0,0,0,0c0.5-1,6.1-21.2,9.7-34.5&#10;&#9;&#9;c0.1-0.4,0.5-0.6,0.9-0.5c0.4,0.1,0.6,0.5,0.5,0.8c-1,3.4-9.3,33.6-9.8,34.7C44.8,318.8,44.5,319,44.2,319z"/>
	<path class="st1_diversity-83" d="M84.6,200.9c0,0,6.2-15.7-9.7-19.7s-30.5,6.5-28.7,20.5S58.7,216,58.7,216L84.6,200.9z"/>
	<path class="st2_diversity-83" d="M58.7,216.7L58.7,216.7c-0.1,0-11.3-0.4-13.2-14.9c-0.9-6.1,1.4-12.2,6.1-16.2c6-5.3,14.7-7.2,23.4-5.1&#10;&#9;&#9;c4.8,1.2,8.2,3.6,10,7.1c3.1,6.1,0.4,13.2,0.3,13.6c-0.1,0.1-0.2,0.3-0.3,0.4l-25.9,15.1C59,216.6,58.8,216.7,58.7,216.7z&#10;&#9;&#9; M67.9,181.1c-5.7-0.1-11.1,1.9-15.4,5.6c-4.3,3.7-6.5,9.4-5.7,15c1.7,12.4,10.3,13.5,11.7,13.6L84,200.4c0.4-1.2,2.3-7.2-0.3-12.2&#10;&#9;&#9;c-1.6-3.1-4.7-5.2-9.1-6.3C72.5,181.3,70.2,181.1,67.9,181.1z M84.6,200.9L84.6,200.9z"/>
	<path class="st3_diversity-83" d="M61.3,202.5c2.4-1.5,5-2.5,7.7-3c7.5-1.5,16.1-0.2,21.3,5.4c-2.5-1.9-5.9-0.4-8.9,0.6&#10;&#9;&#9;c-2.6,0.9-5.3,1.3-7.9,2.1c-3.5,1.1-6.7,2.8-9.6,5c-1.7,1.3-5.7,7-7.7,6.9c-3.7-0.3-2.1-6.7-1.4-8.6&#10;&#9;&#9;C56.1,207.4,58.3,204.5,61.3,202.5z"/>
	<path class="st2_diversity-83" d="M56.5,220.2h-0.1c-0.9,0-1.8-0.5-2.3-1.3c-1.7-2.5,0.1-7.7,0.3-8.3c1.2-3.6,3.5-6.6,6.6-8.7l0,0&#10;&#9;&#9;c2.4-1.5,5.2-2.6,8-3.1c6.8-1.4,16.1-0.6,22,5.6c0.3,0.3,0.3,0.7,0,1s-0.7,0.3-1,0c-2-1.5-4.8-0.5-7.5,0.4l-0.8,0.3&#10;&#9;&#9;c-1.4,0.5-2.9,0.9-4.3,1.2c-1.2,0.3-2.4,0.6-3.5,0.9c-3.4,1.1-6.6,2.7-9.4,4.9c-0.8,0.7-1.6,1.5-2.3,2.4&#10;&#9;&#9;C59.8,218.3,58,220.2,56.5,220.2z M74.8,199.7c-1.9,0-3.8,0.2-5.6,0.6c-2.6,0.5-5.2,1.4-7.5,2.9l0,0c-2.8,1.9-5,4.7-6,8&#10;&#9;&#9;c-0.7,2-1.4,5.6-0.4,7c0.3,0.4,0.7,0.7,1.2,0.7c0.9,0,3.3-2.6,4.7-4.1c0.8-1,1.6-1.8,2.5-2.6c2.9-2.3,6.3-4,9.8-5.1&#10;&#9;&#9;c1.2-0.4,2.4-0.7,3.6-1c1.4-0.3,2.8-0.7,4.2-1.2l0.8-0.2c1.7-0.7,3.5-1.1,5.4-1.3C83.6,200.8,79.2,199.6,74.8,199.7z M61.3,202.5&#10;&#9;&#9;L61.3,202.5z"/>
	<path class="st1_diversity-83" d="M100.6,206c-8.5-4.7-19.9-5.5-29.2-2.7S56.2,213.7,54,223.1c-1.5,6.5-2.7,16.4,2.6,21.2&#10;&#9;&#9;c5.8,5.3,12.7,8.1,20.5,9.4c8,1.2,17.9,1.1,24.5-4.1s11-14.4,11.2-22.5C113.2,217,108,210.1,100.6,206z"/>
	<path class="st2_diversity-83" d="M85,255c-2.7,0-5.4-0.2-8-0.6c-8.5-1.3-15.3-4.4-20.9-9.5c-5.4-4.9-4.5-14.6-2.8-21.9&#10;&#9;&#9;c2.4-10.2,8.9-17.7,17.9-20.3c9.7-2.9,21.4-1.8,29.7,2.8l0,0c8.4,4.6,12.9,12.3,12.6,21.6c-0.3,8.5-5,18-11.5,23.1&#10;&#9;&#9;C97.2,254,90.7,255,85,255z M82.6,202.4c-3.7,0-7.4,0.5-11,1.5c-8.6,2.6-14.6,9.4-16.9,19.3c-1.3,5.7-2.8,15.9,2.4,20.5&#10;&#9;&#9;c5.4,4.9,12,7.9,20.2,9.2c5.9,0.9,16.8,1.6,24-4c6.2-4.8,10.7-13.9,10.9-22c0.4-11.2-6.3-17.3-11.9-20.4l0,0&#10;&#9;&#9;C94.8,203.8,88.7,202.3,82.6,202.4L82.6,202.4z"/>
	<path class="st1_diversity-83" d="M92.9,262.8l1.2,16.9c0,0-1.6,7.9-13.1,6s-13.8-9.5-13.8-9.5l-1.1-31.6c0,0,16.9-10.8,13-28.7&#10;&#9;&#9;c0,0,8,9.8,24.5,6.3c0,0,1.5,20.1,0.9,28.9C103.9,260.1,92.9,262.8,92.9,262.8z"/>
	<path class="st2_diversity-83" d="M84.2,286.7c-1.1,0-2.2-0.1-3.3-0.3c-11.8-1.9-14.2-9.6-14.3-9.9c0-0.1,0-0.1,0-0.2l-1.1-31.6&#10;&#9;&#9;c0-0.2,0.1-0.5,0.3-0.6c0.2-0.1,16.5-10.8,12.7-28c-0.1-0.4,0.2-0.8,0.5-0.8c0.3-0.1,0.5,0,0.7,0.2c0.1,0.1,7.9,9.4,23.9,6.1&#10;&#9;&#9;c0.2,0,0.4,0,0.6,0.1c0.2,0.1,0.3,0.3,0.3,0.5c0,0.2,1.5,20.3,0.9,29.1c-0.6,8.1-9.2,11.3-11.6,12l1.2,16.3c0,0.1,0,0.1,0,0.2&#10;&#9;&#9;C94.8,279.9,93.3,286.7,84.2,286.7z M67.9,276.2c0.3,0.8,2.8,7.2,13.2,8.9c10.1,1.6,12.1-4.6,12.3-5.4l-1.2-16.8&#10;&#9;&#9;c0-0.3,0.2-0.6,0.5-0.7c0.1,0,10.5-2.7,11.1-10.9c0.6-7.7-0.5-24.3-0.8-28.1c-12.3,2.3-19.8-2.5-22.8-5.1&#10;&#9;&#9;c2,15.5-11.1,25.5-13.4,27.1L67.9,276.2z"/>
	<path class="st1_diversity-83" d="M71.4,243.4c-0.5-1.5-1.5-2.8-2.8-3.7c-1.3-0.8-2.7-1.4-4.1-1.7c-0.8-0.3-1.6-0.3-2.4-0.2&#10;&#9;&#9;c-0.6,0.1-1.1,0.4-1.5,0.7c-1.2,0.7-2.1,1.8-2.5,3.1c-0.2,1.1-0.2,2.2,0.1,3.2c0.2,1.2,0.6,2.3,1.1,3.4c2.3,4.4,7.7,6.1,12.1,3.8&#10;&#9;&#9;c0,0,0.1,0,0.1-0.1"/>
	<path class="st2_diversity-83" d="M67.2,253.6c-0.9,0-1.9-0.1-2.8-0.4c-2.5-0.8-4.5-2.5-5.7-4.8c-0.6-1.1-1-2.3-1.2-3.5&#10;&#9;&#9;c-0.3-1.2-0.4-2.4-0.1-3.6c0.5-1.5,1.5-2.7,2.8-3.5c0.5-0.4,1.2-0.7,1.8-0.8c0.9-0.1,1.8,0,2.7,0.2c1.5,0.3,3,0.9,4.4,1.8&#10;&#9;&#9;c1.4,1,2.5,2.4,3.1,4.1c0.1,0.4-0.1,0.8-0.4,0.9c-0.4,0.1-0.8-0.1-0.9-0.4l0,0c-0.5-1.4-1.3-2.6-2.5-3.4c-1.2-0.7-2.5-1.3-3.9-1.6&#10;&#9;&#9;c-0.7-0.2-1.4-0.3-2.1-0.2c-0.5,0.1-0.9,0.3-1.3,0.6c-1,0.6-1.8,1.6-2.2,2.7c-0.2,1-0.1,1.9,0.1,2.9c0.2,1.1,0.6,2.2,1.1,3.2&#10;&#9;&#9;c2.1,4,7.1,5.6,11.2,3.5c0,0,0.1,0,0.1,0c0.3-0.2,0.8-0.1,0.9,0.3c0,0,0,0,0,0c0.2,0.3,0.1,0.8-0.2,1c0,0,0,0,0,0&#10;&#9;&#9;C70.4,253.3,68.8,253.6,67.2,253.6z"/>
	<path class="st1_diversity-83" d="M90.1,235.6c0,0,6.9,8.1,5.7,9.8s-5.3,1.1-5.3,1.1"/>
	<path class="st2_diversity-83" d="M92,247.3c-0.5,0-1.1,0-1.6-0.1c-0.4,0-0.7-0.3-0.7-0.7c0-0.4,0.3-0.7,0.7-0.7c0,0,0.1,0,0.1,0&#10;&#9;&#9;c0.9,0.1,3.8,0.2,4.6-0.9c0.4-0.8-2.3-5-5.7-8.9c-0.3-0.3-0.2-0.7,0.1-1c0.3-0.3,0.7-0.2,1,0.1c2.7,3.2,7.1,8.8,5.7,10.7&#10;&#9;&#9;C95.4,247.1,93.5,247.3,92,247.3z"/>
	<path class="st1_diversity-83" d="M95.3,251.2L82,246.6c0,0-2.5,4.9,2.3,9.6C89.5,261.3,95.3,251.2,95.3,251.2z"/>
	<path class="st2_diversity-83" d="M87.5,258.4c-1.4,0-2.7-0.6-3.6-1.6c-5.1-5-2.4-10.4-2.4-10.4c0.2-0.3,0.5-0.5,0.9-0.4l13.3,4.6&#10;&#9;&#9;c0.2,0.1,0.4,0.2,0.4,0.4c0.1,0.2,0.1,0.4,0,0.6c-0.1,0.2-3.6,6.2-7.8,6.8C87.9,258.3,87.7,258.4,87.5,258.4z M82.5,247.5&#10;&#9;&#9;c-0.4,1.3-1.1,4.8,2.4,8.2c0.8,0.9,1.9,1.3,3.1,1.2c2.7-0.4,5.3-3.8,6.3-5.4L82.5,247.5z"/>
	<path class="st2_diversity-83" d="M86.2,233.9c-0.1,0-0.3,0-0.4-0.1c-3.5-2.1-5.6-1.3-5.6-1.3c-0.4,0.1-0.8-0.1-0.9-0.4c-0.1-0.3,0-0.7,0.4-0.9&#10;&#9;&#9;c0.1,0,2.8-1.1,6.9,1.4c0.3,0.2,0.4,0.6,0.2,1C86.7,233.8,86.5,233.9,86.2,233.9L86.2,233.9z"/>
	<path class="st2_diversity-83" d="M94.8,234c-0.2,0-0.4-0.1-0.5-0.2c-0.3-0.3-0.3-0.7,0-1c0.1-0.1,0.3-0.2,0.5-0.2l0.6-0.3&#10;&#9;&#9;c1.3-0.8,4-2.3,6.7-1.2c0.4,0.2,0.5,0.6,0.4,0.9c-0.1,0.4-0.5,0.5-0.9,0.4c0,0,0,0,0,0c-2-0.8-4.3,0.4-5.5,1.1&#10;&#9;&#9;C95.7,233.7,95.3,233.9,94.8,234z"/>
	<path class="st2_diversity-83" d="M92.9,262.8c0,0-8.8,0.4-13-1.8c0,0,3.9,9.9,13.5,11.9L92.9,262.8z"/>
	<path class="st2_diversity-83" d="M93.5,273.7h-0.2c-9.9-2.1-13.9-11.9-14-12.4c-0.1-0.3,0-0.6,0.2-0.8c0.2-0.2,0.5-0.2,0.8-0.1&#10;&#9;&#9;c4,2.1,12.5,1.7,12.6,1.7c0.4,0,0.7,0.3,0.7,0.7l0.5,10.2c0,0.2-0.1,0.4-0.2,0.6C93.8,273.7,93.6,273.7,93.5,273.7z M81.4,262.4&#10;&#9;&#9;c1.5,2.7,5.1,8,11.4,9.7l-0.5-8.5C90.4,263.6,85.2,263.6,81.4,262.4z"/>
	<path class="st1_diversity-83" d="M49.5,324.7c2.6-9.6-6.2-26.4-8.7-34.8c-2.3-7.8-13-28.2-11-36.2c0,0,4.9-19.4,0.2-16.5&#10;&#9;&#9;c-2.6,1.6-4.5,9.6-4.5,9.6s-2.9-17.6-7.5-19.4s-13.7,9.8-12.3,14.7c4.5,16.2,6.2,33.3,8.3,49.9c1.8,14.9,1.5,38.7,21.9,39.8&#10;&#9;&#9;C44.3,332.2,48.2,329.3,49.5,324.7z"/>
	<path class="st2_diversity-83" d="M37.5,332.5c-0.5,0-1.1,0-1.7,0c-18.6-1-20.6-20.6-22-34.9c-0.2-1.9-0.4-3.8-0.6-5.5l-0.7-5.7&#10;&#9;&#9;C10.8,271.7,9,256.6,5,242.3c-1-3.4,2.6-9.5,6.4-13c2.6-2.4,5-3.2,6.8-2.6c3.8,1.5,6.3,11.7,7.4,17c0.8-2.6,2.2-6,4-7.1&#10;&#9;&#9;c0.6-0.5,1.4-0.5,2.1-0.1c2.5,1.8-0.3,13.8-1.3,17.4c-1.4,5.4,3.6,17.5,7.3,26.3c1.6,3.9,3,7.2,3.7,9.5s1.8,5,2.9,7.9&#10;&#9;&#9;c3.5,8.9,7.8,20,5.8,27.2l0,0C48.8,330,44.5,332.5,37.5,332.5z M17,227.9c-1.2,0-2.9,0.8-4.6,2.4c-3.9,3.5-6.7,9-6,11.6&#10;&#9;&#9;c4,14.4,5.8,29.6,7.6,44.3l0.7,5.7c0.2,1.7,0.4,3.6,0.6,5.5c1.4,14.5,3.2,32.7,20.7,33.6c7.3,0.4,11.5-1.8,12.8-6.5&#10;&#9;&#9;c1.9-6.9-2.4-17.7-5.8-26.4c-1.2-3-2.3-5.8-3-8s-2-5.5-3.6-9.3c-3.9-9.5-8.9-21.3-7.4-27.2c1.8-7,2.9-15.1,1.8-15.9&#10;&#9;&#9;c0,0-0.2,0-0.5,0.2c-2,1.2-3.7,7-4.1,9.2c-0.1,0.3-0.4,0.6-0.7,0.6c-0.3,0-0.6-0.3-0.7-0.6c-0.8-4.8-3.6-17.5-7-18.9&#10;&#9;&#9;C17.5,228,17.3,227.9,17,227.9z M49.5,324.7L49.5,324.7z"/>
	<path class="st2_diversity-83" d="M15.4,255.2h-0.2c-0.4-0.1-0.6-0.5-0.5-0.8c0,0,0,0,0,0c1.3-5.4,10.1-8.1,10.5-8.2c0.4-0.1,0.8,0.1,0.9,0.5&#10;&#9;&#9;s-0.1,0.8-0.5,0.9l0,0c-0.1,0-8.4,2.6-9.6,7.2C16,255,15.8,255.2,15.4,255.2z"/>
	<path class="st2_diversity-83" d="M112.9,326.3c-0.3,0-0.6-0.3-0.7-0.6l-6-39.6c-0.1-0.4,0.1-0.8,0.5-0.8c0.4-0.1,0.8,0.1,0.8,0.5&#10;&#9;&#9;c0,0,0,0.1,0,0.1l6,39.6c0.1,0.4-0.2,0.7-0.6,0.8c0,0,0,0,0,0L112.9,326.3z"/>
	<path class="st2_diversity-83" d="M63.8,301.6c-0.1,0-0.2,0-0.3,0c-0.4-0.1-0.5-0.5-0.4-0.9c0,0,0,0,0,0l7.5-19c0.1-0.4,0.5-0.5,0.9-0.4&#10;&#9;&#9;c0.4,0.1,0.5,0.5,0.4,0.9c0,0,0,0,0,0l-7.5,19C64.3,301.4,64,301.6,63.8,301.6z"/>
	<path class="st2_diversity-83" d="M73.1,288.8c-0.1,0-0.1,0-0.2,0l-8.1-2.8c-0.4-0.1-0.6-0.5-0.4-0.9c0.1-0.4,0.5-0.6,0.9-0.4c0,0,0,0,0,0&#10;&#9;&#9;l8.1,2.7c0.4,0.1,0.6,0.5,0.4,0.9C73.6,288.6,73.4,288.7,73.1,288.8L73.1,288.8z"/>
	<path class="st2_diversity-83" d="M71.3,295.4c-0.1,0-0.2,0-0.3,0l-8.3-3.3c-0.4-0.2-0.5-0.6-0.4-0.9c0.1-0.4,0.5-0.5,0.9-0.4c0,0,0,0,0,0&#10;&#9;&#9;l8.3,3.3c0.4,0.1,0.5,0.6,0.4,0.9C71.8,295.2,71.6,295.4,71.3,295.4z"/>
</g>
<g id="Character_Female_2_diversity-83">
	<path class="st0_diversity-83 targetColor" d="M247.1,290.6c3-9.5,8.4-12.9,31.1-25s56-3,68,4.2s20.8,17.8,27.5,26.1s6.7,29.5,6.7,29.5H244.5&#10;&#9;&#9;C244.5,325.4,244.2,300.1,247.1,290.6z" style="fill: rgb(104, 225, 253);"/>
	<line class="st4_diversity-83" x1="345.5" y1="325.4" x2="342.8" y2="293.4"/>
	<path class="st2_diversity-83" d="M345.5,326.1c-0.4,0-0.7-0.3-0.7-0.6l-2.7-31.9c0-0.4,0.3-0.7,0.6-0.8c0.4,0,0.7,0.3,0.8,0.6l2.7,31.9&#10;&#9;&#9;C346.2,325.7,345.9,326,345.5,326.1C345.5,326.1,345.5,326.1,345.5,326.1L345.5,326.1z"/>
	<path class="st1_diversity-83" d="M307.8,190.9c16.2,1.4,23.8,9.2,28.1,43c3.4,26.6,1.2,24.5,18.5,40.8c0,0-15.8,21.6-47.8,21.6&#10;&#9;&#9;s-54.1-16.6-54.1-16.6s24.2-14.8,23.7-29.3C274.7,199.9,291.6,189.5,307.8,190.9z"/>
	<path class="st2_diversity-83" d="M306.7,297c-19.4-0.1-38.4-6-54.5-16.8c-0.2-0.1-0.3-0.4-0.3-0.6c0-0.2,0.1-0.4,0.3-0.6&#10;&#9;&#9;c0.2-0.1,23.8-14.7,23.4-28.6c-0.8-26.9,3.5-45.1,12.9-54c5.1-4.8,11.6-6.9,19.3-6.2l0,0c17.9,1.5,24.6,11.7,28.7,43.6&#10;&#9;&#9;c0.4,3,0.7,5.6,1,7.9c2.2,18.1,2.2,18.1,17.3,32.3l0.1,0.1c0.3,0.2,0.3,0.6,0.1,0.9C354.9,275.3,338.6,297,306.7,297z M253.9,279.7&#10;&#9;&#9;c15.7,10.2,34.1,15.8,52.8,15.9c28.5,0,44.2-17.7,46.8-20.9c-15.1-14.2-15.1-14.3-17.3-32.8c-0.3-2.3-0.6-4.9-1-7.9&#10;&#9;&#9;c-4.4-34.4-12.4-41.1-27.5-42.4c-7.4-0.6-13.5,1.3-18.3,5.9c-9.1,8.6-13.3,26.4-12.5,52.9C277.4,263.7,258.3,276.8,253.9,279.7z"/>
	<ellipse class="st1_diversity-83" cx="305.3" cy="229.5" rx="18.1" ry="25.9"/>
	<path class="st2_diversity-83" d="M305.3,256.1c-16.6,0-18.9-12.8-18.9-26.6c0-14.3,0-26.6,18.9-26.6s18.8,12.3,18.8,26.6&#10;&#9;&#9;C324.2,243.3,321.9,256.1,305.3,256.1z M305.3,204.3c-17.5,0-17.5,10.6-17.5,25.2c0,15.1,3,25.2,17.5,25.2s17.4-10.1,17.4-25.2&#10;&#9;&#9;C322.8,214.9,322.8,204.3,305.3,204.3z"/>
	<path class="st1_diversity-83" d="M302,225.5c0,0-6.9,8.1-5.7,9.8s5.2,1.1,5.2,1.1"/>
	<path class="st2_diversity-83" d="M300.1,237.2c-1.4,0-3.4-0.2-4.3-1.5c-1.3-1.9,3-7.5,5.7-10.6c0.2-0.3,0.7-0.3,1-0.1c0,0,0,0,0,0&#10;&#9;&#9;c0.3,0.2,0.3,0.7,0.1,1c0,0,0,0,0,0c-3.4,4-6,8.2-5.6,8.9c0.8,1.1,3.6,1,4.6,0.8c0.4,0,0.7,0.2,0.8,0.6c0.1,0.4-0.2,0.7-0.6,0.8&#10;&#9;&#9;c0,0,0,0,0,0C301.1,237.2,300.6,237.2,300.1,237.2z"/>
	
		<ellipse transform="matrix(1 -5.585025e-03 5.585025e-03 1 -1.2415 1.6489)" class="st2_diversity-83" cx="294.6" cy="223.1" rx="1.5" ry="2.1"/>
	
		<ellipse transform="matrix(1 -5.585025e-03 5.585025e-03 1 -1.2413 1.7355)" class="st2_diversity-83" cx="310.1" cy="223.1" rx="1.5" ry="2.1"/>
	<path class="st1_diversity-83" d="M296.8,241.1l13.3-4.6c0,0,2.5,4.9-2.3,9.6C302.6,251.2,296.8,241.1,296.8,241.1z"/>
	<path class="st2_diversity-83" d="M304.6,248.3c-0.2,0-0.4,0-0.6,0c-4.2-0.6-7.7-6.5-7.8-6.8c-0.2-0.3-0.1-0.8,0.3-1c0,0,0.1,0,0.1,0l13.3-4.6&#10;&#9;&#9;c0.3-0.1,0.7,0,0.9,0.3c0,0.1,2.6,5.4-2.4,10.4C307.3,247.7,306,248.2,304.6,248.3z M297.8,241.4c1,1.5,3.6,5,6.4,5.4&#10;&#9;&#9;c1.2,0.1,2.3-0.3,3.1-1.2c3.5-3.4,2.8-6.9,2.4-8.2L297.8,241.4z"/>
	<path class="st2_diversity-83" d="M276.2,326.1c-0.4,0-0.7-0.3-0.7-0.7v0v-27.8c0-0.4,0.3-0.7,0.7-0.7c0.4,0,0.7,0.3,0.7,0.7v27.8&#10;&#9;&#9;C276.9,325.8,276.6,326.1,276.2,326.1z"/>
	<path class="st3_diversity-83" d="M307.1,272.1c-6.3-0.1-12.6-1-18.7-2.7c-0.4-0.1-0.6-0.5-0.5-0.9c0.1-0.4,0.5-0.6,0.8-0.5c0,0,0,0,0,0&#10;&#9;&#9;c15.9,4.3,26.7,2.5,33,0.2c6.8-2.5,9.8-6,9.9-6c0.3-0.3,0.7-0.3,1-0.1c0.3,0.2,0.3,0.7,0.1,1c0,0,0,0,0,0&#10;&#9;&#9;C332.2,263.6,324.8,272.1,307.1,272.1z"/>
	<path class="st2_diversity-83" d="M244.5,326.1c-0.3,0-0.6-0.2-0.7-0.6c-3.5-20.2,4.5-39.5,4.6-39.7c0.2-0.4,0.6-0.5,0.9-0.4&#10;&#9;&#9;c0.4,0.2,0.5,0.6,0.4,0.9c0,0,0,0,0,0c-0.1,0.2-7.9,19.2-4.5,39c0.1,0.4-0.2,0.7-0.5,0.8c0,0,0,0,0,0L244.5,326.1z"/>
</g>
<g id="Character_Male_2_diversity-83">
	<path class="st3_diversity-83" d="M377,195.8c0,0,13.6-26.5,15.9-27.4s9,1.8,8.5,3.2s-3.3,14.1-3.3,14.1s7.3-4.7,8.1-2.8s-8.2,11.4-8.2,11.4&#10;&#9;&#9;l-12.2,20.3L377,195.8z"/>
	<path class="st2_diversity-83" d="M385.8,215.3L385.8,215.3c-0.3,0-0.5-0.2-0.6-0.4l-8.9-18.8c-0.1-0.2-0.1-0.4,0-0.6&#10;&#9;&#9;c3.2-6.3,13.9-26.8,16.3-27.8c2.2-0.9,7.3,0.9,8.9,2.5c0.5,0.4,0.7,1,0.6,1.6c-0.3,0.9-2,8.1-2.9,12.4c2.1-1.2,5.3-2.9,6.8-2.4&#10;&#9;&#9;c0.4,0.1,0.7,0.4,0.9,0.8c0.8,2-4.8,8.5-8.3,12.2L386.4,215C386.3,215.2,386.1,215.3,385.8,215.3z M377.8,195.8l8.1,17.2l11.5-19.1&#10;&#9;&#9;c0,0,0.1-0.1,0.1-0.1c4-4.3,8.2-9.6,8-10.7c-0.6-0.3-3.9,1.2-7,3.2c-0.2,0.2-0.6,0.2-0.8,0c-0.2-0.2-0.4-0.5-0.3-0.8&#10;&#9;&#9;c0.1-0.5,2.7-12.3,3.3-14.1c-0.6-0.6-1.3-1.1-2.2-1.5c-2.1-0.9-4.4-1.4-5.4-1C391.7,169.9,384.2,183.4,377.8,195.8L377.8,195.8z"/>
	<path class="st0_diversity-83 targetColor" d="M378,237.7l14.8-33.3l-16.5-14c0,0-40.6,52.3-23.6,65.7l38.8,38l35.6-25L378,237.7z" style="fill: rgb(104, 225, 253);"/>
	<path class="st1_diversity-83" d="M424.3,214.7c0,0,1.5-7.6,9.7-12.9s31-1.8,35.1,7.5s-8,33.6-8,33.6l-38.9,10.5L424.3,214.7z"/>
	<path class="st2_diversity-83" d="M422.2,254c-0.4,0-0.7-0.3-0.7-0.7c0,0,0,0,0-0.1l2.1-38.6c0,0,0-0.1,0-0.1c0.1-0.3,1.6-8,10.1-13.4&#10;&#9;&#9;c4.9-3.1,14.8-3.5,23.7-0.8c6.4,1.9,10.8,5,12.4,8.6c4.2,9.5-7.5,33.2-8,34.2c-0.1,0.2-0.3,0.3-0.5,0.4L422.4,254&#10;&#9;&#9;C422.3,254,422.3,254,422.2,254z M425,214.8l-2,37.6l37.6-10.1c1.3-2.8,11.6-24.3,7.8-32.7c-1.5-3.2-5.6-6.1-11.5-7.8&#10;&#9;&#9;c-8.4-2.5-18-2.2-22.5,0.7C429.8,205.2,426.5,209.6,425,214.8z"/>
	<path class="st2_diversity-83" d="M459.2,325.4c2.8-20.9,4.6-41.5,2.3-45.4c-7.9-13.5-43.6-5.2-50.2-2.2c-2.6,1.2-1,22.3-5.2,47.7H459.2z"/>
	<path class="st0_diversity-83 targetColor" d="M492.8,326.3c0,0,7.2-35.6-3.7-46.2s-37-9-37-9s-41.3-5.7-54,0.8c-5.2,2.7-11.8,25.9-18.1,53.4h35.7l9.8-47.4&#10;&#9;&#9;l32,1L447,325.4L492.8,326.3z" style="fill: rgb(104, 225, 253);"/>
	<path class="st3_diversity-83" d="M428.4,259.4l-2.8,18.6c0,0,1.3,12.3,13.7,10.8c7.5-1,14.1-5.3,18-11.7l3.8-34.2c0,0-8.4-5.8-3.6-25&#10;&#9;&#9;c-11.2,0.6-22.4-0.5-33.3-3.1c0,0-6.6,24.4-6.2,34C418.4,258.4,428.4,259.4,428.4,259.4z"/>
	<path class="st2_diversity-83" d="M437.3,289.6c-2.7,0.1-5.4-0.8-7.5-2.4c-4.2-3.3-4.8-8.9-4.8-9.1c0-0.1,0-0.1,0-0.2l2.7-17.9&#10;&#9;&#9;c-2.4-0.5-9.9-2.8-10.3-11.3c-0.4-9.6,6-33.2,6.3-34.2c0.1-0.4,0.5-0.6,0.9-0.5c10.8,2.6,21.9,3.6,33,3.1c0.2,0,0.5,0.1,0.6,0.2&#10;&#9;&#9;c0.2,0.2,0.2,0.4,0.1,0.6c-4.7,18.4,3.2,24.2,3.3,24.3c0.2,0.2,0.3,0.4,0.3,0.7l-3.8,34.2c0,0.1,0,0.2-0.1,0.3&#10;&#9;&#9;c-4,6.6-10.9,11.1-18.5,12.1C438.7,289.6,438,289.6,437.3,289.6z M426.4,278c0.1,0.7,0.8,5.3,4.3,8c2.2,1.8,5.1,2.4,8.6,2&#10;&#9;&#9;c7.2-1,13.5-5.1,17.4-11.2l3.7-33.7c-1.6-1.4-7.7-7.8-3.7-24.6c-10.7,0.4-21.4-0.6-31.8-3c-1.1,4-6.4,24.6-6,33.1&#10;&#9;&#9;c0.4,8.8,9.3,10,9.7,10c0.2,0,0.4,0.1,0.5,0.3c0.1,0.2,0.2,0.4,0.1,0.5L426.4,278z"/>
	<path class="st2_diversity-83" d="M427,269.1c0,0,4.7,1.5,10.7-3s5.8-7.6,5.8-7.6s-7.3,3.4-15,0.9L427,269.1z"/>
	<path class="st2_diversity-83" d="M429,270c-0.8,0-1.5-0.1-2.3-0.3c-0.3-0.1-0.5-0.4-0.5-0.8l1.4-9.7c0-0.2,0.1-0.4,0.3-0.5&#10;&#9;&#9;c0.2-0.1,0.4-0.1,0.6-0.1c7.4,2.4,14.5-0.8,14.5-0.8c0.2-0.1,0.4-0.1,0.6,0c0.2,0.1,0.3,0.3,0.3,0.6c0,0.4,0,3.5-6.1,8.2&#10;&#9;&#9;C435.5,268.7,432.3,269.9,429,270z M427,269.1L427,269.1z M427.8,268.6c1.4,0.2,5,0.4,9.5-3c3.4-2.6,4.7-4.7,5.2-5.9&#10;&#9;&#9;c-4.3,1.5-9,1.7-13.5,0.6L427.8,268.6z"/>
	<path class="st3_diversity-83" d="M439.6,232.3c0,0-6.9,10-5.3,11.8s6.1,0.7,6.1,0.7"/>
	<path class="st2_diversity-83" d="M437.5,245.8c-1.4,0.1-2.7-0.3-3.8-1.3c-1.8-2,3.1-9.5,5.2-12.6c0.2-0.3,0.7-0.4,1-0.2c0.3,0.2,0.4,0.7,0.2,1&#10;&#9;&#9;c-3.4,5-6,10.1-5.4,10.9c1,1.2,4.3,0.7,5.4,0.4c0.4-0.1,0.8,0.1,0.9,0.5c0.1,0.4-0.1,0.8-0.5,0.9c0,0,0,0,0,0&#10;&#9;&#9;C439.5,245.6,438.5,245.8,437.5,245.8z"/>
	<path class="st2_diversity-83" d="M438.5,252.6H438c-5.8-0.2-9.9-4.8-10.1-5c-0.3-0.3-0.3-0.7,0-1c0,0,0,0,0,0c0.3-0.3,0.7-0.2,1,0c0,0,0,0,0,0&#10;&#9;&#9;c0,0,4,4.3,9.1,4.5c3.1,0,6-1.2,8.1-3.4c0.3-0.3,0.7-0.3,1,0c0.3,0.3,0.3,0.7,0,1c0,0,0,0,0,0C444.9,251.2,441.8,252.6,438.5,252.6&#10;&#9;&#9;z"/>
	
		<ellipse transform="matrix(3.856220e-02 -0.9993 0.9993 3.856220e-02 199.5002 669.286)" class="st2_diversity-83" cx="447.6" cy="231" rx="2.8" ry="1.2"/>
	
		<ellipse transform="matrix(3.856220e-02 -0.9993 0.9993 3.856220e-02 184.8376 650.1921)" class="st2_diversity-83" cx="430.3" cy="229" rx="2.8" ry="1.2"/>
	<path class="st3_diversity-83" d="M453.9,237c1.3-1.7,2.9-3.2,4.7-4.3c1-0.7,2.1-1,3.3-1c0.9,0.1,1.8,0.5,2.6,1.1c2.3,1.7,3.7,4.2,4,7.1&#10;&#9;&#9;c0.1,1.3-0.1,2.6-0.5,3.8c-0.9,1.8-2.4,3.3-4.3,4.1c-1.9,0.8-3.8,1.4-5.8,1.8"/>
	<path class="st2_diversity-83" d="M457.8,250.2c-0.4,0-0.7-0.3-0.8-0.7c0-0.4,0.2-0.7,0.6-0.8c1.9-0.4,3.8-0.9,5.6-1.8c1.7-0.8,3.1-2.1,3.9-3.8&#10;&#9;&#9;c0.4-1.1,0.6-2.3,0.5-3.4c-0.3-2.6-1.6-5-3.7-6.5c-0.6-0.5-1.4-0.8-2.2-0.9c-1,0-2,0.4-2.8,0.9c-1.7,1.1-3.3,2.5-4.5,4.1&#10;&#9;&#9;c-0.2,0.3-0.7,0.4-1,0.2c-0.3-0.2-0.4-0.7-0.1-1c1.3-1.8,3-3.3,4.9-4.5c1.1-0.7,2.4-1.2,3.7-1.1c1.1,0.1,2.1,0.5,3,1.2&#10;&#9;&#9;c2.4,1.8,4,4.6,4.3,7.6c0.1,1.4-0.1,2.8-0.6,4.1c-1,2-2.6,3.6-4.6,4.5c-1.9,0.9-3.9,1.5-5.9,1.9L457.8,250.2z"/>
	<path class="st0_diversity-83 targetColor" d="M482.8,305.1c-3.6,4.7-8.5,12-13.7,20.3h13.7V305.1z" style="fill: rgb(104, 225, 253);"/>
	<line class="st4_diversity-83" x1="469.1" y1="325.4" x2="482.8" y2="294"/>
	<path class="st2_diversity-83" d="M469.1,326.1c-0.4,0-0.7-0.3-0.7-0.7c0-0.1,0-0.2,0.1-0.3l13.7-31.3c0.2-0.4,0.6-0.5,1-0.4c0,0,0,0,0,0&#10;&#9;&#9;c0.4,0.2,0.5,0.6,0.4,0.9c0,0,0,0,0,0l-13.7,31.3C469.7,325.9,469.4,326.1,469.1,326.1z"/>
	<path class="st2_diversity-83" d="M387.1,190.4c-0.2,0-0.3,0-0.4-0.1c-0.3-0.2-0.4-0.7-0.1-1c4.4-5.9,11.4-4.3,11.7-4.3c0.4,0.1,0.6,0.4,0.6,0.8&#10;&#9;&#9;c-0.1,0.4-0.4,0.6-0.8,0.6c0,0,0,0-0.1,0c-0.3-0.1-6.5-1.4-10.2,3.7C387.6,190.3,387.3,190.4,387.1,190.4z"/>
</g>
</svg>