<svg version="1.1" id="Layer_1" xmlns="http://www.w3.org/2000/svg" xmlns:xlink="http://www.w3.org/1999/xlink" x="0px" y="0px" viewBox="0 0 500 500" style="width: 166px;" xml:space="preserve" data-imageid="dream-73" imageName="Dream" class="illustrations_image">
<style type="text/css">
	.st0_dream-73{fill:#FFFFFF;}
	.st1_dream-73{fill:#D1D3D4;}
	.st2_dream-73{fill:#231F20;}
	.st3_dream-73{fill:#68E1FD;}
</style>
<g id="Stars_and_Planets_dream-73">
	<polygon class="st0_dream-73" points="115.6,315.6 102.7,310.2 90.9,317.8 92,303.8 81.1,294.9 94.8,291.7 99.9,278.6 107.2,290.6 &#10;&#9;&#9;121.2,291.4 112.1,302.1 &#9;"/>
	<path class="st1_dream-73" d="M90.9,318.5c-0.4,0-0.6-0.3-0.6-0.6c0,0,0,0,0,0l1.1-13.7l-10.6-8.7c-0.3-0.2-0.3-0.6-0.1-0.9&#10;&#9;&#9;c0.1-0.1,0.2-0.2,0.3-0.2l13.3-3.1l5-12.8c0.1-0.2,0.3-0.4,0.5-0.4c0.2,0,0.5,0.1,0.6,0.3l7.1,11.7l13.7,0.8c0.2,0,0.5,0.2,0.6,0.4&#10;&#9;&#9;c0.1,0.2,0.1,0.5-0.1,0.7l-9,10.4l3.5,13.3c0.1,0.3-0.1,0.7-0.4,0.8c-0.1,0-0.3,0-0.4,0l-12.7-5.3l-11.5,7.4&#10;&#9;&#9;C91.1,318.4,91,318.4,90.9,318.5z M82.5,295.2l9.9,8.1c0.2,0.1,0.2,0.3,0.2,0.5l-1.1,12.7l10.7-6.9c0.2-0.1,0.4-0.1,0.6,0l11.8,4.9&#10;&#9;&#9;l-3.2-12.4c-0.1-0.2,0-0.4,0.1-0.6l8.3-9.7l-12.8-0.7c-0.2,0-0.4-0.1-0.5-0.3l-6.7-11l-4.6,11.9c-0.1,0.2-0.2,0.3-0.4,0.4&#10;&#9;&#9;L82.5,295.2z"/>
	<polygon class="st0_dream-73" points="433.9,226.4 425.3,218.3 413.8,220.9 418.8,210.2 412.8,200 424.5,201.4 432.3,192.6 434.5,204.2 &#10;&#9;&#9;445.4,208.9 435,214.6 &#9;"/>
	<path class="st1_dream-73" d="M433.9,226.9c-0.1,0-0.3-0.1-0.4-0.1l-8.4-7.9l-11.2,2.5c-0.2,0-0.4,0-0.5-0.2c-0.1-0.2-0.2-0.4-0.1-0.6&#10;&#9;&#9;l4.9-10.4l-5.8-9.9c-0.1-0.2-0.1-0.4,0-0.6c0.1-0.2,0.3-0.3,0.5-0.2l11.4,1.4l7.6-8.6c0.1-0.2,0.3-0.2,0.5-0.2&#10;&#9;&#9;c0.2,0.1,0.3,0.2,0.4,0.4l2.2,11.3l10.5,4.6c0.2,0.1,0.3,0.3,0.3,0.5c0,0.2-0.1,0.4-0.3,0.5l-10.1,5.6l-1.1,11.5&#10;&#9;&#9;c0,0.2-0.2,0.4-0.3,0.4C434,226.9,434,226.9,433.9,226.9z M425.3,217.8c0.1,0,0.3,0.1,0.4,0.1l7.8,7.3l1-10.7&#10;&#9;&#9;c0-0.2,0.1-0.3,0.3-0.4l9.4-5.2l-9.8-4.3c-0.2-0.1-0.3-0.2-0.3-0.4l-2-10.5l-7.1,8c-0.1,0.1-0.3,0.2-0.5,0.2l-10.6-1.3l5.4,9.2&#10;&#9;&#9;c0.1,0.2,0.1,0.3,0,0.5l-4.5,9.7l10.5-2.3L425.3,217.8z"/>
	<polygon class="st0_dream-73" points="394.9,202 389.3,196.7 381.7,198.4 385,191.4 381.1,184.8 388.8,185.7 393.9,179.9 395.3,187.5 &#10;&#9;&#9;402.4,190.6 395.7,194.3 &#9;"/>
	<path class="st1_dream-73" d="M394.9,202.3c-0.1,0-0.2,0-0.2-0.1l-5.5-5.1l-7.4,1.6c-0.1,0-0.3,0-0.4-0.1c-0.1-0.1-0.1-0.2,0-0.4l3.2-6.8&#10;&#9;&#9;l-3.8-6.5c-0.1-0.2,0-0.4,0.1-0.5c0.1,0,0.1-0.1,0.2,0l7.5,0.9l5-5.6c0.1-0.1,0.2-0.1,0.4-0.1c0.1,0,0.2,0.1,0.2,0.3l1.4,7.4l6.9,3&#10;&#9;&#9;c0.1,0.1,0.2,0.2,0.2,0.3c0,0.1-0.1,0.3-0.2,0.3l-6.6,3.7l-0.7,7.5c0,0.1-0.1,0.3-0.2,0.3L394.9,202.3z M389.3,196.3&#10;&#9;&#9;c0.1,0,0.2,0,0.2,0.1l5.1,4.8l0.7-7c0-0.1,0.1-0.2,0.2-0.3l6.1-3.4l-6.4-2.8c-0.1,0-0.2-0.1-0.2-0.2l-1.3-6.9l-4.7,5.3&#10;&#9;&#9;c-0.1,0.1-0.2,0.1-0.3,0.1l-7-0.9l3.5,6c0.1,0.1,0.1,0.2,0,0.3l-3,6.4l6.8-1.5L389.3,196.3z"/>
	<polygon class="st0_dream-73" points="123.4,139.6 112.8,137.8 105.3,145.5 103.8,134.9 94.1,130.2 103.7,125.4 105.2,114.8 112.8,122.4 &#10;&#9;&#9;123.3,120.6 118.4,130.1 &#9;"/>
	<path class="st1_dream-73" d="M105.3,146c0,0-0.1,0-0.1,0c-0.2-0.1-0.3-0.2-0.3-0.4l-1.5-10.4l-9.4-4.6c-0.2-0.1-0.3-0.2-0.3-0.4&#10;&#9;&#9;c0-0.2,0.1-0.4,0.3-0.4l9.4-4.7l1.5-10.4c0-0.2,0.2-0.3,0.3-0.4c0.2-0.1,0.4,0,0.5,0.1l7.3,7.5l10.3-1.8c0.2,0,0.4,0,0.5,0.2&#10;&#9;&#9;c0.1,0.2,0.1,0.4,0,0.5l-4.8,9.3l4.9,9.3c0.1,0.2,0.1,0.4,0,0.5c-0.1,0.2-0.3,0.2-0.5,0.2l-10.3-1.7l-7.3,7.5&#10;&#9;&#9;C105.6,146,105.5,146,105.3,146z M95.2,130.2l8.8,4.3c0.1,0.1,0.2,0.2,0.3,0.4l1.4,9.6l6.8-7c0.1-0.1,0.3-0.2,0.4-0.1l9.6,1.6&#10;&#9;&#9;l-4.5-8.6c-0.1-0.1-0.1-0.3,0-0.4l4.5-8.7l-9.6,1.7c-0.2,0-0.3,0-0.4-0.1l-6.8-7l-1.4,9.7c0,0.2-0.1,0.3-0.3,0.4L95.2,130.2z"/>
	<circle class="st0_dream-73" cx="127.2" cy="208.2" r="5.9"/>
	<path class="st1_dream-73" d="M127.2,214.6c-3.6,0-6.4-2.9-6.4-6.4c0-3.6,2.9-6.4,6.4-6.5c3.6,0,6.4,2.9,6.4,6.4c0,0,0,0,0,0&#10;&#9;&#9;C133.6,211.7,130.7,214.6,127.2,214.6z M127.2,202.7c-3,0-5.5,2.4-5.5,5.5s2.4,5.5,5.5,5.5s5.5-2.4,5.5-5.5&#10;&#9;&#9;C132.7,205.2,130.2,202.7,127.2,202.7z"/>
	<circle class="st0_dream-73" cx="365.1" cy="357.7" r="4.4"/>
	<path class="st1_dream-73" d="M365.1,362.6c-2.7,0-4.9-2.2-4.9-4.9s2.2-4.9,4.9-4.9c2.7,0,4.9,2.2,4.9,4.9&#10;&#9;&#9;C370,360.4,367.8,362.6,365.1,362.6L365.1,362.6z M365.1,353.8c-2.2,0-3.9,1.8-3.9,3.9c0,2.2,1.8,3.9,3.9,3.9s3.9-1.8,3.9-3.9&#10;&#9;&#9;c0,0,0,0,0,0C369,355.5,367.2,353.8,365.1,353.8C365.1,353.8,365.1,353.8,365.1,353.8z"/>
	<circle class="st0_dream-73" cx="127.2" cy="353.3" r="19.3"/>
	<path class="st1_dream-73" d="M127.2,373c-10.9,0-19.8-8.9-19.7-19.8c0-10.9,8.9-19.8,19.8-19.7c10.9,0,19.7,8.9,19.7,19.8&#10;&#9;&#9;C147,364.2,138.1,373,127.2,373z M127.2,334.4c-10.4,0-18.8,8.4-18.8,18.8c0,10.4,8.4,18.8,18.8,18.8c10.4,0,18.8-8.4,18.8-18.8&#10;&#9;&#9;C146,342.9,137.6,334.5,127.2,334.4L127.2,334.4z"/>
	<circle class="st0_dream-73" cx="422.7" cy="249" r="3.2"/>
	<path class="st1_dream-73" d="M422.7,252.7c-2,0-3.7-1.7-3.7-3.7c0-2,1.7-3.7,3.7-3.7c2,0,3.7,1.7,3.7,3.7l0,0&#10;&#9;&#9;C426.4,251.1,424.7,252.7,422.7,252.7z M422.7,246.3c-1.5,0-2.8,1.2-2.8,2.7s1.2,2.8,2.7,2.8c1.5,0,2.8-1.2,2.8-2.7c0,0,0,0,0,0&#10;&#9;&#9;C425.4,247.5,424.2,246.3,422.7,246.3L422.7,246.3z"/>
	<circle class="st0_dream-73" cx="339.8" cy="375.6" r="3.1"/>
	<path class="st1_dream-73" d="M339.8,379.1c-1.9,0-3.4-1.5-3.4-3.5s1.5-3.4,3.5-3.4c1.9,0,3.4,1.5,3.4,3.4&#10;&#9;&#9;C343.2,377.6,341.7,379.1,339.8,379.1L339.8,379.1z M339.8,372.9c-1.5,0-2.8,1.2-2.8,2.8c0,1.5,1.2,2.8,2.8,2.8&#10;&#9;&#9;c1.5,0,2.8-1.2,2.8-2.8C342.6,374.1,341.3,372.9,339.8,372.9z"/>
	<path class="st1_dream-73" d="M401.6,358.3c-0.3,0-0.6-0.3-0.6-0.6v-4.4c0-0.3,0.3-0.6,0.6-0.6s0.6,0.3,0.6,0.6v4.4&#10;&#9;&#9;C402.2,358,401.9,358.3,401.6,358.3z"/>
	<path class="st1_dream-73" d="M401.6,367.2c-0.3,0-0.6-0.3-0.6-0.6l0,0v-4.4c0-0.3,0.3-0.6,0.6-0.6s0.6,0.3,0.6,0.6v4.4&#10;&#9;&#9;C402.2,366.9,401.9,367.2,401.6,367.2L401.6,367.2z"/>
	<path class="st1_dream-73" d="M408.2,360.5h-4.4c-0.4,0-0.6-0.4-0.6-0.7c0-0.3,0.3-0.5,0.6-0.6h4.4c0.4,0,0.6,0.4,0.6,0.7&#10;&#9;&#9;C408.7,360.3,408.5,360.5,408.2,360.5z"/>
	<path class="st1_dream-73" d="M399.4,360.5H395c-0.4,0-0.6-0.4-0.6-0.7c0-0.3,0.3-0.5,0.6-0.6h4.4c0.4,0,0.6,0.4,0.6,0.7&#10;&#9;&#9;C399.9,360.3,399.7,360.5,399.4,360.5L399.4,360.5z"/>
	<path class="st1_dream-73" d="M168.3,365c-0.3,0-0.6-0.3-0.6-0.6l0,0v-4.4c0-0.3,0.3-0.6,0.6-0.6c0.3,0,0.6,0.3,0.6,0.6v4.4&#10;&#9;&#9;C168.9,364.7,168.6,365,168.3,365z"/>
	<path class="st1_dream-73" d="M168.3,373.8c-0.3,0-0.6-0.3-0.6-0.6l0,0v-4.4c0-0.3,0.3-0.6,0.6-0.6c0.3,0,0.6,0.3,0.6,0.6c0,0,0,0,0,0v4.4&#10;&#9;&#9;C168.9,373.5,168.6,373.8,168.3,373.8z"/>
	<path class="st1_dream-73" d="M174.9,367.2h-4.4c-0.3,0-0.6-0.3-0.6-0.6l0,0c0-0.3,0.3-0.6,0.6-0.6h4.4c0.3,0,0.6,0.3,0.6,0.6&#10;&#9;&#9;C175.5,366.9,175.2,367.2,174.9,367.2C174.9,367.2,174.9,367.2,174.9,367.2z"/>
	<path class="st1_dream-73" d="M166.1,367.2h-4.4c-0.3,0-0.6-0.3-0.6-0.6c0-0.4,0.3-0.6,0.6-0.6h0h4.4c0.3,0,0.6,0.3,0.6,0.6&#10;&#9;&#9;C166.7,366.9,166.4,367.2,166.1,367.2C166.1,367.2,166.1,367.2,166.1,367.2z"/>
	<path class="st1_dream-73" d="M170.5,103.5c-0.3,0-0.6-0.3-0.6-0.6l0,0v-4.4c0-0.3,0.3-0.6,0.6-0.6c0.3,0,0.6,0.3,0.6,0.6c0,0,0,0,0,0v4.4&#10;&#9;&#9;C171.1,103.3,170.8,103.5,170.5,103.5z"/>
	<path class="st1_dream-73" d="M170.5,112.4c-0.3,0-0.6-0.3-0.6-0.6v-4.4c0-0.3,0.3-0.6,0.6-0.6c0.3,0,0.6,0.3,0.6,0.6v4.4&#10;&#9;&#9;C171.1,112.1,170.8,112.4,170.5,112.4z"/>
	<path class="st1_dream-73" d="M177.1,105.8h-4.4c-0.3,0-0.6-0.3-0.6-0.6c0-0.3,0.3-0.6,0.6-0.6l0,0h4.4c0.3,0,0.6,0.3,0.6,0.6&#10;&#9;&#9;C177.7,105.5,177.4,105.8,177.1,105.8z"/>
	<path class="st1_dream-73" d="M168.3,105.8h-4.4c-0.3,0-0.6-0.3-0.6-0.6c0-0.3,0.3-0.6,0.6-0.6h4.4c0.3,0,0.6,0.3,0.6,0.6&#10;&#9;&#9;C168.9,105.5,168.6,105.8,168.3,105.8z"/>
	<path class="st1_dream-73" d="M81.2,247.4c-0.3,0-0.6-0.3-0.6-0.6v-4.4c0-0.4,0.4-0.6,0.7-0.6c0.3,0,0.5,0.3,0.6,0.6v4.4&#10;&#9;&#9;C81.8,247.2,81.5,247.4,81.2,247.4L81.2,247.4z"/>
	<path class="st1_dream-73" d="M81.2,256.3c-0.4,0-0.6-0.3-0.6-0.6v-4.4c0-0.4,0.4-0.6,0.7-0.6c0.3,0,0.5,0.3,0.6,0.6v4.4&#10;&#9;&#9;C81.8,256,81.5,256.3,81.2,256.3z"/>
	<path class="st1_dream-73" d="M87.8,249.7h-4.4c-0.4,0-0.6-0.3-0.6-0.6c0-0.3,0.3-0.6,0.6-0.6h4.4c0.3,0,0.6,0.3,0.6,0.6l0,0&#10;&#9;&#9;C88.4,249.4,88.1,249.7,87.8,249.7z"/>
	<path class="st1_dream-73" d="M78.9,249.7h-4.4c-0.3,0-0.6-0.3-0.6-0.6c0-0.3,0.3-0.6,0.6-0.6l0,0h4.4c0.3,0,0.6,0.3,0.6,0.6&#10;&#9;&#9;C79.6,249.4,79.3,249.7,78.9,249.7z"/>
	<path class="st1_dream-73" d="M127.2,279.2c-0.3,0-0.6-0.3-0.6-0.6l0,0v-11.3c0-0.3,0.3-0.6,0.6-0.6c0.3,0,0.6,0.3,0.6,0.6v11.3&#10;&#9;&#9;C127.8,279,127.5,279.2,127.2,279.2L127.2,279.2z"/>
	<path class="st1_dream-73" d="M132.8,273.6h-11.3c-0.3,0-0.6-0.3-0.6-0.6s0.3-0.6,0.6-0.6l0,0h11.3c0.3,0,0.6,0.3,0.6,0.6&#10;&#9;&#9;S133.2,273.6,132.8,273.6z"/>
	<path class="st1_dream-73" d="M160.1,149.8c-0.3,0-0.6-0.3-0.6-0.6v-11.3c0-0.4,0.4-0.6,0.7-0.6c0.3,0,0.5,0.3,0.6,0.6v11.3&#10;&#9;&#9;C160.7,149.5,160.4,149.8,160.1,149.8C160.1,149.8,160.1,149.8,160.1,149.8z"/>
	<path class="st1_dream-73" d="M165.7,144.1h-11.3c-0.3,0-0.6-0.3-0.6-0.6c0-0.3,0.3-0.6,0.6-0.6h11.3c0.3,0,0.6,0.3,0.6,0.6&#10;&#9;&#9;C166.4,143.9,166.1,144.1,165.7,144.1L165.7,144.1z"/>
	<path class="st1_dream-73" d="M403.8,315.5c-0.3,0-0.6-0.3-0.6-0.6l0,0v-11.3c0-0.3,0.3-0.6,0.6-0.6s0.6,0.3,0.6,0.6v11.3&#10;&#9;&#9;C404.4,315.2,404.2,315.5,403.8,315.5L403.8,315.5z"/>
	<path class="st1_dream-73" d="M409.5,309.9h-11.3c-0.3,0-0.6-0.3-0.6-0.6s0.3-0.6,0.6-0.6h11.3c0.3,0,0.6,0.3,0.6,0.6&#10;&#9;&#9;S409.8,309.9,409.5,309.9z"/>
	<circle class="st1_dream-73" cx="421.1" cy="309" r="1.6"/>
	<circle class="st1_dream-73" cx="200.3" cy="390.3" r="1.6"/>
</g>
<g id="Left_Foot_dream-73">
	<path class="st0_dream-73" d="M201.4,150.9c0.4,0.8,0.4,16.9,0.4,16.9s-20.6-2.4-21.9-2s-24.5,13.3-19.1,15.2s19.8-3,19.8-3&#10;&#9;&#9;s42.9,13.9,51.1,8.6s-4.5-34.1-4.5-34.1L201.4,150.9z"/>
	<path class="st2_dream-73" d="M225.5,188.6c-13.8,0-40-8.2-44.8-9.7c-2.3,0.8-14.9,4.8-20.2,2.9c-0.9-0.2-1.6-1.1-1.5-2&#10;&#9;&#9;c0.2-4.7,20.5-15.1,20.7-15.2c1.2-0.3,13.2,1,21.1,1.9c0-7-0.2-14.5-0.4-15.4c-0.1-0.3-0.1-0.7,0.1-1c0.2-0.3,0.6-0.4,0.9-0.4&#10;&#9;&#9;l25.9,1.5c0.4,0,0.8,0.3,0.9,0.6c2.1,4.9,3.9,10,5.4,15.2c3,10.9,2.6,17.7-1.3,20.2C231,188.2,228.5,188.6,225.5,188.6z&#10;&#9;&#9; M180.7,176.8c0.1,0,0.2,0,0.3,0.1c11.8,3.8,43.8,12.8,50.2,8.7c6-3.8-1.1-24-4.6-32.2l-24.1-1.4c0.2,2.4,0.3,7.7,0.3,15.7&#10;&#9;&#9;c0,0.3-0.1,0.6-0.4,0.8c-0.2,0.2-0.5,0.3-0.8,0.3c-7.7-0.9-20.3-2.2-21.5-2c-2.2,0.8-18.5,10.4-19,13.1h0.1&#10;&#9;&#9;c4.2,1.4,15.2-1.7,19.1-3C180.5,176.8,180.6,176.8,180.7,176.8L180.7,176.8z"/>
</g>
<g id="Planet_dream-73">
	<path class="st2_dream-73" d="M146.6,254.7c-0.7,0-1.5-0.2-2.2-0.5c-40.7-20-87.7-48-80.8-67.9c3-8.8,14.8-12.9,36-12.7&#10;&#9;&#9;c18.1,0.2,42.9,3.7,71.8,10c2.6,0.6,4.2,3.3,3.6,5.9c-0.6,2.6-3.1,4.2-5.7,3.7c-66.7-14.6-94.2-10.2-96.5-3.7s16.2,26.5,75.9,55.9&#10;&#9;&#9;c2.4,1.2,3.4,4.1,2.2,6.6C150.2,253.6,148.5,254.7,146.6,254.7L146.6,254.7z"/>
	<path class="st2_dream-73" d="M432.1,339c-20.2,0-46.1-4.3-69.2-9.2c-2.7-0.4-4.5-2.9-4.1-5.6c0.4-2.7,2.9-4.5,5.6-4.1&#10;&#9;&#9;c0.2,0,0.3,0.1,0.5,0.1c64.1,13.6,90.6,9.2,92.8,2.9s-16.3-26.7-76.7-56.3c-2.4-1.2-3.4-4.1-2.2-6.6s4.1-3.4,6.6-2.2&#10;&#9;&#9;c41.1,20.1,88.6,48.3,81.7,68.3C463.8,335.6,450.2,339,432.1,339z"/>
	<path class="st0_dream-73" d="M383.2,260.2c0.1,65.4-52.9,118.5-118.3,118.6c-33.1,0-64.7-13.8-87.2-38.1l0,0c-2.7-2.9-5.3-6-7.7-9.2&#10;&#9;&#9;c-39.3-52.3-28.8-126.6,23.5-166c48.2-36.2,116-30.5,157.4,13.3c13,13.8,22.6,30.5,27.8,48.8c1.1,4,2.1,8,2.8,12.1&#10;&#9;&#9;C382.6,246.5,383.2,253.4,383.2,260.2z"/>
	<path class="st2_dream-73" d="M264.7,141.7c32.6,0,63.8,13.4,86.2,37.2c13,13.8,22.6,30.5,27.8,48.8c1.1,4,2.1,8,2.8,12.1&#10;&#9;&#9;c11.2,64.6-32,126-96.6,137.2c-6.7,1.2-13.4,1.7-20.2,1.8c-33,0-64.6-13.8-87-38.1l0,0c-2.7-2.9-5.3-6-7.7-9.2&#10;&#9;&#9;c-39.4-52.3-28.9-126.6,23.4-165.9C214,150.1,239,141.7,264.7,141.7 M264.7,139.4c-66.7,0-120.8,54.1-120.8,120.9&#10;&#9;&#9;c0,26.2,8.5,51.6,24.2,72.6c2.4,3.2,5,6.3,7.8,9.3l0.1,0.1l0,0c45.3,49,121.7,52,170.7,6.7c24.7-22.9,38.8-55,38.8-88.7&#10;&#9;&#9;c0-11.2-1.5-22.4-4.6-33.2c-3.1-11-7.8-21.5-13.9-31.1c-4.2-6.6-9-12.9-14.4-18.6C329.9,153,298,139.3,264.7,139.4L264.7,139.4z"/>
	<path class="st1_dream-73" d="M383.2,260.2c0,65.5-53.1,118.5-118.6,118.5c-23.5,0-46.5-7-66-20.1c7.7-1.8,14.8-5.2,21-10.1&#10;&#9;&#9;c3.5-2.8,6.8-6.2,10.9-7.8c11.6-4.6,23.9,5.2,36.4,5.6c10.6,0.3,20.3-6.6,26.7-15.1s10.2-18.6,14.8-28.2&#10;&#9;&#9;c2.8-5.9,6.8-12.4,13.3-13.5s13,8.1,7.8,12.1c3.9,3.5,10-0.1,13.1-4.3c7.5-9.8,10-22.4,14.8-33.8c4.5-10.8,12.6-21.7,24-23.8&#10;&#9;&#9;C382.7,246.5,383.2,253.4,383.2,260.2z"/>
	<path class="st1_dream-73" d="M210.8,277.6c-4.4,10.9,6.9,23,3.8,34.2c-2.2,8-10.8,12.2-18.7,14.6c-8.5,2.6-17.2,4.3-26,5&#10;&#9;&#9;c-39.3-52.3-28.8-126.6,23.6-166c2.5-1.9,5.1-3.7,7.7-5.3c5.8,4.6,9.3,12,10,19.4c0.9,9-2,18-6.1,26c-3.9,7.5-9,14.5-10.8,22.7&#10;&#9;&#9;s1.2,18.4,9.1,21.2c5.9,2.1,14,0.2,17.4,5.4c2.4,3.7,0.6,8.7-2.1,12.2S212.5,273.5,210.8,277.6z"/>
	<path class="st1_dream-73" d="M378.7,227.6c-4.9,1.1-10,2-14.8,3.3c-8.6,2.3-17.5,6.8-21.5,14.8c-2.8,5.6-3.3,12.9-8.6,16.2&#10;&#9;&#9;c-4.2,2.7-9.7,1.6-14.7,2.1c-9.4,1-17.2,7.8-23.1,15.2s-10.9,15.7-18.3,21.6s-18.2,9-26.4,4.1c15.5-4.4,28.1-15.6,34.4-30.4&#10;&#9;&#9;c3.7-9,5.8-20.2,14.6-24.4c5.6-2.8,12.7-1.7,17.9-5.3c9.8-6.6,5.5-23.3,13.5-32c3.1-3.3,7.5-5,11.8-6.5c5.3-1.9,13.1-5.8,21.4-9.3&#10;&#9;&#9;C371,206.6,375.6,216.9,378.7,227.6z"/>
	<path class="st1_dream-73" d="M350.9,178.9c-4.9,4.4-10.3,8.1-16.1,11.2c-18.4,9.5-42.5,12.9-52.5,31.1c-4.8,8.7-5.2,19.2-9.4,28.2&#10;&#9;&#9;c-4.1,9-15.1,16.8-23.6,11.8c-7.3-4.3-7.8-14.8-5.7-23s6-16.6,4.1-24.9c-1.5-6.5-6.2-11.7-10.4-16.8c-7.6-9.4-14.1-20-16.8-31.8&#10;&#9;&#9;c-1.1-4.6-1.5-9.2-1.2-13.9C264.8,131.9,317.1,143.1,350.9,178.9z"/>
	<path class="st2_dream-73" d="M364,329.9c-0.3,0-0.7,0-1-0.1c-34-7.2-72.7-18.3-112.1-31.9c-38.7-13.4-75.4-28.5-106.4-43.7&#10;&#9;&#9;c-2.4-1.2-3.4-4.1-2.2-6.6c1.2-2.4,4.1-3.4,6.6-2.2c30.6,15,67,30,105.3,43.3c39,13.5,77.3,24.5,110.9,31.6&#10;&#9;&#9;c2.6,0.6,4.3,3.2,3.8,5.8C368.3,328.3,366.3,329.9,364,329.9L364,329.9z"/>
	<path class="st1_dream-73" d="M178.2,340.2c-0.2,0.2-0.3,0.3-0.5,0.5l0,0L178.2,340.2z"/>
</g>
<g id="Sleep_Emoji_dream-73">
	<path class="st2_dream-73" d="M377.4,138h5.4c1.3,0,1.9,0.3,1.9,0.8s-0.6,1.6-1.8,3.5c-0.9,1.7-1.9,3.7-3.1,6.1c2-0.1,3.6-0.1,4.9-0.1&#10;&#9;&#9;c0.2,0,0.4,0.2,0.3,0.4l0,0c-0.1,0.7-0.2,1.1-0.5,1.1c-3,0.1-5,0.1-5.8,0.1s-1.5-0.2-1.7-0.6v-0.2c0-0.1,0.5-1.4,1.6-3.9&#10;&#9;&#9;c1.5-2.8,2.5-4.8,3.1-5.8h-3.7c-0.9,0-1.3-0.1-1.3-0.4v0C376.8,138.3,377,138,377.4,138z"/>
	<path class="st2_dream-73" d="M400.2,117.1h8.8c2.1,0,3.2,0.5,3.2,1.4c0,0.7-1,2.7-3,5.7c-1.4,2.8-3.1,6.1-5.1,10.1c3.3-0.2,6-0.2,8-0.2&#10;&#9;&#9;c0.3,0,0.6,0.3,0.6,0.6c0,0,0,0,0,0l0,0c-0.1,1.2-0.4,1.8-0.9,1.8c-5,0.1-8.2,0.2-9.5,0.2s-2.4-0.3-2.8-1v-0.3&#10;&#9;&#9;c0-0.2,0.9-2.3,2.7-6.4c2.4-4.7,4.2-7.8,5.2-9.6h-6.1c-1.4,0-2.2-0.2-2.2-0.7v-0.1C399.2,117.6,399.5,117.1,400.2,117.1z"/>
	<path class="st2_dream-73" d="M424.5,105.1h14.6c3.5,0,5.3,0.8,5.3,2.3c0,1.2-1.7,4.4-5,9.5c-2.4,4.6-5.2,10.1-8.4,16.8&#10;&#9;&#9;c5.5-0.2,9.9-0.4,13.4-0.4c0.5,0,0.9,0.5,0.9,1v0.1c-0.2,2-0.6,2.9-1.4,2.9c-8.3,0.3-13.6,0.4-15.8,0.4c-2.5,0-4-0.5-4.7-1.6v-0.6&#10;&#9;&#9;c0-0.3,1.5-3.8,4.5-10.5c4-7.8,6.9-13,8.5-15.8h-10.1c-2.4,0-3.6-0.4-3.6-1.2v-0.2C422.8,106,423.4,105.1,424.5,105.1z"/>
</g>
<g id="Character_dream-73">
	<path class="st0_dream-73" d="M246.1,158.6c0,0,17.3,27.9,7.3,33.7s-72,10.5-72,10.5s-12.5,17.2-15.6,10.5s13.7-25.3,13.7-25.3l36.9-6.9&#10;&#9;&#9;L201.2,164L246.1,158.6z"/>
	<path class="st2_dream-73" d="M167.9,215.9h-0.3c-1.3-0.1-2.3-1-2.8-2.2c-3.3-7.2,12.2-24.5,14-26.4c0.2-0.2,0.4-0.3,0.6-0.3l35-6.5&#10;&#9;&#9;l-14-15.8c-0.4-0.4-0.3-1.1,0.1-1.5c0.2-0.1,0.4-0.2,0.6-0.3l44.9-5.3c0.4,0,0.8,0.2,1,0.5c0.5,0.8,12.7,20.7,10.2,30.6&#10;&#9;&#9;c-0.4,1.9-1.6,3.6-3.3,4.6c-9.7,5.6-65.8,10.1-72,10.6C179.9,206.6,172.6,215.9,167.9,215.9z M180.1,189&#10;&#9;&#9;c-4.7,5.2-15.6,18.9-13.4,23.9c0.4,0.8,0.8,0.9,1.1,0.9c2.9,0.3,9.4-7,12.7-11.6c0.2-0.2,0.5-0.4,0.8-0.4c0.6,0,61.9-4.7,71.6-10.3&#10;&#9;&#9;c1.2-0.7,2-1.9,2.3-3.2c2.1-8.2-7.7-25.1-9.6-28.4l-42.2,5l13.9,15.7c0.2,0.3,0.3,0.7,0.2,1c-0.1,0.4-0.4,0.6-0.8,0.7L180.1,189z"/>
	<path class="st0_dream-73" d="M358.1,147.8c-0.5,1.9,9.3,11.6,5.1,32.9c0,0,9.1,6.9,5.4,10.9s-80.7,5.2-83.5,1.4c-3.2-4.2,7.3-15.5,7.3-15.5&#10;&#9;&#9;s-5-53.9,0.9-56.7s72.2,0.9,72.1,4.9c-0.1,4-9.2,7.7-8.8,10.9S358.1,147.8,358.1,147.8z"/>
	<path class="st2_dream-73" d="M316.7,196.3c-7.5,0-14.4-0.1-19.6-0.4c-11.6-0.6-12.4-1.7-12.9-2.3c-3.4-4.5,5-14.3,7-16.5&#10;&#9;&#9;c-1.2-13.3-4.5-54.4,1.5-57.2c6.4-3,66.9,0.6,72.7,4.3c0.6,0.3,0.9,0.8,0.9,1.5c0,2.5-2.6,4.6-5.1,6.7c-1.7,1.4-3.8,3.1-3.7,4.1&#10;&#9;&#9;c0.4,3.2,1.5,11.2,1.5,11.2c0,0.1,0,0.2,0,0.3c0.3,0.7,0.6,1.4,1,2.1c2.4,4.6,7.3,14,4.3,30.2c1.6,1.3,5.8,5,6.1,8.6&#10;&#9;&#9;c0.1,1.3-0.3,2.5-1.2,3.4C366.8,195.1,339.1,196.3,316.7,196.3z M306.4,120.8c-6.5,0-11.2,0.3-12.7,1c-2.6,1.2-3.4,22.3-0.3,55.6&#10;&#9;&#9;c0,0.3-0.1,0.6-0.3,0.8c-4.1,4.4-9,11.7-7.2,14.1c4.3,3.4,77.8,2.1,81.8-1.5c0.5-0.5,0.7-1.1,0.6-1.8c-0.2-2.8-4.3-6.4-5.8-7.5&#10;&#9;&#9;c-0.3-0.2-0.5-0.6-0.4-1c3.1-15.9-1.7-25-4-29.4c-0.8-1.5-1.3-2.4-1.2-3.2c-0.1-1.1-1.1-8.1-1.5-11.1c-0.3-2.1,2-4,4.5-6&#10;&#9;&#9;c1.9-1.6,4.1-3.3,4.3-4.8C360.8,123.5,326,120.8,306.4,120.8z M359.1,148.1L359.1,148.1z"/>
	<path class="st1_dream-73" d="M297,186.3c-1.3,0.3-2.6,0.8-3.7,1.6c-0.4,0.3-0.7,0.6-0.7,1.1c0.2,1.6,4.5,2.5,5.7,2.7&#10;&#9;&#9;c9.2,1.4,18.6,0.9,27.9,0.8c9.5-0.1,19-0.9,28.4-2.4c3.4-0.5,3.6-3.2,0-3.8c-5.7-1-11.3-0.7-17-1c-6.1-0.3-12.1-0.4-18.2-0.2&#10;&#9;&#9;c-4.8,0.1-9.5,0.3-14.3,0.6C302.4,185.7,299.7,185.9,297,186.3z"/>
	<path class="st2_dream-73" d="M307.3,174.5c-1.9,0-3.7-0.4-5.3-1.2c-8-3.8-12.9-11.9-12.7-20.7c0.3-6.5,6.1-12,11.1-15.7&#10;&#9;&#9;c11.4-8.4,29-9.5,40.2-0.1c4,3.4,8.3,6.3,9.3,11.9c0.7,4.1-0.5,8.4-3.3,11.5c-3.4,3.8-8.5,5.4-13.5,6.3s-10.1,1.4-14.7,3.5&#10;&#9;&#9;C314.2,172,311.2,174.4,307.3,174.5z"/>
	<path class="st2_dream-73" d="M307.1,175.5c-1.9,0-3.8-0.5-5.5-1.3c-8.4-4-13.6-12.5-13.3-21.7c0.2-5.5,4.1-11,11.5-16.5&#10;&#9;&#9;c12.6-9.3,30.4-9.3,41.5,0l1.4,1.2c3.6,3,7.4,6,8.3,11.4c0.7,4.5-0.6,9-3.6,12.4c-3.9,4.3-9.9,5.9-14,6.6c-1.1,0.2-2.3,0.4-3.4,0.6&#10;&#9;&#9;c-3.8,0.6-7.6,1.3-11,2.9c-1.2,0.5-2.2,1.1-3.3,1.7c-2.7,1.4-5.2,2.8-8.2,2.9L307.1,175.5L307.1,175.5z M321.1,131.2&#10;&#9;&#9;c-7.2,0-14.3,2.2-20.1,6.5c-6.9,5-10.4,10-10.7,14.9c-0.2,8.4,4.5,16.1,12.1,19.7c1.5,0.8,3.2,1.1,4.9,1.1l0,0&#10;&#9;&#9;c2.5-0.1,4.7-1.2,7.2-2.6c1.1-0.6,2.2-1.2,3.4-1.7c3.7-1.7,7.7-2.4,11.6-3c1.1-0.2,2.2-0.4,3.4-0.6c4.2-0.8,9.5-2.2,12.9-6&#10;&#9;&#9;c2.6-2.9,3.7-6.8,3.1-10.6c-0.8-4.6-4.1-7.3-7.5-10.1l-1.4-1.2C334.5,133.3,327.9,131.1,321.1,131.2L321.1,131.2z"/>
	<path class="st3_dream-73 targetColor" d="M302.5,118.7c0,0-18.5-18.8-55.7-19.7s-71.6,24.4-61.2,51.6c7.6,19.9,18,24.5,18,24.5l47.9-10.4l-2.4-6.7&#10;&#9;&#9;c0,0,36,9.5,46-0.1S319.9,132.4,302.5,118.7z" style="fill: rgb(104, 225, 253);"/>
	<path class="st0_dream-73" d="M303.8,153.3l-11.8,0.3c0,0-3.4-1.7-0.6-11.4s7.4-9.6,7.4-9.6h22.1c1.2,0.1,12.6,0.7,22.7,0.6&#10;&#9;&#9;c0,11.8,0.9,22.4,0.9,22.4c-1.1-1.2-1.4,3-1.4,3c0,1.9-0.3,3.8-0.9,5.6c-6.8,0.6-25.7,3.8-29.6,2.9&#10;&#9;&#9;C305.1,165.5,303.8,153.3,303.8,153.3z"/>
	<path class="st2_dream-73" d="M314.6,168.3c-0.7,0-1.5,0-2.2-0.2c-6.9-1.5-8.9-10.9-9.4-13.8l-11,0.3c-0.2,0-0.3,0-0.4-0.1&#10;&#9;&#9;c-0.4-0.2-4.1-2.3-1.1-12.5s8.1-10.2,8.3-10.2c22.1-0.1,22.1-0.1,22.2,0h0.1c3.8,0.2,13.7,0.7,22.5,0.6l0,0c0.6,0,1,0.4,1,1&#10;&#9;&#9;c0,11.6,0.9,22.2,0.9,22.3c0,0.4-0.2,0.8-0.6,1c-0.2,0.1-0.3,0.1-0.5,0.1c-0.2,0.7-0.3,1.4-0.3,2.1c0,2-0.4,4-1,5.9&#10;&#9;&#9;c-0.1,0.3-0.5,0.6-0.8,0.6c-2.2,0.2-5.7,0.7-9.4,1.1C326.1,167.3,318.6,168.3,314.6,168.3z M303.8,152.3c0.5,0,0.9,0.4,1,0.9&#10;&#9;&#9;c0,0.1,1.3,11.5,8,13c2.5,0.6,12.5-0.8,19.8-1.8c3.4-0.4,6.6-0.9,8.9-1.1c0.4-1.5,0.7-3.1,0.7-4.7l0,0c0-0.9,0.2-3.4,1.3-4l0,0&#10;&#9;&#9;c-0.2-2.9-0.7-11.2-0.8-20.4c-8.6,0-18-0.4-21.7-0.6h-0.1h-22.1c0,0-3.9,0.2-6.5,8.9c-2.2,7.4-0.5,9.6,0,10.1l11.5-0.3L303.8,152.3&#10;&#9;&#9;z"/>
	<path class="st0_dream-73" d="M324.2,152.8c-2.3,1.2-5,2.5-5.7,1.8c-1.3-1.2-0.4-4.6-0.4-4.6"/>
	<path class="st2_dream-73" d="M319.2,155.8c-0.5,0-1-0.2-1.3-0.5c-1.7-1.6-0.9-5-0.7-5.7c0.3-0.5,0.9-0.7,1.4-0.5c0.4,0.2,0.6,0.6,0.6,1&#10;&#9;&#9;c-0.3,1.1-0.5,2.9,0,3.5l0,0c0.3,0,1.4-0.1,4.5-1.8c0.5-0.3,1.1-0.1,1.4,0.4c0.3,0.5,0.1,1.1-0.4,1.4&#10;&#9;&#9;C321.8,155.3,320.2,155.8,319.2,155.8z"/>
	<path class="st0_dream-73" d="M298.1,139.1c-1.8-0.9-3.4-2.2-4.5-3.8c-2.3-3.1-3.8-6.7-4.5-10.5c-1-4.8-1.2-9.8,0.7-14.3&#10;&#9;&#9;c1.8-4.2,6.1-8.5,10.9-7.5c5.2,1.1,10.7,3.5,15.7,5.2c15.8,5.4,40.2,8.5,43.5,28.1c2.5,14.8-1.2,24.4-8.9,30.4&#10;&#9;&#9;c-9.4,7.2-22,4.4-15.8-9.4c1.8-3.8,5.2-6.6,9.2-7.6c-4.1-1.6-7.6-4.4-10.2-7.9c-0.8-1.3-1.8-2.4-2.9-3.4&#10;&#9;&#9;c-5.8-4.2-14.1-2.2-20.5-0.8C305.6,138.9,301.9,140.8,298.1,139.1z"/>
	<path class="st2_dream-73" d="M340.7,171.7c-2,0.1-4-0.6-5.6-1.8c-1.9-1.5-4.4-5.1-0.9-13c1.5-3.3,4.1-5.9,7.4-7.3c-3.3-1.7-6.1-4.2-8.3-7.1&#10;&#9;&#9;l-0.5-0.7c-0.6-0.9-1.3-1.8-2.2-2.4c-5.3-3.8-13.1-2-19.4-0.6l-0.2,0.1c-1.2,0.3-2.4,0.6-3.4,0.9c-3.6,1-6.7,1.9-9.9,0.5l0,0&#10;&#9;&#9;c-2-0.9-3.7-2.4-4.9-4.1c-2.4-3.2-4-7-4.7-10.9c-1.2-5.8-1-10.8,0.7-15c2.1-4.9,6.9-9.2,12.1-8.1c3.9,1,7.8,2.2,11.6,3.7&#10;&#9;&#9;c1.5,0.5,2.9,1.1,4.3,1.5c2.8,1,5.8,1.8,9,2.8c15.1,4.4,32.3,9.4,35.2,26.2c2.4,14.2-0.7,24.8-9.3,31.4&#10;&#9;&#9;C348.5,170,344.7,171.5,340.7,171.7z M322.3,134.9c3.4-0.1,6.7,0.8,9.5,2.7c1,0.8,1.9,1.8,2.6,2.9c0.2,0.2,0.3,0.4,0.5,0.7&#10;&#9;&#9;c2.5,3.4,5.9,6,9.8,7.6c0.4,0.2,0.7,0.6,0.6,1.1c0,0.5-0.4,0.8-0.8,0.9c-3.8,0.9-6.9,3.5-8.5,7c-2.2,4.9-2.1,8.6,0.3,10.4&#10;&#9;&#9;c3,2.4,9,1.4,13.9-2.3c8-6.1,10.8-15.8,8.5-29.3c-2.6-15.5-19.1-20.3-33.7-24.5c-3.2-0.9-6.3-1.8-9.1-2.8c-1.4-0.5-2.8-1-4.3-1.6&#10;&#9;&#9;c-3.7-1.4-7.5-2.7-11.3-3.6c-4-0.9-8,2.9-9.7,6.9c-1.6,3.7-1.8,8.3-0.6,13.7c0.6,3.6,2.1,7.1,4.3,10.1c1.1,1.5,2.5,2.7,4.1,3.5l0,0&#10;&#9;&#9;c2.5,1.1,5.2,0.4,8.5-0.6c1.1-0.3,2.3-0.6,3.5-0.9l0.2-0.1C314.5,135.6,318.4,135.1,322.3,134.9z"/>
	<path class="st2_dream-73" d="M316.8,160.7c-0.2,0-0.4-0.1-0.6-0.2c-0.2-0.1-4.5-3.3-4.7-8.1c-0.1-2.9,1.2-5.6,4.1-8.2&#10;&#9;&#9;c0.4-0.4,1.1-0.3,1.5,0.1c0.4,0.4,0.3,1.1-0.1,1.5c-2.4,2.1-3.5,4.3-3.4,6.5c0.2,3.7,3.8,6.4,3.9,6.5c0.5,0.3,0.6,1,0.2,1.5&#10;&#9;&#9;c0,0,0,0,0,0C317.4,160.5,317.1,160.7,316.8,160.7z"/>
	<path class="st2_dream-73" d="M303.8,153.3c0,0,0-7.9,2.8-10.8c0,0-3.9,2.9-9,11.2L303.8,153.3z"/>
	<path class="st2_dream-73" d="M297.6,154.7c-0.4,0-0.7-0.2-0.9-0.5c-0.2-0.3-0.2-0.8,0-1.1c5.1-8.4,9.1-11.4,9.2-11.5&#10;&#9;&#9;c0.4-0.4,1.1-0.3,1.5,0.1s0.3,1.1-0.1,1.5c-2,2.2-2.5,8-2.5,10.1c0,0.6-0.4,1-1,1L297.6,154.7L297.6,154.7z M303.8,153.3&#10;&#9;&#9;L303.8,153.3z M303.4,147.2c-1.4,1.7-2.7,3.5-3.8,5.3l3.2-0.2C302.9,150.6,303.1,148.9,303.4,147.2z"/>
	<path class="st2_dream-73" d="M328,162c-0.6,0-1.1-0.5-1-1.1c0-0.3,0.2-0.7,0.5-0.9l0,0c0.3-0.2,1.1-0.9,1.1-1.6s-0.6-1.2-1.7-1.8&#10;&#9;&#9;c-0.5-0.3-0.7-0.9-0.4-1.4c0,0,0,0,0,0c0.3-0.5,0.9-0.7,1.4-0.4c1.8,1,2.7,2.2,2.8,3.6c0.1,2-1.8,3.2-2,3.4&#10;&#9;&#9;C328.4,161.9,328.2,162,328,162z"/>
	<path class="st2_dream-73" d="M328.2,149.5c-0.6,0-1.1-0.5-1-1.1c0-0.3,0.2-0.7,0.5-0.9c0.3-0.2,1.1-0.9,1.1-1.6s-0.6-1.2-1.7-1.8&#10;&#9;&#9;c-0.5-0.3-0.7-0.9-0.4-1.4c0.3-0.5,0.9-0.7,1.4-0.4c1.8,1,2.7,2.2,2.8,3.5c0.1,2-1.8,3.2-2,3.4&#10;&#9;&#9;C328.6,149.4,328.4,149.5,328.2,149.5z"/>
	<path class="st0_dream-73" d="M346.1,175.8c-0.3-0.2-0.6-0.3-0.9-0.2c-5.9,0.1-12.1,0.9-17.6-1.4l3.5-2.3c0.9-0.6,1.8-1.6,1.3-2.4&#10;&#9;&#9;c-0.4-0.7-1.4-0.6-2.2-0.4c-3.4,0.8-6.7,1.9-9.9,3.2v-0.1c0,0-27.3-4.8-35.6-14c-4-4.4-4.8-11.1-5-16.9s2.8-11.7-1.4-16.5&#10;&#9;&#9;c-3.2-3.7-9.7-4.3-13.9-2.1c-4.6,2.4-7.1,8.5-8,13.3c-1.7,8.2-0.6,17.4,1.7,25.4c2.1,7,6.2,13.2,12.6,17&#10;&#9;&#9;c14.4,8.6,42.6,7.1,50.6,6.5c1.9,0.6,4,0.9,6,0.8c5.3,0,10.8-0.7,15.3-3.5c2-1.2,3.9-3.1,4-5.5C346.4,176.3,346.3,176,346.1,175.8z&#10;&#9;&#9;"/>
	<path class="st2_dream-73" d="M326.6,186.7c-1.9,0.1-3.9-0.2-5.8-0.8c-8.6,0.7-36.5,2.1-51-6.6c-6.2-3.7-10.7-9.8-13-17.6&#10;&#9;&#9;c-2.7-9-3.3-18.2-1.8-25.9c0.5-2.5,2.6-10.9,8.6-14c4.4-2.3,11.5-1.8,15.2,2.4c3.2,3.7,2.6,7.9,2,12.1c-0.3,1.7-0.4,3.4-0.4,5.1&#10;&#9;&#9;c0.2,5.3,0.9,11.9,4.8,16.2c7.7,8.5,32.7,13.3,34.9,13.7c2.7-1.1,5.6-2.1,8.4-2.8l1.2-0.3c2.1-0.6,3,0.2,3.4,0.8&#10;&#9;&#9;c0.8,1.2,0.2,2.7-1.6,3.9l-1.6,1.1c3.7,1.1,7.8,0.9,11.8,0.8c1.1,0,2.3-0.1,3.4-0.1c0.6-0.1,1.2,0.2,1.7,0.6c0.4,0.4,0.5,1,0.5,1.5&#10;&#9;&#9;c-0.1,3.2-2.8,5.4-4.5,6.4c-5.2,3.2-11.5,3.6-15.8,3.7H326.6z M321,183.8c0.1,0,0.3,0,0.4,0.1c1.8,0.6,3.7,0.8,5.6,0.7&#10;&#9;&#9;c4.1,0,10-0.4,14.8-3.4c1.3-0.8,3.4-2.4,3.5-4.6l0,0c-1.1,0-2.3,0.1-3.4,0.1c-4.9,0.2-10,0.4-14.6-1.6c-0.4-0.2-0.6-0.5-0.6-0.9&#10;&#9;&#9;c-0.1-0.4,0.1-0.8,0.5-1l3.5-2.3c0.4-0.2,0.7-0.6,0.9-1h-0.2c-0.3,0-0.6,0.1-0.9,0.1l-1.2,0.3c-2.9,0.7-5.8,1.6-8.5,2.8&#10;&#9;&#9;c-0.3,0.1-0.6,0.1-0.9,0c-0.1,0-0.1-0.1-0.2-0.1c-3.6-0.7-27.8-5.4-35.8-14.3c-4.3-4.8-5.1-11.9-5.3-17.5c0-1.8,0.1-3.7,0.4-5.5&#10;&#9;&#9;c0.5-3.8,1-7.5-1.6-10.4c-3-3.4-9-3.8-12.6-1.9c-4.1,2.1-6.6,7.9-7.5,12.5c-1.5,7.4-0.9,16.2,1.7,24.9c2.2,7.3,6.3,13,12.1,16.4&#10;&#9;&#9;C285.1,185.9,312.8,184.4,321,183.8L321,183.8z"/>
	<path class="st2_dream-73" d="M216.4,182.2c-0.5,0-0.9-0.3-1-0.8c-0.2-0.5,0.1-1.1,0.6-1.3c0,0,0.1,0,0.1,0c0.5-0.2,13.3-4,19-4.5&#10;&#9;&#9;c0.5-0.1,1.1,0.3,1.1,0.9c0,0,0,0.1,0,0.1c0.1,0.6-0.4,1.1-0.9,1.1c0,0,0,0,0,0c-5.6,0.5-18.5,4.4-18.6,4.4&#10;&#9;&#9;C216.6,182.2,216.5,182.2,216.4,182.2z"/>
	<path class="st2_dream-73" d="M249.1,159c-0.5,0-0.9-0.3-1-0.7c-0.3-0.9-6.8-22.1-4.3-29.6c0.2-0.6,0.8-0.8,1.3-0.7s0.8,0.8,0.7,1.3l0,0&#10;&#9;&#9;c-2.3,6.8,4.2,28,4.3,28.2c0.2,0.6-0.1,1.1-0.7,1.3C249.3,159,249.2,159,249.1,159z"/>
</g>
</svg>