<svg version="1.1" id="Layer_1" xmlns="http://www.w3.org/2000/svg" xmlns:xlink="http://www.w3.org/1999/xlink" x="0px" y="0px" viewBox="0 0 500 500" style="width: 166px;" xml:space="preserve" data-imageid="easter-bunny-1-10" imageName="Easter Bunny 1" class="illustrations_image">
<style type="text/css">
	.st0_easter-bunny-1-10{fill:#FFFFFF;}
	.st1_easter-bunny-1-10{fill:#093F68;}
	.st2_easter-bunny-1-10{fill:#70CC40;}
	.st3_easter-bunny-1-10{fill:#DFEAEF;}
	.st4_easter-bunny-1-10{fill:#FFBC0E;}
	.st5_easter-bunny-1-10{fill:#F56132;}
	.st6_easter-bunny-1-10{fill:#68E1FD;}
</style>
<g id="food_easter-bunny-1-10">
	<circle class="st0_easter-bunny-1-10" cx="248.1" cy="250.4" r="164.3"/>
	<path class="st1_easter-bunny-1-10" d="M248.1,416.6C156.5,416.6,82,342.1,82,250.4S156.5,84.3,248.1,84.3s166.2,74.6,166.2,166.2&#10;&#9;&#9;S339.8,416.6,248.1,416.6z M248.1,88c-89.6,0-162.4,72.9-162.4,162.5s72.9,162.5,162.4,162.5S410.6,340,410.6,250.4&#10;&#9;&#9;S337.7,88,248.1,88L248.1,88z"/>
	<path class="st2_easter-bunny-1-10" d="M295,167.9c2.5-4.6,3.6-10.9,8.5-12.9c3.4-1.4,7.5,0.2,9.8,3s3.2,6.6,3.4,10.2c-0.1,1.3,0.2,2.5,0.8,3.6&#10;&#9;&#9;c1.9,2.7,6,0.4,9.1-0.8c8-3.1,17.6,5.6,15.4,13.9c-0.8,2.8-2.5,5.5-1.7,8.2c1.6,5.3,9.8,3.5,14.5,6.4c3.9,2.3,4.9,7.8,3.6,12.2&#10;&#9;&#9;s-4.5,7.9-7.5,11.4c-2,2.4-4.1,5.2-3.8,8.4c0.9,7.5,13.6,7.7,15.9,14.9c2.1,6.4-5.7,11.4-12.2,13c-1.7,0.4-3.7,1-4.3,2.6&#10;&#9;&#9;c-1.1,2.9,3,4.8,5.4,6.7c3.3,2.6,4.2,7.6,2.8,11.6s-4.7,7.1-8.5,9.1c-13.3,7.3-30,2.2-43-5.5c-9.2-5.5-18.6-13.6-18.8-24.4&#10;&#9;&#9;c-0.2-11.5,10.2-22.4,6.3-33.2c-2.3-6.4-8.8-10-13.1-15.2c-6-7.1-7.4-17.6-4-26.2C277.7,174.5,289.5,178,295,167.9z"/>
	<path class="st1_easter-bunny-1-10" d="M331.9,294.9c-11.5,0-22.7-5.3-29.5-9.3c-12.7-7.5-19.5-16.5-19.7-26c-0.1-5.3,1.9-10.4,3.8-15.4&#10;&#9;&#9;c2.4-6.1,4.6-11.8,2.6-17.3c-1.3-3.7-4.4-6.5-7.6-9.4c-1.8-1.6-3.6-3.4-5.2-5.2c-6.2-7.4-8-18.7-4.3-28.1c2.4-6.1,7-8,11.5-9.8&#10;&#9;&#9;c3.9-1.6,7.6-3.1,9.9-7.4c0.7-1.3,1.3-2.6,1.8-3.9c1.6-3.8,3.4-8.1,7.7-9.8c4-1.6,8.9-0.1,11.9,3.5c2.3,2.8,3.6,6.7,3.8,11.4v0.3&#10;&#9;&#9;c-0.1,0.8,0.1,1.6,0.4,2.3c0.7,1,2.8,0.3,5.5-0.9c0.5-0.2,1-0.4,1.4-0.6c4.3-1.7,9.5-0.5,13.4,3.1s5.6,8.6,4.4,13&#10;&#9;&#9;c-0.2,0.9-0.5,1.7-0.9,2.5c-0.7,1.8-1.3,3.4-0.9,4.7c0.6,2,2.9,2.5,6.6,3.2c2.5,0.3,4.9,1,7.1,2.1c4.9,2.9,5.9,9.4,4.4,14.4&#10;&#9;&#9;c-1.4,4.5-4.4,8-7.3,11.4l-0.5,0.6c-1.8,2.1-3.6,4.5-3.3,7c0.4,2.9,3.4,4.5,6.9,6.4s7.6,4,8.9,8.2c0.8,2.3,0.5,4.9-0.8,7&#10;&#9;&#9;c-2.5,4.5-8.5,7.3-12.8,8.3c-0.9,0.2-2.7,0.6-3,1.5s1.1,2,3.1,3.4c0.6,0.4,1.2,0.8,1.7,1.2c3.8,3,5.2,8.6,3.4,13.7&#10;&#9;&#9;c-1.4,4-4.7,7.6-9.3,10.1C342.5,293.7,337.2,295,331.9,294.9z M306.2,156.4c-0.7,0-1.4,0.1-2,0.4c-2.9,1.1-4.2,4.4-5.7,7.8&#10;&#9;&#9;c-0.6,1.4-1.3,2.9-2,4.2l0,0c-3,5.5-7.7,7.4-11.8,9.1s-7.7,3.1-9.5,7.8c-3.2,8.1-1.7,17.9,3.7,24.3c1.5,1.7,3.1,3.3,4.9,4.9&#10;&#9;&#9;c3.4,3.1,6.9,6.4,8.6,10.9c2.4,6.8-0.1,13.4-2.7,19.9c-1.8,4.6-3.6,9.3-3.5,13.9c0.2,10.3,9.9,18.1,17.9,22.8&#10;&#9;&#9;c9.2,5.4,26.8,13.4,41.2,5.5c3.8-2.1,6.5-5,7.6-8.1c1.2-3.5,0.3-7.5-2.2-9.5c-0.5-0.4-1-0.7-1.5-1.1c-2.5-1.7-5.8-4-4.5-7.7&#10;&#9;&#9;c1-2.7,4-3.4,5.6-3.8c3.9-0.9,8.5-3.3,10.4-6.5c0.7-1.2,0.9-2.7,0.5-4.1c-0.9-2.7-3.9-4.3-7.1-6c-3.9-2.1-8.2-4.4-8.8-9.2&#10;&#9;&#9;c-0.4-3.7,1.8-6.9,4.2-9.8l0.5-0.7c2.6-3.1,5.4-6.4,6.5-10.1c1.1-3.4,0.5-8.1-2.8-10.1c-1.8-0.9-3.8-1.4-5.8-1.7&#10;&#9;&#9;c-3.8-0.7-8.1-1.4-9.5-5.7c-0.8-2.6,0.1-5,0.9-7.1c0.3-0.7,0.5-1.4,0.7-2.1c1-3.7-1-7.3-3.3-9.3s-6-3.7-9.6-2.4l-1.3,0.5&#10;&#9;&#9;c-3,1.2-7.4,3.1-10-0.4c-0.8-1.3-1.2-2.9-1.1-4.4v-0.3c-0.1-2.7-0.6-6.4-2.9-9.1C310.5,157.5,308.4,156.5,306.2,156.4z M295,167.9&#10;&#9;&#9;L295,167.9z"/>
	<path class="st3_easter-bunny-1-10" d="M248.1,385.4c-74.4,0-134.9-60.5-134.9-134.9s60.5-134.9,134.9-134.9s134.9,60.5,134.9,134.9&#10;&#9;&#9;S322.5,385.4,248.1,385.4z M248.1,119.2c-72.3,0-131.2,58.9-131.2,131.2s58.9,131.2,131.2,131.2s131.2-58.9,131.2-131.2&#10;&#9;&#9;S320.5,119.2,248.1,119.2z"/>
	<polygon class="st4_easter-bunny-1-10" points="181.5,185.7 124.7,184.6 120.9,195.5 181.7,199.2 &#9;"/>
	<path class="st1_easter-bunny-1-10" d="M181.7,201h-0.1l-60.8-3.7c-0.6,0-1.1-0.3-1.4-0.8c-0.3-0.5-0.4-1.1-0.2-1.6L123,184c0.3-0.8,1-1.3,1.8-1.2&#10;&#9;&#9;l56.8,1c1,0,1.8,0.8,1.8,1.8l0.2,13.5C183.6,200.1,182.8,201,181.7,201C181.8,201,181.8,201,181.7,201L181.7,201z M123.5,193.7&#10;&#9;&#9;l56.4,3.4l-0.2-9.7l-53.6-1L123.5,193.7z"/>
	<polygon class="st4_easter-bunny-1-10" points="164.5,176.9 127.7,220.1 133.7,229.9 175.1,185.3 &#9;"/>
	<path class="st1_easter-bunny-1-10" d="M133.7,231.8h-0.2c-0.6-0.1-1.1-0.4-1.4-0.9l-6-9.8c-0.4-0.7-0.3-1.6,0.2-2.2l36.8-43.2&#10;&#9;&#9;c0.6-0.8,1.8-0.9,2.6-0.2l10.6,8.4c0.8,0.6,0.9,1.8,0.3,2.6c0,0-0.1,0.1-0.1,0.1L135,231.2C134.7,231.6,134.2,231.8,133.7,231.8z&#10;&#9;&#9; M130,220.3l4,6.6l38.4-41.4l-7.6-6L130,220.3z"/>
	<polygon class="st4_easter-bunny-1-10" points="183.9,266.7 128.3,255 122.5,265 181.6,280 &#9;"/>
	<path class="st1_easter-bunny-1-10" d="M181.6,281.9c-0.2,0-0.3,0-0.5-0.1l-59-15c-1-0.3-1.6-1.3-1.3-2.3c0-0.2,0.1-0.3,0.2-0.5l5.8-9.9&#10;&#9;&#9;c0.4-0.7,1.2-1.1,2-0.9l55.6,11.7c0.9,0.2,1.6,1.1,1.4,2.1l-2.3,13.3c-0.1,0.5-0.4,1-0.8,1.2C182.3,281.7,181.9,281.8,181.6,281.9z&#10;&#9;&#9; M125.4,263.8l54.7,13.9l1.6-9.5l-52.5-11L125.4,263.8z"/>
	<polygon class="st4_easter-bunny-1-10" points="173.5,284.1 114.3,278.1 112.8,290.8 173.5,296 &#9;"/>
	<path class="st1_easter-bunny-1-10" d="M173.5,297.8h-0.2l-60.7-5.1c-0.5,0-1-0.3-1.3-0.7c-0.3-0.4-0.5-0.9-0.4-1.4l1.6-12.7c0.1-1,1-1.7,2-1.6&#10;&#9;&#9;l59.2,6.1c1,0.1,1.7,0.9,1.7,1.9l0,11.8c0,0.5-0.2,1-0.6,1.4C174.4,297.7,173.9,297.8,173.5,297.8z M114.9,289.1l56.8,4.8v-8.1&#10;&#9;&#9;l-55.7-5.7L114.9,289.1z"/>
	<polygon class="st4_easter-bunny-1-10" points="172.5,198.3 124.8,229 127.6,240.1 180.2,209.3 &#9;"/>
	<path class="st1_easter-bunny-1-10" d="M127.6,242c-0.2,0-0.5-0.1-0.7-0.1c-0.5-0.2-0.9-0.7-1.1-1.2l-2.8-11.1c-0.2-0.8,0.1-1.6,0.8-2l47.7-30.7&#10;&#9;&#9;c0.8-0.5,2-0.3,2.5,0.5l7.7,11.1c0.3,0.4,0.4,1,0.3,1.5c-0.1,0.5-0.4,0.9-0.9,1.2l-52.6,30.8C128.3,241.9,128,242,127.6,242z&#10;&#9;&#9; M126.9,229.9l1.9,7.4l48.7-28.5l-5.5-7.9L126.9,229.9z"/>
	<polygon class="st4_easter-bunny-1-10" points="189.4,178.2 139.3,151.6 131,159.5 183.5,190.4 &#9;"/>
	<path class="st1_easter-bunny-1-10" d="M183.5,192.2c-0.3,0-0.7-0.1-0.9-0.2L130,161.1c-0.5-0.3-0.8-0.8-0.9-1.4c-0.1-0.6,0.1-1.2,0.6-1.6l8.3-7.9&#10;&#9;&#9;c0.6-0.6,1.5-0.7,2.2-0.3l50.1,26.6c0.9,0.5,1.2,1.6,0.8,2.5l-5.9,12.1c-0.2,0.5-0.6,0.8-1.1,1&#10;&#9;&#9;C183.9,192.2,183.7,192.2,183.5,192.2z M134.1,159.2l48.7,28.6l4.2-8.7l-47.4-25.2L134.1,159.2z"/>
	<polygon class="st4_easter-bunny-1-10" points="186.9,216.6 136,241.7 137.6,253.1 193.3,228.4 &#9;"/>
	<path class="st1_easter-bunny-1-10" d="M137.6,255c-0.3,0-0.6-0.1-0.9-0.2c-0.5-0.3-0.9-0.8-0.9-1.4l-1.6-11.4c-0.1-0.8,0.3-1.6,1-1.9l50.9-25.2&#10;&#9;&#9;c0.9-0.4,2-0.1,2.5,0.8l6.4,11.9c0.5,0.9,0.1,2-0.8,2.5c0,0-0.1,0-0.1,0.1l-55.7,24.7C138.1,254.9,137.8,255,137.6,255z M138,242.8&#10;&#9;&#9;l1.1,7.6l51.6-22.9l-4.6-8.6L138,242.8z"/>
	<polygon class="st4_easter-bunny-1-10" points="181.1,235.6 116.8,241.1 119.8,252 183.1,248.9 &#9;"/>
	<path class="st1_easter-bunny-1-10" d="M119.8,253.8c-0.8,0-1.6-0.6-1.8-1.4l-3-10.8c-0.3-1,0.3-2,1.3-2.3c0.1,0,0.2,0,0.3-0.1l64.4-5.6&#10;&#9;&#9;c1-0.1,1.9,0.6,2,1.6l2,13.3c0.1,0.5-0.1,1-0.4,1.4c-0.3,0.4-0.8,0.6-1.4,0.7l-63.3,3.1L119.8,253.8z M119.2,242.8l2,7.2l59.8-2.9&#10;&#9;&#9;l-1.4-9.6L119.2,242.8z"/>
	<polygon class="st4_easter-bunny-1-10" points="172.4,230.3 143.1,275.2 151.1,281.9 183.8,237.4 &#9;"/>
	<path class="st1_easter-bunny-1-10" d="M151.1,283.8c-0.4,0-0.9-0.2-1.2-0.4l-8-6.7c-0.7-0.6-0.9-1.6-0.4-2.4l29.2-44.9c0.6-0.8,1.7-1.1,2.5-0.6&#10;&#9;&#9;l11.5,7.1c0.9,0.5,1.1,1.7,0.6,2.5c0,0-0.1,0.1-0.1,0.1L152.6,283c-0.3,0.4-0.8,0.7-1.3,0.8L151.1,283.8z M145.6,274.8l5.2,4.4&#10;&#9;&#9;l30.3-41.3l-8.2-5.1L145.6,274.8z"/>
	<polygon class="st4_easter-bunny-1-10" points="114.1,210.8 124.9,263.3 135.4,262.5 127.3,207.8 &#9;"/>
	<path class="st1_easter-bunny-1-10" d="M125,265.1c-0.9,0-1.6-0.6-1.8-1.5l-10.9-52.5c-0.2-1,0.4-2,1.4-2.2l13.1-3c0.5-0.1,1,0,1.5,0.3&#10;&#9;&#9;c0.4,0.3,0.7,0.8,0.8,1.3l8.1,54.7c0.1,0.5-0.1,1-0.4,1.4c-0.3,0.4-0.8,0.7-1.3,0.7L125,265.1L125,265.1z M116.4,212.2l10.1,49.1&#10;&#9;&#9;l6.8-0.5l-7.5-50.7L116.4,212.2z"/>
	<circle class="st5_easter-bunny-1-10" cx="164.6" cy="330" r="26.6"/>
	<path class="st1_easter-bunny-1-10" d="M164.6,358.4c-15.7,0-28.4-12.7-28.4-28.5c0-15.7,12.7-28.4,28.5-28.4c15.7,0,28.4,12.7,28.4,28.5c0,0,0,0,0,0&#10;&#9;&#9;C193,345.7,180.3,358.4,164.6,358.4z M164.6,305.2c-13.7,0-24.7,11.1-24.7,24.7c0,13.7,11.1,24.7,24.7,24.7&#10;&#9;&#9;c13.7,0,24.7-11.1,24.7-24.7C189.3,316.3,178.3,305.3,164.6,305.2z"/>
	<circle class="st5_easter-bunny-1-10" cx="199.8" cy="349.6" r="26.6"/>
	<path class="st1_easter-bunny-1-10" d="M199.8,378c-15.7,0-28.4-12.7-28.4-28.5c0-15.7,12.7-28.4,28.4-28.4s28.4,12.7,28.4,28.4&#10;&#9;&#9;C228.2,365.3,215.5,378,199.8,378z M199.8,324.8c-13.7,0-24.7,11.1-24.7,24.7c0,13.7,11.1,24.7,24.7,24.7s24.7-11.1,24.7-24.7&#10;&#9;&#9;c0,0,0,0,0,0C224.5,335.9,213.4,324.9,199.8,324.8L199.8,324.8z"/>
	<path class="st2_easter-bunny-1-10" d="M359.4,315.7c-0.6,3.5-3.6,6.2-6.8,7.7s-6.8,2.1-10.2,3.3c-1.5,0.5-3.2,1.5-3.4,3.1s1.3,2.8,2.4,4&#10;&#9;&#9;c6.6,7.5,0,17.9-8.6,18.4c-11.5,0.6-15.2,3.8-23.7,11.3c-5.4,4.7-13.8,4.4-20.1,0.9s-11.8-10-16.7-14.9s-7-13.8-3.4-20.3&#10;&#9;&#9;c2.9-5.1,8.8-7.6,14.1-10.2s10.9-6.5,11.6-12.4c0.6-4.4-1.8-8.6-2.8-13c-4.5-19.6,15.9-28.4,31.9-25.1c5.1,1,8.2,4.9,13,5.6&#10;&#9;&#9;c3.8,0.4,7.5,1.5,10.8,3.2c3.3,1.9,6,5,6.6,8.8c0.6,3.5-0.7,7-2.5,10.1c-0.8,1.5-1.8,3.1-1.4,4.8&#10;&#9;&#9;C352,307.4,360.8,307.5,359.4,315.7z"/>
	<path class="st1_easter-bunny-1-10" d="M299.2,368.9c-3.8,0-7.6-1-11-2.9c-5.2-2.9-9.9-7.8-14.1-12.2c-1-1-2-2.1-2.9-3c-5.9-5.9-7.5-15.6-3.7-22.5&#10;&#9;&#9;c2.9-5.1,8.4-7.8,13.3-10.2l1.6-0.8c6.6-3.3,10.1-6.8,10.6-10.9c0.3-2.6-0.5-5.2-1.5-8c-0.5-1.4-1-2.9-1.3-4.3&#10;&#9;&#9;c-2.2-9.9,1.5-16.2,5-19.9c6.6-6.7,18.2-9.7,29.1-7.5c2.5,0.6,4.9,1.7,7,3.1c1.7,1.2,3.7,2.1,5.8,2.5c4,0.4,7.9,1.6,11.5,3.5&#10;&#9;&#9;c4.1,2.4,6.9,6.1,7.5,10.1c0.6,3.4-0.3,7.1-2.7,11.4c-0.7,1.3-1.4,2.5-1.2,3.4c0.5,2,2.1,3.3,3.9,4.8c2.7,2.1,6.1,4.8,5.1,10.6l0,0&#10;&#9;&#9;c-0.6,3.7-3.5,7-7.9,9.1c-2.1,0.9-4.2,1.6-6.4,2.2c-1.4,0.4-2.6,0.7-3.9,1.2s-2.1,1-2.1,1.5s0.7,1.3,1.3,2l0.6,0.6&#10;&#9;&#9;c3.2,3.5,4,8.5,2.1,12.9c-2.1,4.9-6.7,8.2-12,8.6c-11,0.6-14.4,3.6-22.5,10.9C307.3,367.6,303.3,369,299.2,368.9z M317,269.8&#10;&#9;&#9;c-7.5,0-14.7,2.6-19.2,7.1c-4.1,4.2-5.6,9.9-4.1,16.4c0.3,1.3,0.7,2.6,1.2,4c1,3,2.1,6.2,1.6,9.6c-0.7,5.4-4.8,9.9-12.6,13.8&#10;&#9;&#9;l-1.6,0.8c-4.6,2.2-9.4,4.5-11.7,8.7c-3,5.4-1.6,13.3,3.1,18c1,1,2,2,3,3.1c4,4.2,8.6,8.9,13.3,11.5c5.1,2.8,12.9,3.8,17.9-0.7&#10;&#9;&#9;c8.9-7.9,13-11.1,24.8-11.8c3.9-0.3,7.3-2.7,8.8-6.3c1.4-3,0.8-6.6-1.5-9l-0.5-0.6c-1-1.1-2.5-2.7-2.3-4.9c0.1-1.4,1-3.4,4.6-4.6&#10;&#9;&#9;c1.4-0.5,2.8-0.9,4.1-1.3c2-0.5,4-1.2,5.9-2c3.2-1.5,5.4-3.9,5.8-6.3l0,0c0.6-3.5-1-4.9-3.8-7.1c-2.1-1.6-4.4-3.5-5.2-6.8&#10;&#9;&#9;c-0.6-2.3,0.6-4.3,1.5-6c2-3.6,2.8-6.5,2.4-9.1c-0.7-3.2-2.8-5.9-5.7-7.4c-3.2-1.6-6.6-2.6-10.1-3c-2.6-0.5-5-1.5-7.2-3&#10;&#9;&#9;c-1.8-1.2-3.8-2.1-5.9-2.6C321.3,269.9,319.2,269.7,317,269.8z M359.4,315.8L359.4,315.8z"/>
	<path class="st1_easter-bunny-1-10" d="M192.7,155.1h-0.1c-1-0.1-1.8-0.9-1.8-2c0-0.9,0.7-1.6,1.6-1.7c0.4-0.3,3-2.6,3.6-16.5&#10;&#9;&#9;c0.8-18.9,8.5-29.2,8.9-29.7c0.6-0.8,1.8-1,2.6-0.4s1,1.8,0.4,2.6c-0.1,0.1-7.3,10-8.1,27.6c-0.4,10.2-2,16.6-4.7,19&#10;&#9;&#9;C194.4,154.7,193.6,155.1,192.7,155.1z"/>
	<path class="st1_easter-bunny-1-10" d="M197.4,142.2c-0.1,0-0.2,0-0.4,0c-0.9-0.2-1.5-1-1.5-1.9c0-0.2,1-20-8.5-26.3c-0.9-0.5-1.2-1.7-0.7-2.5&#10;&#9;&#9;c0.5-0.9,1.7-1.2,2.5-0.7c0.1,0,0.1,0.1,0.2,0.1c7.4,5,9.5,15.9,10,23c2.3-2.8,5.1-5,8.4-6.6c0.9-0.4,2-0.1,2.5,0.9&#10;&#9;&#9;c0.4,0.9,0.1,2-0.9,2.5c-4.5,2.1-8,5.8-10,10.3C198.9,141.7,198.2,142.2,197.4,142.2z"/>
	<path class="st1_easter-bunny-1-10" d="M199.5,124.3c-1,0-1.9-0.8-1.9-1.9c0-0.4,0.1-0.8,0.4-1.1c0.3-0.4,7.8-9.8,16.4-12.6c1-0.3,2,0.3,2.3,1.3&#10;&#9;&#9;c0.3,1-0.2,2-1.2,2.3c-7.5,2.4-14.5,11.3-14.6,11.4C200.6,124.1,200.1,124.3,199.5,124.3z"/>
	<path class="st1_easter-bunny-1-10" d="M208.4,146.7c-0.6,0-1.2-0.3-1.6-0.9c-0.4-0.7-0.3-1.6,0.2-2.2c0.2-0.2,0.4-0.7,0.9-1.4&#10;&#9;&#9;c11.7-19.3,23.3-30.8,34.3-34.2c1-0.3,2,0.3,2.3,1.2s-0.3,2-1.2,2.3c-10.1,3.1-21,14.1-32.2,32.6c-1.1,1.8-1.2,2-1.7,2.3&#10;&#9;&#9;C209.1,146.6,208.7,146.7,208.4,146.7z"/>
	<path class="st1_easter-bunny-1-10" d="M223.8,125.3c-1,0-1.9-0.8-1.9-1.9c0-0.4,0.2-0.9,0.4-1.2c0.7-1,7-11.6,9-18.2c0.4-1,1.4-1.5,2.4-1.1&#10;&#9;&#9;c0.9,0.3,1.4,1.2,1.2,2.1c-2.2,7.3-9.1,18.9-9.8,19.6C224.8,125,224.3,125.3,223.8,125.3z"/>
	<path class="st1_easter-bunny-1-10" d="M216.8,134c-0.4,0-0.8-0.1-1.1-0.4c-0.7-0.5-0.9-1.4-0.6-2.2c1-2.9,1-6.1,0-9c-0.3-1,0.2-2,1.1-2.4&#10;&#9;&#9;c1-0.3,2,0.2,2.4,1.2l0,0c0.7,2.2,1.1,4.4,0.9,6.7c4.2-2.6,11.4-6.2,18.8-5.9c1,0,1.9,0.8,1.9,1.8c0,1-0.8,1.9-1.8,1.9&#10;&#9;&#9;c-0.1,0-0.2,0-0.2,0c-10.1-0.4-20.1,7.7-20.2,7.8C217.7,133.8,217.2,134,216.8,134z"/>
	<path class="st5_easter-bunny-1-10" d="M303.5,145.2c-0.9,0-1.8-0.1-2.7-0.2c-7.5-1.4-20.2-7.4-22.1-17.6c-0.8-4.4,1-8.8,4.5-10.8&#10;&#9;&#9;c1.6-0.8,3.3-1.3,5.1-1.4c10.1-0.8,20,3.8,25.8,12.2l0,0c2.8,4.1,3,8.6,0.6,12.2C312.1,143.2,307.9,145.4,303.5,145.2z&#10;&#9;&#9; M290.8,118.8c-0.7,0-1.4,0-2,0.1c-1.3,0.1-2.5,0.4-3.6,0.9c-2.4,1.3-3.1,4.5-2.7,6.9c1.5,7.9,12,13.3,19.1,14.6&#10;&#9;&#9;c4,0.7,8.2-0.8,10.1-3.8c1.6-2.4,1.4-5.3-0.5-8.1C306.4,122.8,298.8,118.9,290.8,118.8L290.8,118.8z"/>
	<path class="st5_easter-bunny-1-10" d="M332.9,158.8c-0.7,0-1.4,0-2.2-0.1c-12-1.1-22.9-7.8-29.3-18c-2.1-3.2-3.4-6.9-3.6-10.7&#10;&#9;&#9;c-0.1-4.4,2-8.5,5.4-10.5c3-1.8,6.8-2,11.7-0.8l0,0c10.8,2.9,20,9.8,25.8,19.3c4,6.5,4.9,12.4,2.5,16.3&#10;&#9;&#9;C341.9,156.4,339,158.8,332.9,158.8z M309.4,121.7c-1.5-0.1-2.9,0.3-4.2,1c-2.4,1.6-3.7,4.4-3.6,7.3c0.2,3.1,1.2,6.2,3,8.8&#10;&#9;&#9;c5.8,9.3,15.6,15.3,26.5,16.3c3.2,0.3,7.3,0,9-2.6s0.6-7.4-2.5-12.4c-5.3-8.7-13.7-15-23.5-17.6l0,0&#10;&#9;&#9;C312.5,121.9,310.9,121.7,309.4,121.7L309.4,121.7z"/>
</g>
<g id="knife_easter-bunny-1-10">
	<path class="st0_easter-bunny-1-10" d="M38.7,126.6c0,0,19.2-5.4,27.8,43.2c8.5,47.9-7.1,93.8-7.1,93.8H38.7V126.6z"/>
	<path class="st1_easter-bunny-1-10" d="M59.5,265.4H38.7c-1,0-1.9-0.8-1.9-1.9v-137c0-0.8,0.5-1.6,1.3-1.8c0.2-0.1,4.7-1.3,10.3,2.3&#10;&#9;&#9;c6.3,4,14.9,14.5,19.8,42.4c8.5,47.8-7,94.2-7.2,94.7C61,264.9,60.3,265.4,59.5,265.4z M40.6,261.7h17.5&#10;&#9;&#9;c2.4-7.7,14.2-49.1,6.6-91.6c-4.7-26.3-12.4-36.2-18-39.8c-1.8-1.3-4-2-6.2-2.1L40.6,261.7z"/>
	<path class="st6_easter-bunny-1-10 targetColor" d="M51.8,371.5L51.8,371.5c7.2,0,13.1-5.8,13.2-13.1c0-0.1,0-0.3,0-0.4l-5.5-94.4H38.7v94.8&#10;&#9;&#9;C38.7,365.6,44.6,371.5,51.8,371.5z" style="fill: rgb(104, 225, 253);"/>
	<path class="st1_easter-bunny-1-10" d="M51.8,373.4c-8.3,0-15-6.7-15-15v-94.8c0-1,0.8-1.9,1.9-1.9h20.8c1,0,1.8,0.8,1.9,1.8l5.5,94.4&#10;&#9;&#9;c0.3,8.3-6.2,15.2-14.5,15.5C52.1,373.4,52,373.4,51.8,373.4L51.8,373.4z M40.6,265.4v93c0.1,6.2,5.2,11.2,11.4,11.1&#10;&#9;&#9;c6.2-0.1,11.2-5.2,11.1-11.4l0,0l-5.4-92.6L40.6,265.4z"/>
</g>
<g id="fork_easter-bunny-1-10">
	<path class="st6_easter-bunny-1-10 targetColor" d="M424.2,128.5L424.2,128.5c2.5,0,4.6,2.1,4.6,4.6v33.5h6.6v-33.5c0-2.5,2.1-4.6,4.6-4.6l0,0h0.9&#10;&#9;&#9;c2.5,0,4.6,2.1,4.6,4.6v0v33.5h6.6v-33.5c0-2.5,2.1-4.6,4.6-4.6l0,0l0,0c2.5,0,4.6,2,4.6,4.6c0,0,0,0,0,0V180&#10;&#9;&#9;c0,7-5.5,12.7-12.5,12.9l4.9,166.5c0.2,8.3-5.8,15.1-13.2,15.1s-13.4-6.8-13.2-15.1l4.9-166.5c-7-0.2-12.5-5.9-12.5-12.9v-46.9&#10;&#9;&#9;C419.6,130.5,421.6,128.5,424.2,128.5z" style="fill: rgb(104, 225, 253);"/>
	<path class="st1_easter-bunny-1-10" d="M440.4,376.4c-3.9,0-7.6-1.6-10.3-4.5c-3.2-3.4-5-7.9-4.8-12.6l4.8-164.7c-7.2-1.1-12.5-7.3-12.5-14.6v-46.9&#10;&#9;&#9;c0-3.6,2.9-6.5,6.5-6.5s6.5,2.9,6.5,6.5v31.7h2.9v-31.7c0-3.6,2.9-6.5,6.5-6.5h0.9c3.6,0,6.5,2.9,6.5,6.5v31.7h2.9v-31.7&#10;&#9;&#9;c0.1-3.6,3.1-6.4,6.7-6.2c3.4,0.1,6.1,2.8,6.2,6.2V180c0,7.3-5.3,13.5-12.5,14.6l4.8,164.7c0.1,4.7-1.6,9.2-4.8,12.6&#10;&#9;&#9;C448,374.7,444.3,376.3,440.4,376.4z M424.2,130.4c-1.5,0-2.7,1.2-2.8,2.7V180c0,6,4.7,10.9,10.7,11.1c1,0,1.9,0.8,1.9,1.9&#10;&#9;&#9;c0,0,0,0.1,0,0.1l-4.9,166.5c-0.1,3.7,1.2,7.2,3.8,9.9c3.9,4.2,10.5,4.5,14.7,0.5c0.2-0.2,0.4-0.4,0.5-0.5c2.5-2.7,3.9-6.2,3.8-9.9&#10;&#9;&#9;L446.9,193c0-1,0.8-1.9,1.8-1.9c0,0,0,0,0,0c6-0.2,10.8-5.1,10.7-11.1v-46.9c-0.1-1.5-1.4-2.7-2.9-2.6c-1.4,0.1-2.5,1.2-2.6,2.6&#10;&#9;&#9;v33.5c0,1-0.8,1.9-1.9,1.9h-6.6c-1,0-1.9-0.8-1.9-1.9v-33.5c0-1.5-1.2-2.7-2.7-2.7H440c-1.5,0-2.7,1.2-2.7,2.7v33.5&#10;&#9;&#9;c0,1-0.8,1.9-1.9,1.9h-6.6c-1,0-1.9-0.8-1.9-1.9v-33.5C427,131.6,425.7,130.3,424.2,130.4C424.2,130.3,424.2,130.3,424.2,130.4&#10;&#9;&#9;L424.2,130.4z"/>
</g>
<g id="egg_easter-bunny-1-10">
	<path class="st6_easter-bunny-1-10 targetColor" d="M334.8,276.8c0,5.8-0.4,11.7-1.3,17.5c0,0.4-0.1,0.8-0.2,1.2c-1.3,7.8-3.6,15.4-6.9,22.6&#10;&#9;&#9;c-1.3,2.7-2.7,5.4-4.3,7.9c-0.9,1.4-1.8,2.7-2.7,4c-15.9,22-42.4,32.5-71.2,32.5S192.9,352,177,330c-1-1.3-1.9-2.6-2.7-4&#10;&#9;&#9;c-2.5-4-4.7-8.3-6.4-12.7c-2.2-5.7-3.9-11.7-4.9-17.8c0-0.3-0.1-0.6-0.1-0.9c-0.7-3.9-1.1-7.9-1.2-11.9c-0.1-1.9-0.1-3.9-0.1-5.9&#10;&#9;&#9;c0-2.5,0.1-5.1,0.2-7.7c0.2-3.1,0.6-6.3,1-9.5c1-7.1,2.5-14.1,4.4-21c0.4-1.4,0.8-2.7,1.1-4.1c2.2-7.2,4.7-14.4,7.7-21.3&#10;&#9;&#9;c0.5-1.1,0.9-2.2,1.4-3.3c2.1-4.6,4.3-9.2,6.6-13.6c1.4-2.6,2.8-5.1,4.3-7.6c2.6-4.4,5.3-8.6,8.1-12.6&#10;&#9;&#9;c15.6-22.2,34.4-37.6,51.8-37.6c13.8,0,28.5,9.6,41.7,24.7c3.2,3.6,6.3,7.5,9.3,11.7c7.6,10.7,14.1,22.2,19.4,34.2&#10;&#9;&#9;c0.6,1.4,1.2,2.7,1.8,4.1c1.6,3.8,3.1,7.6,4.4,11.4c1.2,3.3,2.3,6.6,3.2,9.9c0.4,1.4,0.8,2.7,1.1,4.1c1.5,5.4,2.7,10.9,3.7,16.5&#10;&#9;&#9;c0.8,4.6,1.4,9.3,1.7,14c0.1,2.2,0.2,4.4,0.3,6.5C334.8,276,334.8,276.4,334.8,276.8z" style="fill: rgb(104, 225, 253);"/>
	<path class="st1_easter-bunny-1-10" d="M248.1,364.4c-31.3,0-57.1-11.8-72.7-33.3c-1-1.4-1.9-2.7-2.8-4.2c-2.6-4.1-4.8-8.5-6.6-13&#10;&#9;&#9;c-2.3-5.9-4-11.9-5-18.1c-0.1-0.3-0.1-0.6-0.1-0.9c-0.7-4-1.1-8-1.2-12.1c-0.1-2-0.1-4.1-0.1-6c0-2.6,0.1-5.3,0.3-7.9&#10;&#9;&#9;c0.2-3.2,0.6-6.5,1-9.6c1-7.2,2.5-14.3,4.4-21.3c0.4-1.4,0.8-2.8,1.2-4.1c2.2-7.3,4.8-14.5,7.7-21.5c0.3-0.7,0.6-1.4,0.9-2.1&#10;&#9;&#9;l0.5-1.2c2.1-4.7,4.3-9.3,6.7-13.8c1.4-2.7,2.9-5.3,4.3-7.7c2.5-4.3,5.3-8.6,8.2-12.7c17.4-24.7,36.4-38.4,53.3-38.4&#10;&#9;&#9;c13.6,0,28.5,8.8,43.1,25.3c3.2,3.7,6.4,7.6,9.4,11.8c7.7,10.8,14.3,22.4,19.6,34.5c0.6,1.4,1.2,2.7,1.8,4.1&#10;&#9;&#9;c1.6,3.9,3.2,7.8,4.5,11.6c1.1,3.1,2.2,6.5,3.2,10c0.4,1.4,0.8,2.8,1.2,4.1c1.5,5.5,2.7,11,3.7,16.6c0.8,4.7,1.4,9.5,1.7,14.2&#10;&#9;&#9;c0.1,2.1,0.2,4.4,0.3,6.6c0,0.4,0,0.8,0,1.2c0,5.9-0.4,11.9-1.4,17.8c0,0.3-0.1,0.7-0.2,1v0.2c-1.3,8-3.7,15.7-7.1,23&#10;&#9;&#9;c-1.3,2.8-2.8,5.5-4.4,8.1c-0.9,1.4-1.8,2.8-2.8,4.2C305.3,352.5,279.5,364.4,248.1,364.4z M248.1,140.2&#10;&#9;&#9;c-15.5,0-33.8,13.4-50.3,36.8c-2.9,4.1-5.6,8.3-8,12.5c-1.4,2.4-2.8,4.9-4.2,7.6c-2.3,4.4-4.6,8.9-6.6,13.5l-0.5,1.2&#10;&#9;&#9;c-0.3,0.7-0.6,1.4-0.9,2.1c-2.9,6.9-5.5,14-7.6,21.2c-0.4,1.3-0.8,2.7-1.1,4c-1.9,6.8-3.3,13.8-4.3,20.8c-0.4,3.1-0.8,6.2-1,9.4&#10;&#9;&#9;c-0.2,2.5-0.2,5.1-0.2,7.6c0,1.9,0,3.8,0.1,5.8c0.2,3.9,0.6,7.8,1.2,11.7c0,0.3,0.1,0.6,0.1,0.8c1,6,2.6,11.8,4.8,17.4&#10;&#9;&#9;c1.7,4.3,3.8,8.5,6.2,12.4c0.8,1.4,1.7,2.6,2.6,3.9c14.8,20.5,39.6,31.8,69.7,31.8s54.9-11.3,69.7-31.8c1-1.3,1.8-2.6,2.7-3.9&#10;&#9;&#9;c1.6-2.5,3-5.1,4.2-7.8c3.3-7,5.5-14.4,6.8-22.1v-0.2c0-0.3,0.1-0.6,0.1-1c0.9-5.7,1.4-11.4,1.4-17.2c0-0.4,0-0.7,0-1.1&#10;&#9;&#9;c0-2.2-0.1-4.4-0.3-6.5c-0.3-4.6-0.9-9.3-1.7-13.9c-0.9-5.5-2.1-10.9-3.6-16.3c-0.4-1.4-0.7-2.7-1.1-4c-1-3.4-2.1-6.7-3.2-9.8&#10;&#9;&#9;c-1.3-3.7-2.8-7.5-4.4-11.4c-0.6-1.4-1.2-2.7-1.8-4.1c-5.3-11.9-11.8-23.3-19.3-33.9c-2.9-4.1-6-8-9.1-11.6&#10;&#9;&#9;C274.6,148.6,260.6,140.2,248.1,140.2L248.1,140.2z"/>
	<path class="st0_easter-bunny-1-10" d="M334.5,269H161.7c0.2-3.1,0.6-6.3,1-9.5c1-7.1,2.5-14.1,4.4-21h162.1c1.5,5.4,2.7,10.9,3.7,16.5&#10;&#9;&#9;C333.7,259.6,334.2,264.3,334.5,269z"/>
	<path class="st1_easter-bunny-1-10" d="M334.5,270.9H161.7c-0.5,0-1-0.2-1.4-0.6c-0.4-0.4-0.5-0.9-0.5-1.4c0.2-3.2,0.6-6.5,1-9.6&#10;&#9;&#9;c1-7.2,2.5-14.3,4.4-21.3c0.2-0.8,1-1.4,1.8-1.4h162.1c0.8,0,1.6,0.6,1.8,1.4c1.5,5.5,2.7,11,3.7,16.6c0.8,4.7,1.4,9.5,1.7,14.2&#10;&#9;&#9;c0,0.5-0.2,1-0.5,1.4C335.5,270.6,335.1,270.9,334.5,270.9z M163.7,267.1h168.8c-0.3-3.9-0.8-7.8-1.5-11.9&#10;&#9;&#9;c-0.8-4.9-1.9-9.9-3.2-14.9H168.5c-1.7,6.4-3,12.9-3.9,19.4C164.2,262.2,163.9,264.7,163.7,267.1L163.7,267.1z"/>
	<path class="st0_easter-bunny-1-10" d="M333.5,294.2c0,0.4-0.1,0.8-0.2,1.2c-1.3,7.8-3.6,15.4-6.9,22.6c-1.9,0.8-3.9,1.2-6,1.1&#10;&#9;&#9;c-9.2,0-13.7-7-16.6-11.6c-2-3.2-3.1-4.7-4-4.7s-2,1.5-4,4.7c-2.9,4.6-7.4,11.6-16.6,11.6s-13.7-7-16.6-11.6c-2-3.2-3.1-4.7-4-4.7&#10;&#9;&#9;s-2,1.5-4,4.7c-2.9,4.6-7.4,11.6-16.6,11.6s-13.7-7-16.6-11.6c-2-3.2-3.1-4.7-4-4.7s-2,1.5-4,4.7c-2.9,4.6-7.4,11.6-16.6,11.6&#10;&#9;&#9;s-13.7-7-16.6-11.6c-2.1-3.2-3.1-4.7-4-4.7s-2,1.5-4,4.7c-1.2,2-2.5,3.9-4,5.6c-2.3-5.7-4.1-11.7-5.2-17.8c0-0.3-0.1-0.6-0.1-0.9&#10;&#9;&#9;c2.8-3.5,6.9-6.6,13.1-6.6c9.2,0,13.7,7,16.6,11.6c2.1,3.2,3.1,4.7,4,4.7s2-1.4,4-4.7c2.9-4.6,7.4-11.6,16.6-11.6s13.7,7,16.6,11.6&#10;&#9;&#9;c2.1,3.2,3.1,4.7,4,4.7s2-1.4,4-4.7c2.9-4.6,7.4-11.6,16.6-11.6s13.7,7,16.6,11.6c2,3.2,3.1,4.7,4,4.7s2-1.4,4-4.7&#10;&#9;&#9;c3-4.6,7.5-11.6,16.7-11.6s13.7,7,16.6,11.6c2,3.2,3.1,4.7,4,4.7s2-1.4,4-4.7c1.9-3,4.4-7,8.5-9.4&#10;&#9;&#9;C333.1,291.5,333.3,292.9,333.5,294.2z"/>
	<path class="st1_easter-bunny-1-10" d="M320.3,321c-10.3,0-15.2-7.8-18.2-12.4c-0.7-1.2-1.6-2.4-2.5-3.5c-0.9,1.1-1.7,2.3-2.5,3.5&#10;&#9;&#9;c-3,4.7-7.9,12.4-18.2,12.4s-15.2-7.8-18.2-12.4c-0.8-1.2-1.6-2.4-2.5-3.6c-0.9,1.1-1.7,2.3-2.5,3.5c-3,4.6-7.9,12.4-18.2,12.4&#10;&#9;&#9;s-15.2-7.8-18.2-12.4c-0.7-1.2-1.6-2.4-2.4-3.5c-0.9,1.1-1.7,2.3-2.5,3.5c-2.9,4.6-7.9,12.4-18.2,12.4s-15.2-7.8-18.2-12.4&#10;&#9;&#9;c-0.8-1.2-1.6-2.4-2.5-3.5c-0.9,1.1-1.7,2.3-2.4,3.5c-1.2,2.1-2.7,4-4.2,5.9c-0.7,0.8-1.9,0.8-2.6,0.2c-0.2-0.2-0.4-0.4-0.5-0.7&#10;&#9;&#9;c-2.3-5.9-4-11.9-5-18.1c-0.1-0.3-0.1-0.6-0.1-0.9c-0.1-0.5,0.1-1.1,0.4-1.5c4-4.9,8.8-7.3,14.5-7.3c10.3,0,15.2,7.8,18.2,12.4&#10;&#9;&#9;c0.8,1.2,1.6,2.4,2.5,3.5c0.9-1.1,1.7-2.3,2.4-3.5c3-4.7,7.9-12.4,18.2-12.4s15.2,7.8,18.1,12.4c0.8,1.2,1.6,2.5,2.5,3.6&#10;&#9;&#9;c0.9-1.1,1.7-2.3,2.5-3.5c2.9-4.7,7.9-12.4,18.2-12.4c10.3,0,15.2,7.8,18.2,12.4c0.7,1.2,1.6,2.4,2.5,3.6c0.9-1.1,1.7-2.3,2.5-3.5&#10;&#9;&#9;c3-4.7,7.9-12.4,18.2-12.4s15.2,7.8,18.1,12.4c0.8,1.3,1.6,2.5,2.5,3.6c0.9-1.1,1.7-2.3,2.5-3.5c2-3.2,4.7-7.4,9.1-10&#10;&#9;&#9;c0.9-0.5,2-0.2,2.5,0.6c0.1,0.2,0.2,0.4,0.2,0.7c0.2,1.4,0.5,2.8,0.6,4.1c0,0.2,0,0.3,0,0.5c0,0.4-0.1,0.7-0.2,1.1v0.2&#10;&#9;&#9;c-1.3,8-3.7,15.7-7.1,23c-0.2,0.4-0.6,0.8-1,0.9C324.9,320.5,322.6,321,320.3,321z M299.7,301c2,0,3.4,2,5.6,5.5&#10;&#9;&#9;c2.9,4.5,6.8,10.7,15,10.7c1.6,0,3.2-0.2,4.7-0.8c3.1-6.8,5.3-14,6.5-21.4v-0.2c0-0.2,0.1-0.5,0.1-0.7s-0.1-0.5-0.1-0.8&#10;&#9;&#9;c-2.1,2.1-4,4.4-5.5,7c-2.3,3.7-3.7,5.7-5.7,5.7s-3.4-2-5.6-5.5c-2.9-4.5-6.8-10.7-15-10.7s-12.2,6.2-15,10.7&#10;&#9;&#9;c-2.2,3.5-3.6,5.5-5.6,5.5s-3.4-2-5.6-5.5c-2.9-4.5-6.8-10.7-15-10.7s-12.2,6.2-15,10.7c-2.2,3.5-3.6,5.5-5.6,5.5s-3.4-2-5.6-5.5&#10;&#9;&#9;c-2.9-4.5-6.8-10.7-15-10.7s-12.1,6.2-15,10.7c-2.2,3.5-3.6,5.5-5.6,5.5s-3.4-2-5.6-5.5c-2.9-4.5-6.8-10.7-15-10.7&#10;&#9;&#9;c-4.4,0-7.9,1.7-11.1,5.3c0.8,4.9,2,9.6,3.6,14.3c0.7-0.9,1.3-1.9,1.9-2.9c2.3-3.6,3.6-5.5,5.6-5.5s3.3,1.9,5.6,5.5&#10;&#9;&#9;c2.9,4.5,6.8,10.7,15,10.7s12.2-6.2,15-10.7c2.3-3.6,3.6-5.5,5.6-5.5s3.4,2,5.6,5.5c2.9,4.5,6.8,10.7,15,10.7s12.2-6.2,15-10.7&#10;&#9;&#9;c2.3-3.6,3.6-5.5,5.6-5.5s3.3,1.9,5.6,5.5c2.9,4.5,6.8,10.7,15,10.7s12.1-6.2,15-10.7C296.4,302.9,297.7,301,299.7,301z"/>
	<path class="st0_easter-bunny-1-10" d="M181.8,200.4c1,0.4,2,0.6,3,0.6c10.3,0,10.3-16.2,20.6-16.2S215.7,201,226,201s10.3-16.2,20.6-16.2&#10;&#9;&#9;S257,201,267.3,201s10.3-16.2,20.6-16.2s10.3,16.2,20.6,16.2c1.9,0,3.8-0.6,5.3-1.8l6.1,12.9l0,0c-3,4.5-5.5,9.8-11.4,9.8&#10;&#9;&#9;c-10.3,0-10.3-16.2-20.6-16.2s-10.3,16.2-20.6,16.2s-10.3-16.2-20.7-16.2s-10.3,16.2-20.7,16.2s-10.3-16.2-20.6-16.2&#10;&#9;&#9;s-10.3,16.2-20.6,16.2c-4.7,0-7.2-3.4-9.6-7L181.8,200.4z"/>
	<path class="st1_easter-bunny-1-10" d="M308.5,223.7c-6.2,0-9.2-4.8-11.9-9c-2.5-3.9-4.6-7.3-8.8-7.3s-6.3,3.4-8.8,7.3c-2.7,4.2-5.7,9-11.9,9&#10;&#9;&#9;s-9.2-4.8-11.9-9c-2.5-3.9-4.6-7.3-8.8-7.3s-6.3,3.4-8.8,7.3c-2.7,4.2-5.7,9-11.9,9s-9.2-4.8-11.9-9c-2.5-3.9-4.6-7.3-8.8-7.3&#10;&#9;&#9;s-6.3,3.4-8.7,7.2c-2.7,4.2-5.7,9-11.9,9s-9.3-4.9-11.2-7.9c-0.3-0.5-0.4-1.2-0.1-1.8l6.6-14.4c0.4-0.9,1.5-1.3,2.4-0.9&#10;&#9;&#9;c0.7,0.3,1.5,0.4,2.3,0.4c4.1,0,6.3-3.4,8.8-7.3c2.7-4.2,5.7-9,11.9-9s9.2,4.8,11.9,9c2.5,3.9,4.6,7.3,8.7,7.3s6.3-3.4,8.8-7.3&#10;&#9;&#9;c2.7-4.2,5.7-9,11.9-9s9.2,4.8,11.9,9c2.5,3.9,4.6,7.3,8.7,7.3s6.3-3.4,8.7-7.3c2.7-4.2,5.7-9,11.9-9s9.2,4.8,11.9,9&#10;&#9;&#9;c2.5,3.9,4.6,7.3,8.7,7.3c1.5,0,3-0.5,4.2-1.4c0.8-0.6,2-0.5,2.6,0.3c0.1,0.1,0.2,0.2,0.2,0.4l6.1,12.9c0.1,0.2,0.2,0.5,0.2,0.8&#10;&#9;&#9;c0,0.4-0.1,0.7-0.3,1c-0.4,0.5-0.7,1.1-1,1.6C317.8,218.9,314.8,223.7,308.5,223.7z M287.9,203.7c6.2,0,9.2,4.8,11.9,9&#10;&#9;&#9;c2.5,3.9,4.6,7.3,8.7,7.3s6.3-3.4,8.8-7.3l0.5-0.8l-4.8-10.1c-1.4,0.7-3,1-4.5,1c-6.2,0-9.2-4.8-11.9-9c-2.5-3.9-4.6-7.3-8.8-7.3&#10;&#9;&#9;s-6.3,3.4-8.8,7.3c-2.7,4.2-5.7,9-11.9,9s-9.2-4.8-11.9-9c-2.5-3.9-4.6-7.3-8.8-7.3s-6.3,3.4-8.8,7.3c-2.7,4.2-5.7,9-11.9,9&#10;&#9;&#9;s-9.2-4.8-11.9-9c-2.5-3.9-4.6-7.3-8.8-7.3s-6.3,3.4-8.7,7.3c-2.7,4.2-5.7,9-11.9,9c-0.7,0-1.3-0.1-2-0.2l-5.5,12&#10;&#9;&#9;c2.3,3.4,4.3,5.3,7.5,5.3c4.1,0,6.3-3.4,8.8-7.3c2.7-4.2,5.7-9,11.9-9s9.2,4.8,11.9,9c2.5,3.9,4.6,7.3,8.7,7.3s6.3-3.4,8.8-7.3&#10;&#9;&#9;c2.7-4.2,5.7-9,11.9-9s9.2,4.8,11.9,9c2.5,3.9,4.6,7.2,8.7,7.2s6.3-3.4,8.7-7.3C278.7,208.5,281.7,203.7,287.9,203.7L287.9,203.7z"/>
	<path class="st1_easter-bunny-1-10" d="M267.3,181.9c-6.2,0-9.2-4.8-11.9-9c-2.5-3.9-4.6-7.3-8.8-7.3s-6.3,3.4-8.8,7.3c-2.7,4.2-5.7,9-11.9,9&#10;&#9;&#9;s-9.2-4.8-11.9-9c-2.4-3.8-4.5-7.1-8.5-7.2c-1,0-1.8-0.9-1.8-1.9s0.9-1.8,1.9-1.8c5.9,0.2,8.9,4.9,11.5,9c2.5,3.9,4.6,7.3,8.7,7.3&#10;&#9;&#9;s6.3-3.4,8.8-7.3c2.7-4.2,5.7-9,11.9-9s9.2,4.8,11.9,9c2.5,3.9,4.6,7.2,8.7,7.2s6.3-3.4,8.7-7.3c2.7-4.2,5.7-9,11.9-9&#10;&#9;&#9;c1.3,0,2.6,0.2,3.9,0.7c0.9,0.4,1.4,1.5,1,2.4s-1.5,1.4-2.4,1l0,0c-0.8-0.3-1.6-0.5-2.4-0.4c-4.1,0-6.3,3.4-8.8,7.3&#10;&#9;&#9;C276.5,177.2,273.5,181.9,267.3,181.9z"/>
	<path class="st0_easter-bunny-1-10" d="M319.3,330c-15.9,22-42.4,32.5-71.2,32.5S192.9,352,177,330H319.3z"/>
	<path class="st1_easter-bunny-1-10" d="M248.1,364.4c-31.3,0-57.1-11.8-72.7-33.3c-0.6-0.8-0.4-2,0.4-2.6c0.3-0.2,0.7-0.4,1.1-0.4h142.3&#10;&#9;&#9;c1,0,1.9,0.8,1.9,1.9c0,0.4-0.1,0.8-0.4,1.1C305.3,352.5,279.5,364.4,248.1,364.4z M180.7,331.8c15,18.6,38.8,28.8,67.4,28.8&#10;&#9;&#9;s52.4-10.2,67.4-28.8H180.7z"/>
</g>
</svg>