<svg version="1.1" id="Layer_1" xmlns="http://www.w3.org/2000/svg" xmlns:xlink="http://www.w3.org/1999/xlink" x="0px" y="0px" viewBox="0 0 500 500" style="width: 166px;" xml:space="preserve" data-imageid="easter-egg-3-88" imageName="Easter Egg 3" class="illustrations_image">
<style type="text/css">
	.st0_easter-egg-3-88{fill:#68E1FD;}
	.st1_easter-egg-3-88{fill:#093F68;}
	.st2_easter-egg-3-88{fill:#FFFFFF;}
</style>
<g id="basket_easter-egg-3-88">
	<path class="st0_easter-egg-3-88 targetColor" d="M355.4,333.7c-3.3,0-6-2.7-6-6v-32.9c0-56.8-43.8-103-97.5-103s-97.5,46.2-97.5,103v32.9c0,3.3-2.7,6-6,6&#10;&#9;&#9;s-6-2.7-6-6v-32.9c0-63.4,49.1-115,109.5-115s109.6,51.6,109.6,115v32.9C361.4,331,358.8,333.7,355.4,333.7&#10;&#9;&#9;C355.4,333.7,355.4,333.7,355.4,333.7z" style="fill: rgb(104, 225, 253);"/>
	<path class="st1_easter-egg-3-88" d="M355.4,335.6c-4.3,0-7.9-3.5-7.9-7.9v-32.9c0-55.8-42.9-101.1-95.7-101.1s-95.7,45.3-95.7,101.1v32.9&#10;&#9;&#9;c0.2,4.3-3.2,8-7.6,8.2c-4.3,0.2-8-3.2-8.2-7.6c0-0.2,0-0.4,0-0.6v-32.9c0-64.4,50-116.9,111.4-116.9s111.4,52.4,111.4,116.9v32.9&#10;&#9;&#9;C363.2,332,359.7,335.6,355.4,335.6z M251.9,189.9c54.8,0,99.4,47,99.4,104.8v32.9c0,2.3,1.9,4.1,4.2,4.1c2.3,0,4.1-1.9,4.1-4.1&#10;&#9;&#9;v-32.9c0-62.4-48.3-113.1-107.7-113.1s-107.7,50.7-107.7,113.1v32.9c0,2.3,1.9,4.1,4.1,4.1c2.3,0,4.2-1.9,4.2-4.1v-32.9&#10;&#9;&#9;C152.5,237,197.1,189.9,251.9,189.9z"/>
	<path class="st0_easter-egg-3-88 targetColor" d="M364.6,317.1c-3.9,62.5-57.7,110.1-120.2,106.2c-57.1-3.5-102.7-49.1-106.2-106.2H364.6z" style="fill: rgb(104, 225, 253);"/>
	<path class="st1_easter-egg-3-88" d="M251.4,425.3c-60.9,0-111.3-47.3-115.1-108.1c0-0.5,0.2-1,0.5-1.4c0.4-0.4,0.8-0.6,1.4-0.6h226.4&#10;&#9;&#9;c0.5,0,1,0.2,1.4,0.6c0.4,0.4,0.5,0.9,0.5,1.4C362.7,378,312.3,425.3,251.4,425.3z M140.2,319c4.9,61.4,58.7,107.2,120.1,102.3&#10;&#9;&#9;c54.6-4.4,98-47.7,102.3-102.3H140.2z"/>
	<path class="st0_easter-egg-3-88 targetColor" d="M134.1,302.3h234.7c2.9,0,5.2,2.3,5.2,5.2v16c0,2.9-2.3,5.2-5.2,5.2H134.1c-2.9,0-5.2-2.3-5.2-5.2v-16&#10;&#9;&#9;C128.9,304.6,131.2,302.3,134.1,302.3z" style="fill: rgb(104, 225, 253);"/>
	<path class="st1_easter-egg-3-88" d="M364.3,330.6H138.6c-6.4,0-11.6-5.2-11.6-11.6v-7c0-6.4,5.2-11.6,11.6-11.6h225.7c6.4,0,11.6,5.2,11.6,11.6v7&#10;&#9;&#9;C375.9,325.4,370.7,330.6,364.3,330.6z M138.6,304.1c-4.3,0-7.8,3.5-7.9,7.9v7c0,4.3,3.5,7.8,7.9,7.8h225.7c4.3,0,7.8-3.5,7.9-7.8&#10;&#9;&#9;v-7c0-4.3-3.5-7.8-7.9-7.9H138.6z"/>
	<path class="st0_easter-egg-3-88 targetColor" d="M196.4,408.7h110.1c1.3,0,2.4,1.1,2.4,2.4v10c0,1.3-1.1,2.4-2.4,2.4H196.4c-1.3,0-2.4-1.1-2.4-2.4v-10&#10;&#9;&#9;C193.9,409.7,195,408.7,196.4,408.7z" style="fill: rgb(104, 225, 253);"/>
	<path class="st1_easter-egg-3-88" d="M304.4,425.3h-106c-3.5,0-6.3-2.8-6.4-6.3v-5.8c0-3.5,2.8-6.3,6.4-6.4h106c3.5,0,6.3,2.8,6.4,6.4v5.8&#10;&#9;&#9;C310.8,422.5,307.9,425.3,304.4,425.3z M198.4,410.5c-1.4,0-2.6,1.2-2.6,2.6c0,0,0,0,0,0v5.9c0,1.4,1.2,2.6,2.6,2.6h106&#10;&#9;&#9;c1.4,0,2.6-1.2,2.6-2.6v-5.8c0-1.4-1.2-2.6-2.6-2.6c0,0,0,0,0,0L198.4,410.5z"/>
	<path class="st2_easter-egg-3-88" d="M357.5,350.2c-3.9,10.4-9.4,20.2-16.2,29H161.5c-6.8-8.8-12.3-18.6-16.2-29H357.5z"/>
	<path class="st1_easter-egg-3-88" d="M341.3,381.1H161.5c-0.6,0-1.1-0.3-1.5-0.7c-6.9-9-12.5-18.9-16.5-29.5c-0.4-1,0.1-2,1.1-2.4&#10;&#9;&#9;c0.2-0.1,0.4-0.1,0.7-0.1h212.2c0.6,0,1.2,0.3,1.5,0.8c0.3,0.5,0.4,1.1,0.2,1.7c-4,10.6-9.6,20.5-16.5,29.5&#10;&#9;&#9;C342.4,380.8,341.9,381.1,341.3,381.1z M162.5,377.4h177.9c5.9-7.8,10.7-16.3,14.4-25.3H148.1C151.7,361.1,156.6,369.6,162.5,377.4&#10;&#9;&#9;L162.5,377.4z"/>
	<circle class="st0_easter-egg-3-88 targetColor" cx="181.9" cy="364.1" r="5.3" style="fill: rgb(104, 225, 253);"/>
	<path class="st1_easter-egg-3-88" d="M181.9,371.2c-3.9,0-7.1-3.2-7.1-7.1c0-3.9,3.2-7.1,7.1-7.1s7.1,3.2,7.1,7.1c0,0,0,0,0,0&#10;&#9;&#9;C189,368,185.8,371.2,181.9,371.2z M181.9,360.6c-1.9,0-3.4,1.5-3.4,3.4c0,1.9,1.5,3.4,3.4,3.4c1.9,0,3.4-1.5,3.4-3.4&#10;&#9;&#9;S183.7,360.6,181.9,360.6C181.9,360.6,181.9,360.6,181.9,360.6z"/>
	<circle class="st0_easter-egg-3-88 targetColor" cx="228.6" cy="364.1" r="5.3" style="fill: rgb(104, 225, 253);"/>
	<path class="st1_easter-egg-3-88" d="M228.6,371.2c-3.9,0-7.1-3.2-7.1-7.1c0-3.9,3.2-7.1,7.1-7.1s7.1,3.2,7.1,7.1c0,0,0,0,0,0&#10;&#9;&#9;C235.7,368,232.5,371.2,228.6,371.2z M228.6,360.6c-1.9,0-3.4,1.5-3.4,3.4c0,1.9,1.5,3.4,3.4,3.4c1.9,0,3.4-1.5,3.4-3.4&#10;&#9;&#9;S230.4,360.6,228.6,360.6C228.6,360.6,228.6,360.6,228.6,360.6z"/>
	<circle class="st0_easter-egg-3-88 targetColor" cx="275.3" cy="364.1" r="5.3" style="fill: rgb(104, 225, 253);"/>
	<path class="st1_easter-egg-3-88" d="M275.3,371.2c-3.9,0-7.1-3.2-7.1-7.1c0-3.9,3.2-7.1,7.1-7.1c3.9,0,7.1,3.2,7.1,7.1c0,0,0,0,0,0&#10;&#9;&#9;C282.4,368,279.2,371.2,275.3,371.2z M275.3,360.6c-1.9,0-3.4,1.5-3.4,3.4c0,1.9,1.5,3.4,3.4,3.4c1.9,0,3.4-1.5,3.4-3.4&#10;&#9;&#9;c0,0,0,0,0,0C278.7,362.2,277.1,360.6,275.3,360.6z"/>
	<circle class="st0_easter-egg-3-88 targetColor" cx="322" cy="364.1" r="5.3" style="fill: rgb(104, 225, 253);"/>
	<path class="st1_easter-egg-3-88" d="M322,371.2c-3.9,0-7.1-3.2-7.1-7.1c0-3.9,3.2-7.1,7.1-7.1c3.9,0,7.1,3.2,7.1,7.1c0,0,0,0,0,0&#10;&#9;&#9;C329.1,368,325.9,371.2,322,371.2z M322,360.6c-1.9,0-3.4,1.5-3.4,3.4c0,1.9,1.5,3.4,3.4,3.4c1.9,0,3.4-1.5,3.4-3.4c0,0,0,0,0,0&#10;&#9;&#9;C325.4,362.2,323.9,360.6,322,360.6z"/>
</g>
<g id="character_easter-egg-3-88">
	<path class="st2_easter-egg-3-88" d="M251.4,264.5c-21.1,0-39.3,15.1-43.2,35.9h86.4C290.7,279.6,272.6,264.6,251.4,264.5z"/>
	<path class="st1_easter-egg-3-88" d="M249,262.7h4.8c21.8,0,40.2,16.1,43,37.7h1.5c-4.5-25.9-29.1-43.3-55-38.9c-19.9,3.4-35.5,19-38.9,38.9h1.6&#10;&#9;&#9;C208.8,278.8,227.2,262.7,249,262.7z"/>
	<path class="st1_easter-egg-3-88" d="M253.8,262.7H249c-21.8,0-40.2,16.1-43,37.7h2.2c4.5-23.8,27.4-39.6,51.3-35.1c17.8,3.3,31.8,17.3,35.1,35.1&#10;&#9;&#9;h2.2C294,278.8,275.6,262.7,253.8,262.7z"/>
	<path class="st2_easter-egg-3-88" d="M319.7,123.5c-14.6,26.2-41.9,55.9-52.1,50.2s0.6-44.6,15.2-70.8s27.4-29.7,37.6-24S334.2,97.4,319.7,123.5z"/>
	<path class="st1_easter-egg-3-88" d="M270.5,176.3c-1.3,0-2.6-0.3-3.8-0.9c-7-3.9-5.3-18.3-2.6-29.7c3.8-15.2,9.5-29.8,17.1-43.6&#10;&#9;&#9;c13.3-23.9,26.8-32.2,40.1-24.8s13.4,23.3,0.1,47.1c-7.7,13.6-17.1,26.2-28,37.5C286.4,168.8,277.4,176.3,270.5,176.3z M311.9,78.5&#10;&#9;&#9;c-8.9,0-18.1,8.5-27.5,25.4c-7.4,13.4-13,27.7-16.7,42.6c-3.3,13.7-3,23.6,0.8,25.6s12.3-2.8,22.2-12.8&#10;&#9;&#9;c10.7-11,19.9-23.3,27.4-36.6c12.1-21.7,12.5-35.9,1.4-42.1C317.1,79.2,314.5,78.5,311.9,78.5z"/>
	<path class="st2_easter-egg-3-88" d="M183.2,123.5c14.6,26.2,41.9,55.9,52.1,50.2s-0.6-44.6-15.2-70.8s-27.4-29.7-37.6-24S168.6,97.4,183.2,123.5z"/>
	<path class="st1_easter-egg-3-88" d="M232.4,176.3c-6.9,0-15.9-7.5-22.8-14.4c-10.9-11.2-20.3-23.8-28-37.5c-13.3-23.9-13.2-39.7,0.1-47.1&#10;&#9;&#9;s26.8,0.9,40.1,24.8c7.6,13.7,13.3,28.4,17.1,43.6c2.7,11.4,4.4,25.8-2.6,29.8C235.1,176,233.7,176.3,232.4,176.3z M191,78.5&#10;&#9;&#9;c-2.6,0-5.2,0.7-7.5,2.1c-11.2,6.2-10.7,20.4,1.4,42.1c7.5,13.3,16.7,25.7,27.4,36.6c10,10,18.5,14.9,22.2,12.8s4.1-11.9,0.8-25.6&#10;&#9;&#9;c-3.7-14.9-9.3-29.2-16.7-42.6C209.1,87,199.9,78.5,191,78.5z"/>
	<path class="st2_easter-egg-3-88" d="M315.7,223.5c0,31.8-28.8,48.1-64.2,48.1s-64.2-16.4-64.2-48.1s28.8-66.9,64.2-66.9S315.7,191.8,315.7,223.5z"/>
	<path class="st1_easter-egg-3-88" d="M251.4,273.5c-40.1,0-66.1-19.6-66.1-50c0-31.8,28.9-68.7,66.1-68.7s66.1,36.9,66.1,68.7&#10;&#9;&#9;C317.5,253.9,291.6,273.5,251.4,273.5z M251.4,158.5c-28.8,0-62.4,28.4-62.4,65c0,28.1,24.5,46.3,62.4,46.3s62.4-18.2,62.4-46.3&#10;&#9;&#9;C313.8,193.5,286.6,158.6,251.4,158.5L251.4,158.5z"/>
	<circle class="st1_easter-egg-3-88" cx="223.3" cy="209.2" r="5.1"/>
	<circle class="st1_easter-egg-3-88" cx="279.5" cy="209.2" r="5.1"/>
	<path class="st2_easter-egg-3-88" d="M228,233.2c0,0,8.3,8.4,16.7,4.7c6.9-3.1,6.9-15.2,6.9-15.2"/>
	<path class="st1_easter-egg-3-88" d="M240.2,240.7c-7.3,0-13.2-5.9-13.5-6.2c-0.7-0.7-0.7-1.9,0.1-2.6c0.7-0.7,1.9-0.7,2.6,0&#10;&#9;&#9;c0.1,0.1,7.5,7.4,14.6,4.3c4.8-2.1,5.8-10.4,5.8-13.5c0-1,0.8-1.9,1.9-1.9s1.9,0.8,1.9,1.9c0,0.6-0.1,13.4-8,16.9&#10;&#9;&#9;C243.8,240.3,242,240.7,240.2,240.7z"/>
	<path class="st2_easter-egg-3-88" d="M274.8,233.2c0,0-8.3,8.4-16.7,4.7c-6.9-3.1-6.9-15.2-6.9-15.2"/>
	<path class="st1_easter-egg-3-88" d="M262.7,240.7c-1.8,0-3.6-0.4-5.2-1.1c-8-3.5-8.1-16.3-8.1-16.9c0-1,0.8-1.9,1.9-1.9l0,0c1,0,1.9,0.8,1.9,1.9&#10;&#9;&#9;l0,0c0,3,1.1,11.4,5.8,13.5c7.1,3.1,14.5-4.2,14.6-4.3c0.7-0.7,1.9-0.7,2.6,0c0.7,0.7,0.7,1.9,0,2.6&#10;&#9;&#9;C275.9,234.8,269.9,240.7,262.7,240.7z"/>
	<ellipse class="st1_easter-egg-3-88" cx="251.6" cy="222.7" rx="8.5" ry="4.8"/>
	<path class="st1_easter-egg-3-88" d="M251.6,229.4c-5.8,0-10.4-2.9-10.4-6.7s4.6-6.7,10.4-6.7s10.4,3,10.4,6.7S257.5,229.4,251.6,229.4z&#10;&#9;&#9; M251.6,219.8c-4.1,0-6.7,1.8-6.7,3s2.6,3,6.7,3s6.7-1.8,6.7-3S255.7,219.8,251.6,219.8z"/>
	<path class="st2_easter-egg-3-88" d="M180.1,291.1H205c2.4,0,4.4,2,4.4,4.4v12.2c0,7.7-6.2,13.9-13.9,13.9h0h-5.8c-7.7,0-13.9-6.2-13.9-13.9l0,0&#10;&#9;&#9;v-12.2C175.7,293.1,177.7,291.1,180.1,291.1z"/>
	<path class="st1_easter-egg-3-88" d="M192.6,323.5c-10.3,0-18.7-8.4-18.7-18.7v-5.6c0-5.5,4.5-10,10-10h17.4c5.5,0,10,4.5,10,10v5.6&#10;&#9;&#9;C211.3,315.1,202.9,323.5,192.6,323.5C192.6,323.5,192.6,323.5,192.6,323.5z M183.8,293c-3.4,0-6.2,2.8-6.2,6.2v5.6&#10;&#9;&#9;c0.6,8.3,7.9,14.4,16.1,13.8c7.4-0.6,13.2-6.4,13.8-13.8v-5.6c0-3.4-2.8-6.2-6.2-6.2H183.8z"/>
	<path class="st1_easter-egg-3-88" d="M186.8,322.4c-1,0-1.9-0.8-1.9-1.9V305c0-1,0.8-1.9,1.9-1.9s1.9,0.8,1.9,1.9v15.5&#10;&#9;&#9;C188.6,321.5,187.8,322.4,186.8,322.4L186.8,322.4z"/>
	<path class="st1_easter-egg-3-88" d="M198.4,322.4c-1,0-1.9-0.8-1.9-1.9V305c0-1,0.8-1.9,1.9-1.9s1.9,0.8,1.9,1.9v15.5&#10;&#9;&#9;C200.2,321.5,199.4,322.4,198.4,322.4L198.4,322.4z"/>
	<path class="st2_easter-egg-3-88" d="M297.9,291.1h24.9c2.4,0,4.4,2,4.4,4.4v11.3c0,8.2-6.6,14.8-14.8,14.8h-4c-8.2,0-14.8-6.6-14.8-14.8v-11.3&#10;&#9;&#9;C293.4,293.1,295.4,291.1,297.9,291.1L297.9,291.1z"/>
	<path class="st1_easter-egg-3-88" d="M310.3,323.5c-10.3,0-18.7-8.4-18.7-18.7v-5.6c0-5.5,4.5-10,10-10H319c5.5,0,10,4.5,10,10v5.6&#10;&#9;&#9;C329,315.1,320.6,323.5,310.3,323.5z M301.6,293c-3.4,0-6.2,2.8-6.2,6.2v5.6c0.6,8.3,7.9,14.4,16.1,13.8&#10;&#9;&#9;c7.4-0.6,13.2-6.4,13.8-13.8v-5.6c0-3.5-2.8-6.2-6.3-6.2H301.6z"/>
	<path class="st1_easter-egg-3-88" d="M304.5,322.4c-1,0-1.9-0.8-1.9-1.9V305c0-1,0.8-1.9,1.9-1.9c1,0,1.9,0.8,1.9,1.9v15.5&#10;&#9;&#9;C306.4,321.5,305.5,322.4,304.5,322.4L304.5,322.4z"/>
	<path class="st1_easter-egg-3-88" d="M316.1,322.4c-1,0-1.9-0.8-1.9-1.9V305c0-1,0.8-1.9,1.9-1.9c1,0,1.9,0.8,1.9,1.9v15.5&#10;&#9;&#9;C318,321.5,317.1,322.4,316.1,322.4L316.1,322.4z"/>
</g>
</svg>