<svg id="_0336_ecology" xmlns="http://www.w3.org/2000/svg" viewBox="0 0 500 500" data-imageid="ecology-46" imageName="Ecology" class="illustrations_image" style="width: 166px;"><defs><style>.cls-1_ecology-46{fill:#fff;}.cls-2_ecology-46{fill:#f4a28c;}.cls-3_ecology-46{fill:#a5a5a5;}.cls-4_ecology-46{opacity:.44;}.cls-4_ecology-46,.cls-5_ecology-46,.cls-6_ecology-46,.cls-7_ecology-46{fill:none;}.cls-8_ecology-46{fill:#e6e6e6;}.cls-5_ecology-46{opacity:.09;}.cls-6_ecology-46{opacity:.08;}.cls-9_ecology-46{fill:#24285b;}.cls-10_ecology-46{fill:#000001;}.cls-7_ecology-46{opacity:.15;}.cls-11_ecology-46{fill:#ffd200;}.cls-12_ecology-46{fill:#68e1fd;}</style></defs><g id="clouds_ecology-46"><path class="cls-8_ecology-46" d="m443.29,82.17c0-6.7-5.43-12.14-12.14-12.14-.67,0-1.31.07-1.95.17-2.76-5.13-8.18-8.61-14.41-8.61-.2,0-.4.02-.6.03.38-1.51.6-3.08.6-4.71,0-10.72-8.69-19.42-19.42-19.42s-19.42,8.69-19.42,19.42c0,1.63.22,3.2.6,4.71-.2,0-.4-.03-.6-.03-9.03,0-16.36,7.32-16.36,16.36s7.32,16.36,16.36,16.36h56.78v-.11c5.95-.77,10.55-5.85,10.55-12.02Z"/><path class="cls-8_ecology-46" d="m100.5,264.77c0-6.22-5.04-11.26-11.26-11.26-.62,0-1.22.06-1.81.16-2.56-4.76-7.59-7.99-13.37-7.99-.19,0-.37.02-.56.03.35-1.4.56-2.86.56-4.37,0-9.95-8.07-18.02-18.02-18.02s-18.02,8.07-18.02,18.02c0,1.51.21,2.97.56,4.37-.19,0-.37-.03-.56-.03-8.39,0-15.18,6.8-15.18,15.18s6.8,15.18,15.18,15.18h52.69v-.1c5.52-.72,9.8-5.43,9.8-11.16Z"/><path class="cls-8_ecology-46" d="m477.17,241.38c0-6.22-5.04-11.26-11.26-11.26-.62,0-1.22.06-1.81.16-2.56-4.76-7.59-7.99-13.37-7.99-.19,0-.37.02-.56.03.35-1.4.56-2.86.56-4.37,0-9.95-8.07-18.02-18.02-18.02s-18.02,8.07-18.02,18.02c0,1.51.21,2.97.56,4.37-.19,0-.37-.03-.56-.03-8.39,0-15.18,6.8-15.18,15.18s6.8,15.18,15.18,15.18h52.69v-.1c5.52-.72,9.8-5.43,9.8-11.16Z"/></g><g id="sun_ecology-46"><circle class="cls-11_ecology-46" cx="127.01" cy="120.52" r="36.67"/><g class="cls-7_ecology-46"><circle class="cls-11_ecology-46" cx="127.01" cy="120.52" r="57.32"/></g></g><g id="ecology_ecology-46"><path class="cls-8_ecology-46" d="m279.83,217.3s-18.46-5.73-19.64,9.74l21.64.72-2.01-10.46Z"/><path class="cls-12_ecology-46 targetColor" d="m329.89,244.33s.06-6.75,5.27-7.33c5.21-.58,3.18,7.41,7.82,7.33s8.97-6.17,12.16,2.23-6.29,8.38,1.77,12.3c8.07,3.92,7.16,11.18-.64,11.75s-29.92-15.47-26.38-26.27Z" style="fill: rgb(104, 225, 253);"/><g class="cls-4_ecology-46"><path class="cls-1_ecology-46" d="m329.89,244.33s.06-6.75,5.27-7.33c5.21-.58,3.18,7.41,7.82,7.33s8.97-6.17,12.16,2.23-6.29,8.38,1.77,12.3c8.07,3.92,7.16,11.18-.64,11.75s-29.92-15.47-26.38-26.27Z"/></g><path class="cls-12_ecology-46 targetColor" d="m305.14,88.37c-6.3-19.65-34.13-19.73-40.46-.1-13.95,43.22-24.72,95.97,5.06,97.5,50.66,2.61,53.43-7.08,50.95-30.11-2.07-19.28-6.69-39.68-15.55-67.3Z" style="fill: rgb(104, 225, 253);"/><g class="cls-6_ecology-46"><path class="cls-10_ecology-46" d="m305.14,88.37c-6.3-19.65-34.13-19.73-40.46-.1-13.95,43.22-24.72,95.97,5.06,97.5,50.66,2.61,53.43-7.08,50.95-30.11-2.07-19.28-6.69-39.68-15.55-67.3Z"/></g><polygon class="cls-9_ecology-46" points="279.23 227.76 286.46 100.96 288.11 228.76 281.84 227.76 279.23 227.76"/><path class="cls-12_ecology-46 targetColor" d="m241.25,213.8s-5.39-8.07-9.73-6.04,3.28,13.9-3.86,11.29c-7.14-2.61-12.06-1.45-11.77,5.21.29,6.66-15.28,1.98-6.62,21.11l30.94-13.3,1.04-17.08v-1.2Z" style="fill: rgb(104, 225, 253);"/><g class="cls-4_ecology-46"><path class="cls-1_ecology-46" d="m241.25,213.8s-5.39-8.07-9.73-6.04,3.28,13.9-3.86,11.29c-7.14-2.61-12.06-1.45-11.77,5.21.29,6.66-15.28,1.98-6.62,21.11l30.94-13.3,1.04-17.08v-1.2Z"/></g><path class="cls-3_ecology-46" d="m193.31,270.01s4.34-32.11,55.59-41.51c51.24-9.4,112.91,17.57,121.6,80.95,8.69,63.38-162.42,10.6-177.18-39.44Z"/><path class="cls-2_ecology-46" d="m228.05,329.62s47.77,21.45,86.85,25.82c39.08,4.37,87.72-32.07,72.09-45.99s-49.51,5.32-73.83-6.04c-24.32-11.35-91.2-26.56-85.12,26.21Z"/><g class="cls-5_ecology-46"><path class="cls-10_ecology-46" d="m228.05,329.62s47.77,21.45,86.85,25.82c39.08,4.37,87.72-32.07,72.09-45.99s-49.51,5.32-73.83-6.04c-24.32-11.35-91.2-26.56-85.12,26.21Z"/></g><path class="cls-2_ecology-46" d="m147.4,321.93s6.82-51.97,32.88-60.03c26.06-8.06,72.96.7,105.09,16.3,32.14,15.6,60.8,2.83,69.48,18.33,8.69,15.5,0,33.41-33,26.63-33-6.78-90.93,19.27-90.93,19.27l-83.52-20.5Z"/><path class="cls-12_ecology-46 targetColor" d="m242.16,185.16s-20.01,6.39-42.01,3.21c0,0,24.61-11,32.43-25.48l-26.06-3.47s25.48-6.95,29.24-29.53l-22.29,2.9s27.43-22.86,30.83-52.98c0,0,8.54,44.58,31.7,54.72l-22.29-4.05s4.96,21.71,27.67,30.11c0,0-13.48,6.08-25.35,3.47,0,0,12.16,17.66,32.43,24.03,0,0-27.15,3.43-46.29-2.92Z" style="fill: rgb(104, 225, 253);"/><path class="cls-12_ecology-46 targetColor" d="m353.66,123.59c-6.3-19.65-34.13-19.73-40.46-.1-13.95,43.22-24.72,95.97,5.06,97.5,50.66,2.61,53.43-7.08,50.95-30.11-2.07-19.28-6.69-39.68-15.55-67.3Z" style="fill: rgb(104, 225, 253);"/><polygon class="cls-9_ecology-46" points="237.49 232.95 244.73 106.15 246.36 232.95 240.1 232.95 237.49 232.95"/><polygon class="cls-9_ecology-46" points="327.75 262.98 334.99 136.18 336.62 262.98 330.36 262.98 327.75 262.98"/><path class="cls-12_ecology-46 targetColor" d="m247.21,264.64s-5.78-9.32,1.86-13.45c7.64-4.13,6.98,6.15,14.37.9,7.38-5.25,14.11-8.43,17.59,0s-1.74,12.25,9.55,10.88c11.29-1.37,12.81,2.75,11.73,7.64s13.5,4.13,4.91,14.61c0,0-38.01-9.96-60-20.59Z" style="fill: rgb(104, 225, 253);"/><g class="cls-4_ecology-46"><path class="cls-1_ecology-46" d="m247.21,264.64s-5.78-9.32,1.86-13.45c7.64-4.13,6.98,6.15,14.37.9,7.38-5.25,14.11-8.43,17.59,0s-1.74,12.25,9.55,10.88c11.29-1.37,12.81,2.75,11.73,7.64s13.5,4.13,4.91,14.61c0,0-38.01-9.96-60-20.59Z"/></g><ellipse class="cls-8_ecology-46" cx="304.11" cy="232.95" rx="5.28" ry="6.44" transform="translate(-33.01 414.88) rotate(-65.81)"/><path class="cls-8_ecology-46" d="m332.98,260.82c-.81-1.97-2.44-3.51-4.49-4.05-1.94-.52-4.47-.58-6.64,1.36-4.2,3.76-2.75,7.96,3.18,7.96,5.24,0,10.35.56,7.95-5.27Z"/><path class="cls-8_ecology-46" d="m191.32,259.61s-.91-6.32,6.91-7.51,11.15,2.46,11,6.86c0,0-13.13-.1-17.91.65Z"/><path class="cls-12_ecology-46 targetColor" d="m355.67,298.1s-2.26-8.88,4.39-7.18,4.11,4.99,9.76-1.74c5.65-6.73,17.45,3.11,6.23,15.45,0,0-12.47-.44-18.25.3l-2.14-6.84Z" style="fill: rgb(104, 225, 253);"/><polygon class="cls-2_ecology-46" points="147.4 321.93 92.54 462.51 204.01 462.51 230.92 342.43 147.4 321.93"/><polygon class="cls-9_ecology-46" points="74.3 461.4 213.27 461.4 230.92 368.21 103.84 360.52 74.3 461.4"/><circle class="cls-1_ecology-46" cx="155.94" cy="394.94" r="12.16"/></g></svg>