<svg version="1.1" id="Layer_1" xmlns="http://www.w3.org/2000/svg" xmlns:xlink="http://www.w3.org/1999/xlink" x="0px" y="0px" viewBox="0 0 500 500" style="width: 166px;" xml:space="preserve" data-imageid="facetime-3-68-a585d" imageName="Facetime 3" class="illustrations_image">
<style type="text/css">
	.st0_facetime-3-68-a585d{fill:#ADE000;}
	.st1_facetime-3-68-a585d{fill:url(#SVGID_1_);}
	.st2_facetime-3-68-a585d{fill:url(#SVGID_00000069366567744573690350000014912035749776198066_);}
	.st3_facetime-3-68-a585d{fill:url(#SVGID_00000155114973073322247630000005840371256045389980_);}
	.st4_facetime-3-68-a585d{fill:#BABABC;}
	.st5_facetime-3-68-a585d{fill:#F4F4F4;}
	.st6_facetime-3-68-a585d{fill:#FF8F6F;}
	.st7_facetime-3-68-a585d{fill:#603813;}
	.st8_facetime-3-68-a585d{fill:#68E1FD;}
	.st9_facetime-3-68-a585d{fill:#EE6300;}
	.st10_facetime-3-68-a585d{fill:#FFDDB0;}
	.st11_facetime-3-68-a585d{fill:#E055C6;}
</style>
<ellipse id="Base_facetime-3-68-a585d" class="st0_facetime-3-68-a585d" cx="248.1" cy="331.3" rx="198.2" ry="99.6"/>
<g id="Shadow_facetime-3-68-a585d">
	
		<linearGradient id="SVGID_1_-facetime-3-68-a585d" gradientUnits="userSpaceOnUse" x1="72.2589" y1="-3572.2307" x2="104.5089" y2="-3617.6609" gradientTransform="matrix(1 0 0 1 0 3908.1499)">
		<stop offset="1.000000e-02" style="stop-color:#ADE000"/>
		<stop offset="1" style="stop-color:#7BBD00"/>
	</linearGradient>
	<polyline class="st1_facetime-3-68-a585d" points="107.7,290.3 55.8,315.1 64.9,343.5 130.9,297.1 &#9;"/>
	
		<linearGradient id="SVGID_00000167386525513990687010000002968013853142901944_-facetime-3-68-a585d" gradientUnits="userSpaceOnUse" x1="246.9101" y1="-3564.9502" x2="289.9901" y2="-3625.6499" gradientTransform="matrix(1 0 0 1 0 3908.1499)">
		<stop offset="1.000000e-02" style="stop-color:#ADE000"/>
		<stop offset="1" style="stop-color:#7BBD00"/>
	</linearGradient>
	<polyline style="fill:url(#SVGID_00000167386525513990687010000002968013853142901944_);" points="265,264.7 179.2,312.3 &#10;&#9;&#9;269.7,359.9 357.2,314.1 &#9;"/>
	
		<linearGradient id="SVGID_00000109738279236080824530000005482051953674401955_-facetime-3-68-a585d" gradientUnits="userSpaceOnUse" x1="144.3188" y1="-3499.5906" x2="183.1088" y2="-3554.2209" gradientTransform="matrix(1 0 0 1 0 3908.1499)">
		<stop offset="1.000000e-02" style="stop-color:#ADE000"/>
		<stop offset="1" style="stop-color:#7BBD00"/>
	</linearGradient>
	<polyline style="fill:url(#SVGID_00000109738279236080824530000005482051953674401955_);" points="169.8,359.9 99.9,392.4 &#10;&#9;&#9;147.3,412.2 227.1,370.6 &#9;"/>
</g>
<g id="Smartphone_facetime-3-68-a585d">
	<path class="st4_facetime-3-68-a585d" d="M354.2,105.6l-73.9-43.6c-2.2-1.1-4.7-1.3-7.1-0.5h-0.1c-0.5,0.2-1.1,0.4-1.6,0.7l-6.9,3.1l3.7,1.7l0,0&#10;&#9;&#9;l2.3,189.2c0,6.8,3.6,13,9.5,16.5l68.9,40.1l-1.1,6.5l9.3-4.9l0,0c1.9-1,3-2.9,3-5V116.1C360.2,111.8,357.9,107.7,354.2,105.6z"/>
	<path class="st5_facetime-3-68-a585d" d="M342.5,318.7l-71.4-41.6c-5.9-3.4-9.5-9.7-9.5-16.5V69.8c0-2.8,2.2-5,4.9-5.1c0,0,0,0,0.1,0&#10;&#9;&#9;c0.9,0,1.8,0.2,2.6,0.7l75.9,44.9c3.7,2.2,6,6.2,6,10.5v192.9c0,3.2-2.6,5.8-5.8,5.7C344.3,319.5,343.4,319.2,342.5,318.7z"/>
	<ellipse transform="matrix(0.9727 -0.2323 0.2323 0.9727 -57.6234 77.061)" class="st4_facetime-3-68-a585d" cx="298.4" cy="283.2" rx="3.8" ry="5.1"/>
	<path class="st4_facetime-3-68-a585d" d="M295.4,93.9L295.4,93.9c0,0.7,0.3,1.3,0.9,1.6l15.7,9c0.9,0.5,2,0.2,2.5-0.7c0.2-0.3,0.2-0.6,0.2-0.9v-0.4&#10;&#9;&#9;c0-0.7-0.4-1.3-1-1.6l-15.7-8.7c-0.9-0.5-2-0.1-2.5,0.7C295.5,93.2,295.4,93.5,295.4,93.9L295.4,93.9z"/>
	<ellipse transform="matrix(0.9378 -0.3471 0.3471 0.9378 -12.9833 105.5592)" class="st4_facetime-3-68-a585d" cx="288.2" cy="89" rx="1.8" ry="2.4"/>
</g>
<g id="Character_facetime-3-68-a585d">
	<path class="st6_facetime-3-68-a585d" d="M186.1,155.4c-7.5,6.5-13.2,14.9-16.5,24.2c-5.8,16,8.7,42.3,8.7,42.3l22.6-17.9"/>
	<path class="st7_facetime-3-68-a585d" d="M183.6,367.6l-6.1-3.4l1.6-8.8c0,0,9.1,0.9,9.9,4.1"/>
	<path class="st8_facetime-3-68-a585d targetColor" d="M185.9,367.5c1.4-0.8,2.8-1.6,4.2-2.4c3.6-1.9,8.7-4,10.8-7.6c0.9-1.5,0.8-3.4-0.3-4.8&#10;&#9;&#9;c-3.2-3.9-10.2,2.5-13.8-1.8c-0.7-0.9-1-14.4-1-14.4l-13.7,3.7c0,0-2.3,27.1-2.1,28.8s5,3.3,5,3.3c1.4-0.3,2.8-0.8,4-1.5&#10;&#9;&#9;c1.4-1,0.1-13.8,2-12s2.6,8.8,2.6,8.8C184.4,367.6,185.2,367.6,185.9,367.5z" style="fill: rgb(104, 225, 253);"/>
	<path class="st7_facetime-3-68-a585d" d="M209.7,380.7l-6.1-3.4l1.6-8.8c0,0,9.1,0.9,9.9,4.1"/>
	<path class="st8_facetime-3-68-a585d targetColor" d="M212,380.6c1.4-0.9,2.8-1.6,4.2-2.4c3.6-1.9,8.7-4,10.8-7.6c0.9-1.5,0.8-3.4-0.3-4.8&#10;&#9;&#9;c-3.2-3.9-10.2,2.5-13.8-1.8c-0.7-0.9-1-14.4-1-14.4l-13.7,3.7c0,0-2.3,27.1-2.1,28.8s5,3.3,5,3.3c1.4-0.3,2.8-0.8,4-1.5&#10;&#9;&#9;c1.4-1,0.1-13.8,2-12s2.6,8.8,2.6,8.8C210.6,380.8,211.3,380.7,212,380.6z" style="fill: rgb(104, 225, 253);"/>
	<path class="st9_facetime-3-68-a585d" d="M165.2,292.5l-4,53.9c0,0,6.4,8.9,27.9,3.9l0,0l0.2-36.3"/>
	<path class="st9_facetime-3-68-a585d" d="M190.1,303.2c-0.5,4.6,0,55.8,0,55.8s5.9,11.1,31.9,0l-0.4-43.5"/>
	<path class="st9_facetime-3-68-a585d" d="M163.2,310.3c1.8,1.2,2.4-5,4.2-4c6.7,3.9,13.8,7,21.3,9.4l0.2-0.1c0.7-0.4,1.5-0.1,1.9,0.6l0.1,0.1&#10;&#9;&#9;c4.6,1.3,9.2,2.4,13.9,3.2c6.1,1,11.1-3.5,17.3-3.8c-0.1-23.8,0.1-91.6-10-105.9l-29.9-10c-0.1,2.5-14.6,19.2-14.2,39.5&#10;&#9;&#9;c0.4,22.9-2.6,44.6-3.1,51.7C164.7,292.4,163.2,309,163.2,310.3z"/>
	<path class="st6_facetime-3-68-a585d" d="M214.8,182.6l-2.8,27.3c0,0-22.4,0.9-32-5.8v-23.1"/>
	<path class="st10_facetime-3-68-a585d" d="M252.8,157.3l-2.3,3.1c1.2-2.5,2.3-5.1,3.2-7.7c0.6-1.8-2.3-2.5-2.9-0.7l-0.3,0.9c0.3-0.9,0.5-1.9,0.8-2.9&#10;&#9;&#9;c0.2-0.8-0.3-1.6-1.1-1.8s-1.6,0.3-1.8,1.1l0,0c-0.6,2.5-1.4,5-2.3,7.4c0.5-2.2,0.9-4.4,1.1-6.6c0.2-1.9-2.8-1.8-3,0&#10;&#9;&#9;c-0.3,2.5-0.7,5-1.4,7.5c0-0.9-0.1-1.7-0.2-2.6c0-0.4-0.3-0.8-0.6-1.1c-0.1-0.3-0.2-0.7-0.3-1c-0.2-0.8-1.1-1.3-1.9-1&#10;&#9;&#9;c-0.7,0.2-1.1,0.8-1.1,1.5l-0.2,11.3c-0.5,1.2-1.2,2.3-2,3.2c1.5,1,2.9,2.1,4.2,3.3c1.2,1,2.3,2.1,3.4,3.3c0.9-1.2,1.9-2.4,2.8-3.7&#10;&#9;&#9;c0.1-0.1,0.2-0.2,0.3-0.3c2.7-4,5.4-7.9,8.3-11.7C256.5,157.2,253.9,155.8,252.8,157.3z"/>
	<path class="st6_facetime-3-68-a585d" d="M205.4,152.3c0,0,10.6,2.8,14.8,9.7c2.7,4.7,5,9.6,7,14.6l7.8-12.1c0,0,9.5,2.9,13.2,7.6&#10;&#9;&#9;c0,0-11.3,24.6-21,26.7s-20.2-14.5-20.2-14.5s-2.1,6.9-1.7-0.5"/>
	<path class="st7_facetime-3-68-a585d" d="M211.5,184.2c-2.3-3.2-3.6-7-3.9-11c0-4.5,2.5-7.7,5-11.2c2.6-3.4,4.6-7.2,6-11.3c1.3-4,1.9-8.2,2.8-12.3&#10;&#9;&#9;c0-0.2,0.1-0.3,0.2-0.5c-0.1-4.9-1.8-9.6-7.1-11.6c-13.9-5.2-19.1,10.3-20.8,16.8s-2.2,10.9-7.7,12.3s-10.8,7.4-7.9,14.3&#10;&#9;&#9;s-0.6,3.7-5,7.9s-5.4,10.7,0.1,14.7s35.3,7.7,38.7,5.8c1.2-0.8,2.1-2,2.4-3.5C214.9,190.9,213.6,187.5,211.5,184.2z"/>
</g>
<g id="Plant_facetime-3-68-a585d">
	<path class="st8_facetime-3-68-a585d targetColor" d="M113.7,257.7c-5.5,7.1-8.1,15.9-7.5,24.8c1,14.5,9.2,18.7,9.2,18.7l9.7,0.5c0,0,11.5-3.8,10-22.6&#10;&#9;&#9;c-1.4-17.7-7.2-21.8-7.2-21.8" style="fill: rgb(104, 225, 253);"/>
	<ellipse class="st7_facetime-3-68-a585d" cx="120.9" cy="257.7" rx="7.1" ry="2.5"/>
	<ellipse class="st8_facetime-3-68-a585d targetColor" cx="120.9" cy="299.7" rx="7.1" ry="2.5" style="fill: rgb(104, 225, 253);"/>
	<path class="st0_facetime-3-68-a585d" d="M117.9,258.5l-8.7-49.6c-0.2-1.1-1.8-0.6-1.7,0.5l8.7,49.7C116.5,260,118.2,259.5,117.9,258.5z"/>
	<path class="st0_facetime-3-68-a585d" d="M119.5,258.6c0.3,0,0.5,0,0.8,0c0.3,0.1,0.7,0.3,0.9,0.5c0.7-13.9,0.8-27.7,0.4-41.6c0-0.5-0.4-0.8-0.9-0.8&#10;&#9;&#9;c-0.5,0-0.8,0.4-0.8,0.8C120.3,231.3,120.2,244.9,119.5,258.6z"/>
	<path class="st0_facetime-3-68-a585d" d="M139,210.5c-6.5,15.6-12,31.5-16.7,47.7c-0.1,0.5,0.2,0.9,0.7,1c0,0,0,0,0,0c0.4,0.1,0.8-0.2,0.9-0.5&#10;&#9;&#9;c4.7-16.2,10.2-32.1,16.7-47.7C141.1,209.9,139.4,209.5,139,210.5z"/>
	<path class="st0_facetime-3-68-a585d" d="M111.2,229.3c0,0-0.9-0.1-5-4.4s1.1-7.5-1.3-12.4s1-11.2,1.7-16c0.5,3.4,1.7,6.6,3.6,9.5&#10;&#9;&#9;c3.1,4.4,4.8,8.4,4.5,14c-0.2,3.5-0.8,7-1.8,10.4"/>
	<path class="st0_facetime-3-68-a585d" d="M119.9,237c0,0-0.9-0.3-3.8-5.5s2.8-7.1,1.8-12.3s3.7-10.6,5.6-15.1c-0.4,3.4,0,6.8,1.2,10.1&#10;&#9;&#9;c1.9,5,2.6,9.3,0.9,14.6c-1.1,3.4-2.5,6.6-4.2,9.7"/>
	<path class="st0_facetime-3-68-a585d" d="M132.1,228c0,0-0.8-0.5-2.6-6.2s4.2-6.3,4.2-11.7s5.7-9.6,8.5-13.6c-1.1,3.2-1.4,6.7-0.9,10.1&#10;&#9;&#9;c0.9,5.3,0.7,9.6-2.1,14.5c-1.7,3.1-3.8,5.9-6.2,8.6"/>
</g>
<g id="Screen_facetime-3-68-a585d">
	<polygon class="st5_facetime-3-68-a585d" points="346.7,132.5 265.3,85.8 265.3,252.8 346.7,299.8 &#9;"/>
	<path class="st8_facetime-3-68-a585d targetColor" d="M266.8,158.9l-1.4,93.9l81.4,47V182.7c0-1.2-3.2-1.9-4-2.1c-4.5-0.8-10.6,0-13.7,3.6&#10;&#9;&#9;c-3.6,4.2-4.9,10.4-6.7,15.6c-1.4,4-3.4,9.6-8,10.7c-15.5,3.8-9.2-61.6-22.2-67.5C269.7,132.9,266.8,159,266.8,158.9" style="fill: rgb(104, 225, 253);"/>
	
		<ellipse transform="matrix(0.953 -0.3029 0.3029 0.953 -64.6903 111.3495)" class="st5_facetime-3-68-a585d" cx="326.7" cy="264.3" rx="7.9" ry="10.6"/>
	
		<ellipse transform="matrix(0.9772 -0.2125 0.2125 0.9772 -48.1526 75.3054)" class="st4_facetime-3-68-a585d" cx="326.2" cy="261.6" rx="2.8" ry="4.1"/>
	<path class="st4_facetime-3-68-a585d" d="M331.8,273.3c0,0-1.7-7.5-6-8.4s-5.4,4.5-5.4,4.5c1.1,2.3,3.2,4,5.6,4.8C330.4,275.8,331.8,273.3,331.8,273.3z&#10;&#9;&#9;"/>
	<path class="st6_facetime-3-68-a585d" d="M284.7,234.7v10.6c0,1.2-1,2.2-2.2,2.2l0,0c-0.4,0-0.7-0.1-1-0.3l-9.7-5.4c-0.7-0.4-1.1-1.1-1.1-1.9v-10.8&#10;&#9;&#9;c0-1.2,1-2.2,2.2-2.2c0,0,0,0,0,0c0.4,0,0.8,0.1,1.1,0.3l9.8,5.6C284.3,233.3,284.7,234,284.7,234.7z"/>
	<ellipse transform="matrix(0.9187 -0.3951 0.3951 0.9187 -71.423 128.7645)" class="st5_facetime-3-68-a585d" cx="277" cy="237.8" rx="3" ry="4.2"/>
	<polyline class="st0_facetime-3-68-a585d" points="265.7,85.8 265.7,125.9 283.9,137.3 283.9,96.3 265.7,85.8 &#9;"/>
	<path class="st7_facetime-3-68-a585d" d="M280.5,186.9c0,0,7.5-2.8,14,5.2c-2.1,1.7-4.9,2.1-7.5,1.1C284.2,191.8,282,189.6,280.5,186.9z"/>
	<path class="st10_facetime-3-68-a585d" d="M300,174.2c-0.9,1.9-2.9,6.9-3.9,8.7s-0.5,2-1.4,3.9c-0.3,0.7-2.9,9.6-3.5,9.9c-0.2,5.1,1.1-0.7,1.1-0.6&#10;&#9;&#9;c-0.3,1.2,0-0.6-0.4,0.6c-0.1,0.4-0.4,0.8-0.7,1.1c-0.1,0.5,0.6-3.9,0.5-3.5c-0.1,0.8-0.9,1.4-1.7,1.3c-0.8-0.1-1.4-0.9-1.3-1.7&#10;&#9;&#9;c0,0,0,0,0,0l0,0c0-0.2-0.3,2.7-0.3,2.5c-0.5-0.1-0.4-0.4-0.6-0.9c-0.3,0-0.8,0.5-1,0.4c-0.8,0.1-0.9,0.1-1-0.9&#10;&#9;&#9;c0-0.3-0.6-0.8-0.6-1.1c-0.5,0-1.1,0.2-1.3-0.4c-0.5,0-0.9-1.3-1-1.9c-1.5-6.6-2.2-13.3-2.2-20c0-1.7,2.5-2.2,2.9-0.8&#10;&#9;&#9;c0.2-1.2,0.5-2.5,0.8-3.7c0.3-1,1.4-1.5,2.4-1.2c0.2,0.1,0.4,0.2,0.6,0.3c0.3,0.3,0.4,0.8,0.3,1.2c0,0.3-0.1,0.6-0.1,0.9l0,0&#10;&#9;&#9;c0.2-1.3,0.5-2.7,0.9-4c0.1-0.8,0.9-1.4,1.7-1.3c0,0,0,0,0,0c0.8,0.1,1.4,0.9,1.3,1.7l0,0l-0.2,2.8c0.3-0.5,1-2.2,1.5-2.1&#10;&#9;&#9;c3.4,0.7,1.8,6.8,1.5,9.1l-0.3,2.3c1.2-1.1,2.2-2.3,3.2-3.6C298.3,171.9,300.6,172.9,300,174.2z"/>
	<path class="st7_facetime-3-68-a585d" d="M284.1,169.9c0.1,2.5,0.2,5,0.5,7.5c0,0.2-0.2,0.5-0.4,0.5c-0.2,0-0.4-0.1-0.4-0.4c-0.2-2.5-0.4-5-0.5-7.5&#10;&#9;&#9;C283.2,169.4,284.1,169.3,284.1,169.9z"/>
	<path class="st7_facetime-3-68-a585d" d="M288,167.3l-0.7,9.9c0,0.6-0.9,0.4-0.9-0.1l0.7-9.9C287.1,166.6,288,166.8,288,167.3z"/>
	<path class="st7_facetime-3-68-a585d" d="M293.1,177.2c-0.7-0.1-1.5-0.1-2.2,0.1c0.3-3.6,0.8-7.1,1.4-10.7c0.1-0.6-0.8-0.7-0.9-0.1&#10;&#9;&#9;c-0.7,3.7-1.1,7.3-1.4,11l0,0c-2.2,0.7-3.8,2.5-4.4,4.8c0,0.2,0.1,0.4,0.3,0.5c0.2,0,0.4-0.1,0.5-0.3c0.9-2.8,3.6-4.6,6.5-4.4&#10;&#9;&#9;C293.4,178.1,293.6,177.2,293.1,177.2z"/>
	<path class="st11_facetime-3-68-a585d" d="M294.5,192.1c0,0-8.5-0.6-14-5.2c0,0-12.5,37.4-0.6,45.6s26.6-7.1,19.6-7.4c-0.7,0,1.6-26.3,1.6-26.3&#10;&#9;&#9;l-6.2,10.2L294.5,192.1z"/>
	<path class="st11_facetime-3-68-a585d" d="M337.5,210.6c-1-4.4-3-10.1-7.6-11.9c-4-1.3-8-2.3-12.1-3.1c-4.4-1.1-9.1-1.8-13.3,0.3&#10;&#9;&#9;c-3.6,1.8-7.4,7.5-8.2,11.5c-1.2,4.7-0.9,11.9-0.9,12.8c-1.4,17.1-0.5,31.9-1.1,49.1c0,0.8,1.4,1.9,1.4,1.9&#10;&#9;&#9;c6.4,4.4,8.5,4.7,15.3,8.4c3.9,2.1,7.7,4.4,11.6,6.5c2.6,1.4,5.2,2.8,7.9,4.2c1.1,0.5,6.3,3.9,7.4,4.4c0.8-6,1.2-12.1,1.3-18.2&#10;&#9;&#9;C340.3,254.6,342.6,232.3,337.5,210.6z"/>
	<path class="st10_facetime-3-68-a585d" d="M325.4,191.8l-0.8,6.7c0,0-6.6,1.9-9.4,1.2S325.4,191.8,325.4,191.8z"/>
	<path class="st10_facetime-3-68-a585d" d="M306,172.2c-0.5,0.5-0.4,2.6-0.4,3.3c-0.1,2.3-0.1,4.6,0,6.9c0.2,5.4,0,12.8,5.2,16.1&#10;&#9;&#9;c6.4,4,12.8-2.1,14.7-7.9c0.8-2.4,2.2-14.3-0.2-16.8S316,162.4,306,172.2z"/>
	<path class="st7_facetime-3-68-a585d" d="M324.7,189.1c0.2,0.9,0.2,2.4,0.7,2.7s2.8-3.3,3-3.6c1.5-2,2.7-4.1,3.7-6.3c1.1-2.3,2.6-4.9,2-7.6&#10;&#9;&#9;c-0.4-1.5-1.3-2.8-2.6-3.7c-0.4-0.3-1.4-0.9-1.6-1.3c-0.9-2.3-2.5-4.2-4.5-5.5c-3.4-2.2-8.7-0.1-8.7-0.1c-0.7-0.7-1.6-1.4-2.5-1.9&#10;&#9;&#9;c-3.9-1.6-8.9,0.6-11,4.7s-1.6,10.8,2.2,13.9c0-1,0.3-3.5,0.3-4.5c2,0.5,4.1,0.2,6.2,0.5c1.5,0.2,2.9,0.7,4.1,1.6&#10;&#9;&#9;c0.5,0.4,1,0.8,1.5,1.2c0.9,1.7,2.2,4,4.2,4.4c3.2,0.6,2.3-0.2,3.8,0.1S324.3,187.4,324.7,189.1z"/>
	<path class="st7_facetime-3-68-a585d" d="M312.3,185.3l0.9-3.6c0.1-0.4-0.2-0.7-0.6-0.8c-0.3,0-0.6,0.1-0.7,0.4c-0.8,2.3-1.3,4.7-1.8,7.1&#10;&#9;&#9;c-0.1,1.2,0.7,2.6,2.1,2.1c0.8-0.3,0.5-1.6-0.4-1.3s-0.1-2.1,0-2.1L312.3,185.3z"/>
	<path class="st7_facetime-3-68-a585d" d="M316,191.5c-0.7,1-2,1.4-3.1,0.9c-0.8-0.4-1.4,0.8-0.7,1.1c1.8,0.9,3.9,0.3,5-1.3&#10;&#9;&#9;C317.6,191.5,316.5,190.8,316,191.5z"/>
	<path class="st7_facetime-3-68-a585d" d="M307.7,182.5c-0.4,0.1-0.6,0.4-0.6,0.8c0,0.3,0.3,0.5,0.6,0.6c0.4-0.1,0.6-0.4,0.6-0.8&#10;&#9;&#9;C308.2,182.8,308,182.5,307.7,182.5z"/>
	<path class="st7_facetime-3-68-a585d" d="M317.5,184.4c-0.4,0.1-0.6,0.4-0.6,0.8c0,0.3,0.2,0.6,0.5,0.6c0.3,0,0.6-0.2,0.6-0.5c0-0.1,0-0.2,0-0.2&#10;&#9;&#9;C318,184.7,317.7,184.5,317.5,184.4z"/>
	<path class="st7_facetime-3-68-a585d" d="M273.2,108.9c0.3,0,5.2,2.3,5.2,2.3s1.9-2.6,1.1-4c-1.3-2.2-3.9-3.4-6.4-2.8c-3.4,0.8-2.8,6.1-4.4,7.2&#10;&#9;&#9;s-3.1,3.2-2.2,4.8c1.2,2.5,3.1,4,1.8,5.2s-2.6,0.3-1.3,1.7s13.6,6.6,13.7,3.7s-3.7-4.9-2-6.1s2.6-2.7,1.5-4.2c-1-1.4-1-3.2-0.1-4.6&#10;&#9;&#9;c1-1.9,0.3-4.3-1.6-5.4c-0.4-0.2-0.9-0.4-1.3-0.4"/>
	<path class="st6_facetime-3-68-a585d" d="M265.7,122.5c0,0,1.3-9.2,4.9-9.3s8.5,2.3,9,4.1s1.1,8.1,1.1,8.1l3.2-6.1v11.5l-4.3,3.8l-13.9-8.7L265.7,122.5&#10;&#9;&#9;z"/>
	<path class="st10_facetime-3-68-a585d" d="M275,108.2c-1,0.7-2.2,1.1-3.5,1.2c0,0.3,0,0.5,0,0.8c0,2.4,1.4,4.4,3,4.4s3-2,3-4.4v-0.4&#10;&#9;&#9;C276.6,109.4,275.7,108.9,275,108.2z"/>
	<path class="st7_facetime-3-68-a585d" d="M320.1,247.1v37c0,0.4,0.3,0.8,0.8,0.8s0.8-0.3,0.8-0.8v-37c0-0.4-0.3-0.8-0.8-0.8S320.1,246.7,320.1,247.1z"/>
	<path class="st7_facetime-3-68-a585d" d="M323.3,193.8c-1.4,2.1-2.8,4.4-5.2,5.4c-2.5,0.9-5.3,0.5-7.4-1.1c-0.3-0.2-0.5,0.3-0.3,0.5&#10;&#9;&#9;c2.2,1.6,5.1,2.1,7.6,1.2c2.6-1,4.2-3.4,5.6-5.6c0.1-0.1,0.1-0.3,0-0.4S323.4,193.7,323.3,193.8z"/>
</g>
</svg>