<svg version="1.1" id="Layer_1" xmlns="http://www.w3.org/2000/svg" xmlns:xlink="http://www.w3.org/1999/xlink" x="0px" y="0px" viewBox="0 0 500 500" style="width: 166px;" xml:space="preserve" data-imageid="fast-food-1-34" imageName="Fast Food 1" class="illustrations_image">
<style type="text/css">
	.st0_fast-food-1-34{fill:#FFA87D;}
	.st1_fast-food-1-34{fill:url(#SVGID_1_);}
	.st2_fast-food-1-34{fill:url(#SVGID_00000132769408366859602690000016569575826099449219_);}
	.st3_fast-food-1-34{fill:url(#SVGID_00000122687438591356440740000017815444327971554208_);}
	.st4_fast-food-1-34{fill:#68E1FD;}
	.st5_fast-food-1-34{opacity:0.33;enable-background:new    ;}
	.st6_fast-food-1-34{fill:#D4A397;}
	.st7_fast-food-1-34{fill:#FFFFF2;}
	.st8_fast-food-1-34{opacity:0.2;enable-background:new    ;}
	.st9_fast-food-1-34{opacity:0.3;enable-background:new    ;}
	.st10_fast-food-1-34{opacity:0.8;enable-background:new    ;}
	.st11_fast-food-1-34{fill:#FBC144;}
	.st12_fast-food-1-34{opacity:0.15;enable-background:new    ;}
	.st13_fast-food-1-34{fill:#FF2624;}
	.st14_fast-food-1-34{opacity:0.29;enable-background:new    ;}
	.st15_fast-food-1-34{fill:#F48F3B;}
	.st16_fast-food-1-34{opacity:0.5;enable-background:new    ;}
	.st17_fast-food-1-34{fill:#99CE45;}
	.st18_fast-food-1-34{opacity:0.8;fill:#FFFFF2;enable-background:new    ;}
</style>
<g id="background_fast-food-1-34">
	<path class="st0_fast-food-1-34" d="M242.9,404.6L22.3,274.3c-7-3.9-13-10.4-6.2-14.7L237.4,132c3.3-2.1,8.4-3.4,11.7-1.4L480.7,265&#10;&#9;&#9;c7,4.1,8.3,15.5,1.3,19.5l-210,120C263,409.7,251.9,409.7,242.9,404.6z"/>
	
		<linearGradient id="SVGID_1_-fast-food-1-34" gradientUnits="userSpaceOnUse" x1="220.6036" y1="705.6022" x2="202.3936" y2="722.3721" gradientTransform="matrix(1 0 0 1 0 -498)">
		<stop offset="0" style="stop-color:#000000;stop-opacity:0.5"/>
		<stop offset="0.6637" style="stop-color:#AC7254;stop-opacity:0.1682"/>
		<stop offset="1" style="stop-color:#FFA87D;stop-opacity:0"/>
	</linearGradient>
	<polyline class="st1_fast-food-1-34" points="241.5,182.6 179.7,216.6 211,234.7 238.6,219.7 &#9;"/>
	
		<linearGradient id="SVGID_00000166651093597202979780000014599699201621064864_-fast-food-1-34" gradientUnits="userSpaceOnUse" x1="88.3269" y1="773.5267" x2="70.1169" y2="790.2967" gradientTransform="matrix(1 0 0 1 0 -498)">
		<stop offset="0" style="stop-color:#000000;stop-opacity:0.5"/>
		<stop offset="0.6637" style="stop-color:#AC7254;stop-opacity:0.1682"/>
		<stop offset="1" style="stop-color:#FFA87D;stop-opacity:0"/>
	</linearGradient>
	<polyline style="fill:url(#SVGID_00000166651093597202979780000014599699201621064864_);" points="109.2,250.5 47.5,284.5 &#10;&#9;&#9;78.7,302.6 106.3,287.6 &#9;"/>
	
		<linearGradient id="SVGID_00000101071530950422817480000007046999524871582616_-fast-food-1-34" gradientUnits="userSpaceOnUse" x1="281.4031" y1="778.7945" x2="225.9731" y2="848.0845" gradientTransform="matrix(1 0 0 1 0 -498)">
		<stop offset="0" style="stop-color:#000000;stop-opacity:0.5"/>
		<stop offset="0.6637" style="stop-color:#AC7254;stop-opacity:0.1682"/>
		<stop offset="1" style="stop-color:#FFA87D;stop-opacity:0"/>
	</linearGradient>
	<polyline style="fill:url(#SVGID_00000101071530950422817480000007046999524871582616_);" points="181.2,290.8 122.5,319.6 &#10;&#9;&#9;252.7,395.1 367.9,332.5 &#9;"/>
</g>
<g id="drink_fast-food-1-34">
	<path class="st4_fast-food-1-34 targetColor" d="M192.1,132l10.9,75.8c5.8,6.2,13.9,9.7,22.4,9.8c14.1,0,20.6-7.9,20.9-11.2s9.4-74.3,9.4-74.3h-63.6V132z" style="fill: rgb(104, 225, 253);"/>
	<path class="st5_fast-food-1-34" d="M206.8,132h-14.7l10.9,75.8c3.8,4,8.7,7,14,8.5C212.2,188.4,207.9,160.4,206.8,132z"/>
	<polyline class="st6_fast-food-1-34" points="190.7,122.9 190.7,128.4 257.1,129.4 257.1,122.9 &#9;"/>
	<ellipse class="st7_fast-food-1-34" cx="223.9" cy="128.4" rx="33.2" ry="22.1"/>
	<ellipse class="st8_fast-food-1-34" cx="223.9" cy="128.4" rx="33.2" ry="22.1"/>
	<ellipse class="st7_fast-food-1-34" cx="223.9" cy="122.9" rx="33.2" ry="22.1"/>
	<ellipse class="st8_fast-food-1-34" cx="223.9" cy="121.8" rx="25.8" ry="15.4"/>
	<ellipse class="st7_fast-food-1-34" cx="223.9" cy="121.8" rx="20.5" ry="12.2"/>
	<path d="M229.8,122.5c-1.4-0.5-2.8-1.1-4.1-1.6c1.1-0.6,2.2-1.1,3.2-1.7c0.5-0.2,0.2-1.1-0.4-0.8c-1.3,0.7-2.7,1.4-4,2&#10;&#9;&#9;c-1.7-0.7-3.4-1.4-5-2.1c-0.5-0.2-0.9,0.6-0.3,0.8c1.4,0.6,2.9,1.2,4.4,1.8c-1.6,0.9-3.3,1.8-4.9,2.7c-0.5,0.3-0.1,1.1,0.3,0.8&#10;&#9;&#9;c1.9-1,3.7-2,5.6-3c1.6,0.7,3.2,1.3,4.8,1.9c0.2,0,0.5-0.2,0.5-0.4C229.9,122.8,229.9,122.6,229.8,122.5z"/>
	<path class="st7_fast-food-1-34" d="M273.5,74.9l-31.4-6.3c-8.6,0.3-11.1,8.9-11.1,8.9l-9,41.9c-1,0.5,5.9,2.3,5.9,2.3s7.2-38.5,9.2-42.4&#10;&#9;&#9;c1.2-2.3,3.3-3.9,5.8-4.4c0,0,20.6,4.2,28.4,6C270.9,78.7,271.7,76.4,273.5,74.9z"/>
	<path class="st9_fast-food-1-34" d="M273.5,74.9l-31.4-6.3c-8.6,0.3-11.1,8.9-11.1,8.9l-9,41.9c-1,0.5,5.9,2.3,5.9,2.3s7.2-38.5,9.2-42.4&#10;&#9;&#9;c1.2-2.3,3.3-3.9,5.8-4.4c0,0,20.6,4.2,28.4,6C270.9,78.7,271.7,76.4,273.5,74.9z"/>
	<path class="st7_fast-food-1-34" d="M273.5,74.9c0,0,2,0.7,1.6,3.5s-2.1,3.3-3.9,2.5C271.2,81,270,76.2,273.5,74.9z"/>
	<path class="st10_fast-food-1-34" d="M273.5,74.9c0,0,2,0.7,1.6,3.5s-2.1,3.3-3.9,2.5C271.2,81,270,76.2,273.5,74.9z"/>
</g>
<g id="french_fries_fast-food-1-34">
	<path class="st11_fast-food-1-34" d="M153.8,228.7c0,0,20.2-57.2,19.8-58s-6.3-4.2-6.3-4.2l-19.2,61"/>
	<path class="st12_fast-food-1-34" d="M153.8,228.7c0,0,20.2-57.2,19.8-58s-6.3-4.2-6.3-4.2l-19.2,61"/>
	<path class="st11_fast-food-1-34" d="M137.9,235c0.7-6.3,7-75.4,7-75.4l-8.2-1.8l-4.6,77.2H137.9z"/>
	<path class="st12_fast-food-1-34" d="M137.9,235c0.7-6.3,7-75.4,7-75.4l-8.2-1.8l-4.6,77.2H137.9z"/>
	<path class="st11_fast-food-1-34" d="M108.4,229c0,0.1-0.3-60.6-1-61.3s-7.4-1.9-7.4-1.9l2.6,64"/>
	<path class="st12_fast-food-1-34" d="M108.4,229c0,0.1-0.3-60.6-1-61.3s-7.4-1.9-7.4-1.9l2.6,64"/>
	<path class="st11_fast-food-1-34" d="M94.9,216.9c0,0-0.3-60.6-1-61.3s-7.4-1.9-7.4-1.9l2.6,64"/>
	<path class="st12_fast-food-1-34" d="M94.9,216.9c0,0-0.3-60.6-1-61.3s-7.4-1.9-7.4-1.9l2.6,64"/>
	<polyline class="st11_fast-food-1-34" points="84.9,230.1 83.3,159.9 75.6,156.6 79.2,230.1 &#9;"/>
	<polyline class="st12_fast-food-1-34" points="84.9,230.1 83.3,159.9 75.6,156.6 79.2,230.1 &#9;"/>
	<path class="st11_fast-food-1-34" d="M79.8,210.1c0,0-17.5-58-18.4-58.5s-7.6,0.3-7.6,0.3l20.7,60.6"/>
	<path class="st12_fast-food-1-34" d="M79.8,210.1c0,0-17.5-58-18.4-58.5s-7.6,0.3-7.6,0.3l20.7,60.6"/>
	<path class="st11_fast-food-1-34" d="M162.6,232.6c0,0,23.1-75.6,22.2-75.9l-7-2.5l-21.4,77.5L162.6,232.6z"/>
	<path class="st11_fast-food-1-34" d="M159.6,234.7c0,0,23.1-75.6,22.2-75.9l-7-2.5l-21.4,77.5L159.6,234.7z"/>
	<path class="st11_fast-food-1-34" d="M148.2,229.9c0,0,20.2-57.2,19.8-58s-6.3-4.3-6.3-4.3l-19.2,61"/>
	<path class="st11_fast-food-1-34" d="M104.5,217.6c0,0-3.9-79-4.9-79h-7.5l6.2,80.2L104.5,217.6z"/>
	<path class="st11_fast-food-1-34" d="M102.4,220.6c0,0-3.9-79-4.9-79H90l6.2,80.2L102.4,220.6z"/>
	<path class="st11_fast-food-1-34" d="M90.1,220c0,0-0.3-60.6-1-61.3s-7.4-1.9-7.4-1.9l2.6,64"/>
	<path class="st11_fast-food-1-34" d="M84.8,219.5c-1.1-6.3-14.7-74.2-14.7-74.2l-8.4,0.6l17.5,75.3L84.8,219.5z"/>
	<path class="st11_fast-food-1-34" d="M87.1,216.5c-1.1-6.3-14.7-74.2-14.7-74.2l-8.4,0.6l17.5,75.3L87.1,216.5z"/>
	<path class="st11_fast-food-1-34" d="M76,214.4c0,0-17.5-58-18.4-58.5s-7.6,0.3-7.6,0.3l20.7,60.6"/>
	<path class="st11_fast-food-1-34" d="M118,229.7c0,0-3.8-79-4.9-79h-7.5l6.2,80.2L118,229.7z"/>
	<path class="st11_fast-food-1-34" d="M153.2,233.5c0,0,7.7-60.1,7.1-60.9s-7.1-2.8-7.1-2.8l-5.8,63.7"/>
	<path class="st11_fast-food-1-34" d="M135.7,227.2c0,0-0.3-60.6-1.1-61.3s-7.3-1.9-7.3-1.9l2.7,64"/>
	<path class="st11_fast-food-1-34" d="M142.8,234.1c0.7-6.3,7-75.4,7-75.4l-8.2-1.8l-4.6,77.2H142.8z"/>
	<path class="st11_fast-food-1-34" d="M115.9,232.7c0,0-3.9-79-4.9-79h-7.5l6.2,80.3L115.9,232.7z"/>
	<polyline class="st11_fast-food-1-34" points="91,224 89.4,153.8 81.7,150.4 85.3,224 &#9;"/>
	<path class="st11_fast-food-1-34" d="M150.1,228.4c0.8-1.6,15.2-61,15.2-61l5.2,4.6l-14.1,56.3"/>
	<path class="st11_fast-food-1-34" d="M148.3,236.5c0,0.1,7.7-60.1,7-60.9s-7-2.8-7-2.8l-5.8,63.7"/>
	<path class="st11_fast-food-1-34" d="M130.9,230.3c0,0.1-0.3-60.6-1-61.3s-7.4-1.9-7.4-1.9l2.6,63.9"/>
	<path class="st11_fast-food-1-34" d="M103.6,232.1c0,0-0.3-60.6-1-61.3s-7.4-1.9-7.4-1.9l2.7,64"/>
	<path class="st11_fast-food-1-34" d="M127.3,226.1c0,0-3.9-79-4.9-79H115l6.2,80.2L127.3,226.1z"/>
	<path class="st11_fast-food-1-34" d="M117.8,225.4c0,0-0.3-60.6-1-61.3s-7.3-1.9-7.3-1.9l2.6,64"/>
	<path class="st12_fast-food-1-34" d="M162.6,232.6c0,0,23.1-75.6,22.2-75.9l-7-2.5l-21.4,77.5L162.6,232.6z"/>
	<path class="st12_fast-food-1-34" d="M104.5,217.6c0,0-3.9-79-4.9-79h-7.5l6.2,80.2L104.5,217.6z"/>
	<path class="st12_fast-food-1-34" d="M84.8,219.5c-1.1-6.3-14.7-74.2-14.7-74.2l-8.4,0.6l17.5,75.3L84.8,219.5z"/>
	<path class="st12_fast-food-1-34" d="M118,229.7c0,0-3.8-79-4.9-79h-7.5l6.2,80.2L118,229.7z"/>
	<path class="st12_fast-food-1-34" d="M153.2,233.5c0,0,7.7-60.1,7.1-60.9s-7.1-2.8-7.1-2.8l-5.8,63.7"/>
	<path class="st12_fast-food-1-34" d="M135.7,227.2c0,0-0.3-60.6-1.1-61.3s-7.3-1.9-7.3-1.9l2.7,64"/>
	<path class="st12_fast-food-1-34" d="M127.3,226.1c0,0-3.9-79-4.9-79H115l6.2,80.2L127.3,226.1z"/>
	<path class="st11_fast-food-1-34" d="M125.3,229.1c0,0-3.8-79-4.9-79h-7.5l6.2,80.2L125.3,229.1z"/>
	<path class="st11_fast-food-1-34" d="M112.9,228.5c0,0-0.3-60.6-1-61.3s-7.4-1.9-7.4-1.9l2.6,63.9"/>
	<path class="st13_fast-food-1-34" d="M180.8,177.5c-1.2,0.3-6.3,3.6-6.3,3.6s-14.2,44.7-35.3,45.3s-34.1-20.8-35-20.8s-10.9,2.7-10.9,2.7&#10;&#9;&#9;l-31.1-14.8l16,85.7l22.9,11.2c0,0,54.9-22.6,57.9-25S180.8,177.5,180.8,177.5z"/>
</g>
<g id="burger_fast-food-1-34">
	<ellipse class="st4_fast-food-1-34 targetColor" cx="294.5" cy="289" rx="111.9" ry="57.6" style="fill: rgb(104, 225, 253);"/>
	<ellipse class="st14_fast-food-1-34" cx="294.5" cy="289" rx="111.9" ry="57.6"/>
	<ellipse class="st4_fast-food-1-34 targetColor" cx="294.5" cy="282.3" rx="111.9" ry="57.6" style="fill: rgb(104, 225, 253);"/>
	<ellipse class="st14_fast-food-1-34" cx="295.4" cy="283.6" rx="96.4" ry="44.9"/>
	<ellipse class="st15_fast-food-1-34" cx="293.7" cy="277.9" rx="71.9" ry="42.4"/>
	<path class="st13_fast-food-1-34" d="M225.4,276.2c0.6,0.8,13.1,31,66.6,31.1c62.9,0.1,68.2-24,69.4-28.4s0.4-14.1,0-13.9s-132.6,1-134.3,2.9&#10;&#9;&#9;S225.4,276.2,225.4,276.2z"/>
	<path class="st16_fast-food-1-34" d="M225.4,276.2c0.6,0.8,13.1,31,66.6,31.1c62.9,0.1,68.2-24,69.4-28.4s0.4-14.1,0-13.9s-132.6,1-134.3,2.9&#10;&#9;&#9;S225.4,276.2,225.4,276.2z"/>
	<path class="st17_fast-food-1-34" d="M318.2,230.3c-0.5-1.3-1-2.6-1.4-3.9l8.6-0.4c2,5.3,4.5,10.3,7.5,15.1c5.5,11.3,12.1,22,19.8,31.9&#10;&#9;&#9;c1.5,2.3,3.2,4.4,5,6.5c4.2,9.3,16.1,16.4,3.2,16.7c-8.4,0.2-13.4-3.4-16.7-5c-4.1-8.6-8.1-17.3-11.9-26&#10;&#9;&#9;C328,253.4,323.1,241.9,318.2,230.3z"/>
	<path class="st17_fast-food-1-34" d="M309.1,226.8l4-0.2l1.8,4.1l23.6,65.1c-0.9,7.6,2.5,20.2-5.7,14.7c-6.9-4.6-7.3-13.6-10-15.6&#10;&#9;&#9;c-1.8-6.1-3.4-12.2-4.8-18.4C316.1,259.7,312.7,243.3,309.1,226.8z"/>
	<path class="st17_fast-food-1-34" d="M302.2,229.8c0-0.9-0.1-1.8-0.1-2.7l3.6-0.2c-0.5,0.3-0.7,0.9-0.6,1.5c3.5,23.6,6.9,47.2,10.4,70.8&#10;&#9;&#9;c-4.4,6.3-3.5,12.9-7.3,3c-2.6-6.9-3.3-11.6-5.2-13.4c0-19.2-0.1-38.5-0.1-57.7C302.9,230.6,302.6,230.1,302.2,229.8z"/>
	<path class="st17_fast-food-1-34" d="M329.9,225.9l1.5-0.1c-0.5,0.6-0.4,1.5,0.2,1.9c0.1,0.1,0.2,0.1,0.2,0.2c11,6.5,20.4,15.7,32.1,20.8&#10;&#9;&#9;c0.3,1,0.8,1.9,1.3,2.7c5.8,9.3,10.4,11.7,4.5,17c-4,3.6-9.6,1.4-12.1,2.6c-10.5-13.1-18.7-27.6-26.6-42.4&#10;&#9;&#9;C330.6,227.7,330.2,226.8,329.9,225.9z"/>
	<path class="st17_fast-food-1-34" d="M339.8,225.4c0,0,26.4-2.7,29.6,9.3c1.6,5.9-0.8,7.8-2.9,9.2c-10.8-6-21.4-12.2-32.1-18.3L339.8,225.4z"/>
	<path class="st17_fast-food-1-34" d="M296.1,228.2c0.1-0.3,0.2-0.6,0.3-0.9h0.7l-0.6,1.2C296.4,228.5,296.3,228.3,296.1,228.2z"/>
	<path class="st17_fast-food-1-34" d="M299.1,230.9c0.1,1.2,0.1,2.5,0.2,3.7c-1.5,19.5-5.5,38.8-11.9,57.3c-2.1-0.1-2.9-2-3-6.3&#10;&#9;&#9;c-0.2-7.8,8.3-18.6,1.9-20.2c2.7-5.8,4-12.3,6.2-18.4C294.5,241.5,296.7,236.1,299.1,230.9z"/>
	<path class="st17_fast-food-1-34" d="M293.1,289.2c-0.1,0.4,0,0.8,0.2,1.1c-0.5,0.2-0.9,0.4-1.3,0.5c0.4-0.9,0.8-1.8,1.2-2.8&#10;&#9;&#9;C293.2,288.4,293.2,288.8,293.1,289.2z"/>
	<path class="st17_fast-food-1-34" d="M331.8,227.9c-0.7-0.4-0.9-1.2-0.6-1.9c0-0.1,0.1-0.2,0.2-0.2l3-0.1c10.7,6.1,21.4,12.3,32.1,18.3&#10;&#9;&#9;c-1.7,1.2-3.3,2.1-2.6,4.7C352.2,243.6,342.8,234.4,331.8,227.9z"/>
	<path class="st17_fast-food-1-34" d="M332.9,241.1c-3-4.7-5.6-9.8-7.5-15.1l4.5-0.2c0.4,0.9,0.7,1.8,1.1,2.7c7.9,14.8,16.1,29.4,26.6,42.4&#10;&#9;&#9;c-1.2,0.6-1.7,2.1-0.8,5.7c0.2,0.9,0.6,1.9,1,2.8c-1.8-2.1-3.5-4.2-5-6.5C345,263.1,338.4,252.4,332.9,241.1z"/>
	<path class="st17_fast-food-1-34" d="M313.1,226.6l3.7-0.2c0.5,1.3,1,2.6,1.4,3.9c4.9,11.5,9.8,23.1,14.1,34.8c3.8,8.8,7.8,17.4,11.9,26&#10;&#9;&#9;c-2.2-1.1-3.7-1.2-5,1.3c-0.5,1-0.7,2.1-0.9,3.2l-23.6-65.1L313.1,226.6z"/>
	<path class="st17_fast-food-1-34" d="M305.7,227l3.4-0.2c3.5,16.4,7,32.9,8.9,49.6c1.4,6.2,3,12.3,4.8,18.4c-1-0.8-2.3-0.5-4.4,1.3&#10;&#9;&#9;c-1.1,0.9-2,2-2.9,3.2c-3.5-23.6-6.9-47.2-10.4-70.9C305,227.9,305.3,227.3,305.7,227z"/>
	<path class="st17_fast-food-1-34" d="M295.4,227.4l1-0.1c-0.1,0.3-0.2,0.6-0.3,0.9c0.2,0.1,0.3,0.2,0.4,0.3l0.6-1.2l5-0.2c0,0.9,0.1,1.8,0.1,2.7&#10;&#9;&#9;c0.4,0.3,0.6,0.8,0.6,1.3c0,19.2,0,38.5,0.1,57.7c-1.3-1.3-3.3-1.2-7,0.3c-1,0.4-1.8,0.8-2.6,1.1c-0.2-0.3-0.3-0.7-0.2-1.1&#10;&#9;&#9;c0-0.4,0.1-0.8,0.1-1.2c-0.4,0.9-0.8,1.9-1.2,2.8c-1.5,0.7-3,1-4.6,1.1c6.4-18.5,10.4-37.8,11.9-57.3c-0.1-1.2-0.2-2.5-0.2-3.7&#10;&#9;&#9;c-2.4,5.3-4.6,10.6-6.5,16.1c-2.1,6.1-3.5,12.5-6.2,18.4l-0.3-0.1C279.2,263.8,295.4,227.4,295.4,227.4z"/>
	<path class="st14_fast-food-1-34" d="M331.8,227.9c-0.7-0.4-0.9-1.2-0.6-1.9c0-0.1,0.1-0.2,0.2-0.2l3-0.1c10.7,6.1,21.4,12.3,32.1,18.3&#10;&#9;&#9;c-1.7,1.2-3.3,2.1-2.6,4.7C352.2,243.6,342.8,234.4,331.8,227.9z"/>
	<path class="st14_fast-food-1-34" d="M332.9,241.1c-3-4.7-5.6-9.8-7.5-15.1l4.5-0.2c0.4,0.9,0.7,1.8,1.1,2.7c7.9,14.8,16.1,29.4,26.6,42.4&#10;&#9;&#9;c-1.2,0.6-1.7,2.1-0.8,5.7c0.2,0.9,0.6,1.9,1,2.8c-1.8-2.1-3.5-4.2-5-6.5C345,263.1,338.4,252.4,332.9,241.1z"/>
	<path class="st14_fast-food-1-34" d="M313.1,226.6l3.7-0.2c0.5,1.3,1,2.6,1.4,3.9c4.9,11.5,9.8,23.1,14.1,34.8c3.8,8.8,7.8,17.4,11.9,26&#10;&#9;&#9;c-2.2-1.1-3.7-1.2-5,1.3c-0.5,1-0.7,2.1-0.9,3.2l-23.6-65.1L313.1,226.6z"/>
	<path class="st14_fast-food-1-34" d="M305.7,227l3.4-0.2c3.5,16.4,7,32.9,8.9,49.6c1.4,6.2,3,12.3,4.8,18.4c-1-0.8-2.3-0.5-4.4,1.3&#10;&#9;&#9;c-1.1,0.9-2,2-2.9,3.2c-3.5-23.6-6.9-47.2-10.4-70.9C305,227.9,305.3,227.3,305.7,227z"/>
	<path class="st14_fast-food-1-34" d="M295.4,227.4l1-0.1c-0.1,0.3-0.2,0.6-0.3,0.9c0.2,0.1,0.3,0.2,0.4,0.3l0.6-1.2l5-0.2c0,0.9,0.1,1.8,0.1,2.7&#10;&#9;&#9;c0.4,0.3,0.6,0.8,0.6,1.3c0,19.2,0,38.5,0.1,57.7c-1.3-1.3-3.3-1.2-7,0.3c-1,0.4-1.8,0.8-2.6,1.1c-0.2-0.3-0.3-0.7-0.2-1.1&#10;&#9;&#9;c0-0.4,0.1-0.8,0.1-1.2c-0.4,0.9-0.8,1.9-1.2,2.8c-1.5,0.7-3,1-4.6,1.1c6.4-18.5,10.4-37.8,11.9-57.3c-0.1-1.2-0.2-2.5-0.2-3.7&#10;&#9;&#9;c-2.4,5.3-4.6,10.6-6.5,16.1c-2.1,6.1-3.5,12.5-6.2,18.4l-0.3-0.1C279.2,263.8,295.4,227.4,295.4,227.4z"/>
	<path class="st11_fast-food-1-34" d="M232.1,260.6c0,0-4.9,18.1-6.7,27.8c5.9-3.7,12.6-6.2,19.5-7.3c11.3-1.7,78,3.5,78,3.5s16.7,5,20.2,7.1&#10;&#9;&#9;c4.7,2.8,12.9,10.1,12.9,10.1s3.2-17.3,3-23.7c-0.1-5.1-1.3-18.1-1.3-18.1"/>
	<path class="st17_fast-food-1-34" d="M280.7,230.8c0.8-1.1,1.5-2.3,2.3-3.4l-8.3-2.4c-3.2,4.7-6.8,9-10.9,12.8c-8,9.7-17,18.5-26.8,26.3&#10;&#9;&#9;c-2,1.8-4.2,3.5-6.4,5.1c-6.3,8-19.5,12.1-7.1,15.5c8.1,2.2,13.8-0.1,17.4-0.9c6.1-7.4,12-14.9,17.8-22.5&#10;&#9;&#9;C265.7,250.9,273.2,240.8,280.7,230.8z"/>
	<path class="st17_fast-food-1-34" d="M290.4,229.5l-3.8-1.1l-2.7,3.5l-38.4,57.5c-0.9,7.6-7.2,19,2,15.6c7.8-2.8,10.3-11.5,13.4-12.8&#10;&#9;&#9;c3.2-5.5,6.2-11.1,9-16.8C275.8,259.8,283,244.6,290.4,229.5z"/>
	<path class="st17_fast-food-1-34" d="M296.4,234.1c0.3-0.9,0.5-1.7,0.8-2.6l-3.5-1c0.4,0.4,0.5,1,0.2,1.6l-27,66.3c2.8,7.1,0.4,13.3,6.4,4.6&#10;&#9;&#9;c4.2-6.1,6-10.5,8.3-11.8c4.6-18.7,9.2-37.3,13.9-56C295.5,234.7,295.9,234.3,296.4,234.1z"/>
	<path class="st17_fast-food-1-34" d="M270.5,223.6l-1.4-0.4c0.3,0.7,0.1,1.5-0.6,1.8c-0.1,0-0.2,0.1-0.3,0.1c-12.2,3.7-23.6,10.4-36.1,12.5&#10;&#9;&#9;c-0.5,0.9-1.2,1.6-1.9,2.3c-7.9,7.6-12.9,8.9-8.4,15.5c3,4.4,9,3.6,11.1,5.5c13.3-10.2,24.8-22.4,36-34.9&#10;&#9;&#9;C269.4,225.3,269.9,224.4,270.5,223.6z"/>
	<path class="st17_fast-food-1-34" d="M260.9,220.8c0,0-25-8.9-30.9,2c-2.9,5.3-1.1,7.7,0.6,9.7c11.9-3.3,23.7-6.7,35.5-10.1L260.9,220.8z"/>
	<path class="st17_fast-food-1-34" d="M302.7,234c0-0.3-0.1-0.6-0.1-0.9l-0.6-0.2l0.3,1.3C302.3,234.1,302.5,234.1,302.7,234z"/>
	<path class="st17_fast-food-1-34" d="M299.2,235.8c-0.4,1.2-0.7,2.4-1.1,3.5c-3.2,19.3-3.9,39-2.1,58.5c2.1,0.4,3.2-1.2,4.4-5.4&#10;&#9;&#9;c2.1-7.5-3.6-20,2.9-20.1c-1.2-6.3-1-12.9-1.6-19.3C301.1,247.2,300.2,241.5,299.2,235.8z"/>
	<path class="st17_fast-food-1-34" d="M291,293.9c0,0.4-0.2,0.7-0.5,1c0.4,0.3,0.8,0.5,1.1,0.8c-0.2-1-0.4-2-0.5-3L291,293.9z"/>
	<path class="st17_fast-food-1-34" d="M268.1,225.2c0.7-0.2,1.2-0.9,1-1.7c0-0.1-0.1-0.2-0.1-0.3l-2.9-0.9c-11.8,3.4-23.7,6.9-35.5,10.1&#10;&#9;&#9;c1.4,1.6,2.7,2.9,1.4,5.2C244.6,235.6,255.9,228.9,268.1,225.2z"/>
	<path class="st17_fast-food-1-34" d="M263.9,237.7c4.1-3.9,7.7-8.2,10.9-12.8l-4.3-1.3c-0.6,0.8-1.1,1.6-1.7,2.4c-11.2,12.5-22.7,24.7-36,34.9&#10;&#9;&#9;c1.1,0.9,1.2,2.5-0.5,5.7c-0.5,0.9-1,1.7-1.6,2.5c2.2-1.6,4.4-3.3,6.4-5.1C246.9,256.2,255.9,247.4,263.9,237.7z"/>
	<path class="st17_fast-food-1-34" d="M286.6,228.4l-3.5-1c-0.8,1.1-1.5,2.3-2.3,3.4c-7.5,10-15,20.1-22,30.5c-5.8,7.6-11.7,15.1-17.8,22.5&#10;&#9;&#9;c2.4-0.5,3.9-0.3,4.5,2.4c0.2,1.1,0.2,2.2,0.1,3.4L284,232L286.6,228.4z"/>
	<path class="st17_fast-food-1-34" d="M293.6,230.5l-3.2-1c-7.4,15.1-14.6,30.3-20.5,46c-2.8,5.7-5.8,11.2-9,16.8c1.1-0.5,2.4,0,4,2.3&#10;&#9;&#9;c0.8,1.2,1.5,2.4,2,3.8l27-66.3C294.1,231.5,294,230.9,293.6,230.5z"/>
	<path class="st17_fast-food-1-34" d="M303.5,233.4l-1-0.3c0,0.3,0.1,0.6,0.1,0.9c-0.2,0.1-0.3,0.1-0.5,0.2l-0.3-1.3l-4.8-1.4&#10;&#9;&#9;c-0.2,0.9-0.5,1.7-0.8,2.6c-0.5,0.2-0.8,0.6-0.9,1.1c-4.6,18.7-9.2,37.3-13.9,56c1.6-0.9,3.5-0.4,6.7,2c0.8,0.6,1.6,1.2,2.3,1.7&#10;&#9;&#9;c0.3-0.3,0.5-0.6,0.5-1l0.1-1.2c0.1,1,0.3,2,0.5,3c1.3,1,2.7,1.7,4.2,2.2c-1.8-19.5-1.1-39.2,2.1-58.5c0.4-1.2,0.8-2.4,1.1-3.5&#10;&#9;&#9;c1,5.7,1.9,11.4,2.5,17.2c0.6,6.4,0.4,13,1.6,19.3h0.3C310.6,272.6,303.5,233.4,303.5,233.4z"/>
	<path class="st14_fast-food-1-34" d="M268.1,225.2c0.7-0.2,1.2-0.9,1-1.7c0-0.1-0.1-0.2-0.1-0.3l-2.9-0.9c-11.8,3.4-23.7,6.9-35.5,10.1&#10;&#9;&#9;c1.4,1.6,2.7,2.9,1.4,5.2C244.6,235.6,255.9,228.9,268.1,225.2z"/>
	<path class="st14_fast-food-1-34" d="M263.9,237.7c4.1-3.9,7.7-8.2,10.9-12.8l-4.3-1.3c-0.6,0.8-1.1,1.6-1.7,2.4c-11.2,12.5-22.7,24.7-36,34.9&#10;&#9;&#9;c1.1,0.9,1.2,2.5-0.5,5.7c-0.5,0.9-1,1.7-1.6,2.5c2.2-1.6,4.4-3.3,6.4-5.1C246.9,256.2,255.9,247.4,263.9,237.7z"/>
	<path class="st14_fast-food-1-34" d="M286.6,228.4l-3.5-1c-0.8,1.1-1.5,2.3-2.3,3.4c-7.5,10-15,20.1-22,30.5c-5.8,7.6-11.7,15.1-17.8,22.5&#10;&#9;&#9;c2.4-0.5,3.9-0.3,4.5,2.4c0.2,1.1,0.2,2.2,0.1,3.4L284,232L286.6,228.4z"/>
	<path class="st14_fast-food-1-34" d="M293.6,230.5l-3.2-1c-7.4,15.1-14.6,30.3-20.5,46c-2.8,5.7-5.8,11.2-9,16.8c1.1-0.5,2.4,0,4,2.3&#10;&#9;&#9;c0.8,1.2,1.5,2.4,2,3.8l27-66.3C294.1,231.5,294,230.9,293.6,230.5z"/>
	<path class="st14_fast-food-1-34" d="M303.5,233.4l-1-0.3c0,0.3,0.1,0.6,0.1,0.9c-0.2,0.1-0.3,0.1-0.5,0.2l-0.3-1.3l-4.8-1.4&#10;&#9;&#9;c-0.2,0.9-0.5,1.7-0.8,2.6c-0.5,0.2-0.8,0.6-0.9,1.1c-4.6,18.7-9.2,37.3-13.9,56c1.6-0.9,3.5-0.4,6.7,2c0.8,0.6,1.6,1.2,2.3,1.7&#10;&#9;&#9;c0.3-0.3,0.5-0.6,0.5-1l0.1-1.2c0.1,1,0.3,2,0.5,3c1.3,1,2.7,1.7,4.2,2.2c-1.8-19.5-1.1-39.2,2.1-58.5c0.4-1.2,0.8-2.4,1.1-3.5&#10;&#9;&#9;c1,5.7,1.9,11.4,2.5,17.2c0.6,6.4,0.4,13,1.6,19.3h0.3C310.6,272.6,303.5,233.4,303.5,233.4z"/>
	<path class="st17_fast-food-1-34" d="M244.8,273.4v7.8c0,0,8.4,15.4,36.2,4.6l-0.8-3.6"/>
	<path class="st14_fast-food-1-34" d="M244.8,273.4v7.8c0,0,8.4,15.4,36.2,4.6l-0.8-3.6"/>
	<path class="st18_fast-food-1-34" d="M244.8,273.4c0,0,0,8,13.5,11.7c13.5,3.7,21.9-2.8,21.9-2.8L244.8,273.4z"/>
	<path class="st13_fast-food-1-34" d="M218.4,260.1v6.4c0,0,0.1,11.6,27.4,11.3v-4c0,0-12.5-1-18-3.6C221.3,267.2,218.7,263.1,218.4,260.1z"/>
	<path class="st14_fast-food-1-34" d="M218.4,260.1v6.4c0,0,0.1,11.6,27.4,11.3v-4c0,0-12.5-1-18-3.6C221.3,267.2,218.7,263.1,218.4,260.1z"/>
	<ellipse class="st13_fast-food-1-34" cx="241.1" cy="260.5" rx="22.7" ry="13.4"/>
	<path class="st14_fast-food-1-34" d="M225.1,253.3c0,0-3.8,2.3-3.9,6.4s1.8,6,3.9,6s7.6-7.2,9.5-5.6s-6.2,7.2-4.6,9.3s16,3.7,18.6,1.7&#10;&#9;&#9;s5.7-11.5-2-14.2S225.1,253.3,225.1,253.3z"/>
	<path class="st13_fast-food-1-34" d="M365.7,261.9v6.4c0,0-2.1,13.3-34.1,9l1.7-2.9c0,0,17.6,0.2,23.1-2.4C362.8,269,365.4,265,365.7,261.9z"/>
	<ellipse class="st13_fast-food-1-34" cx="343" cy="262.3" rx="22.7" ry="13.4"/>
	<path class="st14_fast-food-1-34" d="M359,255.1c0,0,3.8,2.3,3.9,6.4s-1.8,6-3.9,6s-7.6-7.2-9.5-5.6s6.2,7.2,4.6,9.3s-16,3.7-18.6,1.7&#10;&#9;&#9;s-5.7-11.5,2-14.2S359,255.1,359,255.1z"/>
	<path class="st14_fast-food-1-34" d="M365.7,261.9v6.4c0,0-2.1,13.3-34.1,9l1.7-2.9c0,0,17.6,0.2,23.1-2.4C362.8,269,365.4,265,365.7,261.9z"/>
	<path class="st17_fast-food-1-34" d="M346.1,273.4v7.8c0,0-8.4,15.4-36.2,4.6l0.8-3.6"/>
	<path class="st14_fast-food-1-34" d="M346.1,273.4v7.8c0,0-8.4,15.4-36.2,4.6l0.8-3.6"/>
	<path class="st18_fast-food-1-34" d="M346.1,273.4c0,0,0,8-13.5,11.7s-21.9-2.8-21.9-2.8L346.1,273.4z"/>
	<path class="st13_fast-food-1-34" d="M267.5,283.9v7c0,0,5.1,8.7,25.8,8.7s25.4-9,25.4-9.3v-6.4"/>
	<path class="st14_fast-food-1-34" d="M267.5,283.9v7c0,0,5.1,8.7,25.8,8.7s25.4-9,25.4-9.3v-6.4"/>
	<ellipse class="st13_fast-food-1-34" cx="293.1" cy="284.6" rx="25.6" ry="12"/>
	<path class="st14_fast-food-1-34" d="M270.5,283.9c0,0,5.1,7.6,11.5,7.9s7.8-7.7,10.3-5.6s1.7,7.4,6.8,6.9s16-5,16.3-8.4"/>
	<ellipse class="st15_fast-food-1-34" cx="294.9" cy="241" rx="73.1" ry="47.2"/>
	<path class="st8_fast-food-1-34" d="M345,274.9c-25.1,11-59.8,10.6-84.2-1.9c-12.9-6.5-25.2-16.8-30.6-30.2c-3.2-7.6-3.2-16.1-0.1-23.8&#10;&#9;&#9;c-5.3,6.5-8.3,14-8.3,21.9c0,26.1,32.7,47.2,73.1,47.2c20.4,0,38.9-5.4,52.2-14.2C346.4,274.3,345.7,274.6,345,274.9z"/>
	<ellipse class="st7_fast-food-1-34" cx="288" cy="215.4" rx="3.6" ry="1.3"/>
	<ellipse class="st7_fast-food-1-34" cx="303" cy="227.4" rx="3.6" ry="1.3"/>
	<ellipse class="st7_fast-food-1-34" cx="262.9" cy="217.4" rx="3.6" ry="1.3"/>
	<ellipse class="st7_fast-food-1-34" cx="277.4" cy="230.9" rx="3.6" ry="1.3"/>
	<ellipse class="st7_fast-food-1-34" cx="325.4" cy="212.1" rx="3.6" ry="1.3"/>
	<ellipse class="st7_fast-food-1-34" cx="334.4" cy="234.6" rx="3.6" ry="1.3"/>
	<ellipse class="st7_fast-food-1-34" cx="309.1" cy="248.7" rx="3.6" ry="1.3"/>
	<ellipse class="st7_fast-food-1-34" cx="274.8" cy="246.4" rx="3.6" ry="1.3"/>
</g>
</svg>