<svg version="1.1" id="Layer_1" xmlns="http://www.w3.org/2000/svg" xmlns:xlink="http://www.w3.org/1999/xlink" x="0px" y="0px" viewBox="0 0 500 500" style="width: 166px;" xml:space="preserve" data-imageid="fast-food-1-79" imageName="Fast Food 1" class="illustrations_image">
<style type="text/css">
	.st0_fast-food-1-79{fill:#FFFFFF;}
	.st1_fast-food-1-79{fill:#231F20;}
	.st2_fast-food-1-79{fill:#D1D3D4;}
	.st3_fast-food-1-79{fill:#68E1FD;}
</style>
<g id="Plastic_Tray_fast-food-1-79">
	<path class="st0_fast-food-1-79" d="M83.2,340.9H43.1c-5.9,0-9.7-6.6-7-12.2l21.2-42.7c1.4-3,4.5-4.7,7.8-4.4l18.2,1.8L83.2,340.9z"/>
	<path class="st1_fast-food-1-79" d="M83.2,341.6H43.1c-2.9,0-5.6-1.6-7.2-4.1c-1.7-2.8-1.9-6.2-0.4-9.1l21.2-42.7c1.5-3.2,4.9-5.1,8.4-4.8&#10;&#9;&#9;l18.2,1.8c0.4,0,0.6,0.3,0.6,0.7v57.4C83.9,341.3,83.5,341.6,83.2,341.6z M64.2,282.3c-2.7,0-5.2,1.6-6.3,4.1L36.8,329&#10;&#9;&#9;c-1.2,2.5-1.1,5.4,0.4,7.8c1.3,2.1,3.5,3.4,6,3.4h39.3v-56.1l-17.6-1.7C64.7,282.3,64.4,282.3,64.2,282.3z"/>
	<path class="st0_fast-food-1-79" d="M416.8,340.9h40.1c5.9,0,9.7-6.6,7-12.2l-21.2-42.7c-1.4-2.9-4.5-4.7-7.7-4.4l-18.2,1.8L416.8,340.9z"/>
	<path class="st1_fast-food-1-79" d="M456.9,341.6h-40.1c-0.4,0-0.7-0.3-0.7-0.7v0v-57.4c0-0.4,0.3-0.7,0.6-0.7l18.2-1.8c3.5-0.3,6.9,1.6,8.4,4.8&#10;&#9;&#9;l21.2,42.7c1.5,2.9,1.3,6.4-0.4,9.1C462.6,340,459.9,341.6,456.9,341.6z M417.5,340.2h39.4c2.5,0,4.7-1.3,6-3.4&#10;&#9;&#9;c1.5-2.3,1.6-5.3,0.4-7.8l-21.2-42.7c-1.3-2.7-4.1-4.3-7-4l-17.6,1.8V340.2z"/>
	<path class="st0_fast-food-1-79" d="M440.4,388.7H59.6c-8.2,0-13.7-9.6-10.2-18L94,263.8c1.6-4.3,5.6-7.1,10.2-7.3h291.6c4.5,0.1,8.6,3,10.2,7.3&#10;&#9;&#9;l44.5,107C454.1,379.1,448.6,388.7,440.4,388.7z"/>
	<path class="st1_fast-food-1-79" d="M440.4,389.4H59.6c-3.9,0-7.5-2.1-9.6-5.4c-2.6-4-3.1-9.1-1.2-13.6l44.6-107c1.7-4.5,6-7.6,10.8-7.7h291.7&#10;&#9;&#9;c4.8,0.2,9.1,3.2,10.8,7.7l44.6,107c1.9,4.5,1.4,9.5-1.2,13.6C447.9,387.4,444.3,389.4,440.4,389.4z M104.2,257.2&#10;&#9;&#9;c-4.3,0.1-8,2.8-9.5,6.9L50.1,371c-1.7,4-1.2,8.6,1.1,12.3c1.8,2.9,5,4.7,8.4,4.7h380.8c3.4,0,6.6-1.8,8.4-4.7&#10;&#9;&#9;c2.4-3.7,2.8-8.2,1.1-12.3l-44.5-106.9c-1.5-4-5.3-6.7-9.5-6.9H104.2z"/>
	<path class="st2_fast-food-1-79" d="M428.7,381.8H71.3c-3.8,0-7.3-2-9.3-5.2c-2.3-3.5-2.7-7.9-1-11.8l41.8-94.5c1.8-4.1,5.8-6.8,10.3-6.9h273.8&#10;&#9;&#9;c4.5,0.1,8.5,2.8,10.3,6.9l41.9,94.5c1.7,3.8,1.4,8.3-0.9,11.8C436.1,379.8,432.5,381.8,428.7,381.8z M113.1,265&#10;&#9;&#9;c-3.9,0.1-7.4,2.4-8.9,6l-41.8,94.4c-1.5,3.3-1.2,7.2,0.8,10.3c1.7,2.8,4.8,4.5,8,4.5h357.4c3.3,0,6.3-1.7,8-4.5&#10;&#9;&#9;c2-3.1,2.3-7,0.8-10.3L395.7,271c-1.5-3.6-5-5.9-8.9-6H113.1z"/>
</g>
<g id="French_Fries_fast-food-1-79">
	<polygon class="st0_fast-food-1-79" points="149.5,262.4 142.5,164.6 154.7,159.3 172.6,252.4 &#9;"/>
	<path class="st1_fast-food-1-79" d="M149.5,263c-0.1,0-0.3,0-0.4-0.1c-0.2-0.1-0.3-0.3-0.3-0.5l-7-97.7c0-0.3,0.1-0.6,0.4-0.7l12.2-5.3&#10;&#9;&#9;c0.2-0.1,0.4-0.1,0.6,0c0.2,0.1,0.3,0.3,0.4,0.5l18,93c0.1,0.3-0.1,0.6-0.4,0.8l-23.1,10C149.7,263,149.6,263,149.5,263z&#10;&#9;&#9; M143.2,165l6.9,96.2l21.7-9.3l-17.7-91.6L143.2,165z"/>
	<path class="st0_fast-food-1-79" d="M182.7,258c0-1.1,40.2-97.3,40.2-97.3l11.8,4l-26,92.3L182.7,258z"/>
	<path class="st1_fast-food-1-79" d="M182.7,258.6c-0.2,0-0.4-0.1-0.5-0.2c-0.1-0.1-0.2-0.3-0.2-0.5c0-1,25.2-61.6,40.2-97.6&#10;&#9;&#9;c0.1-0.3,0.5-0.5,0.9-0.4l11.8,4c0.4,0.1,0.6,0.5,0.4,0.9l-26,92.3c-0.1,0.3-0.3,0.5-0.6,0.5L182.7,258.6L182.7,258.6z&#10;&#9;&#9; M223.3,161.5c-13,31.1-36.6,87.8-39.6,95.7l24.5-1l25.7-91.1L223.3,161.5z"/>
	<polygon class="st0_fast-food-1-79" points="158.6,268 183.5,155.4 197.2,158.3 176.6,269.6 &#9;"/>
	<path class="st1_fast-food-1-79" d="M176.6,270.3L176.6,270.3l-18-1.6c-0.2,0-0.4-0.1-0.5-0.3c-0.1-0.2-0.2-0.4-0.1-0.6l24.9-112.6&#10;&#9;&#9;c0.1-0.4,0.4-0.6,0.8-0.5c0,0,0,0,0,0l13.7,2.9c0.4,0.1,0.6,0.4,0.6,0.8l-20.7,111.3C177.2,270,176.9,270.3,176.6,270.3z&#10;&#9;&#9; M159.5,267.4l16.5,1.5l20.4-110l-12.4-2.6L159.5,267.4z"/>
	<polygon class="st0_fast-food-1-79" points="170,268 158.6,154.3 174.8,151.1 190.3,260.9 &#9;"/>
	<path class="st1_fast-food-1-79" d="M170,268.7c-0.1,0-0.3,0-0.4-0.1c-0.2-0.1-0.3-0.3-0.3-0.5L158,154.4c0-0.4,0.2-0.7,0.6-0.8l16.2-3.2&#10;&#9;&#9;c0.2,0,0.4,0,0.5,0.1c0.2,0.1,0.3,0.3,0.3,0.5L191,260.8c0,0.3-0.1,0.6-0.5,0.8l-20.4,7.1C170.1,268.7,170.1,268.7,170,268.7z&#10;&#9;&#9; M159.4,154.9L170.6,267l19-6.7L174.2,152L159.4,154.9z"/>
	<path class="st0_fast-food-1-79" d="M147.3,262.4c0.2-0.2,8.7-92.7,8.7-92.7h14l-7.7,92.7H147.3z"/>
	<path class="st1_fast-food-1-79" d="M162.3,263h-15c-0.3,0-0.6-0.2-0.7-0.5c0-0.1,0-0.3,0-0.4c0.3-2,5.8-61.4,8.7-92.6c0-0.4,0.3-0.6,0.7-0.6h14&#10;&#9;&#9;c0.2,0,0.4,0.1,0.5,0.2c0.1,0.1,0.2,0.3,0.2,0.5l-7.7,92.7C163,262.8,162.7,263,162.3,263z M148,261.6h13.6l7.6-91.3h-12.6&#10;&#9;&#9;C150.1,241.5,148.6,257.8,148,261.6z"/>
	<polygon class="st0_fast-food-1-79" points="164.9,260.6 174.8,176.8 188.2,178.1 181.6,265.4 &#9;"/>
	<path class="st1_fast-food-1-79" d="M181.6,266c-0.1,0-0.1,0-0.2,0l-16.8-4.8c-0.3-0.1-0.5-0.4-0.5-0.8l10-83.8c0.1-0.4,0.4-0.7,0.8-0.6l13.4,1.3&#10;&#9;&#9;c0.4,0,0.7,0.4,0.6,0.8l-6.6,87.2c0,0.2-0.1,0.4-0.3,0.5C181.9,266,181.8,266.1,181.6,266z M165.6,260l15.4,4.4l6.5-85.7l-12-1.2&#10;&#9;&#9;L165.6,260z"/>
	<path class="st0_fast-food-1-79" d="M186.9,273.8c0.8-0.3,11.6-109.2,11.6-109.2h15.1l-7.4,99.1L186.9,273.8z"/>
	<path class="st1_fast-food-1-79" d="M186.9,274.5c-0.3,0-0.5-0.2-0.6-0.4c-0.1-0.2-0.1-0.4,0-0.6c0.9-3.3,8.6-79.6,11.5-108.9&#10;&#9;&#9;c0-0.4,0.3-0.6,0.7-0.6h15.1c0.2,0,0.4,0.1,0.5,0.2c0.1,0.1,0.2,0.3,0.2,0.5l-7.4,99.1c0,0.2-0.2,0.5-0.4,0.6l-19.3,10h-0.1&#10;&#9;&#9;C187,274.5,187,274.5,186.9,274.5z M199.2,165.3c-0.4,4.2-2.9,29.2-5.4,53.9c-3.9,37.5-5.2,49.5-5.9,53.4l17.7-9.2l7.3-98&#10;&#9;&#9;L199.2,165.3z"/>
	<path class="st0_fast-food-1-79" d="M221.8,239.7c0.8-1.6,25.6-56.1,25.6-56.1l-14.8-6.9l-38.3,74.3L221.8,239.7z"/>
	<path class="st1_fast-food-1-79" d="M194.3,251.8c-0.2,0-0.4-0.1-0.5-0.2c-0.2-0.2-0.2-0.5-0.1-0.8l38.3-74.3c0.2-0.3,0.6-0.5,0.9-0.3l14.8,6.9&#10;&#9;&#9;c0.3,0.2,0.5,0.6,0.3,0.9c0,0,0,0,0,0c-1,2.2-24.9,54.5-25.6,56.1c-0.1,0.2-0.2,0.3-0.4,0.3l-27.5,11.4&#10;&#9;&#9;C194.5,251.8,194.4,251.8,194.3,251.8z M233,177.7l-37.1,72l25.5-10.5c1.8-3.9,22.5-49.2,25.2-55.2L233,177.7z M221.8,239.7&#10;&#9;&#9;L221.8,239.7z"/>
	<path class="st0_fast-food-1-79" d="M190.3,246.8c0,0,25.9-58.7,26.2-58.2s13.5,4.8,13.5,4.8L204.6,255L190.3,246.8z"/>
	<path class="st1_fast-food-1-79" d="M204.6,255.7c-0.1,0-0.2,0-0.4-0.1l-14.3-8.2c-0.3-0.2-0.4-0.6-0.3-0.9c25.9-58.6,26.2-58.6,26.8-58.6&#10;&#9;&#9;c0.2,0,0.4,0.1,0.5,0.2c0.8,0.5,7.4,2.7,13.2,4.6c0.2,0.1,0.3,0.2,0.4,0.4c0.1,0.2,0.1,0.4,0,0.6l-25.4,61.6&#10;&#9;&#9;c-0.1,0.2-0.2,0.3-0.4,0.4C204.8,255.7,204.7,255.7,204.6,255.7z M191.2,246.6l13,7.5l24.8-60.1c-7.9-2.6-11-3.7-12.3-4.3&#10;&#9;&#9;C214.6,194,200.7,225.2,191.2,246.6L191.2,246.6z"/>
	<path class="st0_fast-food-1-79" d="M136,251.1c0,0-29.7-74.3-28.9-74.3s14.4-5.8,14.4-5.8l29.5,70.3L136,251.1z"/>
	<path class="st1_fast-food-1-79" d="M136,251.8h-0.2c-0.2-0.1-0.4-0.2-0.4-0.4c-29.5-73.9-29.1-74.5-28.8-74.9c0.1-0.2,0.4-0.3,0.6-0.3&#10;&#9;&#9;c0.8-0.1,9.1-3.6,14.2-5.8c0.2-0.1,0.4-0.1,0.5,0c0.2,0.1,0.3,0.2,0.4,0.4l29.4,70.3c0.1,0.3,0,0.7-0.3,0.9l-15,9.8&#10;&#9;&#9;C136.2,251.7,136.1,251.8,136,251.8z M107.9,177.3c1.6,5.2,17.5,45.4,28.4,72.8l13.8-9l-28.9-69.1&#10;&#9;&#9;C116.7,173.8,110.2,176.5,107.9,177.3L107.9,177.3z"/>
	<polygon class="st0_fast-food-1-79" points="136,245.8 123.5,162.2 137.7,158.3 148.6,251.1 &#9;"/>
	<path class="st1_fast-food-1-79" d="M148.6,251.8c-0.1,0-0.2,0-0.3-0.1l-12.6-5.3c-0.2-0.1-0.4-0.3-0.4-0.5l-12.5-83.5c-0.1-0.3,0.2-0.7,0.5-0.8&#10;&#9;&#9;l14.3-4c0.4-0.1,0.7,0.1,0.9,0.5c0,0,0,0.1,0,0.1l10.8,92.8c0,0.2-0.1,0.5-0.3,0.6C148.9,251.7,148.7,251.8,148.6,251.8z&#10;&#9;&#9; M136.6,245.3l11.2,4.7l-10.6-90.8l-12.9,3.6L136.6,245.3z"/>
	<polygon class="st0_fast-food-1-79" points="117.1,230.4 106,190.5 119.5,183.7 145.4,253.4 &#9;"/>
	<path class="st1_fast-food-1-79" d="M145.4,254.1c-0.1,0-0.3-0.1-0.4-0.1l-28.3-23c-0.1-0.1-0.2-0.2-0.2-0.4l-11.1-39.9c-0.1-0.3,0.1-0.7,0.4-0.8&#10;&#9;&#9;l13.4-6.9c0.2-0.1,0.4-0.1,0.6,0c0.2,0.1,0.3,0.2,0.4,0.4l25.9,69.8c0.1,0.3,0,0.6-0.2,0.8C145.7,254.1,145.5,254.2,145.4,254.1z&#10;&#9;&#9; M117.7,230l26.1,21.2l-24.7-66.7l-12.3,6.3L117.7,230z"/>
	<polygon class="st0_fast-food-1-79" points="136,243.1 119.5,193.7 132.4,190.5 156,251.1 &#9;"/>
	<path class="st1_fast-food-1-79" d="M156,251.8c-0.1,0-0.2,0-0.3-0.1l-20-7.9c-0.2-0.1-0.3-0.2-0.4-0.4l-16.5-49.4c-0.1-0.2-0.1-0.4,0-0.6&#10;&#9;&#9;c0.1-0.2,0.3-0.3,0.4-0.3l13-3.2c0.3-0.1,0.7,0.1,0.8,0.4l23.5,60.5c0.2,0.3,0,0.8-0.3,0.9C156.2,251.8,156.1,251.8,156,251.8&#10;&#9;&#9;L156,251.8z M136.6,242.6l18.2,7.2L132,191.4l-11.6,2.9L136.6,242.6z"/>
	<polygon class="st0_fast-food-1-79" points="148.8,266.7 138.5,185.5 150.2,183.7 160.5,255 &#9;"/>
	<path class="st1_fast-food-1-79" d="M148.8,267.4c-0.1,0-0.2,0-0.2,0c-0.3-0.1-0.4-0.3-0.5-0.6l-10.3-81.2c0-0.4,0.2-0.7,0.6-0.8l11.6-1.8&#10;&#9;&#9;c0.2,0,0.4,0,0.5,0.1c0.1,0.1,0.2,0.3,0.3,0.5l10.3,71.4c0,0.2,0,0.4-0.2,0.6l-11.6,11.6C149.2,267.3,149,267.4,148.8,267.4z&#10;&#9;&#9; M139.3,186.1l10,79.1l10.4-10.4l-10.2-70.3L139.3,186.1z"/>
	<polygon class="st0_fast-food-1-79" points="156,251.1 154.7,192.4 167.3,192.4 170,255 &#9;"/>
	<path class="st1_fast-food-1-79" d="M170,255.7c-0.1,0-0.1,0-0.2,0l-14-4c-0.3-0.1-0.5-0.4-0.5-0.7l-1.3-58.7c0-0.2,0.1-0.4,0.2-0.5&#10;&#9;&#9;c0.1-0.1,0.3-0.2,0.5-0.2h12.7c0.4,0,0.7,0.3,0.7,0.7l2.6,62.6c0,0.2-0.1,0.4-0.3,0.6C170.3,255.7,170.2,255.7,170,255.7z&#10;&#9;&#9; M156.7,250.5l12.6,3.6l-2.6-61h-11.3L156.7,250.5z"/>
	<path class="st0_fast-food-1-79" d="M171.3,249c0,0-7.4-43.6-6.3-43.9s10.8-2.1,10.8-2.1l9,48.1L171.3,249z"/>
	<path class="st1_fast-food-1-79" d="M184.8,251.8h-0.1l-13.5-2.1c-0.3-0.1-0.5-0.3-0.6-0.6c-7.5-44.2-6.6-44.5-5.8-44.7c1.1-0.3,10.5-2.1,10.9-2.1&#10;&#9;&#9;c0.2,0,0.4,0,0.5,0.1c0.2,0.1,0.3,0.3,0.3,0.4l9,48.1c0,0.2,0,0.5-0.2,0.6C185.2,251.7,185,251.8,184.8,251.8z M171.9,248.3l12,1.9&#10;&#9;&#9;l-8.7-46.4c-2,0.4-7.9,1.5-9.7,1.9C165.5,209.1,169.2,232.5,171.9,248.3L171.9,248.3z"/>
	<polygon class="st0_fast-food-1-79" points="186.9,246.8 183.5,199 195.1,199 197.2,246.8 &#9;"/>
	<path class="st1_fast-food-1-79" d="M197.2,247.5h-10.3c-0.4,0-0.7-0.3-0.7-0.6l-3.4-47.9c0-0.2,0.1-0.4,0.2-0.5c0.1-0.1,0.3-0.2,0.5-0.2h11.6&#10;&#9;&#9;c0.4,0,0.7,0.3,0.7,0.7l2.1,47.8c0,0.2-0.1,0.4-0.2,0.5C197.6,247.4,197.4,247.5,197.2,247.5z M187.6,246.1h8.9l-2.1-46.4h-10.2&#10;&#9;&#9;L187.6,246.1z"/>
	<polygon class="st0_fast-food-1-79" points="146.2,248.8 136,207.9 146.2,205.1 158.6,252.4 &#9;"/>
	<path class="st1_fast-food-1-79" d="M158.6,253.1c-0.1,0-0.1,0-0.2,0l-12.4-3.7c-0.2-0.1-0.4-0.3-0.5-0.5l-10.2-40.9c-0.1-0.4,0.1-0.7,0.5-0.8&#10;&#9;&#9;l10.2-2.8c0.2-0.1,0.4,0,0.5,0.1c0.2,0.1,0.3,0.2,0.3,0.4l12.4,47.3c0.1,0.2,0,0.5-0.2,0.7C159,253,158.8,253.1,158.6,253.1z&#10;&#9;&#9; M146.8,248.2l10.9,3.2l-11.9-45.4l-8.9,2.4L146.8,248.2z"/>
	<path class="st3_fast-food-1-79 targetColor" d="M132.4,314.7L110.6,210c0,0,28.9,29.3,62,31.7s62-31.7,62-31.7l-16.9,104.7&#10;&#9;&#9;C217.8,314.7,178.6,298.5,132.4,314.7z" style="fill: rgb(104, 225, 253);"/>
	<path class="st1_fast-food-1-79" d="M132.4,315.4c-0.1,0-0.2,0-0.3-0.1c-0.2-0.1-0.3-0.3-0.4-0.5l-21.8-104.7c-0.1-0.4,0.2-0.7,0.6-0.8&#10;&#9;&#9;c0.2,0,0.5,0,0.6,0.2c0.3,0.3,29.1,29.1,61.6,31.5s61.2-31.1,61.4-31.5c0.2-0.3,0.7-0.3,1-0.1c0.2,0.2,0.3,0.4,0.2,0.7l-16.9,104.7&#10;&#9;&#9;c0,0.2-0.2,0.4-0.4,0.5c-0.2,0.1-0.4,0.1-0.6,0c-0.4-0.2-39.4-15.9-84.8,0C132.6,315.4,132.5,315.4,132.4,315.4z M111.7,212.1&#10;&#9;&#9;L133,313.8c41.9-14.4,78.4-2.2,84.2,0l16.4-101.5c-6.6,7-32.3,32.3-61,30.2S118.4,218.2,111.7,212.1z"/>
</g>
<g id="Plastic_Cup_fast-food-1-79">
	<path class="st3_fast-food-1-79 targetColor" d="M268.1,184.7c0,1.6,8.4,120.5,8.4,120.5c0,5.6,17.3,10.1,38.7,10.1s38.7-4.5,38.7-10.1l7.7-120.5&#10;&#9;&#9;C361.6,184.7,268.1,183.1,268.1,184.7z" style="fill: rgb(104, 225, 253);"/>
	<path class="st1_fast-food-1-79" d="M315.1,316c-19.4,0-39.4-4.1-39.4-10.8c-0.3-4.8-8.4-118.9-8.4-120.5c0-0.2,0.1-0.4,0.2-0.5&#10;&#9;&#9;c1.6-1.6,66.3-0.6,94-0.2c0.2,0,0.4,0.1,0.5,0.2c0.1,0.1,0.2,0.3,0.2,0.5l-7.7,120.5C354.5,312,334.5,316,315.1,316z M268.8,185.2&#10;&#9;&#9;c0.5,8.3,8.3,118.8,8.4,120c0,4.6,15.3,9.5,38,9.5s38-4.9,38-9.4l7.7-119.8C325.9,184.8,274.1,184.3,268.8,185.2z"/>
	<path class="st0_fast-food-1-79" d="M264.2,165.9v12.8c0,7.4,22.8,13.4,51,13.4s51-6,51-13.4v-12.8H264.2z"/>
	<path class="st1_fast-food-1-79" d="M315.1,192.8c-25.4,0-51.7-5.2-51.7-14v-12.9c0-0.4,0.3-0.7,0.7-0.7h101.9c0.4,0,0.7,0.3,0.7,0.7c0,0,0,0,0,0&#10;&#9;&#9;v12.9C366.8,187.5,340.5,192.8,315.1,192.8z M264.9,166.6v12.1c0,6.1,20.2,12.6,50.3,12.6s50.3-6.5,50.3-12.6v-12.1H264.9z"/>
	<ellipse class="st0_fast-food-1-79" cx="315.1" cy="165.9" rx="51" ry="13.4"/>
	<path class="st1_fast-food-1-79" d="M315.1,179.9c-25.4,0-51.7-5.2-51.7-14s26.3-14,51.7-14s51.7,5.2,51.7,14S340.5,179.9,315.1,179.9z&#10;&#9;&#9; M315.1,153.2c-30.1,0-50.3,6.5-50.3,12.6s20.2,12.6,50.3,12.6s50.3-6.5,50.3-12.6S345.2,153.2,315.1,153.2z"/>
	<path class="st0_fast-food-1-79" d="M293,158.4v5.6c0,3.2,9.9,5.8,22.2,5.8s22.2-2.6,22.2-5.8v-5.6L293,158.4z"/>
	<path class="st1_fast-food-1-79" d="M315.1,170.5c-11.1,0-22.9-2.3-22.9-6.5v-5.6c0-0.4,0.3-0.7,0.7-0.7l0,0h44.3c0.4,0,0.7,0.3,0.7,0.7&#10;&#9;&#9;c0,0,0,0,0,0v5.6C338,168.2,326.2,170.5,315.1,170.5z M293.7,159.1v4.9c0,2.1,8.2,5.1,21.5,5.1s21.5-3,21.5-5.1v-4.9L293.7,159.1z"/>
	<ellipse class="st0_fast-food-1-79" cx="315.1" cy="158.4" rx="22.2" ry="5.8"/>
	<path class="st1_fast-food-1-79" d="M315.1,164.9c-11.1,0-22.9-2.3-22.9-6.5s11.8-6.5,22.9-6.5s22.9,2.3,22.9,6.5S326.2,164.9,315.1,164.9z&#10;&#9;&#9; M315.1,153.3c-13.3,0-21.5,3-21.5,5.1s8.2,5.1,21.5,5.1s21.5-3,21.5-5.1S328.4,153.3,315.1,153.3z"/>
	<path class="st0_fast-food-1-79" d="M347.7,111.3l-26.4,1.2c-1.3,0.1-2.3,1-2.4,2.2l-4.1,43.7h5.2l3.7-40.9l24.2-1.1c1.4-0.1,2.5-1.3,2.5-2.7&#10;&#9;&#9;c0,0,0,0,0,0C350.4,112.4,349.2,111.3,347.7,111.3C347.8,111.3,347.7,111.3,347.7,111.3z"/>
	<path class="st1_fast-food-1-79" d="M320,159.1h-5.2c-0.2,0-0.4-0.1-0.5-0.2c-0.1-0.1-0.2-0.3-0.2-0.5l4.1-43.7c0.2-1.6,1.5-2.8,3.1-2.9l26.4-1.2&#10;&#9;&#9;c0.8-0.1,1.7,0.2,2.3,0.8c0.7,0.6,1.1,1.5,1.1,2.4c0.1,1.8-1.3,3.3-3.1,3.4l-23.6,1.1l-3.7,40.3C320.7,158.8,320.4,159.1,320,159.1&#10;&#9;&#9;z M315.5,157.7h3.8l3.6-40.2c0-0.3,0.3-0.6,0.7-0.6l24.2-1.1c0.5,0,1-0.2,1.3-0.6c0.3-0.4,0.5-0.9,0.5-1.4c0-0.5-0.3-1-0.6-1.4&#10;&#9;&#9;c-0.4-0.3-0.8-0.5-1.3-0.4l0,0l-26.4,1.2c-0.9,0-1.7,0.7-1.8,1.6L315.5,157.7z M347.7,111.3L347.7,111.3z"/>
</g>
<g id="Soft_Drink_fast-food-1-79">
	<path class="st1_fast-food-1-79" d="M349.1,323.6c0,0,0,9,3.3,12.3s20.8,9.3,36.9,8.5s25.7-5.2,28.4-8.5s2-12.3,2-12.3H349.1z"/>
	<path class="st1_fast-food-1-79" d="M386.2,345.2c-15.2,0-31.1-5.5-34.4-8.8s-3.5-12.4-3.5-12.8c0-0.4,0.3-0.7,0.7-0.7h70.5c0.4,0,0.7,0.3,0.7,0.7&#10;&#9;&#9;c0,0.4,0.7,9.4-2.2,12.8c-3.1,3.8-13.3,7.9-28.9,8.7C388.3,345.2,387.3,345.2,386.2,345.2z M349.9,324.4c0.1,2.2,0.5,8.5,3,11&#10;&#9;&#9;c2.9,2.9,20,9.1,36.3,8.2c15.1-0.8,25-4.8,27.9-8.2c2.1-2.5,2-9,1.9-11.1L349.9,324.4z"/>
	<path class="st3_fast-food-1-79 targetColor" d="M423.4,216.1v110.6c0,0-12,9.3-36,9.3c-14.3,0-28.5-2.8-41.8-8.2c0,0,0-9.8,0-23.5c0-19.8,0.1-47.9,0.1-66.8&#10;&#9;&#9;c0-11,0-18.9-0.1-20c-0.3-4.4,5.2-10.1,5.2-10.1v-7.2h66.1v8.6C416.8,208.7,423.4,212.8,423.4,216.1z" style="fill: rgb(104, 225, 253);"/>
	<path class="st1_fast-food-1-79" d="M387.3,336.6c-14.4,0-28.7-2.8-42-8.3c-0.2-0.1-0.4-0.4-0.4-0.6c0,0,0-9.8,0-23.5c0-21.8,0.1-49.2,0.1-66.8&#10;&#9;&#9;c0-15.2-0.1-19.3-0.1-20c-0.3-4.2,4.2-9.3,5.2-10.4v-7c0-0.4,0.3-0.7,0.7-0.7l0,0h66.1c0.4,0,0.7,0.3,0.7,0.7c0,0,0,0,0,0v8.2&#10;&#9;&#9;c1.5,1,6.5,4.5,6.5,7.8v110.6c0,0.2-0.1,0.4-0.3,0.5C423.3,327.6,411.3,336.6,387.3,336.6z M346.3,327.3c13.1,5.2,27,7.9,41.1,8&#10;&#9;&#9;c21.5,0,33.4-7.6,35.4-8.9V216.1c0-2.4-4.5-5.7-6.2-6.8c-0.2-0.1-0.3-0.4-0.3-0.6v-7.9h-64.7v6.5c0,0.2-0.1,0.4-0.2,0.5&#10;&#9;&#9;c0,0-5.2,5.6-5,9.6c0.1,1.1,0.1,7.8,0.1,20.1c0,17.6,0,45-0.1,66.8C346.3,316.2,346.3,325.2,346.3,327.3z M423.4,326.7L423.4,326.7&#10;&#9;&#9;z"/>
	<ellipse class="st0_fast-food-1-79" cx="383.8" cy="200.1" rx="33" ry="8.6"/>
	<path class="st1_fast-food-1-79" d="M383.8,209.4c-16.4,0-33.7-3.3-33.7-9.3s17.4-9.3,33.7-9.3s33.7,3.3,33.7,9.3S400.1,209.4,383.8,209.4z&#10;&#9;&#9; M383.8,192.2c-19.1,0-32.3,4.2-32.3,7.9s13.3,7.9,32.3,7.9s32.3-4.2,32.3-7.9S402.9,192.2,383.8,192.2z"/>
	<path class="st2_fast-food-1-79" d="M370.9,201.4c-1,0.1-2-0.1-2.8-0.6c-0.3-0.2-0.4-0.5-0.4-0.9c0.1-1.3,4-3.7,7.2-5.4c0.1-0.1,0.2-0.1,0.4-0.1&#10;&#9;&#9;c1.4,0.1,5.9,0.6,6.6,2.2c0.2,0.6,0.1,1.2-0.3,1.6c-2,2.4-6.2,2.6-6.3,2.6C373.8,201.3,372.3,201.4,370.9,201.4z M369.3,199.9&#10;&#9;&#9;c2,0.2,3.9,0.1,5.9-0.3c0.1,0,3.8-0.2,5.4-2.1c0.1-0.1,0.1-0.1,0.1-0.2c-0.1-0.5-2.4-1.2-5.2-1.4&#10;&#9;&#9;C373.2,197.1,371.2,198.4,369.3,199.9L369.3,199.9z"/>
	<path class="st2_fast-food-1-79" d="M387.1,202.7c-4.9,0-8.5-1.8-8.5-4.1s3.7-4.1,8.5-4.1s8.5,1.8,8.5,4.1S392,202.7,387.1,202.7z M387.1,195.9&#10;&#9;&#9;c-4.1,0-7.1,1.4-7.1,2.7s3,2.7,7.1,2.7s7.1-1.4,7.1-2.7S391.2,195.9,387.1,195.9z"/>
	<path class="st0_fast-food-1-79" d="M423.4,237.7v66.9c-10.8,2.7-25.2,5.5-38.1,5.5c-13.5,0-28.7-3.1-39.6-5.8c0-19.8,0.1-47.9,0.1-66.8&#10;&#9;&#9;c13,2.5,26.3,3.8,39.5,4C398,241.3,410.8,240.1,423.4,237.7z"/>
	<path class="st1_fast-food-1-79" d="M385.2,310.8c-13.8,0-29.2-3.2-39.8-5.9c-0.3-0.1-0.5-0.4-0.5-0.7c0-21.8,0.1-49.2,0.1-66.8&#10;&#9;&#9;c0-0.2,0.1-0.4,0.2-0.5c0.2-0.1,0.4-0.2,0.6-0.1c13,2.5,26.2,3.8,39.4,3.9c12.7-0.1,25.5-1.4,38-3.7c0.2,0,0.4,0,0.6,0.1&#10;&#9;&#9;c0.2,0.1,0.2,0.3,0.2,0.5v66.9c0,0.3-0.2,0.6-0.5,0.7C413.4,307.8,398.6,310.8,385.2,310.8z M346.3,303.7&#10;&#9;&#9;c10.4,2.6,25.5,5.7,38.9,5.7c13,0,27.4-2.9,37.5-5.3v-65.5c-12.4,2.2-24.9,3.4-37.5,3.6c-13-0.1-26-1.4-38.9-3.8&#10;&#9;&#9;C346.4,255.8,346.4,282.4,346.3,303.7z"/>
</g>
<g id="Hamburger_fast-food-1-79">
	<path class="st0_fast-food-1-79" d="M190.1,306.4c0,0-2.4,3.6-2.7,12.2s3.7,10.8,7.7,14.8s39.5,11.4,64.3,10.2s53.6-5,64.2-15.8&#10;&#9;&#9;c6.1-6.1,4.4-28.4-2.4-29S190.1,306.4,190.1,306.4z"/>
	<path class="st1_fast-food-1-79" d="M253.9,344.4c-23.6,0-55.2-6.5-59.3-10.5c-0.6-0.6-1.2-1.1-1.8-1.7c-3.3-3.1-6.4-6-6.1-13.6&#10;&#9;&#9;c0.4-8.7,2.7-12.4,2.8-12.6c0.1-0.2,0.3-0.3,0.5-0.3c5.1-0.3,124.4-8.2,131.2-7.6c2.1,0.2,3.9,2.1,5.1,5.4&#10;&#9;&#9;c2.7,7.4,2.2,20.3-2.3,24.8c-8.8,8.9-30.6,14.3-64.7,16C257.6,344.4,255.8,344.4,253.9,344.4z M190.5,307c-0.5,1-2.2,4.6-2.4,11.6&#10;&#9;&#9;s2.3,9.5,5.7,12.6c0.6,0.5,1.2,1.1,1.8,1.7c3.8,3.8,38.8,11.2,63.8,10c33.3-1.7,55.3-7,63.8-15.6c4.1-4.1,4.5-16.5,2-23.3&#10;&#9;&#9;c-1-2.8-2.4-4.4-3.9-4.5C314.6,298.9,198.1,306.5,190.5,307L190.5,307z"/>
	<path class="st3_fast-food-1-79 targetColor" d="M193.4,293.6c-2.7,0-4.7,3.9-6.1,5.7c-2.5,3.2-5.3,6-8.6,8.4c2.3,1.1,4.6,2.3,6,4.4s1.4,5.3-0.6,6.7&#10;&#9;&#9;c3.4-1,7-1.5,10.3-0.4s4.9,3.7,8.3,4.5c4.3,1,8.3,1.8,12.4,3.8c1.2-4.8,5.6-8.1,10.6-8c2.7-2.1,6.2-2.8,9.5-1.9&#10;&#9;&#9;c-0.6-2.2-0.2-4.5,1.1-6.3c1.3-1.8,2.9-3.3,4.6-4.6l-38.3-14.4c-2.7-1-5.9-2-8.2-0.4l1.2,0.6" style="fill: rgb(104, 225, 253);"/>
	<path class="st1_fast-food-1-79" d="M215.1,327.5c-0.1,0-0.2,0-0.3-0.1c-3.6-1.6-7.3-2.8-11.1-3.5l-1.1-0.2c-1.7-0.5-3.3-1.3-4.7-2.4&#10;&#9;&#9;c-1.1-0.9-2.3-1.6-3.7-2.1c-2.7-0.9-6-0.8-9.9,0.4c-0.4,0.1-0.8-0.1-0.9-0.5c-0.1-0.3,0-0.6,0.3-0.8c1.7-1.2,1.7-4,0.5-5.8&#10;&#9;&#9;c-1.3-2-3.7-3.1-5.8-4.1c-0.3-0.2-0.5-0.6-0.3-0.9c0-0.1,0.1-0.2,0.2-0.2c3.1-2.4,6-5.2,8.4-8.3c0.3-0.4,0.6-0.8,0.9-1.2&#10;&#9;&#9;c1.5-2.1,3.3-4.7,5.8-4.8c0.4,0,0.7,0.3,0.7,0.7c0,0.4-0.3,0.7-0.7,0.7c0,0,0,0,0,0c-1.8,0-3.4,2.3-4.7,4.2&#10;&#9;&#9;c-0.3,0.5-0.6,0.9-0.9,1.3c-2.3,2.9-4.9,5.6-7.8,7.9c2.1,0.9,3.9,2.3,5.3,4.1c1.2,1.8,1.4,4,0.6,5.9c2.9-0.7,5.9-0.7,8.7,0.2&#10;&#9;&#9;c1.4,0.5,2.8,1.3,4,2.3c1.2,1,2.7,1.8,4.2,2.2l1.1,0.2c3.7,0.7,7.2,1.8,10.7,3.2c1.6-4.6,5.9-7.7,10.8-7.7c2.5-1.9,5.7-2.7,8.8-2.1&#10;&#9;&#9;c-0.2-2,0.3-4,1.5-5.7c1.1-1.5,2.4-2.9,3.8-4l-37.2-14c-2.2-0.8-4.6-1.5-6.4-1c0.3,0.2,0.4,0.7,0.2,1c-0.2,0.3-0.6,0.4-0.9,0.2&#10;&#9;&#9;l-1.2-0.6c-0.3-0.2-0.4-0.6-0.2-1c0.1-0.1,0.1-0.2,0.2-0.2c2.6-1.7,5.8-0.9,8.9,0.3l38.3,14.4c0.2,0.1,0.4,0.3,0.4,0.5&#10;&#9;&#9;c0,0.2,0,0.5-0.2,0.6c-1.7,1.3-3.2,2.8-4.5,4.5c-1.2,1.6-1.6,3.7-1.1,5.6c0.1,0.2,0,0.5-0.2,0.7c-0.2,0.2-0.5,0.3-0.7,0.2&#10;&#9;&#9;c-3.1-0.9-6.4-0.2-8.8,1.8c-0.1,0.1-0.3,0.2-0.5,0.2c-4.6-0.1-8.7,3-9.8,7.4c0,0.2-0.2,0.4-0.4,0.5&#10;&#9;&#9;C215.3,327.4,215.2,327.5,215.1,327.5z"/>
	<path class="st3_fast-food-1-79 targetColor" d="M269.6,305.7c-11,0.1-22.1,0-33.1,0.7c-4.1,0.3-5.2,2.5-6.9,6.2c-0.9,1.9-3.5,7.3-1.3,9.1c0.8,0.6,4,0,5.1,0.1&#10;&#9;&#9;c1.7,0.2,3.3,0.7,4.9,1.4c1.1,0.5,7.2,6,7.3,6c6.7-1,13.6-0.2,19.9,2.3c1.4-6.9,8.1-11.4,15-10c0.7,0.1,1.4,0.3,2,0.6&#10;&#9;&#9;c0.4-3.5,2.2-6.7,4.9-8.9c-4.4-0.8-7.2-5.3-11.4-6.8C273.9,305.8,271.7,305.5,269.6,305.7z" style="fill: rgb(104, 225, 253);"/>
	<path class="st1_fast-food-1-79" d="M265.4,332.2c-0.1,0-0.2,0-0.3,0c-6.2-2.5-12.9-3.3-19.6-2.3c-0.4,0.1-0.4,0.1-2.4-1.7c-1.7-1.6-3.5-3-5.3-4.4&#10;&#9;&#9;c-1.5-0.7-3.1-1.1-4.7-1.3c-0.5,0-1.1,0-1.6,0.1c-1.9,0.1-3.2,0.2-3.8-0.4c-2.5-2.1-0.2-7.2,1-9.6l0.1-0.3c1.8-3.9,3.1-6.3,7.5-6.6&#10;&#9;&#9;c9.3-0.6,18.8-0.7,28-0.7h5.2c2.2-0.1,4.4,0.1,6.5,0.8c1.9,0.8,3.7,2,5.3,3.4c1.9,1.6,3.8,3,6,3.4c0.3,0.1,0.5,0.3,0.5,0.5&#10;&#9;&#9;c0.1,0.3,0,0.5-0.2,0.7c-2.6,2.1-4.2,5.1-4.6,8.4c0,0.4-0.4,0.7-0.8,0.6c-0.1,0-0.1,0-0.2,0c-6.2-2.3-13.1,0.8-15.5,7&#10;&#9;&#9;c-0.2,0.6-0.4,1.2-0.5,1.9c0,0.2-0.2,0.4-0.4,0.5C265.7,332.2,265.6,332.2,265.4,332.2z M251.2,328.1c4.7,0,9.4,0.8,13.8,2.5&#10;&#9;&#9;c1.9-7.2,9.3-11.4,16.4-9.5c0.2,0,0.3,0.1,0.5,0.1c0.5-2.9,1.9-5.5,4-7.6c-2-0.8-3.8-2-5.3-3.4c-1.4-1.3-3.1-2.4-4.9-3.1&#10;&#9;&#9;c-2-0.6-4-0.8-6.1-0.7l0,0h-5.2c-9.2,0-18.6,0.1-27.9,0.7c-3.7,0.2-4.7,2.1-6.3,5.8l-0.2,0.3c-0.8,1.8-3,6.6-1.3,8&#10;&#9;&#9;c0.9,0.2,1.9,0.2,2.8,0c0.6-0.1,1.3-0.1,1.9,0c1.7,0.2,3.5,0.7,5.1,1.4c2,1.4,3.9,2.9,5.7,4.6l1.5,1.3&#10;&#9;&#9;C247.5,328.2,249.3,328.1,251.2,328.1L251.2,328.1z M269.6,305.7L269.6,305.7z"/>
	<path class="st3_fast-food-1-79 targetColor" d="M310.6,301c-5.4,2.2-10.6,3-14.9,6.9c-1.2,1.1-14.8,9.3-15.8,7.4c1,1.9,3.8,1.6,5.8,2.5&#10;&#9;&#9;c1.3,0.6,2.1,1.9,3.4,2.4c0.9,0.4,2,0,2.9,0.4s6.6,3.7,5.8,4.9c1.6-2.5,4.9-3.6,7.9-3.2c3,0.5,5.7,1.9,8,3.9&#10;&#9;&#9;c0.4-3.6,0.9-7.5,3.2-10.3c1.3-1.4,2.7-2.6,4.3-3.6l10.7-7.2c-3.8-2.8-4.7-8.2-1.9-12.1L310.6,301z" style="fill: rgb(104, 225, 253);"/>
	<path class="st1_fast-food-1-79" d="M313.7,327c-0.2,0-0.3-0.1-0.5-0.2c-2.1-1.9-4.8-3.3-7.6-3.8c-2.8-0.5-5.6,0.6-7.2,2.9l0,0&#10;&#9;&#9;c-0.2,0.3-0.6,0.4-1,0.2c0,0,0,0,0,0c-0.3-0.2-0.4-0.6-0.3-0.9c-0.3-0.9-4.4-3.6-5.4-3.9c-0.4-0.1-0.8-0.1-1.1-0.1&#10;&#9;&#9;c-0.6,0-1.2-0.1-1.8-0.2c-0.7-0.3-1.4-0.8-2-1.4c-0.4-0.4-0.9-0.8-1.5-1.1c-0.7-0.3-1.4-0.5-2.1-0.6c-1.5-0.3-3.1-0.7-4-2.2l0,0&#10;&#9;&#9;c-0.2-0.3-0.1-0.8,0.3-0.9c0,0,0,0,0,0c0.3-0.2,0.8-0.1,1,0.3c1.4,0.5,13-6,14.7-7.6c3.1-2.9,6.7-4.1,10.5-5.4c1.5-0.5,3-1,4.5-1.6&#10;&#9;&#9;l0.3,0.6l-0.3-0.6l19.5-8c0.3-0.1,0.6,0,0.8,0.2c0.2,0.2,0.2,0.6,0,0.9c-2.5,3.5-1.7,8.5,1.8,11c0.3,0.2,0.4,0.7,0.2,1&#10;&#9;&#9;c0,0.1-0.1,0.1-0.2,0.2l-10.7,7.3c-1.5,0.9-3,2.1-4.2,3.4c-2.2,2.8-2.7,6.8-3.1,10c0,0.3-0.2,0.5-0.4,0.6&#10;&#9;&#9;C313.9,327,313.8,327,313.7,327z M304.5,321.6c0.4,0,0.9,0,1.3,0.1c2.7,0.4,5.2,1.6,7.3,3.3c0.4-3.1,1-6.7,3.2-9.5&#10;&#9;&#9;c1.3-1.5,2.8-2.7,4.5-3.7l9.9-6.7c-1.6-1.4-2.6-3.4-2.9-5.5c-0.3-1.7-0.1-3.5,0.6-5.1l-17.6,7.2c-1.6,0.6-3.1,1.2-4.6,1.7&#10;&#9;&#9;c-3.6,1.2-7.1,2.4-10,5.1c-0.9,0.8-9.8,6.4-14.2,7.6c0.5,0.2,1,0.3,1.6,0.4c0.8,0.1,1.7,0.4,2.4,0.7c0.7,0.3,1.3,0.8,1.8,1.3&#10;&#9;&#9;c0.5,0.5,1,0.8,1.6,1.1c0.4,0.1,0.8,0.2,1.2,0.1c0.5,0,1.1,0.1,1.6,0.2c0.4,0.2,4.4,2.3,5.9,4.1&#10;&#9;&#9;C299.8,322.4,302.1,321.5,304.5,321.6L304.5,321.6z"/>
	<path class="st1_fast-food-1-79" d="M201.6,265.2c-8.1,2.8-17.6,10.8-17.4,19.9c0.1,2.2,0.2,4.5,1.3,6.5c0.3,0.5,0.6,1,0.5,1.6&#10;&#9;&#9;c-0.1,0.3-0.3,0.6-0.6,0.8c-5.4,5.4,1.3,13.9,6.4,17c5.9,3.6,13,4.8,19.9,5.3c22.1,1.6,44.6,3,66.8,2.2c11.9-0.4,24.4-2.6,35.1-7.9&#10;&#9;&#9;c5.1-2.5,9.9-5.9,13.2-10.5s5.4-11.8,2.1-17c-0.7-1.2-2.1-1.9-2.6-3.2s-0.2-2.5-0.1-3.8c0.7-8.1-8.8-14.6-15.6-16.5&#10;&#9;&#9;c-3.9-1-7.9-1.5-12-1.6c-11.6-0.6-23.2-1.3-34.7,0.1c-13.7,1.6-27,6.2-40.8,6.1C215.9,264.1,208.4,262.9,201.6,265.2z"/>
	<path class="st1_fast-food-1-79" d="M265,319.4c-18.1,0-36.2-1.2-53.4-2.4c-6-0.4-13.7-1.4-20.2-5.4c-3.8-2.3-8.2-7.3-8.7-11.9&#10;&#9;&#9;c-0.3-2.3,0.5-4.6,2.2-6.2c0.1-0.1,0.3-0.3,0.4-0.4c0.1-0.2-0.2-0.6-0.4-0.9l-0.1-0.1c-1.2-2-1.3-4.5-1.4-6.8&#10;&#9;&#9;c-0.2-9.3,9.1-17.5,17.9-20.6l0,0c5.2-1.8,10.9-1.6,16.4-1.3c1.8,0.1,3.7,0.2,5.5,0.2h0.2c8.3,0,16.6-1.7,24.7-3.3&#10;&#9;&#9;c5.2-1,10.5-2.1,15.8-2.8c11.6-1.4,23.4-0.7,34.8-0.1c4.1,0.1,8.1,0.6,12.1,1.6c7.1,2,16.8,8.7,16.1,17.3c0,0.3-0.1,0.6-0.1,0.9&#10;&#9;&#9;c-0.5,1.6,0,3.3,1.4,4.2c0.5,0.4,0.9,0.9,1.3,1.5c3.4,5.4,1.4,12.8-2.1,17.8c-3,4.2-7.4,7.8-13.5,10.8c-9.7,4.8-21.6,7.4-35.4,7.9&#10;&#9;&#9;C274,319.3,269.5,319.4,265,319.4z M201.8,265.9c-8.3,2.9-17,10.6-16.9,19.2c0.1,2.2,0.2,4.3,1.2,6.1c0.5,0.6,0.7,1.4,0.5,2.2&#10;&#9;&#9;c-0.1,0.4-0.4,0.8-0.7,1.1c-1.4,1.3-2,3.1-1.8,5c0.5,4.2,4.5,8.7,8,10.9c6.2,3.8,13.7,4.8,19.6,5.2c21.4,1.5,44.2,3,66.7,2.2&#10;&#9;&#9;c13.6-0.5,25.3-3.1,34.8-7.8c5.9-2.9,10.1-6.3,12.9-10.3c3.2-4.6,5.1-11.4,2.1-16.2c-0.3-0.4-0.7-0.9-1.1-1.2&#10;&#9;&#9;c-1.6-1.3-2.3-3.4-1.8-5.5c0-0.3,0.1-0.5,0.1-0.8c0.6-7.7-8.6-13.9-15.1-15.8c-3.9-0.9-7.8-1.5-11.8-1.5&#10;&#9;&#9;c-11.4-0.6-23.1-1.3-34.6,0.1c-5.3,0.6-10.6,1.7-15.7,2.8c-8.1,1.6-16.5,3.4-25,3.4h-0.2c-1.9,0-3.8-0.1-5.6-0.2&#10;&#9;&#9;C212.2,264.5,206.7,264.2,201.8,265.9L201.8,265.9z"/>
	<path class="st0_fast-food-1-79" d="M250.8,303.6c-21.3-0.1-42.4-2.9-63-8.1c-0.4-0.1-0.6-0.5-0.5-0.9c0,0,0,0,0,0c0.1-0.4,0.5-0.6,0.9-0.5&#10;&#9;&#9;c0.8,0.2,82.8,23.1,132.6-9.1c0.3-0.2,0.8-0.1,1,0.2c0.2,0.3,0.1,0.8-0.2,1C300.9,299.6,274.5,303.6,250.8,303.6z"/>
	<path class="st3_fast-food-1-79 targetColor" d="M205.1,281.2c0,0,0,21.7,2.3,24.5s7-0.2,7.2-4.2s-2.3-10.4,0-10s2.8,7.7,6.9,2.5s2.9-1.2,7.7-3.8&#10;&#9;&#9;s10.7-8.9,10.7-8.9S211.8,276.7,205.1,281.2z" style="fill: rgb(104, 225, 253);"/>
	<path class="st1_fast-food-1-79" d="M209.6,307.5c-1.1,0-2.1-0.5-2.8-1.3c-2.4-2.9-2.5-22.7-2.5-24.9c0-0.2,0.1-0.5,0.3-0.6&#10;&#9;&#9;c6.9-4.6,34.1-0.3,35.3-0.1c0.4,0.1,0.6,0.4,0.6,0.8c0,0.1-0.1,0.3-0.2,0.4c-0.2,0.3-6,6.4-10.8,9.1c-2.2,1.2-3.3,1.1-4.1,1.1&#10;&#9;&#9;s-1.2-0.1-3.4,2.6c-1.2,1.5-2.3,2.2-3.3,2.1c-1.3-0.1-2.1-1.4-2.8-2.6c-0.5-0.8-1-1.7-1.5-1.8c-0.3,0.3,0,2.5,0.3,4&#10;&#9;&#9;c0.4,1.8,0.6,3.6,0.6,5.4c-0.2,2.6-1.9,4.8-4.3,5.7C210.6,307.4,210.1,307.5,209.6,307.5z M205.8,281.6c0,8.3,0.6,21.8,2.2,23.6&#10;&#9;&#9;c0.6,0.8,1.7,1.1,2.6,0.7c1.9-0.7,3.2-2.4,3.3-4.4c0-1.7-0.2-3.4-0.5-5c-0.4-2.6-0.8-4.4,0.1-5.2c0.3-0.3,0.8-0.5,1.3-0.3&#10;&#9;&#9;c1.1,0.2,1.8,1.3,2.4,2.4c0.5,0.9,1.1,1.9,1.7,1.9c0.3,0,1-0.2,2.1-1.6c2.4-3,3.2-3.2,4.6-3.1c1.2,0.1,2.3-0.2,3.3-0.9&#10;&#9;&#9;c3.5-2,7.7-6,9.6-7.8C232.8,280.9,211.8,278.2,205.8,281.6z"/>
	<path class="st3_fast-food-1-79 targetColor" d="M313.5,262.1c-7.4-3.7-16.7-2.2-23.3,2.5s-10.2,9.3-10.2,17.8c0,3.5,0.6,9,3.9,10.9c1.5,0.8,3.4,0.1,4.8,1.5&#10;&#9;&#9;s0.7,2.5,1.5,4c0.8,1.3,2.8,0.4,3.8-0.7s2.4-2.5,3.8-1.8c0.5,0.3,0.9,0.9,1,1.5c0.6,1.9,0,4,0.1,6s1,4.4,3,4.7&#10;&#9;&#9;c1.7,0.3,3.3-1.2,3.9-2.8c0.5-1.7,0.7-3.4,0.7-5.1c0.4-4.3,2.4-8.5,6.1-10.8c0.8-0.4,1.5-0.9,2.2-1.5c2.1-2.5-0.5-6.4,0.5-9.4&#10;&#9;&#9;c0.6-1.2,1.4-2.4,2.4-3.4c1.9-2.5,2.3-5.8,1.1-8.7C317.5,264.8,315.7,263.1,313.5,262.1z" style="fill: rgb(104, 225, 253);"/>
	<path class="st1_fast-food-1-79" d="M302.3,309.3c-0.2,0-0.4,0-0.5,0c-2.4-0.4-3.5-3-3.6-5.4c0-0.7,0-1.4,0.1-2.1c0.2-1.2,0.1-2.5-0.1-3.7&#10;&#9;&#9;c-0.1-0.4-0.3-0.8-0.7-1.1c-0.9-0.5-2,0.6-2.9,1.6c-0.8,1-2.1,1.5-3.4,1.6c-0.6-0.1-1.2-0.4-1.5-1c-0.4-0.6-0.6-1.3-0.6-2&#10;&#9;&#9;c0-0.7-0.3-1.3-0.8-1.8c-0.7-0.5-1.5-0.8-2.3-0.8c-0.8,0-1.6-0.2-2.3-0.6c-4-2.2-4.3-8.8-4.3-11.5c0.1-9.1,4.1-13.8,10.5-18.4&#10;&#9;&#9;c7.3-5.2,16.8-6.3,24-2.6l0,0c2.4,1,4.3,2.9,5.5,5.1c1.3,3.1,0.9,6.7-1.2,9.4c-0.2,0.3-0.5,0.6-0.8,1c-0.6,0.7-1.1,1.4-1.5,2.2&#10;&#9;&#9;c-0.3,1.3-0.3,2.7,0.1,4c0.3,2,0.7,4-0.7,5.6c-0.5,0.6-1.2,1-1.9,1.4l-0.5,0.3c-3.2,2-5.4,5.8-5.8,10.2c0,0.4-0.1,0.8-0.1,1.3&#10;&#9;&#9;c0,1.4-0.2,2.7-0.6,4C305.8,307.9,304.2,309.1,302.3,309.3z M297,295.5c0.4,0,0.8,0.1,1.1,0.3c0.7,0.4,1.2,1.1,1.4,1.9&#10;&#9;&#9;c0.3,1.4,0.4,2.8,0.2,4.2c0,0.7-0.1,1.3-0.1,2c0,1.8,0.9,3.7,2.4,4c1.4,0.2,2.6-1,3.1-2.3c0.4-1.2,0.6-2.4,0.6-3.6&#10;&#9;&#9;c0-0.4,0-0.9,0.1-1.3c0.5-4.9,2.9-9.1,6.4-11.3l0.5-0.3c0.6-0.3,1.1-0.6,1.5-1.1c1-1.1,0.7-2.7,0.4-4.5c-0.4-1.5-0.4-3.1,0-4.7&#10;&#9;&#9;c0.4-1,1-1.9,1.7-2.7c0.2-0.3,0.5-0.6,0.7-0.9c1.7-2.3,2.1-5.3,1-8c-1.1-2-2.8-3.6-4.9-4.5l0,0c-6.7-3.4-15.8-2.4-22.6,2.5&#10;&#9;&#9;c-6.2,4.5-9.9,8.7-9.9,17.3c0,1.9,0.2,8.4,3.6,10.3c0.6,0.3,1.2,0.4,1.8,0.4c1.2,0,2.3,0.4,3.2,1.1c0.7,0.7,1.1,1.6,1.2,2.6&#10;&#9;&#9;c0,0.5,0.2,1.1,0.5,1.5c0.1,0.2,0.3,0.3,0.5,0.3c0.8-0.1,1.6-0.5,2.2-1.1C294.1,297,295.5,295.5,297,295.5z"/>
	<path class="st3_fast-food-1-79 targetColor" d="M220.4,259.6c0,0-30.1,15.8-32.3,20s1.9,3.7,3.6,3.5s54.5,4.4,75.1,22.7c0,0,44.8-35,51.9-38&#10;&#9;&#9;S222.4,260,220.4,259.6z" style="fill: rgb(104, 225, 253);"/>
	<path class="st1_fast-food-1-79" d="M266.7,306.5c-0.2,0-0.3-0.1-0.5-0.2c-20.3-18-71.9-22.8-74.6-22.5c-1.6,0.2-3.7,0.4-4.6-0.9&#10;&#9;&#9;c-0.6-0.9-0.5-2,0.4-3.6c2.3-4.3,29.5-18.7,32.6-20.3c0.1-0.1,0.3-0.1,0.4-0.1l0,0c0.5,0.1,6.4,0.4,13.9,0.8&#10;&#9;&#9;c71.6,4,84.9,5.7,85.2,7.6c0,0.3,0,0.8-0.8,1.1c-6.9,3-51.3,37.6-51.7,37.9C267,306.5,266.9,306.5,266.7,306.5z M191.8,282.4&#10;&#9;&#9;c4.9,0,54.4,4.9,74.9,22.5c4.8-3.8,42.3-32.9,50.8-37.4c-7.8-2.2-62.1-5.2-83.2-6.4c-8.5-0.5-12.7-0.7-13.8-0.8&#10;&#9;&#9;c-12,6.3-30.3,16.7-31.8,19.6c-0.5,1-0.7,1.8-0.4,2.1s0.9,0.7,3.3,0.3L191.8,282.4z M220.4,259.6L220.4,259.6z"/>
	<ellipse class="st3_fast-food-1-79 targetColor" cx="212.4" cy="267.3" rx="26.5" ry="14" style="fill: rgb(104, 225, 253);"/>
	<path class="st1_fast-food-1-79" d="M212.4,282c-15,0-27.2-6.6-27.2-14.7s12.2-14.7,27.2-14.7s27.2,6.6,27.2,14.7S227.5,282,212.4,282z&#10;&#9;&#9; M212.4,253.9c-14.2,0-25.8,6-25.8,13.3s11.6,13.3,25.8,13.3s25.8-6,25.8-13.3S226.7,254,212.4,253.9L212.4,253.9z"/>
	<ellipse class="st3_fast-food-1-79 targetColor" cx="299.3" cy="264.7" rx="26.5" ry="14" style="fill: rgb(104, 225, 253);"/>
	<path class="st1_fast-food-1-79" d="M299.3,279.5c-15,0-27.2-6.6-27.2-14.7s12.2-14.7,27.2-14.7s27.2,6.6,27.2,14.7S314.3,279.5,299.3,279.5z&#10;&#9;&#9; M299.3,251.4c-14.2,0-25.8,6-25.8,13.3s11.6,13.3,25.8,13.3s25.8-6,25.8-13.3S313.5,251.4,299.3,251.4z"/>
	<ellipse class="st3_fast-food-1-79 targetColor" cx="259.5" cy="274.5" rx="19.5" ry="11.1" style="fill: rgb(104, 225, 253);"/>
	<path class="st1_fast-food-1-79" d="M259.5,286.3c-11.2,0-20.2-5.3-20.2-11.8s9.1-11.8,20.2-11.8s20.2,5.3,20.2,11.8S270.6,286.3,259.5,286.3z&#10;&#9;&#9; M259.5,264.2c-10.4,0-18.8,4.6-18.8,10.4s8.4,10.4,18.8,10.4c10.4,0,18.8-4.6,18.8-10.4S269.9,264.2,259.5,264.2z"/>
	<ellipse class="st0_fast-food-1-79" cx="259.4" cy="270.3" rx="19.5" ry="11.1"/>
	<path class="st1_fast-food-1-79" d="M259.4,282c-11.2,0-20.2-5.3-20.2-11.8s9.1-11.8,20.2-11.8s20.2,5.3,20.2,11.8S270.5,282,259.4,282z&#10;&#9;&#9; M259.4,259.9c-10.4,0-18.8,4.6-18.8,10.4s8.4,10.4,18.8,10.4c10.4,0,18.8-4.6,18.8-10.3S269.8,259.9,259.4,259.9L259.4,259.9z"/>
	<ellipse class="st0_fast-food-1-79" cx="214.6" cy="262.2" rx="26.5" ry="14"/>
	<path class="st1_fast-food-1-79" d="M214.6,276.9c-15,0-27.2-6.6-27.2-14.7s12.2-14.7,27.2-14.7s27.2,6.6,27.2,14.7S229.6,276.9,214.6,276.9z&#10;&#9;&#9; M214.6,248.8c-14.2,0-25.8,6-25.8,13.3s11.6,13.3,25.8,13.3s25.8-6,25.8-13.3S228.8,248.8,214.6,248.8z"/>
	<ellipse class="st0_fast-food-1-79" cx="297" cy="259.6" rx="26.5" ry="14"/>
	<path class="st1_fast-food-1-79" d="M297,274.3c-15,0-27.2-6.6-27.2-14.7s12.2-14.7,27.2-14.7s27.2,6.6,27.2,14.7S312.1,274.3,297,274.3z&#10;&#9;&#9; M297,246.3c-14.2,0-25.8,6-25.8,13.3s11.6,13.3,25.8,13.3s25.8-6,25.8-13.3S311.3,246.3,297,246.3L297,246.3z"/>
	<path class="st0_fast-food-1-79" d="M325.7,249.9c0,17-31.6,20.9-70.6,20.9s-70.6-3.8-70.6-20.9s31.6-40.8,70.6-40.8S325.7,232.9,325.7,249.9z"/>
	<path class="st1_fast-food-1-79" d="M255.1,271.5c-49.3,0-71.3-6.6-71.3-21.6c0-8.7,8-19.2,21-27.4c14.4-9.1,32.3-14.1,50.3-14.1s35.9,5,50.3,14.1&#10;&#9;&#9;c13,8.2,21,18.7,21,27.4C326.4,264.9,304.4,271.5,255.1,271.5z M255.1,209.8c-39.9,0-69.9,24.3-69.9,40.1&#10;&#9;&#9;c0,17.9,37.3,20.2,69.9,20.2s69.9-2.3,69.9-20.2C325,234.2,295,209.8,255.1,209.8z"/>
	<path class="st2_fast-food-1-79" d="M228.5,249.9c-0.4,0-0.7-0.3-0.7-0.7c0-0.3,0.2-0.6,0.5-0.7l7-2.6c0.4-0.1,0.8,0.1,0.9,0.4&#10;&#9;&#9;c0.1,0.3-0.1,0.7-0.4,0.9l-7,2.6C228.6,249.9,228.6,249.9,228.5,249.9z"/>
	<path class="st2_fast-food-1-79" d="M255.1,243.9c-0.2,0-0.4-0.1-0.5-0.2l-7.4-7.2c-0.3-0.3-0.3-0.7,0-1c0,0,0,0,0,0c0.3-0.3,0.7-0.3,1,0l7.4,7.2&#10;&#9;&#9;c0.3,0.3,0.3,0.7,0,1C255.5,243.8,255.3,243.9,255.1,243.9z"/>
	<path class="st2_fast-food-1-79" d="M221.5,240.3c-0.1,0-0.2,0-0.2,0l-6.9-2.4c-0.4-0.1-0.5-0.6-0.4-0.9c0.1-0.3,0.5-0.5,0.8-0.4l6.9,2.4&#10;&#9;&#9;c0.4,0.1,0.6,0.5,0.4,0.9C222.1,240.2,221.8,240.4,221.5,240.3L221.5,240.3z"/>
	<path class="st0_fast-food-1-79" d="M251.4,260c-0.4,0-0.8-0.3-0.8-0.7c0-0.4,0.3-0.7,0.6-0.8l9.3-2c0.4-0.1,0.8,0.1,0.9,0.5&#10;&#9;&#9;c0.1,0.4-0.1,0.8-0.5,0.9c0,0-0.1,0-0.1,0l-9.3,2L251.4,260z"/>
	<path class="st2_fast-food-1-79" d="M278.9,240.7c-0.1,0-0.2,0-0.3,0l-9.6-4c-0.4-0.1-0.5-0.6-0.4-0.9c0.1-0.4,0.6-0.5,0.9-0.4l0,0l9.6,3.9&#10;&#9;&#9;c0.4,0.1,0.5,0.6,0.4,0.9c0,0,0,0,0,0C279.4,240.5,279.2,240.7,278.9,240.7z"/>
	<path class="st2_fast-food-1-79" d="M294.9,254h-15c-0.4,0-0.7-0.3-0.7-0.7c0-0.4,0.3-0.7,0.7-0.7h15c0.4,0,0.7,0.3,0.7,0.7&#10;&#9;&#9;C295.6,253.7,295.3,254,294.9,254z"/>
	<path class="st2_fast-food-1-79" d="M289.1,229.6c-0.1,0-0.1,0-0.2,0l-12.1-4c-0.4-0.1-0.6-0.5-0.4-0.9c0.1-0.4,0.5-0.6,0.9-0.4c0,0,0,0,0,0l12,4&#10;&#9;&#9;c0.4,0.1,0.6,0.5,0.5,0.9C289.6,229.4,289.3,229.6,289.1,229.6z"/>
	<path class="st2_fast-food-1-79" d="M239.8,223.7c-0.4,0-0.7-0.3-0.7-0.7c0-0.3,0.2-0.6,0.5-0.7l11.6-3.7c0.4-0.1,0.8,0.1,0.9,0.4&#10;&#9;&#9;c0.1,0.4-0.1,0.8-0.4,0.9c0,0,0,0,0,0l-11.6,3.7C239.9,223.7,239.9,223.7,239.8,223.7z"/>
	<path class="st2_fast-food-1-79" d="M209.8,254.1c-0.2,0-0.4-0.1-0.6-0.3l-4.7-6.7c-0.2-0.3-0.2-0.8,0.2-1c0,0,0,0,0,0c0.3-0.2,0.7-0.2,1,0.1&#10;&#9;&#9;c0,0,0,0,0,0l4.7,6.7c0.2,0.3,0.2,0.8-0.2,1c0,0,0,0,0,0C210.1,254,209.9,254.1,209.8,254.1z"/>
	<path class="st2_fast-food-1-79" d="M245.6,261.8c-0.4,0-0.7-0.3-0.8-0.6s0.3-0.7,0.6-0.8l0,0l13.7-1.9c0.4-0.1,0.7,0.2,0.8,0.6s-0.2,0.7-0.6,0.8&#10;&#9;&#9;L245.6,261.8L245.6,261.8z"/>
	<path class="st2_fast-food-1-79" d="M306,242.6h-0.2l-11-3.5c-0.4-0.1-0.6-0.5-0.5-0.8c0,0,0,0,0,0c0.1-0.4,0.5-0.6,0.9-0.5c0,0,0,0,0,0l11,3.5&#10;&#9;&#9;c0.4,0.1,0.6,0.5,0.5,0.8c0,0,0,0,0,0C306.6,242.4,306.3,242.6,306,242.6z"/>
	<path class="st2_fast-food-1-79" d="M235.4,233.9c-0.1,0-0.2,0-0.3-0.1c-1-0.5-6.3-3-7.3-4.6c-0.2-0.3-0.1-0.8,0.2-1c0.3-0.2,0.8-0.1,1,0.2&#10;&#9;&#9;c0,0,0,0,0,0c0.6,1,4.4,3,6.6,4c0.4,0.2,0.5,0.6,0.4,0.9C236,233.7,235.7,233.9,235.4,233.9L235.4,233.9z"/>
</g>
<g id="Pizza_Slice_fast-food-1-79">
	<path class="st0_fast-food-1-79" d="M166.8,288.6c0,0,36.1,28.6,44,33.2s54.5,32.9,54.5,32.9s-55.5,8.6-85.8,5.8s-89.7-2.7-102.1-10.2&#10;&#9;&#9;S85.4,320,97,311.9S128.1,280,166.8,288.6z"/>
	<path class="st1_fast-food-1-79" d="M193.3,361.8c-4.9,0-9.6-0.2-13.8-0.5c-9.1-0.8-20.9-1.4-33.4-2c-29.6-1.5-60.3-3-69-8.3&#10;&#9;&#9;c-2.6-1.4-4.2-4.2-4.2-7.1c-0.3-10.6,15.1-26.5,23.7-32.5c1.9-1.3,4-3,6.4-5c12.5-10.2,31.3-25.7,63.9-18.4c0.1,0,0.2,0.1,0.3,0.1&#10;&#9;&#9;c0.4,0.3,36.2,28.6,43.9,33.1s54.1,32.6,54.6,32.9c0.3,0.2,0.4,0.6,0.2,1c-0.1,0.2-0.3,0.3-0.5,0.3&#10;&#9;&#9;C265,355.5,223.9,361.8,193.3,361.8z M150.7,287.5c-22.4,0-36.7,11.7-46.8,20c-2.4,2-4.5,3.7-6.5,5.1c-9.8,6.8-23.4,22-23.1,31.3&#10;&#9;&#9;c0,2.5,1.3,4.8,3.5,6c8.5,5.1,40.3,6.7,68.4,8.1c12.5,0.6,24.2,1.2,33.4,2c26.7,2.4,73.7-4.1,83.7-5.5&#10;&#9;&#9;c-8.4-5.1-45.9-27.9-52.9-31.9c-7.7-4.5-41.3-31-44-33.1C161.3,288.1,156,287.5,150.7,287.5L150.7,287.5z"/>
	<path class="st0_fast-food-1-79" d="M82.6,345.9c0,0,7.5-15.3,15.6-24.2s28.6-25,40-29.4s28.6-3.6,28.6-3.6s5-5.3,0-10.8&#10;&#9;&#9;c-2.9-3.3-7.3-4.8-11.7-4.2c0,0-27-0.8-48.9,15.3S69,328,65.1,342.9S82.6,345.9,82.6,345.9z"/>
	<path class="st1_fast-food-1-79" d="M69.2,351.1c-1.3,0.1-2.6-0.3-3.6-1c-1.7-1.3-2.1-3.8-1.2-7.4c5.1-19.5,24.7-42.1,41.4-54.4&#10;&#9;&#9;c21.3-15.6,47.6-15.4,49.2-15.4c4.6-0.7,9.2,1,12.2,4.4c5.4,6,0,11.7,0,11.8c-0.1,0.2-0.3,0.2-0.5,0.2c-0.2,0-17.2-0.8-28.3,3.6&#10;&#9;&#9;c-11.7,4.5-32.2,20.9-39.7,29.3c-7.9,8.7-15.4,23.9-15.4,24c-0.1,0.1-0.2,0.2-0.3,0.3C81.9,347,74.5,351.1,69.2,351.1z&#10;&#9;&#9; M154.5,274.3c-3.9,0-28.1,0.6-47.9,15.1c-21.8,16-37.1,39.1-40.8,53.6c-0.8,3-0.6,4.9,0.7,5.9c3.1,2.4,12.2-1.7,15.6-3.6&#10;&#9;&#9;c0.9-1.8,8-15.8,15.6-24.1c7.7-8.5,28.4-25,40.3-29.6c10.6-4.2,26-3.8,28.6-3.7c2.5-2.8,2.4-7-0.2-9.6c-2.8-3.1-6.9-4.6-11-4h-0.2&#10;&#9;&#9;L154.5,274.3z M82.6,345.9L82.6,345.9z"/>
	<path class="st1_fast-food-1-79" d="M73.7,357.8c-0.8-0.3-14.7-8.3-6.9-17.5s15.3-1.4,15.8,5.6c0,0,57.2,3.6,60,5.8s1.7,9.2,6.7,6.1&#10;&#9;&#9;s2.5-5.8,6.7-6.4s39.4,0,41.4,1.1s2.2,8.6,6.1,4.7s5.3-7.5,8.3-5.3s6.7,0.8,9.4,0.3s44.1,2.5,44.1,2.5l-7.5,7.5&#10;&#9;&#9;C257.9,362.2,102,367.8,73.7,357.8z"/>
	<path class="st1_fast-food-1-79" d="M169.5,364.6c-40.5,0-82.4-1.3-96-6.1l0,0c-0.7-0.2-7.9-4.4-9.5-10.2c-0.8-2.9,0-5.8,2.2-8.5&#10;&#9;&#9;c4-4.8,7.7-4.9,10.1-4.1c3.5,1.1,6.4,5.1,7,9.4c10.9,0.7,57,3.8,59.8,6c1.1,1.1,1.9,2.5,2.2,4c0.4,1.3,0.9,2.5,1.5,2.7&#10;&#9;&#9;c0.5,0.2,1.2,0,2.1-0.6c1.5-0.8,2.7-2.1,3.3-3.7c0.5-1.6,2-2.7,3.6-2.8c3.6-0.5,39.6-0.1,41.9,1.2c0.9,0.5,1.4,1.7,1.9,3&#10;&#9;&#9;c0.5,1.1,1.1,2.6,1.7,2.7c0.4,0.1,0.9-0.2,1.6-0.9c1-1,1.8-1.9,2.5-2.8c2.1-2.5,4-4.6,6.8-2.6c2.3,1.7,5.1,1,7.5,0.5l1.4-0.3&#10;&#9;&#9;c2.8-0.5,40.1,2.2,44.3,2.5c0.4,0,0.7,0.4,0.7,0.8c0,0.2-0.1,0.3-0.2,0.5l-7.5,7.5c-0.1,0.1-0.3,0.2-0.5,0.2&#10;&#9;&#9;C254.6,363.1,212.9,364.6,169.5,364.6z M74,357.1c27.3,9.6,176,4.7,183.6,4.4l6.1-6.1c-16.6-1.2-40.4-2.8-42.3-2.4&#10;&#9;&#9;c-0.4,0.1-0.9,0.2-1.3,0.3c-2.6,0.6-5.8,1.4-8.7-0.7c-1.6-1.2-2.5-0.4-4.8,2.3c-0.8,0.9-1.6,1.9-2.6,2.9s-2,1.5-2.9,1.3&#10;&#9;&#9;c-1.4-0.3-2.1-2-2.8-3.6c-0.3-0.9-0.7-1.6-1.3-2.3c-2.1-1-36.8-1.6-40.9-1c-1.2,0-2.2,0.8-2.5,1.9c-0.8,1.9-2.1,3.4-3.9,4.4&#10;&#9;&#9;c-0.9,0.7-2.2,1-3.4,0.7c-1.4-0.5-1.9-2-2.4-3.6c-0.3-1.2-0.9-2.4-1.7-3.3c-2.1-1.5-37.7-4.3-59.6-5.7c-0.4,0-0.7-0.3-0.7-0.7&#10;&#9;&#9;c-0.3-4-2.9-7.8-6.1-8.8c-2.8-0.9-5.7,0.4-8.5,3.6c-1.8,1.8-2.6,4.5-2,7C66.6,352.9,73.2,356.8,74,357.1z"/>
	<ellipse class="st3_fast-food-1-79 targetColor" cx="126.8" cy="331.7" rx="17.3" ry="8.1" style="fill: rgb(104, 225, 253);"/>
	<ellipse class="st3_fast-food-1-79 targetColor" cx="159.7" cy="310.2" rx="15.6" ry="9.6" style="fill: rgb(104, 225, 253);"/>
	
		<ellipse transform="matrix(0.9867 -0.1623 0.1623 0.9867 -52.5744 31.2348)" class="st3_fast-food-1-79 targetColor" cx="164.9" cy="337.4" rx="15.4" ry="7.9" style="fill: rgb(104, 225, 253);"/>
	
		<ellipse transform="matrix(0.1893 -0.9819 0.9819 0.1893 -161.7718 470.8882)" class="st3_fast-food-1-79 targetColor" cx="204.3" cy="333.4" rx="9.8" ry="15.2" style="fill: rgb(104, 225, 253);"/>
	<path class="st2_fast-food-1-79" d="M130.8,306.7c-0.4,0-0.7-0.3-0.7-0.7c0-0.3,0.2-0.5,0.4-0.7l13.3-5.4c0.3-0.2,0.8-0.1,0.9,0.3&#10;&#9;&#9;c0.2,0.3,0.1,0.8-0.3,0.9c0,0-0.1,0-0.1,0.1l-13.3,5.4C130.9,306.7,130.9,306.7,130.8,306.7z"/>
	<path class="st2_fast-food-1-79" d="M177.4,324.7c-0.4,0-0.7-0.3-0.7-0.7c0-0.3,0.2-0.5,0.4-0.7l10.4-4.1c0.3-0.2,0.8,0,0.9,0.3&#10;&#9;&#9;c0.2,0.3,0,0.8-0.3,0.9c0,0-0.1,0-0.1,0l-10.4,4.1C177.6,324.6,177.5,324.7,177.4,324.7z"/>
	<path class="st2_fast-food-1-79" d="M233.7,347.5c-0.1,0-0.2,0-0.4-0.1l-8.8-5c-0.3-0.2-0.5-0.6-0.3-1c0.2-0.3,0.6-0.5,1-0.3l8.8,5&#10;&#9;&#9;c0.3,0.2,0.4,0.6,0.2,1C234.2,347.4,233.9,347.5,233.7,347.5L233.7,347.5z"/>
	<path class="st2_fast-food-1-79" d="M182.7,309.2c-0.2,0-0.4-0.1-0.5-0.2l-5.2-5.2c-0.3-0.3-0.3-0.7,0-1c0.3-0.3,0.7-0.3,1,0c0,0,0,0,0,0l5.2,5.2&#10;&#9;&#9;c0.3,0.3,0.3,0.7,0,1c0,0,0,0,0,0C183.1,309.1,182.9,309.2,182.7,309.2z"/>
	<path class="st2_fast-food-1-79" d="M148.4,322.6c-0.1,0-0.2,0-0.3-0.1l-8.1-3.8c-0.4-0.2-0.5-0.6-0.3-0.9c0,0,0,0,0,0c0.2-0.3,0.6-0.5,0.9-0.3&#10;&#9;&#9;c0,0,0,0,0,0l8.1,3.8c0.4,0.2,0.5,0.6,0.4,0.9C149,322.4,148.7,322.6,148.4,322.6L148.4,322.6z"/>
	<path class="st2_fast-food-1-79" d="M109.5,340.5H98.1c-0.4,0-0.7-0.3-0.7-0.7c0-0.4,0.3-0.7,0.7-0.7h11.3c0.4,0,0.7,0.3,0.7,0.7&#10;&#9;&#9;C110.2,340.2,109.9,340.5,109.5,340.5C109.5,340.5,109.5,340.5,109.5,340.5z"/>
	<path class="st2_fast-food-1-79" d="M109.5,320.7c-0.4,0-0.7-0.3-0.7-0.7c0-0.3,0.2-0.5,0.4-0.6l9.2-4.1c0.4-0.2,0.8,0,0.9,0.3c0,0,0,0,0,0&#10;&#9;&#9;c0.1,0.4,0,0.8-0.4,0.9l-9.2,4.1C109.7,320.7,109.6,320.7,109.5,320.7z"/>
	<path class="st2_fast-food-1-79" d="M145.6,345h-6.9c-0.4,0-0.7-0.3-0.7-0.7c0-0.4,0.3-0.7,0.7-0.7h6.9c0.4,0,0.7,0.3,0.7,0.7&#10;&#9;&#9;C146.3,344.7,146,345,145.6,345z"/>
	<path class="st2_fast-food-1-79" d="M192.9,345c-0.1,0-0.1,0-0.2,0l-10.2-2.5c-0.4-0.1-0.6-0.4-0.5-0.8c0,0,0,0,0,0c0.1-0.4,0.5-0.6,0.8-0.5&#10;&#9;&#9;l10.2,2.5c0.4,0.1,0.6,0.5,0.5,0.8C193.5,344.8,193.2,345,192.9,345L192.9,345z"/>
</g>
</svg>