<svg id="_0360_financial_analyst" data-name="0360_financial_analyst" xmlns="http://www.w3.org/2000/svg" viewBox="0 0 500 500" data-imageid="financial-analyst-14" imageName="Financial Analyst" class="illustrations_image" style="width: 166px;"><defs><style>.cls-1_financial-analyst-14{fill:#70cc40;}.cls-2_financial-analyst-14{fill:#093f68;}.cls-3_financial-analyst-14{fill:#ffbc0e;}.cls-4_financial-analyst-14{fill:#f56132;}.cls-5_financial-analyst-14{fill:#dfeaef;}.cls-6_financial-analyst-14{fill:#725858;}.cls-7_financial-analyst-14{fill:#68e1fd;}.cls-8_financial-analyst-14{fill:#fff;}.cls-9_financial-analyst-14{fill:#ffc9b0;}</style></defs><g id="chart_financial-analyst-14"><path class="cls-1_financial-analyst-14" d="M359.52,122.47h0a73.39,73.39,0,0,0,0,146.78h0a73.39,73.39,0,1,0,0-146.78Zm0,115.6h0a42.22,42.22,0,0,1,0-84.43h0a42.22,42.22,0,0,1,0,84.43Z"/><path class="cls-2_financial-analyst-14" d="M359.52,240.07h0a44.22,44.22,0,1,1,44.23-44.2A44.27,44.27,0,0,1,359.5,240.07Zm0-84.43a40.22,40.22,0,0,0,0,80.43h0a40.22,40.22,0,0,0,0-80.43Z"/><path class="cls-2_financial-analyst-14" d="M359.52,271.25a75.39,75.39,0,0,1,0-150.78h0a75.39,75.39,0,1,1,0,150.78Zm0-146.78a71.39,71.39,0,1,0,71.42,71.4,71.49,71.49,0,0,0-71.42-71.4Z"/><path class="cls-3_financial-analyst-14" d="M317.3,195.87a42.1,42.1,0,0,0,15.42,32.6l-20.84,23.21A73.38,73.38,0,0,1,359.5,122.47v31.17A42.23,42.23,0,0,0,317.3,195.87Z"/><path class="cls-2_financial-analyst-14" d="M311.88,253.52a1.82,1.82,0,0,1-1.2-.44A75.22,75.22,0,0,1,359.5,120.63h0a1.84,1.84,0,0,1,1.85,1.84v31.17a1.84,1.84,0,0,1-1.84,1.84,40.37,40.37,0,0,0-25.62,71.57,1.83,1.83,0,0,1,.2,2.65l-20.84,23.21A1.83,1.83,0,0,1,311.88,253.52Zm45.78-129.19A71.55,71.55,0,0,0,311.72,249.1l18.37-20.46a44.05,44.05,0,0,1,27.57-76.8Z"/><path class="cls-4_financial-analyst-14" d="M359.5,238.07v31.18a73,73,0,0,1-47.62-17.57l20.84-23.21A42,42,0,0,0,359.5,238.07Z"/><path class="cls-2_financial-analyst-14" d="M359.5,271.09a75.14,75.14,0,0,1-48.82-18,1.81,1.81,0,0,1-.64-1.28,1.87,1.87,0,0,1,.47-1.35l20.84-23.21a1.84,1.84,0,0,1,2.54-.19,40.41,40.41,0,0,0,25.61,9.18,1.84,1.84,0,0,1,1.85,1.84v31.18A1.84,1.84,0,0,1,359.5,271.09Zm-45-19.6a71.46,71.46,0,0,0,43.14,15.89V239.87A44,44,0,0,1,332.94,231Z"/><path class="cls-2_financial-analyst-14" d="M355.3,225v-4.61c-1.68-.46-3.32-.81-4.89-1.35a14.19,14.19,0,0,1-7.51-5.64,13.9,13.9,0,0,1-2.17-7.82h9c.42,3.36,2.05,5.76,5.52,6.68V200.05c-1.8-.53-3.61-1-5.39-1.59a12.5,12.5,0,0,1-5.24-3,10.35,10.35,0,0,1-2.92-5.68,14.58,14.58,0,0,1,.57-7.85,13.08,13.08,0,0,1,7.91-7.85,41.17,41.17,0,0,1,4.56-1.17l.55-.11v-6.12h8.43v.6c0,1.74,0,3.49,0,5.24,0,.43.13.57.55.65a17.7,17.7,0,0,1,7.86,3.68,12.69,12.69,0,0,1,4.47,7.83c.15.84.22,1.68.32,2.57h-9.17a6.38,6.38,0,0,0-4-5.81v11.42l1,.23a32.05,32.05,0,0,1,7.19,2.3,10.42,10.42,0,0,1,6.23,8.69,13.59,13.59,0,0,1-2.38,9.94,13.81,13.81,0,0,1-6.8,5.05c-1.69.58-3.45,1-5.27,1.47V225Zm8.47-23.22v10.63a7.59,7.59,0,0,0,3.72-1.65c2-1.6,2.66-5.6-.21-7.36A34.47,34.47,0,0,0,363.77,201.8Zm-8.5-10.88V180.65a27.64,27.64,0,0,0-3.22,1.64c-2.34,1.56-2.72,5.89.28,7.41C353.25,190.16,354.24,190.49,355.27,190.92Z"/></g><g id="text_financial-analyst-14"><path class="cls-5_financial-analyst-14" d="M308.25,268.2H282.49a1.84,1.84,0,0,1,0-3.68h25.76a1.84,1.84,0,0,1,0,3.68Z"/><path class="cls-5_financial-analyst-14" d="M308.25,278.42H282.49a1.85,1.85,0,0,1,0-3.69h25.76a1.85,1.85,0,0,1,0,3.69Z"/><path class="cls-5_financial-analyst-14" d="M298.32,288.63H282.49a1.84,1.84,0,0,1,0-3.68h15.83a1.84,1.84,0,1,1,0,3.68Z"/><path class="cls-5_financial-analyst-14" d="M442.49,259.26h-12a1.84,1.84,0,1,1,0-3.68h12a1.84,1.84,0,0,1,0,3.68Z"/><path class="cls-5_financial-analyst-14" d="M423.26,259.26H415a1.84,1.84,0,0,1,0-3.68h8.24a1.84,1.84,0,1,1,0,3.68Z"/><path class="cls-5_financial-analyst-14" d="M431.5,271.2H415a1.84,1.84,0,1,1,0-3.68H431.5a1.84,1.84,0,0,1,0,3.68Z"/><path class="cls-5_financial-analyst-14" d="M328.34,101.12h-11a1.84,1.84,0,0,1,0-3.68h11a1.84,1.84,0,1,1,0,3.68Z"/><path class="cls-5_financial-analyst-14" d="M308.25,101.12H295.41a1.84,1.84,0,0,1,0-3.68h12.84a1.84,1.84,0,0,1,0,3.68Z"/><path class="cls-5_financial-analyst-14" d="M328.34,111.49H295.41a1.84,1.84,0,0,1,0-3.68h32.93a1.84,1.84,0,1,1,0,3.68Z"/><path class="cls-5_financial-analyst-14" d="M311.88,121.86H295.41a1.84,1.84,0,0,1,0-3.68h16.47a1.84,1.84,0,1,1,0,3.68Z"/></g><g id="character_financial-analyst-14"><path class="cls-6_financial-analyst-14" d="M152.7,97.21s-33-.45-39.7,30c-6.37,29,2.9,225.79,2.9,225.79h142V137.3c0-40.49-39.63-54.1-70.58-52.53C169.44,85.68,152.7,97.21,152.7,97.21Z"/><path class="cls-2_financial-analyst-14" d="M257.94,354.89h-142a1.85,1.85,0,0,1-1.84-1.76c-.38-8-9.21-197.37-2.86-226.27,6.43-29.27,36.3-31.34,40.93-31.48,2.91-1.92,18.36-11.6,35.13-12.45,23-1.17,44.51,5.59,57.64,18.07,9.87,9.39,14.88,21.6,14.88,36.3V353A1.84,1.84,0,0,1,257.94,354.89ZM117.66,351.2H256.1V137.3c0-13.65-4.62-25-13.74-33.63C230,91.87,209.43,85.48,187.45,86.61c-17.17.87-33.54,12-33.7,12.12a1.92,1.92,0,0,1-1.07.32c-1.22,0-31.6,0-37.88,28.6C108.87,154.63,116.76,331.56,117.66,351.2Z"/><path class="cls-7_financial-analyst-14 targetColor" d="M315.73,347.67c-13.37,14.12-32.79,33.53-45.07,40.91-20,12-25.78-4.38-27.34-19.13v38.33H108.25V295.51a26.14,26.14,0,0,1,24.89-26.11c.41,0,.83,0,1.25,0H247.77a21.12,21.12,0,0,1,21.12,21.12v54.21l33.25-19C306.38,333.2,310.93,340.51,315.73,347.67Z" style="fill: rgb(104, 225, 253);"/><path class="cls-2_financial-analyst-14" d="M243.32,409.62H108.25a1.84,1.84,0,0,1-1.84-1.84V295.51a28,28,0,0,1,26.65-27.95c.47,0,.9,0,1.33,0H247.77a23,23,0,0,1,23,23v51l30.5-17.42a1.8,1.8,0,0,1,1.4-.18,1.85,1.85,0,0,1,1.12.87c4,7.16,8.58,14.52,13.51,21.86a1.84,1.84,0,0,1-.19,2.29c-13.92,14.71-33.11,33.8-45.46,41.23-7.6,4.55-14,5.59-19,3.08q-4.62-2.31-7.43-8.45v23A1.84,1.84,0,0,1,243.32,409.62Zm-133.23-3.68H241.48V369.45a1.84,1.84,0,0,1,3.67-.19c1.18,11.16,4.32,18.31,9.08,20.68,3.83,1.91,9,.92,15.48-2.94,11.71-7,30-25.15,43.67-39.53-4.3-6.47-8.3-12.93-11.93-19.27L269.8,346.28a1.82,1.82,0,0,1-1.83,0,1.84,1.84,0,0,1-.92-1.59V290.48a19.3,19.3,0,0,0-19.28-19.28H134.39c-.37,0-.75,0-1.11,0a24.28,24.28,0,0,0-23.19,24.27Z"/><polygon class="cls-2_financial-analyst-14" points="188.23 364.96 159.3 269.4 217.15 269.4 188.23 364.96"/><path class="cls-2_financial-analyst-14" d="M188.22,366.8h0a1.85,1.85,0,0,1-1.76-1.3l-28.92-95.57a1.86,1.86,0,0,1,.28-1.63,1.84,1.84,0,0,1,1.48-.74h57.85a1.84,1.84,0,0,1,1.48.74,1.86,1.86,0,0,1,.28,1.63L190,365.5A1.85,1.85,0,0,1,188.22,366.8Zm-26.44-95.56,26.44,87.37,26.45-87.37Z"/><path class="cls-7_financial-analyst-14 targetColor" d="M134.39,269.36c-.42,0-.84,0-1.25,0v0Z" style="fill: rgb(104, 225, 253);"/><path class="cls-2_financial-analyst-14" d="M133.2,271.24a1.88,1.88,0,0,1-1.3-.51,1.85,1.85,0,0,1-.6-1.33,1.88,1.88,0,0,1,1.84-1.88h1.25a1.84,1.84,0,1,1,0,3.68c-.37,0-.75,0-1.11,0Z"/><path class="cls-7_financial-analyst-14 targetColor" d="M138,298.1s-10.53,8.95-10.53,26.16A46.13,46.13,0,0,0,138,353" style="fill: rgb(104, 225, 253);"/><path class="cls-2_financial-analyst-14" d="M138,354.89a1.86,1.86,0,0,1-1.36-.6,47.67,47.67,0,0,1-11-30c0-17.86,10.72-27.17,11.18-27.56a1.84,1.84,0,1,1,2.39,2.8c-.15.13-9.89,8.72-9.89,24.76a44.63,44.63,0,0,0,10.06,27.55,1.85,1.85,0,0,1-1.37,3.08Z"/><path class="cls-7_financial-analyst-14 targetColor" d="M237.32,298.1s10.54,8.95,10.54,26.16A46.11,46.11,0,0,1,237.32,353" style="fill: rgb(104, 225, 253);"/><path class="cls-2_financial-analyst-14" d="M237.32,354.89a1.84,1.84,0,0,1-1.36-3.08,44.71,44.71,0,0,0,10-27.55c0-16.09-9.79-24.67-9.88-24.76a1.84,1.84,0,1,1,2.38-2.8c.46.39,11.19,9.7,11.19,27.56a47.65,47.65,0,0,1-11,30A1.86,1.86,0,0,1,237.32,354.89Z"/><polygon class="cls-8_financial-analyst-14" points="187.36 269.36 174.92 294.76 156.48 269.36 187.36 269.36"/><path class="cls-2_financial-analyst-14" d="M174.92,296.6a1.82,1.82,0,0,1-1.49-.76L155,270.44a1.84,1.84,0,0,1,1.49-2.92h30.88a1.85,1.85,0,0,1,1.56.87,1.82,1.82,0,0,1,.09,1.78l-12.44,25.4a1.82,1.82,0,0,1-1.5,1Zm-14.83-25.4,14.52,20,9.8-20Z"/><polygon class="cls-8_financial-analyst-14" points="219.41 269.36 200.91 294.68 200.63 295.24 188.54 269.36 219.41 269.36"/><path class="cls-2_financial-analyst-14" d="M200.63,297.08h0A1.86,1.86,0,0,1,199,296l-12.09-25.88a1.83,1.83,0,0,1,1.67-2.62h30.87a1.85,1.85,0,0,1,1.49,2.93L202.29,296A1.84,1.84,0,0,1,200.63,297.08Zm-9.2-25.88,9.5,20.33,14.86-20.33Z"/><path class="cls-9_financial-analyst-14" d="M177.32,257.42h21.82a0,0,0,0,1,0,0v13.14a8.68,8.68,0,0,1-8.68,8.68H186a8.68,8.68,0,0,1-8.68-8.68V257.42a0,0,0,0,1,0,0Z"/><path class="cls-2_financial-analyst-14" d="M189.87,281.08h-3.29A11.12,11.12,0,0,1,175.47,270V257.42a1.84,1.84,0,0,1,1.84-1.84h21.83a1.84,1.84,0,0,1,1.84,1.84V270A11.12,11.12,0,0,1,189.87,281.08Zm-10.71-21.82V270a7.43,7.43,0,0,0,7.42,7.43h3.29a7.43,7.43,0,0,0,7.42-7.43V259.26Z"/><ellipse class="cls-9_financial-analyst-14" cx="125.87" cy="200.74" rx="21.2" ry="18.27"/><path class="cls-2_financial-analyst-14" d="M125.87,220.85c-12.71,0-23.05-9-23.05-20.11s10.34-20.11,23.05-20.11,23,9,23,20.11S138.57,220.85,125.87,220.85Zm0-36.54c-10.68,0-19.36,7.37-19.36,16.43s8.68,16.42,19.36,16.42,19.36-7.36,19.36-16.42S136.54,184.31,125.87,184.31Z"/><ellipse class="cls-9_financial-analyst-14" cx="249.46" cy="200.74" rx="21.2" ry="18.27"/><path class="cls-2_financial-analyst-14" d="M249.46,220.85c-12.71,0-23-9-23-20.11s10.33-20.11,23-20.11,23,9,23,20.11S262.16,220.85,249.46,220.85Zm0-36.54c-10.68,0-19.36,7.37-19.36,16.43s8.68,16.42,19.36,16.42,19.36-7.36,19.36-16.42S260.13,184.31,249.46,184.31Z"/><path class="cls-9_financial-analyst-14" d="M213.77,130c-11.12-5.2-38.84-10.35-38.84-10.35-5.85,16.07-22.1,25.51-37.17,33.62-3.22,1.73-10.6,4-13.47,1.7v41.33a63.94,63.94,0,1,0,127.87,0V146.63C243.84,146.6,221,133.45,213.77,130Z"/><path class="cls-2_financial-analyst-14" d="M188.22,262.12a65.85,65.85,0,0,1-65.77-65.78V155a1.83,1.83,0,0,1,3-1.44c1.71,1.35,7.83.07,11.46-1.89,16-8.61,30.84-17.59,36.31-32.62a1.84,1.84,0,0,1,2.07-1.18c1.14.21,28.08,5.25,39.28,10.5h0c1.7.79,4.23,2.11,7.16,3.63,9.16,4.77,24.5,12.76,30.46,12.77a1.86,1.86,0,0,1,1.84,1.85v49.71A65.86,65.86,0,0,1,188.22,262.12ZM126.13,157.67v38.67a62.1,62.1,0,1,0,124.19,0v-48c-6.73-1-18.17-6.72-30.31-13-2.89-1.51-5.39-2.81-7-3.57h0c-9.31-4.36-31-8.77-36.9-9.92-6.29,15.35-21.3,24.44-37.45,33.14C136.08,156.3,130.33,158.33,126.13,157.67Z"/><circle class="cls-2_financial-analyst-14" cx="158.62" cy="187.04" r="5.92"/><circle class="cls-2_financial-analyst-14" cx="219.69" cy="187.04" r="5.92"/><path class="cls-2_financial-analyst-14" d="M187.92,208.78a36.53,36.53,0,0,1-5.77-.48,1.84,1.84,0,1,1,.64-3.62c.06,0,5.17.89,8.78.09.38-1.69-1.87-8.05-5-14a1.84,1.84,0,0,1,3.27-1.7c2.07,4,6.71,13.62,5,17.4a3.19,3.19,0,0,1-2.14,1.82A20.84,20.84,0,0,1,187.92,208.78Z"/><path class="cls-2_financial-analyst-14" d="M170.72,169.7h0l-28.23-.07a2.93,2.93,0,0,1,0-5.85h0l28.23.06a2.93,2.93,0,0,1,0,5.86Z"/><path class="cls-2_financial-analyst-14" d="M211,170.39a2.93,2.93,0,0,1-.15-5.85l28.2-1.45a2.93,2.93,0,0,1,.3,5.85l-28.2,1.44Z"/><path class="cls-2_financial-analyst-14" d="M170.72,219H202.6a0,0,0,0,1,0,0v12.43a13,13,0,0,1-13,13h-5.84a13,13,0,0,1-13-13V219a0,0,0,0,1,0,0Z"/><path class="cls-2_financial-analyst-14" d="M186.66,246.3a17.8,17.8,0,0,1-17.78-17.78V219a1.84,1.84,0,0,1,1.84-1.85H202.6a1.85,1.85,0,0,1,1.84,1.85v9.51A17.8,17.8,0,0,1,186.66,246.3Zm-14.1-25.45v7.67a14.1,14.1,0,0,0,28.2,0v-7.67Z"/><path class="cls-2_financial-analyst-14" d="M132.73,409.62a1.84,1.84,0,0,1-1.84-1.84V345.11a1.85,1.85,0,0,1,3.69,0v62.67A1.84,1.84,0,0,1,132.73,409.62Z"/><path class="cls-6_financial-analyst-14" d="M162.56,114.83s61.51,29.75,71.8,66.29c0,0,20.25-41.51,4.81-71.47"/><path class="cls-2_financial-analyst-14" d="M234.36,183h-.17a1.84,1.84,0,0,1-1.6-1.33c-10-35.32-70.23-64.83-70.83-65.13a1.84,1.84,0,1,1,1.6-3.31,245.25,245.25,0,0,1,32.32,19.6c20.24,14.59,33.3,29.1,38.89,43.22,4.54-11.25,15-42.25,3-65.51a1.84,1.84,0,1,1,3.27-1.68c6.52,12.63,7.74,29.3,3.55,48.21a122.34,122.34,0,0,1-8.34,24.9A1.82,1.82,0,0,1,234.36,183Z"/><path class="cls-9_financial-analyst-14" d="M302.14,325.69l9.72-6.61s6.22-19,10.71-23.84,9-5.19,7.95,0-3.8,13.34-3.8,13.34,22.81-21.9,26.26-17.1,3.11,10.67-1.72,21-35.53,35.15-35.53,35.15Z"/><path class="cls-2_financial-analyst-14" d="M315.73,349.51a1.63,1.63,0,0,1-.31,0,1.81,1.81,0,0,1-1.25-.84l-13.59-22a1.84,1.84,0,0,1,.53-2.49l9.19-6.25c1.13-3.36,6.62-19.29,10.92-23.92,3.37-3.64,6.93-5.13,9.27-3.94,1,.51,2.56,1.91,1.84,5.55-.42,2.1-1.11,4.63-1.79,6.95,6.43-5.72,16.67-14,21.32-13.58a3.52,3.52,0,0,1,2.62,1.43c3.93,5.46,3.48,12.1-1.56,22.9-5,10.63-34.77,34.78-36,35.8A1.83,1.83,0,0,1,315.73,349.51Zm-11.09-23.29,11.55,18.69c6.35-5.24,29.41-24.64,33.4-33.17,5.13-11,4.47-15.62,1.9-19.18-2.13-.68-13.15,7.41-23.5,17.35a1.84,1.84,0,0,1-3-1.92c0-.08,2.74-8.11,3.74-13.11a2.69,2.69,0,0,0,0-1.62c-.3-.07-2.25.46-4.82,3.23-3.46,3.73-8.62,18-10.31,23.17a1.88,1.88,0,0,1-.72.95Z"/><path class="cls-2_financial-analyst-14" d="M326.72,333.37a1.82,1.82,0,0,1-1.43-.68,1.84,1.84,0,0,1,.27-2.59c8.74-7.11,0-19.93-.36-20.47a1.84,1.84,0,0,1,3-2.1c3.86,5.55,8.76,18-.35,25.42A1.82,1.82,0,0,1,326.72,333.37Z"/><rect class="cls-8_financial-analyst-14" x="68.1" y="298.99" width="93.22" height="108.11" rx="9.84" transform="translate(-92.76 45.22) rotate(-15.98)"/><path class="cls-2_financial-analyst-14" d="M92,417.2a12.38,12.38,0,0,1-11.86-8.95l-24-83.73a12.36,12.36,0,0,1,8.48-15.27L134,289.37a12.35,12.35,0,0,1,15.28,8.47l24,83.72a12.36,12.36,0,0,1-8.47,15.28h0L95.39,416.72A12.43,12.43,0,0,1,92,417.2Zm45.47-124.63a8.59,8.59,0,0,0-2.4.34L65.63,312.79a8.68,8.68,0,0,0-5.95,10.72l24,83.72a8.68,8.68,0,0,0,10.72,5.95L163.8,393.3a8.68,8.68,0,0,0,5.94-10.72l-24-83.72a8.67,8.67,0,0,0-8.32-6.29Zm26.85,102.5h0Z"/><rect class="cls-9_financial-analyst-14" x="57.68" y="367.23" width="29.03" height="8.08" rx="2.19" transform="translate(-181.39 90.64) rotate(-31.1)"/><path class="cls-2_financial-analyst-14" d="M63.23,382.56a5.88,5.88,0,0,1-3-10.91l17.95-10.82A5.88,5.88,0,1,1,84.2,370.9h0L66.26,381.72A5.85,5.85,0,0,1,63.23,382.56Zm17.93-18.9A2.2,2.2,0,0,0,80,364L62.09,374.8a2.2,2.2,0,1,0,2.27,3.77L82.3,367.75a2.21,2.21,0,0,0-1.14-4.09Zm2.09,5.66h0Z"/><rect class="cls-9_financial-analyst-14" x="61.85" y="374.15" width="29.03" height="8.08" rx="2.19" transform="translate(-184.36 93.79) rotate(-31.1)"/><path class="cls-2_financial-analyst-14" d="M67.41,389.48a5.88,5.88,0,0,1-3-10.91L82.3,367.75a5.88,5.88,0,1,1,6.07,10.07L70.44,388.64A5.88,5.88,0,0,1,67.41,389.48Zm17.92-18.9a2.2,2.2,0,0,0-1.13.32L66.26,381.72a2.18,2.18,0,0,0-1,1.35,2.22,2.22,0,0,0,.25,1.67,2.2,2.2,0,0,0,3,.74l17.94-10.82h0a2.14,2.14,0,0,0,1-1.35,2.19,2.19,0,0,0-.25-1.66,2.13,2.13,0,0,0-1.36-1A1.88,1.88,0,0,0,85.33,370.58Z"/><rect class="cls-9_financial-analyst-14" x="66.02" y="381.07" width="29.03" height="8.08" rx="2.19" transform="translate(-187.34 96.94) rotate(-31.1)"/><path class="cls-2_financial-analyst-14" d="M71.58,396.4a5.88,5.88,0,0,1-3-10.92l17.94-10.82a5.91,5.91,0,0,1,8.08,2,5.9,5.9,0,0,1-2,8.08L74.61,395.56A5.88,5.88,0,0,1,71.58,396.4ZM89.5,377.5a2.16,2.16,0,0,0-1.13.32L70.44,388.64a2.2,2.2,0,1,0,2.27,3.76l17.93-10.82h0a2.14,2.14,0,0,0,1-1.35,2.11,2.11,0,0,0-.25-1.66A2.19,2.19,0,0,0,89.5,377.5Z"/><rect class="cls-9_financial-analyst-14" x="70.2" y="387.99" width="29.03" height="8.08" rx="2.19" transform="translate(-190.31 100.09) rotate(-31.1)"/><path class="cls-2_financial-analyst-14" d="M75.76,403.32a5.77,5.77,0,0,1-1.43-.17,5.88,5.88,0,0,1-1.62-10.75l17.93-10.82a5.89,5.89,0,0,1,6.08,10.08L78.78,402.48A5.84,5.84,0,0,1,75.76,403.32Zm17.92-18.9a2.11,2.11,0,0,0-1.13.32L74.61,395.56a2.14,2.14,0,0,0-1,1.35,2.22,2.22,0,0,0,.25,1.67,2.26,2.26,0,0,0,1.36,1,2.2,2.2,0,0,0,1.66-.26L94.82,388.5h0a2.18,2.18,0,0,0,1-1.35,2.19,2.19,0,0,0-2.14-2.73Z"/><circle class="cls-2_financial-analyst-14" cx="105.19" cy="318.26" r="3.94"/><path class="cls-2_financial-analyst-14" d="M243.32,371.29a1.84,1.84,0,0,1-1.84-1.84v-25.8a1.84,1.84,0,0,1,3.68,0v25.8A1.84,1.84,0,0,1,243.32,371.29Z"/><path class="cls-2_financial-analyst-14" d="M441.37,409.62H225.61a1.84,1.84,0,1,1,0-3.68H441.37a1.84,1.84,0,0,1,0,3.68Z"/></g><g id="graph_financial-analyst-14"><rect class="cls-8_financial-analyst-14" x="318.65" y="377.53" width="23.68" height="30.25"/><path class="cls-2_financial-analyst-14" d="M342.33,409.62H318.65a1.84,1.84,0,0,1-1.85-1.84V377.53a1.84,1.84,0,0,1,1.85-1.84h23.68a1.84,1.84,0,0,1,1.84,1.84v30.25A1.84,1.84,0,0,1,342.33,409.62Zm-21.84-3.68h20V379.37h-20Z"/><rect class="cls-8_financial-analyst-14" x="357.05" y="354.64" width="23.68" height="53.14"/><path class="cls-2_financial-analyst-14" d="M380.73,409.62H357.05a1.84,1.84,0,0,1-1.84-1.84V354.64a1.84,1.84,0,0,1,1.84-1.84h23.68a1.84,1.84,0,0,1,1.84,1.84v53.14A1.84,1.84,0,0,1,380.73,409.62Zm-21.84-3.68h20V356.48h-20Z"/><rect class="cls-8_financial-analyst-14" x="395.46" y="325.57" width="23.68" height="82.21"/><path class="cls-2_financial-analyst-14" d="M419.14,409.62H395.46a1.84,1.84,0,0,1-1.85-1.84V325.57a1.85,1.85,0,0,1,1.85-1.84h23.68a1.84,1.84,0,0,1,1.84,1.84v82.21A1.84,1.84,0,0,1,419.14,409.62Zm-21.84-3.68h20V327.42h-20Z"/><path class="cls-5_financial-analyst-14" d="M320.49,370.49a1.84,1.84,0,0,1-1.16-3.27l88.3-72.2a1.84,1.84,0,0,1,2.33,2.85l-88.3,72.2A1.87,1.87,0,0,1,320.49,370.49Z"/><path class="cls-5_financial-analyst-14" d="M408.79,309.06a1.67,1.67,0,0,1-.44-.06,1.84,1.84,0,0,1-1.35-2.23l2.61-10.45H397.45a1.85,1.85,0,0,1,0-3.69H412a1.84,1.84,0,0,1,1.45.71,1.87,1.87,0,0,1,.34,1.58l-3.18,12.74A1.84,1.84,0,0,1,408.79,309.06Z"/></g></svg>