<svg id="_0027_fitness_app" xmlns="http://www.w3.org/2000/svg" viewBox="0 0 500 500" data-imageid="fitness-app-80" imageName="Fitness App" class="illustrations_image" style="width: 166px;"><defs><style>.cls-1_fitness-app-80,.cls-2_fitness-app-80{fill:#fff;}.cls-3_fitness-app-80{fill:#f4a28c;}.cls-4_fitness-app-80{fill:#a5a5a5;}.cls-5_fitness-app-80{opacity:.03;}.cls-5_fitness-app-80,.cls-6_fitness-app-80,.cls-7_fitness-app-80{fill:#000001;}.cls-8_fitness-app-80{fill:#e6e6e6;}.cls-6_fitness-app-80{opacity:.12;}.cls-9_fitness-app-80{fill:#ce8172;opacity:.31;}.cls-10_fitness-app-80{opacity:.58;}.cls-10_fitness-app-80,.cls-11_fitness-app-80,.cls-12_fitness-app-80{fill:#68e1fd;}.cls-2_fitness-app-80{opacity:.53;}.cls-13_fitness-app-80{fill:#24285b;}.cls-7_fitness-app-80{opacity:.08;}.cls-11_fitness-app-80{opacity:.73;}.cls-14_fitness-app-80{fill:#ffd200;}</style></defs><ellipse id="sd_fitness-app-80" class="cls-5_fitness-app-80" cx="280.51" cy="418.66" rx="188.17" ry="37.32"/><g id="plant_fitness-app-80"><path class="cls-10_fitness-app-80 targetColor" d="m416.22,390.22s-18.26-4.9-22.29-21.86c0,0,28.23-5.83,29.16,23.33l-6.86-1.47Z" style="fill: rgb(104, 225, 253);"/><path class="cls-11_fitness-app-80 targetColor" d="m418.45,388.4s-12.82-20.09-1.69-38.97c0,0,21.54,13.55,12.1,38.97h-10.41Z" style="fill: rgb(104, 225, 253);"/><path class="cls-12_fitness-app-80 targetColor" d="m421.73,388.4s6.64-21.3,26.97-25.41c0,0,3.87,13.8-13.07,25.41h-13.9Z" style="fill: rgb(104, 225, 253);"/><polygon class="cls-13_fitness-app-80" points="408.51 387.98 412.31 413.25 435.59 413.25 438.92 387.98 408.51 387.98"/></g><g id="phone_fitness-app-80"><rect class="cls-8_fitness-app-80" x="184.1" y="44.02" width="205.53" height="368.61"/><rect class="cls-1_fitness-app-80" x="201.1" y="86.04" width="170.12" height="259.42"/><circle class="cls-4_fitness-app-80" cx="287.48" cy="378.67" r="20.11"/><rect class="cls-6_fitness-app-80" x="269.47" y="58.42" width="57.63" height="8.4"/><circle class="cls-1_fitness-app-80" cx="248.6" cy="63.54" r="9.38"/><path class="cls-7_fitness-app-80" d="m252.25,253.24s17.05,16.19,10.62,34.2c-6.42,18.01-50.91,45.08-51.78,125.19h-26.99v-158.41h0c8.34-11.93,23.63-16.82,37.35-11.94l30.8,10.96Z"/><rect class="cls-8_fitness-app-80" x="239.22" y="196.52" width="99.47" height="26.09"/><rect class="cls-8_fitness-app-80" x="239.22" y="234.02" width="99.47" height="26.09"/><circle class="cls-4_fitness-app-80" cx="259.39" cy="247.06" r="4.35"/><circle class="cls-4_fitness-app-80" cx="274.52" cy="247.06" r="4.35"/><circle class="cls-4_fitness-app-80" cx="289.1" cy="247.06" r="4.35"/><circle class="cls-4_fitness-app-80" cx="303.96" cy="247.06" r="4.35"/><circle class="cls-4_fitness-app-80" cx="318.52" cy="247.06" r="4.35"/><rect class="cls-14_fitness-app-80" x="259.45" y="288.94" width="52.52" height="27.84" rx="13.92" ry="13.92"/><rect class="cls-12_fitness-app-80 targetColor" x="256.39" y="150.32" width="53.08" height="7.11" transform="translate(-1.63 3.04) rotate(-.61)" style="fill: rgb(104, 225, 253);"/><rect class="cls-13_fitness-app-80" x="234.44" y="134.16" width="29.83" height="39.43" rx="5.7" ry="5.7" transform="translate(-1.63 2.68) rotate(-.61)"/><rect class="cls-13_fitness-app-80" x="309.46" y="133.36" width="29.83" height="39.43" rx="5.7" ry="5.7" transform="translate(-1.62 3.48) rotate(-.61)"/></g><g id="person_fitness-app-80"><rect class="cls-14_fitness-app-80" x="44.73" y="126.29" width="53.08" height="7.11" transform="translate(66.72 -18.21) rotate(27)"/><rect class="cls-2_fitness-app-80" x="44.73" y="126.29" width="53.08" height="7.11" transform="translate(66.72 -18.21) rotate(27)"/><rect class="cls-14_fitness-app-80" x="26.61" y="94.56" width="29.83" height="39.43" rx="10.86" ry="10.86" transform="translate(56.41 -6.4) rotate(27)"/><rect class="cls-14_fitness-app-80" x="93.45" y="128.62" width="29.83" height="39.43" rx="10.86" ry="10.86" transform="translate(79.16 -33.03) rotate(27)"/><path class="cls-3_fitness-app-80" d="m136.56,191.07s-56.73-.85-82.54,22.56l18.01-69.99s15.01-.85,17.41-9.85c2.4-9-9.3-16.22-15.31-12.58-7.35,4.46-12.91,8.51-20.11,22.25-7.2,13.74-100.25,141,47.42,102.58l35.12-54.98Z"/><path class="cls-12_fitness-app-80 targetColor" d="m175.2,409.66s-2.59,7.6-9.4,8.29c-6.81.69-8.49,7.4-2.32,9.03,6.17,1.63,21.85-6.53,21.85-6.53l-.68-10.84-9.46.04Z" style="fill: rgb(104, 225, 253);"/><path class="cls-12_fitness-app-80 targetColor" d="m135.23,401.16s2.18,7.73-3.03,12.16c-5.22,4.44-2.79,10.91,3.21,8.75,6-2.15,14.29-17.77,14.29-17.77l-6.71-8.54-7.77,5.4Z" style="fill: rgb(104, 225, 253);"/><path class="cls-7_fitness-app-80" d="m105.12,204.11s-16.58,2.62-21.08,15.53c-4.5,12.91-10.23,34.91-52.69,28.86,0,0,14.68,11.6,65.61-1.31l8.16-43.07Z"/><path class="cls-3_fitness-app-80" d="m147.28,148.55s-4.41,9.28-5.18,16.25c-.31,2.83,1.77,5.42,4.6,5.69,3.52.34,8.38-.23,11.34-4.91l6.01-7.33s3.61-4.72-.36-10.65c-3.97-5.93-14.01-4.83-16.42.96Z"/><polygon class="cls-3_fitness-app-80" points="163.07 162.13 163.07 192.23 145.18 191.07 153.52 165.28 163.07 162.13"/><path class="cls-3_fitness-app-80" d="m154.43,160.6s1.45-3.68,4.13-2.35c2.68,1.32.61,6.65-3.36,5.74l-.77-3.39Z"/><path class="cls-3_fitness-app-80" d="m144.8,154.53l-4.06,2.71c-1,.67-.97,2.15.06,2.78l3.42,2.07.58-7.55Z"/><path class="cls-9_fitness-app-80" d="m152.18,169.43s3.53-1.26,5.83-3.31c0,0,.33,10.48-8.7,12.18l2.87-8.88Z"/><path class="cls-3_fitness-app-80" d="m153.41,161.76s5.24-6.42,7.83-2.02c2.58,4.4-5.19,9.93-7.83,2.02Z"/><path class="cls-12_fitness-app-80 targetColor" d="m136.56,191.07h36.22s43.19-.34,43.19,30.27-23.29,95.44-23.29,95.44h-64.83s-78.64-116.38,8.7-125.72Z" style="fill: rgb(104, 225, 253);"/><polygon class="cls-12_fitness-app-80 targetColor" points="146.99 149.18 165.55 160.26 168.37 154.72 149.91 143.01 146.99 149.18" style="fill: rgb(104, 225, 253);"/><path class="cls-13_fitness-app-80" d="m149.91,143.01s-3.9-4.8,0-7.65,6.9,1.5,8.85-.75c1.95-2.25,5.55-5.55,8.55-1.05s-1.05,7.8,4.65,8.55c5.7.75,6.45,2.1,5.55,5.55s-3.3,1.95-4.35,5.85-4.8,1.21-4.8,1.21l-18.46-11.72Z"/><path class="cls-7_fitness-app-80" d="m183.02,212.68s-14.35,23.16-9.77,53.32c4.58,30.16-18.82,50.78-18.82,50.78h38.26s16.9-51.27,18.36-61.75c1.45-10.49-28.02-42.35-28.02-42.35Z"/><path class="cls-13_fitness-app-80" d="m159.65,156.74s-2.59,9.38,3.37,10.58l2.54-7.05-5.91-3.53Z"/><path class="cls-3_fitness-app-80" d="m203.97,197.5c18.35,6.88,49.11,22.9,57.91,54.96,3.09,11.25-1.22,23.25-10.7,30.05l-47.77,34.28s.29,7.17-1.8,11.81c-1.75,3.88-7.63,2.41-7.54-1.84l.18-7.95c.1-4.26,1.41-8.4,3.77-11.93l30.22-45.21s-53.96-13.21-44.43-53.45c2.11-8.92,11.57-13.93,20.15-10.71Z"/><path class="cls-3_fitness-app-80" d="m127.85,334.44l-8.4,14.29c-7.93,13.48-5.83,30.61,5.11,41.78l9.37,9.57,7.2-6.03-7.9-13.78c-3.85-6.72-3.63-15.03.57-21.53l14.09-21.79-20.03-2.51Z"/><polygon class="cls-3_fitness-app-80" points="169.57 346.89 175.2 409.66 184.66 409.62 188.48 342.39 169.57 346.89"/><polygon class="cls-13_fitness-app-80" points="127.85 316.79 111.65 350.33 144.8 357.11 160.27 333.09 192.68 316.79 127.85 316.79"/><polygon class="cls-13_fitness-app-80" points="192.68 316.79 192.97 360.59 157.84 363.37 154.12 330.85 127.85 316.79 192.68 316.79"/><path class="cls-3_fitness-app-80" d="m62.51,207.37s8.92-3.94,11.92-12.65c3-8.7,14.11-19.21,25.81-13.51s7.5,12.17,21.91,11.01l-36.02,15.14h-23.62Z"/><polygon class="cls-12_fitness-app-80 targetColor" points="59.2 131.31 72.03 143.64 67.55 161.03 48.4 149.61 59.2 131.31" style="fill: rgb(104, 225, 253);"/><polygon class="cls-1_fitness-app-80" points="174.18 398.25 185.33 398.25 184.66 409.62 175.2 409.66 174.18 398.25"/><polygon class="cls-1_fitness-app-80" points="128.02 394.05 135.23 401.16 143 395.76 136.81 386.51 128.02 394.05"/></g></svg>