<svg version="1.1" id="Layer_1" xmlns="http://www.w3.org/2000/svg" xmlns:xlink="http://www.w3.org/1999/xlink" x="0px" y="0px" viewBox="0 0 500 500" style="width: 166px;" xml:space="preserve" data-imageid="fitness-1-6" imageName="Fitness 1" class="illustrations_image">
<style type="text/css">
	.st0_fitness-1-6{fill:#093F68;}
	.st1_fitness-1-6{fill:#FFC9B0;}
	.st2_fitness-1-6{fill:#725858;}
	.st3_fitness-1-6{fill:#68E1FD;}
	.st4_fitness-1-6{fill:#F56132;}
</style>
<g id="bench_fitness-1-6">
	<path class="st0_fitness-1-6" d="M87.1,325.4h264.4c10.9,0,19.7,8.8,19.7,19.7v0l0,0c0,7.5-6.1,13.6-13.6,13.6l0,0H81&#10;&#9;&#9;c-7.5,0-13.6-6.1-13.6-13.6l0,0l0,0C67.4,334.3,76.2,325.4,87.1,325.4C87.1,325.4,87.1,325.4,87.1,325.4L87.1,325.4z"/>
	<path class="st0_fitness-1-6" d="M361.6,360.6H77c-6.3,0-11.5-5.1-11.5-11.5v-2.8c0-12.5,10.2-22.7,22.7-22.7h262.1c12.5,0,22.7,10.2,22.7,22.7&#10;&#9;&#9;v2.8C373.1,355.5,367.9,360.6,361.6,360.6z M88.2,327.3c-10.5,0-19,8.5-19,19l0,0v2.8c0,4.3,3.5,7.8,7.8,7.8c0,0,0,0,0,0h284.6&#10;&#9;&#9;c4.3,0,7.8-3.5,7.8-7.8v-2.8c0-10.5-8.5-19-19-19L88.2,327.3z"/>
	<rect x="101.9" y="358.8" class="st0_fitness-1-6" width="18.2" height="58.1"/>
	<path class="st0_fitness-1-6" d="M120.1,418.7h-18.2c-1,0-1.8-0.8-1.8-1.8v-58.1c0-1,0.8-1.8,1.8-1.8h18.2c1,0,1.8,0.8,1.8,1.8v58.1&#10;&#9;&#9;C121.9,417.8,121.1,418.7,120.1,418.7z M103.8,415h14.5v-54.4h-14.5V415z"/>
	<path class="st0_fitness-1-6" d="M92.8,416.8h34c1.5,0,2.7,1.2,2.7,2.7v4.6c0,1.5-1.2,2.7-2.7,2.7h-34c-1.5,0-2.7-1.2-2.7-2.7v-4.6&#10;&#9;&#9;C90.1,418,91.3,416.8,92.8,416.8z"/>
	<path class="st0_fitness-1-6" d="M124.5,428.7H95.1c-3.8,0-6.8-3.1-6.8-6.8c0-3.8,3.1-6.8,6.8-6.8h29.4c3.8,0,6.8,3.1,6.8,6.8&#10;&#9;&#9;S128.3,428.7,124.5,428.7C124.5,428.7,124.5,428.7,124.5,428.7z M95.1,418.7c-1.7,0.1-3.1,1.6-3,3.3c0.1,1.6,1.4,2.9,3,3h29.4&#10;&#9;&#9;c1.7,0.1,3.2-1.2,3.3-3c0.1-1.7-1.2-3.2-3-3.3c-0.1,0-0.2,0-0.4,0H95.1z"/>
	<rect x="313.4" y="358.8" class="st0_fitness-1-6" width="18.2" height="58.1"/>
	<path class="st0_fitness-1-6" d="M331.6,418.7h-18.2c-1,0-1.8-0.8-1.8-1.8v-58.1c0-1,0.8-1.8,1.8-1.8h18.2c1,0,1.8,0.8,1.8,1.8v58.1&#10;&#9;&#9;C333.4,417.8,332.6,418.7,331.6,418.7z M315.3,415h14.5v-54.4h-14.5V415z"/>
	<path class="st0_fitness-1-6" d="M304.3,416.8h34c1.5,0,2.7,1.2,2.7,2.7v4.6c0,1.5-1.2,2.7-2.7,2.7h-34c-1.5,0-2.7-1.2-2.7-2.7v-4.6&#10;&#9;&#9;C301.6,418,302.8,416.8,304.3,416.8z"/>
	<path class="st0_fitness-1-6" d="M336,428.7h-29.4c-3.8,0-6.8-3.1-6.8-6.8c0-3.8,3.1-6.8,6.8-6.8c0,0,0,0,0,0H336c3.8,0,6.8,3.1,6.8,6.8&#10;&#9;&#9;C342.9,425.6,339.8,428.7,336,428.7C336,428.7,336,428.7,336,428.7z M306.6,418.7c-1.7-0.1-3.2,1.2-3.3,3c-0.1,1.7,1.2,3.2,3,3.3&#10;&#9;&#9;c0.1,0,0.2,0,0.4,0H336c1.7,0.1,3.2-1.2,3.3-3c0.1-1.7-1.2-3.2-3-3.3c-0.1,0-0.2,0-0.4,0H306.6z"/>
</g>
<g id="character_fitness-1-6">
	<path class="st1_fitness-1-6" d="M342.6,279.6c0,0,52.6,5,59.5,9.4c18.7,12,5,114.9,5,114.9h-31l-1.6-78.4H335L342.6,279.6z"/>
	<path class="st0_fitness-1-6" d="M407.1,405.7H376c-1,0-1.8-0.8-1.9-1.8l-1.6-76.6H335c-1,0-1.8-0.8-1.8-1.8c0-0.1,0-0.2,0-0.3l7.6-45.9&#10;&#9;&#9;c0.2-1,1-1.6,2-1.5c5.4,0.5,53.3,5.2,60.3,9.7c8.5,5.4,11.8,26.2,10.4,63.6c-1.1,27-4.5,52.8-4.5,53.1&#10;&#9;&#9;C408.8,405,408,405.7,407.1,405.7z M377.8,402h27.6c3.8-29.4,9.9-102.3-4.4-111.5c-4.6-3-35.9-6.9-56.9-9l-7,42h37.2&#10;&#9;&#9;c1,0,1.8,0.8,1.8,1.8L377.8,402z"/>
	<path class="st2_fitness-1-6" d="M97.8,245.2c0,0-10.3-7.1-23.3,3.3S60.7,268,63.1,269.1s7-3.2,7-3.2c-3.2,9.5-3.4,19.8-0.4,29.4&#10;&#9;&#9;c5.1,16.9,13.9,25,37.1,26.5c17.9,1.1,32.5-8,32.5-8s7.5-21.2-3.3-35.6S97.8,245.2,97.8,245.2z"/>
	<path class="st0_fitness-1-6" d="M109.9,323.6c-1.1,0-2.1,0-3.2-0.1c-22.5-1.4-33-8.9-38.7-27.8c-2.5-8.2-2.8-16.9-1-25.3&#10;&#9;&#9;c-1.4,0.8-3.1,0.9-4.6,0.4c-1.2-0.7-2-2-2.1-3.4c-0.5-4.1,2.7-11.9,13.1-20.3c13.8-11.1,24.9-3.8,25.5-3.4&#10;&#9;&#9;c1.2,0.8,27.9,18.9,38.7,33.4c11.2,15,3.8,36.4,3.5,37.3c-0.1,0.4-0.4,0.8-0.8,1C131,320.6,120.6,323.5,109.9,323.6z M70.1,264&#10;&#9;&#9;c1,0,1.8,0.8,1.8,1.8c0,0.2,0,0.5-0.1,0.7c-3,9.1-3.2,18.9-0.4,28.1c4.5,14.8,11.7,23.7,35.4,25.1c15.2,1,28-5.8,30.8-7.4&#10;&#9;&#9;c1.1-3.5,5.8-21.1-3.2-33.2c-10.4-14-37.5-32.3-37.8-32.5l0,0c-0.4-0.3-9.4-6.1-21.1,3.2c-11.4,9.1-12.4,16.5-11.6,17.6&#10;&#9;&#9;c0.5,0.1,2.8-1.1,4.8-3C69.2,264.2,69.7,264,70.1,264z M139.3,313.7L139.3,313.7z"/>
	<path class="st1_fitness-1-6" d="M160.8,288.7c-1.4,8.5-7.4,15.5-14.3,20.4c-3.6,2.5-8.1,6.9-12.7,4.4c-1.9-1.2-3.5-2.8-4.6-4.7&#10;&#9;&#9;c-2.8-4.2-6-9-10.1-12c-5.1-3.8-12-3.9-16.8-8.6c-8.4-8.3-2.6-19.8-2.6-29.9c0-1.1,0-12.7-1.9-13l34.2,5.7&#10;&#9;&#9;C150.9,254.1,164.1,269.5,160.8,288.7z"/>
	<path class="st0_fitness-1-6" d="M136.7,316.1c-1.3,0-2.6-0.3-3.7-1c-2.2-1.3-4-3.1-5.3-5.3c-2.9-4.3-6-8.8-9.7-11.5c-2.2-1.5-4.6-2.6-7.1-3.4&#10;&#9;&#9;c-3.4-1.2-6.9-2.5-9.9-5.4c-6.6-6.5-5.3-15-4.1-22.5c0.6-2.9,0.9-5.8,1-8.8c0-6.1-0.5-10.4-1-11.5c-0.9-0.5-1.1-1.7-0.6-2.5&#10;&#9;&#9;c0.4-0.6,1.1-1,1.9-0.8l34.2,5.7c9.8,1.6,18.2,6.4,23.9,13.5c5.8,7.5,8.2,17,6.5,26.3l0,0c-1.3,8-6.7,15.7-15,21.6&#10;&#9;&#9;c-0.5,0.3-1,0.7-1.5,1.1C143.5,313.6,140.2,316.1,136.7,316.1z M100.8,247.6c0.5,3.5,0.8,7.1,0.7,10.7c-0.1,3.1-0.4,6.3-1,9.3&#10;&#9;&#9;c-1.2,7.2-2.2,14,3,19.2c2.4,2.3,5.4,3.4,8.6,4.6c2.9,0.9,5.6,2.2,8.1,3.9c4.2,3.1,7.5,7.9,10.5,12.5c1,1.7,2.4,3.1,4,4.1&#10;&#9;&#9;c2.7,1.5,5.5-0.4,9.2-3.2l1.6-1.2c7.5-5.3,12.3-12.1,13.5-19.2c1.5-8.3-0.6-16.8-5.8-23.5c-5.4-6.6-13.1-10.9-21.6-12.2&#10;&#9;&#9;L100.8,247.6z M160.8,288.7L160.8,288.7z"/>
	<circle class="st0_fitness-1-6" cx="120.1" cy="260.5" r="3.2"/>
	<path class="st1_fitness-1-6" d="M122.9,252.3c0,0,15.5-5.7,15.7-3.5s-1.1,7.6-1.1,7.6"/>
	<path class="st0_fitness-1-6" d="M137.5,258.3c-0.1,0-0.3,0-0.4,0c-1-0.2-1.6-1.2-1.4-2.2c0.5-1.9,0.8-3.8,1.1-5.8c-2.5,0.3-8.3,2-13.2,3.9&#10;&#9;&#9;c-1,0.3-2-0.2-2.3-1.2c-0.3-0.9,0.2-1.9,1-2.3c14.5-5.3,16.5-4.1,17.1-3.6c0.6,0.4,1,1,1.1,1.8c0.2,2.5-1,7.6-1.2,8.2&#10;&#9;&#9;C139.1,257.7,138.3,258.3,137.5,258.3z"/>
	<path class="st1_fitness-1-6" d="M113.1,291c0,0-7.2,7.4-0.5,13.1s20.1,3.5,18.7-10.9"/>
	<path class="st0_fitness-1-6" d="M120.7,309c-3.4,0-6.7-1.2-9.3-3.4c-2.1-1.6-3.3-4.1-3.5-6.7c-0.2-4.9,3.7-9,3.9-9.1c0.7-0.8,1.8-0.8,2.6-0.1&#10;&#9;&#9;c0.8,0.7,0.8,1.8,0.1,2.6c0,0-0.1,0.1-0.1,0.1c-0.1,0.1-3,3.2-2.8,6.4c0.1,1.6,0.9,3,2.2,4c3.1,2.6,7.5,3.2,11.2,1.5&#10;&#9;&#9;c3.4-1.8,5-5.6,4.5-10.8c-0.1-1,0.6-1.9,1.6-2c1-0.1,1.9,0.6,2,1.6c0,0,0,0,0,0c0.6,6.7-1.7,12-6.5,14.4&#10;&#9;&#9;C124.8,308.5,122.8,309,120.7,309z"/>
	<path class="st0_fitness-1-6" d="M109.5,273.2c-0.4,0-0.8-0.1-1.2-0.2c-1.9-0.7-2.9-2.8-2.2-4.7c0,0,0,0,0,0l4.9-13.5c0.7-1.9,2.8-2.9,4.7-2.2&#10;&#9;&#9;c1.9,0.7,2.9,2.8,2.2,4.7l-4.8,13.5C112.5,272.3,111.1,273.2,109.5,273.2z"/>
	<path class="st0_fitness-1-6" d="M138.9,277.6c-1,0-1.9-0.8-1.9-1.8s0.8-1.9,1.8-1.9l0,0c8-0.4,8-7.3,8-8.1c0-1,0.8-1.9,1.8-1.9h0.1&#10;&#9;&#9;c1,0,1.8,0.8,1.8,1.8c0,2-0.4,3.9-1.2,5.7C148,274.1,145.1,277.4,138.9,277.6L138.9,277.6z"/>
	<path class="st3_fitness-1-6 targetColor" d="M179,258.4c1.4-0.5,2.7-1.1,4.1-1.6c6.5-2.5,13.6-3.6,20.4-2.1s12.4,5.5,18.9,7.2c6.7,1.7,13.7,0,20.7,0.4&#10;&#9;&#9;l30.3,1.4l-2.4,61.8h-91.5c-13.8,0-25-11.2-25-25v-16C154.5,269.8,166.9,263.2,179,258.4z" style="fill: rgb(104, 225, 253);"/>
	<path class="st0_fitness-1-6" d="M271,327.3h-91.5c-14.8,0-26.8-12-26.8-26.8v-16c0-15.4,12.4-22.5,25.7-27.8c1.4-0.5,2.7-1.1,4.1-1.6&#10;&#9;&#9;c7.6-2.9,15-3.6,21.5-2.1c3.5,0.9,6.9,2.2,10.2,3.8c2.8,1.4,5.7,2.5,8.8,3.4c4,1,8.1,0.8,12.4,0.5c2.6-0.2,5.3-0.3,7.9-0.2&#10;&#9;&#9;l30.3,1.4c1,0,1.8,0.9,1.8,1.9c0,0,0,0,0,0l-2.4,61.8C272.8,326.5,272,327.3,271,327.3z M197.1,255.9c-4.6,0.1-9.1,1-13.4,2.6&#10;&#9;&#9;c-1.3,0.5-2.7,1-4,1.6l0,0c-14,5.6-23.4,11.9-23.4,24.4v16c0,12.8,10.4,23.1,23.1,23.1h89.8l2.3-58.2l-28.5-1.3&#10;&#9;&#9;c-2.5-0.1-5,0-7.5,0.2c-4.4,0.3-9,0.5-13.5-0.6c-3.2-0.9-6.4-2.1-9.4-3.6c-3-1.5-6.2-2.7-9.5-3.6&#10;&#9;&#9;C201.1,256.1,199.1,255.9,197.1,255.9z M179,258.4L179,258.4z"/>
	<polygon class="st4_fitness-1-6" points="363,325.4 271,325.4 273.4,263.7 363,269.9 &#9;"/>
	<path class="st0_fitness-1-6" d="M363,327.3h-92c-0.5,0-1-0.2-1.3-0.6c-0.4-0.4-0.5-0.8-0.5-1.4l2.4-61.8c0-0.5,0.2-1,0.6-1.3&#10;&#9;&#9;c0.4-0.3,0.9-0.5,1.4-0.5l89.5,6.2c1,0.1,1.7,0.9,1.7,1.8v55.5C364.8,326.4,364,327.3,363,327.3z M273,323.6h88.2v-52l-85.9-6&#10;&#9;&#9;L273,323.6z"/>
	<path class="st1_fitness-1-6" d="M165.6,193.2l31.1,4.5l0,0l-15.4,107.5c-0.7,4.7-5,7.9-9.7,7.3c0,0,0,0,0,0l-14.2-2c-4.7-0.7-7.9-5-7.2-9.7&#10;&#9;&#9;l0,0L165.6,193.2L165.6,193.2z"/>
	<path class="st0_fitness-1-6" d="M166.8,313.4c-0.8,0-1.7-0.1-2.5-0.2c-9.6-1.4-16.3-10.3-14.9-19.9L163.8,193c0.1-1,1.1-1.7,2.1-1.6&#10;&#9;&#9;c0,0,0,0,0,0l31.1,4.5c0.5,0.1,0.9,0.3,1.2,0.7c0.3,0.4,0.4,0.9,0.4,1.4l-14.4,100.3C182.9,307,175.5,313.4,166.8,313.4z&#10;&#9;&#9; M167.2,195.3L153,293.8c-1.2,7.6,4.1,14.7,11.7,15.8c7.6,1.2,14.7-4.1,15.8-11.7c0-0.1,0-0.1,0-0.2l14.2-98.5L167.2,195.3z"/>
	<circle class="st3_fitness-1-6 targetColor" cx="188.7" cy="143.2" r="70" style="fill: rgb(104, 225, 253);"/>
	<path class="st0_fitness-1-6" d="M188.7,215c-39.7,0-71.8-32.2-71.9-71.8s32.2-71.8,71.8-71.9s71.9,32.2,71.9,71.8l0,0&#10;&#9;&#9;C260.5,182.8,228.4,215,188.7,215z M188.7,75c-37.6,0-68.2,30.5-68.2,68.2c0,37.6,30.5,68.2,68.2,68.2s68.2-30.5,68.2-68.2&#10;&#9;&#9;c0,0,0,0,0,0C256.8,105.5,226.3,75,188.7,75z"/>
	<circle class="st3_fitness-1-6 targetColor" cx="188.7" cy="143.2" r="54" style="fill: rgb(104, 225, 253);"/>
	<path class="st0_fitness-1-6" d="M188.7,199c-30.8,0-55.9-25-55.9-55.8s25-55.9,55.8-55.9s55.9,25,55.9,55.8c0,0,0,0,0,0&#10;&#9;&#9;C244.5,174,219.5,199,188.7,199z M188.7,91c-28.8,0-52.2,23.3-52.2,52.2s23.3,52.2,52.2,52.2s52.2-23.3,52.2-52.2c0,0,0,0,0,0&#10;&#9;&#9;C240.8,114.4,217.5,91,188.7,91z"/>
	<circle class="st0_fitness-1-6" cx="188.7" cy="143.2" r="10.1"/>
	<path class="st0_fitness-1-6" d="M188.7,155.2c-6.6,0-12-5.4-12-12s5.4-12,12-12s12,5.4,12,12S195.3,155.2,188.7,155.2z M188.7,134.9&#10;&#9;&#9;c-4.6,0-8.3,3.7-8.3,8.3s3.7,8.3,8.3,8.3c4.6,0,8.3-3.7,8.3-8.3c0,0,0,0,0,0C197,138.6,193.3,134.9,188.7,134.9z"/>
	<path class="st3_fitness-1-6 targetColor" d="M376,403.9v22.5h56.8c1.5,0,2.6-1.2,2.6-2.6c0-0.9-0.5-1.7-1.2-2.2l-27.2-17.7L376,403.9z" style="fill: rgb(104, 225, 253);"/>
	<path class="st0_fitness-1-6" d="M432.8,428.2H376c-1,0-1.8-0.8-1.8-1.8c0,0,0,0,0,0v-22.5c0-1,0.8-1.9,1.8-1.9c0,0,0,0,0,0h31.1&#10;&#9;&#9;c0.4,0,0.7,0.1,1,0.3l27.2,17.7c2.1,1.3,2.7,4.1,1.3,6.2C435.7,427.5,434.3,428.2,432.8,428.2L432.8,428.2z M377.8,424.5h55&#10;&#9;&#9;c0.4,0,0.8-0.4,0.8-0.8c0-0.3-0.1-0.5-0.4-0.7l-26.7-17.4h-28.7L377.8,424.5z"/>
	<path class="st0_fitness-1-6" d="M405.7,418.7c-1,0-1.8-0.8-1.8-1.8c0-0.5,0.2-0.9,0.5-1.2l7.8-8.8c0.7-0.8,1.8-0.8,2.6-0.1s0.8,1.8,0.1,2.6&#10;&#9;&#9;l-7.8,8.8C406.7,418.4,406.2,418.7,405.7,418.7z"/>
</g>
</svg>