<svg version="1.1" id="Layer_1" xmlns="http://www.w3.org/2000/svg" xmlns:xlink="http://www.w3.org/1999/xlink" x="0px" y="0px" viewBox="0 0 500 500" style="width: 166px;" xml:space="preserve" data-imageid="fitness-app-77" imageName="Fitness App" class="illustrations_image">
<style type="text/css">
	.st0_fitness-app-77{fill:#68E1FD;}
	.st1_fitness-app-77{fill:#093F68;}
	.st2_fitness-app-77{fill:#FFFFFF;}
	.st3_fitness-app-77{fill:#F56132;}
	.st4_fitness-app-77{fill:#DFEAEF;}
	.st5_fitness-app-77{fill:#70CC40;}
</style>
<g id="device_fitness-app-77">
	<path class="st0_fitness-app-77 targetColor" d="M156.6,78.8h181.5c10.9,0,19.7,8.8,19.7,19.7v303.1c0,10.9-8.8,19.7-19.7,19.7H156.6&#10;&#9;&#9;c-10.9,0-19.7-8.8-19.7-19.7V98.4C136.9,87.6,145.7,78.8,156.6,78.8z" style="fill: rgb(104, 225, 253);"/>
	<path class="st1_fitness-app-77" d="M339.8,423.1H154.8c-10.9,0-19.8-8.9-19.8-19.8V96.7c0-10.9,8.9-19.8,19.8-19.8h185.1&#10;&#9;&#9;c10.9,0,19.8,8.9,19.8,19.8v306.7C359.6,414.2,350.8,423.1,339.8,423.1z M154.8,80.6c-8.9,0-16.1,7.2-16.1,16.1v306.7&#10;&#9;&#9;c0,8.9,7.2,16.1,16.1,16.1h185.1c8.9,0,16.1-7.2,16.1-16.1V96.7c0-8.9-7.2-16.1-16.1-16.1H154.8z"/>
	<path class="st1_fitness-app-77" d="M152.4,113.3h189.8c2.8,0,5.1,2.3,5.1,5.1v257.7c0,2.8-2.3,5.1-5.1,5.1H152.4c-2.8,0-5.1-2.3-5.1-5.1V118.4&#10;&#9;&#9;C147.4,115.6,149.6,113.3,152.4,113.3z"/>
	<path class="st1_fitness-app-77" d="M337.9,383H156.7c-6.2,0-11.2-5-11.2-11.2V122.7c0-6.2,5-11.2,11.2-11.2h181.2c6.2,0,11.2,5,11.2,11.2v249.1&#10;&#9;&#9;C349.1,378,344.1,383,337.9,383z M156.7,115.2c-4.2,0-7.5,3.4-7.5,7.5l0,0v249.1c0,4.2,3.4,7.5,7.5,7.5h181.2&#10;&#9;&#9;c4.2,0,7.5-3.4,7.5-7.5V122.7c0-4.2-3.4-7.5-7.5-7.5H156.7z"/>
	<circle class="st1_fitness-app-77" cx="218.8" cy="97.8" r="2.9"/>
	<path class="st1_fitness-app-77" d="M278.7,99.7h-46.1c-1,0-1.9-0.8-1.9-1.8s0.8-1.9,1.8-1.9c0,0,0,0,0,0h46.1c1,0,1.9,0.8,1.9,1.8&#10;&#9;&#9;C280.5,98.8,279.7,99.7,278.7,99.7C278.7,99.7,278.7,99.7,278.7,99.7z"/>
	<circle class="st1_fitness-app-77" cx="247.3" cy="400.1" r="12.1"/>
</g>
<g id="paper_fitness-app-77">
	<path class="st2_fitness-app-77" d="M191.2,91.4c0,0-25.5,2.2-25.5,43.9v245.9h166.6V135.3c0-18.7,11.6-43.9,11.6-43.9L191.2,91.4z"/>
	<path class="st1_fitness-app-77" d="M332.3,383H165.7c-1,0-1.9-0.8-1.9-1.9l0,0V135.3c0-42.8,26.9-45.7,27.2-45.7h152.9c1,0,1.8,0.8,1.9,1.8&#10;&#9;&#9;c0,0.3-0.1,0.5-0.2,0.8c-0.1,0.2-11.4,25-11.4,43.1v245.9C334.1,382.2,333.3,383,332.3,383z M167.5,379.3h162.9v-244&#10;&#9;&#9;c0-15.6,7.6-35,10.6-42H191.3c-1.7,0.2-23.7,3.4-23.7,42V379.3z"/>
	<path class="st2_fitness-app-77" d="M191.2,91.4c0,0,20.9,6.4,21.4,35h150.6c0,0,3.5-20-19.3-35H191.2z"/>
	<path class="st1_fitness-app-77" d="M363.2,128.3H212.5c-1,0-1.8-0.8-1.9-1.8c-0.5-26.9-19.3-33-20.1-33.3c-1-0.3-1.5-1.4-1.2-2.3&#10;&#9;&#9;c0.2-0.8,0.9-1.3,1.7-1.3h152.7c0.4,0,0.7,0.1,1,0.3c23.5,15.4,20.2,36,20.1,36.9C364.8,127.6,364.1,128.2,363.2,128.3z&#10;&#9;&#9; M214.3,124.6h147.2c0.3-4.8-0.5-19.5-18.2-31.3H198.5C204.9,97.7,213.4,106.9,214.3,124.6z"/>
</g>
<g id="heartbeat_fitness-app-77">
	<g id="zgp30Y_fitness-app-77">
		<path class="st3_fitness-app-77" d="M249.2,240.4c-2.4-2.2-4.7-4.4-7.1-6.6c-6.7-5.9-13.4-11.8-20.1-17.7c-4.5-3.8-8.8-7.9-12.9-12.2&#10;&#9;&#9;&#9;c-3.7-3.8-6.6-8.3-8.7-13.1c-1.3-3.3-2.2-6.8-2.7-10.4c-0.4-3.2-0.6-6.4-0.5-9.6c0.5-11.2,7.3-20.6,17.6-24&#10;&#9;&#9;&#9;c11.1-3.6,20.8-1.1,29.1,6.9c1.9,1.9,3.6,4,4.9,6.2c0.1,0.1,0.2,0.3,0.3,0.5l0.4-0.6c3-4.9,7.3-9,12.4-11.6&#10;&#9;&#9;&#9;c4.5-2.3,9.5-3.3,14.6-2.9c5.6,0.4,11,2.5,15.3,6.2c4.8,4,8,9.6,8.9,15.8c0.5,3.2,0.5,6.4,0.2,9.6c-0.2,3.4-0.8,6.9-1.7,10.2&#10;&#9;&#9;&#9;c-1.5,5-4.1,9.7-7.5,13.8c-3.5,4.2-7.3,8-11.5,11.6c-6.1,5.4-12.3,10.7-18.4,16.1c-4.2,3.7-8.2,7.5-12.4,11.3L249.2,240.4z"/>
		<path class="st1_fitness-app-77" d="M249.2,242.2c-0.4,0-0.9-0.1-1.2-0.4l-2.3-2.1c-1.6-1.5-3.2-3-4.8-4.4c-5.6-4.9-11.2-9.9-16.8-14.8l-3.3-2.9&#10;&#9;&#9;&#9;c-4.6-3.9-8.9-8-13.1-12.3c-3.8-4-6.9-8.6-9.1-13.6c-1.4-3.5-2.4-7.1-2.8-10.8c-0.4-3.3-0.6-6.6-0.5-9.9&#10;&#9;&#9;&#9;c0.5-12,7.9-22.1,18.9-25.7c11.5-3.8,22-1.3,31,7.4c1.5,1.4,2.8,3,4,4.7c3.1-4.4,7.2-8.1,12-10.6c4.8-2.5,10.2-3.5,15.6-3.1&#10;&#9;&#9;&#9;c6,0.4,11.8,2.7,16.4,6.6c5.1,4.3,8.5,10.3,9.6,16.9c0.5,3.3,0.6,6.7,0.3,10.1c-0.2,3.6-0.8,7.1-1.8,10.6&#10;&#9;&#9;&#9;c-1.6,5.3-4.3,10.2-7.8,14.4c-3.6,4.2-7.5,8.2-11.8,11.8c-2.8,2.5-5.6,4.9-8.4,7.3c-3.4,2.9-6.7,5.9-10.1,8.8&#10;&#9;&#9;&#9;c-2.9,2.5-5.7,5.1-8.5,7.7l-3.9,3.6l-0.2,0.2C250.2,242,249.7,242.2,249.2,242.2z M224.3,147.2c-3,0-6,0.5-8.9,1.5&#10;&#9;&#9;&#9;c-9.5,3.1-15.9,11.9-16.3,22.3c-0.1,3.1,0,6.2,0.4,9.3c0.4,3.4,1.3,6.7,2.6,9.9c2,4.7,4.9,8.9,8.4,12.6c4,4.2,8.3,8.2,12.8,12&#10;&#9;&#9;&#9;l3.3,2.9c5.6,4.9,11.2,9.9,16.8,14.8c1.6,1.5,3.3,3,4.9,4.5l1,0.9l3-2.7c2.8-2.6,5.7-5.2,8.5-7.8c3.3-3,6.7-5.9,10.1-8.9&#10;&#9;&#9;&#9;c2.8-2.4,5.6-4.9,8.3-7.3c4.1-3.5,7.8-7.3,11.3-11.4c3.2-3.9,5.7-8.3,7.1-13.1c0.9-3.2,1.5-6.5,1.7-9.8c0.3-3.1,0.2-6.2-0.2-9.2&#10;&#9;&#9;&#9;c-0.9-5.7-3.9-11-8.3-14.7c-4-3.4-9-5.4-14.3-5.7c-4.7-0.4-9.4,0.5-13.6,2.7c-4.8,2.5-8.9,6.3-11.7,11l-0.4,0.6&#10;&#9;&#9;&#9;c-0.3,0.6-0.9,0.9-1.6,0.9c-0.6,0-1.2-0.3-1.6-0.8l-0.3-0.5c-1.3-2.1-2.9-4.1-4.6-5.9C237.1,149.9,231,147.2,224.3,147.2&#10;&#9;&#9;&#9;L224.3,147.2z"/>
	</g>
	<path class="st2_fitness-app-77" d="M236.6,212.6c-0.8,0-1.5-0.5-1.7-1.2l-5.4-14.1h-34.1c-1,0.1-1.9-0.7-2-1.7s0.7-1.9,1.7-2c0.1,0,0.2,0,0.3,0&#10;&#9;&#9;h35.3c0.8,0,1.4,0.5,1.7,1.2l4,10.2l10-33.7c0.3-0.8,1-1.3,1.8-1.3c0.8,0,1.5,0.6,1.8,1.4l7.5,27.4c6.1-14.9,6.3-14.9,8-14.5&#10;&#9;&#9;c0.9,0.2,1.5,1,1.5,1.9c0.1,0.8,1.7,6.7,3.4,12.4h32.8c1-0.1,1.9,0.7,2,1.7c0.1,1-0.7,1.9-1.7,2c-0.1,0-0.2,0-0.3,0h-34.3&#10;&#9;&#9;c-0.8,0-1.5-0.5-1.8-1.3c-1.1-3.8-2-6.9-2.6-9.3c-1.5,3.6-3.7,8.8-5.7,13.6c-0.4,0.9-1.5,1.4-2.4,1c-0.5-0.2-0.9-0.7-1.1-1.2&#10;&#9;&#9;l-7.2-26.4l-9.7,32.7C238.1,212,237.4,212.5,236.6,212.6L236.6,212.6z"/>
</g>
<g id="chart_fitness-app-77">
	<path class="st4_fitness-app-77" d="M302.3,360.5H196.1c-6.5,0-11.8-5.3-11.8-11.8v-60.3c0-6.5,5.3-11.8,11.8-11.8h106.2c6.5,0,11.8,5.3,11.8,11.8&#10;&#9;&#9;v60.3C314.1,355.3,308.8,360.5,302.3,360.5z M196.1,280.4c-4.5,0-8.1,3.6-8.1,8.1v60.3c0,4.5,3.6,8.1,8.1,8.1h106.2&#10;&#9;&#9;c4.5,0,8.1-3.6,8.1-8.1v-60.3c0-4.5-3.6-8.1-8.1-8.1H196.1z"/>
	<path class="st4_fitness-app-77" d="M275.4,256.9h-52.3c-1,0-1.8-0.8-1.8-1.9c0-1,0.8-1.8,1.8-1.8h52.3c1,0,1.8,0.8,1.8,1.9&#10;&#9;&#9;C277.2,256.1,276.4,256.9,275.4,256.9z"/>
	<path class="st4_fitness-app-77" d="M226.4,344.5c-15.9,0-28.8-12.9-28.8-28.8c0-15.9,12.9-28.8,28.8-28.8s28.8,12.9,28.8,28.8&#10;&#9;&#9;C255.2,331.6,242.3,344.4,226.4,344.5z M226.4,292.5c-12.8,0-23.2,10.4-23.2,23.2s10.4,23.2,23.2,23.2c12.8,0,23.2-10.4,23.2-23.2&#10;&#9;&#9;l0,0C249.6,302.9,239.2,292.5,226.4,292.5L226.4,292.5z"/>
	<path class="st5_fitness-app-77" d="M226.4,345.4c-16.4,0-29.7-13.3-29.7-29.7S210,286,226.4,286c16.4,0,29.7,13.3,29.7,29.7l0,0&#10;&#9;&#9;c0.1,2-1.5,3.8-3.5,3.9s-3.8-1.5-3.9-3.5c0-0.1,0-0.3,0-0.4c0-12.3-10-22.3-22.3-22.3c-12.3,0-22.3,10-22.3,22.3&#10;&#9;&#9;c0,12.3,10,22.3,22.3,22.3c2-0.1,3.8,1.5,3.9,3.5c0.1,2-1.5,3.8-3.5,3.9C226.7,345.4,226.5,345.4,226.4,345.4L226.4,345.4z"/>
	<path class="st4_fitness-app-77" d="M297.4,310.7h-31.5c-2-0.1-3.6-1.8-3.5-3.9c0.1-1.9,1.6-3.4,3.5-3.5h31.5c2-0.1,3.8,1.5,3.9,3.5&#10;&#9;&#9;c0.1,2-1.5,3.8-3.5,3.9C297.6,310.7,297.5,310.7,297.4,310.7z"/>
	<path class="st4_fitness-app-77" d="M287.2,332h-21.3c-2,0-3.7-1.7-3.7-3.7c0-2,1.7-3.7,3.7-3.7h21.3c2,0,3.7,1.7,3.7,3.7&#10;&#9;&#9;C290.9,330.3,289.3,332,287.2,332z"/>
	<path class="st1_fitness-app-77" d="M240,318.5h-27.2c-1,0.1-1.9-0.7-2-1.7c-0.1-1,0.7-1.9,1.7-2c0.1,0,0.2,0,0.3,0H240c1-0.1,1.9,0.7,2,1.7&#10;&#9;&#9;c0.1,1-0.7,1.9-1.7,2C240.2,318.5,240.1,318.5,240,318.5z"/>
	<path class="st1_fitness-app-77" d="M216.2,310.1h3.3c0.7,0,1.3,0.6,1.3,1.3V322c0,0.7-0.6,1.3-1.3,1.3h-3.3c-0.7,0-1.3-0.6-1.3-1.3v-10.7&#10;&#9;&#9;C214.9,310.6,215.5,310.1,216.2,310.1z"/>
	<path class="st1_fitness-app-77" d="M218.4,325.1h-1.2c-2.3,0-4.2-1.9-4.2-4.2v-8.5c0-2.3,1.9-4.2,4.2-4.2h1.2c2.3,0,4.2,1.9,4.2,4.2v8.6&#10;&#9;&#9;C222.6,323.3,220.7,325.1,218.4,325.1z M217.3,311.9c-0.3,0-0.5,0.2-0.5,0.5v8.6c0,0.3,0.2,0.5,0.5,0.5h1.2c0.3,0,0.5-0.2,0.5-0.5&#10;&#9;&#9;v-8.5c0-0.3-0.2-0.5-0.5-0.5L217.3,311.9z"/>
	<path class="st1_fitness-app-77" d="M233.3,310.1h3.3c0.7,0,1.3,0.6,1.3,1.3V322c0,0.7-0.6,1.3-1.3,1.3h-3.3c-0.7,0-1.3-0.6-1.3-1.3v-10.7&#10;&#9;&#9;C232,310.6,232.6,310.1,233.3,310.1z"/>
	<path class="st1_fitness-app-77" d="M235.5,325.1h-1.2c-2.3,0-4.2-1.9-4.2-4.2v-8.5c0-2.3,1.9-4.2,4.2-4.2h1.2c2.3,0,4.2,1.9,4.2,4.2v8.6&#10;&#9;&#9;C239.7,323.3,237.8,325.1,235.5,325.1z M234.4,311.9c-0.3,0-0.5,0.2-0.5,0.5v8.6c0,0.3,0.2,0.5,0.5,0.5h1.2c0.3,0,0.5-0.2,0.5-0.5&#10;&#9;&#9;v-8.5c0-0.3-0.2-0.5-0.5-0.5L234.4,311.9z"/>
</g>
</svg>