<svg id="_0380_fitness_2" data-name="0380_fitness_2" xmlns="http://www.w3.org/2000/svg" xmlns:xlink="http://www.w3.org/1999/xlink" viewBox="0 0 500 500" data-imageid="fitness-2-76" imageName="Fitness 2" class="illustrations_image" style="width: 166px;"><defs><style>.cls-1_fitness-2-76{fill:#ff912e;}.cls-2_fitness-2-76{fill:#68e1fd;}.cls-3_fitness-2-76{fill:url(#linear-gradient);}.cls-4_fitness-2-76{fill:#162d71;}.cls-5_fitness-2-76{fill:#253479;}.cls-6_fitness-2-76{fill:#ffcdc0;}.cls-7_fitness-2-76{fill:#75bf34;}.cls-8_fitness-2-76{fill:#163791;}.cls-9_fitness-2-76{fill:#1c3ba3;}.cls-10_fitness-2-76{fill:#3f4144;}</style><linearGradient id="linear-gradient-fitness-2-76" x1="202.03" y1="2059.02" x2="262.42" y2="2111.73" gradientTransform="matrix(1, 0, 0, -1, 0, 2363.15)" gradientUnits="userSpaceOnUse"><stop offset="0" stop-color="#68e1fd"/><stop offset="1"/></linearGradient></defs><path id="field_fitness-2-76" class="cls-1_fitness-2-76" d="M243.09,405.53,26,277.25c-6.91-3.88-12.84-10.26-6.1-14.42l217.9-125.61c3.27-2,8.23-3.35,11.56-1.43L477.23,268.06c6.91,4,8.16,15.23,1.26,19.25l-206.78,118A28.88,28.88,0,0,1,243.09,405.53Z"/><g id="fitness_fitness-2-76"><polygon class="cls-2_fitness-2-76 targetColor" points="128.55 298.32 198.54 343.28 373.36 243.48 300.3 199.33 128.55 298.32" style="fill: rgb(104, 225, 253);"/><path class="cls-3_fitness-2-76" d="M269.74,281,234.91,266.3l-77.5,30.61L209,329.24c16.26-9.15,32.5-18.52,48.87-27.68A97.2,97.2,0,0,0,269.74,281Z"/><path class="cls-4_fitness-2-76" d="M263.23,96.51a74,74,0,0,1-11.75,7.33c-.36.17-2.69,1.58-2.8,1.56-.3-.08-.7-3.35-.78-3.68l-1.71-8.08c-.39-1.85-3.22-1-2.83.82.76,3.64,1,8.37,2.51,11.76.58,1.26,1.1,2,2.7,2,2.33,0,5.42-2.28,7.37-3.36A74.88,74.88,0,0,0,264.75,99C266.24,97.91,264.74,95.37,263.23,96.51Z"/><path class="cls-5_fitness-2-76" d="M318.61,126.76c-3.93,1.84-9,4.54-13.4,5-1.54.15-1.12.54-2-.73a9.75,9.75,0,0,1-.89-2.51,35.62,35.62,0,0,1-1.45-7.37c-.16-1.73-2.91-1.65-2.73.12.34,3.51.93,12.22,4.85,13.56,2,.68,5.41-1.12,7.26-1.73a94,94,0,0,0,9.83-4C321.64,128.33,320.2,126,318.61,126.76Z"/><path class="cls-6_fitness-2-76" d="M218.88,179.48s-25.57,46.57-21.26,56.85,29.87,22.33,32.82,27.18,12.59,2.41,13.18,0S223.76,235,220.37,231c0,0,37-37.13,37.23-55.15s-13.35-21.06-19.72-22.1S218.88,179.48,218.88,179.48Z"/><path class="cls-4_fitness-2-76" d="M205,279.84s-.74,4.09,1,5a21,21,0,0,0,13.24,2.63c6.82-.91,11.82-5.59,14.48-5.59s11.94-2.28,13.44-4,0-5.66,0-5.66"/><path class="cls-7_fitness-2-76" d="M229.94,262.69s-1.26,2.23-2.52,4.63-20.71,9.44-22.09,11.84,3.28,5.73,10.66,6.3,15.45-6.3,19.21-6.3,10.65-1.71,12.37-4.46-3.9-11.19-3.9-11.19S233.87,268.81,229.94,262.69Z"/><path class="cls-8_fitness-2-76" d="M207.47,247a47.53,47.53,0,0,0,22.9-3.21c-4.44-5.84-8.61-11.12-10-12.75,0,0,37-37.13,37.23-55.16s-13.34-21.05-19.73-22.08-19,25.77-19,25.77-25.57,46.57-21.26,56.85C199.07,239.81,202.93,243.46,207.47,247Z"/><path class="cls-6_fitness-2-76" d="M252.26,90.8a10.74,10.74,0,0,0-1.39,0c-3.69.14-6.47,2.87-9.61,4.45C233.59,99,213,109.39,193.83,122.32s-15.57,24.31-15.57,24.31l18.11-5.21s5.6-5.27,8.25-8.38,39.52-29.94,41.91-30.9,9.58-1.26,14.85-2.63c3.78-1,1.16-3.78-.87-5.14A19.29,19.29,0,0,0,252.26,90.8Z"/><rect class="cls-5_fitness-2-76" x="208.07" y="142.51" width="70.48" height="1" transform="translate(63.85 360.83) rotate(-80.96)"/><path class="cls-6_fitness-2-76" d="M242.45,184.48s-25.56,46.57-21.26,56.85S251.06,263.66,254,268.5s12.58,2.42,13.18,0S247.33,240,244,236c0,0,37-37.13,37.23-55.16s-13.36-21.05-19.72-22.1S242.45,184.48,242.45,184.48Z"/><path class="cls-4_fitness-2-76" d="M235.16,295s-1.88,5.27,4.7,6.19,14.08,1.53,18.65-2.07,17.37-16.58,17.19-18.42a29.36,29.36,0,0,0-.86-4.25"/><path class="cls-7_fitness-2-76" d="M254,268.52a32.9,32.9,0,0,1-4.27,10.13c-2.92,4.11-14.94,13.73-14.6,16.36s5.84,4.12,11.68,4.12,14.94-4.64,19.58-10.82,9.09-8.58,8.4-11.84-8.48-10.07-8.48-10.07S263.61,270.23,254,268.52Z"/><rect class="cls-5_fitness-2-76" x="198.23" y="214.69" width="169.32" height="1" transform="translate(1.87 432.82) rotate(-75.01)"/><path class="cls-9_fitness-2-76" d="M227.88,249.46c7.3-.28,15.59-2,21.91-6-2.73-3.53-5-6.3-5.92-7.45,0,0,37-37.13,37.23-55.16s-13.35-21-19.72-22.1-19,25.78-19,25.78S216.8,231.1,221.1,241.38C222.21,244,224.72,246.74,227.88,249.46Z"/><path class="cls-2_fitness-2-76 targetColor" d="M185,160.09c-.91-1.35-10.61-14.44-5.51-18.33s20-2.44,28.59,0,29.8,4.65,37,4.87,29.58,13.72,30.8,18.5-49.45,15.53-61.37,17.9S190.94,173,190.94,173" style="fill: rgb(104, 225, 253);"/><path class="cls-6_fitness-2-76" d="M180.64,156.42c1.26-.15,5.27-3,11.73,0s7.19,16.37,5.75,18.56-14.61-6.23-14.61-6.23"/><path class="cls-10_fitness-2-76" d="M161.31,182.24c.21.07-6.37,5-12.39,0s-7.42-25.48,8.81-31.47,29.09,8.17,28.84,14-4,7.82-4,7.82"/><path class="cls-6_fitness-2-76" d="M157.75,180.83s15.64,6.82,21.86,4,6.22-9.83,4.81-11.63c0,0-3.21-6.82-7.23-5.41s-1.26,4.81-1.26,4.81S160.35,170.81,157.75,180.83Z"/><circle class="cls-10_fitness-2-76" cx="158.45" cy="145.64" r="10.72"/><path class="cls-6_fitness-2-76" d="M239.32,171.8s-14.38,5.76-21.08,0,.17-17.62,19.57-24.33S295.35,131.11,297,128.7s1.43-8.15,3.77-9.58,17.49,5.27,15.81,8.38-12.87,6.27-12.87,6.27Z"/></g></svg>