<svg version="1.1" id="Layer_1" xmlns="http://www.w3.org/2000/svg" xmlns:xlink="http://www.w3.org/1999/xlink" x="0px" y="0px" viewBox="0 0 500 500" style="width: 166px;" xml:space="preserve" data-imageid="fitness-1-79" imageName="Fitness 1" class="illustrations_image">
<style type="text/css">
	.st0_fitness-1-79{fill:#FFFFFF;}
	.st1_fitness-1-79{fill:#231F20;}
	.st2_fitness-1-79{fill:#68E1FD;}
	.st3_fitness-1-79{fill:#D1D3D4;}
</style>
<g id="Character_fitness-1-79">
	<path class="st0_fitness-1-79" d="M255.2,119.7c-1.5-0.3-3-0.7-4.4-1.2c-4.7-1.9-8.8-6-9.6-11c-0.2-1.1-0.2-2.2-0.2-3.4&#10;&#9;&#9;c0.1-4.6,0.7-10.9,3.3-14.8c1.3-2,3.9-3.3,6.1-2.5c-0.8,0.6-1.8-0.6-1.5-1.5c0.5-0.9,1.3-1.4,2.3-1.6c4-1.2,8.5-1.6,12.1,0.5&#10;&#9;&#9;c-0.7-0.8-0.6-2.1,0.2-2.8c0.8-0.7,1.9-1,2.9-1c6.7-0.4,12.8,5.1,14.5,11.6s-0.2,13.4-3.6,19.2c-1.6,3-3.9,5.5-6.7,7.4&#10;&#9;&#9;c-2.9,1.8-5.3,1.3-8.5,1.4C259.8,120.2,257.5,120.1,255.2,119.7z"/>
	<path class="st1_fitness-1-79" d="M260.3,120.8c-1.8,0-3.5-0.1-5.2-0.4c-1.6-0.3-3.1-0.7-4.5-1.3c-5.4-2.2-9.3-6.6-10.1-11.5&#10;&#9;&#9;c-0.2-1.2-0.2-2.3-0.2-3.5c0.1-4.7,0.7-11.1,3.4-15.2c1-1.6,2.6-2.6,4.4-3c0-0.3,0-0.6,0.1-0.9c0.5-1.1,1.5-1.8,2.7-2&#10;&#9;&#9;c3.1-0.9,7.3-1.7,11.2-0.2c0-0.8,0.4-1.5,0.9-2c0.9-0.8,2.1-1.2,3.4-1.2c7.4-0.5,13.5,5.8,15.2,12.1c1.6,6,0.3,13-3.6,19.8&#10;&#9;&#9;c-1.6,3.1-4,5.7-6.9,7.7c-2.4,1.5-4.6,1.5-6.9,1.5c-0.6,0-1.2,0-1.9,0S260.9,120.8,260.3,120.8z M248.9,87.3&#10;&#9;&#9;c-1.6,0.2-3.1,1.1-4,2.4c-2.6,4-3.1,10.7-3.2,14.4c0,1.1,0,2.2,0.2,3.2c0.7,4.4,4.3,8.5,9.2,10.5c1.4,0.5,2.8,0.9,4.3,1.2&#10;&#9;&#9;c2.2,0.4,4.5,0.5,6.8,0.4c0.7,0,1.3,0,2,0c2.3,0,4.1,0,6.2-1.3c2.7-1.8,4.9-4.3,6.4-7.2c3.7-6.4,5-13.1,3.5-18.7&#10;&#9;&#9;c-1.5-5.8-7-11.5-13.7-11c-0.9,0-1.8,0.3-2.5,0.8c-0.3,0.3-0.5,0.7-0.5,1.1c0,0.3,0.1,0.5,0.3,0.7c0.3,0.2,0.3,0.6,0.1,0.9&#10;&#9;&#9;c-0.2,0.3-0.6,0.4-0.9,0.2c-3.7-2.2-8.3-1.4-11.6-0.5c-0.7,0.2-1.6,0.6-1.8,1.2c0,0.1,0,0.2,0,0.4c0.4,0,0.7,0.1,1.1,0.3&#10;&#9;&#9;c0.4,0.1,0.5,0.5,0.4,0.9c0,0.1-0.1,0.2-0.2,0.3c-0.5,0.4-1.3,0.4-1.8,0C248.9,87.4,248.9,87.4,248.9,87.3z"/>
	<path class="st0_fitness-1-79" d="M204.2,272.5c0.1,0.9-10.6,8.3-22.9,28.5c-8.6-2.8-17.4-4.9-26.3-6.3c-11.2-1.8-22.7-2.2-34-1.2l-3.5,13.4&#10;&#9;&#9;c0,0,64.7,22.9,73.8,19.6s38.1-39.6,38.1-39.6"/>
	<path class="st1_fitness-1-79" d="M188.8,327.4c-15.1,0-69.1-19-71.5-19.9c-0.3-0.1-0.5-0.5-0.4-0.8l3.5-13.4c0.1-0.3,0.3-0.5,0.6-0.5&#10;&#9;&#9;c11.4-1,22.9-0.5,34.2,1.2c8.8,1.4,17.5,3.4,25.9,6.1c5.8-9.5,12.8-18.3,20.8-26c0.6-0.5,1.2-1.1,1.7-1.8c0.1-0.3,0.3-0.5,0.6-0.5&#10;&#9;&#9;c0.4,0,0.7,0.2,0.7,0.6c0,0,0,0,0,0.1c0,0.6-0.4,1-2.1,2.6c-8.1,7.8-15.1,16.6-20.9,26.2c-0.2,0.3-0.5,0.4-0.8,0.3&#10;&#9;&#9;c-8.6-2.8-17.3-4.9-26.2-6.3c-11-1.7-22.2-2.1-33.3-1.2l-3.2,12.3c22.5,7.9,65.8,21.9,72.8,19.4c8.9-3.3,37.5-39,37.8-39.4&#10;&#9;&#9;c0.2-0.3,0.7-0.4,1-0.1c0,0,0,0,0,0c0.3,0.2,0.4,0.7,0.1,1c0,0,0,0,0,0c-1.2,1.5-29.2,36.4-38.4,39.8&#10;&#9;&#9;C190.7,327.4,189.7,327.5,188.8,327.4z"/>
	<polygon class="st1_fitness-1-79" points="215.3,243.5 193.6,280.8 226.6,301.6 248.2,273.6 &#9;"/>
	<path class="st1_fitness-1-79" d="M226.6,302.3c-0.1,0-0.3,0-0.4-0.1l-33-20.8c-0.3-0.2-0.4-0.6-0.2-0.9l21.6-37.3c0.1-0.2,0.3-0.3,0.5-0.3&#10;&#9;&#9;c0.2,0,0.4,0,0.6,0.2l33,30c0.3,0.2,0.3,0.7,0.1,0.9L227.2,302C227.1,302.2,226.9,302.3,226.6,302.3z M194.6,280.6l31.9,20.1&#10;&#9;&#9;l20.8-27.1l-31.9-29L194.6,280.6z"/>
	<path class="st0_fitness-1-79" d="M245.6,289.9c0,0,24.4,20.2,30.7,24.7c0,0-1.9,17,5.2,30.5s27.4,37.7,27.4,37.7l12.5-2.4&#10;&#9;&#9;c0,0-19.8-62.5-24.2-74.9s-24.3-42.2-24.3-42.2L245.6,289.9z"/>
	<path class="st1_fitness-1-79" d="M308.9,383.5c-0.2,0-0.4-0.1-0.5-0.2c-0.2-0.2-20.4-24.4-27.5-37.8c-6.5-12.4-5.6-27.8-5.3-30.5&#10;&#9;&#9;c-6.7-4.8-30.1-24.3-30.4-24.5c-0.2-0.1-0.3-0.3-0.3-0.5c0-0.2,0.1-0.4,0.2-0.5l27.3-26.5c0.1-0.1,0.4-0.2,0.6-0.2&#10;&#9;&#9;c0.2,0,0.4,0.1,0.5,0.3c0.8,1.2,20.1,30.1,24.4,42.3s24,74.2,24.2,74.9c0.1,0.2,0,0.4-0.1,0.6c-0.1,0.2-0.3,0.3-0.5,0.3l-12.5,2.4&#10;&#9;&#9;L308.9,383.5z M246.7,289.8c3.8,3.1,24.4,20.2,30,24.2c0.2,0.1,0.3,0.4,0.3,0.6c0,0.2-1.8,16.9,5.1,30.1&#10;&#9;&#9;c6.6,12.5,24.6,34.4,27,37.3l11.3-2.2c-2.3-7.1-19.9-62.6-23.9-74.1c-3.9-11.1-20.8-36.8-23.8-41.3L246.7,289.8z"/>
	<path class="st1_fitness-1-79" d="M204.2,222.9c0,0-2.5,23.1,1,35.2s41.6,41.5,41.6,41.5l26.1-36.3l-15.6-30.2L204.2,222.9z"/>
	<path class="st1_fitness-1-79" d="M246.8,300.3c-0.2,0-0.3,0-0.4-0.1c-1.6-1.2-38.3-29.8-41.8-41.9s-1.1-34.5-1-35.4c0-0.2,0.1-0.4,0.3-0.5&#10;&#9;&#9;c0.2-0.1,0.4-0.2,0.6-0.1l53.1,10.2c0.2,0,0.4,0.2,0.5,0.4l15.6,30.2c0.1,0.2,0.1,0.5-0.1,0.7L247.4,300&#10;&#9;&#9;C247.3,300.2,247.1,300.3,246.8,300.3L246.8,300.3z M204.8,223.8c-0.4,4.1-2,23.6,1.1,34.1c3.2,10.9,36,37,40.8,40.8l25.4-35.4&#10;&#9;&#9;l-15.2-29.5L204.8,223.8z"/>
	<path class="st1_fitness-1-79" d="M121,293.5l-17.3-2.6c0,0-9,36.8-7.7,40.3c2.1,5.6,21.5-24.4,21.5-24.4L121,293.5z"/>
	<path class="st1_fitness-1-79" d="M96.8,332.6L96.8,332.6c-0.7-0.1-1.3-0.5-1.4-1.1c-1.3-3.6,6.7-36.9,7.7-40.7c0.1-0.3,0.4-0.6,0.8-0.5&#10;&#9;&#9;l17.3,2.6c0.2,0,0.4,0.1,0.5,0.3c0.1,0.2,0.1,0.4,0.1,0.6l-3.5,13.4c0,0.1,0,0.1-0.1,0.2C102.7,331,97.8,332.6,96.8,332.6z&#10;&#9;&#9; M104.2,291.6c-3.4,14.2-8.4,36.9-7.6,39.3c0.1,0.2,0.2,0.2,0.2,0.2H97c2.5,0,12-12.4,19.9-24.6l3.2-12.6L104.2,291.6z"/>
	<path class="st1_fitness-1-79" d="M308.3,382.1c0,0-1.1,10.9,1.9,12.1s39.2-3,37.9-5.6s-27.8-10.7-27.8-10.7L308.3,382.1z"/>
	<path class="st1_fitness-1-79" d="M312.8,395.1c-1,0.1-1.9,0-2.9-0.3c-3.3-1.3-2.5-10.9-2.3-12.8c0-0.3,0.2-0.5,0.5-0.6l12-4.1&#10;&#9;&#9;c0.1,0,0.3,0,0.4,0c6.3,1.9,27,8.4,28.2,11c0.2,0.4,0.1,0.9-0.2,1.2C346.3,391.9,321.6,395.1,312.8,395.1z M309,382.6&#10;&#9;&#9;c-0.4,4.3-0.1,10.3,1.5,11c3.2,1.3,33.9-2.8,36.9-4.8c-1.8-1.7-14.8-6.3-27-10L309,382.6z"/>
	<path class="st1_fitness-1-79" d="M130,311.7c-0.1,0-0.1,0-0.2,0c-0.4-0.1-0.6-0.5-0.5-0.8c0,0,0,0,0,0l4.8-18.1c0.1-0.4,0.4-0.6,0.8-0.5&#10;&#9;&#9;c0.4,0.1,0.6,0.4,0.5,0.8c0,0,0,0.1,0,0.1l-4.8,18.1C130.6,311.5,130.3,311.7,130,311.7z"/>
	<path class="st1_fitness-1-79" d="M303,374.3c-0.4,0-0.7-0.3-0.7-0.7c0-0.3,0.1-0.5,0.4-0.6l14-7.1c0.3-0.2,0.8,0,0.9,0.3c0.2,0.3,0,0.8-0.3,0.9&#10;&#9;&#9;l-14,7.1C303.2,374.3,303.1,374.3,303,374.3z"/>
	<path class="st0_fitness-1-79" d="M277.1,151.9l15.1,42.3c10.8-5.9,21.9-11.1,33.4-15.4c0,0-1.2-8.1,2.4-11.5s6.7-5.3,7.1-4.3s1.8,3.8,1.8,3.8&#10;&#9;&#9;s3.5-4.8,5.5-3.8s3.9,12.3,3.8,15.3s-49.3,48.9-59.9,42.3s-25.9-38.2-25.9-38.2"/>
	<path class="st1_fitness-1-79" d="M289.1,221.9c-1.1,0-2.1-0.2-3-0.8c-10.6-6.7-25.5-37.2-26.1-38.5c-0.2-0.3,0-0.8,0.3-0.9&#10;&#9;&#9;c0.3-0.2,0.8,0,0.9,0.3c0.1,0.3,15.4,31.4,25.6,37.9c1.4,0.9,3.9,0.7,7.4-0.6c17.4-6.7,50.6-38.1,51.4-41.1c0-3.7-2-13.9-3.4-14.6&#10;&#9;&#9;c-1-0.5-3.4,1.9-4.6,3.6c-0.1,0.2-0.4,0.3-0.6,0.3c-0.2,0-0.5-0.2-0.6-0.4c-0.1-0.1-1.3-2.6-1.8-3.7c-0.6,0.1-2.6,1.2-6,4.4&#10;&#9;&#9;s-2.2,10.8-2.2,10.9c0.1,0.3-0.1,0.6-0.4,0.8c-11.4,4.4-22.6,9.5-33.3,15.4c-0.2,0.1-0.4,0.1-0.6,0c-0.2-0.1-0.3-0.2-0.4-0.4&#10;&#9;&#9;l-15.1-42.3c-0.1-0.4,0.1-0.8,0.4-0.9c0.4-0.1,0.8,0.1,0.9,0.4l14.8,41.5c10.4-5.6,21.2-10.6,32.3-14.8c-0.2-2-0.6-8.5,2.7-11.5&#10;&#9;&#9;c2.1-1.9,5.8-5.1,7.4-4.7c0.4,0.1,0.6,0.3,0.8,0.6c0.2,0.6,0.9,1.9,1.3,2.8c1.2-1.5,3.7-4.1,5.7-3.1c2.7,1.3,4.2,13.8,4.2,15.9&#10;&#9;&#9;c0,3-29.5,30.2-47.1,39.8C295.3,220.7,291.7,221.9,289.1,221.9z"/>
	<path class="st0_fitness-1-79" d="M337,166.2c0.9,1.9,1.7,3.8,2.3,5.8c0.7,1.9,0.9,3.9,0.6,5.9c-0.4,1.9-1.9,3.7-3.6,3.6c-2-0.2-3.2-2.6-3.7-4.8&#10;&#9;&#9;"/>
	<path class="st1_fitness-1-79" d="M336.6,182.2h-0.3c-2.9-0.3-4-4.1-4.3-5.3c-0.1-0.4,0.2-0.8,0.5-0.8s0.8,0.2,0.8,0.5c0.4,1.9,1.5,4.1,3.1,4.3&#10;&#9;&#9;c1.4,0.1,2.5-1.5,2.9-3c0.3-1.9,0-3.8-0.6-5.5c-0.6-2-1.5-3.9-2.3-5.8c-0.2-0.4,0-0.8,0.4-0.9c0.4-0.2,0.8,0,0.9,0.4c0,0,0,0,0,0&#10;&#9;&#9;c0.9,1.9,1.7,3.9,2.4,5.9c0.7,2,1,4.2,0.7,6.3C340.2,180.1,338.6,182.2,336.6,182.2z"/>
	<path class="st1_fitness-1-79" d="M287.7,202.4L287.7,202.4c-0.4,0-0.7-0.4-0.7-0.7c0,0,0,0,0,0c0.3-4.4,4.5-7.8,4.7-8c0.3-0.2,0.8-0.2,1,0.1&#10;&#9;&#9;c0,0,0,0,0,0c0.2,0.3,0.2,0.7-0.1,1c0,0,0,0,0,0c0,0-3.9,3.2-4.2,7C288.4,202.1,288.1,202.4,287.7,202.4z"/>
	<path class="st2_fitness-1-79 targetColor" d="M262.9,234.7l-62.1-11c0,0,6.1-37.9,6-71.8c0-10.6,30.7-26.7,42.8-22.1c12,4.6,24.9,15.6,28.6,21.1&#10;&#9;&#9;C279.8,153.2,259.7,222.9,262.9,234.7z" style="fill: rgb(104, 225, 253);"/>
	<path class="st1_fitness-1-79" d="M211.1,157.8c0,0-4.9,31,4.3,30.7s22.8-38.2,16.5-46.3S209.9,137.2,211.1,157.8z"/>
	<path class="st1_fitness-1-79" d="M215.3,189.2c-1.3,0-2.5-0.6-3.3-1.5c-5.2-5.9-1.9-28.2-1.6-29.9c-0.6-10,2.8-17.3,9.1-19.7&#10;&#9;&#9;c4.6-1.8,9.9-0.3,12.9,3.7c4.1,5.3,0.4,21.8-5.3,34c-2.3,4.9-6.9,13.2-11.7,13.4L215.3,189.2z M223.5,138.7c-1.2,0-2.4,0.2-3.5,0.6&#10;&#9;&#9;c-5.7,2.1-8.8,9-8.2,18.4c0,0,0,0.1,0,0.1c0,0.2-3.6,23.3,1.3,28.8c0.6,0.7,1.4,1.1,2.3,1.1c2.9-0.1,6.8-4.8,10.5-12.6&#10;&#9;&#9;c5.5-11.6,9.1-27.9,5.5-32.5C229.5,140.2,226.6,138.7,223.5,138.7L223.5,138.7z"/>
	<path class="st0_fitness-1-79" d="M155.5,178.2c-1.6,5.2,12.7,45.2,12.7,45.2s5.5,20.5,8.2,21.4s10.8,1.5,12.9,1.5c4.8,0,0.4-7.9-0.2-8.1&#10;&#9;&#9;c0,0,3.2,1.5,4.7-0.9s0.1-4.8-1.1-8.4s-8-3.9-8-3.9c-0.6-7.4-7.8-40.9-7.8-40.9s42.9-19.7,48.1-22.5s11.6-13.5,0-20.8&#10;&#9;&#9;S157.1,173,155.5,178.2z"/>
	<path class="st1_fitness-1-79" d="M189.2,247.1c-1.9,0-10.2-0.5-13.1-1.6s-7.3-17-8.6-21.9c-1.4-4.1-14.2-40.3-12.6-45.6l0,0&#10;&#9;&#9;c1.3-4.4,35-28.5,55.6-36.3c7.1-2.7,12.1-3.1,14.8-1.4c5.8,3.6,6.9,8,6.8,10.9c-0.3,4.6-2.9,8.7-6.9,11.1&#10;&#9;&#9;c-4.9,2.6-42.6,19.9-47.6,22.2c0.9,4.4,6.8,32,7.6,39.9c1.8,0.2,6.9,1,8.1,4.4c0.2,0.6,0.4,1.1,0.6,1.6c1.1,2.8,1.9,5.1,0.5,7.4&#10;&#9;&#9;c-0.8,1.2-2.2,1.9-3.6,1.7c0.9,1.6,1.4,3.4,1.4,5.2C192,246.1,190.7,247.2,189.2,247.1C189.2,247.1,189.2,247.1,189.2,247.1&#10;&#9;&#9;L189.2,247.1z M156.2,178.4c-1.1,3.6,7,28.8,12.6,44.8c2.6,9.7,6.3,20.5,7.8,21c2.5,0.9,10.5,1.5,12.6,1.5l0,0&#10;&#9;&#9;c1.1,0,1.3-0.5,1.4-0.7c0.6-1.6-1.4-5.4-2-6c-0.3-0.2-0.4-0.5-0.3-0.9c0.1-0.3,0.5-0.5,0.8-0.5l0.1,0.1l0,0c0.1,0,2.7,1.2,3.8-0.6&#10;&#9;&#9;s0.4-3.5-0.6-6.2c-0.2-0.5-0.4-1-0.6-1.6c-0.9-2.6-5.7-3.4-7.4-3.5c-0.3,0-0.6-0.3-0.7-0.6c-0.6-7.3-7.7-40.5-7.8-40.8&#10;&#9;&#9;c-0.1-0.3,0.1-0.6,0.4-0.8c0.4-0.2,43-19.7,48.1-22.5c3.5-2.1,5.8-5.8,6.1-9.9c0.1-3.7-2-7.1-6.2-9.7c-2.3-1.4-7-0.9-13.6,1.6&#10;&#9;&#9;C189.6,151,157.2,174.9,156.2,178.4L156.2,178.4z"/>
	<path class="st0_fitness-1-79" d="M233.9,291.1c-0.1,0-0.2,0-0.2,0c-14.9-6.5-28.4-31.6-29-32.7c-0.2-0.3,0-0.7,0.3-0.8c0.3-0.1,0.6,0,0.8,0.2&#10;&#9;&#9;c0.1,0.3,13.9,25.8,28.4,32.2c0.3,0.1,0.5,0.5,0.3,0.8C234.3,291,234.1,291.1,233.9,291.1L233.9,291.1z"/>
	<path class="st0_fitness-1-79" d="M280.1,98.6c-1-2-4.8-1.6-7-1.9c-3.9-0.6-7.8-0.8-11.8-0.6c-4,0.2-7.8,1.6-10.9,4.1&#10;&#9;&#9;c-6.6,5.7-5.4,18.3-6.1,26.2c-0.4,4.1-0.5,8.3-1.3,12.3v0.1c0.2,1.6,3.8,22.9,11.5,27.4c8.1,4.7,10.8-20,10.8-20l0.6-15.6&#10;&#9;&#9;c0,0,8.4,1.4,11.5-6c2.3-5.4,2.8-11.3,2.9-17.1C280.4,105.3,281.2,100.5,280.1,98.6z"/>
	<path class="st1_fitness-1-79" d="M256.6,167.5c-0.8,0-1.6-0.3-2.3-0.7c-7.9-4.6-11.5-25.5-11.9-27.9c0-0.1,0-0.2,0-0.3c0.5-3.1,0.9-6.3,1.1-9.5&#10;&#9;&#9;c0.1-0.9,0.1-1.8,0.2-2.8c0.1-1.6,0.2-3.4,0.2-5.2c0.2-7.5,0.6-16.8,6.1-21.5c3.2-2.6,7.2-4.1,11.3-4.3c4-0.2,8,0,11.9,0.7&#10;&#9;&#9;c0.5,0.1,1,0.1,1.6,0.1c2.2,0.1,4.9,0.2,5.9,2.1c0.9,1.6,0.6,4.8,0.4,7.2c-0.1,0.8-0.1,1.5-0.1,2.1c-0.1,5-0.5,11.5-2.9,17.4&#10;&#9;&#9;c-2.7,6.4-9.2,6.6-11.4,6.5l-0.6,14.8c-0.1,0.8-2,17.9-7.8,20.8C257.9,167.4,257.3,167.5,256.6,167.5z M243.8,138.7L243.8,138.7&#10;&#9;&#9;c0.1,0.9,3.6,22.5,11.2,26.9c0.8,0.6,1.9,0.6,2.8,0.2c4.2-2.1,6.5-14.9,7-19.7l0.6-15.5c0-0.2,0.1-0.4,0.2-0.5&#10;&#9;&#9;c0.2-0.1,0.4-0.2,0.6-0.1c0.3,0.1,7.9,1.2,10.7-5.6c2.4-5.7,2.8-12,2.8-16.9c0-0.6,0.1-1.3,0.1-2.1c0.2-2.2,0.4-5.2-0.3-6.5l0,0&#10;&#9;&#9;c-0.6-1.2-2.9-1.3-4.7-1.4c-0.6,0-1.2-0.1-1.7-0.1c-3.9-0.6-7.8-0.8-11.6-0.6c-3.8,0.2-7.5,1.6-10.5,4c-5.1,4.3-5.4,13.3-5.6,20.5&#10;&#9;&#9;c-0.1,1.9-0.1,3.7-0.3,5.3l-0.2,2.8C244.7,132.4,244.4,135.6,243.8,138.7L243.8,138.7z"/>
	<path class="st1_fitness-1-79" d="M265.7,138.8c-3.6-0.2-6.9-2.1-8.8-5.2c-3.3-5.2-2.1-8.7-2.1-8.7s4.4,5.4,11.2,5.7L265.7,138.8z"/>
	<path class="st1_fitness-1-79" d="M265.7,139.5c-3.8-0.2-7.3-2.2-9.4-5.5c-3.4-5.5-2.2-9.1-2.2-9.3c0.1-0.2,0.3-0.4,0.5-0.4c0.2,0,0.5,0,0.7,0.2&#10;&#9;&#9;c0,0,4.3,5.2,10.7,5.4c0.4,0,0.7,0.3,0.7,0.7l-0.3,8.2C266.4,139.2,266.1,139.5,265.7,139.5L265.7,139.5z M265.7,138.8L265.7,138.8&#10;&#9;&#9;z M255.4,126.5c0.1,2.4,0.8,4.8,2.2,6.8c1.6,2.7,4.4,4.5,7.5,4.8l0.3-6.8C261.6,130.8,258.1,129.1,255.4,126.5L255.4,126.5z"/>
	<path class="st0_fitness-1-79" d="M267.3,107.8c0,0,1.5,8.1,0,9.2s-4.2-1-4.2-1"/>
	<path class="st1_fitness-1-79" d="M266.2,118c-1.3-0.1-2.5-0.6-3.6-1.4c-0.3-0.2-0.4-0.7-0.1-1c0.2-0.3,0.7-0.4,1-0.1c0.6,0.4,2.5,1.6,3.4,1&#10;&#9;&#9;c0.6-0.4,0.5-4.5-0.3-8.5c-0.1-0.4,0.1-0.8,0.5-0.9c0.4-0.1,0.8,0.1,0.9,0.5c0,0,0,0.1,0,0.1c0.5,2.6,1.5,8.7-0.2,9.9&#10;&#9;&#9;C267.3,117.9,266.7,118,266.2,118z"/>
	<ellipse transform="matrix(0.1723 -0.985 0.985 0.1723 107.9044 347.3604)" class="st1_fitness-1-79" cx="260.6" cy="109.5" rx="1.9" ry="1.3"/>
	<ellipse transform="matrix(0.1723 -0.985 0.985 0.1723 117.6041 362.1061)" class="st1_fitness-1-79" cx="274.3" cy="111.1" rx="1.9" ry="1.3"/>
	<path class="st0_fitness-1-79" d="M250.1,112.8c0-0.8-0.2-1.7-0.7-2.4c-0.6-1.2-1.4-2.2-2.4-3.1c-1-0.9-2.3-1.4-3.6-1.4c-2.7,0.2-4.7,2.3-4.9,5&#10;&#9;&#9;c0,2.6,1.3,5.1,3.6,6.4c1.7,1.2,3.9,1.5,5.9,0.9"/>
	<path class="st1_fitness-1-79" d="M246,119.3c-1.5,0-3-0.5-4.3-1.3c-2.4-1.5-3.9-4.2-3.9-7.1c0.2-3,2.6-5.5,5.6-5.7l0,0c1.5,0,2.9,0.6,4,1.6&#10;&#9;&#9;c1,0.9,1.9,2,2.6,3.3c0.6,0.8,0.8,1.8,0.8,2.8c0,0.4-0.4,0.7-0.8,0.6c-0.4,0-0.7-0.4-0.6-0.8c0,0,0,0,0,0c0-0.7-0.2-1.4-0.6-1.9&#10;&#9;&#9;c-0.6-1.1-1.3-2.1-2.3-2.9c-0.9-0.8-2-1.2-3.1-1.2c-2.3,0.2-4.1,2.1-4.2,4.3c0,2.4,1.2,4.6,3.2,5.8c1.5,1.1,3.5,1.4,5.3,0.8&#10;&#9;&#9;c0.4-0.1,0.8,0,0.9,0.4c0.1,0.4,0,0.8-0.4,0.9C247.5,119.2,246.7,119.3,246,119.3z"/>
	<path class="st1_fitness-1-79" d="M271,123.9c-0.4,0-9.7-0.1-15-5.6c-0.3-0.3-0.3-0.7,0-1c0.3-0.3,0.7-0.3,1,0c0,0,0,0,0,0&#10;&#9;&#9;c4.9,5.1,14,5.2,14,5.2c0.4,0,0.7,0.3,0.7,0.7C271.7,123.5,271.4,123.8,271,123.9L271,123.9z"/>
	<path class="st0_fitness-1-79" d="M242.3,92.5l40,4.4c0.7,0.1,1.2,0.7,1.1,1.4l-0.5,4.8c-0.1,0.7-0.7,1.2-1.4,1.1l-40-4.4&#10;&#9;&#9;c-0.7-0.1-1.2-0.7-1.1-1.4l0.5-4.8C241,92.9,241.6,92.4,242.3,92.5z"/>
	<path class="st1_fitness-1-79" d="M281.2,104.8h-0.3l-39-4.3c-1.4-0.2-2.3-1.4-2.2-2.7l0.4-3.8c0.2-1.4,1.4-2.3,2.7-2.2c0,0,0,0,0,0l39,4.3&#10;&#9;&#9;c0.7,0.1,1.3,0.4,1.7,0.9c0.4,0.5,0.6,1.2,0.5,1.8l-0.4,3.8C283.5,103.9,282.5,104.8,281.2,104.8z M242.6,93.2c-0.6,0-1,0.4-1.1,1&#10;&#9;&#9;l-0.4,3.8c-0.1,0.6,0.4,1.1,1,1.2c0,0,0,0,0,0l39,4.3l0,0c0.6,0.1,1.1-0.4,1.2-1c0,0,0,0,0,0l0.4-3.8c0.1-0.6-0.4-1.1-0.9-1.2&#10;&#9;&#9;c0,0,0,0-0.1,0l-39-4.3H242.6z"/>
</g>
<g id="Treadmill_fitness-1-79">
	<path class="st3_fitness-1-79" d="M285.4,213.2h-58.3c-3.4,0-6.1-2.8-6.1-6.2l0,0c0-3.4,2.7-6.1,6.1-6.1H273c10,0,17.5-19.8,26.2-29.4&#10;&#9;&#9;s27.8-16.7,52.6-16.9L285.4,213.2z"/>
	<path class="st1_fitness-1-79" d="M285.4,213.9h-58.3c-3.8,0-6.8-3.1-6.8-6.8c0-3.8,3.1-6.8,6.8-6.8h45.8c6.2,0,11.7-8.6,17-16.9&#10;&#9;&#9;c2.8-4.4,5.7-8.9,8.7-12.2c9.5-10.4,29.9-17,53.1-17.2l0,0c0.3,0,0.5,0.2,0.6,0.4c0.1,0.3,0,0.6-0.2,0.8l-66.4,58.6&#10;&#9;&#9;C285.7,213.8,285.5,213.9,285.4,213.9z M227.1,201.6c-3,0-5.4,2.4-5.4,5.4s2.4,5.4,5.4,5.4h58l64.8-57.1&#10;&#9;&#9;c-22.1,0.5-41.2,6.8-50.2,16.7c-3.2,3.8-6,7.8-8.5,12c-5.5,8.6-11.2,17.6-18.2,17.6L227.1,201.6z"/>
	<path class="st3_fitness-1-79" d="M393.6,213.2c0,0-35.4,39.4-35.4,53.1c0,21,35.4,132.9,35.4,132.9h14.6c0,0-35.8-110.6-36.6-131.1&#10;&#9;&#9;c-0.6-15.9,38.3-54.9,38.3-54.9L393.6,213.2z"/>
	<path class="st1_fitness-1-79" d="M408.2,399.9h-14.6c-0.3,0-0.6-0.2-0.7-0.5c-1.4-4.6-35.4-112.3-35.4-133.1c0-13.8,34.1-52,35.6-53.6&#10;&#9;&#9;c0.1-0.1,0.3-0.2,0.5-0.2h16.2c0.4,0,0.7,0.3,0.7,0.7c0,0.2-0.1,0.4-0.2,0.5c-0.4,0.4-38.7,39-38.1,54.4&#10;&#9;&#9;c0.8,20.2,36.2,129.8,36.6,130.9c0.1,0.2,0,0.4-0.1,0.6C408.6,399.8,408.4,399.9,408.2,399.9z M394.1,398.5h13.1&#10;&#9;&#9;c-3.7-11.4-35.6-110.7-36.4-130.4c-0.6-14.6,30.7-47.5,37.3-54.3h-14.3c-2.9,3.3-35,39.7-35,52.4&#10;&#9;&#9;C358.9,286.2,391.6,390.4,394.1,398.5L394.1,398.5z"/>
	<path class="st3_fitness-1-79" d="M285.4,213.2c0,0-37.1,40.5-37.1,53.1c0,21,32.4,129.2,32.4,129.2h-14c0,0-32.5-110.3-30-131.2&#10;&#9;&#9;c2.1-17.8,33.7-51.1,33.7-51.1L285.4,213.2z"/>
	<path class="st1_fitness-1-79" d="M280.7,396.2h-14c-0.3,0-0.6-0.2-0.7-0.5c-1.3-4.5-32.5-110.7-30-131.5c2.1-17.8,32.6-50.1,33.9-51.5&#10;&#9;&#9;c0.1-0.1,0.3-0.2,0.5-0.2h15c0.3,0,0.5,0.2,0.6,0.4c0.1,0.3,0.1,0.6-0.1,0.8c-0.4,0.4-36.9,40.4-36.9,52.6&#10;&#9;&#9;c0,20.6,32.1,127.9,32.4,129c0.1,0.2,0,0.4-0.1,0.6C281.1,396.1,280.9,396.2,280.7,396.2z M267.2,394.8h12.5&#10;&#9;&#9;c-3.3-11.2-32.2-108.4-32.2-128.5c0-11.7,30-45.6,36.2-52.4h-13.1c-2.7,2.9-31.4,33.9-33.3,50.4C235,284.1,264.8,386.6,267.2,394.8&#10;&#9;&#9;z"/>
	<path class="st1_fitness-1-79" d="M227.1,395.5h179.9c3.4,0,6.2,2.8,6.2,6.2v5c0,3.4-2.8,6.2-6.2,6.2H227.1c-3.4,0-6.2-2.8-6.2-6.2v-5&#10;&#9;&#9;C220.8,398.3,223.6,395.5,227.1,395.5z"/>
	<path class="st1_fitness-1-79" d="M404.4,413.7H229.6c-5.2,0-9.4-4.2-9.4-9.4s4.2-9.4,9.4-9.4h174.9c5.2,0,9.4,4.2,9.4,9.4&#10;&#9;&#9;S409.7,413.7,404.4,413.7L404.4,413.7z M229.6,396.2c-4.4,0-8,3.6-8,8c0,4.4,3.6,8,8,8h174.9c4.4,0,8-3.6,8-8c0-4.4-3.6-8-8-8&#10;&#9;&#9;H229.6z"/>
	<path class="st1_fitness-1-79" d="M381,413h19.4l0,0v1.9c0,2.6-2.1,4.8-4.8,4.8c0,0,0,0,0,0h-9.9c-2.6,0-4.8-2.1-4.8-4.8c0,0,0,0,0,0L381,413&#10;&#9;&#9;L381,413z"/>
	<path class="st1_fitness-1-79" d="M393.7,420.3h-6.1c-4.1,0-7.4-3.3-7.4-7.4c0-0.4,0.3-0.7,0.7-0.7h0h19.4c0.4,0,0.7,0.3,0.7,0.7v0&#10;&#9;&#9;C401.1,417,397.8,420.3,393.7,420.3z M381.7,413.7c0.4,3,2.9,5.2,5.9,5.3h6.1c3,0,5.5-2.3,5.9-5.3H381.7z"/>
	<path class="st3_fitness-1-79" d="M259.4,413h19.4l0,0v1.9c0,2.6-2.1,4.8-4.8,4.8c0,0,0,0,0,0h-9.9c-2.6,0-4.8-2.1-4.8-4.8c0,0,0,0,0,0&#10;&#9;&#9;L259.4,413L259.4,413L259.4,413z"/>
	<path class="st1_fitness-1-79" d="M272.2,420.3h-6.1c-4.1,0-7.4-3.3-7.4-7.4c0-0.4,0.3-0.7,0.7-0.7h0h19.4c0.4,0,0.7,0.3,0.7,0.7v0&#10;&#9;&#9;C279.5,417,276.2,420.3,272.2,420.3z M260.2,413.7c0.4,3,2.9,5.2,5.9,5.3h6.1c3,0,5.5-2.3,5.9-5.3H260.2z"/>
	<path class="st3_fitness-1-79" d="M98.5,413h19.4l0,0v1.9c0,2.6-2.1,4.8-4.8,4.8h0h-9.9c-2.6,0-4.8-2.1-4.8-4.8l0,0L98.5,413L98.5,413z"/>
	<path class="st1_fitness-1-79" d="M111.2,420.3h-6.1c-4,0-7.3-3.3-7.4-7.3c0-0.4,0.3-0.7,0.7-0.7h0h19.4c0.4,0,0.7,0.3,0.7,0.7l0,0&#10;&#9;&#9;C118.6,417,115.3,420.3,111.2,420.3z M99.2,413.7c0.4,3,2.9,5.2,5.9,5.3h6.1c3,0,5.5-2.3,5.9-5.3H99.2z"/>
	<path class="st1_fitness-1-79" d="M285.4,213.2c0,0,19.6-37,36-49.1s59.3-13.3,77.6-4.2s24.1,27.9,14.6,53.3H285.4z"/>
	<path class="st1_fitness-1-79" d="M413.6,213.9H285.4c-0.2,0-0.5-0.1-0.6-0.3c-0.1-0.2-0.1-0.5,0-0.7c0.8-1.5,19.9-37.3,36.2-49.4&#10;&#9;&#9;c17-12.5,60.5-13.1,78.3-4.2c19.2,9.6,24.5,28.8,14.9,54.2C414.1,213.7,413.9,213.9,413.6,213.9z M286.6,212.5h126.5&#10;&#9;&#9;c9-24.4,3.9-42.8-14.4-52c-17.5-8.8-60.2-8.1-76.9,4.1C307.2,175.3,289.8,206.4,286.6,212.5L286.6,212.5z"/>
	<path class="st3_fitness-1-79" d="M88.1,395.5h206.5c3.4,0,6.2,2.8,6.2,6.2v5c0,3.4-2.8,6.2-6.2,6.2H88.1c-3.4,0-6.2-2.8-6.2-6.2v-5&#10;&#9;&#9;C81.8,398.3,84.6,395.5,88.1,395.5z"/>
	<path class="st1_fitness-1-79" d="M292,413.7H90.6c-5.2,0-9.4-4.2-9.4-9.4s4.2-9.4,9.4-9.4H292c5.2,0,9.4,4.2,9.4,9.4S297.2,413.7,292,413.7z&#10;&#9;&#9; M90.6,396.2c-4.4,0-8,3.6-8,8c0,4.4,3.6,8,8,8H292c4.4,0,8-3.6,8-8c0-4.4-3.6-8-8-8H90.6z"/>
</g>
</svg>