<svg version="1.1" id="Layer_1" xmlns="http://www.w3.org/2000/svg" xmlns:xlink="http://www.w3.org/1999/xlink" x="0px" y="0px" viewBox="0 0 500 500" style="width: 166px;" xml:space="preserve" data-imageid="girl-with-easter-egg-79" imageName="Girl With Easter Egg" class="illustrations_image">
<style type="text/css">
	.st0_girl-with-easter-egg-79{fill:#FFFFFF;}
	.st1_girl-with-easter-egg-79{fill:#231F20;}
	.st2_girl-with-easter-egg-79{fill:#D1D3D4;}
	.st3_girl-with-easter-egg-79{fill:#68E1FD;}
</style>
<g id="Holder_girl-with-easter-egg-79">
	<path class="st0_girl-with-easter-egg-79" d="M142.1,242.6c-3.3,0-6.1-2.6-6.3-5.9c-1.8-29.5,1.4-53.7,9.5-74.1c0,0,0-0.1,0.1-0.1&#10;&#9;&#9;c4.4-10.3,10.4-19.8,18.9-30c22.1-27,56.1-41.3,90.8-38.2h0.3c21.8,2.9,41,12.5,60.3,30.1l0.2,0.2c25.8,25.8,38.2,64.6,35.9,112.1&#10;&#9;&#9;c-0.1,3.5-3,6.2-6.5,6.1c-3.5-0.1-6.2-3-6.1-6.5c0-0.1,0-0.2,0-0.3c2.2-44.4-8.6-78.9-32.1-102.5c-17.3-15.7-34.2-24.2-53.3-26.8&#10;&#9;&#9;c-30.8-2.7-59.9,9.6-79.9,33.7c-7.7,9.3-13.1,17.8-17,26.9c-7.4,18.6-10.3,41.1-8.6,68.6c0.2,3.5-2.4,6.5-5.9,6.7L142.1,242.6z"/>
	<path class="st1_girl-with-easter-egg-79" d="M245.7,93.8c3.1,0,6.3,0.2,9.4,0.4h0.3c21.8,2.9,41,12.5,60.3,30.1l0.2,0.2c25.8,25.8,38.2,64.6,35.9,112.1&#10;&#9;&#9;c-0.2,3.4-2.9,6-6.3,6h-0.3c-3.5-0.2-6.2-3.1-6-6.6c0,0,0,0,0,0c2.2-44.4-8.6-78.9-32.1-102.5c-17.3-15.7-34.2-24.2-53.3-26.8&#10;&#9;&#9;c-2.8-0.2-5.7-0.4-8.5-0.4c-27.6,0-53.3,12.1-71.3,34.1c-7.7,9.3-13.1,17.8-17,26.9c-7.4,18.6-10.3,41.1-8.6,68.6&#10;&#9;&#9;c0.2,3.5-2.4,6.5-5.9,6.7h-0.4c-3.3,0-6.1-2.6-6.3-5.9c-1.8-29.5,1.4-53.7,9.5-74.1c0,0,0-0.1,0.1-0.1c4.4-10.3,10.4-19.8,18.9-30&#10;&#9;&#9;C184.3,108,214.2,93.9,245.7,93.8 M245.7,92.4c-32,0-62.2,14.4-82.4,39.2c-8.6,10.3-14.7,20-19.1,30.4l-0.1,0.2&#10;&#9;&#9;c-8.2,20.6-11.4,45-9.6,74.7c0.2,4.1,3.6,7.2,7.7,7.2h0.4c4.2-0.3,7.5-3.9,7.2-8.1c-1.6-27.3,1.2-49.6,8.5-68&#10;&#9;&#9;c3.8-8.9,9.2-17.4,16.8-26.5c17.8-21.7,42.8-33.6,70.3-33.6c2.8,0,5.6,0.1,8.4,0.4c18.7,2.5,35.4,10.9,52.4,26.4&#10;&#9;&#9;c23.2,23.2,33.9,57.4,31.7,101.4c-0.2,4.2,3,7.9,7.3,8.1c0,0,0,0,0,0h0.4c4.1,0,7.5-3.2,7.7-7.3c2.4-47.9-10.2-87.1-36.3-113.2&#10;&#9;&#9;l-0.3-0.2c-19.6-17.8-39-27.5-61.1-30.4h-0.3C252.1,92.6,248.9,92.5,245.7,92.4L245.7,92.4z"/>
	<path class="st1_girl-with-easter-egg-79" d="M148.8,223.4c-0.1,0-0.2,0-0.3-0.1c-11.8-6.5-13.8-14.1-13.8-14.4c-0.1-0.4,0.1-0.7,0.5-0.8c0,0,0,0,0,0&#10;&#9;&#9;c0.4-0.1,0.7,0.1,0.8,0.5c0,0,0,0,0,0c0,0.1,1.9,7.4,13.1,13.5c0.3,0.2,0.5,0.6,0.3,1C149.3,223.3,149.1,223.4,148.8,223.4z"/>
	<path class="st1_girl-with-easter-egg-79" d="M150,200.1c-0.1,0-0.3,0-0.4-0.1c-7.5-5.2-11.6-16.5-11.8-16.9c-0.1-0.4,0.1-0.8,0.4-0.9&#10;&#9;&#9;c0.4-0.1,0.8,0.1,0.9,0.4c0,0,0,0,0,0c0.1,0.1,4.1,11.4,11.3,16.3c0.3,0.2,0.4,0.7,0.2,1C150.5,199.9,150.2,200.1,150,200.1&#10;&#9;&#9;L150,200.1z"/>
	<path class="st1_girl-with-easter-egg-79" d="M155.1,174.6c-0.2,0-0.5-0.1-0.6-0.3c-6.5-9.8-7.4-17.7-7.4-18c-0.1-0.4,0.2-0.7,0.6-0.8&#10;&#9;&#9;c0.4-0.1,0.7,0.2,0.8,0.6c0,0,0,0.1,0,0.1c0,0.1,0.9,7.9,7.2,17.4c0.2,0.3,0.2,0.7-0.1,1c0,0,0,0-0.1,0&#10;&#9;&#9;C155.4,174.6,155.2,174.6,155.1,174.6z"/>
	<path class="st1_girl-with-easter-egg-79" d="M167.8,150.4c-0.3,0-0.5-0.1-0.6-0.4c-3.2-6.1-3.6-17.1-3.6-17.5c0-0.4,0.4-0.7,0.8-0.6c0.3,0,0.6,0.3,0.6,0.6&#10;&#9;&#9;c0,0.1,0.4,11.1,3.4,16.9c0.2,0.3,0.1,0.8-0.2,1c0,0,0,0-0.1,0C168.1,150.4,167.9,150.4,167.8,150.4z"/>
	<path class="st1_girl-with-easter-egg-79" d="M188.4,127.9c-0.4,0-0.7-0.3-0.7-0.7c0-6.1,0.6-12.2,1.8-18.2c0.1-0.4,0.4-0.6,0.8-0.5c0,0,0,0,0,0&#10;&#9;&#9;c0.4,0.1,0.6,0.4,0.6,0.8c0,0,0,0,0,0c-1.1,5.9-1.7,11.9-1.8,17.9C189.1,127.6,188.8,127.9,188.4,127.9L188.4,127.9z"/>
	<path class="st1_girl-with-easter-egg-79" d="M215.4,112.9h-0.2c-0.4-0.1-0.6-0.5-0.5-0.8c0.1-0.4,2.8-10.7,8.4-17.2c0.3-0.3,0.7-0.3,1-0.1&#10;&#9;&#9;c0.3,0.3,0.3,0.7,0.1,1c-5.4,6.3-8.1,16.6-8.1,16.7C216,112.7,215.8,112.9,215.4,112.9z"/>
	<path class="st1_girl-with-easter-egg-79" d="M250.2,108c-0.1,0-0.2,0-0.4-0.1c-0.3-0.2-0.5-0.6-0.3-0.9c0,0,0,0,0-0.1c0.2-0.4,5-8.8,13.2-12.3&#10;&#9;&#9;c0.3-0.2,0.8-0.1,1,0.3c0.2,0.3,0.1,0.8-0.3,1c0,0-0.1,0-0.1,0.1c-7.8,3.3-12.5,11.6-12.6,11.7C250.7,107.8,250.5,108,250.2,108z"/>
	<path class="st1_girl-with-easter-egg-79" d="M281,115.8c-0.2,0-0.4-0.1-0.6-0.3c-0.2-0.3-0.2-0.7,0.1-1c0,0,0,0,0,0c0.4-0.2,8.7-5.9,17.2-5&#10;&#9;&#9;c0.4,0,0.7,0.4,0.6,0.8c0,0.4-0.4,0.7-0.8,0.6c-8-0.8-16.1,4.8-16.2,4.8C281.3,115.8,281.1,115.9,281,115.8z"/>
	<path class="st1_girl-with-easter-egg-79" d="M307.2,134.2c-0.4,0-0.7-0.3-0.7-0.7c0-0.3,0.2-0.6,0.4-0.7c0.2-0.1,5.4-2.2,15.1-2.5c0.4,0,0.7,0.3,0.7,0.7&#10;&#9;&#9;c0,0,0,0,0,0c0,0.4-0.3,0.7-0.7,0.7c-9.4,0.2-14.6,2.3-14.6,2.4C307.4,134.2,307.3,134.2,307.2,134.2z"/>
	<path class="st1_girl-with-easter-egg-79" d="M340.5,161.7c-0.1,0-0.3,0-0.4-0.1c-9.8-5.9-16.2-3.8-16.3-3.7c-0.4,0.1-0.8-0.1-0.9-0.4&#10;&#9;&#9;c-0.1-0.4,0.1-0.8,0.4-0.9l0,0c0.3-0.1,7.1-2.4,17.5,3.9c0.3,0.2,0.4,0.6,0.2,1C341,161.6,340.8,161.7,340.5,161.7L340.5,161.7z"/>
	<path class="st1_girl-with-easter-egg-79" d="M350.5,195.9c-0.2,0-0.4-0.1-0.5-0.2c-4-3.8-9-6.4-14.4-7.4c-0.4-0.1-0.6-0.4-0.6-0.8c0.1-0.4,0.4-0.6,0.8-0.6&#10;&#9;&#9;c5.7,1.1,11,3.8,15.2,7.8c0.3,0.3,0.3,0.7,0,1c0,0,0,0,0,0C350.9,195.8,350.7,195.9,350.5,195.9z"/>
</g>
<ellipse id="Shadow_girl-with-easter-egg-79" class="st2_girl-with-easter-egg-79" cx="245.8" cy="395.9" rx="79.8" ry="11.7"/>
<g id="Eggs_girl-with-easter-egg-79">
	<path class="st3_girl-with-easter-egg-79 targetColor" d="M310.9,213.6c-0.7,4.2-2,8.4-3.7,12.3c-0.8,1.8-1.7,3.5-2.7,5.1c-1.3,2.2-2.9,4.2-4.6,6.1&#10;&#9;&#9;c-2.1,2.3-4.6,4.3-7.2,6c-8.7,5.4-19.4,7-30.6,5c-7.9-1.3-15.3-4.6-21.4-9.7c-2.1-1.8-4.1-3.9-5.8-6.1l0,0&#10;&#9;&#9;c-1.9-2.6-3.5-5.4-4.6-8.4c-0.6-1.6-1.2-3.3-1.6-5c-1.5-6.7-1.6-13.6-0.3-20.3c1.2-6.4,3.3-12.6,6.1-18.5c0.6-1.2,1.2-2.4,1.8-3.5&#10;&#9;&#9;c10.1-18.3,27.3-31.8,43.9-28.8c16.8,3,28.2,22.2,31.1,43.1c0.2,1.3,0.3,2.6,0.4,3.8C312.2,201.1,312,207.4,310.9,213.6z" style="fill: rgb(104, 225, 253);"/>
	<path class="st1_girl-with-easter-egg-79" d="M275.5,147.5c1.6,0,3.1,0.1,4.7,0.4c16.8,3,28.2,22.2,31.1,43.1c0.2,1.3,0.3,2.6,0.4,3.8&#10;&#9;&#9;c0.6,6.3,0.3,12.6-0.8,18.8c-0.7,4.2-2,8.4-3.7,12.3c-0.8,1.8-1.7,3.5-2.7,5.1c-1.3,2.2-2.9,4.2-4.6,6.1c-2.1,2.3-4.6,4.3-7.2,6&#10;&#9;&#9;c-6.5,3.9-13.9,6-21.4,5.8c-3.1,0-6.2-0.3-9.2-0.9c-7.9-1.3-15.3-4.6-21.4-9.7c-2.1-1.8-4.1-3.9-5.8-6.1l0,0&#10;&#9;&#9;c-1.9-2.6-3.5-5.4-4.6-8.4c-0.6-1.6-1.2-3.3-1.6-5c-1.5-6.7-1.6-13.6-0.3-20.3c1.2-6.4,3.3-12.6,6.1-18.5c0.6-1.2,1.2-2.4,1.8-3.5&#10;&#9;&#9;C245.4,160.2,260.4,147.5,275.5,147.5 M275.5,146.1L275.5,146.1c-14.5,0-30.4,11.8-40.4,30c-0.6,1.1-1.3,2.4-1.9,3.6&#10;&#9;&#9;c-2.9,6-5.1,12.3-6.3,18.8c-1.4,6.9-1.3,14,0.3,20.9c0.4,1.8,1,3.5,1.6,5.2c1.2,3.1,2.8,6,4.8,8.6l0.1,0.1l0,0&#10;&#9;&#9;c1.7,2.3,3.7,4.4,5.9,6.2c6.4,5.2,14,8.7,22.1,10c3.1,0.6,6.3,0.9,9.4,0.9c7.8,0.1,15.5-2,22.2-6c2.8-1.7,5.3-3.8,7.5-6.2&#10;&#9;&#9;c1.8-1.9,3.4-4,4.8-6.3c1-1.7,2-3.5,2.8-5.3c1.8-4,3.1-8.3,3.8-12.6c1.1-6.3,1.4-12.8,0.8-19.1c-0.1-1.3-0.2-2.6-0.4-3.9&#10;&#9;&#9;c-2.7-19.6-13.7-41-32.2-44.3C278.8,146.3,277.1,146.2,275.5,146.1L275.5,146.1z"/>
	<path class="st0_girl-with-easter-egg-79" d="M311.7,194.9c-3.7,0.7-7,3-8.8,6.3c-1.2,2.3-1.9,4.9-4,6.5c-2.1,1.5-4.9,1.5-7,0c-2-1.4-3.4-3.5-3.8-5.9&#10;&#9;&#9;c-0.3-1.5-0.4-3-0.4-4.5c0-1.1,0.2-2.9-0.3-4c-1.2-2.4-3.9,1.1-4.5,2.2c-1.1,2.3-1.6,4.8-3.2,6.8c-3.2,3.9-8.5,3.1-11.7-0.2&#10;&#9;&#9;c-4-4.2-3.3-9.8-4.6-15c-0.1-0.5-0.2-1.4-0.8-1.5s-1.2,0.3-1.6,0.6c-0.9,0.6-1.7,1.4-2.3,2.3c-1.4,2.1-2.5,4.3-3.4,6.7&#10;&#9;&#9;c-1.6,3.8-4.5,10.5-9.8,8.5c-4.9-1.9-5.9-8.1-6.1-12.7c-0.1-2.7-0.1-5.8-1.6-8.2c-0.7-1.2-1.8-2.1-3.1-2.5c0.6-1.2,1.2-2.4,1.8-3.5&#10;&#9;&#9;c3.1,1.3,5.4,4.7,6.1,8c0.7,3.1,0.4,6.2,0.9,9.3c0.3,1.7,1.8,7.3,4.5,5.8c2-1.1,3-4.4,3.8-6.4c0.9-2.3,2.1-4.6,3.4-6.7&#10;&#9;&#9;c1.3-2.1,3.2-3.8,5.4-4.7c2.3-1,5,0,6,2.3c2.2,4.7,0.4,11.2,4.3,15.1c1.6,1.5,3.9,2.5,5.6,0.7s2.2-4.8,3.4-7c1-2.1,2.9-3.6,5.1-4.2&#10;&#9;&#9;c2.2-0.6,4.6,0.4,5.8,2.4c1.3,2.4,0.7,5.5,0.9,8.1c0.2,2.1,1.1,5.5,3.8,5.6c2.2,0.1,3.1-3.4,3.9-5c1-2.1,2.5-4,4.4-5.5&#10;&#9;&#9;c2.2-1.8,4.8-3,7.6-3.4C311.4,192.3,311.6,193.6,311.7,194.9z"/>
	<path class="st0_girl-with-easter-egg-79" d="M307.2,225.9c-0.8,1.8-1.7,3.5-2.7,5.1c-6.1,2.1-12.5,3.5-19,4.1c-9.5,0.7-19.2-0.1-28.4-2.4&#10;&#9;&#9;c-9.2-2.1-18.2-5-26.9-8.8c-0.6-1.6-1.2-3.3-1.6-5c2.6,1.3,5.3,2.4,8,3.5c8.8,3.5,18,6.1,27.3,7.8c8.5,1.6,17.2,1.8,25.7,0.6&#10;&#9;&#9;C295.6,229.9,301.5,228.2,307.2,225.9z"/>
	<path class="st0_girl-with-easter-egg-79" d="M299.9,237.1c-2.1,2.3-4.6,4.3-7.2,6c-3.2,0.7-6.5,1.2-9.8,1.5c-9.6,0.7-19.2-0.1-28.4-2.4&#10;&#9;&#9;c-4.6-1.1-9.2-2.3-13.8-3.8c-2.1-1.8-4.1-3.9-5.8-6.1c8.5,3.3,17.3,5.7,26.3,7.4c8.5,1.6,17.2,1.8,25.7,0.6&#10;&#9;&#9;C291.3,239.6,295.6,238.6,299.9,237.1z"/>
	<circle class="st0_girl-with-easter-egg-79" cx="261.3" cy="211.5" r="4.4"/>
	<circle class="st0_girl-with-easter-egg-79" cx="245.7" cy="217.6" r="4.4"/>
	<circle class="st0_girl-with-easter-egg-79" cx="273.3" cy="225" r="4.4"/>
	<circle class="st0_girl-with-easter-egg-79" cx="277.4" cy="177.9" r="4.4"/>
	<circle class="st0_girl-with-easter-egg-79" cx="286.5" cy="216.1" r="4.4"/>
	<circle class="st0_girl-with-easter-egg-79" cx="295.6" cy="166.2" r="4.4"/>
	<circle class="st0_girl-with-easter-egg-79" cx="270.3" cy="161.6" r="4.4"/>
	
		<ellipse transform="matrix(0.1602 -0.9871 0.9871 0.1602 50.1465 395.3801)" class="st0_girl-with-easter-egg-79" cx="257.4" cy="168.2" rx="4.4" ry="4.4"/>
	<circle class="st0_girl-with-easter-egg-79" cx="301.1" cy="218.8" r="4.4"/>
	<circle class="st0_girl-with-easter-egg-79" cx="297.3" cy="181.6" r="4.4"/>
	<path class="st0_girl-with-easter-egg-79" d="M241.2,202.4c1,6.1,0.8,12.4-0.5,18.5c-2.1,9.5-7.9,17.8-16.2,23c-3.8,2.4-8,4.2-12.3,5.4l0,0&#10;&#9;&#9;c-2.1,0.6-4.2,1-6.3,1.3c-2.1,0.3-4.3,0.5-6.4,0.6l0,0c-4.4,0.1-8.8-0.4-13-1.5c-9.9-2.6-18.3-9.3-23.1-18.4&#10;&#9;&#9;c-2.7-5.2-4.5-10.8-5.3-16.7c-0.4-3-0.7-6.1-0.7-9.1c-0.1-10.5,2-21,6.2-30.7c1.7-4,3.9-7.8,6.5-11.3c4.8-6.4,10.8-11.1,17.8-13.1&#10;&#9;&#9;c1-0.2,2.1-0.4,3.1-0.6c1.1-0.1,2.1-0.2,3.2-0.3c7.9-0.2,15.8,3.2,22.8,8.9c2.1,1.7,4.1,3.6,5.9,5.6c6.8,7.5,12,16.3,15.3,25.9&#10;&#9;&#9;C239.5,194.2,240.5,198.2,241.2,202.4z"/>
	<path class="st1_girl-with-easter-egg-79" d="M194.8,149.7c7.7,0,15.4,3.4,22.1,8.9c2.1,1.7,4.1,3.6,5.9,5.6c6.8,7.5,12,16.3,15.3,25.9&#10;&#9;&#9;c1.4,4,2.4,8.1,3,12.3c1,6.1,0.8,12.4-0.5,18.5c-2.1,9.5-7.9,17.8-16.2,23c-3.8,2.4-8,4.2-12.3,5.4l0,0c-2.1,0.6-4.2,1-6.3,1.3&#10;&#9;&#9;c-2.1,0.3-4.3,0.5-6.4,0.6l0,0h-1.2c-4,0-7.9-0.5-11.8-1.5c-9.9-2.6-18.3-9.3-23.1-18.4c-2.7-5.2-4.5-10.8-5.3-16.7&#10;&#9;&#9;c-0.4-3-0.7-6.1-0.7-9.1c-0.1-10.5,2-21,6.2-30.7c1.7-4,3.9-7.8,6.5-11.3c4.8-6.4,10.8-11.1,17.8-13.1c1-0.2,2-0.4,3.1-0.5&#10;&#9;&#9;c1.1-0.1,2.1-0.2,3.2-0.3L194.8,149.7 M194.8,148.3h-0.7c-1.1,0-2.2,0.1-3.4,0.3c-1.1,0.2-2.2,0.4-3.2,0.7&#10;&#9;&#9;c-6.9,1.9-13.3,6.6-18.5,13.6c-2.6,3.6-4.9,7.4-6.7,11.5c-4.3,9.9-6.4,20.5-6.3,31.2c0,3.1,0.3,6.2,0.7,9.3&#10;&#9;&#9;c0.8,6,2.7,11.7,5.5,17.1c4.9,9.4,13.6,16.4,23.9,19.1c4,1.1,8,1.6,12.1,1.6h1.3l0,0c4.4-0.1,8.8-0.8,13-1.9l0,0&#10;&#9;&#9;c4.5-1.2,8.8-3.1,12.7-5.6c8.6-5.4,14.6-14,16.8-23.9c1.3-6.2,1.5-12.7,0.5-19c-0.6-4.3-1.7-8.4-3.1-12.5&#10;&#9;&#9;c-3.3-9.8-8.6-18.8-15.6-26.4c-1.9-2.1-3.9-4-6.1-5.7C210.4,151.6,202.4,148.4,194.8,148.3L194.8,148.3z"/>
	<path class="st3_girl-with-easter-egg-79 targetColor" d="M170.1,191.4c-1.1,8.6-6.5,15-12,14.3c-0.2,0-0.4-0.1-0.7-0.1c-0.1-10.5,2-21,6.2-30.7&#10;&#9;&#9;C168.3,176.7,171.1,183.6,170.1,191.4z" style="fill: rgb(104, 225, 253);"/>
	
		<ellipse transform="matrix(0.9892 -0.1463 0.1463 0.9892 -28.7742 28.6917)" class="st3_girl-with-easter-egg-79 targetColor" cx="180.7" cy="210" rx="10.1" ry="15.7" style="fill: rgb(104, 225, 253);"/>
	<path class="st3_girl-with-easter-egg-79 targetColor" d="M187.9,150.6c-0.3,1.2-0.8,2.3-1.3,3.4c-3.6,7.9-10.7,12.4-15.7,10.1c-0.3-0.1-0.5-0.3-0.8-0.4&#10;&#9;&#9;C175,157.2,181,152.5,187.9,150.6z" style="fill: rgb(104, 225, 253);"/>
	<path class="st3_girl-with-easter-egg-79 targetColor" d="M217,158.6c-3.9,3.5-11.6,2.2-17.9-3.2c-1.9-1.6-3.6-3.6-4.9-5.8C202.1,149.5,210,152.9,217,158.6z" style="fill: rgb(104, 225, 253);"/>
	
		<ellipse transform="matrix(0.9892 -0.1463 0.1463 0.9892 -27.9614 34.3765)" class="st3_girl-with-easter-egg-79 targetColor" cx="219.8" cy="207.3" rx="10.1" ry="15.7" style="fill: rgb(104, 225, 253);"/>
	
		<ellipse transform="matrix(0.9892 -0.1463 0.1463 0.9892 -24.1065 30.4943)" class="st3_girl-with-easter-egg-79 targetColor" cx="195.3" cy="179.2" rx="10.1" ry="15.7" style="fill: rgb(104, 225, 253);"/>
	<path class="st3_girl-with-easter-egg-79 targetColor" d="M214,236.9c0.7,4.3,0.1,8.6-1.8,12.5l0,0c-2.1,0.6-4.2,1-6.3,1.3c-2.1,0.3-4.3,0.5-6.4,0.6l0,0&#10;&#9;&#9;c-3-3.1-4.8-7.1-5.4-11.4c-1.3-8.6,2.1-16.2,7.6-17S212.8,228.3,214,236.9z" style="fill: rgb(104, 225, 253);"/>
	<path class="st3_girl-with-easter-egg-79 targetColor" d="M186.5,249.7c-9.9-2.6-18.3-9.3-23.1-18.4c0.3-0.4,0.6-0.7,1-1c4.4-3.4,12.2-0.6,17.6,6.3&#10;&#9;&#9;C185.4,240.9,186.9,245.8,186.5,249.7z" style="fill: rgb(104, 225, 253);"/>
	<path class="st3_girl-with-easter-egg-79 targetColor" d="M240.7,220.9c-2.1,9.5-7.9,17.8-16.2,23c-0.9-3.7-0.1-8.7,2.5-13.3C230.4,224.3,236.1,220.5,240.7,220.9z" style="fill: rgb(104, 225, 253);"/>
	<path class="st3_girl-with-easter-egg-79 targetColor" d="M238.2,190.1c-4.5,0.4-10.1-3.2-13.7-9.2s-4.1-12.9-1.5-16.7C229.7,171.7,234.9,180.5,238.2,190.1z" style="fill: rgb(104, 225, 253);"/>
	<path class="st3_girl-with-easter-egg-79 targetColor" d="M332.1,244.5c-0.9,1.7-1.7,3.4-2.7,4.9c-2.3,3.8-5.1,7.2-8.3,10.2c-12.8,11.6-29.8,12.4-45.5,4.7&#10;&#9;&#9;c-12.8-6.3-21.7-16.8-23.8-29.8c-0.6-4.1-0.6-8.4,0.1-12.5c0.9-5,2.5-9.9,4.8-14.5c1.6-3.3,3.6-6.5,5.7-9.6&#10;&#9;&#9;c1.6-2.3,3.4-4.5,5.3-6.6c4.1-4.6,8.8-8.7,14-12.2c2.4-1.6,4.8-3,7.4-4.3c10.7-5.2,22-6.6,31.3-2.1c8.6,4.2,14.2,12.8,16.9,23.3&#10;&#9;&#9;c0.7,2.8,1.2,5.6,1.5,8.4c0.6,5.9,0.6,11.9-0.2,17.9c-0.4,2.9-1,5.8-1.7,8.6C335.9,235.7,334.2,240.2,332.1,244.5z" style="fill: rgb(104, 225, 253);"/>
	<path class="st1_girl-with-easter-egg-79" d="M308.1,170.1c4.3,0,8.5,0.9,12.3,2.8c8.6,4.2,14.2,12.8,16.9,23.3c0.7,2.8,1.2,5.6,1.5,8.4&#10;&#9;&#9;c0.6,5.9,0.6,11.9-0.2,17.9c-0.4,2.9-1,5.8-1.7,8.6c-1.2,4.6-2.8,9.1-4.9,13.4c-0.9,1.7-1.7,3.4-2.7,4.9c-2.3,3.8-5.1,7.2-8.3,10.2&#10;&#9;&#9;c-6.8,6.3-15.7,9.8-25,9.8c-7.1-0.1-14.1-1.8-20.4-5c-12.9-6.3-21.7-16.8-23.8-29.8c-0.6-4.1-0.6-8.4,0.1-12.5&#10;&#9;&#9;c0.9-5,2.5-9.9,4.8-14.5c1.6-3.3,3.6-6.5,5.7-9.6c1.6-2.3,3.4-4.5,5.3-6.6c4.1-4.6,8.8-8.7,14-12.2c2.4-1.6,4.8-3,7.4-4.3&#10;&#9;&#9;C295.1,171.9,301.6,170.3,308.1,170.1 M308.2,168.7L308.2,168.7c-6.8,0.2-13.5,1.9-19.6,5c-2.6,1.3-5.1,2.7-7.6,4.4&#10;&#9;&#9;c-5.3,3.5-10,7.7-14.2,12.4c-1.9,2.2-3.7,4.4-5.4,6.8c-2.2,3.1-4.2,6.4-5.9,9.8c-2.3,4.7-4,9.7-4.9,14.8c-0.7,4.3-0.7,8.6-0.1,12.9&#10;&#9;&#9;c2.1,13.1,10.8,24.1,24.6,30.8c6.5,3.3,13.7,5.1,21,5.1c9.6,0,18.9-3.6,26-10.1c3.3-3.1,6.2-6.6,8.5-10.5c1-1.6,1.9-3.2,2.8-5&#10;&#9;&#9;c2.1-4.4,3.8-9,5-13.7c0.7-2.9,1.3-5.8,1.7-8.8c0.8-6,0.9-12.1,0.2-18.2c-0.3-2.9-0.9-5.8-1.6-8.6c-3.1-11.7-9.2-20-17.7-24.2&#10;&#9;&#9;C317.1,169.7,312.6,168.7,308.2,168.7L308.2,168.7z"/>
	<path class="st0_girl-with-easter-egg-79" d="M338.9,204.6c-20.5-0.4-40-8.6-54.7-22.9c-0.8-0.8-1.6-1.6-2.5-2.5c2.4-1.6,4.8-3,7.4-4.3&#10;&#9;&#9;c1.3,1.2,2.5,2.3,3.7,3.3c9.3,8.1,20.5,13.7,32.5,16.3c3.9,0.9,8,1.4,12,1.6C338.1,198.9,338.6,201.7,338.9,204.6z"/>
	<path class="st0_girl-with-easter-egg-79" d="M329.4,249.4c-2.3,3.8-5.1,7.2-8.3,10.2c-17.5,2.1-35.2-1.6-50.4-10.5c-6.9-4-13.2-8.9-18.8-14.6&#10;&#9;&#9;c-0.6-4.1-0.6-8.4,0.1-12.5c1.8,2.2,3.7,4.4,5.7,6.4c11.8,12,27.5,20.6,44.2,22.7C311.1,252.4,320.5,251.8,329.4,249.4z"/>
	<path class="st0_girl-with-easter-egg-79" d="M337,231.1c-16.9,1.7-33.8-2.1-48.4-10.9c-9.2-5.5-17.5-12.4-24.6-20.4l-1.6-1.8c1.6-2.3,3.4-4.5,5.3-6.6&#10;&#9;&#9;c2.5,2.9,5.1,5.7,7.9,8.4c13,12.4,29.2,21.5,47.3,23.2c5.2,0.5,10.5,0.3,15.7-0.5C338.3,225.3,337.7,228.2,337,231.1z"/>
	<path class="st0_girl-with-easter-egg-79" d="M284.7,189.4c-4.5-2.2-7.9,4.7-3.4,6.9S289.2,191.6,284.7,189.4z"/>
	<path class="st0_girl-with-easter-egg-79" d="M304.4,201.3c-4.5-2.2-7.8,4.7-3.4,6.9S308.8,203.4,304.4,201.3z"/>
	<path class="st0_girl-with-easter-egg-79" d="M326.5,209c-4.5-2.2-7.8,4.7-3.4,6.9S330.9,211.2,326.5,209z"/>
	<path class="st0_girl-with-easter-egg-79" d="M267,217.6c-4.5-2.2-7.8,4.7-3.4,6.9S271.4,219.8,267,217.6z"/>
	<path class="st0_girl-with-easter-egg-79" d="M290.5,233.1l-0.2-0.1c-4.5-2.2-7.9,4.7-3.4,6.9l0.2,0.1C291.6,242.2,295,235.3,290.5,233.1z"/>
	<path class="st0_girl-with-easter-egg-79" d="M319,242.2c0.1-0.5,0-1-0.2-1.5c-0.4-0.9-1.1-1.7-2-2.2l-1-0.3c-0.7-0.1-1.4-0.1-2,0.1l-0.9,0.4&#10;&#9;&#9;c-0.6,0.4-1,0.9-1.3,1.5l-0.2,0.4c-0.2,0.5-0.4,1-0.4,1.5c-0.1,1.5,0.8,2.9,2.1,3.7l1,0.3c0.7,0.1,1.4,0.1,2-0.1l0.9-0.4&#10;&#9;&#9;c0.6-0.4,1-0.9,1.3-1.5l0.2-0.4C318.9,243.2,319,242.7,319,242.2z"/>
	<path class="st0_girl-with-easter-egg-79" d="M308.6,173.9c-4.5-2.2-7.8,4.7-3.4,6.9S313,176.1,308.6,173.9z"/>
	<path class="st0_girl-with-easter-egg-79" d="M324.3,181.2c-4.5-2.2-7.9,4.7-3.4,6.9S328.8,183.4,324.3,181.2z"/>
	<path class="st3_girl-with-easter-egg-79 targetColor" d="M278.6,219.4c0.2,1.8,0.3,3.5,0.3,5.2c0.1,3.6-0.3,7.2-1,10.7c-0.8,3.8-2.2,7.5-4,10.9&#10;&#9;&#9;c-6.5,11.6-18.5,18.3-32.8,19.8c-2.4,0.2-4.9,0.3-7.3,0.2c-4.2-0.1-8.4-0.9-12.4-2.2c-2.9-1-5.7-2.3-8.3-3.9&#10;&#9;&#9;c-2.5-1.6-4.8-3.5-6.9-5.7c-1.6-1.7-3-3.5-4.2-5.4c-1.6-2.6-3-5.3-4-8.1c-1.3-3.6-2.2-7.2-2.7-11c-0.1-0.7-0.2-1.4-0.3-2.1&#10;&#9;&#9;c-0.3-3-0.4-6-0.3-9c0.1-4.1,0.6-8.3,1.5-12.3l0,0c1-4.7,2.4-9.3,4.2-13.8c6.2-15,17.1-26.6,30.5-28c6-0.5,12.1,0.9,17.3,3.9&#10;&#9;&#9;c3,1.7,5.9,3.8,8.4,6.1c2.3,2.1,4.5,4.4,6.5,6.9c1.9,2.4,3.6,4.8,5.1,7.4c2,3.3,3.7,6.8,5.2,10.3c1.1,2.7,2.1,5.4,2.9,8.2&#10;&#9;&#9;c0.7,2.6,1.3,5.3,1.8,8C278.4,216.8,278.5,218.1,278.6,219.4z" style="fill: rgb(104, 225, 253);"/>
	<path class="st1_girl-with-easter-egg-79" d="M233.6,164.5c5.2,0.1,10.2,1.4,14.7,4c3,1.7,5.9,3.8,8.4,6.1c2.3,2.1,4.5,4.4,6.5,6.9c1.9,2.4,3.6,4.8,5.1,7.4&#10;&#9;&#9;c2,3.3,3.7,6.8,5.2,10.3c1.1,2.7,2.1,5.4,2.9,8.2c0.7,2.6,1.3,5.3,1.8,8c0.2,1.3,0.4,2.6,0.5,3.8c0.2,1.8,0.3,3.5,0.3,5.2&#10;&#9;&#9;c0.1,3.6-0.3,7.2-1,10.7c-0.8,3.8-2.2,7.5-4,10.9c-6.5,11.6-18.5,18.4-32.8,19.8c-1.8,0.2-3.6,0.3-5.3,0.3c-0.7,0-1.3,0-2,0&#10;&#9;&#9;c-4.2-0.1-8.4-0.9-12.4-2.2c-2.9-1-5.7-2.3-8.3-3.9c-2.5-1.6-4.8-3.5-6.9-5.7c-1.6-1.7-3-3.5-4.2-5.4c-1.6-2.6-3-5.3-4-8.1&#10;&#9;&#9;c-1.3-3.6-2.2-7.2-2.7-11c-0.1-0.7-0.2-1.4-0.3-2.1c-0.3-3-0.4-6-0.3-9c0.1-4.1,0.6-8.3,1.5-12.3l0,0c1-4.7,2.4-9.3,4.2-13.8&#10;&#9;&#9;c6.2-15,17.1-26.6,30.5-28C231.9,164.5,232.8,164.5,233.6,164.5 M233.6,163.1c-0.9,0-1.8,0-2.7,0.1c-12.9,1.3-24.7,12.1-31.6,28.9&#10;&#9;&#9;c-1.9,4.5-3.3,9.2-4.3,14c0,0,0,0,0,0.1c-0.8,4.1-1.3,8.3-1.5,12.5c-0.1,3.1,0,6.1,0.3,9.2c0.1,0.7,0.2,1.5,0.3,2.2&#10;&#9;&#9;c0.5,3.8,1.4,7.6,2.7,11.2c1.1,2.9,2.5,5.8,4.2,8.4c1.3,2,2.7,3.9,4.4,5.6c2.1,2.2,4.5,4.2,7.1,5.9c2.7,1.7,5.6,3.1,8.6,4.1&#10;&#9;&#9;c4.1,1.4,8.4,2.1,12.8,2.3c0.7,0,1.4,0,2.1,0c1.8,0,3.6-0.1,5.4-0.3c15.3-1.5,27.3-8.8,33.8-20.5c2-3.5,3.4-7.4,4.2-11.3&#10;&#9;&#9;c0.7-3.6,1.1-7.3,1-11c0-1.7-0.1-3.5-0.3-5.3c-0.1-1.3-0.3-2.6-0.5-3.9c-0.4-2.7-1-5.4-1.8-8.1c-1.9-6.6-4.7-13-8.2-18.9&#10;&#9;&#9;c-1.6-2.6-3.3-5.2-5.2-7.6c-2-2.5-4.2-4.9-6.6-7.1c-2.6-2.4-5.6-4.5-8.7-6.3C244.3,164.6,239,163.1,233.6,163.1L233.6,163.1z"/>
	<path class="st0_girl-with-easter-egg-79" d="M256.7,174.7c-21.3,8-42.4,17.9-60.4,31.7c1-4.7,2.4-9.3,4.2-13.8c14.9-9.9,31.1-17.5,47.8-24.1&#10;&#9;&#9;C251.3,170.3,254.2,172.3,256.7,174.7z"/>
	<path class="st0_girl-with-easter-egg-79" d="M268.3,189c-26.2,9.6-52.3,21.9-72.9,40.9c-0.1-0.7-0.2-1.4-0.3-2.1c-0.3-3-0.4-6-0.3-9&#10;&#9;&#9;c0.9-0.7,1.7-1.4,2.6-2.1c19.6-15.7,42.3-26.3,65.7-35C265.1,184,266.8,186.4,268.3,189z"/>
	<path class="st0_girl-with-easter-egg-79" d="M276.4,207.6c-26.7,9.7-53.3,22.1-74.3,41.4c-1.6-2.6-3-5.3-4-8.1c2-1.8,4-3.5,6.1-5.2&#10;&#9;&#9;c20.6-16.5,44.7-27.3,69.3-36.3C274.7,202,275.6,204.8,276.4,207.6z"/>
	<path class="st0_girl-with-easter-egg-79" d="M278.6,219.4c0.2,1.8,0.3,3.5,0.3,5.2c-23.4,8.7-46.6,19.6-65.8,35.5c-2.5-1.6-4.8-3.5-6.9-5.7&#10;&#9;&#9;c1.1-1,2.2-1.9,3.4-2.8c20.4-16.3,44.1-27.1,68.5-36C278.4,216.8,278.5,218.1,278.6,219.4z"/>
	<path class="st0_girl-with-easter-egg-79" d="M277.9,235.2c-0.8,3.8-2.2,7.5-4,10.9c-13.9,5.4-27.3,12.1-40.1,20c-4.2-0.1-8.4-0.9-12.4-2.2&#10;&#9;&#9;C238.7,251.6,258.1,242.8,277.9,235.2z"/>
	<path class="st3_girl-with-easter-egg-79 targetColor" d="M224.7,224.5c1.2,4.1,2,8.4,2.2,12.7c0.1,1.9,0,3.9-0.1,5.8c-0.2,2.5-0.7,5.1-1.4,7.5c-0.9,3-2.2,5.9-3.8,8.6&#10;&#9;&#9;c-5.3,8.7-14.3,15-25.2,18.1c-7.6,2.4-15.7,2.7-23.5,0.9c-2.7-0.7-5.4-1.6-7.9-2.9l0,0c-2.9-1.4-5.5-3.3-7.9-5.4&#10;&#9;&#9;c-1.3-1.2-2.5-2.4-3.6-3.8c-4.3-5.3-7.5-11.4-9.3-18c-1.8-6.3-2.7-12.8-2.8-19.3c0-1.3,0-2.6,0.1-3.9c0.9-20.8,10.2-40.7,26.4-45.4&#10;&#9;&#9;c16.4-4.8,35.2,7.3,47.1,24.7c0.7,1.1,1.4,2.1,2.1,3.2C220.3,212.7,222.9,218.4,224.7,224.5z" style="fill: rgb(104, 225, 253);"/>
	<path class="st1_girl-with-easter-egg-79" d="M175.3,178.3c14.4,0,29.4,10.9,39.6,25.7c0.7,1.1,1.4,2.1,2.1,3.2c3.3,5.4,5.9,11.1,7.7,17.1&#10;&#9;&#9;c1.2,4.1,2,8.4,2.2,12.7c0.1,1.9,0,3.9-0.1,5.8c-0.2,2.5-0.7,5.1-1.4,7.5c-0.9,3-2.2,5.9-3.8,8.6c-5.3,8.7-14.3,15-25.2,18.1&#10;&#9;&#9;c-4.5,1.3-9.2,2-13.9,2.1c-3.3,0-6.5-0.4-9.7-1.1c-2.7-0.7-5.4-1.6-7.9-2.9l0,0c-2.9-1.4-5.5-3.3-7.9-5.4c-1.3-1.2-2.5-2.4-3.6-3.8&#10;&#9;&#9;c-4.3-5.3-7.5-11.4-9.3-18c-1.8-6.3-2.7-12.8-2.8-19.3c0-1.3,0-2.6,0.1-3.9c0.9-20.8,10.2-40.7,26.4-45.4&#10;&#9;&#9;C170.3,178.7,172.8,178.3,175.3,178.3 M175.3,176.9L175.3,176.9L175.3,176.9c-2.7,0-5.3,0.4-7.9,1.1c-17.8,5.2-26.6,27.2-27.4,46.7&#10;&#9;&#9;c-0.1,1.3-0.1,2.7-0.1,4c0,6.7,1,13.3,2.8,19.7c1.9,6.8,5.1,13.1,9.6,18.5c1.2,1.4,2.4,2.7,3.8,3.9c2.4,2.2,5.2,4.1,8.1,5.6&#10;&#9;&#9;l0.2,0.1c2.6,1.3,5.3,2.3,8.1,3c3.3,0.8,6.6,1.2,10,1.2c4.8,0,9.6-0.7,14.2-2.1c11.6-3.4,20.5-9.9,26-18.8c1.7-2.8,3.1-5.8,4-8.9&#10;&#9;&#9;c0.7-2.5,1.2-5.1,1.5-7.8c0.2-2,0.2-4,0.1-6c-0.2-4.4-1-8.8-2.2-13c-1.8-6.2-4.5-12-7.8-17.5c-0.7-1.1-1.4-2.2-2.1-3.3&#10;&#9;&#9;C205,187,189.4,176.9,175.3,176.9L175.3,176.9z"/>
	<path class="st0_girl-with-easter-egg-79" d="M217,207.3c-3,2.3-4.9,5.8-5,9.6c0,2.6,0.5,5.2-0.7,7.6c-1.2,2.3-3.7,3.5-6.2,3.1c-2.4-0.3-4.6-1.6-6.1-3.6&#10;&#9;&#9;c-0.9-1.2-1.7-2.5-2.4-3.8c-0.5-1-1.1-2.7-2.1-3.4c-2.2-1.6-3.1,2.7-3,4c0.1,2.5,0.7,5,0.1,7.5c-1.1,4.9-6.2,6.6-10.6,5&#10;&#9;&#9;c-5.4-1.9-7.3-7.3-10.8-11.4c-0.4-0.4-0.8-1.1-1.4-1s-1,0.9-1.2,1.2c-0.5,1-0.9,2-1.1,3.1c-0.3,2.5-0.3,5-0.1,7.5&#10;&#9;&#9;c0.2,4.1,0.7,11.4-5,12c-5.3,0.5-8.9-4.7-11.1-8.7c-1.3-2.4-2.7-5.1-5.1-6.6c-1.1-0.8-2.5-1-3.9-0.8c0-1.3,0-2.6,0.1-3.9&#10;&#9;&#9;c3.3-0.2,6.9,1.8,9.1,4.4c1.9,2.4,3.2,5.4,5,7.9c1,1.4,4.9,5.7,6.6,3.2c1.3-1.9,0.7-5.3,0.6-7.4c-0.2-2.5-0.2-5,0-7.5&#10;&#9;&#9;c0.2-2.5,1.2-4.8,2.8-6.7c1.6-1.9,4.4-2.2,6.4-0.6c4.1,3.2,5.3,9.9,10.6,11.6c2.1,0.7,4.6,0.5,5.4-1.9s-0.2-5.3-0.1-7.8&#10;&#9;&#9;c0-2.3,1-4.5,2.7-6c1.7-1.5,4.3-1.7,6.2-0.4c2.2,1.6,3.1,4.6,4.4,6.8c1.1,1.8,3.4,4.4,5.9,3.3c2-0.9,1.2-4.5,1.2-6.2&#10;&#9;&#9;c0-2.4,0.5-4.7,1.5-6.9c1.2-2.6,3-4.8,5.3-6.5C215.6,205.1,216.3,206.2,217,207.3z"/>
	<path class="st0_girl-with-easter-egg-79" d="M226.9,237.1c0.1,1.9,0,3.9-0.1,5.8c-4.5,4.6-9.6,8.7-15.1,12.1c-8.2,4.9-17.2,8.5-26.5,10.5&#10;&#9;&#9;c-9.2,2.3-18.6,3.7-28,4.2c-1.3-1.2-2.5-2.4-3.6-3.8c2.9,0,5.8-0.2,8.7-0.4c9.4-0.8,18.8-2.6,27.9-5.2c8.3-2.4,16.2-6.1,23.2-11&#10;&#9;&#9;C218.3,245.8,222.8,241.7,226.9,237.1z"/>
	<path class="st0_girl-with-easter-egg-79" d="M225.3,250.4c-0.9,3-2.2,5.9-3.8,8.6c-2.6,2.1-5.3,4-8.1,5.8c-8.2,4.9-17.2,8.5-26.5,10.6&#10;&#9;&#9;c-4.6,1.1-9.3,2-14,2.8c-2.7-0.7-5.4-1.6-7.9-2.9c9.1-0.9,18.1-2.6,26.8-5.2c8.3-2.4,16.2-6.1,23.2-11&#10;&#9;&#9;C218.7,256.4,222.2,253.6,225.3,250.4z"/>
	<circle class="st0_girl-with-easter-egg-79" cx="179.4" cy="244.8" r="4.4"/>
	<circle class="st0_girl-with-easter-egg-79" cx="168.2" cy="257.2" r="4.4"/>
	<circle class="st0_girl-with-easter-egg-79" cx="196.2" cy="251.5" r="4.4"/>
	<circle class="st0_girl-with-easter-egg-79" cx="178.8" cy="207.5" r="4.4"/>
	<circle class="st0_girl-with-easter-egg-79" cx="204" cy="237.6" r="4.4"/>
	<circle class="st0_girl-with-easter-egg-79" cx="189.8" cy="188.9" r="4.4"/>
	<circle class="st0_girl-with-easter-egg-79" cx="165.1" cy="196.1" r="4.4"/>
	<circle class="st0_girl-with-easter-egg-79" cx="156.6" cy="207.7" r="4.4"/>
	<circle class="st0_girl-with-easter-egg-79" cx="218.3" cy="233.4" r="4.4"/>
	<circle class="st0_girl-with-easter-egg-79" cx="198.2" cy="201.9" r="4.4"/>
	<path class="st3_girl-with-easter-egg-79 targetColor" d="M317.5,260.5c-1.8,6-4.6,11.5-8.4,16.5c-6,7.7-14.9,12.7-24.5,13.8c-4.5,0.5-9,0.4-13.4-0.4l0,0&#10;&#9;&#9;c-2.1-0.4-4.2-0.9-6.2-1.5c-2-0.6-4-1.4-6-2.3l0,0c-4-1.8-7.7-4.1-11.1-7c-7.8-6.6-12.4-16.2-12.8-26.5c-0.2-5.9,0.6-11.7,2.4-17.3&#10;&#9;&#9;c0.9-2.9,2-5.8,3.3-8.5c4.5-9.6,10.9-18.1,18.8-25c3.3-2.9,6.9-5.3,10.7-7.4c7.1-3.7,14.6-5.4,21.7-4.1c1,0.2,2.1,0.4,3.1,0.7&#10;&#9;&#9;c1,0.3,2,0.7,3,1.1c7.2,3.2,12.9,9.7,16.7,17.9c1.2,2.5,2.1,5,2.9,7.6c2.9,9.7,3.8,19.9,2.6,30&#10;&#9;&#9;C319.7,252.4,318.8,256.5,317.5,260.5z" style="fill: rgb(104, 225, 253);"/>
	<path class="st1_girl-with-easter-egg-79" d="M287,190.4c1.6,0,3.2,0.1,4.8,0.4c1,0.2,2.1,0.4,3.1,0.7c1,0.3,2,0.7,3,1.1c7.2,3.2,12.9,9.7,16.7,17.9&#10;&#9;&#9;c1.2,2.5,2.1,5,2.9,7.6c2.9,9.7,3.8,19.9,2.6,30c-0.5,4.2-1.3,8.3-2.6,12.4c-1.8,6-4.6,11.5-8.4,16.4c-6,7.7-14.9,12.7-24.5,13.8&#10;&#9;&#9;c-1.7,0.2-3.4,0.3-5.2,0.3c-2.8,0-5.5-0.3-8.2-0.8l0,0c-2.1-0.4-4.2-0.9-6.2-1.5c-2-0.6-4-1.4-6-2.3l0,0c-4-1.8-7.7-4.1-11.1-7&#10;&#9;&#9;c-7.8-6.6-12.4-16.2-12.8-26.5c-0.2-5.9,0.6-11.7,2.4-17.3c0.9-2.9,2-5.8,3.3-8.5c4.5-9.6,10.9-18.1,18.8-25&#10;&#9;&#9;c3.3-2.9,6.9-5.3,10.7-7.4C275.4,192.1,281.1,190.5,287,190.4 M287,189L287,189c-6.1,0.1-12.1,1.7-17.5,4.7&#10;&#9;&#9;c-3.9,2.1-7.6,4.6-11,7.5c-8.1,7.1-14.6,15.7-19.2,25.5c-1.3,2.8-2.4,5.7-3.4,8.7c-1.8,5.7-2.7,11.8-2.5,17.8&#10;&#9;&#9;c0.4,10.6,5.2,20.6,13.3,27.5c3.4,2.9,7.3,5.3,11.4,7.2l0,0c2,0.9,4.1,1.7,6.1,2.3c2.1,0.6,4.2,1.2,6.4,1.6l0,0&#10;&#9;&#9;c2.8,0.5,5.6,0.8,8.5,0.8c1.8,0,3.6-0.1,5.4-0.3c10.1-1.2,19.2-6.3,25.5-14.3c4-5,6.9-10.8,8.8-16.9c1.3-4.1,2.1-8.3,2.6-12.6&#10;&#9;&#9;c1.2-10.3,0.3-20.6-2.6-30.6c-0.8-2.7-1.8-5.3-3-7.8c-4.2-8.9-10.2-15.3-17.4-18.6c-1-0.5-2.1-0.9-3.1-1.2&#10;&#9;&#9;c-1.1-0.3-2.1-0.6-3.2-0.8C290.4,189.2,288.7,189,287,189z"/>
	<path class="st0_girl-with-easter-egg-79" d="M258.2,219.9c-4.7,7.3-12.3,10.8-17,7.7c-0.2-0.1-0.4-0.3-0.6-0.4c4.5-9.6,10.9-18.1,18.8-25&#10;&#9;&#9;C262.9,205.9,262.4,213.3,258.2,219.9z"/>
	
		<ellipse transform="matrix(0.2949 -0.9555 0.9555 0.2949 -47.439 418.3362)" class="st0_girl-with-easter-egg-79" cx="259.7" cy="241.3" rx="15.7" ry="10.1"/>
	<path class="st0_girl-with-easter-egg-79" d="M291.9,190.8c-0.8,0.9-1.7,1.8-2.6,2.5c-6.7,5.5-15,6.6-18.5,2.3c-0.2-0.2-0.4-0.5-0.5-0.7&#10;&#9;&#9;C277.3,191.2,284.8,189.6,291.9,190.8z"/>
	<path class="st0_girl-with-easter-egg-79" d="M314.6,210.6c-5,1.5-11.4-3-14.8-10.6c-1-2.3-1.7-4.8-1.9-7.3C305.2,196,310.8,202.4,314.6,210.6z"/>
	
		<ellipse transform="matrix(0.2949 -0.9555 0.9555 0.2949 -35.5699 463.2873)" class="st0_girl-with-easter-egg-79" cx="296.1" cy="255.7" rx="15.7" ry="10.1"/>
	
		<ellipse transform="matrix(0.2949 -0.9555 0.9555 0.2949 -8.2164 428.4436)" class="st0_girl-with-easter-egg-79" cx="286.2" cy="219.8" rx="15.7" ry="10.1"/>
	<path class="st0_girl-with-easter-egg-79" d="M278.2,279.9c-1.2,4.2-3.6,7.8-7,10.5l0,0c-2.1-0.4-4.2-0.9-6.2-1.5c-2-0.6-4-1.4-6-2.3l0,0&#10;&#9;&#9;c-1.3-4.1-1.3-8.5,0.1-12.6c2.6-8.3,8.9-13.7,14.2-12.1S280.7,271.6,278.2,279.9z"/>
	<path class="st0_girl-with-easter-egg-79" d="M247.8,279.6c-7.8-6.7-12.4-16.3-12.8-26.5c0.4-0.2,0.9-0.3,1.3-0.4c5.4-1.2,11.3,4.7,13.1,13.2&#10;&#9;&#9;C250.6,271.2,249.9,276.3,247.8,279.6z"/>
	<path class="st0_girl-with-easter-egg-79" d="M309.1,277c-6,7.7-14.9,12.7-24.5,13.8c0.8-3.8,3.7-7.9,8-11C298.4,275.7,305.1,274.7,309.1,277z"/>
	<path class="st0_girl-with-easter-egg-79" d="M320.1,248.2c-4.2-1.6-7.7-7.3-8.4-14.3s1.8-13.4,5.8-15.7C320.4,227.9,321.3,238.1,320.1,248.2z"/>
</g>
<g id="Basket_girl-with-easter-egg-79">
	<path class="st0_girl-with-easter-egg-79" d="M138.6,244.8c-1.1,19.9,0.5,21.2,5.2,31.3c-3.9,9.1-2,27.6,7.9,41.6c0,0-0.1,28,11.5,38&#10;&#9;&#9;c0,0,5.4,19.2,14.1,25.5c0,0-1.7,5.6,1.4,8.9s16,11.9,74.9,12.9c45.7,0.7,58.9-9.7,62.5-13s3-9.2,3-9.2s10.7-11,9.6-26&#10;&#9;&#9;c7-9.3,9.8-21.2,7.7-32.7c0,0,13.7-23.8,7.5-46.8c0,0,6.2-17,4.9-33.4C348.8,241.8,205.8,255.3,138.6,244.8z"/>
	<path class="st1_girl-with-easter-egg-79" d="M348.8,241.8c1.3,16.4-4.9,33.4-4.9,33.4c6.2,23-7.5,46.8-7.5,46.8c2.1,11.5-0.7,23.3-7.7,32.7&#10;&#9;&#9;c1.1,15-9.6,26-9.6,26s0.7,6-3,9.2s-16,13-58,13c-1.5,0-3,0-4.6,0c-58.8-1-71.8-9.6-74.8-12.9s-1.4-8.9-1.4-8.9&#10;&#9;&#9;c-8.7-6.2-14.1-25.5-14.1-25.5c-11.6-10-11.5-38-11.5-38c-9.9-13.9-11.8-32.5-7.9-41.6c-4.8-10-6.3-11.3-5.2-31.3&#10;&#9;&#9;c18.8,2.9,43.6,4,69.5,4C274.7,248.8,348.7,241.8,348.8,241.8 M348.7,240.4h-0.1c-0.7,0.1-74.8,7-140.6,7c-29.1,0-52.3-1.3-69.3-4&#10;&#9;&#9;h-0.2c-0.3,0-0.6,0.1-0.9,0.3c-0.3,0.2-0.5,0.6-0.5,1c-1,18.7,0.3,21.4,4.3,29.6l0.8,1.8c-1.9,4.9-2.3,11.8-1.1,19.2&#10;&#9;&#9;c1.3,8.2,4.4,16,9.1,22.8c0,3.8,0.7,28.4,11.6,38.3c0.8,2.8,5.8,18.8,13.8,25.2c-0.4,1.9-0.9,6.3,1.9,9.3&#10;&#9;&#9;c4.4,4.6,20,12.4,75.9,13.3c1.6,0,3.1,0,4.6,0c28.7,0,49.1-4.6,58.9-13.4c3.4-3,3.6-8,3.5-9.8c2-2.3,10.4-12.4,9.6-26&#10;&#9;&#9;c6.9-9.5,9.7-21.3,7.7-32.9c1.9-3.5,13.1-25.3,7.5-47c1-2.8,6-18.3,4.9-33.5c0-0.4-0.2-0.8-0.5-1c-0.2-0.2-0.6-0.3-0.9-0.3V240.4z"/>
	<path class="st2_girl-with-easter-egg-79" d="M226.7,292.6c-56.8,0-83-15.9-83.3-16c-0.3-0.2-0.4-0.6-0.3-0.9c0,0,0,0,0-0.1c0.2-0.3,0.6-0.5,1-0.3&#10;&#9;&#9;c0,0,0,0,0,0c0.3,0.2,33,20,105.1,15s92-15,92.2-15c0.3-0.2,0.8,0,0.9,0.3c0.2,0.3,0,0.8-0.3,0.9l0,0c-0.8,0.4-20.3,10.2-92.8,15.2&#10;&#9;&#9;C241.4,292.4,233.8,292.6,226.7,292.6z"/>
	<path class="st2_girl-with-easter-egg-79" d="M252.1,336.4h-0.9c-37.5-0.1-62.3-4.6-76.4-8.4c-15.4-4.1-21.8-8.2-22.1-8.4c-0.3-0.2-0.5-0.6-0.3-0.9&#10;&#9;&#9;c0.2-0.3,0.6-0.5,0.9-0.3c0,0,0.1,0,0.1,0.1c0.1,0,6.6,4.1,21.8,8.2c14.1,3.8,38.7,8.3,76,8.3h0.9c65,0,81.7-12.3,81.9-12.5&#10;&#9;&#9;c0.3-0.2,0.7-0.2,1,0.1c0,0,0,0,0,0c0.2,0.3,0.2,0.8-0.1,1c0,0,0,0,0,0C334.1,324.2,317.6,336.4,252.1,336.4z"/>
	<path class="st2_girl-with-easter-egg-79" d="M257.6,367.5c-1.8,0-3.7,0-5.6,0c-29.3-0.7-58.4-4.2-87-10.5c-0.4-0.1-0.6-0.5-0.5-0.9&#10;&#9;&#9;c0.1-0.4,0.5-0.6,0.8-0.5c28.5,6.3,57.5,9.8,86.7,10.5c50.9,0.9,72.2-10.3,72.4-10.4c0.3-0.2,0.8-0.1,1,0.2c0.2,0.3,0.1,0.8-0.2,1&#10;&#9;&#9;c0,0-0.1,0-0.1,0.1C324.8,356.9,304.8,367.5,257.6,367.5z"/>
	<path class="st2_girl-with-easter-egg-79" d="M256.1,389.1c-26-0.2-52-2.8-77.6-7.9c-0.4-0.1-0.6-0.5-0.5-0.8c0.1-0.4,0.5-0.6,0.8-0.5l0,0&#10;&#9;&#9;c0.8,0.2,84,17.8,138.4-0.4c0.4-0.1,0.8,0.1,0.9,0.5c0.1,0.4-0.1,0.8-0.4,0.9c0,0,0,0,0,0C299.1,387,277.1,389.1,256.1,389.1z"/>
</g>
<g id="Grass_girl-with-easter-egg-79">
	<path class="st1_girl-with-easter-egg-79" d="M131.1,233.9l14.2,5.2c-9.6-0.8-19.1,2.3-26.3,8.6l26.7-0.5c-5.4,2.8-10.4,6.4-14.7,10.8&#10;&#9;&#9;c-1.2,1.2-2.4,2.8-1.8,4.4c0.7,1.8,3.1,2,5,1.9c8.7-0.7,17.2-2.9,25.1-6.5c-4.8,2.8-9.1,6.3-12.7,10.5c7.6-0.2,15-2.1,21.7-5.7&#10;&#9;&#9;c-3.1,3.4-5.7,7.2-7.9,11.2c-0.6,1.2-1.1,3,0.1,3.7c0.9,0.5,2-0.2,2.8-0.8l13.9-10.5c-2.2,7.6-2.6,15.7-1.3,23.5&#10;&#9;&#9;c5.2-6.4,10-12.9,14.6-19.7c-0.5,5.3-0.2,10.6,0.8,15.8l14.1-16.3c0,8.7,0.8,17.3,2.2,25.9c6.2-4.3,10.8-10.5,12.9-17.8&#10;&#9;&#9;c-0.3,3.5,0.3,6.9,1.9,10l10.1-16.1c0.3-0.5,0.7-1,1.2-1.2c0.9-0.3,1.8,0.6,2.2,1.5c2.6,4.5,3.8,11,8.8,12l3.3-19.6&#10;&#9;&#9;c11.2,2.9,14.3,19.1,25.3,22.6l-0.6-13.5c-0.1-0.7,0-1.4,0.4-2c0.9-1.2,2.8-0.4,4.1,0.4c6.4,4.4,12.6,9,18.5,13.9l-3.9-15.7&#10;&#9;&#9;c-0.2-0.7-0.2-1.4,0-2.1c0.6-1.4,2.6-1.1,4-0.6c7.2,2.4,14.3,5,21.3,7.8c2.3,0.9,5.4,1.5,6.7-0.5l-9.4-15.2c8,2,15.8,4.8,23.2,8.5&#10;&#9;&#9;c-3.3-4-6-8.6-7.8-13.5l13.8,2.9l-2.9-6.7c10.6,4.1,22.3,3.9,32.7-0.7l-10.2-11.6c5.9,0.5,11.9-0.2,17.6-2.2&#10;&#9;&#9;c-12.7-6.8-27.6-8-41.3-3.4l5.1-8.3c-7.2,0.4-13.6,4.3-17.3,10.5v-8c-7.6,4.1-14.9,8.9-21.7,14.2c0.9-2.4,0.6-5.1-0.9-7.3l-15,14.3&#10;&#9;&#9;c0.2-3.3,0-6.6-0.5-9.9c-4.2,2.8-8.1,6.3-11.4,10.1c-2.1-6.3-6.5-11.5-12.4-14.6c-1,3.2-1.5,6.6-1.5,10&#10;&#9;&#9;c-5.6-6.9-12.4-12.8-19.9-17.6c1.8,5.2,2.7,10.6,2.6,16.1c-5-3.4-11-5-17-4.5l3.1,9.3c-5.8-4.7-13.1-7.2-20.6-6.9l2,6.1&#10;&#9;&#9;c-7.5-5.8-15.6-10.9-24.1-15c1.4,0.7,2.9,9.1,2.9,10.6c-5.4,0.2-12.6-5.2-18-6.8c-0.8-0.3-1.7-0.4-2.6-0.2&#10;&#9;&#9;c-1.1,0.6-1.7,1.9-1.4,3.1c0.3,1.2,0.9,2.3,1.7,3.2c-6.3-4.6-13-9.3-20.7-10.2c0.7,2.8,2.1,5.4,4,7.5c-4.4-1.6-9.3-4.3-13.9-5.2&#10;&#9;&#9;C139,232.8,133.8,234.9,131.1,233.9z"/>
	<path class="st1_girl-with-easter-egg-79" d="M207.7,296c-0.1,0-0.2,0-0.3-0.1c-0.2-0.1-0.4-0.3-0.4-0.5c-1.3-8-2.1-16.1-2.2-24.2L192,286.1&#10;&#9;&#9;c-0.2,0.2-0.5,0.3-0.7,0.2c-0.3-0.1-0.4-0.3-0.5-0.5c-0.9-4.4-1.2-8.9-1-13.4c-4.1,6-8.6,11.9-13.1,17.6c-0.3,0.3-0.7,0.3-1,0.1&#10;&#9;&#9;c-0.1-0.1-0.2-0.3-0.2-0.4c-1.2-7.3-0.9-14.7,0.8-21.8l-12.3,9.3c-0.6,0.4-2.1,1.6-3.6,0.8s-1.3-2.9-0.4-4.6c1.6-3.1,3.5-6,5.7-8.8&#10;&#9;&#9;c-5.9,2.7-12.4,4.1-18.9,4.3c-0.3,0-0.5-0.2-0.6-0.4c-0.1-0.2-0.1-0.5,0.1-0.8c2.2-2.5,4.6-4.8,7.2-6.9c-6.1,2.2-12.5,3.5-19,4&#10;&#9;&#9;c-3,0.2-5-0.6-5.7-2.3c-0.6-1.5,0.1-3.2,1.9-5.1c3.6-3.7,7.8-7,12.3-9.6l-23.8,0.5c-0.3,0-0.6-0.2-0.7-0.4c-0.1-0.3,0-0.6,0.2-0.8&#10;&#9;&#9;c6.2-5.4,14.1-8.6,22.3-8.9l-10.2-3.7l0,0c-0.4-0.1-0.6-0.5-0.4-0.9c0.1-0.4,0.5-0.6,0.9-0.4c1.2,0.5,3.3,0.1,5.3-0.2&#10;&#9;&#9;c1.9-0.4,3.8-0.5,5.7-0.3c3.3,0.8,6.4,1.9,9.5,3.4l2.2,1c-1.2-1.8-2-3.7-2.6-5.8c-0.1-0.2,0-0.5,0.1-0.6c0.2-0.2,0.4-0.3,0.6-0.2&#10;&#9;&#9;c6.9,0.8,13.2,4.7,18.4,8.4c-0.1-0.2-0.1-0.4-0.2-0.6c-0.4-1.6,0.4-3.2,1.9-3.9c1-0.3,2-0.2,3,0.1c2.4,0.8,4.6,1.8,6.8,3&#10;&#9;&#9;c3.5,1.8,7.2,3.6,10.2,3.8c-0.2-2.5-1.6-8.7-2.4-9.3c-0.4-0.1-0.5-0.5-0.4-0.9c0.1-0.4,0.5-0.5,0.9-0.4c0,0,0.1,0,0.1,0.1l0,0&#10;&#9;&#9;c7.9,3.8,15.5,8.4,22.5,13.7l-1.3-4c-0.1-0.2,0-0.4,0.1-0.6c0.1-0.2,0.3-0.3,0.5-0.3c6.9-0.2,13.6,1.8,19.3,5.7l-2.3-7.1&#10;&#9;&#9;c-0.1-0.2,0-0.4,0.1-0.6c0.1-0.2,0.3-0.3,0.5-0.3c5.8-0.5,11.5,0.9,16.4,3.9c-0.1-5-1-9.9-2.6-14.6c-0.1-0.4,0.1-0.8,0.4-0.9&#10;&#9;&#9;c0.2-0.1,0.4,0,0.6,0.1c7.1,4.4,13.5,9.9,18.9,16.3c0.1-2.8,0.6-5.6,1.4-8.4c0.1-0.2,0.2-0.4,0.4-0.4c0.2-0.1,0.4-0.1,0.6,0&#10;&#9;&#9;c5.7,2.9,10.1,7.9,12.4,13.9c3.2-3.6,6.8-6.7,10.8-9.4c0.2-0.1,0.5-0.2,0.7-0.1c0.2,0.1,0.4,0.3,0.4,0.5c0.4,2.7,0.6,5.5,0.5,8.3&#10;&#9;&#9;l13.6-13.1c0.2-0.1,0.4-0.2,0.6-0.2c0.2,0,0.4,0.1,0.5,0.3c1.2,1.7,1.7,3.8,1.4,5.9c6.4-4.9,13.1-9.3,20.2-13.1&#10;&#9;&#9;c0.2-0.1,0.5-0.1,0.7,0c0.2,0.1,0.3,0.4,0.4,0.6v5.7c4-5.2,10-8.5,16.6-8.9c0.3,0,0.5,0.1,0.6,0.3c0.1,0.2,0.1,0.5,0,0.7l-4.1,6.7&#10;&#9;&#9;c13.3-3.9,27.7-2.5,40,4c0.2,0.1,0.4,0.4,0.4,0.7c0,0.3-0.2,0.5-0.5,0.6c-5.2,1.8-10.6,2.6-16.1,2.3l9.1,10.3&#10;&#9;&#9;c0.2,0.2,0.2,0.4,0.2,0.6c-0.1,0.2-0.2,0.4-0.4,0.5c-10,4.4-21.4,4.9-31.7,1.3l2.2,5.2c0.1,0.2,0.1,0.5-0.1,0.7&#10;&#9;&#9;c-0.2,0.2-0.4,0.3-0.7,0.2l-12.5-2.6c1.8,4.4,4.2,8.4,7.2,12c0.2,0.3,0.2,0.6,0,0.9c-0.2,0.3-0.6,0.3-0.9,0.2&#10;&#9;&#9;c-6.8-3.5-14-6.2-21.4-8.1l8.5,13.7c0.1,0.2,0.1,0.5,0,0.7c-1.2,2-3.9,2.2-7.5,0.8c-7-2.8-14.1-5.4-21.3-7.8&#10;&#9;&#9;c-0.5-0.1-2.7-0.9-3.2,0.2c-0.2,0.5-0.1,1.1,0.1,1.6l3.9,15.7c0.1,0.3-0.1,0.6-0.3,0.8c-0.2,0.2-0.6,0.2-0.8,0&#10;&#9;&#9;c-5.9-4.9-12.1-9.5-18.5-13.9c-0.9-0.6-2.5-1.4-3.1-0.6c-0.2,0.5-0.3,1-0.2,1.6l0.6,13.5c0,0.2-0.1,0.4-0.3,0.6&#10;&#9;&#9;c-0.2,0.1-0.4,0.2-0.6,0.1c-5.6-1.8-9.2-6.7-12.8-11.5s-6.8-9.2-11.8-10.9l-3.2,18.8c0,0.2-0.1,0.4-0.3,0.5&#10;&#9;&#9;c-0.2,0.1-0.3,0.1-0.5,0.1c-4.1-0.8-5.8-4.7-7.5-8.5c-0.5-1.3-1.2-2.6-1.8-3.8c-0.4-0.6-0.9-1.3-1.4-1.1c-0.3,0.1-0.6,0.5-0.8,0.9&#10;&#9;&#9;l-10.1,16.1c-0.1,0.2-0.4,0.3-0.6,0.3c-0.2,0-0.5-0.2-0.6-0.4c-1-2-1.7-4.2-2-6.4c-2.5,5.8-6.6,10.8-11.8,14.4&#10;&#9;&#9;C208,295.9,207.8,296,207.7,296z M205.5,268.7c0.1,0,0.2,0,0.2,0c0.3,0.1,0.5,0.4,0.5,0.7c0,8.3,0.7,16.5,2,24.7&#10;&#9;&#9;c5.6-4.2,9.7-10,11.7-16.8c0.1-0.4,0.5-0.6,0.9-0.5c0.3,0.1,0.5,0.4,0.5,0.7c-0.3,2.9,0.2,5.8,1.3,8.5l9.4-15&#10;&#9;&#9;c0.3-0.7,0.9-1.2,1.6-1.5c1.1-0.3,2.2,0.4,3,1.8c0.7,1.3,1.3,2.6,1.9,3.9c1.5,3.4,2.9,6.5,5.8,7.5l3.2-18.9c0-0.2,0.1-0.4,0.3-0.5&#10;&#9;&#9;c0.2-0.1,0.4-0.1,0.6-0.1c5.9,1.5,9.7,6.7,13.3,11.6c3.2,4.3,6.4,8.8,11.1,10.7l-0.6-12.5c-0.1-0.9,0.1-1.8,0.5-2.5&#10;&#9;&#9;c1.2-1.5,3.4-0.9,5,0.3c5.8,4,11.5,8.2,16.9,12.6l-3.4-13.6c-0.3-0.8-0.3-1.7,0-2.5c0.7-1.4,2.5-1.8,4.9-1&#10;&#9;&#9;c7.1,2.4,14.3,5.1,21.3,7.8c1.3,0.5,4.3,1.5,5.6,0.1l-9.1-14.7c-0.2-0.2-0.2-0.5,0-0.8c0.2-0.2,0.5-0.3,0.7-0.3&#10;&#9;&#9;c7.1,1.7,14,4.2,20.6,7.3c-2.5-3.5-4.5-7.2-6-11.3c-0.1-0.2,0-0.5,0.1-0.7c0.2-0.2,0.4-0.3,0.7-0.2l12.5,2.6l-2.3-5.5&#10;&#9;&#9;c-0.1-0.3-0.1-0.6,0.1-0.8c0.2-0.2,0.5-0.3,0.8-0.2c10.1,3.9,21.3,3.8,31.3-0.4l-9.6-10.9c-0.2-0.2-0.2-0.5-0.1-0.8&#10;&#9;&#9;c0.1-0.3,0.4-0.4,0.7-0.4c5.3,0.5,10.6-0.1,15.6-1.6c-12.2-6-26.3-6.9-39.2-2.6c-0.4,0.1-0.8-0.1-0.9-0.5c-0.1-0.2,0-0.4,0.1-0.5&#10;&#9;&#9;l4.4-7.1c-6.4,0.8-12.1,4.5-15.4,10c-0.2,0.3-0.6,0.5-1,0.3c-0.2-0.1-0.4-0.4-0.4-0.6V228c-7.2,4-14.1,8.5-20.5,13.6&#10;&#9;&#9;c-0.3,0.2-0.7,0.2-1-0.1c-0.2-0.2-0.2-0.5-0.1-0.7c0.7-1.9,0.6-4.1-0.4-5.9l-14.2,13.7c-0.2,0.2-0.5,0.3-0.8,0.1&#10;&#9;&#9;c-0.3-0.1-0.4-0.4-0.4-0.7c0.2-2.9,0.1-5.8-0.3-8.6c-3.8,2.7-7.3,5.8-10.4,9.4c-0.2,0.2-0.4,0.3-0.7,0.2c-0.2,0-0.5-0.2-0.5-0.5&#10;&#9;&#9;c-1.9-5.8-5.9-10.7-11.3-13.8c-0.8,2.9-1.2,6-1.2,9c0,0.3-0.2,0.6-0.5,0.7c-0.3,0.1-0.6,0-0.8-0.2c-5.2-6.3-11.3-11.9-18.1-16.4&#10;&#9;&#9;c1.4,4.7,2.1,9.6,2.1,14.5c0,0.4-0.3,0.7-0.7,0.7c-0.1,0-0.3,0-0.4-0.1c-4.6-3.2-10.1-4.8-15.7-4.5l2.8,8.4c0.1,0.3,0,0.6-0.3,0.8&#10;&#9;&#9;c-0.2,0.2-0.6,0.2-0.8,0c-5.4-4.4-12.2-6.8-19.2-6.8l1.7,5.2c0.1,0.3,0,0.6-0.3,0.8c-0.2,0.2-0.6,0.2-0.8,0&#10;&#9;&#9;c-6.9-5.4-14.2-10-22-13.9c1,2.9,1.6,5.9,1.8,9c0,0.4-0.3,0.7-0.7,0.7c-3.5,0.1-7.6-1.9-11.6-3.9c-2.1-1.2-4.3-2.1-6.6-2.9&#10;&#9;&#9;c-0.7-0.3-1.4-0.3-2.1-0.2c-0.8,0.5-1.2,1.4-1,2.3c0.3,1.1,0.8,2.1,1.6,2.9c0.3,0.3,0.3,0.7,0,1s-0.7,0.3-1,0&#10;&#9;&#9;c-5.6-4.1-12-8.8-19.4-9.9c0.8,2.3,2,4.4,3.6,6.2c0.2,0.2,0.2,0.6,0.1,0.9c-0.2,0.3-0.5,0.4-0.8,0.3c-1.5-0.6-3.1-1.2-4.6-1.9&#10;&#9;&#9;c-3-1.4-6-2.6-9.2-3.4c-1.7-0.2-3.5-0.1-5.2,0.3l-1.6,0.2l10.2,3.7c0.3,0.1,0.5,0.5,0.4,0.8c-0.1,0.3-0.4,0.6-0.8,0.5&#10;&#9;&#9;c-8.7-0.7-17.3,1.8-24.2,7.2l24.7-0.5c0.3,0,0.6,0.2,0.7,0.5c0.1,0.3-0.1,0.6-0.4,0.8c-5.4,2.7-10.3,6.3-14.5,10.7&#10;&#9;&#9;c-1.4,1.5-2,2.7-1.6,3.7c0.6,1.5,2.9,1.5,4.3,1.4c8.6-0.6,17-2.8,24.9-6.4c0.4-0.1,0.8,0,0.9,0.4c0.1,0.3,0,0.7-0.3,0.9&#10;&#9;&#9;c-4.3,2.5-8.1,5.5-11.4,9.2c6.9-0.4,13.7-2.3,19.8-5.6c0.3-0.2,0.7-0.1,0.9,0.2c0.2,0.3,0.2,0.6,0,0.9c-3.1,3.3-5.7,7.1-7.8,11.1&#10;&#9;&#9;c-0.5,0.9-0.9,2.3-0.1,2.7c0.4,0.2,1.1,0,2.1-0.7l13.9-10.6c0.3-0.2,0.7-0.2,1,0.1c0.1,0.2,0.2,0.4,0.1,0.6c-2,7-2.5,14.4-1.6,21.6&#10;&#9;&#9;c4.8-5.9,9.3-12.1,13.6-18.4c0.2-0.3,0.7-0.4,1-0.2c0.2,0.1,0.3,0.4,0.3,0.6c-0.5,4.7-0.3,9.5,0.6,14.1l13.1-15.2&#10;&#9;&#9;C205.1,268.8,205.3,268.7,205.5,268.7L205.5,268.7z"/>
</g>
<g id="Ribbon_girl-with-easter-egg-79">
	<path class="st3_girl-with-easter-egg-79 targetColor" d="M241.7,270.8c0,0-26.2,51.5-29.7,88.2l8.6-6.6l15.1,21.4c0,0,5.5-57.4,8.5-78.5c2.2-15.3,3.9-23,3.9-23&#10;&#9;&#9;L241.7,270.8z" style="fill: rgb(104, 225, 253);"/>
	<path class="st1_girl-with-easter-egg-79" d="M235.7,374.5c-0.2,0-0.4-0.1-0.6-0.3l-14.7-20.8l-8,6.1c-0.2,0.2-0.5,0.2-0.8,0.1c-0.2-0.1-0.4-0.4-0.4-0.7&#10;&#9;&#9;c3.4-36.5,29.5-88,29.7-88.5c0.2-0.3,0.5-0.4,0.8-0.4l6.4,1.6c0.4,0.1,0.6,0.5,0.5,0.8c0,0.1-1.7,7.9-3.9,23&#10;&#9;&#9;c-3,20.8-8.4,77.9-8.5,78.4c0,0.3-0.2,0.5-0.5,0.6L235.7,374.5z M220.6,351.8h0.1c0.2,0,0.4,0.1,0.5,0.3l14,19.8&#10;&#9;&#9;c1-10.1,5.6-58,8.3-76.6c1.8-12.6,3.3-20.2,3.8-22.4l-5.2-1.3c-2.6,5.3-25.4,51.7-29.2,85.9l7.3-5.6&#10;&#9;&#9;C220.3,351.8,220.4,351.8,220.6,351.8z"/>
	<path class="st3_girl-with-easter-egg-79 targetColor" d="M248.3,274.9c0,0,0.3,1.3,0.7,3.6c2.7,13.9,9.7,65.9,8.5,87.6c0,0,10.2-14.5,10-21.9l15.6,17&#10;&#9;&#9;c-0.6-28-7.7-46.5-13.8-61.2c-9.7-23.6-17.7-37.1-17.7-37.1L248.3,274.9z" style="fill: rgb(104, 225, 253);"/>
	<path class="st1_girl-with-easter-egg-79" d="M257.5,366.8c-0.1,0-0.2,0-0.2,0c-0.3-0.1-0.5-0.4-0.5-0.7c1.2-21.7-5.9-74-8.5-87.4c-0.4-2.3-0.7-3.6-0.7-3.6&#10;&#9;&#9;c0-0.1,0-0.2,0-0.3l3.3-12c0.1-0.3,0.3-0.5,0.6-0.5c0.3,0,0.5,0.1,0.7,0.3c0.1,0.1,8.1,13.8,17.8,37.2&#10;&#9;&#9;c6.7,16.1,13.2,34.2,13.8,61.5c0,0.3-0.2,0.6-0.4,0.7c-0.3,0.1-0.6,0-0.8-0.2L268.1,346c-1,7.7-9.6,20-10,20.6&#10;&#9;&#9;C257.9,366.7,257.7,366.8,257.5,366.8z M249,274.9c0.1,0.4,0.3,1.6,0.7,3.5c2.5,13,9.2,62.2,8.6,85.3c2.8-4.2,8.7-14,8.5-19.4&#10;&#9;&#9;c0-0.3,0.2-0.6,0.4-0.7c0.3-0.1,0.6,0,0.8,0.2l14.3,15.6c-0.9-26-7.2-43.5-13.7-59.1c-4.9-12.2-10.5-24-16.8-35.5L249,274.9z"/>
	<path class="st3_girl-with-easter-egg-79 targetColor" d="M245.5,255.9c0,0-43.3-21.3-52.3-16.6s-4,15.7-1,26.1c0,0-11.6,24.1-0.8,31.2s50.4-18.7,56.1-28.3&#10;&#9;&#9;S245.5,255.9,245.5,255.9z" style="fill: rgb(104, 225, 253);"/>
	<path class="st1_girl-with-easter-egg-79" d="M196.3,298.5c-1.9,0.1-3.7-0.4-5.3-1.3c-10.7-7-0.8-29.1,0.5-31.9c-0.4-1.2-0.8-2.5-1.1-3.7&#10;&#9;&#9;c-2.9-9.1-5.8-18.6,2.5-22.9c9.1-4.8,50.7,15.5,52.9,16.6c1.8,0.8,3.3,2.3,4,4.1c0.9,2.5,0.3,5.6-1.8,9.2&#10;&#9;&#9;c-4.4,7.4-29.8,25.3-46.2,29.1C200,298.2,198.2,298.5,196.3,298.5z M196.9,239.3c-1.1-0.1-2.3,0.2-3.3,0.6&#10;&#9;&#9;c-7.3,3.8-4.7,12.3-1.9,21.3c0.4,1.3,0.8,2.6,1.2,4c0.1,0.2,0.1,0.3,0,0.5c-0.1,0.2-11.2,23.7-1.1,30.3c2,1.3,5.3,1.5,9.7,0.4&#10;&#9;&#9;c16.1-3.8,41.1-21.2,45.3-28.5c1.9-3.2,2.4-5.9,1.7-8c-0.6-1.5-1.8-2.7-3.2-3.3h-0.1C232.1,250.1,207.2,239.3,196.9,239.3z"/>
	<path class="st3_girl-with-easter-egg-79 targetColor" d="M252,257.2c0,0,28.8-30.8,37.1-27.2s5.1,14.3,2,27.2c0,0,7.3,5.1,4.8,20s-2.8,19.7-11.2,17&#10;&#9;&#9;S252,272.6,252,272.6V257.2z" style="fill: rgb(104, 225, 253);"/>
	<path class="st1_girl-with-easter-egg-79" d="M288.3,295.6c-1.3,0-2.7-0.3-3.9-0.7c-8.5-2.7-31.9-21-32.9-21.7c-0.2-0.1-0.3-0.3-0.3-0.5v-15.4&#10;&#9;&#9;c0-0.2,0.1-0.3,0.2-0.5c3-3.2,29.4-31.1,37.9-27.4c8.3,3.6,5.8,13.7,3,25.5l-0.5,2.1c1.5,1.3,7,7,4.7,20.4l-0.4,2.4&#10;&#9;&#9;c-1.5,8.7-2.3,13.5-5.1,15.2C290.2,295.4,289.3,295.7,288.3,295.6z M252.7,272.3c2.7,2.1,24.4,18.8,32.1,21.3&#10;&#9;&#9;c2.6,0.8,4.3,0.9,5.5,0.2c2.3-1.4,3.1-6.2,4.5-14.3l0.4-2.4c2.4-14.2-4.4-19.2-4.5-19.3c-0.2-0.2-0.4-0.5-0.3-0.7l0.6-2.6&#10;&#9;&#9;c2.8-11.6,5-20.7-2.2-23.9c-6.4-2.8-28.1,18.3-36.1,26.9V272.3z"/>
	<path class="st3_girl-with-easter-egg-79 targetColor" d="M241.3,272.3c0,1.4,0,3.1,1.1,4c0.7,0.5,1.6,0.8,2.4,0.8c2.1,0.3,4.3,0.3,6.5-0.1c9.7-2.1,7.2-18.1,1.1-23.1&#10;&#9;&#9;c-2.6-2.2-7.6-2.2-10,0.7C239.7,257.9,241.4,268,241.3,272.3z" style="fill: rgb(104, 225, 253);"/>
	<path class="st1_girl-with-easter-egg-79" d="M248.2,278c-1.2,0-2.3-0.1-3.4-0.2c-1,0-2-0.3-2.8-0.9c-1.5-1.2-1.4-3.4-1.4-4.5s-0.1-2.5-0.2-4.2&#10;&#9;&#9;c-0.3-5-0.7-11.3,1.6-14.1c1.3-1.5,3.1-2.3,5-2.5c2.1-0.2,4.3,0.4,5.9,1.7c4.2,3.5,6.6,11.7,5.1,17.5c-0.9,3.7-3.2,6.1-6.6,6.8&#10;&#9;&#9;C250.4,277.9,249.3,278,248.2,278z M247.8,253h-0.7c-1.6,0.1-3,0.8-4.1,2c-1.9,2.3-1.5,8.5-1.2,13.1c0.1,1.7,0.2,3.2,0.2,4.3l0,0&#10;&#9;&#9;c0,1.3,0,2.7,0.9,3.4c0.6,0.4,1.4,0.6,2.1,0.6c2.1,0.3,4.2,0.3,6.2-0.1c2.8-0.7,5-2.9,5.5-5.8c1.3-5.3-0.9-13-4.7-16.1&#10;&#9;&#9;C250.8,253.4,249.3,252.9,247.8,253L247.8,253z M241.3,272.4L241.3,272.4z"/>
	<path class="st1_girl-with-easter-egg-79" d="M197.2,283.3c-0.2,0-0.4-0.1-0.5-0.2c-3.2-3.9-5.1-17.1-5.2-17.6c0-0.4,0.2-0.7,0.6-0.8c0.4,0,0.7,0.2,0.8,0.6&#10;&#9;&#9;c0,0.1,1.9,13.3,4.9,16.9c0.2,0.3,0.2,0.7-0.1,1C197.6,283.3,197.4,283.3,197.2,283.3L197.2,283.3z"/>
	<path class="st1_girl-with-easter-egg-79" d="M291.1,258c-0.1,0-0.3,0-0.4-0.1l-6.8-4.8c-0.3-0.2-0.4-0.7-0.2-1c0.2-0.3,0.7-0.4,1-0.2l6.8,4.8&#10;&#9;&#9;c0.3,0.2,0.4,0.6,0.2,1c0,0,0,0,0,0C291.5,257.9,291.3,258,291.1,258z"/>
	<path class="st1_girl-with-easter-egg-79" d="M240.9,265.4c-0.1,0-0.2,0-0.3-0.1c-0.1-0.1-15.4-7.8-28.2-9.9c-0.4-0.1-0.6-0.4-0.6-0.8&#10;&#9;&#9;c0.1-0.4,0.4-0.6,0.8-0.6c0,0,0,0,0,0c13.1,2.2,28.5,10,28.6,10.1c0.3,0.2,0.5,0.6,0.3,0.9C241.4,265.2,241.2,265.4,240.9,265.4&#10;&#9;&#9;L240.9,265.4z"/>
	<path class="st1_girl-with-easter-egg-79" d="M218.2,278.8c-0.2,0-0.4-0.1-0.5-0.2c-0.3-0.3-0.2-0.7,0.1-1c0,0,0,0,0,0c6-5.2,21.6-10.5,22.2-10.7&#10;&#9;&#9;c0.4-0.1,0.8,0.2,0.8,0.5c0.1,0.3-0.1,0.6-0.4,0.8c-0.2,0.1-16,5.4-21.8,10.4C218.5,278.7,218.3,278.8,218.2,278.8z"/>
	<path class="st1_girl-with-easter-egg-79" d="M257.6,265.4c-0.3,0-0.6-0.3-0.7-0.6c-0.1-0.6-0.1-0.6,8.3-4.9c4.1-2.2,8.3-4.1,12.7-5.9&#10;&#9;&#9;c0.4-0.1,0.8,0.1,0.9,0.4c0,0,0,0,0,0c0.1,0.4-0.1,0.8-0.4,0.9c-5.9,2.1-19.5,9.4-20.4,9.9c-0.1,0-0.2,0.1-0.3,0.1L257.6,265.4z"/>
	<path class="st1_girl-with-easter-egg-79" d="M279.2,279.5c-0.1,0-0.2,0-0.3-0.1c-6.9-3.5-21.2-8.4-21.4-8.4c-0.4-0.1-0.6-0.5-0.5-0.8&#10;&#9;&#9;c0.1-0.4,0.5-0.6,0.8-0.5c0,0,0.1,0,0.1,0c0.1,0,14.5,4.9,21.5,8.5c0.3,0.2,0.5,0.6,0.3,0.9c0,0,0,0,0,0&#10;&#9;&#9;C279.7,279.3,279.5,279.5,279.2,279.5z"/>
</g>
</svg>