<svg version="1.1" id="Layer_1" xmlns="http://www.w3.org/2000/svg" xmlns:xlink="http://www.w3.org/1999/xlink" x="0px" y="0px" viewBox="0 0 500 500" style="width: 166px;" xml:space="preserve" data-imageid="map-1-44" imageName="Map 1" class="illustrations_image">
<style type="text/css">
	.st0_map-1-44{fill:#FFBC0E;}
	.st1_map-1-44{fill:#093F68;}
	.st2_map-1-44{fill:#68E1FD;}
	.st3_map-1-44{fill:#725858;}
	.st4_map-1-44{fill:#70CC40;}
	.st5_map-1-44{fill:#FFC9B0;}
	.st6_map-1-44{fill:#FFFFFF;}
	.st7_map-1-44{fill:#F56132;}
</style>
<g id="character_map-1-44">
	<path class="st0_map-1-44" d="M142.2,378.2c0,0,17-18.3,22.3-25.1l5.2,5.8l-16.1,22.3L142.2,378.2z"/>
	<path class="st1_map-1-44" d="M153.6,383.1c-0.2,0-0.3,0-0.5-0.1l-11.4-3c-0.6-0.2-1.1-0.7-1.3-1.3c-0.2-0.6,0-1.3,0.4-1.8&#10;&#9;&#9;c0.2-0.2,17-18.4,22.1-25c0.3-0.4,0.9-0.7,1.4-0.7c0.5,0,1.1,0.2,1.4,0.6l5.2,5.8c0.6,0.6,0.6,1.6,0.1,2.3l-16.1,22.3&#10;&#9;&#9;C154.8,382.8,154.2,383.1,153.6,383.1z M145.6,377.2l7.2,1.9l14.5-20.1l-2.8-3.1C159.6,361.9,149.9,372.5,145.6,377.2L145.6,377.2z&#10;&#9;&#9;"/>
	<polygon class="st1_map-1-44" points="160.1,379.5 151.6,421.3 265.9,421.3 255.8,378.2 &#9;"/>
	<path class="st1_map-1-44" d="M265.9,423.1H151.6c-1,0-1.8-0.8-1.8-1.9c0-0.1,0-0.2,0-0.4l8.4-41.7c0.2-0.8,0.9-1.5,1.8-1.5l95.7-1.4l0,0&#10;&#9;&#9;c0.9,0,1.6,0.6,1.8,1.4l10.1,43.1c0.2,1-0.4,2-1.4,2.2C266.1,423.1,266,423.1,265.9,423.1L265.9,423.1z M153.9,419.4h109.7&#10;&#9;&#9;l-9.2-39.4l-92.8,1.3L153.9,419.4z"/>
	<circle class="st2_map-1-44 targetColor" cx="213.7" cy="142.8" r="66" style="fill: rgb(104, 225, 253);"/>
	<path class="st1_map-1-44" d="M213.7,210.7c-37.5,0-67.9-30.4-67.9-67.9S176.2,75,213.7,75c37.5,0,67.9,30.4,67.9,67.9&#10;&#9;&#9;C281.5,180.3,251.2,210.7,213.7,210.7z M213.7,78.6c-35.5,0-64.2,28.7-64.2,64.2s28.7,64.2,64.2,64.2s64.2-28.7,64.2-64.2l0,0&#10;&#9;&#9;C277.9,107.4,249.2,78.7,213.7,78.6z"/>
	
		<ellipse transform="matrix(0.9815 -0.1913 0.1913 0.9815 -28.5972 44.0326)" class="st2_map-1-44 targetColor" cx="213.7" cy="170.1" rx="111.8" ry="74.4" style="fill: rgb(104, 225, 253);"/>
	<path class="st1_map-1-44" d="M196.4,248.1c-18.3,0-35.8-3.2-50.9-9.5c-24-10-39.4-26.6-43.3-46.8s4.1-41.3,22.6-59.6&#10;&#9;&#9;c18.3-18.1,44.7-31.2,74.4-37c61.5-12,118.1,11.8,126.1,53.1l0,0c8,41.2-35.4,84.6-96.9,96.6C217.8,247.1,207.1,248.1,196.4,248.1z&#10;&#9;&#9; M230.9,95.8c-10.4,0-20.8,1-31.1,3c-29,5.7-54.7,18.4-72.5,36c-17.6,17.4-25.2,37.4-21.5,56.3s18.3,34.5,41.1,44.1&#10;&#9;&#9;c23.1,9.6,51.7,11.8,80.7,6.2c59.5-11.6,101.7-53,94-92.3C315.3,116.8,277.3,95.8,230.9,95.8z"/>
	<path class="st3_map-1-44" d="M231.2,114.5c39.9,0,56.8,25.1,56.8,25.1c2.4,3.6,1.2,14.8,1.5,18.9c1,12.5,0.6,25-1.1,37.4&#10;&#9;&#9;c-0.6,4.5-1.1,9.3,0.4,13.6c2.1,5.7,7.7,10,8.2,16c0.9,8.9-9.8,16.5-7.6,25.2c1,3.9,4.3,6.7,6.4,10.2c3.5,6,2.9,13.7-0.2,19.9&#10;&#9;&#9;c-4.5,8.9-14.2,15.9-22.4,21.2c-14.3,9.5-32,12.3-49.1,12.9c-21.2,0.8-42.9-1.7-62.9-9.2c-12.5-4.7-40.4-17-31.4-35.6&#10;&#9;&#9;c1.4-2.9,3.6-5.3,5.5-7.8c3.9-5.2,6.5-12.2,4-18.1c-0.9-2.1-2.3-3.9-3.3-5.9c-2.7-5.8-1.4-12.7,1.7-18.3c1.6-2.9,3.6-5.5,4.6-8.6&#10;&#9;&#9;c1.5-4.7,0.6-9.7,0.2-14.6c-1.2-16.6,5.6-34.1,12.5-49c1.8-3.9,4.2-11,8-13.6C162.9,134.2,191.3,114.6,231.2,114.5z"/>
	<path class="st1_map-1-44" d="M216.7,317c-20.6,0-39.5-3.2-56.2-9.4c-12.6-4.7-28.6-12.7-33.1-23.9c-1.9-4.6-1.6-9.8,0.7-14.2&#10;&#9;&#9;c1.1-2.2,2.5-4.2,4.1-6.1c0.5-0.7,1.1-1.4,1.6-2.1c4.2-5.7,5.6-11.8,3.7-16.3c-0.5-1-1-2-1.6-3c-0.6-0.9-1.1-1.9-1.6-2.9&#10;&#9;&#9;c-2.7-5.6-2-13.1,1.7-20c0.5-0.9,1-1.8,1.5-2.6c1.2-1.8,2.1-3.7,2.9-5.7c1.1-3.4,0.8-7.1,0.4-11c-0.1-1-0.2-1.9-0.2-2.9&#10;&#9;&#9;c-1.2-17.3,5.7-34.9,12.7-49.9c0.3-0.7,0.7-1.5,1-2.4c1.8-4.2,4.1-9.5,7.6-11.9c1.2-0.8,29.5-20,69.3-20h0.1&#10;&#9;&#9;c40,0,57.5,24.9,58.2,25.9c1.9,2.8,1.9,8.2,1.8,15c0,1.9-0.1,3.7,0,4.8c1,12.6,0.6,25.3-1.1,37.8c-0.5,4.1-1.1,8.8,0.3,12.7&#10;&#9;&#9;c0.9,2.2,2.1,4.3,3.6,6.2c2.1,3.1,4.4,6.2,4.7,10.2c0.5,4.8-1.9,9.1-4.2,13.2s-4.4,7.9-3.5,11.7c0.5,2.1,2,4,3.5,5.9&#10;&#9;&#9;c1,1.2,1.9,2.5,2.7,3.8c3.6,6.1,3.5,14.4-0.2,21.7c-4.5,8.9-13.7,15.8-23,22c-12.5,8.2-28.4,12.5-50.1,13.2&#10;&#9;&#9;C221.6,317,219.2,317,216.7,317z M231.2,114.6v1.8c-38.7,0-66.1,18.6-67.2,19.4c-2.6,1.8-4.8,6.8-6.3,10.4&#10;&#9;&#9;c-0.4,0.9-0.8,1.7-1.1,2.4c-6.8,14.6-13.5,31.7-12.4,48.1c0.1,0.9,0.1,1.9,0.2,2.8c0.4,4.1,0.8,8.4-0.5,12.5&#10;&#9;&#9;c-0.8,2.3-1.9,4.4-3.2,6.4c-0.5,0.8-1,1.6-1.4,2.5c-3.2,5.8-3.8,12.1-1.6,16.6c0.4,0.9,0.9,1.7,1.4,2.5c0.7,1.1,1.4,2.3,1.9,3.5&#10;&#9;&#9;c3.5,8.2-1.8,16.7-4.2,20c-0.6,0.7-1.1,1.5-1.7,2.2c-1.4,1.6-2.6,3.4-3.7,5.3c-1.9,3.5-2.1,7.6-0.6,11.3c3.1,7.9,13.9,15.4,31,21.8&#10;&#9;&#9;c18.3,6.8,39.2,9.9,62.2,9.1c21-0.8,36.3-4.8,48.2-12.6c8.9-5.9,17.6-12.4,21.8-20.5c3.1-6.2,3.2-13.1,0.3-18.1&#10;&#9;&#9;c-0.7-1.2-1.5-2.3-2.4-3.4c-1.7-2.2-3.5-4.4-4.2-7.3c-1.3-5.3,1.3-9.9,3.8-14.4c2.1-3.8,4.1-7.4,3.8-11c-0.3-3-2.1-5.7-4.1-8.5&#10;&#9;&#9;c-1.7-2.2-3-4.5-4.1-7.1c-1.8-4.8-1.1-9.9-0.5-14.5c1.7-12.3,2-24.7,1.1-37c-0.1-1.3-0.1-3.1,0-5.2c0.1-4.3,0.2-10.8-1.2-12.8&#10;&#9;&#9;c-0.7-1-17.1-24.3-55.1-24.3h-0.1L231.2,114.6z"/>
	<path class="st2_map-1-44 targetColor" d="M192.6,268.8h30.1c14.3,0,30-2.6,40.2,10c4.5,5.6,5.8,13.6,8.5,20.2c4.3,10.3,11.5,27.6,23.6,30.9&#10;&#9;&#9;c24,6.6,47.8,3.1,48,3.1c8.1-1.1,15.6,4.6,16.7,12.8c1,7.9-4.2,15.2-12,16.6c-6.9,0.9-13.8,1.4-20.7,1.3&#10;&#9;&#9;c-13.5,0.1-26.9-1.6-39.9-5.1c-9.6-2.7-23.6-8.9-31.5-18.7v39.7h-95.5v-78.3C160.1,283.3,174.6,268.8,192.6,268.8z" style="fill: rgb(104, 225, 253);"/>
	<path class="st1_map-1-44" d="M255.6,381.4h-95.5c-1,0-1.8-0.8-1.8-1.8v-78.3c0-18.9,15.4-34.3,34.3-34.3h30.1c2.1,0,4.2-0.1,6.3-0.1&#10;&#9;&#9;c12.8-0.3,26.1-0.7,35.3,10.8c3.3,4,4.9,9.1,6.5,14c0.8,2.4,1.5,4.6,2.4,6.7l0.1,0.2c4.2,9.9,11.2,26.6,22.3,29.7&#10;&#9;&#9;c23.3,6.5,46.2,3.2,47.2,3c9.1-1.4,17.7,4.8,19.1,13.9c0.7,4.4-0.4,8.9-3,12.4c-2.6,3.6-6.5,6-10.9,6.6c-7,1-14,1.4-21,1.4&#10;&#9;&#9;c-13.6,0.1-27.2-1.6-40.4-5.2c-9.2-2.5-21-7.9-29.2-15.7v34.9C257.4,380.5,256.6,381.4,255.6,381.4z M161.9,377.7h91.8v-37.8&#10;&#9;&#9;c0-1,0.8-1.8,1.8-1.9c0.6,0,1.1,0.3,1.5,0.7c7.4,9.1,20.6,15.3,30.6,18.1c12.8,3.4,26.1,5.1,39.4,5.1c6.8,0.1,13.6-0.4,20.4-1.3&#10;&#9;&#9;c7.1-1.1,12-7.8,10.8-14.9c-1.1-7.1-7.8-12-14.9-10.8l0,0c-1,0.1-24.7,3.6-48.8-3.1c-12.9-3.6-20.3-21.2-24.8-31.8l-0.1-0.2&#10;&#9;&#9;c-1-2.2-1.7-4.6-2.5-7c-1.5-4.5-3-9.2-5.8-12.8c-8.1-10-19.9-9.7-32.4-9.4c-2.1,0.1-4.3,0.1-6.4,0.1h-30.1&#10;&#9;&#9;c-16.9,0-30.6,13.7-30.6,30.6V377.7z"/>
	<path class="st4_map-1-44" d="M233.6,272.9c0,0-3.3,22.3-7.5,33.3l-12-33.3H233.6z"/>
	<path class="st1_map-1-44" d="M226.1,308L226.1,308c-0.8,0-1.5-0.5-1.7-1.2l-12-33.3c-0.2-0.6-0.1-1.2,0.2-1.7c0.3-0.5,0.9-0.8,1.5-0.8h19.5&#10;&#9;&#9;c1,0,1.8,0.8,1.8,1.9c0,0.1,0,0.2,0,0.3c-0.1,0.9-3.4,22.6-7.6,33.7C227.5,307.5,226.8,308,226.1,308z M216.7,274.7l9.3,25.8&#10;&#9;&#9;c2.3-8.5,4.1-17.1,5.4-25.8L216.7,274.7z"/>
	<path class="st5_map-1-44" d="M213.7,258.6H234l0,0v15.6c0,2.6-2.1,4.7-4.7,4.7c0,0,0,0,0,0h-10.9c-2.6,0-4.7-2.1-4.7-4.7l0,0L213.7,258.6&#10;&#9;&#9;L213.7,258.6L213.7,258.6z"/>
	<path class="st1_map-1-44" d="M225.4,280.8h-3c-5.8,0-10.4-4.7-10.5-10.5v-11.7c0-1,0.8-1.9,1.8-1.9h0H234c1,0,1.8,0.8,1.8,1.8c0,0,0,0,0,0&#10;&#9;&#9;v11.7C235.8,276.1,231.1,280.8,225.4,280.8C225.4,280.8,225.4,280.8,225.4,280.8z M215.6,260.5v9.9c0,3.7,3,6.8,6.8,6.8h3&#10;&#9;&#9;c3.7,0,6.8-3,6.8-6.8l0,0v-9.9H215.6z"/>
	<path class="st5_map-1-44" d="M185.6,205.9c0,9.4-8.8,17-19.7,17s-19.7-12.5-19.7-21.9s8.8-12.1,19.7-12.1S185.6,196.5,185.6,205.9z"/>
	<path class="st1_map-1-44" d="M166,224.7c-11.6,0-21.5-13.1-21.5-23.8c0-9.2,7.2-13.9,21.5-13.9c11.9,0,21.5,8.5,21.5,18.9&#10;&#9;&#9;S177.8,224.7,166,224.7z M166,190.7c-17.8,0-17.8,7.7-17.8,10.2c0,8.9,8.4,20.1,17.8,20.1c9.8,0,17.8-6.8,17.8-15.2&#10;&#9;&#9;S175.8,190.7,166,190.7L166,190.7z"/>
	<path class="st5_map-1-44" d="M300.4,201c0,9.4-8.8,21.9-19.7,21.9s-19.7-7.6-19.7-17s8.8-17,19.7-17S300.4,191.6,300.4,201z"/>
	<path class="st1_map-1-44" d="M280.7,224.7c-11.9,0-21.5-8.5-21.5-18.9s9.6-18.9,21.5-18.9c14.3,0,21.5,4.7,21.5,14&#10;&#9;&#9;C302.2,211.6,292.3,224.7,280.7,224.7z M280.7,190.7c-9.8,0-17.8,6.8-17.8,15.2s8,15.2,17.8,15.2c9.4,0,17.8-11.2,17.8-20.1&#10;&#9;&#9;C298.5,198.4,298.5,190.7,280.7,190.7L280.7,190.7z"/>
	<path class="st5_map-1-44" d="M223.9,261.3L223.9,261.3c-32.8,0-59.4-26.7-59.3-59.5c0,0,0,0,0,0v-27.6c0-14.3,21.8-41,36-41&#10;&#9;&#9;c0,0,2.3,13.5,24.7,25.4c15.7,8.3,37.8,8.8,57.9-5.2v48.4C283.2,234.6,256.7,261.2,223.9,261.3z"/>
	<path class="st1_map-1-44" d="M223.9,263.1c-33.8-0.1-61.2-27.5-61.2-61.4v-27.6c0-15.1,22.3-42.9,37.9-42.9c0.9,0,1.7,0.6,1.8,1.5&#10;&#9;&#9;c0,0.1,2.6,12.9,23.8,24c13.4,7.1,35.1,9.4,56-5.1c0.8-0.6,2-0.4,2.6,0.5c0.2,0.3,0.3,0.7,0.3,1v48.4&#10;&#9;&#9;C285.1,235.6,257.7,263.1,223.9,263.1z M199.2,135.1c-11.8,1.7-32.8,24.3-32.8,39.1v27.6c0,31.8,25.7,57.6,57.5,57.7l0,0&#10;&#9;&#9;c31.8-0.1,57.5-25.9,57.5-57.7v-45c-21.3,13.3-43.2,10.6-56.9,3.4C205.8,150.4,200.5,139.3,199.2,135.1L199.2,135.1z"/>
	<path class="st1_map-1-44" d="M181.4,180c-2,0-3.7-1.7-3.7-3.7s1.7-3.7,3.7-3.7l26.2-0.3h0.1c2,0,3.7,1.7,3.7,3.7s-1.7,3.7-3.7,3.7&#10;&#9;&#9;L181.4,180L181.4,180z"/>
	<path class="st1_map-1-44" d="M268.7,179.5L268.7,179.5l-26.2-0.2c-2-0.1-3.6-1.8-3.5-3.9c0.1-1.9,1.6-3.4,3.5-3.5l0,0l26.2,0.2&#10;&#9;&#9;c2,0,3.7,1.7,3.7,3.7S270.7,179.5,268.7,179.5z"/>
	<path class="st6_map-1-44" d="M248,225.7h-43.8c0,0,4.1,20.6,20.6,19.6C248.6,243.7,248,225.7,248,225.7z"/>
	<path class="st1_map-1-44" d="M223.6,247.1c-16.9,0-21.2-20.9-21.2-21.1c-0.1-0.5,0-1.1,0.4-1.5c0.3-0.4,0.9-0.7,1.4-0.7H248&#10;&#9;&#9;c1,0,1.8,0.8,1.8,1.8c0,0.2,0.4,19.9-24.9,21.5C224.5,247.1,224.1,247.1,223.6,247.1z M206.6,227.5c1.5,5,6.3,16.6,18.1,15.9&#10;&#9;&#9;c17.6-1.1,20.7-11.6,21.3-15.9H206.6z"/>
	<path class="st0_map-1-44" d="M254,268.8c0,0-39,91-79.7,109.4l1.9,8.2c0,0,22.2,2.4,57.8-56.1c30.5-50.3,28.3-54.3,28.3-54.3L254,268.8z"/>
	<path class="st1_map-1-44" d="M176.5,388.2c-0.2,0-0.4,0-0.6,0c-0.8-0.1-1.4-0.7-1.6-1.4l-1.9-8.2c-0.2-0.8,0.2-1.7,1-2.1&#10;&#9;&#9;c39.5-17.9,78.4-107.5,78.7-108.4c0.4-0.9,1.5-1.4,2.4-1c0.2,0.1,0.4,0.2,0.5,0.3l8.3,7.3c0.2,0.1,0.3,0.3,0.4,0.5&#10;&#9;&#9;c2.3,4.1-14.1,32.8-28.4,56.1C202.4,385.6,180.4,388.2,176.5,388.2z M176.4,379.2l1.2,5.2c5.1-0.7,25.2-6.5,54.8-55.1&#10;&#9;&#9;c24.3-39.9,27.6-50.2,28-52.5l-5.8-5c-7.1,15.6-14.9,30.9-23.6,45.7C211.6,350.2,193.3,370.9,176.4,379.2z"/>
	<path class="st2_map-1-44 targetColor" d="M200.7,292.5l4.9,36.5c0,7.5,6.1,15.3,13.7,15.3h33.3v29.8h-54.9c-15.4,0-27.9-12.5-27.9-27.9l-4.9-51.1" style="fill: rgb(104, 225, 253);"/>
	<path class="st1_map-1-44" d="M252.6,376h-54.9c-16.4,0-29.7-13.3-29.7-29.7l-4.9-51c-0.1-1,0.7-1.9,1.7-2c1-0.1,1.9,0.6,2,1.6c0,0,0,0,0,0&#10;&#9;&#9;l4.9,51.2c0,14.4,11.6,26.1,26,26.2h53.1v-26.1h-31.5c-8.8,0-15.4-9-15.5-17l-4.9-36.4c-0.2-1,0.5-2,1.5-2.2c1-0.2,2,0.5,2.2,1.5&#10;&#9;&#9;c0,0.1,0,0.2,0,0.2l4.9,36.5c0,0.1,0,0.2,0,0.2c0,6.2,5.2,13.5,11.8,13.5h33.4c1,0,1.8,0.8,1.8,1.8v29.8&#10;&#9;&#9;C254.3,375.2,253.6,376,252.6,376z"/>
	<path class="st1_map-1-44" d="M255.6,341.7c-1,0-1.8-0.8-1.8-1.9c0-0.4,0.1-0.7,0.3-1c0.1-0.2,12.3-17.9,2.5-35.3c-0.6-0.8-0.3-2,0.5-2.6&#10;&#9;&#9;c0.8-0.6,2-0.3,2.6,0.5c0.1,0.1,0.1,0.2,0.1,0.2c11,19.4-2.1,38.4-2.7,39.2C256.8,341.4,256.2,341.7,255.6,341.7z"/>
	<path class="st1_map-1-44" d="M231.1,218.6c-1.8,0-3.6-0.2-5.4-0.4c-1-0.1-1.7-1.1-1.6-2.1c0.1-1,1.1-1.7,2.1-1.6c0.1,0,0.1,0,0.2,0&#10;&#9;&#9;c2.6,0.5,5.3,0.5,8,0.1c0.2-1.7-1.8-7.5-4.6-12.9c-0.5-0.9-0.1-2,0.8-2.5s2-0.1,2.5,0.8c1.9,3.7,6.3,12.8,4.7,16.3&#10;&#9;&#9;c-0.4,0.9-1.1,1.5-2.1,1.8C234.2,218.5,232.7,218.7,231.1,218.6z"/>
	<ellipse class="st1_map-1-44" cx="262.6" cy="200.9" rx="5.2" ry="5.2"/>
	<ellipse class="st1_map-1-44" cx="208.7" cy="200.9" rx="5.2" ry="5.2"/>
	<path class="st1_map-1-44" d="M257.6,215.9c-10.3,0-18.7-8.3-18.7-18.6s8.3-18.7,18.6-18.7c10.3,0,18.7,8.3,18.7,18.6c0,0,0,0,0,0&#10;&#9;&#9;C276.2,207.5,267.9,215.9,257.6,215.9z M257.6,182.3c-8.3,0-15,6.7-15,15s6.7,15,15,15s15-6.7,15-15l0,0&#10;&#9;&#9;C272.6,189,265.9,182.3,257.6,182.3C257.6,182.3,257.6,182.3,257.6,182.3L257.6,182.3z"/>
	<path class="st1_map-1-44" d="M207.6,215.9c-10.3,0-18.7-8.3-18.7-18.6s8.3-18.7,18.6-18.7c10.3,0,18.7,8.3,18.7,18.6c0,0,0,0,0,0&#10;&#9;&#9;C226.2,207.5,217.9,215.9,207.6,215.9z M207.6,182.3c-8.3,0-15,6.7-15,15s6.7,15,15,15s15-6.7,15-15l0,0&#10;&#9;&#9;C222.6,189,215.9,182.3,207.6,182.3L207.6,182.3L207.6,182.3z"/>
	<path class="st1_map-1-44" d="M240.8,199.1h-16.4c-1,0.1-1.9-0.7-2-1.7s0.7-1.9,1.7-2c0.1,0,0.2,0,0.3,0h16.4c1-0.1,1.9,0.7,2,1.7&#10;&#9;&#9;s-0.7,1.9-1.7,2C241,199.1,240.9,199.1,240.8,199.1z"/>
	<path class="st1_map-1-44" d="M274.2,196.5c-1,0-1.8-0.8-1.9-1.8c0-0.6,0.3-1.1,0.7-1.5l9.2-7.4c0.8-0.6,2-0.4,2.6,0.5&#10;&#9;&#9;c0.5,0.8,0.4,1.8-0.3,2.4l-9.2,7.4C275,196.4,274.6,196.5,274.2,196.5z"/>
	<path class="st1_map-1-44" d="M190.8,199.1c-0.2,0-0.4,0-0.6-0.1l-24.8-8.4c-1-0.3-1.5-1.4-1.2-2.3c0.3-1,1.4-1.5,2.3-1.1l24.8,8.4&#10;&#9;&#9;c1,0.3,1.5,1.4,1.2,2.3C192.3,198.6,191.6,199.1,190.8,199.1L190.8,199.1z"/>
	<path class="st7_map-1-44" d="M136.4,378.2c-2.8,2.6-24.2,36.1-19.5,41.7s57.4,2.3,57.4,2.3s8.4-41,7.1-44S139.2,375.6,136.4,378.2z"/>
	<path class="st1_map-1-44" d="M144.8,425c-13.6,0-26.7-0.9-29.3-4c-6-7.2,17.2-41.9,19.7-44.2l0,0c3.4-3.2,36-3.1,44-1.5&#10;&#9;&#9;c1.7,0.3,3.3,0.8,3.9,2.1c1.4,3.1-3.7,29.6-6.9,45.2c-0.2,0.8-0.9,1.4-1.7,1.5C168.6,424.4,156.5,425,144.8,425z M137.6,379.5&#10;&#9;&#9;c-3.9,3.7-22.5,35.3-19.3,39.1c2.5,3,29.9,3.2,54.5,1.8c3.7-18,7.1-37.4,6.9-41.2C174.7,377.3,141.5,377.5,137.6,379.5L137.6,379.5&#10;&#9;&#9;z M136.4,378.1L136.4,378.1z"/>
	<path class="st1_map-1-44" d="M140.9,398.9c-9.8,0-15.5-2.9-15.8-3c-0.9-0.5-1.2-1.7-0.7-2.5c0.5-0.8,1.5-1.1,2.4-0.7&#10;&#9;&#9;c0.1,0,9.3,4.6,24.5,1.5s28.6-17,28.7-17.2c0.7-0.7,1.9-0.7,2.6,0.1c0.6,0.7,0.7,1.7,0.1,2.4c-0.6,0.6-14.2,14.9-30.7,18.3&#10;&#9;&#9;C148.3,398.5,144.6,398.8,140.9,398.9z"/>
	<circle class="st0_map-1-44" cx="143.6" cy="386.1" r="3.2"/>
	<path class="st1_map-1-44" d="M143.6,391.1c-2.8,0-5-2.2-5-5c0-2.8,2.2-5,5-5c2.7,0,5,2.2,5,5C148.6,388.8,146.4,391.1,143.6,391.1&#10;&#9;&#9;C143.6,391.1,143.6,391.1,143.6,391.1z M143.6,384.7c-0.8,0-1.4,0.6-1.4,1.4c0,0.8,0.6,1.4,1.4,1.4c0.8,0,1.4-0.6,1.4-1.4&#10;&#9;&#9;c0,0,0,0,0,0C145,385.3,144.3,384.7,143.6,384.7C143.6,384.7,143.6,384.7,143.6,384.7z"/>
</g>
<g id="map_map-1-44">
	<polygon class="st6_map-1-44" points="265.9,383.4 283.5,286.8 322.1,297.9 298.1,393.1 &#9;"/>
	<path class="st1_map-1-44" d="M298.1,395c-0.2,0-0.4,0-0.5-0.1l-32.2-9.7c-0.9-0.3-1.5-1.2-1.3-2.1l17.6-96.6c0.1-0.5,0.4-1,0.8-1.2&#10;&#9;&#9;c0.4-0.3,1-0.3,1.5-0.2l38.6,11.2c1,0.3,1.5,1.3,1.3,2.2l-24.1,95.2c-0.1,0.5-0.4,0.9-0.9,1.2C298.7,394.9,298.4,395,298.1,395z&#10;&#9;&#9; M268,382.1l28.8,8.7l23.2-91.6l-35-10.1L268,382.1z"/>
	<polygon class="st6_map-1-44" points="322.1,297.9 348.4,285.5 323.2,379.5 298.1,393.1 &#9;"/>
	<path class="st1_map-1-44" d="M298.1,395c-1,0-1.8-0.8-1.8-1.8c0-0.2,0-0.3,0.1-0.5l24.1-95.2c0.1-0.5,0.5-1,1-1.2l26.3-12.4&#10;&#9;&#9;c0.9-0.4,2,0,2.5,0.9c0.2,0.4,0.2,0.8,0.1,1.2L325,380c-0.1,0.5-0.5,0.9-0.9,1.1l-25.2,13.6C298.7,394.9,298.4,395,298.1,395z&#10;&#9;&#9; M323.7,299.2l-22.8,90.3l20.8-11.2l23.9-89.4L323.7,299.2z"/>
	<path class="st5_map-1-44" d="M253,347.3c0,0,11.4-10.7,19.3-12.5s17.2-2.3,19.2,1.9s6.8,22.3,0,26.1S253,372.8,253,372.8V347.3z"/>
	<path class="st1_map-1-44" d="M253,374.6c-1,0-1.8-0.8-1.8-1.8v-25.5c0-0.5,0.2-1,0.6-1.4c0.5-0.5,11.9-11,20.1-13c4.2-1,18.1-3.7,21.3,2.8&#10;&#9;&#9;c1.9,3.7,7.8,23.8-0.8,28.5c-6.9,3.8-37.7,10.1-39,10.3C253.3,374.6,253.1,374.6,253,374.6z M254.9,348.1v22.4&#10;&#9;&#9;c11.4-2.4,31-6.8,35.8-9.5c5-2.8,1.5-19.1-0.8-23.6c-1.3-2.6-8.5-2.9-17.2-0.9C266.4,338,257.3,345.9,254.9,348.1L254.9,348.1z"/>
	<polygon class="st6_map-1-44" points="348.4,285.5 370.3,300.7 344,393.1 323.2,379.5 &#9;"/>
	<path class="st1_map-1-44" d="M344,395c-0.4,0-0.7-0.1-1-0.3l-20.8-13.6c-0.7-0.4-1-1.2-0.8-2l25.2-94c0.2-0.6,0.6-1,1.1-1.3&#10;&#9;&#9;c0.6-0.2,1.2-0.1,1.7,0.2l21.9,15.2c0.6,0.4,0.9,1.2,0.7,2l-26.3,92.4c-0.2,0.6-0.6,1-1.1,1.2C344.4,395,344.2,395,344,395z&#10;&#9;&#9; M325.3,378.8l17.7,11.5l25.2-88.7l-18.7-13L325.3,378.8z"/>
	<polygon class="st6_map-1-44" points="370.3,300.7 397.1,290.6 372.5,379 344,393.1 &#9;"/>
	<path class="st1_map-1-44" d="M344,395c-0.4,0-0.8-0.2-1.2-0.4c-0.6-0.5-0.8-1.2-0.6-1.9l26.3-92.4c0.2-0.6,0.6-1,1.1-1.2l26.8-10.1&#10;&#9;&#9;c0.7-0.2,1.4-0.1,1.9,0.4c0.5,0.5,0.7,1.2,0.5,1.9l-24.5,88.4c-0.2,0.5-0.5,0.9-1,1.2l-28.5,14.1C344.6,394.9,344.3,395,344,395z&#10;&#9;&#9; M371.8,302.1L347,389.6l24-11.9l23.4-84.1L371.8,302.1z"/>
	<path class="st5_map-1-44" d="M373.7,342.9c-1.6,3.9-3.3,11.6,0.9,14.4c2.3,1.4,5.3,1.5,7.7,0.1c2.4-1.3,4.2-3.5,5.1-6&#10;&#9;&#9;c1.9-4.5,2.8-9.4,2.5-14.4c-0.3-5.4-1.6-8.8-7.2-5.1C378.6,334.5,375.5,338.4,373.7,342.9z"/>
	<path class="st1_map-1-44" d="M378.4,360.2c-1.7,0-3.4-0.5-4.8-1.4c-5.2-3.4-3.5-12-1.6-16.6l0,0c2-4.8,5.4-8.9,9.7-11.8&#10;&#9;&#9;c2.8-1.8,5-2.3,6.9-1.4c2.5,1.3,3,4.7,3.2,8c0.2,5.2-0.7,10.4-2.7,15.2c-1.1,2.9-3.3,5.3-6,6.9C381.6,359.8,380,360.2,378.4,360.2z&#10;&#9;&#9; M375.4,343.5c-1.5,3.7-2.8,10.2,0.2,12.1c1.8,1,4,1,5.8,0c2-1.1,3.5-2.9,4.3-5c1.8-4.3,2.6-8.9,2.4-13.5c-0.2-4.1-1-4.8-1.2-4.9&#10;&#9;&#9;s-0.8-0.3-3.2,1.2C380,335.9,377.1,339.4,375.4,343.5L375.4,343.5z"/>
</g>
</svg>