<svg id="_0527_online_campaign" xmlns="http://www.w3.org/2000/svg" viewBox="0 0 500 500" data-imageid="marketing-campaign-1-95" imageName="Marketing Campaign 1" class="illustrations_image" style="width: 166px;"><defs><style>.cls-1_marketing-campaign-1-95{fill:#fff;}.cls-2_marketing-campaign-1-95{opacity:.46;}.cls-2_marketing-campaign-1-95,.cls-3_marketing-campaign-1-95,.cls-4_marketing-campaign-1-95,.cls-5_marketing-campaign-1-95,.cls-6_marketing-campaign-1-95{fill:none;}.cls-7_marketing-campaign-1-95{fill:#a5a5a5;}.cls-3_marketing-campaign-1-95{opacity:.44;}.cls-8_marketing-campaign-1-95{fill:#e6e6e6;}.cls-4_marketing-campaign-1-95{opacity:.08;}.cls-5_marketing-campaign-1-95{opacity:.47;}.cls-6_marketing-campaign-1-95{opacity:.27;}.cls-9_marketing-campaign-1-95{fill:#24285b;}.cls-10_marketing-campaign-1-95{fill:#ffd200;}.cls-11_marketing-campaign-1-95{fill:#68e1fd;}</style></defs><g id="screen_marketing-campaign-1-95"><rect class="cls-8_marketing-campaign-1-95" x="40.21" y="114.59" width="386.66" height="344.92"/><rect class="cls-7_marketing-campaign-1-95" x="40.21" y="78.32" width="386.66" height="36.28"/><g class="cls-4_marketing-campaign-1-95"><rect x="313.57" y="139.42" width="85.14" height="50.41"/></g><g class="cls-4_marketing-campaign-1-95"><rect x="313.57" y="198.13" width="85.14" height="50.41"/></g><g class="cls-4_marketing-campaign-1-95"><rect x="313.57" y="256.85" width="85.14" height="50.41"/></g><rect class="cls-11_marketing-campaign-1-95 targetColor" x="73.42" y="138.27" width="219.6" height="168.13" style="fill: rgb(104, 225, 253);"/><rect class="cls-9_marketing-campaign-1-95" x="73.42" y="288.99" width="219.6" height="17.41"/><g class="cls-2_marketing-campaign-1-95"><rect class="cls-1_marketing-campaign-1-95" x="84.65" y="296.54" width="197.13" height="2.32"/></g><circle class="cls-10_marketing-campaign-1-95" cx="130.12" cy="297.7" r="6.69"/><g class="cls-3_marketing-campaign-1-95"><polygon class="cls-1_marketing-campaign-1-95" points="160.65 261.45 160.65 175.6 225.8 218.53 160.65 261.45"/></g><circle class="cls-9_marketing-campaign-1-95" cx="63.34" cy="97.11" r="5.72"/><circle class="cls-10_marketing-campaign-1-95" cx="82.41" cy="97.11" r="5.72"/><circle class="cls-11_marketing-campaign-1-95 targetColor" cx="101.48" cy="97.11" r="5.72" style="fill: rgb(104, 225, 253);"/><g class="cls-4_marketing-campaign-1-95"><path d="m426.87,78.32v91.08c-11.46,8.66-25.75,13.8-41.24,13.8-37.88,0-68.58-30.71-68.58-68.6,0-13.31,3.79-25.75,10.38-36.28h99.44Z"/></g><g class="cls-5_marketing-campaign-1-95"><rect class="cls-1_marketing-campaign-1-95" x="70.17" y="335.47" width="323.15" height="93.15"/></g><g class="cls-4_marketing-campaign-1-95"><rect x="325.31" y="324.35" width="101.57" height="123.48"/></g><g class="cls-4_marketing-campaign-1-95"><rect x="40.22" y="375.18" width="105.18" height="69.54"/></g><g class="cls-4_marketing-campaign-1-95"><rect x="40.21" y="132.9" width="78.35" height="63.14"/></g></g><g id="broadcast_marketing-campaign-1-95"><rect class="cls-8_marketing-campaign-1-95" x="340.9" y="298.69" width="143.65" height="130.94"/><path class="cls-11_marketing-campaign-1-95 targetColor" d="m394.15,339.7h-18.19c-7.12,0-12.89,5.77-12.89,12.89v11.88c0,7.12,5.77,12.89,12.89,12.89h1.79l6.06,28.47,9.63-2.05-5.63-26.42h6.32l57,14.69v-67.05l-57,14.69Z" style="fill: rgb(104, 225, 253);"/><rect class="cls-11_marketing-campaign-1-95 targetColor" x="454.22" y="322.5" width="8.17" height="72.06" rx="1.88" ry="1.88" style="fill: rgb(104, 225, 253);"/><g class="cls-4_marketing-campaign-1-95"><rect x="375.16" y="345.36" width="18.16" height="4.59"/></g></g><g id="chart_marketing-campaign-1-95"><rect class="cls-8_marketing-campaign-1-95" x="15.45" y="350.65" width="122.48" height="84.93"/><rect class="cls-7_marketing-campaign-1-95" x="44.41" y="399.65" width="13.79" height="17.63"/><rect class="cls-10_marketing-campaign-1-95" x="70.17" y="386.09" width="13.79" height="31.19"/><rect class="cls-11_marketing-campaign-1-95 targetColor" x="95.44" y="372.26" width="13.79" height="45.02" style="fill: rgb(104, 225, 253);"/></g><g id="goal_marketing-campaign-1-95"><path class="cls-8_marketing-campaign-1-95" d="m463.29,109.07c0,2.68-.16,5.33-.46,7.93-1.1,9.66-4.22,18.71-8.93,26.73-2.21,3.79-4.79,7.33-7.68,10.61-12.56,14.3-30.98,23.32-51.52,23.32-37.88,0-68.59-30.71-68.59-68.59s30.71-68.58,68.59-68.58,67.92,30.04,68.57,67.36c.02.4.02.81.02,1.22Z"/><circle class="cls-11_marketing-campaign-1-95 targetColor" cx="394.71" cy="109.07" r="48.43" style="fill: rgb(104, 225, 253);"/><circle class="cls-8_marketing-campaign-1-95" cx="394.71" cy="109.07" r="29.52"/><circle class="cls-11_marketing-campaign-1-95 targetColor" cx="394.71" cy="109.07" r="14.23" style="fill: rgb(104, 225, 253);"/><polygon class="cls-10_marketing-campaign-1-95" points="467.97 66.16 446.01 76.96 447.08 63.85 469.04 53.06 467.97 66.16"/><polygon class="cls-10_marketing-campaign-1-95" points="470.61 71.54 448.65 82.34 459.68 89.5 481.64 78.7 470.61 71.54"/><rect class="cls-9_marketing-campaign-1-95" x="388.8" y="83.69" width="88.41" height="6" transform="translate(6.16 199.88) rotate(-26.17)"/><g class="cls-6_marketing-campaign-1-95"><rect class="cls-1_marketing-campaign-1-95" x="388.8" y="83.69" width="88.41" height="6" transform="translate(6.16 199.88) rotate(-26.17)"/></g></g><g id="__marketing-campaign-1-95"><rect class="cls-8_marketing-campaign-1-95" x="21.61" y="126.54" width="91.09" height="63.14"/><path class="cls-7_marketing-campaign-1-95" d="m76.77,177.47c-3.46,1.82-6.98,2.51-11.19,2.51-10.31,0-19.04-7.54-19.04-19.61,0-12.95,8.99-24.13,22.94-24.13,10.94,0,18.29,7.67,18.29,18.16,0,9.43-5.28,14.96-11.19,14.96-2.51,0-4.84-1.7-4.65-5.53h-.25c-2.2,3.71-5.09,5.53-8.86,5.53s-6.79-2.95-6.79-7.92c0-7.79,6.16-14.9,14.9-14.9,2.7,0,5.09.57,6.72,1.32l-2.14,11.38c-.94,4.78-.19,6.98,1.89,7.04,3.21.06,6.79-4.21,6.79-11.5,0-9.11-5.47-15.65-15.21-15.65-10.24,0-18.86,8.11-18.86,20.87,0,10.5,6.85,16.97,16.15,16.97,3.58,0,6.91-.75,9.49-2.2l1.01,2.7Zm-3.46-27.15c-.63-.19-1.7-.44-3.14-.44-5.53,0-9.99,5.22-9.99,11.31,0,2.77,1.38,4.78,4.15,4.78,3.64,0,6.98-4.65,7.67-8.55l1.32-7.1Z"/></g></svg>