<svg version="1.1" id="Layer_1" xmlns="http://www.w3.org/2000/svg" xmlns:xlink="http://www.w3.org/1999/xlink" x="0px" y="0px" viewBox="0 0 500 500" style="width: 166px;" xml:space="preserve" data-imageid="marketing-5-11" imageName="Marketing 5" class="illustrations_image">
<style type="text/css">
	.st0_marketing-5-11{fill:#55823D;}
	.st1_marketing-5-11{fill:url(#SVGID_1_);}
	.st2_marketing-5-11{fill:url(#SVGID_00000136400606442678843580000010359749808987147946_);}
	.st3_marketing-5-11{fill:#68E1FD;}
	.st4_marketing-5-11{fill:#FFFFFF;}
	.st5_marketing-5-11{fill:#124577;}
	.st6_marketing-5-11{fill:#F9847F;}
	.st7_marketing-5-11{opacity:0.82;fill:#124577;enable-background:new    ;}
	.st8_marketing-5-11{fill:#EB4956;}
	.st9_marketing-5-11{fill:#FFC4B0;}
	.st10_marketing-5-11{fill:#42210B;}
	.st11_marketing-5-11{fill:#2D2D2D;}
	.st12_marketing-5-11{opacity:0.5;fill:#FFFFFF;enable-background:new    ;}
	.st13_marketing-5-11{fill:#8CCC00;}
</style>
<g id="background_marketing-5-11">
	<path class="st0_marketing-5-11" d="M243.6,405.3L21.1,273.8c-7.1-4-13.2-10.5-6.2-14.8l223.3-128.7c3.4-2.1,8.4-3.4,11.9-1.5l233.6,135.5&#10;&#9;&#9;c7.1,4.1,8.4,15.6,1.3,19.7l-211.9,121C263.9,410.3,252.7,410.4,243.6,405.3z"/>
	
		<linearGradient id="SVGID_1_-marketing-5-11" gradientUnits="userSpaceOnUse" x1="406.2198" y1="222.2802" x2="366.7198" y2="193.7802" gradientTransform="matrix(1 0 0 -1 0 502)">
		<stop offset="0" style="stop-color:#2D2D2D;stop-opacity:0.5"/>
		<stop offset="1" style="stop-color:#55823D;stop-opacity:0"/>
	</linearGradient>
	<polyline class="st1_marketing-5-11" points="431.2,283 371.8,317.2 347.4,300.9 416.3,260.5 &#9;"/>
	
		<linearGradient id="SVGID_00000113347551240424573280000012644556208251981973_-marketing-5-11" gradientUnits="userSpaceOnUse" x1="274.5532" y1="212.0856" x2="207.7832" y2="163.9056" gradientTransform="matrix(1 0 0 -1 0 502)">
		<stop offset="0" style="stop-color:#2D2D2D;stop-opacity:0.5"/>
		<stop offset="1" style="stop-color:#55823D;stop-opacity:0"/>
	</linearGradient>
	<polyline style="fill:url(#SVGID_00000113347551240424573280000012644556208251981973_);" points="313.3,287.6 203.4,347.2 &#10;&#9;&#9;180.1,332.5 254,292.1 &#9;"/>
</g>
<g id="messages_marketing-5-11">
	<path class="st3_marketing-5-11 targetColor" d="M65.8,212.5l83.9-48.1c3.1-1.8,7-0.7,8.7,2.3c0.6,1,0.9,2.1,0.9,3.2v34.5c0,2.3-1.2,4.4-3.2,5.5l-83.9,48.4&#10;&#9;&#9;c-3.1,1.8-7,0.7-8.7-2.3c-0.6-1-0.9-2.1-0.9-3.2v-34.7C62.6,215.8,63.8,213.7,65.8,212.5z" style="fill: rgb(104, 225, 253);"/>
	
		<ellipse transform="matrix(0.2889 -0.9574 0.9574 0.2889 -155.935 239.3839)" class="st4_marketing-5-11" cx="83.2" cy="224.7" rx="15" ry="10.1"/>
	<path class="st5_marketing-5-11" d="M101.3,209.6l14.5-8.3L139,188l5.3-3c0.7-0.4,1-1.3,0.5-2.1c-0.4-0.7-1.3-1-2.1-0.5l-14.5,8.3L105.1,204&#10;&#9;&#9;l-5.3,3c-0.7,0.4-0.9,1.4-0.5,2.1C99.8,209.7,100.6,210,101.3,209.6L101.3,209.6z"/>
	<path class="st5_marketing-5-11" d="M101.3,219l14.5-8.3l23.2-13.3l5.3-3.1c0.7-0.4,1-1.3,0.5-2.1c-0.4-0.7-1.3-1-2.1-0.5l-14.5,8.3l-23.2,13.3&#10;&#9;&#9;l-5.3,3c-0.7,0.4-0.9,1.4-0.5,2.1c0.4,0.7,1.3,0.9,2,0.5V219z"/>
	<path class="st5_marketing-5-11" d="M101.3,229.1l14.5-8.3l23.2-13.3l5.3-3.1c0.7-0.4,1-1.3,0.5-2.1c-0.4-0.7-1.3-1-2.1-0.5l0,0l-14.5,8.3&#10;&#9;&#9;l-23.2,13.3l-5.3,3.1c-0.7,0.4-0.9,1.4-0.5,2.1C99.8,229.3,100.6,229.5,101.3,229.1L101.3,229.1z"/>
	
		<ellipse transform="matrix(0.2889 -0.9574 0.9574 0.2889 -152.4412 236.8784)" class="st5_marketing-5-11" cx="83.2" cy="221.1" rx="7.1" ry="4.8"/>
	<path class="st5_marketing-5-11" d="M91.1,232.4c0.1-0.2-1.5-7.3-5.9-7c-7.3,0.6-9.3,7.5-8.9,12.1c2.3,2,5.5,2.5,8.3,1.2&#10;&#9;&#9;C87.4,237.3,89.7,235.1,91.1,232.4z"/>
	<path class="st6_marketing-5-11" d="M170.5,153.1v41.2c0,1.3,1.1,2.3,2.4,2.3c0.4,0,0.8-0.1,1.1-0.3l55.4-31.9v-43.2L170.5,153.1z"/>
	<path class="st3_marketing-5-11 targetColor" d="M170.5,153.1c0,0,32.2,5.3,35.8,4.2s23.1-36.1,23.1-36.1L170.5,153.1z" style="fill: rgb(104, 225, 253);"/>
	<path class="st7_marketing-5-11" d="M170.5,153.1c0,0,32.2,5.3,35.8,4.2s23.1-36.1,23.1-36.1L170.5,153.1z"/>
	<path class="st6_marketing-5-11" d="M40.9,162.2v49.5c0,1.6,1.3,2.8,2.8,2.8c0.5,0,1-0.1,1.4-0.4l66.5-38.3v-51.9L40.9,162.2z"/>
	<path class="st3_marketing-5-11 targetColor" d="M40.9,162.2c0,0,38.7,6.4,43,5.1s27.8-43.4,27.8-43.4L40.9,162.2z" style="fill: rgb(104, 225, 253);"/>
	<path class="st7_marketing-5-11" d="M40.9,162.2c0,0,38.7,6.4,43,5.1s27.8-43.4,27.8-43.4L40.9,162.2z"/>
	<path class="st3_marketing-5-11 targetColor" d="M128.9,113.2l81.7-46.8c3.6-2.1,8.2-0.8,10.3,2.8c0.6,1.1,1,2.4,1,3.7v31.9c0,2.7-1.4,5.2-3.8,6.5l-81.7,47.1&#10;&#9;&#9;c-3.6,2.1-8.2,0.8-10.3-2.8c-0.7-1.1-1-2.4-1-3.8v-32.2C125.1,117,126.5,114.5,128.9,113.2z" style="fill: rgb(104, 225, 253);"/>
	
		<ellipse transform="matrix(0.2889 -0.9574 0.9574 0.2889 -16.9296 232.728)" class="st4_marketing-5-11" cx="148.2" cy="127.8" rx="15" ry="10.1"/>
	<path class="st5_marketing-5-11" d="M167,109.1l14.5-8.3l23.2-13.3l5.3-3c0.7-0.4,0.9-1.4,0.5-2.1c-0.4-0.7-1.3-0.9-2-0.5L194,90.2l-23.2,13.3&#10;&#9;&#9;l-5.3,3c-0.7,0.4-1,1.3-0.5,2.1C165.4,109.3,166.3,109.5,167,109.1L167,109.1z"/>
	<path class="st5_marketing-5-11" d="M167,118.6l14.5-8.3l23.2-13.3l5.3-3c0.7-0.4,0.9-1.4,0.5-2.1c-0.4-0.7-1.3-0.9-2-0.5L194,99.7L170.8,113&#10;&#9;&#9;l-5.3,3c-0.7,0.4-1,1.3-0.5,2.1C165.4,118.7,166.3,119,167,118.6L167,118.6z"/>
	<path class="st5_marketing-5-11" d="M167,128.7l14.5-8.3l23.2-13.3l5.3-3c0.7-0.4,0.9-1.4,0.5-2.1c-0.4-0.7-1.3-0.9-2-0.5l-14.5,8.3l-23.2,13.3&#10;&#9;&#9;l-5.3,3c-0.7,0.4-1,1.3-0.5,2.1C165.4,128.9,166.3,129.1,167,128.7L167,128.7z"/>
	<ellipse transform="matrix(0.2889 -0.9574 0.9574 0.2889 -13.5086 229.8866)" class="st5_marketing-5-11" cx="148" cy="124" rx="7.1" ry="4.8"/>
	<path class="st5_marketing-5-11" d="M155.9,135.3c0.1-0.2-1.5-7.3-5.9-7c-7.3,0.6-9.3,7.5-8.9,12.1c2.3,2,5.5,2.5,8.3,1.2&#10;&#9;&#9;C152.2,140.3,154.5,138.1,155.9,135.3z"/>
	
		<ellipse transform="matrix(0.2889 -0.9574 0.9574 0.2889 -22.0122 203.7901)" class="st8_marketing-5-11" cx="126.2" cy="116.7" rx="8.7" ry="6.7"/>
</g>
<g id="character_marketing-5-11">
	<path class="st9_marketing-5-11" d="M235.9,135.4c-3-1.6-4.6-4.6-7.3-6.5l-0.2-0.1l-0.2-0.1c-1-0.2-2,0.4-2.2,1.4c-0.1,0.5,0,0.9,0.2,1.3&#10;&#9;&#9;c0.8,1.4,1.9,2.5,3.3,3.2c0.2,0.4,0.6,0.7,1.1,0.8c1.7,0.4,3.3,1,4.9,1.7c0.9,0.5,2,0.2,2.5-0.7c0.2-0.4,0.3-0.9,0.2-1.4&#10;&#9;&#9;C237.6,135.6,236.6,135.8,235.9,135.4z"/>
	<path class="st9_marketing-5-11" d="M236,140.7L236,140.7c-1.1-2.6-2-5.1-3-7.6c-0.6-0.6-1.2-1.3-1.9-2c-0.1,0-0.3,0-0.4,0c-0.9,0-1.7,0.8-1.7,1.7&#10;&#9;&#9;c0,0.2,0,0.3,0.1,0.5l0.2,0.6c-0.2,0.5-0.1,1,0.1,1.4c0.8,1.6,1.5,3.2,2.3,4.9c0.3,0.8,0.6,1.6,1.1,2.3l0.5,1&#10;&#9;&#9;c1,2.1,4.2,0.3,3.1-1.8L236,140.7z"/>
	<path class="st8_marketing-5-11" d="M257.5,105.9c-0.1,0.2-0.2,0.3-0.3,0.5c-0.4,0.9-1,1.8-1.5,2.7c-0.6,2.2-1.2,4.3-1.8,6.5&#10;&#9;&#9;c-1.2,4.2-1.1,9-3.5,12.8c-2.9,4.6-9.1,3.8-13.4,2.1c-1.1-0.4-2.3-1-3.5-1.6l0,0c-0.4,6.2-0.6,12.8,1.9,18.6&#10;&#9;&#9;c5.1,1.8,10.6,2.7,16,2.5c6.3-0.2,14.9-2.1,17.3-8.8L257.5,105.9z"/>
	<path class="st10_marketing-5-11" d="M256.8,117.5c-1.1,8.4,0,17.3-3.5,25.2c-1.1,2.5-2.7,4.9-4.5,6.9l-0.3,0.4c7.5-0.2,10.3-1.3,10.3-1.3&#10;&#9;&#9;l-1.2-36.9c-0.2,0.7-0.7,2.2-1.3,4.3C256.8,116.5,256.9,117,256.8,117.5z"/>
	<polygon class="st11_marketing-5-11" points="214.1,129.9 226.1,146.8 234.9,147.5 222.9,129.5 &#9;"/>
	<polygon class="st11_marketing-5-11" points="217.5,126.8 225.8,127.7 238.9,145.9 234.9,147.5 224.3,132.8 214.1,129.9 &#9;"/>
	<polygon class="st12_marketing-5-11" points="217.5,126.8 225.8,127.7 238.9,145.9 234.9,147.5 224.3,132.8 214.1,129.9 &#9;"/>
	<path class="st9_marketing-5-11" d="M226.6,142.4h-0.6c0.6-0.8,0.5-1.9-0.3-2.6c-0.3-0.3-0.7-0.4-1.1-0.4h-1.4c0.6-0.6,0.7-1.5,0.3-2.2&#10;&#9;&#9;c-0.8-1.2-4-1.3-4.7,0c-0.5,0.9-0.2,2,0.6,2.5c0.1,0.1,0.3,0.1,0.4,0.2c-0.7,0.7-0.8,1.9-0.1,2.6c0.3,0.3,0.8,0.5,1.3,0.6h0.3&#10;&#9;&#9;c-0.6,0.8-0.4,1.9,0.4,2.5c0.3,0.2,0.7,0.3,1.1,0.3c1.3,0.1,2.5,0.1,3.8,0.1c1-0.1,1.8-1,1.7-2&#10;&#9;&#9;C228.2,143.1,227.5,142.3,226.6,142.4L226.6,142.4z"/>
	<path class="st9_marketing-5-11" d="M246.9,276.6c0.6,4.8,1.1,9.7,0.4,14.5c-0.2,1-0.3,2.2-0.5,3.3l12.3-2.1v-15.7H246.9z"/>
	<path class="st10_marketing-5-11" d="M247,284.8c-0.8,4.3-3.1,10.4-5.4,12.5c-2.8,2.6-18.6,11-12,15.5c4.9,3.3,31.3-9.9,32-13.5&#10;&#9;&#9;c0.5-2.6-0.9-10.6-1.7-14.8C256,286.8,251.2,286.4,247,284.8z"/>
	<path class="st5_marketing-5-11" d="M262.9,277.2c0.8-14,2.8-39.5,3.1-40.8c0.4-1.8,7.3-28.4,7.3-28.4c-1.9-9-3.6-18-4.8-27.1&#10;&#9;&#9;c-2.1-0.2,2.6-24.5,0.6-24.9c-4.3-0.9-8.2-6.8-12.1-8.6c-4.1,22.9-17.2,90.4-20.2,126.4C239.7,280.1,253.4,281,262.9,277.2z"/>
	<path class="st9_marketing-5-11" d="M302.6,256c3.1,3.4,6.5,11.3,8.7,15.2c0.5,0.9,1,1.8,1.5,2.7l8-6.5l-8-18L302.6,256z"/>
	<path class="st10_marketing-5-11" d="M318.1,260.6c-2.3,3.3-5.9,5.4-9.5,4.7c0.4,2.7,1.5,7.9,0.3,9.8c-1.8,2.7-14.7,14-7.9,16.8&#10;&#9;&#9;c5,2,22.9-13.7,22.6-16.9C323.5,272.7,319.7,264.2,318.1,260.6z"/>
	<path class="st5_marketing-5-11" d="M297.1,266.2c0.2,0.2,0.5,0.3,0.7,0.2c4.2-1.6,8.2-3.8,11.9-6.4c3.7-2.9,5.4-6,8.3-9.9l-1.5-2.6&#10;&#9;&#9;c-7-14.2-20.9-61.7-21.6-64.9c-0.8-3.9-4-38.5-4-38.5l-31.7-5.7c0,0,1.1,30.2,3.6,57c1.2,4.7,2.7,9.3,4.4,13.9&#10;&#9;&#9;C274.4,228,283.5,250.3,297.1,266.2L297.1,266.2z"/>
	<path class="st8_marketing-5-11" d="M292,153.4c-0.3-17.6-1.8-32.2-4.5-38c-3-6.5-13.9-11.5-18.2-13.3c-1.3,0-2.7,0.1-4,0.3&#10;&#9;&#9;c-0.5,0.1-1.1,0.2-1.6,0.3l-1.2,0.2c-0.6,0.1-1.2,0.3-1.8,0.6c-0.8,0.4-1.6,0.9-2.4,1.4c-0.1,0.1-0.3,0.1-0.4,0.1&#10;&#9;&#9;c-0.7,0.5-1.3,1.1-1.8,1.8c0,0.1-0.1,0.1-0.2,0.2c-0.4,1.7-0.7,3.4-0.7,5.2c-0.2,5,0,10.1,0.3,15.1c0.4,6.7,1,13.3,1.4,20&#10;&#9;&#9;c0.2,1.1,0.5,2.1,0.7,3.2c4.7,3.8,11.7,5.7,16,6.5C280.7,156.2,285.5,156.3,292,153.4z"/>
	<path class="st9_marketing-5-11" d="M263.9,107.2c0.9,0.8,2,1.3,3.2,1.5c3.8,0.8,6.6-2.9,8.5-5.6c2.2-3,4.2-6.8,4.8-10.5c0.1-0.6,0.1-1.3,0.1-1.9&#10;&#9;&#9;c-0.8-4.6-15.9-10.2-18.1-1.8C261.2,93.9,259.3,103.3,263.9,107.2z"/>
	<path class="st11_marketing-5-11" d="M285.3,87.3c0-1.9-0.8-3.7-2.2-5c-1.6-1.4-3.7-2.1-5.9-1.8c-0.6-1.4-1.6-2.6-2.9-3.3&#10;&#9;&#9;c-2.5-1.2-5.5-0.8-7.5,1.1c-2.2-0.6-4.5-0.4-6.6,0.5c-2.2,1.1-3.7,3.1-4.2,5.5c-0.1,0.3-0.1,0.7-0.2,1.1c-0.2,0.6-0.2,1.2-0.2,1.9&#10;&#9;&#9;c0.1,4.4,3.7,6,5.9,6.6c0-2.3,1-6.8,3.5-5.2c0.1,0,0.3,0.1,0.4,0.2c1.5,1.1-0.2,3.2,2.2,3.8s4-0.9,5.9,1.6s-3.4,4.2,1.2,9&#10;&#9;&#9;c0,0.3,0,0.6,0,0.9c0-0.3,2.4-1.9,2.7-2.2c1-0.8,1.9-1.7,2.9-2.7c1.6-1.5,3-3.2,4.1-5.2C285.5,91.9,285.4,89.6,285.3,87.3z"/>
	<path class="st9_marketing-5-11" d="M273.8,104.2c1.5-1,2.6-2.6,3.2-4.3c0.5-1.5-0.6-2.5-1.9-2.1c-2,0.8-3.4,2.5-3.8,4.6c-0.1,0.4,0,0.8,0.2,1.2"/>
	<path class="st11_marketing-5-11" d="M261.4,99.9c-0.4,0-0.7-0.1-1-0.3c-2.5-1.6-1.6-6.2-1.6-6.4l0.1-0.5l0.5,0.2c1.7,0.9,4.5,2.4,4.8,2.5l0.3,0.1&#10;&#9;&#9;l-0.1,0.3c-0.1,0.3-0.8,3.2-2.4,3.9C261.8,99.8,261.6,99.9,261.4,99.9z M259.4,93.9c-0.1,1.2-0.3,4.1,1.3,5.1&#10;&#9;&#9;c0.3,0.2,0.7,0.3,1,0.1c0.9-0.4,1.6-2.1,1.8-3.1C262.6,95.6,260.4,94.4,259.4,93.9L259.4,93.9z"/>
	<path class="st11_marketing-5-11" d="M268.4,103.5c-0.4,0-0.9-0.1-1.3-0.3c-0.8-0.3-1.5-0.9-1.8-1.8c-0.8-2,0.6-4.6,0.6-4.7l0.2-0.3l5.7,3v0.3&#10;&#9;&#9;c0,0.1-0.4,2.6-2.1,3.5C269.3,103.4,268.9,103.5,268.4,103.5z M266.4,97.5c-0.6,1.2-0.7,2.5-0.4,3.8c0.2,0.6,0.8,1.1,1.4,1.3&#10;&#9;&#9;c0.6,0.3,1.3,0.3,1.9,0c0.9-0.7,1.5-1.6,1.7-2.7L266.4,97.5z"/>
	<path class="st11_marketing-5-11" d="M274.3,97.5l-2.9,1.9c-0.4,0.2,0,0.8,0.4,0.5l2.9-1.8C275,97.8,274.6,97.3,274.3,97.5z"/>
	<path class="st11_marketing-5-11" d="M263.5,102.3c-0.4-0.1-1-0.3-0.9-0.8c0.1-0.3,0.3-0.6,0.5-0.8c0.3-0.5,0.7-1,1.1-1.6c0.1-0.2,0.1-0.4-0.1-0.5&#10;&#9;&#9;c-0.1-0.1-0.3-0.1-0.4,0.1c-0.4,0.5-0.7,1-1.1,1.6c-0.3,0.4-0.6,0.8-0.7,1.3c-0.1,0.8,1,1.3,1.6,1.4&#10;&#9;&#9;C263.8,103,263.9,102.4,263.5,102.3z"/>
	<path class="st11_marketing-5-11" d="M266.5,96.7c-0.9-0.3-1.8-0.8-2.7-1.2c-0.4-0.2-0.6,0.4-0.3,0.6c0.9,0.5,1.8,0.9,2.7,1.2&#10;&#9;&#9;C266.7,97.4,266.9,96.8,266.5,96.7z"/>
	<path class="st10_marketing-5-11" d="M270.7,218.1c0,0-5.3-18.6-8.3-28.2l2.7,56.5C265.1,246.4,268.1,225.4,270.7,218.1z"/>
	<path class="st3_marketing-5-11 targetColor" d="M233.1,101.8c0,0,25.2-0.2,26.7,0.7s2.1,3.5,1.2,7.2s-13.6,17.9-13.6,17.9" style="fill: rgb(104, 225, 253);"/>
	<path class="st8_marketing-5-11" d="M225.3,109.4c0.1-0.2,3.3-11.8,14.6-6.2c10.2,5.1,9.8,18.4,8.9,21.7c-0.7,2.6-3.6,6.1-9,7.1"/>
	
		<ellipse transform="matrix(0.9385 -0.3453 0.3453 0.9385 -26.0906 88.6544)" class="st6_marketing-5-11" cx="235.8" cy="117.6" rx="10.7" ry="15.1"/>
	<path class="st4_marketing-5-11" d="M247,118.9l-11.5,2.3l-2.2-5.4L244,110C244,110,246.6,114.7,247,118.9z"/>
	
		<ellipse transform="matrix(0.9156 -0.4021 0.4021 0.9156 -27.838 104.3222)" class="st10_marketing-5-11" cx="234.6" cy="118.5" rx="2.4" ry="2.9"/>
	<path class="st3_marketing-5-11 targetColor" d="M259.7,137.8l1.9-34.3c0-0.6-0.4-1.2-1.1-1.2l-2.7-0.2c-0.6,0-1.2,0.4-1.2,1.1l-2,35.1&#10;&#9;&#9;c-0.1,1.2,0.8,2.3,2.1,2.5c0.6,0,1.1-0.1,1.6-0.5h0.1C259.2,139.7,259.7,138.8,259.7,137.8z" style="fill: rgb(104, 225, 253);"/>
	<path class="st9_marketing-5-11" d="M255.5,139.9c2.8,0.3,5.6,0.5,8.4,0.4c3.2,0.6,6.4,0.9,9.6,1c0.8-3.4,1.3-6.8,1.7-10.3c-1.7-0.3-3.4-0.7-5.1-1&#10;&#9;&#9;c-1.2-0.6-2.4-1.2-3.6-1.7c-0.1-0.2-0.3-0.5-0.6-0.6c-3-2-6-3.9-9.6-4.8c-1.7-0.4-3,2.2-1.5,3.2c1.1,0.7,2.1,1.4,3.2,2.1&#10;&#9;&#9;c-1.6-0.3-3.2-0.6-4.8-0.8c-1-0.1-1.9,0.5-2.1,1.5c-0.2,0.9,0.1,1.9,0.9,2.4c-0.9,0.4-1.4,1.4-1.2,2.4c0.2,0.8,0.8,1.5,1.5,1.9&#10;&#9;&#9;c-0.5,0.6-0.6,1.4-0.4,2.1C252.4,139.3,254,139.7,255.5,139.9z"/>
	<path class="st8_marketing-5-11" d="M284.3,111.2c3.9,3.1,9.3,13.2,11.4,20.9s3.5,22.6-5.6,23.6s-17.4-11.2-17.4-11.2l2.4-13.4L284.3,111.2z"/>
	<polygon class="st10_marketing-5-11" points="275.2,131 286.1,132 282.1,124.5 282.9,129.6 &#9;"/>
	<path class="st10_marketing-5-11" d="M273.5,141.3l-0.7,3.1c0,0,2.7,10.3,13.7,10.9C286.5,155.3,274.8,150.4,273.5,141.3z"/>
</g>
<g id="plant_marketing-5-11">
	<path class="st3_marketing-5-11 targetColor" d="M406.3,247.4c0,0-2.6,31,13.9,36.4s24.7-10.4,24.1-37.6" style="fill: rgb(104, 225, 253);"/>
	
		<ellipse transform="matrix(0.9995 -3.175965e-02 3.175965e-02 0.9995 -7.6249 13.632)" class="st8_marketing-5-11" cx="425.3" cy="246.8" rx="19" ry="11"/>
	<path class="st13_marketing-5-11" d="M429.4,222.2c0,0-7.8-10.5-4.8-18.1c0,0,2.5-4.9,6.3-5.8c0,0-0.1,10.2,3.7,8.8s-0.3-10.7-0.3-10.7&#10;&#9;&#9;s3.8-5.5,8.2-5.5s0.3,9.6,3.3,7.9s-0.1-9.6,3.3-10.6c3.1-0.8,6.3-1.4,9.5-1.8c0,0,3.5,9.2,0.3,10.6s-7.9,2-5.6,4s8.7-0.6,8.7-0.6&#10;&#9;&#9;s0.6,5.2-1.6,7.6s-15.2-2.3-12.8,2.2s10.9,1.9,10.9,1.9s-4.2,6.4-9.2,9.4S429.4,222.2,429.4,222.2z"/>
	<path class="st13_marketing-5-11" d="M432,249.1c0,0-5.6-5.1-4.6-9.8c0,0,0.9-3,3-3.9c0,0,1.1,5.8,3,4.6s-1.3-6-1.3-6s1.6-3.6,4.1-4&#10;&#9;&#9;s1.2,5.4,2.7,4.1s-1.1-5.4,0.7-6.4c1.7-0.8,3.4-1.5,5.2-2.1c0,0,3,4.9,1.3,6s-4.3,2-2.7,2.9s4.9-1.3,4.9-1.3s0.9,2.9-0.1,4.5&#10;&#9;&#9;s-8.9,0.3-7,2.6s6.4-0.1,6.4-0.1c-1,2.4-2.4,4.5-4.2,6.3C440.7,248.9,432,249.1,432,249.1z"/>
	<path class="st13_marketing-5-11" d="M411.8,238.3c0,0-13.1,0.9-17.8-5.7c0,0-2.7-4.8-1.5-8.4c0,0,8.6,5.5,9.4,1.6s-9.2-5.5-9.2-5.5&#10;&#9;&#9;s-2.6-6.2-0.2-9.9s8.2,4.9,8.4,1.5s-8.1-5-7.2-8.5c1-3.1,2.2-6,3.5-8.9c0,0,9.7,2,9.2,5.4s-2.5,7.8,0.4,6.9s4.2-7.7,4.2-7.7&#10;&#9;&#9;s4.7,2.3,5.5,5.4s-10.1,11.6-5,12s7.5-8.2,7.5-8.2s3.1,7,3,12.8S411.8,238.3,411.8,238.3z"/>
	<path class="st5_marketing-5-11" d="M455.8,190.7c-1.3,1.2-2.7,2.5-4.1,3.7c0.1-1.5,0.2-3,0.4-4.5c0.1-0.8-1.1-1.1-1.2-0.3c-0.2,2-0.4,4-0.5,6&#10;&#9;&#9;c-3.6,3.3-7.1,6.8-10.4,10.5c-0.4-2.5-0.5-5-0.5-7.6c0-0.8-1.2-0.8-1.2,0c-0.1,2.9,0.1,5.8,0.6,8.7c-2.1,2.4-4,4.9-5.9,7.6&#10;&#9;&#9;c-2.2-2.9-3.8-6.2-4.5-9.8c-0.2-0.8-1.4-0.4-1.2,0.4c0.8,3.8,2.5,7.3,4.9,10.3c0,0,0.1,0.1,0.1,0.1c-5.2,7.9-8.7,16.6-8.7,26.7&#10;&#9;&#9;c0,0.8,1.2,0.8,1.2,0c0-9.7,3.3-18.1,8.3-25.8c5,1.2,10.2,1.5,15.4,1c0.8-0.1,0.8-1.3,0-1.2c-4.9,0.5-9.8,0.2-14.6-0.9&#10;&#9;&#9;c2.5-3.6,5.3-7.1,8.3-10.3h0.1c2.9,0.2,5.8,0.3,8.7,0.4c1.9,0,3.7,0.1,5.4-0.8c0.7-0.4,0-1.4-0.7-1.1c-2,1.1-4.8,0.6-6.9,0.6&#10;&#9;&#9;c-1.8-0.1-3.7-0.1-5.5-0.2c4.3-4.5,8.9-8.7,13.3-12.7C457.3,191,456.4,190.2,455.8,190.7z"/>
	<path class="st5_marketing-5-11" d="M418.2,216c0.1-0.3-0.1-0.7-0.5-0.7c-0.3-0.1-0.7,0.1-0.8,0.5c-1.2,4.6-3.8,8.7-7.6,11.7&#10;&#9;&#9;c-1.5-3.8-2.9-7.7-4.2-11.7c2.9-3.1,5.2-6.6,6.9-10.5c0.3-0.7-0.8-1.3-1.1-0.6c-1.6,3.5-3.7,6.8-6.3,9.7c-1.4-4.5-2.7-9.1-3.8-13.7&#10;&#9;&#9;c-0.2-0.8-1.4-0.4-1.2,0.4c1.5,6.3,3.3,12.5,5.5,18.6c-2.3-0.4-4.6-1.1-6.8-2c-0.7-0.3-1.3,0.8-0.6,1.1c2.5,1.1,5.2,1.9,7.9,2.2&#10;&#9;&#9;l0,0c1.4,4,3,8,4.7,11.9c-3.7,0-7.4-0.7-10.8-2c-0.7-0.3-1.3,0.8-0.6,1.1c3.8,1.5,7.9,2.2,12,2.1c2.1,4.9,4.5,9.7,7,14.4&#10;&#9;&#9;c0.4,0.7,1.4,0,1-0.7c-3.4-6.3-6.4-12.7-9.1-19.4l0,0C414,225.4,416.9,221,418.2,216z"/>
	<path class="st5_marketing-5-11" d="M441.1,231.3l-3.2,5.8c-0.4-0.5-0.8-1.1-1.1-1.8c-0.4-0.7-1.4,0-1,0.6c0.4,0.8,0.9,1.5,1.5,2.2h0&#10;&#9;&#9;c-1.2,2.1-2.3,4.2-3.5,6.3c-0.4-0.4-0.7-0.9-0.8-1.5c-0.1-0.8-1.4-0.8-1.2,0c0.1,1,0.7,1.9,1.5,2.5c-1.5,2.6-2.9,5.3-4.4,7.9&#10;&#9;&#9;c-0.2,0.3,0,0.7,0.3,0.8c0.3,0.1,0.6,0,0.8-0.2l5.8-10.4c1,0,2-0.2,3-0.6c0.8-0.3,0.4-1.5-0.4-1.2c-0.6,0.2-1.3,0.4-1.9,0.4&#10;&#9;&#9;l5.8-10.5c0.1-0.3-0.1-0.7-0.5-0.7C441.5,231,441.3,231.1,441.1,231.3z"/>
</g>
</svg>