<svg version="1.1" id="Layer_1" xmlns="http://www.w3.org/2000/svg" xmlns:xlink="http://www.w3.org/1999/xlink" x="0px" y="0px" viewBox="0 0 500 500" style="width: 166px;" xml:space="preserve" data-imageid="money-jar-61" imageName="Money Jar" class="illustrations_image">
<style type="text/css">
	.st0_money-jar-61{fill:#3D44AE;}
	.st1_money-jar-61{opacity:0.5;fill:url(#SVGID_1_);enable-background:new    ;}
	.st2_money-jar-61{fill:#68E1FD;}
	.st3_money-jar-61{opacity:0.3;enable-background:new    ;}
	.st4_money-jar-61{fill:#895630;}
	.st5_money-jar-61{opacity:0.46;enable-background:new    ;}
	.st6_money-jar-61{fill:#FFFFFF;}
	.st7_money-jar-61{fill:#FCD11A;}
	.st8_money-jar-61{fill:#FEDE17;}
	.st9_money-jar-61{fill:#FEA500;}
	.st10_money-jar-61{opacity:0.5;enable-background:new    ;}
	.st11_money-jar-61{fill:#EA8B24;}
	.st12_money-jar-61{fill:#FFD008;}
	.st13_money-jar-61{opacity:0.5;fill:url(#SVGID_00000150095818497534533810000000658440335740015791_);enable-background:new    ;}
</style>
<path id="field_money-jar-61" class="st0_money-jar-61" d="M256.7,434.9l211.4-124.9c6.7-3.8,12.5-10,5.9-14L261.9,173.6c-3.2-2-8-3.3-11.2-1.4L28.8,301&#10;&#9;c-6.7,3.9-7.9,14.8-1.2,18.7l201.3,114.9C237.5,439.6,248.1,439.7,256.7,434.9z"/>
<g id="jar_money-jar-61">
	
		<linearGradient id="SVGID_1_-money-jar-61" gradientUnits="userSpaceOnUse" x1="159.5577" y1="103.9213" x2="186.7777" y2="153.3713" gradientTransform="matrix(1 0 0 -1 0 502)">
		<stop offset="0" style="stop-color:#3D44AE;stop-opacity:0"/>
		<stop offset="1" style="stop-color:#000000"/>
	</linearGradient>
	<polygon class="st1_money-jar-61" points="163.2,280.8 62.4,339.6 201.8,419.2 314.9,350.8 &#9;"/>
	<path class="st2_money-jar-61 targetColor" d="M243.1,88.1L243.1,88.1c-63.1,0-114.2,51.1-114.2,114.2v82.2c0,47.1,51.1,85.2,114.2,85.2&#10;&#9;&#9;s114.2-38.1,114.2-85.2v-82.2C357.2,139.2,306.1,88.1,243.1,88.1z" style="fill: rgb(104, 225, 253);"/>
	<path class="st3_money-jar-61" d="M315.9,114.3c1.5,22.3,3.6,44.5,4.6,66.8c2.6,60.3-5.2,128.9-52.6,172c-7.2,6.4-15,12-23.5,16.5&#10;&#9;&#9;c62.4-0.5,112.8-38.5,112.8-85.2v-82.3C357.3,168.2,342.1,136,315.9,114.3z"/>
	<path class="st4_money-jar-61" d="M301.7,98.6C291.4,86,269,77.2,243.1,77.2s-48.3,8.8-58.6,21.5h-6v15.6c0,20.5,28.9,37.1,64.6,37.1&#10;&#9;&#9;s64.6-16.6,64.6-37.1V98.6H301.7z"/>
	<path class="st5_money-jar-61" d="M301.7,98.6C291.4,86,269,77.2,243.1,77.2s-48.3,8.8-58.6,21.5h-6v15.6c0,20.5,28.9,37.1,64.6,37.1&#10;&#9;&#9;s64.6-16.6,64.6-37.1V98.6H301.7z"/>
	<ellipse class="st4_money-jar-61" cx="243.1" cy="98.6" rx="64.6" ry="37.1"/>
	<path class="st6_money-jar-61" d="M160.4,141c-12.6,19.8-18.7,43.1-17.5,66.6c0.3,6.2,10.1,6.3,9.7,0c-1.2-21.7,4.4-43.3,16.1-61.7&#10;&#9;&#9;C172.2,140.6,163.8,135.7,160.4,141z"/>
	<path class="st6_money-jar-61" d="M148.3,217.7c-2.7,0.1-4.8,2.2-4.9,4.9v0.5c-0.1,2.7,2,5,4.6,5.1s5-2,5.1-4.6c0-0.1,0-0.3,0-0.4v-0.5&#10;&#9;&#9;C153.1,219.9,151,217.7,148.3,217.7z"/>
	<polyline class="st7_money-jar-61" points="198.2,301.8 200.7,306.8 201.2,302.9 &#9;"/>
	
		<ellipse transform="matrix(0.9008 -0.4341 0.4341 0.9008 -104.5351 127.7602)" class="st7_money-jar-61" cx="227.4" cy="292.7" rx="30.3" ry="15.7"/>
	<polygon class="st7_money-jar-61" points="252.8,275.5 254.7,279.6 252.8,279.6 &#9;"/>
	
		<ellipse transform="matrix(0.9008 -0.4341 0.4341 0.9008 -102.9792 126.5261)" class="st8_money-jar-61" cx="225.5" cy="288.7" rx="30.3" ry="15.7"/>
	<path class="st9_money-jar-61" d="M249.3,277.2c3.3,6.8-5,16.6-18.1,23s-26.1,6.7-29.4-0.1s4.9-17.1,18-23.4S246,270.5,249.3,277.2z"/>
	<path class="st8_money-jar-61" d="M226.8,285.7c1.9,2.4,1.9,4.4-1.4,7s-6.9,3.2-9.9,2l-2.6,2l-1.9-1.1l2.6-2.1c-1.5-1.2-2.4-3-2.3-4.9l5.1-1.8&#10;&#9;&#9;c-0.1,1.3,0.3,2.7,1.2,3.6l3.1-2.5c-2-2.4-2-4.4,1.2-7s6.9-3.3,9.9-2l1.5-1.2l1.9,1.1l-1.6,1.2c1.2,0.9,1.9,2.4,1.8,3.9l-5,1.9&#10;&#9;&#9;c0-1-0.3-1.9-0.9-2.6L226.8,285.7z M221.9,291.2c0.7-0.6,0.8-1,0.3-1.9l-2.9,2.3C220.1,292,221.1,291.8,221.9,291.2L221.9,291.2&#10;&#9;&#9; M225.5,284.4l2.8-2.2c-0.8-0.4-1.8-0.3-2.6,0.3l-0.1,0C225,283,224.9,283.5,225.5,284.4"/>
	<polyline class="st7_money-jar-61" points="289.5,297.6 287.1,302.6 290.5,300.7 &#9;"/>
	
		<ellipse transform="matrix(0.4398 -0.8981 0.8981 0.4398 -106.5625 459.0535)" class="st7_money-jar-61" cx="314.7" cy="314.9" rx="15.7" ry="30.3"/>
	<polygon class="st7_money-jar-61" points="343.9,324.3 341.9,328.3 340.7,326.8 &#9;"/>
	
		<ellipse transform="matrix(0.4398 -0.8981 0.8981 0.4398 -101.8729 458.5728)" class="st8_money-jar-61" cx="316.6" cy="310.9" rx="15.7" ry="30.3"/>
	<path class="st9_money-jar-61" d="M340.3,322.6c-3.3,6.8-16.2,6.4-29.2,0s-21.4-16.4-18.1-23.1s16.5-6.7,29.6-0.3S343.6,315.8,340.3,322.6z"/>
	<path class="st8_money-jar-61" d="M319.8,310.1c-0.7,3-2.3,4.2-6.4,3.3s-6.8-3.5-7.6-6.5l-3.2-0.8l-0.3-2.2l3.2,0.8c0-1.9,0.9-3.7,2.4-4.8&#10;&#9;&#9;l4.6,2.9c-1.1,0.7-1.9,1.9-2.1,3.2l3.9,0.9c0.7-3,2.2-4.3,6.3-3.4s6.9,3.4,7.7,6.6l1.9,0.4l0.3,2.2l-2-0.5c0,1.5-0.7,2.9-1.9,3.8&#10;&#9;&#9;l-4.7-2.7c0.8-0.6,1.3-1.4,1.5-2.3L319.8,310.1z M312.5,309.7c0.9,0.2,1.3,0,1.6-1l-3.6-0.9C310.8,308.8,311.5,309.5,312.5,309.7&#10;&#9;&#9;L312.5,309.7 M320,308.3l3.5,0.8c-0.2-0.9-0.9-1.6-1.9-1.8h-0.1C320.8,307.1,320.4,307.3,320,308.3"/>
	<path class="st10_money-jar-61" d="M204.3,79v-0.5c0-4.1,3.3-7.4,7.4-7.4c1.3,0,2.6,0.3,3.7,1l69.1,40.3c2.3,1.3,3.7,3.7,3.7,6.4l0,0&#10;&#9;&#9;c0,4.1-3.3,7.4-7.4,7.4c-1.3,0-2.6-0.3-3.7-1l-69-39.8C205.7,84.1,204.3,81.6,204.3,79z"/>
	<path class="st11_money-jar-61" d="M243.9,76.6c-5.3,0.2-10.6,1.3-15.5,3.4c-7.8,3.4,15.2,10.1,15.2,10.1"/>
	<path class="st11_money-jar-61" d="M246,107.2c6.7,3.8,13.1,8.2,19.7,12.1c4.7-7,5.9-15.8,3.2-23.8c-4.5-13.8-18.4-21.8-31-17.7&#10;&#9;&#9;c-7.5,2.5-13.2,8.7-15.2,16.4C230.5,98.4,238.2,102.8,246,107.2z"/>
	<path class="st12_money-jar-61" d="M246,107.2c5.1,2.8,10,6,14.9,9.1c2.6-6.2,2.9-13.1,0.8-19.5c-4.5-13.8-18.4-21.8-31-17.7&#10;&#9;&#9;c-5.9,2-10.8,6.3-13.5,11.9C226.9,96.3,236.4,101.8,246,107.2z"/>
	<path class="st11_money-jar-61" d="M259.2,114.6l-1.5-1c-3.6-2.3-7.4-4.7-11.2-6.8l0,0c-2.8-1.5-5.5-3.1-8.2-4.7c-5.8-3.3-11.8-6.7-17.8-10&#10;&#9;&#9;L220,92l0.2-0.4c4.8-10.1,16.9-14.4,27-9.6c0.6,0.3,1.1,0.6,1.7,0.9c10.7,6.3,15.2,19.6,10.5,31.1L259.2,114.6z M221.4,91.6&#10;&#9;&#9;c5.8,3.2,11.7,6.5,17.4,9.7c2.7,1.6,5.5,3.1,8.2,4.7l0,0c3.8,2.1,7.6,4.5,11.2,6.8l0.5,0.3c4.2-11-0.2-23.4-10.3-29.4&#10;&#9;&#9;c-9.1-5.5-20.9-2.5-26.4,6.6C221.8,90.7,221.6,91.1,221.4,91.6L221.4,91.6z"/>
	<path class="st11_money-jar-61" d="M246,107.2l1.3,0.8c0-1.3-0.4-2.6-1.1-3.6c-0.8-1-1.8-1.8-3-2.3c-1.2-0.5-2.3-0.9-3.5-1.2&#10;&#9;&#9;c-1-0.3-2-0.7-2.9-1.3c-0.7-0.4-1.2-1.2-1.2-2c0-0.7,0.4-1.4,0.9-1.8c0.7-0.5,1.5-0.8,2.4-0.7c0.8,0,1.6,0.2,2.4,0.6&#10;&#9;&#9;c0.5,0.2,1,0.6,1.5,0.9c0.2,0.2,0.4,0.4,0.6,0.6l3.2-3.2l-0.6-0.6c-0.6-0.5-1.2-1-1.9-1.4c-0.9-0.5-1.9-0.9-3-1.2l0.1-3.3l-4.5-0.1&#10;&#9;&#9;l-0.1,3.3c-1.8,0.2-3.5,1.1-4.7,2.4c-1.1,1.2-1.8,2.7-1.8,4.4c0,0.3,0,0.5,0,0.8C235.4,101.2,240.7,104.2,246,107.2z"/>
	<polyline class="st7_money-jar-61" points="191.6,329.4 194.1,334.3 194.6,330.4 &#9;"/>
	
		<ellipse transform="matrix(0.9008 -0.4341 0.4341 0.9008 -117.138 127.6205)" class="st7_money-jar-61" cx="220.8" cy="320.3" rx="30.3" ry="15.7"/>
	<polygon class="st7_money-jar-61" points="246.2,303.1 248.1,307.1 246.2,307.1 &#9;"/>
	
		<ellipse transform="matrix(0.9008 -0.4341 0.4341 0.9008 -115.5858 126.3785)" class="st8_money-jar-61" cx="218.9" cy="316.2" rx="30.3" ry="15.7"/>
	<path class="st9_money-jar-61" d="M242.6,304.8c3.3,6.8-5,16.6-18.1,23s-26.1,6.7-29.4-0.1s4.9-17.1,18-23.4S239.4,298,242.6,304.8z"/>
	<path class="st8_money-jar-61" d="M220.1,313.2c1.9,2.4,1.9,4.4-1.4,7s-6.9,3.2-9.9,2l-2.6,2l-1.9-1.1l2.6-2.1c-1.5-1.2-2.4-3-2.3-4.9l5.1-1.8&#10;&#9;&#9;c-0.1,1.3,0.3,2.6,1.2,3.6l3.1-2.5c-2-2.4-2-4.4,1.2-7s6.9-3.3,9.9-2l1.5-1.2l1.9,1.1l-1.6,1.2c1.2,0.9,1.8,2.3,1.8,3.8l-5,2&#10;&#9;&#9;c0-0.9-0.3-1.9-0.9-2.6L220.1,313.2z M215.3,318.7c0.7-0.6,0.8-1,0.3-1.9l-2.9,2.3C213.5,319.5,214.5,319.4,215.3,318.7&#10;&#9;&#9;L215.3,318.7 M218.9,311.9l2.8-2.2c-0.8-0.4-1.8-0.3-2.6,0.3l0,0C218.5,310.6,218.3,311,218.9,311.9"/>
	<polyline class="st7_money-jar-61" points="165.4,245.6 163.1,250.6 166.4,248.7 &#9;"/>
	
		<ellipse transform="matrix(0.4398 -0.8981 0.8981 0.4398 -129.3552 318.5162)" class="st7_money-jar-61" cx="190.6" cy="262.9" rx="15.7" ry="30.3"/>
	<polygon class="st7_money-jar-61" points="219.8,272.3 217.8,276.3 216.6,274.8 &#9;"/>
	
		<ellipse transform="matrix(0.4398 -0.8981 0.8981 0.4398 -124.6655 318.0355)" class="st8_money-jar-61" cx="192.6" cy="258.9" rx="15.7" ry="30.3"/>
	<path class="st9_money-jar-61" d="M216.3,270.6c-3.3,6.8-16.2,6.4-29.2,0s-21.4-16.4-18.1-23.1s16.5-6.7,29.6-0.3S219.6,263.8,216.3,270.6z"/>
	<path class="st8_money-jar-61" d="M195.7,258.1c-0.7,3-2.3,4.2-6.4,3.3s-6.8-3.5-7.6-6.5l-3.2-0.8l-0.3-2.2l3.3,0.8c0-1.9,0.9-3.7,2.4-4.8&#10;&#9;&#9;l4.6,2.9c-1.1,0.7-1.9,1.9-2.1,3.2l3.9,0.9c0.7-3.1,2.2-4.3,6.3-3.4s6.9,3.3,7.7,6.6l1.9,0.4l0.3,2.2l-1.9-0.5&#10;&#9;&#9;c0,1.5-0.7,2.9-1.9,3.8l-4.6-2.7c0.8-0.6,1.3-1.4,1.5-2.3L195.7,258.1z M188.4,257.7c0.9,0.2,1.3,0,1.6-1l-3.6-0.9&#10;&#9;&#9;C186.7,256.8,187.4,257.5,188.4,257.7L188.4,257.7 M196,256.3l3.5,0.8c-0.2-0.9-0.9-1.6-1.8-1.8h-0.1&#10;&#9;&#9;C196.7,255.1,196.3,255.3,196,256.3"/>
	<path class="st11_money-jar-61" d="M353,266.7c-0.5-5.7-2.1-11.3-4.6-16.5c-4.1-8.2-10,17.1-10,17.1"/>
	
		<ellipse transform="matrix(0.9318 -0.3631 0.3631 0.9318 -76.0589 136.441)" class="st11_money-jar-61" cx="324.9" cy="270.6" rx="28.5" ry="26.1"/>
	
		<ellipse transform="matrix(0.9318 -0.3631 0.3631 0.9318 -73.392 135.1843)" class="st12_money-jar-61" cx="322.9" cy="262.8" rx="28.5" ry="26.1"/>
	<path class="st11_money-jar-61" d="M321.4,286.5c-3.2,0-6.3-0.6-9.3-1.7c-11.4-4.2-17.3-16.8-13.1-28.2c0.3-0.9,0.7-1.7,1.1-2.6&#10;&#9;&#9;c6.3-12.2,20.7-17.8,33.6-13.1c11.4,4.2,17.3,16.8,13.1,28.2c-0.3,0.9-0.7,1.7-1.1,2.6c-3,5.9-8.1,10.5-14.3,12.9&#10;&#9;&#9;C328.2,285.8,324.8,286.5,321.4,286.5z M324.4,240.2c-3.3,0-6.5,0.6-9.6,1.8c-6,2.3-10.9,6.7-13.8,12.4c-5.3,10.3-1.3,23,9,28.3&#10;&#9;&#9;c0.8,0.4,1.6,0.8,2.5,1.1c12.4,4.5,26.3-0.9,32.3-12.6c5.3-10.3,1.3-23-9-28.3c-0.8-0.4-1.6-0.8-2.5-1.1&#10;&#9;&#9;C330.5,240.7,327.5,240.2,324.4,240.2L324.4,240.2z"/>
	<path class="st11_money-jar-61" d="M336.5,267.8c-0.3,0.8-0.8,1.5-1.4,2.1l-0.6,0.6l-3.7-3.2c0.2-0.1,0.4-0.4,0.6-0.6c0.4-0.5,0.7-1.1,0.9-1.7&#10;&#9;&#9;c0.4-0.8,0.5-1.7,0.5-2.6c0-0.9-0.3-1.8-0.9-2.5c-0.5-0.6-1.2-0.9-2-0.9c-0.9,0.1-1.7,0.6-2,1.4c-0.5,1-1,2.1-1.2,3.3&#10;&#9;&#9;c-0.3,1.3-0.7,2.5-1.1,3.8c-0.4,1.3-1.2,2.4-2.3,3.3c-1.2,1-2.7,1.5-4.2,1.5c-1.9,0.1-3.7-0.5-5.2-1.7c-1.5-1.3-2.6-3.1-3-5.1&#10;&#9;&#9;l-3.6,0.1l-0.2-4.9l3.5-0.1c0.1-1,0.3-1.9,0.6-2.8c0.3-0.8,0.6-1.5,1-2.2c0.3-0.6,0.6-1.1,1-1.6c0.2-0.4,0.5-0.7,0.8-1l0.4-0.3&#10;&#9;&#9;l3.5,3.2c-0.2,0.2-0.4,0.4-0.7,0.8c-0.5,0.6-0.9,1.4-1.2,2.1c-0.5,1.1-0.7,2.2-0.6,3.4c0,1.1,0.4,2.2,1.1,3.1&#10;&#9;&#9;c0.6,0.7,1.5,1.1,2.5,1c0.9,0,1.7-0.6,2.1-1.4c0.6-1,1-2.1,1.2-3.3c0.3-1.3,0.7-2.6,1.1-3.8c0.4-1.3,1.2-2.4,2.3-3.3&#10;&#9;&#9;c1.2-1,2.7-1.5,4.2-1.5c1.8-0.1,3.5,0.5,4.9,1.7c1.5,1.3,2.5,3,2.9,4.9l3.6-0.1l0.2,4.9l-3.6,0.1&#10;&#9;&#9;C337.5,265.6,337.1,266.8,336.5,267.8z"/>
	<polyline class="st7_money-jar-61" points="227.9,304.9 225.5,309.9 228.9,307.9 &#9;"/>
	
		<ellipse transform="matrix(0.4398 -0.8981 0.8981 0.4398 -147.5832 407.8039)" class="st7_money-jar-61" cx="253.1" cy="322.2" rx="15.7" ry="30.3"/>
	<polygon class="st7_money-jar-61" points="282.2,331.5 280.3,335.5 279.1,334 &#9;"/>
	
		<ellipse transform="matrix(0.4398 -0.8981 0.8981 0.4398 -142.8841 407.3116)" class="st8_money-jar-61" cx="255" cy="318.2" rx="15.7" ry="30.3"/>
	<path class="st9_money-jar-61" d="M278.7,329.8c-3.3,6.8-16.2,6.4-29.3,0s-21.4-16.4-18.1-23.1s16.5-6.7,29.6-0.3S282,323,278.7,329.8z"/>
	<path class="st8_money-jar-61" d="M258.2,317.4c-0.7,3-2.3,4.2-6.4,3.3s-6.8-3.5-7.6-6.5l-3.2-0.8l-0.3-2.2l3.2,0.8c0-1.9,0.9-3.7,2.4-4.8&#10;&#9;&#9;l4.6,2.9c-1.1,0.7-1.9,1.9-2.1,3.2l3.9,0.9c0.7-3,2.2-4.3,6.3-3.4c4.1,1,6.9,3.4,7.7,6.6l1.9,0.4l0.3,2.2l-2-0.5&#10;&#9;&#9;c0,1.5-0.7,2.9-1.9,3.8l-4.6-2.7c0.8-0.6,1.3-1.4,1.5-2.3L258.2,317.4z M250.9,316.9c0.9,0.2,1.3,0,1.6-1l-3.6-0.9&#10;&#9;&#9;C249.1,316,249.9,316.7,250.9,316.9L250.9,316.9 M258.4,315.5l3.5,0.8c-0.2-0.9-0.9-1.6-1.9-1.8H260&#10;&#9;&#9;C259.2,314.3,258.8,314.5,258.4,315.5"/>
	<polyline class="st7_money-jar-61" points="152.2,319 149.9,323.9 153.3,322 &#9;"/>
	
		<ellipse transform="matrix(0.4398 -0.8981 0.8981 0.4398 -202.5594 347.748)" class="st7_money-jar-61" cx="177.5" cy="336.2" rx="15.7" ry="30.3"/>
	<polygon class="st7_money-jar-61" points="206.6,345.6 204.7,349.6 203.5,348.1 &#9;"/>
	
		<ellipse transform="matrix(0.4398 -0.8981 0.8981 0.4398 -197.8698 347.2673)" class="st8_money-jar-61" cx="179.4" cy="332.2" rx="15.7" ry="30.3"/>
	<path class="st9_money-jar-61" d="M203.1,343.9c-3.3,6.8-16.2,6.4-29.3,0s-21.4-16.4-18.1-23.1s16.5-6.7,29.6-0.3S206.4,337.1,203.1,343.9z"/>
	<path class="st8_money-jar-61" d="M182.6,331.4c-0.7,3-2.3,4.2-6.4,3.3s-6.8-3.5-7.7-6.5l-3.2-0.8l-0.3-2.2l3.2,0.8c0-1.9,0.9-3.7,2.4-4.8&#10;&#9;&#9;l4.6,2.9c-1.1,0.7-1.9,1.9-2.1,3.2l3.9,0.9c0.7-3,2.2-4.3,6.3-3.4s6.9,3.4,7.7,6.6l1.9,0.4l0.3,2.2l-2-0.5c0,1.5-0.7,2.9-1.9,3.8&#10;&#9;&#9;l-4.6-2.7c0.8-0.6,1.3-1.4,1.5-2.3L182.6,331.4z M175.2,331c0.9,0.2,1.3,0,1.6-1l-3.6-0.9C173.5,330,174.2,330.7,175.2,331&#10;&#9;&#9;L175.2,331 M182.8,329.5l3.5,0.8c-0.2-0.9-0.9-1.6-1.9-1.8h-0.1C183.6,328.3,183.1,328.5,182.8,329.5"/>
	<polyline class="st7_money-jar-61" points="208.7,330.7 206.4,335.6 209.7,333.7 &#9;"/>
	
		<ellipse transform="matrix(0.4398 -0.8981 0.8981 0.4398 -181.4454 405.0441)" class="st7_money-jar-61" cx="233.9" cy="348" rx="15.7" ry="30.3"/>
	<polygon class="st7_money-jar-61" points="263.1,357.3 261.1,361.3 260,359.8 &#9;"/>
	
		<ellipse transform="matrix(0.4398 -0.8981 0.8981 0.4398 -176.7557 404.5634)" class="st8_money-jar-61" cx="235.9" cy="344" rx="15.7" ry="30.3"/>
	<path class="st9_money-jar-61" d="M259.6,355.6c-3.3,6.8-16.2,6.4-29.3,0s-21.4-16.4-18.1-23.1s16.5-6.7,29.6-0.3S262.9,348.8,259.6,355.6z"/>
	<path class="st8_money-jar-61" d="M239,343.1c-0.7,3-2.3,4.2-6.4,3.3s-6.8-3.5-7.7-6.5l-3.2-0.8l-0.3-2.1l3.2,0.8c0-1.9,0.9-3.7,2.4-4.8l4.6,2.9&#10;&#9;&#9;c-1.1,0.7-1.9,1.9-2.1,3.2l3.9,0.9c0.7-3,2.2-4.3,6.3-3.4s6.9,3.3,7.7,6.6l1.9,0.4l0.3,2.2l-1.9-0.5c0,1.5-0.7,2.9-1.9,3.8&#10;&#9;&#9;l-4.6-2.7c0.8-0.6,1.3-1.4,1.5-2.3L239,343.1z M231.7,342.7c0.9,0.2,1.3,0,1.6-1l-3.6-0.9C230,341.8,230.7,342.5,231.7,342.7&#10;&#9;&#9;L231.7,342.7 M239.3,341.3l3.5,0.8c-0.2-0.9-0.9-1.6-1.9-1.8h-0.1C240,340.1,239.6,340.3,239.3,341.3"/>
	<polyline class="st7_money-jar-61" points="256,315.4 253.7,320.3 257.1,318.4 &#9;"/>
	
		<ellipse transform="matrix(0.4398 -0.8981 0.8981 0.4398 -141.1799 438.9636)" class="st7_money-jar-61" cx="281.3" cy="332.6" rx="15.7" ry="30.3"/>
	<polygon class="st7_money-jar-61" points="310.4,342 308.5,346 307.3,344.5 &#9;"/>
	
		<ellipse transform="matrix(0.4398 -0.8981 0.8981 0.4398 -136.4913 438.4724)" class="st8_money-jar-61" cx="283.2" cy="328.6" rx="15.7" ry="30.3"/>
	<path class="st9_money-jar-61" d="M306.9,340.3c-3.3,6.8-16.2,6.4-29.2,0s-21.4-16.4-18.1-23.1s16.5-6.7,29.6-0.3S310.2,333.5,306.9,340.3z"/>
	<path class="st8_money-jar-61" d="M286.4,327.8c-0.7,3-2.3,4.2-6.4,3.3s-6.8-3.5-7.6-6.5l-3.2-0.8l-0.3-2.2l3.2,0.8c0-1.9,0.9-3.7,2.4-4.8&#10;&#9;&#9;l4.6,2.9c-1.1,0.7-1.9,1.9-2.1,3.2l3.9,0.9c0.7-3,2.2-4.3,6.3-3.4s6.9,3.4,7.7,6.6l1.9,0.4l0.3,2.2l-2-0.5c0,1.5-0.7,2.9-1.9,3.8&#10;&#9;&#9;l-4.6-2.8c0.8-0.6,1.3-1.4,1.5-2.3L286.4,327.8z M279,327.4c0.9,0.2,1.3,0,1.6-1l-3.6-0.9C277.3,326.5,278.1,327.2,279,327.4&#10;&#9;&#9;L279,327.4 M286.6,325.9l3.5,0.8c-0.2-0.9-0.9-1.6-1.8-1.8h-0.1C287.4,324.8,286.9,325,286.6,325.9"/>
	<polyline class="st7_money-jar-61" points="276.4,273.8 274,278.8 277.4,276.8 &#9;"/>
	
		<ellipse transform="matrix(0.4398 -0.8981 0.8981 0.4398 -92.4721 433.9589)" class="st7_money-jar-61" cx="301.6" cy="291.1" rx="15.7" ry="30.3"/>
	<polygon class="st7_money-jar-61" points="330.8,300.5 328.8,304.5 327.6,302.9 &#9;"/>
	
		<ellipse transform="matrix(0.4398 -0.8981 0.8981 0.4398 -87.7835 433.4677)" class="st8_money-jar-61" cx="303.6" cy="287.1" rx="15.7" ry="30.3"/>
	<path class="st9_money-jar-61" d="M327.2,298.7c-3.3,6.8-16.2,6.4-29.2,0s-21.4-16.4-18.1-23.1s16.5-6.7,29.6-0.3S330.6,292,327.2,298.7z"/>
	<path class="st8_money-jar-61" d="M306.7,286.3c-0.7,3-2.3,4.2-6.4,3.3s-6.8-3.5-7.7-6.5l-3.2-0.8l-0.3-2.2l3.2,0.8c0-1.9,0.9-3.7,2.4-4.8&#10;&#9;&#9;l4.6,2.9c-1.1,0.7-1.9,1.9-2.1,3.2l3.9,0.9c0.7-3,2.2-4.3,6.3-3.4s6.9,3.4,7.7,6.6l1.9,0.4l0.3,2.2l-2-0.5c0,1.5-0.7,2.9-1.9,3.8&#10;&#9;&#9;l-4.6-2.7c0.8-0.6,1.3-1.4,1.5-2.3L306.7,286.3z M299.4,285.9c0.9,0.2,1.3,0,1.6-1l-3.6-0.9C297.7,284.9,298.4,285.6,299.4,285.9&#10;&#9;&#9;L299.4,285.9 M307,284.4l3.5,0.8c-0.2-0.9-0.9-1.6-1.9-1.8h-0.1C307.7,283.2,307.3,283.4,307,284.4"/>
	<polyline class="st7_money-jar-61" points="138.2,258.5 135.8,263.5 139.2,261.5 &#9;"/>
	
		<ellipse transform="matrix(0.4398 -0.8981 0.8981 0.4398 -156.1471 301.2474)" class="st7_money-jar-61" cx="163.4" cy="275.8" rx="15.7" ry="30.3"/>
	<polygon class="st7_money-jar-61" points="192.6,285.1 190.6,289.1 189.4,287.6 &#9;"/>
	
		<ellipse transform="matrix(0.4398 -0.8981 0.8981 0.4398 -151.4574 300.7668)" class="st8_money-jar-61" cx="165.4" cy="271.8" rx="15.7" ry="30.3"/>
	<path class="st9_money-jar-61" d="M189,283.4c-3.3,6.8-16.2,6.4-29.2,0s-21.4-16.4-18.1-23.1s16.5-6.7,29.6-0.3S192.4,276.6,189,283.4z"/>
	<path class="st8_money-jar-61" d="M168.5,270.9c-0.7,3-2.3,4.2-6.4,3.3s-6.8-3.5-7.6-6.5l-3.2-0.8l-0.3-2.2l3.3,0.8c0-1.9,0.9-3.7,2.4-4.8&#10;&#9;&#9;l4.6,2.9c-1.1,0.7-1.9,1.9-2.1,3.2l3.9,0.9c0.7-3,2.2-4.3,6.3-3.4s6.9,3.4,7.7,6.6l1.9,0.4l0.3,2.2l-1.9-0.5c0,1.5-0.7,2.9-1.9,3.8&#10;&#9;&#9;l-4.6-2.7c0.8-0.6,1.3-1.4,1.5-2.3L168.5,270.9z M161.2,270.5c0.9,0.2,1.3,0,1.6-0.9l-3.6-0.9C159.5,269.6,160.2,270.3,161.2,270.5&#10;&#9;&#9;L161.2,270.5 M168.8,269.1l3.5,0.8c-0.2-0.9-0.9-1.6-1.8-1.8h-0.1C169.5,267.9,169.1,268.1,168.8,269.1"/>
	<path class="st11_money-jar-61" d="M158.1,266.1c-4.9,3.1-9.1,7.1-12.5,11.7c-5.4,7.5,19.8,1,19.8,1"/>
	
		<ellipse transform="matrix(0.659 -0.7522 0.7522 0.659 -158.0409 229.8859)" class="st11_money-jar-61" cx="174.5" cy="289.2" rx="26.1" ry="28.5"/>
	
		<ellipse transform="matrix(0.659 -0.7522 0.7522 0.659 -164.0872 227.2491)" class="st12_money-jar-61" cx="168.6" cy="294.6" rx="26.1" ry="28.5"/>
	<path class="st11_money-jar-61" d="M170.7,318.9c-6.5,0-12.7-2.4-17.5-6.8l0,0c-10.6-9.3-12.3-24.7-3.8-34.4c4.2-4.7,10.2-7.5,16.5-7.5&#10;&#9;&#9;c6.6-0.1,13.1,2.3,18,6.7c10.6,9.3,12.3,24.7,3.8,34.4c-4.2,4.7-10.2,7.5-16.5,7.5L170.7,318.9z M153.8,311.4&#10;&#9;&#9;c4.8,4.3,11,6.6,17.4,6.5c6,0,11.8-2.6,15.8-7.2c8.1-9.3,6.4-24-3.7-33c-4.8-4.3-11-6.6-17.4-6.5c-6,0-11.8,2.6-15.8,7.1&#10;&#9;&#9;C142,287.7,143.7,302.4,153.8,311.4L153.8,311.4z"/>
	<path class="st11_money-jar-61" d="M166.7,280.2c0.8,0,1.7,0,2.5,0.2l0.8,0.3l-1.1,4.8c-0.3-0.1-0.6-0.2-0.8-0.2c-0.6-0.1-1.3-0.1-1.9,0&#10;&#9;&#9;c-0.9,0-1.8,0.3-2.6,0.8c-0.8,0.4-1.5,1.1-1.8,2c-0.3,0.7-0.2,1.5,0.1,2.2c0.5,0.8,1.3,1.2,2.2,1.2c1.2,0,2.3-0.1,3.4-0.4&#10;&#9;&#9;c1.3-0.3,2.6-0.6,3.9-0.8c1.4-0.2,2.7,0,4,0.5c1.4,0.6,2.6,1.7,3.3,3c1,1.6,1.3,3.5,0.9,5.4c-0.4,2-1.6,3.7-3.1,5l1.8,3.1l-4.2,2.4&#10;&#9;&#9;l-1.7-3c-0.9,0.3-1.8,0.6-2.8,0.8c-0.8,0.1-1.6,0.2-2.5,0.2c-0.6,0-1.3-0.1-1.9-0.2c-0.4-0.1-0.9-0.1-1.3-0.3l-0.5-0.2l1.3-4.6&#10;&#9;&#9;l1,0.3c0.8,0.1,1.6,0.1,2.4,0.1c1.2-0.1,2.3-0.4,3.3-1c1-0.5,1.8-1.3,2.3-2.4c0.4-0.9,0.3-1.9-0.2-2.7c-0.5-0.8-1.3-1.2-2.2-1.2&#10;&#9;&#9;c-1.2,0-2.3,0.1-3.5,0.4c-1.3,0.3-2.6,0.6-3.9,0.8c-1.4,0.2-2.7,0-4-0.5c-1.4-0.6-2.5-1.7-3.3-3c-0.9-1.5-1.2-3.3-0.8-5.1&#10;&#9;&#9;c0.4-1.9,1.5-3.6,3.1-4.8l-1.8-3.2l4.2-2.4l1.8,3.1C164.4,280.4,165.5,280.2,166.7,280.2z"/>
	<path class="st11_money-jar-61" d="M259.6,254.4c-5.8,0.3-11.4,1.7-16.7,4c-8.4,3.8,16.7,10.6,16.7,10.6"/>
	
		<ellipse transform="matrix(0.9442 -0.3294 0.3294 0.9442 -78.4588 102.227)" class="st11_money-jar-61" cx="262.5" cy="282.7" rx="26.1" ry="28.5"/>
	
		<ellipse transform="matrix(0.9442 -0.3294 0.3294 0.9442 -79.4644 99.7563)" class="st12_money-jar-61" cx="254.7" cy="284.4" rx="26.1" ry="28.5"/>
	<path class="st11_money-jar-61" d="M256,309.7c-10,0-19.6-6.9-23.4-17.6l0,0c-4.6-13.3,1.5-27.5,13.6-31.8c6-2,12.6-1.4,18.1,1.7&#10;&#9;&#9;c12,6.7,17,21.3,11.9,34c-2.4,5.8-7.2,10.4-13.1,12.5C260.8,309.3,258.4,309.7,256,309.7z M233.6,291.8&#10;&#9;&#9;c4.4,12.8,17.5,19.8,29.2,15.8c5.7-2,10.3-6.4,12.5-12c5-12.2,0.1-26.3-11.4-32.8c-5.3-3-11.5-3.5-17.3-1.6&#10;&#9;&#9;C235,265.3,229.2,279,233.6,291.8L233.6,291.8z"/>
	<path class="st11_money-jar-61" d="M260.2,271c0.8,0.4,1.5,0.9,2.1,1.4l0.6,0.6l-3.3,3.6c-0.2-0.2-0.4-0.4-0.6-0.6c-0.5-0.4-1.1-0.7-1.6-1&#10;&#9;&#9;c-0.8-0.4-1.7-0.6-2.6-0.6c-0.9,0-1.8,0.2-2.6,0.8c-0.6,0.5-1,1.2-1,2c0,0.9,0.5,1.7,1.3,2.1c1,0.6,2.1,1,3.2,1.3&#10;&#9;&#9;c1.3,0.4,2.5,0.8,3.8,1.3c1.3,0.5,2.4,1.3,3.2,2.4c0.9,1.2,1.4,2.7,1.4,4.2c0,1.9-0.6,3.7-1.9,5.1c-1.4,1.5-3.2,2.5-5.2,2.8v3.6&#10;&#9;&#9;h-4.8v-3.5c-1-0.1-1.9-0.4-2.8-0.7c-0.8-0.3-1.5-0.6-2.2-1.1c-0.5-0.3-1.1-0.7-1.6-1.1c-0.4-0.3-0.7-0.6-1-0.9l-0.3-0.4l3.4-3.4&#10;&#9;&#9;c0.2,0.2,0.4,0.5,0.7,0.8c0.6,0.5,1.3,0.9,2.1,1.2c1,0.5,2.2,0.8,3.4,0.8c1.1,0.1,2.3-0.3,3.2-1c0.7-0.6,1.2-1.5,1.1-2.4&#10;&#9;&#9;c0-0.9-0.5-1.7-1.3-2.1c-1-0.6-2.1-1-3.2-1.3c-1.3-0.4-2.5-0.8-3.8-1.2c-1.3-0.5-2.4-1.3-3.2-2.4c-0.9-1.2-1.4-2.7-1.3-4.2&#10;&#9;&#9;c0-1.8,0.7-3.5,1.9-4.8c1.3-1.4,3.1-2.4,5-2.7v-3.6h4.9v3.6C258,270,259.1,270.4,260.2,271z"/>
	<polyline class="st7_money-jar-61" points="215.4,181.6 213.1,186.5 216.5,184.6 &#9;"/>
	
		<ellipse transform="matrix(0.4398 -0.8981 0.8981 0.4398 -43.7785 327.5403)" class="st7_money-jar-61" cx="240.7" cy="198.9" rx="15.7" ry="30.3"/>
	<polygon class="st7_money-jar-61" points="269.8,208.2 267.9,212.2 266.7,210.7 &#9;"/>
	
		<ellipse transform="matrix(0.4398 -0.8981 0.8981 0.4398 -39.0832 327.0686)" class="st8_money-jar-61" cx="242.6" cy="194.9" rx="15.7" ry="30.3"/>
	<path class="st9_money-jar-61" d="M266.3,206.5c-3.3,6.8-16.2,6.4-29.2,0s-21.4-16.4-18-23.2s16.5-6.7,29.6-0.3&#10;&#9;&#9;C261.6,189.4,269.6,199.7,266.3,206.5z"/>
	<path class="st8_money-jar-61" d="M245.8,194c-0.7,3-2.3,4.2-6.4,3.3s-6.8-3.5-7.7-6.5l-3.2-0.8l-0.3-2.1l3.2,0.8c0-1.9,0.9-3.7,2.4-4.8l4.6,2.9&#10;&#9;&#9;c-1.1,0.7-1.9,1.9-2.1,3.2l3.9,0.9c0.7-3,2.2-4.3,6.3-3.4s6.9,3.3,7.7,6.6l1.9,0.4l0.3,2.2l-2-0.5c0,1.5-0.7,2.9-1.9,3.8l-4.6-2.7&#10;&#9;&#9;c0.8-0.6,1.3-1.4,1.5-2.3L245.8,194z M238.4,193.6c0.9,0.2,1.3,0,1.6-0.9l-3.6-0.9C236.7,192.7,237.4,193.4,238.4,193.6&#10;&#9;&#9;L238.4,193.6 M246,192.2l3.5,0.8c-0.2-0.9-0.9-1.6-1.9-1.8h-0.1C246.8,191,246.3,191.2,246,192.2"/>
</g>
<g id="coins_money-jar-61">
	
		<linearGradient id="SVGID_00000177477134948908344670000012468125059652555155_-money-jar-61" gradientUnits="userSpaceOnUse" x1="52.0018" y1="172.599" x2="60.7618" y2="188.519" gradientTransform="matrix(1 0 0 -1 0 502)">
		<stop offset="0" style="stop-color:#3D44AE;stop-opacity:0"/>
		<stop offset="1" style="stop-color:#000000"/>
	</linearGradient>
	<path style="opacity:0.5;fill:url(#SVGID_00000177477134948908344670000012468125059652555155_);enable-background:new    ;" d="&#10;&#9;&#9;M51.8,290.8l-26.5,15.5c-0.6,1.9-1.1,3.9-1.4,5.9l38.3,22.1l38.3-21L51.8,290.8z"/>
	<ellipse class="st7_money-jar-61" cx="77.4" cy="304" rx="27.2" ry="16"/>
	<polygon class="st7_money-jar-61" points="50.2,304 50.2,299.4 53.2,303.1 &#9;"/>
	<polygon class="st7_money-jar-61" points="104.7,299.4 104.7,304 101.2,304 103.8,300.3 &#9;"/>
	<ellipse class="st8_money-jar-61" cx="77.4" cy="299.6" rx="27.2" ry="16"/>
	<ellipse class="st9_money-jar-61" cx="77.5" cy="299.6" rx="22.9" ry="13.4"/>
	<path class="st8_money-jar-61" d="M90.8,295c0.2,0.4,0.3,0.8,0.2,1.2l-0.1,0.4h-5c0-0.1,0.1-0.3,0.1-0.4c0-0.3-0.1-0.6-0.3-0.9&#10;&#9;&#9;c-0.3-0.5-0.7-0.9-1.2-1.1c-0.7-0.4-1.5-0.6-2.3-0.6c-0.8,0-1.5,0.1-2.2,0.3c-0.7,0.3-1,0.7-0.8,1.2c0.2,0.6,0.6,1.1,1.1,1.6&#10;&#9;&#9;c0.5,0.5,1,1.1,1.5,1.7c0.5,0.5,0.6,1.3,0.3,1.9c-0.5,0.9-1.4,1.6-2.4,1.9c-1.7,0.7-3.5,1.1-5.3,1.1c-2,0.1-3.9-0.2-5.8-0.8&#10;&#9;&#9;l-2.9,1.2l-3.3-1.6l2.8-1.2c-0.5-0.3-0.9-0.7-1.3-1.2c-0.3-0.3-0.5-0.7-0.7-1.1c-0.1-0.3-0.2-0.6-0.2-0.9c0-0.2,0-0.4,0-0.6&#10;&#9;&#9;l0.1-0.2h5c-0.1,0.2-0.1,0.3-0.1,0.5c0,0.4,0.2,0.8,0.4,1.1c0.4,0.6,1,1.1,1.7,1.4c0.9,0.4,1.9,0.7,2.9,0.7&#10;&#9;&#9;c0.9,0.1,1.8-0.1,2.7-0.4c0.7-0.3,0.9-0.7,0.8-1.2c-0.2-0.6-0.6-1.1-1.1-1.6c-0.5-0.5-1.1-1.1-1.5-1.7c-0.4-0.5-0.5-1.3-0.2-1.9&#10;&#9;&#9;c0.6-0.9,1.5-1.6,2.5-1.9c1.6-0.6,3.3-1,5.1-1c1.8-0.1,3.7,0.2,5.4,0.8l2.8-1.2l3.1,1.7l-2.9,1.2C90.2,293.8,90.6,294.4,90.8,295z"/>
	<ellipse class="st7_money-jar-61" cx="77.4" cy="295.3" rx="27.2" ry="16"/>
	<polygon class="st7_money-jar-61" points="50.2,295.3 50.2,290.7 53.2,294.4 &#9;"/>
	<polygon class="st7_money-jar-61" points="104.7,290.7 104.7,295.3 101.2,295.3 103.8,291.6 &#9;"/>
	<ellipse class="st8_money-jar-61" cx="77.4" cy="290.9" rx="27.2" ry="16"/>
	<ellipse class="st9_money-jar-61" cx="77.5" cy="290.9" rx="22.9" ry="13.4"/>
	<path class="st8_money-jar-61" d="M90.8,286.3c0.2,0.4,0.3,0.8,0.2,1.2l-0.1,0.4h-5c0-0.1,0.1-0.3,0.1-0.4c0-0.3-0.1-0.6-0.3-0.9&#10;&#9;&#9;c-0.3-0.5-0.7-0.9-1.2-1.1c-0.7-0.4-1.5-0.6-2.3-0.6c-0.8-0.1-1.5,0.1-2.2,0.3c-0.7,0.3-0.9,0.7-0.8,1.2c0.2,0.6,0.6,1.2,1.1,1.6&#10;&#9;&#9;c0.5,0.5,1,1.1,1.5,1.7c0.5,0.5,0.6,1.3,0.3,1.9c-0.5,0.9-1.4,1.6-2.4,1.9c-1.7,0.7-3.5,1.1-5.3,1.1c-2,0.1-3.9-0.2-5.8-0.8&#10;&#9;&#9;l-2.9,1.2l-3.3-1.6l2.8-1.2c-0.5-0.3-0.9-0.7-1.3-1.2c-0.3-0.3-0.5-0.7-0.7-1.1c-0.1-0.3-0.2-0.6-0.2-0.9c0-0.2,0-0.4,0-0.6&#10;&#9;&#9;l0.1-0.2h5c-0.1,0.2-0.1,0.3-0.1,0.5c0,0.4,0.2,0.8,0.4,1.1c0.4,0.6,1,1.1,1.7,1.4c0.9,0.5,1.9,0.7,2.9,0.8&#10;&#9;&#9;c0.9,0.1,1.8-0.1,2.7-0.4c0.7-0.3,1-0.7,0.8-1.2c-0.2-0.6-0.6-1.1-1.1-1.5c-0.6-0.6-1.1-1.2-1.5-1.8c-0.4-0.5-0.5-1.3-0.2-1.9&#10;&#9;&#9;c0.6-0.9,1.5-1.6,2.5-1.9c1.6-0.7,3.3-1,5.1-1c1.8-0.1,3.7,0.2,5.4,0.8l2.8-1.2l3.1,1.7l-2.9,1.2C90.2,285.1,90.6,285.7,90.8,286.3&#10;&#9;&#9;z"/>
	<ellipse class="st7_money-jar-61" cx="77.4" cy="285.9" rx="27.2" ry="16"/>
	<polygon class="st7_money-jar-61" points="50.2,285.9 50.2,281.2 53.2,284.9 &#9;"/>
	<polygon class="st7_money-jar-61" points="104.7,281.2 104.7,285.9 101.2,285.9 103.8,282.2 &#9;"/>
	<ellipse class="st8_money-jar-61" cx="77.4" cy="281.5" rx="27.2" ry="16"/>
	<ellipse class="st9_money-jar-61" cx="77.5" cy="281.5" rx="22.9" ry="13.4"/>
	<path class="st8_money-jar-61" d="M90.8,276.8c0.2,0.4,0.3,0.8,0.2,1.2l-0.1,0.4h-5c0-0.1,0.1-0.3,0.1-0.4c0-0.3-0.1-0.6-0.3-0.9&#10;&#9;&#9;c-0.3-0.5-0.7-0.9-1.2-1.1c-0.7-0.4-1.5-0.6-2.3-0.6c-0.8-0.1-1.5,0.1-2.2,0.3c-0.7,0.3-0.9,0.7-0.8,1.2c0.2,0.6,0.6,1.1,1.1,1.6&#10;&#9;&#9;c0.5,0.5,1,1.1,1.5,1.7c0.5,0.5,0.6,1.3,0.3,1.9c-0.5,0.9-1.4,1.6-2.4,1.9c-1.7,0.7-3.5,1.1-5.3,1.1c-2,0.1-3.9-0.2-5.8-0.8&#10;&#9;&#9;l-2.9,1.2l-3.3-1.6l2.8-1.2c-0.5-0.3-0.9-0.7-1.3-1.2c-0.3-0.3-0.5-0.7-0.7-1.1c-0.1-0.3-0.2-0.6-0.2-0.9c0-0.2,0-0.4,0-0.6&#10;&#9;&#9;l0.1-0.2h5c0,0.2-0.1,0.3-0.1,0.5c0,0.4,0.2,0.8,0.4,1.1c0.4,0.6,1,1.1,1.7,1.4c0.9,0.5,1.9,0.7,2.9,0.8c0.9,0.1,1.8-0.1,2.7-0.4&#10;&#9;&#9;c0.7-0.3,1-0.7,0.8-1.2c-0.2-0.6-0.6-1.1-1.1-1.6c-0.5-0.5-1.1-1.1-1.5-1.7c-0.4-0.5-0.5-1.3-0.2-1.9c0.6-0.9,1.5-1.6,2.5-1.9&#10;&#9;&#9;c1.6-0.7,3.3-1,5.1-1c1.8-0.1,3.7,0.2,5.4,0.8l2.8-1.2l3.1,1.7l-2.9,1.2C90.2,275.7,90.6,276.2,90.8,276.8z"/>
	<ellipse class="st7_money-jar-61" cx="77.4" cy="277.3" rx="27.2" ry="16"/>
	<polygon class="st7_money-jar-61" points="50.2,277.3 50.2,272.6 53.2,276.3 &#9;"/>
	<polygon class="st7_money-jar-61" points="104.7,272.6 104.7,277.3 101.2,277.3 103.8,273.6 &#9;"/>
	<ellipse class="st8_money-jar-61" cx="77.4" cy="272.8" rx="27.2" ry="16"/>
	<ellipse class="st9_money-jar-61" cx="77.5" cy="272.8" rx="22.9" ry="13.4"/>
	<path class="st8_money-jar-61" d="M90.8,268.2c0.2,0.4,0.3,0.8,0.2,1.2l-0.1,0.4h-5c0-0.1,0.1-0.3,0.1-0.4c0-0.3-0.1-0.6-0.3-0.9&#10;&#9;&#9;c-0.3-0.5-0.7-0.9-1.2-1.1c-0.7-0.4-1.5-0.6-2.3-0.6c-0.8-0.1-1.5,0.1-2.2,0.3c-0.7,0.3-0.9,0.7-0.8,1.2c0.2,0.6,0.6,1.1,1.1,1.6&#10;&#9;&#9;c0.5,0.5,1,1.1,1.5,1.7c0.5,0.5,0.6,1.3,0.3,1.9c-0.5,0.9-1.4,1.6-2.4,1.9c-1.7,0.7-3.5,1.1-5.3,1.1c-2,0.1-3.9-0.2-5.8-0.8&#10;&#9;&#9;l-2.8,1.3l-3.3-1.6l2.8-1.2c-0.5-0.3-0.9-0.7-1.3-1.2c-0.3-0.3-0.5-0.7-0.7-1.1c-0.1-0.3-0.2-0.6-0.2-0.9c0-0.2,0-0.4,0-0.6&#10;&#9;&#9;l0.1-0.2h5c-0.1,0.2-0.1,0.3-0.1,0.5c0,0.4,0.2,0.8,0.4,1.1c0.4,0.6,1,1.1,1.7,1.4c0.9,0.5,1.9,0.7,2.9,0.8&#10;&#9;&#9;c0.9,0.1,1.8-0.1,2.7-0.4c0.7-0.3,0.9-0.7,0.8-1.2c-0.2-0.6-0.6-1.1-1.1-1.5c-0.6-0.5-1.1-1.1-1.6-1.7c-0.4-0.5-0.5-1.3-0.2-1.9&#10;&#9;&#9;c0.6-0.9,1.5-1.6,2.5-1.9c1.6-0.7,3.3-1,5.1-1c1.8-0.1,3.7,0.2,5.4,0.8l2.8-1.2l3.1,1.7l-2.9,1.2C90.2,267.1,90.6,267.6,90.8,268.2&#10;&#9;&#9;z"/>
	<ellipse class="st7_money-jar-61" cx="62.4" cy="263.5" rx="27.2" ry="16"/>
	<polygon class="st7_money-jar-61" points="35.2,263.5 35.2,258.9 38.1,262.6 &#9;"/>
	<polygon class="st7_money-jar-61" points="89.6,258.9 89.6,263.5 86.2,263.5 88.7,259.8 &#9;"/>
	<ellipse class="st8_money-jar-61" cx="62.4" cy="259.1" rx="27.2" ry="16"/>
	<ellipse class="st9_money-jar-61" cx="62.4" cy="259.1" rx="22.9" ry="13.4"/>
	<path class="st8_money-jar-61" d="M75.8,254.5c0.2,0.4,0.3,0.8,0.2,1.2l-0.1,0.4h-5c0-0.1,0.1-0.3,0.1-0.4c0-0.3-0.1-0.6-0.3-0.9&#10;&#9;&#9;c-0.3-0.5-0.7-0.9-1.2-1.1c-0.7-0.4-1.5-0.6-2.3-0.6c-0.8-0.1-1.5,0.1-2.2,0.3c-0.7,0.3-0.9,0.7-0.8,1.2c0.2,0.6,0.6,1.1,1.1,1.6&#10;&#9;&#9;c0.5,0.5,1,1.1,1.5,1.7c0.5,0.5,0.6,1.3,0.3,1.9c-0.5,0.9-1.4,1.6-2.4,1.9c-1.7,0.7-3.5,1.1-5.3,1.1c-2,0.1-3.9-0.2-5.8-0.8&#10;&#9;&#9;l-2.9,1.2l-3.3-1.6l2.8-1.2c-0.5-0.3-0.9-0.7-1.3-1.2c-0.3-0.3-0.5-0.7-0.7-1.1c-0.1-0.3-0.2-0.6-0.2-0.9c0-0.2,0-0.4,0-0.6&#10;&#9;&#9;l0.1-0.2h5c-0.1,0.2-0.1,0.3-0.1,0.5c0,0.4,0.2,0.8,0.4,1.1c0.4,0.6,1,1.1,1.7,1.4c0.9,0.5,1.9,0.7,2.9,0.8&#10;&#9;&#9;c0.9,0.1,1.8-0.1,2.7-0.4c0.7-0.3,1-0.7,0.8-1.2c-0.2-0.6-0.6-1.1-1.1-1.5c-0.5-0.5-1.1-1.1-1.5-1.7c-0.4-0.5-0.5-1.3-0.2-1.9&#10;&#9;&#9;c0.6-0.9,1.5-1.6,2.5-1.9c1.6-0.6,3.3-1,5-1c1.8-0.1,3.7,0.2,5.4,0.8l2.9-1.2l3.1,1.7l-2.9,1.2C75.1,253.3,75.5,253.9,75.8,254.5z"/>
</g>
</svg>