<svg id="_0494_motivation" xmlns="http://www.w3.org/2000/svg" xmlns:xlink="http://www.w3.org/1999/xlink" viewBox="0 0 500 500" data-imageid="motivation-7-41" imageName="Motivation 7" class="illustrations_image" style="width: 166px;"><defs><style>.cls-1_motivation-7-41{fill:url(#linear-gradient);}.cls-1_motivation-7-41,.cls-2_motivation-7-41,.cls-3_motivation-7-41,.cls-4_motivation-7-41,.cls-5_motivation-7-41,.cls-6_motivation-7-41,.cls-7_motivation-7-41,.cls-8_motivation-7-41,.cls-9_motivation-7-41,.cls-10_motivation-7-41,.cls-11_motivation-7-41,.cls-12_motivation-7-41,.cls-13_motivation-7-41,.cls-14_motivation-7-41,.cls-15_motivation-7-41,.cls-16_motivation-7-41,.cls-17_motivation-7-41,.cls-18_motivation-7-41,.cls-19_motivation-7-41,.cls-20_motivation-7-41,.cls-21_motivation-7-41,.cls-22_motivation-7-41,.cls-23_motivation-7-41,.cls-24_motivation-7-41,.cls-25_motivation-7-41,.cls-26_motivation-7-41,.cls-27_motivation-7-41,.cls-28_motivation-7-41,.cls-29_motivation-7-41{stroke-width:0px;}.cls-2_motivation-7-41{opacity:.18;}.cls-2_motivation-7-41,.cls-28_motivation-7-41,.cls-29_motivation-7-41{fill:#68e1fd;}.cls-2_motivation-7-41,.cls-29_motivation-7-41{isolation:isolate;}.cls-3_motivation-7-41{fill:url(#linear-gradient-11-motivation-7-41);}.cls-4_motivation-7-41{fill:url(#linear-gradient-12-motivation-7-41);}.cls-5_motivation-7-41{fill:url(#linear-gradient-13-motivation-7-41);}.cls-6_motivation-7-41{fill:url(#linear-gradient-10-motivation-7-41);}.cls-7_motivation-7-41{fill:url(#linear-gradient-17-motivation-7-41);}.cls-8_motivation-7-41{fill:url(#linear-gradient-16-motivation-7-41);}.cls-9_motivation-7-41{fill:url(#linear-gradient-19-motivation-7-41);}.cls-10_motivation-7-41{fill:url(#linear-gradient-15-motivation-7-41);}.cls-11_motivation-7-41{fill:url(#linear-gradient-21-motivation-7-41);}.cls-12_motivation-7-41{fill:url(#linear-gradient-18-motivation-7-41);}.cls-13_motivation-7-41{fill:url(#linear-gradient-14-motivation-7-41);}.cls-14_motivation-7-41{fill:url(#linear-gradient-22-motivation-7-41);}.cls-15_motivation-7-41{fill:url(#linear-gradient-20-motivation-7-41);}.cls-16_motivation-7-41{fill:url(#linear-gradient-4-motivation-7-41);}.cls-17_motivation-7-41{fill:url(#linear-gradient-2-motivation-7-41);}.cls-18_motivation-7-41{fill:url(#linear-gradient-3-motivation-7-41);}.cls-19_motivation-7-41{fill:url(#linear-gradient-8-motivation-7-41);}.cls-20_motivation-7-41{fill:url(#linear-gradient-9-motivation-7-41);}.cls-21_motivation-7-41{fill:url(#linear-gradient-7-motivation-7-41);}.cls-22_motivation-7-41{fill:url(#linear-gradient-5-motivation-7-41);}.cls-23_motivation-7-41{fill:url(#linear-gradient-6-motivation-7-41);}.cls-24_motivation-7-41{fill:#973535;}.cls-25_motivation-7-41{fill:#231f20;}.cls-26_motivation-7-41{fill:#fff;}.cls-27_motivation-7-41{fill:#ffbaa8;}.cls-29_motivation-7-41{opacity:.5;}</style><linearGradient id="linear-gradient-motivation-7-41" x1="395.39" y1="3052.56" x2="378.32" y2="2843.08" gradientTransform="translate(-45.19 3352.04) scale(1 -1)" gradientUnits="userSpaceOnUse"><stop offset="0" stop-color="#231f20"/><stop offset=".08" stop-color="#231f20" stop-opacity=".69"/><stop offset=".21" stop-color="#231f20" stop-opacity=".32"/><stop offset="1" stop-color="#231f20" stop-opacity="0"/></linearGradient><linearGradient id="linear-gradient-2-motivation-7-41" x1="371.56" y1="3091.43" x2="403.64" y2="2911.95" gradientTransform="translate(-31 3367.76) scale(1 -1)" xlink:href="#linear-gradient-motivation-7-41"/><linearGradient id="linear-gradient-3-motivation-7-41" x1="374.45" y1="3096.56" x2="376.04" y2="2994.61" gradientTransform="translate(-31 3367.76) scale(1 -1)" xlink:href="#linear-gradient-motivation-7-41"/><linearGradient id="linear-gradient-4-motivation-7-41" x1="176.3" y1="3025.95" x2="154.09" y2="2836.6" xlink:href="#linear-gradient-motivation-7-41"/><linearGradient id="linear-gradient-5-motivation-7-41" x1="140.06" y1="3039.17" x2="275.55" y2="2958.61" gradientTransform="translate(-31 3367.76) scale(1 -1)" xlink:href="#linear-gradient-motivation-7-41"/><linearGradient id="linear-gradient-6-motivation-7-41" x1="192.79" y1="3046.2" x2="120.4" y2="2984.15" gradientTransform="translate(-31 3367.76) scale(1 -1)" xlink:href="#linear-gradient-motivation-7-41"/><linearGradient id="linear-gradient-7-motivation-7-41" x1="229.09" y1="3067.35" x2="211.02" y2="3123.22" xlink:href="#linear-gradient-motivation-7-41"/><linearGradient id="linear-gradient-8-motivation-7-41" x1="187.85" y1="3070.51" x2="161.04" y2="3013.33" xlink:href="#linear-gradient-motivation-7-41"/><linearGradient id="linear-gradient-9-motivation-7-41" x1="238.01" y1="2978.37" x2="116.39" y2="3105.55" xlink:href="#linear-gradient-motivation-7-41"/><linearGradient id="linear-gradient-10-motivation-7-41" x1="123.98" y1="2962.67" x2="123.72" y2="2908.48" xlink:href="#linear-gradient-motivation-7-41"/><linearGradient id="linear-gradient-11-motivation-7-41" x1="125.32" y1="2927.66" x2="124.53" y2="2969.46" xlink:href="#linear-gradient-motivation-7-41"/><linearGradient id="linear-gradient-12-motivation-7-41" x1="167.14" y1="3015.36" x2="217.05" y2="3004.14" gradientTransform="translate(-31 3367.76) scale(1 -1)" xlink:href="#linear-gradient-motivation-7-41"/><linearGradient id="linear-gradient-13-motivation-7-41" x1="216.77" y1="3099.38" x2="118.25" y2="3046.83" xlink:href="#linear-gradient-motivation-7-41"/><linearGradient id="linear-gradient-14-motivation-7-41" x1="119.93" y1="2962.05" x2="120.82" y2="2938.48" xlink:href="#linear-gradient-motivation-7-41"/><linearGradient id="linear-gradient-15-motivation-7-41" x1="207.1" y1="108.49" x2="244.89" y2="377.38" gradientTransform="matrix(1,0,0,1,0,0)" xlink:href="#linear-gradient-motivation-7-41"/><linearGradient id="linear-gradient-16-motivation-7-41" x1="388.84" y1="82.95" x2="426.63" y2="351.83" gradientTransform="matrix(1,0,0,1,0,0)" xlink:href="#linear-gradient-motivation-7-41"/><linearGradient id="linear-gradient-17-motivation-7-41" x1="260.4" y1="101" x2="298.19" y2="369.88" gradientTransform="matrix(1,0,0,1,0,0)" xlink:href="#linear-gradient-motivation-7-41"/><linearGradient id="linear-gradient-18-motivation-7-41" x1="293.83" y1="96.3" x2="331.63" y2="365.19" gradientTransform="matrix(1,0,0,1,0,0)" xlink:href="#linear-gradient-motivation-7-41"/><linearGradient id="linear-gradient-19-motivation-7-41" x1="333.47" y1="90.73" x2="371.26" y2="359.62" gradientTransform="matrix(1,0,0,1,0,0)" xlink:href="#linear-gradient-motivation-7-41"/><linearGradient id="linear-gradient-20-motivation-7-41" x1="285.09" y1="97.53" x2="322.88" y2="366.41" gradientTransform="matrix(1,0,0,1,0,0)" xlink:href="#linear-gradient-motivation-7-41"/><linearGradient id="linear-gradient-21-motivation-7-41" x1="263.22" y1="100.6" x2="301.01" y2="369.49" gradientTransform="matrix(1,0,0,1,0,0)" xlink:href="#linear-gradient-motivation-7-41"/><linearGradient id="linear-gradient-22-motivation-7-41" x1="386.56" y1="83.27" x2="424.35" y2="352.15" gradientTransform="matrix(1,0,0,1,0,0)" xlink:href="#linear-gradient-motivation-7-41"/></defs><g id="background_motivation-7-41"><path class="cls-2_motivation-7-41 targetColor" d="M15.94,328.95c2.6,15.99,18.48,90.38,76.48,106.21,43.92,11.97,167.11-29.09,237.37-8.44,141.31,41.54,167.19-69.98,159.29-100.11-5.5-21-12.29-42.06-12.47-63.98-.18-22.97,7.85-45.49,8.73-68.59,2.22-58.46-38.86-115.85-94.9-132.61-23.99-7.18-43.59-14.49-68.63-14.71-50.81-.43-171.38,0-230.77,86.4-10.61,15.45-26.03,26.99-37.84,41.51-15.86,19.45-26.31,42.92-32.67,67.2-7.44,28.3-9.26,58.31-4.58,87.13Z" style="fill: rgb(104, 225, 253);"/></g><g id="plant_motivation-7-41"><path class="cls-1_motivation-7-41" d="M269.65,392.12c3.17,1.59,6.51,2.81,9.96,3.64,7.53,2.02,15.16,3.64,22.86,4.86,7.07,1.13,14.37,2.53,21.49,2.46l49.39-.49,17.78-.18c5.72-.05,11.53-.12,17.04-1.68,5.51-1.55,10.81-4.8,13.51-9.82.71-1.14,1.06-2.48,1.01-3.82-.32-2.91-3.42-4.56-6.17-5.53-12.61-4.45-26.11-5.18-39.36-5.6-6.6-.22-13.21.45-19.83.47-7.18,0-14.35-.15-21.53.14-12.59.51-25.08,2.45-37.65,3.24-10.59.68-21.35.57-31.57,3.38-1.27.35-2.7.93-3.05,2.2-.3,1.16.48,2.3,1.3,3.16,1.41,1.43,3.03,2.63,4.81,3.57Z"/><path class="cls-29_motivation-7-41 targetColor" d="M317.4,87.78s22.97,10.3,32.49,32.88c9.52,22.59,9.75,26.94,9.75,26.94,0,0,18.77-32.88,47.69-27.34,28.92,5.55,33.28,21.79,33.28,21.79,0,0-51.13,18.24-65.38,18.24h-14.25v144.37h-11.22l4.22-145.19s-23.11-.4-46.28-31.7c-23.17-31.3-28.72-36.05-41.76-35.67,0,0,27.7-12.27,51.47-4.34Z" style="fill: rgb(104, 225, 253);"/><polygon class="cls-26_motivation-7-41" points="386.93 389.31 305.32 387.33 290.27 309.72 402.78 309.72 386.93 389.31"/><polygon class="cls-17_motivation-7-41" points="386.93 389.31 305.32 387.33 290.27 309.72 402.78 309.72 386.93 389.31"/><polygon class="cls-26_motivation-7-41" points="386.93 389.31 321.17 387.72 309.02 332.96 397.83 332.96 386.93 389.31"/><rect class="cls-26_motivation-7-41" x="276.27" y="304.68" width="135.76" height="22.74"/><rect class="cls-18_motivation-7-41" x="276.27" y="304.68" width="135.76" height="22.74"/><rect class="cls-26_motivation-7-41" x="276.27" y="304.68" width="135.76" height="18.66"/></g><g id="character_1_motivation-7-41"><path class="cls-16_motivation-7-41" d="M98.2,397.52c-1.55.2-3.13.23-4.67.53-5.08,1-9.84,3.18-14.8,4.59-6.93,1.98-14.19,2.45-21.32,3.53-1.64.25-3.69.98-3.72,2.64.09.93.59,1.77,1.35,2.3,2.3,1.97,5.28,2.95,8.2,3.76,11.39,3.2,23.16,4.83,34.99,4.86,8.59,0,17.76-1.04,24.38-6.52,2.51-2.07,4.65-5.06,4.35-8.3.05.53,37.16-2.09,40.39-2.61,7.93-1.29,15.76-3.7,22.54-8,.52-.24.91-.68,1.1-1.22.16-.76-.52-1.45-1.2-1.84-1.8-1.04-3.94-1.26-6.01-1.41-9.1-.69-18.25-.66-27.35.08-3.38.28-6.82.68-10.22,1.02-8.18.88-16.37,1.67-24.56,2.37-3.97.34-8.4.16-12.29,1-2.99.68-6.03,1.84-8.98,2.76-.71.21-1.44.36-2.18.45Z"/><polygon class="cls-28_motivation-7-41 targetColor" points="164.15 309.25 162.5 390.33 151.5 390.33 148.33 325.89 141.42 390.33 128.82 392.44 125.93 306.59 164.15 309.25" style="fill: rgb(104, 225, 253);"/><polygon class="cls-22_motivation-7-41" points="164.15 309.25 162.5 390.33 151.5 390.33 148.33 325.89 141.42 390.33 128.82 392.44 125.93 306.59 164.15 309.25"/><polygon class="cls-23_motivation-7-41" points="136.35 389.07 136.35 313.91 125.93 306.59 129.45 390.33 136.35 389.07"/><path class="cls-28_motivation-7-41 targetColor" d="M194.05,256.16s-.08.07-.24.2v.03c-2.35,2.03-20.81,17.93-23.58,16.99-2.38-.78-8.64-4.51-11.01-5.97l-.93-.56v-22.34l11.52,13.82,20.47-12.07,3.76,9.9Z" style="fill: rgb(104, 225, 253);"/><path class="cls-21_motivation-7-41" d="M193.82,256.36v.03c-2.35,2.03-20.81,17.93-23.58,16.99-2.38-.78-8.64-4.51-11.01-5.97-.11-.9-.15-1.8-.11-2.7.03-1.98-.68-6.76,2.35-5.61,2.47.96,4.25,4.14,6.67,5.35.78.7,1.75,1.15,2.79,1.3,1.69.1,3.03-1.26,4.2-2.46,4.12-4.23,8.95-7.7,14.27-10.27.24-.13.5-.2.78-.2.3.08.57.26.76.51.96.99,1.93,2.01,2.89,3.03Z"/><path class="cls-28_motivation-7-41 targetColor" d="M134.08,237.52c-2.94,1.47-5.8,3.08-8.57,4.84-5.89,3.77-4.82,5.51-3.74,12.01,2.31,13.89,3.46,27.96,3.45,42.04,0,3.32-.22,6.96.72,10.18.61,2.1,2.03,3.85,2.18,6.08,9.07,1.25,29.82,5.92,36.04-3.38,5.94-8.92-4.73-40.61-2.78-54.67,1.95-14.06-16.22-15.66-16.22-15.66l-11.07-1.43Z" style="fill: rgb(104, 225, 253);"/><path class="cls-19_motivation-7-41" d="M146.57,302.51l-16.45,11.09-2.7-3.43s-2.59-8.72-2.2-17.57c.4-8.84-.04-5.68-.04-5.68l23.14,14.66-1.76.93Z"/><path class="cls-27_motivation-7-41" d="M154.75,223.8c.03.94-.03,1.87-.16,2.8-.43,1.94-1.2,3.79-2.26,5.47-.27.59-.67,1.1-1.17,1.51-.95.68-2.24.46-3.38.28-.27-.07-.54-.07-.81,0-.68.24-.73,1.12-.68,1.82l.17,3.22c.07.44,0,.9-.22,1.29-.22.27-.52.46-.85.55-2.43.8-5.1.19-6.94-1.57-.46-.41-.83-.91-1.09-1.47-.22-.54-.35-1.1-.41-1.68-.39-3.08-.07-6.2-.28-9.3-.18-2.57-.72-5.18-.23-7.7.51-2.79,2.37-5.15,4.97-6.29,2.57-1.04,5.49-.57,8.16.18,1.28.36,2.55.79,3.79,1.28.61.16,1.13.55,1.47,1.07.49.99-.04,2.43-.06,3.49-.07,1.69-.03,3.37-.04,5.05Z"/><path class="cls-24_motivation-7-41" d="M154.77,211.11c.28.63.68,1.18,1.01,1.78.36.59.49,1.3.34,1.97-.19.52-.53.98-.98,1.31-2.13,1.75-5.07,2.11-7.82,1.97-.78-.07-1.57-.07-2.35,0-.79.07-1.53.43-2.07,1-.81.94-.76,2.31-1.02,3.53,0,.08-.04.15-.09.2-.04.03-.1.05-.15.05-.87.11-1.69-.92-2.5-.57-.4.23-.65.65-.68,1.11-.06.54.02,1.08.24,1.58.11.19.17.4.2.62-.01.15-.04.29-.1.43l-.56,1.53c-.13.57-.48,1.07-.97,1.41-.68.33-1.46-.03-2.1-.41-.84-.35-1.43-1.12-1.53-2.03-.86-3.8-.93-7.74-.93-11.63-.06-.92.07-1.84.38-2.7.74-1.72,2.74-2.49,4.57-2.89,3.38-.72,6.85-.74,10.3-.75,1.08-.04,2.16.03,3.23.23,1.07.2,2.05.75,2.77,1.56"/><path class="cls-24_motivation-7-41" d="M149.41,227.41c-.57.27-1,.76-1.22,1.35-.03.06-.03.12,0,.18.05.05.11.07.18.07,1.18.07,2.37.06,3.55-.04.94-.03,1.86-.26,2.7-.68.06-.03.12-.07.16-.13.03-.06.04-.12.04-.18-.06-.98-.9-1.73-1.88-1.67-.01,0-.03,0-.04,0-1.24.08-2.44.45-3.5,1.09Z"/><path class="cls-26_motivation-7-41" d="M136.95,236.04s-2.51,1.76-2.45,3.68,13.7,40.34,13.7,40.34c0,0,.31-36.78,0-38.51-.46-1.66-1.08-3.27-1.84-4.82,0,0-5.42,3.95-9.41-.69Z"/><polygon class="cls-25_motivation-7-41" points="141.42 239.52 140.51 242.49 142.04 243.78 142.78 264.64 148.2 280.06 148.33 264.38 143.68 243.67 145.38 240.76 143.14 239.52 141.42 239.52"/><path class="cls-27_motivation-7-41" d="M190.38,253.46c-.55-2.16-.11-4.45,1.2-6.25l2.81-3.9c.48-.68.99-1.35,1.45-2.03.31-.46.45-.92.99-1.2.35-.15.72-.24,1.1-.26l1.94-.2c.16-.03.32-.03.48,0,.34.14.55.48.53.85-.04.35-.15.69-.33,1,1.06-.67,2.24-1.13,3.47-1.35.17-.04.35-.04.53,0,.19.09.34.24.43.43.5.96.8,2.02.88,3.11.16,1.18.33,2.36.46,3.55.05.3.05.61,0,.91-.08.32-.23.62-.43.89-.77,1.08-1.88,1.88-3.14,2.28-.78.21-1.57.37-2.37.47-2.22.39-4.34,1.2-6.26,2.38-.47.32-.97.58-1.5.78-.54.19-1.14.09-1.61-.24-.33-.33-.54-.75-.61-1.2Z"/><path class="cls-28_motivation-7-41 targetColor" d="M151.51,293.78c-1.61,2.03-3.44,3.89-5.45,5.53-.41.34-.83.68-1.26.99-.45.4-1,.66-1.6.75-.41-.02-.81-.11-1.18-.28-7.93-3.09-15.73-6.59-23.32-10.45-3.18-1.64-6.67-3.78-7.34-7.28-.17-1.22-.14-2.46.09-3.68,1.2-8.87,3.52-17.56,6.91-25.84.96-2.35,2.16-6.87,4.66-8.39h0l.29-.16.36-.17c3.38-1.22,6.32,2.16,7.24,5.01,1.31,4.05.68,8.47-.38,12.59-1.05,4.12-2.53,8.16-2.9,12.41-.1.58-.04,1.18.17,1.73.32.54.77.98,1.3,1.3,7.48,5.32,14.95,10.63,22.4,15.93Z" style="fill: rgb(104, 225, 253);"/><path class="cls-26_motivation-7-41" d="M218.49,228.53l-.74-1.35c-.43.24-10.81,5.85-18.61,12.75-12.09,10.72-21.65,24.4-25,35.7-5.12,17.45-21.62,24.59-23.26,25.26-2.77.6-30.65,7.38-35.89,34.64l-1.07,5.51c-4.16,21.94-10.47,55.07-18.45,60.06-.01,0-.03,0-.04,0-.61.45-1.4.59-2.13.39l-.35-.1h-.07c.61-1.13.61-2.49,0-3.62-.42-.79-1.1-1.41-1.93-1.76h0c-.94-.38-1.95-.55-2.96-.52l-12.72-.1c-6.2-.05-12.59-.09-18.92,1.03-1.29.19-2.43.93-3.13,2.03-.41.77-.44,1.69-.09,2.49l.39.94,1,.27c1.94.52,3.89.97,5.82,1.35l.28.07c7.63,1.57,15.4,2.36,23.19,2.34,2.87,0,5.78-.1,8.71-.3,1.77.36,3.62.01,5.14-.98,8.82-5.52,14.44-31.76,20.36-62.84l1.05-5.5c4.94-25.71,31.63-31.13,32.76-31.35l.35-.1c.8-.3,19.97-7.72,25.95-28.06,3.13-10.59,12.22-23.51,23.74-33.72,7.43-6.57,17.72-12.16,17.81-12.2l-1.21-2.32ZM75.29,399.64l12.7.1c.26,0,.51,0,.76.04-.55.1-1.12.1-1.68,0l-.05.39-.18,1.51c-6.96.18-13.92-.28-20.8-1.39-.89-.14-1.77-.3-2.64-.47,3.95-.28,7.94-.21,11.88-.18Z"/><path class="cls-20_motivation-7-41" d="M218.49,228.53c-3.25,1.84-10.99,6.47-17.11,11.91-12.07,10.71-21.65,24.38-25,35.7-5.14,17.44-21.62,24.59-23.26,25.25-2.77.6-30.66,7.38-35.89,34.64l-1.05,5.51c-2.26,11.88-4.5,23.78-7.56,35.49-1.27,5.17-2.88,10.24-4.82,15.2-1.24,3.03-2.76,6.91-5.47,8.95-2.09,1.58-5.74,1.97-8.3,2.36-3.13.47-6.3.66-9.46.57-5.93-.24-11.83-.95-17.65-2.11-2.24-.41-4.54-.85-6.51-2.03-.31-.25-.7-.36-1.09-.3-.61.2,0,1.45.13,1.8l.41.94.99.26c1.2.31,2.39.62,3.59.89l.28.07c7.63,1.57,15.4,2.36,23.19,2.34,2.87,0,5.78-.1,8.71-.3,1.77.36,3.62.01,5.14-.98,8.82-5.52,14.44-31.76,20.36-62.84l1.05-5.5c4.94-25.71,31.63-31.13,32.76-31.35l.35-.1c.8-.3,19.97-7.72,25.95-28.06,3.13-10.59,12.22-23.51,23.74-33.72,7.43-6.57,17.72-12.16,17.81-12.2l-1.26-2.36ZM89.31,400.31l-.21,1.9c-7.86.22-15.73-.4-23.46-1.86h.41c3.83-.24,7.7-.21,11.49-.18l9.51.07h3.21c.32,0,.57,0,.76.04-.56.11-1.14.12-1.7.03Z"/><path class="cls-26_motivation-7-41" d="M83.31,409.49c-11.21,0-22.37-1.64-33.11-4.86-1.12-.34-1.75-1.52-1.42-2.64.34-1.12,1.52-1.75,2.64-1.42,12.33,3.7,25.2,5.23,38.05,4.51,2.38-.11,4.76-.35,7.11-.72.51-.08,1.02-.18,1.53-.28.49,0,.95-.24,1.25-.62.85-.99,1.66-2.03,2.44-3.07l.56-.76c.76-1.07,1.56-2.22,2.79-2.67s3.08-.09,3.42,1.35c.06.26.11.53.14.8.18,1.9-.41,3.8-1.64,5.26-1.93,2.26-4.82,3.14-7.13,3.65-3.37.7-6.8,1.13-10.24,1.28-2.14.11-4.28.17-6.4.18Z"/><path class="cls-6_motivation-7-41" d="M83.31,409.51c-11.21,0-22.37-1.64-33.11-4.86-1.12-.34-1.75-1.52-1.42-2.64.34-1.12,1.52-1.75,2.64-1.42h0c12.33,3.7,25.2,5.23,38.05,4.51,3.22-.12,6.42-.51,9.57-1.17,2.16-.47,4.66-1.24,5.59-3.44.29-.49.26-1.1-.07-1.57-.17-.13-.35-.25-.55-.35-.19-.11-.32-.31-.34-.53,0-.24.23-.41.43-.52.83-.45,1.79-.57,2.7-.34,1.14.28,1.78.79,1.91,1.96.18,1.9-.41,3.8-1.64,5.26-1.93,2.26-4.82,3.14-7.13,3.65-3.37.71-6.8,1.14-10.24,1.28-2.15.11-4.29.17-6.41.18Z"/><path class="cls-26_motivation-7-41" d="M109.45,406.81c0,.18-.02.36-.07.53-.11.41-.34.78-.68,1.04-.88.78-1.89,1.4-2.97,1.86-1.46.53-3,.81-4.55.84-7,.49-14.38,1.01-21.87,1.01-9.59,0-19.34-.86-28.66-3.72-.14-.04-.27-.09-.39-.17-1-.6-1.33-1.89-.74-2.9.38-.63,1.05-1.02,1.79-1.03.23,0,.46.03.68.1,15.81,4.85,33.36,3.61,48.92,2.52,1.11-.02,2.22-.2,3.28-.55.65-.28,1.25-.67,1.78-1.14.89-.76,2.23-.67,2.99.22.33.39.52.88.51,1.39l-.03-.02Z"/><path class="cls-3_motivation-7-41" d="M109.38,407.34c-.11.41-.34.78-.68,1.04-.88.78-1.89,1.4-2.97,1.86-1.46.53-3,.81-4.55.84-7,.49-14.38,1.01-21.87,1.01-9.59,0-19.34-.86-28.66-3.72-.14-.04-.27-.09-.39-.17l.04-.15c.28-.86,1.08-1.43,1.99-1.43.23,0,.46.03.68.1,15.82,4.85,33.38,3.61,48.94,2.52,1.11-.02,2.22-.2,3.28-.55.65-.28,1.24-.67,1.77-1.14.69-.57,1.65-.66,2.43-.23Z"/><path class="cls-25_motivation-7-41" d="M151.5,390.33l.59,5.97,3.76.68,1.69-1.49,2.87,2.28h11.29s2.87-4.95-3.38-6.63l-6.24-1.68-10.59.88Z"/><path class="cls-25_motivation-7-41" d="M129.45,390.33l.59,5.97,3.76.68,1.68-1.49,2.88,2.28h11.28s2.87-4.95-3.38-6.63l-6.24-1.68-10.59.88Z"/><polygon class="cls-4_motivation-7-41" points="148.33 325.89 153.39 321.79 156.95 389.48 151.5 390.33 148.33 325.89"/><path class="cls-5_motivation-7-41" d="M146.06,299.3c-.41.34-.83.68-1.26.99-.45.4-1,.66-1.6.75-.41-.02-.81-.11-1.18-.28-7.93-3.09-15.73-6.59-23.32-10.45-3.18-1.64-6.67-3.78-7.34-7.28-.17-1.22-.14-2.46.09-3.68,1.2-8.87,3.52-17.56,6.91-25.84.96-2.35,2.16-6.87,4.66-8.39h0l.29-.16.36-.17c3.24-.05,6.15,1.96,7.24,5.01,0,0-12.01,24.59-11.49,28.3.53,3.7,25.74,15.74,25.74,15.74l.91,5.46Z"/><path class="cls-27_motivation-7-41" d="M157.16,295.84c.66.16,1.28.47,1.8.9.53.44.75,1.16.57,1.82-.19.38-.42.74-.68,1.07-.33.59-.37,1.3-.68,1.9-.58.9-1.48,1.55-2.51,1.82-3.01,1.08-6.67,1.24-9.09-.84-1.77-1.51-5.3-7.74-1.41-8.68,1.45-.34,3.49.31,4.93.51,2.39.3,4.75.8,7.06,1.49Z"/><path class="cls-27_motivation-7-41" d="M199.38,243.29c.58-.33.93-.94.94-1.61-.03-.21-.1-.41-.22-.59-.68-1.1-2.06-1.52-3.24-.99-.74.45-1.35,1.09-1.77,1.86-.74.93-1.4,1.92-1.97,2.97-.4.91.35.6,1.01.35,1.72-.64,3.74-.91,5.25-1.99Z"/><path class="cls-13_motivation-7-41" d="M66.11,399.5c8.62.12,17.23.16,25.84.13-.16-.76-.69-1.39-1.41-1.68-.96-.36-1.99-.51-3.01-.43-3.26.03-6.51.21-9.76.55-2.06.27-4.14.44-6.22.49-1.93,0-3.85-.27-5.78-.4-1.5-.1-3-.12-4.49-.12-.61,0-3.3-.32-3.04.5.31.96,2.77.79,3.48.84,1.47.09,2.93.11,4.4.13Z"/></g><g id="character_2_motivation-7-41"><path class="cls-25_motivation-7-41" d="M358.57,212.84c-1.71.78-3.27,1.83-4.63,3.13-1.35,1.32-2.09,3.16-2.03,5.05.18,2.26,1.8,4.14,3.51,5.63,1.97,1.72,4.34,3.52,4.5,6.12,1.41-1.03,2.67-2.26,4.11-3.24,2.53-1.72,5.51-2.65,8.29-3.93,2.78-1.28,5.53-3.07,6.86-5.82.71-1.74,1.12-3.59,1.21-5.47.29-2.01.34-4.05.16-6.08-.19-2.04-1.08-3.95-2.52-5.41-1.06-.89-2.27-1.59-3.57-2.07-1.24-.6-2.57-.97-3.94-1.1-2.89-.13-6.08,2.29-7.11,4.99-.57,1.52-.3,3.25-.86,4.73-.67,1.82-2.39,2.68-3.98,3.48Z"/><path class="cls-27_motivation-7-41" d="M295.67,304.67c-.55,0-1.09.08-1.61.25-.53.18-.91.65-.97,1.21.04.54.36,1.03.84,1.29.45.29.97.47,1.41.76.38.32.79.6,1.22.85.77.22,1.59.19,2.34-.09,3.5-.85,7.12-1.08,10.7-.68.35.05.7.05,1.05,0,1.05-.16,1.75-1.16,2.14-2.14.84-2.12.8-4.48.61-6.76,0-.25-.06-.5-.18-.72-.14-.18-.32-.33-.53-.42-3.38-1.68-5.24,1.68-7.74,3.31-2.77,1.84-5.97,2.92-9.28,3.14Z"/><path class="cls-25_motivation-7-41" d="M377.58,254.84s.85,12.68-10.48,16.51-31.63.68-31.63.68c0,0-8.18,15.66-16.53,23.11l-5.36,5.29s-3.49,1.09-5.88-2.55c0,0,15.86-31.47,17.92-33.82,2.41-2.9,5.63-5.02,9.26-6.08,4.66-1.46,22.61-7.11,22.61-7.11l20.1,3.99Z"/><polygon class="cls-25_motivation-7-41" points="301.94 213.28 314.08 239.05 336.5 238.89 336.32 236.95 315.7 236.72 304.28 212.34 301.94 213.28"/><path class="cls-27_motivation-7-41" d="M361.3,196.64c-.43.68-1.28,1.12-1.56,1.89-.33.94.32,1.9.68,2.84.47,1.3.32,2.76.77,4.05.08.28.24.54.46.74.2.14.43.23.68.27.97.2,1.96.26,2.95.18.19-.05.4-.02.57.07.15.13.24.31.26.5.57,2.47.53,5.05-.11,7.51-.21.8-.45,1.79.16,2.38.21.19.47.32.76.38,1.87.46,3.68-.93,4.93-2.38,1.13-1.3,2.1-2.72,2.9-4.25.24-.42.41-.88.49-1.35.04-.63-.05-1.26-.26-1.85-.53-2.04-.86-4.13-.97-6.24-.14-2.7.05-5.51-.98-8.01-.3-.86-.88-1.6-1.64-2.1-.91-.43-1.92-.59-2.91-.47-1.96.07-4.11.34-5.45,1.78-.39.41-1.2,3.19-1.72,4.06Z"/><path class="cls-28_motivation-7-41 targetColor" d="M375.05,209.62s-8.11,4.18-10.51,7.43-6.44,5.7-4.9,11.91c1.54,6.21-.34,15.68-.34,15.68,0,0,3.51,11.04,12.11,13.84,8.61,2.8,6.26,1.9,6.26,1.9,0,0,4.59-20.46,6.37-26.16,1.78-5.7-1.12-25.51-9-24.6Z" style="fill: rgb(104, 225, 253);"/><path class="cls-25_motivation-7-41" d="M363.91,192.29c.15,1.33.79,2.56,1.78,3.46.95.9,2.14,1.51,3.13,2.36s1.79,2.12,1.57,3.38c.78-.32,1.69-.04,2.14.68.21.5.12,1.07-.23,1.48-.36.4-.88.61-1.41.59,1.02.41,1.9,1.12,2.52,2.03.68,1.02,1.03,2.24,1.66,3.3.68,1.18,1.84,1.89,2.89,2.7.52.34.95.81,1.25,1.35.23.81.51,1.61.84,2.39.61,1.08,1.59,1.91,2.31,2.91.95,1.35,1.92,3.86,1.83,5.49-.05-.58-.05-1.16,0-1.74.2-.35.4-.68.58-1.06.31-.63.56-1.3.72-1.99.39-1.59.12-3.16.13-4.73,0-3.38,3.21-9.81.64-12.72-.89-1-2.24-1.46-3.26-2.32-2.28-1.88-2.6-5.2-4.05-7.78-1.28-2.29-3.43-3.97-5.97-4.66-3.39-.9-9.51.16-9.07,4.88Z"/><path class="cls-28_motivation-7-41 targetColor" d="M371.93,220.26s-5.1,13.8-6.08,14.8c-.98,1.01,9.82,7.11,9.82,7.11,0,0,7.06-13.41,6.76-19.23-.3-5.82-6.52-8.16-10.5-2.68Z" style="fill: rgb(104, 225, 253);"/><path class="cls-27_motivation-7-41" d="M375.65,240.3s-.38,4.45-5.82,4.36c-5.45-.08-24.24-.34-24.24-.34-1.65-.85-3.91-.99-5.14-2.38-.59-.68-.89-1.54-1.46-2.22-.77-.85-1.82-1.41-2.95-1.57-1.12-.16-2.25-.19-3.38-.09-.46-.53-.46-1.31,0-1.84.47-.49,1.09-.83,1.76-.95,2.78-.71,5.73-.29,8.21,1.16.71.51,1.49.93,2.32,1.22.61.13,1.23.16,1.85.11,6.99-.34,13.88-1.82,20.86-2.14,1.64-.16,3.29,0,4.86.51,1.65.81,2.81,2.36,3.13,4.17Z"/><rect class="cls-25_motivation-7-41" x="345.5" y="273.07" width="34" height="8.13" rx="1.34" ry="1.34"/><polygon class="cls-25_motivation-7-41" points="352.17 281.19 346.42 281.19 343.55 307.78 349.3 307.78 352.17 281.19"/><polygon class="cls-25_motivation-7-41" points="377.59 281.19 371.85 281.19 375.65 307.78 381.39 307.78 377.59 281.19"/><polygon class="cls-25_motivation-7-41" points="389.86 228.48 384.7 228.48 373.07 273.27 378.22 273.27 389.86 228.48"/><rect class="cls-26_motivation-7-41" x="294.29" y="241.78" width="3.43" height="62.9"/><rect class="cls-26_motivation-7-41" x="333.07" y="241.78" width="3.43" height="62.9"/><rect class="cls-28_motivation-7-41 targetColor" x="290.27" y="239.05" width="48.13" height="5.47" style="fill: rgb(104, 225, 253);"/></g><g id="coins_motivation-7-41"><circle class="cls-28_motivation-7-41 targetColor" cx="289.05" cy="284.41" r="8.68" style="fill: rgb(104, 225, 253);"/><circle class="cls-28_motivation-7-41 targetColor" cx="294.29" cy="163" r="7.03" style="fill: rgb(104, 225, 253);"/><circle class="cls-28_motivation-7-41 targetColor" cx="344.14" cy="166.71" r="7.03" style="fill: rgb(104, 225, 253);"/><circle class="cls-28_motivation-7-41 targetColor" cx="237.13" cy="204.28" r="4.07" style="fill: rgb(104, 225, 253);"/><circle class="cls-28_motivation-7-41 targetColor" cx="223" cy="221.62" r="4.07" style="fill: rgb(104, 225, 253);"/><circle class="cls-10_motivation-7-41" cx="223" cy="221.62" r="2.88"/><circle class="cls-28_motivation-7-41 targetColor" cx="228.98" cy="215.81" r="4.07" style="fill: rgb(104, 225, 253);"/><circle class="cls-28_motivation-7-41 targetColor" cx="246.15" cy="215.81" r="4.07" style="fill: rgb(104, 225, 253);"/><circle class="cls-28_motivation-7-41 targetColor" cx="253.15" cy="193.1" r="4.07" style="fill: rgb(104, 225, 253);"/><circle class="cls-28_motivation-7-41 targetColor" cx="269.4" cy="201.24" r="4.07" style="fill: rgb(104, 225, 253);"/><circle class="cls-28_motivation-7-41 targetColor" cx="263.67" cy="170.78" r="4.07" style="fill: rgb(104, 225, 253);"/><circle class="cls-28_motivation-7-41 targetColor" cx="403.35" cy="186.22" r="8.68" style="fill: rgb(104, 225, 253);"/><circle class="cls-8_motivation-7-41" cx="403.35" cy="186.22" r="6.78"/><circle class="cls-28_motivation-7-41 targetColor" cx="413.61" cy="275.73" r="8.68" style="fill: rgb(104, 225, 253);"/><circle class="cls-28_motivation-7-41 targetColor" cx="307.69" cy="194.9" r="8.68" style="fill: rgb(104, 225, 253);"/><circle class="cls-28_motivation-7-41 targetColor" cx="279.38" cy="236.04" r="8.68" style="fill: rgb(104, 225, 253);"/><circle class="cls-28_motivation-7-41 targetColor" cx="279.38" cy="236.04" r="8.68" style="fill: rgb(104, 225, 253);"/><circle class="cls-7_motivation-7-41" cx="279.38" cy="236.04" r="6.13"/><circle class="cls-12_motivation-7-41" cx="307.69" cy="194.9" r="6.13"/><circle class="cls-9_motivation-7-41" cx="344.14" cy="166.71" r="4.97"/><circle class="cls-15_motivation-7-41" cx="294.29" cy="163" r="4.97"/><circle class="cls-11_motivation-7-41" cx="289.05" cy="284.41" r="5.88"/><path class="cls-28_motivation-7-41 targetColor" d="M307.21,198.01s-.03,0-.04,0c-.19-.02-.33-.2-.31-.39.28-2.39.57-4.61.91-6.77.03-.19.2-.33.4-.29.19.03.32.21.29.4-.33,2.15-.63,4.36-.9,6.74-.02.18-.17.31-.35.31Z" style="fill: rgb(104, 225, 253);"/><path class="cls-28_motivation-7-41 targetColor" d="M306.94,197.46s-.03,0-.04,0c-.73-.04-1.29-.62-1.31-1.33,0-.19.15-.36.34-.36.19,0,.36.15.36.34.01.35.28.63.64.65.45,0,.85-.14,1.18-.42.11-.07.18-.14.23-.21,0-.02.02-.1.02-.18-.01-.5-.33-.93-.8-1.11-.08-.03-.18-.05-.27-.07-.31-.07-.69-.16-.93-.49-.13-.2-.2-.41-.22-.62-.05-.34-.03-.7.05-1.06.05-.27.18-.52.38-.73.34-.28.74-.39,1.13-.32,1.03.12,1.88.88,2.1,1.91.04.19-.08.38-.27.42-.19.04-.38-.08-.42-.27-.16-.73-.77-1.28-1.51-1.36-.21-.03-.41.02-.56.14-.06.07-.13.21-.16.36-.06.28-.08.56-.04.83.01.12.04.21.1.3.08.1.28.15.51.2.12.03.23.05.34.09.75.27,1.25.96,1.27,1.75,0,.19-.03.38-.11.55-.13.2-.27.34-.43.43-.42.34-.99.55-1.57.55Z" style="fill: rgb(104, 225, 253);"/><path class="cls-28_motivation-7-41 targetColor" d="M343.76,169.65s-.02,0-.03,0c-.16-.02-.28-.17-.26-.33.22-1.92.47-3.85.76-5.73.02-.16.18-.28.34-.25.16.02.27.18.25.34-.29,1.88-.54,3.8-.76,5.71-.02.15-.15.26-.29.26Z" style="fill: rgb(104, 225, 253);"/><path class="cls-28_motivation-7-41 targetColor" d="M343.56,169.2s-.03,0-.04,0c-.62-.02-1.11-.52-1.12-1.14,0-.16.13-.3.29-.3h0c.16,0,.29.13.3.29,0,.3.24.54.54.55.33,0,.72-.12,1.01-.35.1-.06.15-.11.19-.18,0-.03.02-.09.02-.15-.02-.43-.29-.8-.68-.95-.06-.02-.14-.04-.22-.06-.26-.06-.59-.14-.79-.42-.11-.16-.17-.34-.18-.53-.04-.28-.03-.59.04-.9.04-.23.16-.45.33-.63.29-.23.61-.31.93-.27.88.1,1.6.75,1.79,1.62.04.16-.07.32-.23.35-.16.04-.32-.07-.35-.23-.14-.62-.65-1.09-1.28-1.16-.17-.02-.33.02-.46.12-.06.06-.12.18-.14.31-.06.24-.07.48-.03.71,0,.1.03.18.08.25.07.1.24.14.44.18.1.02.19.04.28.07.64.24,1.06.82,1.08,1.48,0,.16-.03.33-.1.47-.11.17-.22.28-.36.37-.35.29-.83.46-1.33.46Z" style="fill: rgb(104, 225, 253);"/><path class="cls-28_motivation-7-41 targetColor" d="M402.87,189.71s-.02,0-.04,0c-.19-.02-.33-.19-.31-.38.24-2.38.59-4.74.91-6.77.03-.19.2-.33.4-.29.19.03.32.21.29.4-.31,2.02-.67,4.38-.9,6.74-.02.18-.17.32-.35.32Z" style="fill: rgb(104, 225, 253);"/><path class="cls-28_motivation-7-41 targetColor" d="M402.61,189.17h-.03c-.73-.05-1.29-.62-1.31-1.33,0-.19.14-.36.34-.36.2,0,.36.14.36.34.01.35.29.63.64.66.41,0,.84-.14,1.18-.42.11-.07.17-.13.21-.2.02-.04.04-.11.03-.18-.01-.5-.33-.94-.8-1.11-.08-.03-.18-.05-.27-.07-.31-.07-.69-.16-.93-.49-.13-.2-.2-.41-.22-.62-.05-.34-.04-.7.05-1.06.05-.26.18-.52.37-.73.35-.28.74-.39,1.13-.32,1.02.12,1.88.88,2.1,1.91.04.19-.08.38-.27.42-.19.04-.38-.08-.42-.27-.16-.73-.77-1.28-1.51-1.36-.2-.03-.41.02-.56.14-.06.07-.13.21-.16.36-.07.28-.08.56-.04.83,0,.12.04.22.09.3.08.11.28.15.51.21.12.03.23.05.34.09.75.26,1.25.97,1.27,1.75,0,.19-.04.38-.13.56-.11.18-.25.32-.41.42-.42.35-1,.55-1.59.55Z" style="fill: rgb(104, 225, 253);"/><circle class="cls-14_motivation-7-41" cx="413.61" cy="275.73" r="6.78"/><path class="cls-28_motivation-7-41 targetColor" d="M413.15,279.22s-.03,0-.04,0c-.19-.02-.33-.2-.31-.39.26-2.24.57-4.52.91-6.77.03-.19.2-.33.4-.29.19.03.32.21.29.4-.34,2.24-.64,4.51-.9,6.74-.02.18-.17.31-.35.31Z" style="fill: rgb(104, 225, 253);"/><path class="cls-28_motivation-7-41 targetColor" d="M412.87,278.68s-.02,0-.04,0c-.73-.03-1.3-.62-1.31-1.34,0-.19.15-.35.34-.36.23-.02.35.15.36.34,0,.35.28.63.63.65.38-.01.85-.14,1.19-.42.1-.07.17-.13.22-.21.01-.03.03-.11.03-.18-.01-.5-.33-.94-.8-1.11-.08-.03-.18-.05-.27-.07-.31-.07-.69-.16-.93-.49-.13-.2-.2-.4-.22-.61-.05-.35-.03-.71.05-1.07,0,0,0-.05.02-.09.07-.33.27-.61.55-.79.29-.18.62-.24.95-.17,1.01.11,1.86.88,2.08,1.9.04.19-.08.38-.27.42-.19.04-.38-.08-.42-.27-.16-.73-.77-1.28-1.51-1.36-.18-.04-.33-.01-.46.07-.13.08-.21.21-.25.35l-.02.09c-.06.27-.08.55-.04.83.01.11.05.21.1.29.08.1.28.15.51.21.12.03.23.05.34.09.75.27,1.25.96,1.27,1.75,0,.19-.04.39-.13.56-.12.19-.25.31-.41.42-.43.35-1,.55-1.59.55Z" style="fill: rgb(104, 225, 253);"/><path class="cls-28_motivation-7-41 targetColor" d="M293.83,166.49s-.02,0-.04,0c-.19-.02-.33-.19-.31-.38.24-2.38.59-4.74.91-6.78.03-.19.2-.33.4-.29.19.03.32.21.29.4-.31,2.02-.67,4.38-.9,6.74-.02.18-.17.32-.35.32Z" style="fill: rgb(104, 225, 253);"/><path class="cls-28_motivation-7-41 targetColor" d="M293.54,165.94h-.01c-.73-.04-1.3-.63-1.32-1.35,0-.19.15-.35.34-.36,0,0,0,0,0,0,.19,0,.35.15.35.35,0,.35.28.64.63.66.45-.02.85-.15,1.19-.42.11-.07.17-.13.21-.2.02-.04.04-.11.03-.19-.01-.49-.34-.94-.8-1.1-.08-.03-.18-.05-.27-.07-.31-.07-.69-.16-.93-.49-.13-.2-.2-.41-.22-.62-.05-.33-.04-.7.05-1.06.05-.27.18-.52.38-.73.35-.28.75-.38,1.13-.32,1.02.11,1.87.88,2.1,1.9.04.19-.08.38-.27.42-.19.04-.38-.08-.42-.27-.16-.73-.76-1.27-1.51-1.35-.21-.03-.41.02-.56.14-.06.07-.13.21-.16.36-.07.29-.08.56-.04.83,0,.12.04.22.09.3.08.11.28.15.51.21.12.03.23.05.34.09.74.26,1.25.96,1.27,1.74,0,.19-.04.39-.13.56-.12.19-.25.32-.42.42-.43.34-1.01.55-1.6.55Z" style="fill: rgb(104, 225, 253);"/><path class="cls-28_motivation-7-41 targetColor" d="M278.92,239.53s-.02,0-.04,0c-.19-.02-.33-.19-.31-.38.24-2.38.59-4.74.91-6.77.03-.19.2-.33.4-.29.19.03.32.21.29.4-.31,2.02-.67,4.38-.9,6.74-.02.18-.17.32-.35.32Z" style="fill: rgb(104, 225, 253);"/><path class="cls-28_motivation-7-41 targetColor" d="M278.64,238.99h-.03c-.72-.04-1.3-.62-1.31-1.34,0-.19.15-.35.34-.36.18,0,.36.15.36.34,0,.35.29.63.63.65.41.02.85-.14,1.19-.42.1-.07.17-.13.22-.21.02-.04.04-.11.03-.18-.01-.5-.33-.94-.8-1.11-.08-.03-.18-.05-.27-.07-.31-.07-.69-.16-.93-.49-.13-.2-.2-.4-.22-.61-.05-.35-.03-.72.05-1.07.05-.27.18-.53.38-.74.34-.27.73-.38,1.12-.31,1.03.11,1.88.88,2.1,1.91.04.19-.08.38-.27.42-.19.04-.38-.08-.42-.27-.16-.73-.77-1.28-1.51-1.36-.21-.03-.4.02-.55.14-.07.08-.14.21-.16.36-.07.29-.08.56-.04.84.01.11.05.21.1.29.08.1.28.15.51.21.12.03.23.05.34.09.75.26,1.25.97,1.27,1.75,0,.19-.04.39-.13.56-.12.18-.25.32-.41.42-.43.35-1,.55-1.59.55Z" style="fill: rgb(104, 225, 253);"/><path class="cls-28_motivation-7-41 targetColor" d="M289.79,288.15s-.03,0-.04,0c-.19-.02-.33-.2-.31-.39.28-2.38.57-4.59.91-6.77.03-.19.2-.33.4-.29.19.03.32.21.29.4-.33,2.17-.63,4.37-.91,6.74-.02.18-.17.31-.35.31Z" style="fill: rgb(104, 225, 253);"/><path class="cls-28_motivation-7-41 targetColor" d="M289.52,287.61s-.03,0-.04,0c-.73-.04-1.29-.62-1.31-1.33,0-.19.15-.36.34-.36.21.02.36.15.36.34.01.35.28.63.63.65.45.01.85-.14,1.18-.42.12-.07.18-.13.22-.2.01-.03.03-.11.02-.19-.01-.5-.33-.94-.8-1.11-.08-.03-.18-.05-.27-.07-.31-.07-.69-.16-.93-.49-.13-.2-.2-.41-.22-.62-.05-.34-.03-.71.06-1.07.04-.26.18-.52.38-.73.34-.27.74-.38,1.12-.32,1.03.12,1.88.88,2.1,1.91.04.19-.08.38-.27.42-.19.04-.38-.08-.42-.27-.16-.73-.77-1.28-1.51-1.36-.2-.03-.4.02-.55.14-.07.08-.14.21-.16.35-.07.29-.08.57-.05.84.01.12.04.22.1.3.08.1.28.15.51.2.12.03.23.05.34.09.75.27,1.25.96,1.27,1.75,0,.19-.03.38-.12.55-.13.2-.27.34-.43.43-.41.34-.98.54-1.57.54Z" style="fill: rgb(104, 225, 253);"/></g></svg>