<svg id="_0389_mountain" xmlns="http://www.w3.org/2000/svg" xmlns:xlink="http://www.w3.org/1999/xlink" viewBox="0 0 500 500" data-imageid="mountain-80" imageName="Mountain" class="illustrations_image" style="width: 166px;"><defs><style>.cls-1_mountain-80{clip-path:url(#clippath);}.cls-2_mountain-80{fill:none;}.cls-2_mountain-80,.cls-3_mountain-80,.cls-4_mountain-80,.cls-5_mountain-80,.cls-6_mountain-80,.cls-7_mountain-80,.cls-8_mountain-80,.cls-9_mountain-80,.cls-10_mountain-80,.cls-11_mountain-80,.cls-12_mountain-80,.cls-13_mountain-80,.cls-14_mountain-80,.cls-15_mountain-80,.cls-16_mountain-80,.cls-17_mountain-80,.cls-18_mountain-80,.cls-19_mountain-80,.cls-20_mountain-80,.cls-21_mountain-80,.cls-22_mountain-80,.cls-23_mountain-80,.cls-24_mountain-80,.cls-25_mountain-80,.cls-26_mountain-80,.cls-27_mountain-80,.cls-28_mountain-80,.cls-29_mountain-80,.cls-30_mountain-80{stroke-width:0px;}.cls-3_mountain-80{fill:url(#linear-gradient);}.cls-4_mountain-80{fill:url(#linear-gradient-25-mountain-80);}.cls-5_mountain-80{fill:url(#linear-gradient-11-mountain-80);}.cls-6_mountain-80{fill:url(#linear-gradient-12-mountain-80);}.cls-7_mountain-80{fill:url(#linear-gradient-13-mountain-80);}.cls-8_mountain-80{fill:url(#linear-gradient-10-mountain-80);}.cls-9_mountain-80{fill:url(#linear-gradient-17-mountain-80);}.cls-10_mountain-80{fill:url(#linear-gradient-16-mountain-80);}.cls-11_mountain-80{fill:url(#linear-gradient-19-mountain-80);}.cls-12_mountain-80{fill:url(#linear-gradient-15-mountain-80);}.cls-13_mountain-80{fill:url(#linear-gradient-23-mountain-80);}.cls-14_mountain-80{fill:url(#linear-gradient-21-mountain-80);}.cls-15_mountain-80{fill:url(#linear-gradient-18-mountain-80);}.cls-16_mountain-80{fill:url(#linear-gradient-14-mountain-80);}.cls-17_mountain-80{fill:url(#linear-gradient-22-mountain-80);}.cls-18_mountain-80{fill:url(#linear-gradient-20-mountain-80);}.cls-19_mountain-80{fill:url(#linear-gradient-24-mountain-80);}.cls-20_mountain-80{fill:url(#linear-gradient-26-mountain-80);}.cls-21_mountain-80{isolation:isolate;opacity:.42;}.cls-21_mountain-80,.cls-30_mountain-80{fill:#68e1fd;}.cls-31_mountain-80{opacity:.58;}.cls-22_mountain-80{fill:url(#linear-gradient-4-mountain-80);}.cls-23_mountain-80{fill:url(#linear-gradient-2-mountain-80);}.cls-24_mountain-80{fill:url(#linear-gradient-3-mountain-80);}.cls-25_mountain-80{fill:url(#linear-gradient-8-mountain-80);}.cls-26_mountain-80{fill:url(#linear-gradient-9-mountain-80);}.cls-27_mountain-80{fill:url(#linear-gradient-7-mountain-80);}.cls-28_mountain-80{fill:url(#linear-gradient-5-mountain-80);}.cls-29_mountain-80{fill:url(#linear-gradient-6-mountain-80);}</style><clipPath id="clippath_mountain-80"><path class="cls-2_mountain-80" d="M83.22,118.95c-18.99,27.35-38.29,55.37-46.64,87.14-9.44,35.87-4.16,73.59,1.18,110.24,3.84,26.42,7.87,53.48,21.2,76.99,17.46,30.86,49.44,52.5,83.83,65.35,34.39,12.85,71.4,17.67,108.05,22.05,24.39,2.91,49.92,5.55,72.93-2.62,28.7-10.22,48.25-35.38,63.35-60.67,29.88-49.92,49-105.53,56.13-163.26,4.25-35,3.61-71.95-13.12-103.38-15.31-28.74-42.46-49.97-69.36-69.65-45-32.94-97.56-61.18-156.35-60.48-54.46.68-94.83,60.27-121.21,98.29Z"/></clipPath><linearGradient id="linear-gradient-mountain-80" x1="212.91" y1="141.13" x2="344.97" y2="445.63" gradientUnits="userSpaceOnUse"><stop offset="0" stop-color="#231f20" stop-opacity="0"/><stop offset="1" stop-color="#231f20"/></linearGradient><linearGradient id="linear-gradient-2-mountain-80" x1="198.06" y1="140.69" x2="242.36" y2="392.85" xlink:href="#linear-gradient-mountain-80"/><linearGradient id="linear-gradient-3-mountain-80" x1="230.42" y1="167.1" x2="-137.07" y2="503.31" xlink:href="#linear-gradient-mountain-80"/><linearGradient id="linear-gradient-4-mountain-80" x1="79.65" y1="161.5" x2="123.96" y2="413.66" xlink:href="#linear-gradient-mountain-80"/><linearGradient id="linear-gradient-5-mountain-80" x1="735.26" y1="2106.42" x2="1369.82" y2="1872.4" gradientTransform="translate(-481.61 2318.52) scale(1 -1)" xlink:href="#linear-gradient-mountain-80"/><linearGradient id="linear-gradient-6-mountain-80" x1="733.73" y1="1908.23" x2="952.17" y2="2092.73" gradientTransform="translate(-481.61 2318.52) scale(1 -1)" xlink:href="#linear-gradient-mountain-80"/><linearGradient id="linear-gradient-7-mountain-80" x1="488.48" y1="2104.88" x2="686.58" y2="1722.38" gradientTransform="translate(-481.61 2318.52) scale(1 -1)" xlink:href="#linear-gradient-mountain-80"/><linearGradient id="linear-gradient-8-mountain-80" x1="686.54" y1="1924.51" x2="318.57" y2="2043.62" gradientTransform="translate(-481.61 2318.52) scale(1 -1)" xlink:href="#linear-gradient-mountain-80"/><linearGradient id="linear-gradient-9-mountain-80" x1="473.91" y1="1995.16" x2="1220.22" y2="1704.06" gradientTransform="translate(-481.61 2318.52) scale(1 -1)" xlink:href="#linear-gradient-mountain-80"/><linearGradient id="linear-gradient-10-mountain-80" x1="840.36" y1="1895.08" x2="843.18" y2="1882.96" gradientTransform="translate(-481.61 2318.52) scale(1 -1)" xlink:href="#linear-gradient-mountain-80"/><linearGradient id="linear-gradient-11-mountain-80" x1="600.67" y1="2034.79" x2="995.07" y2="1719.02" gradientTransform="translate(-481.61 2318.52) scale(1 -1)" xlink:href="#linear-gradient-mountain-80"/><linearGradient id="linear-gradient-12-mountain-80" x1="712.52" y1="2074.62" x2="715.48" y2="2031.25" gradientTransform="translate(-481.61 2318.52) scale(1 -1)" xlink:href="#linear-gradient-mountain-80"/><linearGradient id="linear-gradient-13-mountain-80" x1="440.54" y1="1965.24" x2="873.53" y2="1871.34" gradientTransform="translate(-481.61 2318.52) scale(1 -1)" xlink:href="#linear-gradient-mountain-80"/><linearGradient id="linear-gradient-14-mountain-80" x1="99.4" y1="109.71" x2="210.37" y2="109.71" gradientUnits="userSpaceOnUse"><stop offset=".02" stop-color="#fff" stop-opacity="0"/><stop offset=".58" stop-color="#fff" stop-opacity=".39"/><stop offset=".68" stop-color="#fff" stop-opacity=".68"/><stop offset="1" stop-color="#fff"/></linearGradient><linearGradient id="linear-gradient-15-mountain-80" x1="791.24" y1="2189.18" x2="760.46" y2="2235.98" gradientTransform="translate(-481.61 2318.52) scale(1 -1)" xlink:href="#linear-gradient-14-mountain-80"/><linearGradient id="linear-gradient-16-mountain-80" x1="762.04" y1="2126.9" x2="771.43" y2="2193.58" gradientTransform="translate(-481.61 2318.52) scale(1 -1)" xlink:href="#linear-gradient-14-mountain-80"/><linearGradient id="linear-gradient-17-mountain-80" x1="230.55" y1="195.02" x2="230.33" y2="206.97" xlink:href="#linear-gradient-mountain-80"/><linearGradient id="linear-gradient-18-mountain-80" x1="231.38" y1="210.49" x2="231.59" y2="243.5" xlink:href="#linear-gradient-mountain-80"/><linearGradient id="linear-gradient-19-mountain-80" x1="700.42" y1="2102.24" x2="722.22" y2="2099.48" gradientTransform="translate(-481.61 2318.52) scale(1 -1)" xlink:href="#linear-gradient-mountain-80"/><linearGradient id="linear-gradient-20-mountain-80" x1="221.44" y1="210.13" x2="221.68" y2="231.79" xlink:href="#linear-gradient-mountain-80"/><linearGradient id="linear-gradient-21-mountain-80" x1="239.1" y1="209.93" x2="239.34" y2="231.59" xlink:href="#linear-gradient-mountain-80"/><linearGradient id="linear-gradient-22-mountain-80" x1="728.08" y1="2107.38" x2="694.8" y2="2099.98" gradientTransform="translate(-481.61 2318.52) scale(1 -1)" xlink:href="#linear-gradient-mountain-80"/><linearGradient id="linear-gradient-23-mountain-80" x1="713" y1="2103.74" x2="720.87" y2="2001.48" gradientTransform="translate(-481.61 2318.52) scale(1 -1)" xlink:href="#linear-gradient-mountain-80"/><linearGradient id="linear-gradient-24-mountain-80" x1="712" y1="2116.84" x2="711.79" y2="2076.83" gradientTransform="translate(-481.61 2318.52) scale(1 -1)" xlink:href="#linear-gradient-mountain-80"/><linearGradient id="linear-gradient-25-mountain-80" x1="230.08" y1="248.52" x2="229.18" y2="255.45" xlink:href="#linear-gradient-mountain-80"/><linearGradient id="linear-gradient-26-mountain-80" x1="235.94" y1="249.28" x2="235.04" y2="256.2" xlink:href="#linear-gradient-mountain-80"/></defs><g id="background_mountain-80"><g class="cls-1_mountain-80"><rect class="cls-21_mountain-80 targetColor" x="6.89" y="6.08" width="473.87" height="323.81" style="fill: rgb(104, 225, 253);"/><path class="cls-30_mountain-80 targetColor" d="M272.26,303.67c-18.02,1.96-41.74-7.77-58.42,1.2-23.02,12.38-50.64,18.39-77.69,24.17l-31.36,6.72c-5.25,1.12-10.94,2.23-16.02.72-3.87-1.16-6.75-3.66-9.47-6.08-15.45-13.74-31.36-28.13-37.53-45.69-2.87-8.19-3.49-16.73-4.08-25.2-.62-8.87-1.21-17.78,1.42-26.36,1.78-5.81,5.01-11.27,8.21-16.71l32.89-55.69c10.12-17.13,20.29-34.36,34.29-49.8,5.47-6.03,11.51-11.76,17.78-17.33,4.51-4.02,9.14-7.94,13.77-11.85,4.91-4.12,10.66-8.52,17.91-8.69,3.51-.09,6.62.79,9.37,2.27,1.84.98,3.52,2.23,5.06,3.65,3.04,2.79,5.52,6.19,7.57,9.39,9.63,14.99,17.13,30.47,24.41,46.01,6.57,14.05,12.98,28.15,20.62,42.01,2.15,3.9,4.33,7.92,4.78,12.3.76,7.44-3.11,16.5,2.72,21.55.69.59,1.47,1.09,2.3,1.48,2.29,1.11,4.96,1.63,7.35,2.65,9.33,3.79,13.45,13.87,19.12,21.87,6.77,9.52,16.68,16.86,22.8,26.75,9.87,15.82,2.13,38.5-17.8,40.66Z" style="fill: rgb(104, 225, 253);"/><path class="cls-3_mountain-80" d="M239.77,218.68c-2.22-2.11-4.24-4.42-6.05-6.89-2.52-3.64-4.06-7.8-5.58-11.9l-17.63-47.59c5.98,17.09,9.36,34.98,10.04,53.07.22,5.86.17,11.89,2.43,17.35,3.36,8.15,11.21,13.72,18.69,18.84,2.21,1.59,4.54,3.03,6.95,4.3,2,.84,3.93,1.86,5.76,3.04,3.5,2.62,5.06,6.82,6.82,10.68,4.62,9.96,11.53,18.7,20.17,25.48,2.76-4.18,11.96-13.56,11.09-18.68-.82-4.83-13.49-11.95-17.36-15.21-12.27-10.33-24.04-21.16-35.32-32.5Z"/><path class="cls-23_mountain-80" d="M254.05,263.56c-5.91-7.22-12.84-15.01-22.42-16.09l2.93,8.02c-8.16-7.24-15.75-15.75-18.37-26.04-1.75-6.86-1.09-14-1.46-21.08-1.48-27.83-18.37-52.5-34.73-75.68-3.25,11.59,3.2,23.35,7.69,34.57,5.25,13.17,8,27.21,8.1,41.38-5.96-5.03-10.44-11.58-12.98-18.95l-5.14,10.81c-5.79-5.63-7.12-14-8.15-21.82l-7.63-57.75c-5.09,17.34-7.45,35.37-7,53.43-.03,3.84.48,7.67,1.53,11.37,3.69,11.37,15.98,19.14,18.43,30.82,1.06,5,.16,10.25,1.33,15.24.83,3.5,2.62,6.75,4.15,10.07,6.41,14.31,6.62,30.75,14,44.62.51,1.18,1.36,2.2,2.43,2.91.94.44,1.95.7,2.98.74l12.13,1.39c-2.25-5.58-3.93-11.37-5.04-17.29,4.5-.64,8.98,1.29,11.6,5,1.25,1.88,1.88,4.09,3.18,5.93,1.29,1.85,3.67,3.35,5.91,2.68,1.04-.45,2.03-1.01,2.94-1.69,4.3-2.49,10.11-.24,13.46,3.33,3.34,3.58,5.09,8.22,7.81,12.25s7.11,7.7,12.14,7.31c5.41-6.85,13.55-14.73,8.86-22.66-4.74-8.06-12.66-15.5-18.7-22.84Z"/><path class="cls-24_mountain-80" d="M210.03,340.77c-5.57,15.92-18.92,29.35-35.58,38.75-21.97,12.37-19.6-51.3-45.42-45.5l-29.93,6.7c-5,1.12-10.45,2.23-15.29.73-3.69-1.15-6.44-3.67-9.03-6.08-14.76-13.75-29.92-28.14-35.83-45.68-2.75-8.19-3.32-16.74-3.91-25.21-.27-4.15-.55-8.33-.5-12.47-.03-4.7.6-9.38,1.86-13.9,1.71-5.8,4.78-11.27,7.87-16.69,10.46-18.57,20.92-37.12,31.39-55.66,7.68-13.68,15.39-27.34,24.94-40.14,2.46-3.28,5.02-6.51,7.74-9.62,8.99-10.41,19.5-19.89,30.12-29.22,4.69-4.12,10.17-8.52,17.09-8.7,10.01-.26-12.17,77.76-7.73,84.99,11.93,19.48,23.96,39.18,29.91,60.37,6.71,23.89,5.59,49.41,17.65,71.9,8.74,16.31,21.02,27.2,14.63,45.44Z"/><path class="cls-22_mountain-80" d="M138.47,312.19l-18.9-12.8c-18.01,2.05-34.32-9.56-47.53-21.34-11.37-10.11-23.03-21.36-37.46-26-.03-4.7.6-9.38,1.86-13.9,1.71-5.8,4.78-11.27,7.87-16.69,10.46-18.57,20.92-37.12,31.39-55.66,7.64-13.71,15.35-27.38,24.9-40.18,7.15-7.32,14.42-14.5,21.62-21.54.8-.95,1.9-1.61,3.11-1.86,2.08-.21,3.61,1.75,4.46,3.62,7.38,15.92-1.04,33.92-5.13,50.87-5.1,21.48-3.04,44.04,5.87,64.24,2.78,6.29,6.28,12.61,6.3,19.42,0,5.33-2.1,10.41-3.65,15.53-5.57,18.74-3.68,38.92,5.27,56.3Z"/><path class="cls-30_mountain-80 targetColor" d="M319.15,192.05c13.8-27.75,25.54-56.47,35.14-85.94.96-2.93,2-6.04,4.44-8.05,3.21-2.62,12.15-40.42,16.31-39.56,19.36,3.99,51-.96,59.89,15.82,6.76,12.76,29.56,72.84,36.33,85.6,3.32,6.26,7.87,47.25,9.82,53.97,2.27,8.01,2.36,34.52,1.97,42.81-1.28,26.77,2.19,37.57-.99,64.2-1.65,13.89-19.51,29.14-22.58,42.8-3.23,14.39-44.54,3.46-49.87,17.29-8.43,21.79-14.82,44.31-19.09,67.27-.32,1.75-.76,3.77-2.34,4.79-2.55,1.64-5.9-.39-8.19-2.34-34.12-28.94-65.12-61.37-92.48-96.76-7.19-9.33-14.22-19.01-17.95-30.01-3.54-10.44-5.86-25.02-3.78-35.93,1.92-10.04,10.97-20.29,16.27-29.14,13.05-21.91,25.79-44.04,37.12-66.81Z" style="fill: rgb(104, 225, 253);"/><path class="cls-28_mountain-80" d="M319.15,192.05c13.8-27.75,25.54-56.47,35.14-85.94.96-2.93,2-6.04,4.44-8.05,3.21-2.62,10.19-34.84,14.35-33.98,19.36,4.01,19.58,8.38,28.47,25.12,6.76,12.77,34.47,14.23,41.24,26.98,3.32,6.26,16.73,44.43,18.65,51.18,2.27,8.01,27.88,44.75,27.49,53.04-1.28,26.77-28.24,66.42-31.42,93.05-1.65,13.89-30.26,11.97-33.33,25.64-3.23,14.39-9.26,28.06-14.55,41.89-8.43,21.79-14.82,44.31-19.09,67.27-.32,1.75-.76,3.77-2.34,4.79-2.55,1.64-5.9-.39-8.19-2.34-34.13-28.93-65.14-61.36-92.52-96.76-7.19-9.33-14.22-19.01-17.95-30.01-3.54-10.44-5.86-25.02-3.78-35.93,1.92-10.04,10.97-20.29,16.27-29.14,13.05-21.91,25.79-44.04,37.12-66.81Z"/><path class="cls-29_mountain-80" d="M306.65,217.61c.11,28.67,13.12,55.28.5,81.37-1.52,3.12-3.16,6.56-2.22,9.89,1.08,3.82,5.12,6.05,8.23,8.67,5.03,4.22,8.12,10.32,8.54,16.88,7.16-14.45,16.48-27.72,27.62-39.37,4.37,17.11-14.83,33.83-10.37,50.93,1.97,7.54,8.19,13.31,14.14,18.64l25.99,23.29c4.65-6.17,10.86-11,17.99-14,10.08,25.37-5.07,52.95-19.72,76.26-1.01,1.6-2.16,3.32-4.03,3.9-3.26,1.01-6.28-1.93-8.33-4.55l-51.7-66.32c-15.75-20.24-37.7-42.87-46.53-66.97-14.42-39.27,29.42-72.57,39.9-98.62Z"/><path class="cls-30_mountain-80 targetColor" d="M45.35,240.15c1.54.42,3.16.47,4.72.15,1.27-.47,2.43-1.2,3.4-2.13l13.78-11.61c.93-.78,2.01-1.6,3.24-1.47.93.18,1.77.68,2.35,1.43,4.85,5.19,5.87,13.06,11.19,17.83,6.02,5.42,16.78,6.34,19.59,13.75.87,2.31.74,4.84.81,7.3.36,11.87,5.95,23.19,13.56,32.63,7.61,9.44,17.2,17.26,26.7,25.01-2.02,22.5-19.83,40.63-37.76,55.51-17.14,14.21-35.57,27.41-56.49,35.96-5.72,2.34-11.71,4.37-16.62,8l.31-38.66c.19-24.28.38-48.57.19-72.86-.18-23.62-4.21-49.25-1.75-72.66,3.93-.48,8.77,1.08,12.77,1.85Z" style="fill: rgb(104, 225, 253);"/><path class="cls-27_mountain-80" d="M45.35,240.15c1.54.42,3.16.47,4.72.15,1.27-.47,2.43-1.2,3.4-2.13l13.78-11.61c.93-.78,2.01-1.6,3.24-1.47.93.18,1.77.68,2.35,1.43,4.85,5.19,5.87,13.06,11.19,17.83,6.02,5.42,16.78,6.34,19.59,13.75.87,2.31.74,4.84.81,7.3.36,11.87,5.95,23.19,13.56,32.63,7.61,9.44,17.2,17.26,26.7,25.01-2.02,22.5-19.83,40.63-37.76,55.51-17.14,14.21-35.57,27.41-56.49,35.96-5.72,2.34-11.71,4.37-16.62,8l.31-38.66c.19-24.28.38-48.57.19-72.86-.18-23.62-4.21-49.25-1.75-72.66,3.93-.48,8.77,1.08,12.77,1.85Z"/><path class="cls-25_mountain-80" d="M102.06,286.18c-.16,11.67,2.42,23.22,7.53,33.71-2.69,1.02-5.8-.76-7.17-3.17s-1.5-5.25-1.75-7.97c-1.95-22.51-14.69-43.98-33.97-57.26-2.76,3.04-1.82,8.39,1.83,10.42l-11.57-8.28-3.96,5.13-13.58-5.7c-1.34,10.52-1.71,21.13-1.09,31.72-.04,1.14.26,2.26.87,3.22,2.54,3.19,7.42-.87,11.52-1.75,5.64-1.25,10.67,6.4,7,10.65-.73-4.67-7.24-7.49-11.44-4.96-3.73,2.26-4.6,7-5.11,11.14-5.31,44.18-7.94,88.64-7.87,133.13,30.55-19.84,58.03-44.02,81.6-71.8,9.53-11.26,19.55-22.55,10.69-36.11-7.1-10.94-23.72-28.49-23.52-42.13Z"/><path class="cls-30_mountain-80 targetColor" d="M382.72,446.51s-98.18-117.24-112.87-147.95c-14.69-30.71-37.31-42.8-37.31-42.8,0,0,11.79-16.75-23.56,5.58-35.35,22.33-67.74,49.32-67.74,49.32l-41.27,53.97-68.73,61.42s-5.89,79.09,16.69,86.53c22.58,7.44,330.86,3.41,330.86,3.41l3.92-69.48Z" style="fill: rgb(104, 225, 253);"/><path class="cls-26_mountain-80" d="M382.72,446.51l-1.01,17.6-2.93,51.88s-14.11.18-36.52.4l-10.69.09h-2.11l-17.36.14c-14.68.12-31,.23-48.12.31-17.39.07-35.62.13-53.79.11-76.12,0-151.52-.95-162.26-4.49-22.58-7.45-16.69-86.55-16.69-86.55l4.45-3.97,64.29-57.41,6.4-8.38,28.1-36.75,6.73-8.81s32.37-26.98,67.74-49.32c35.36-22.34,23.56-5.57,23.56-5.57,0,0,22.58,12.09,37.31,42.79,14.73,30.7,112.9,147.93,112.9,147.93Z"/><path class="cls-8_mountain-80" d="M358.08,424.95c1.64,2.45,2.95,5.12,3.89,7.92-1.56-2.5-2.86-5.16-3.89-7.92Z"/><path class="cls-5_mountain-80" d="M381.7,464.11l-2.93,51.88s-14.11.18-36.52.4c-.08-5.25.59-10.56.3-15.84-1.24-23-19.91-41-31.72-61.32,4.58,11.19,9.18,22.39,13.78,33.58,2.24,5.48,4.51,11.03,5.07,16.88.87,8.99-2.12,18.9,1.86,26.79.33.68.72,1.33,1.15,1.95-1.13-.59-2.2-1.24-3.25-1.92-15.44-10.04-22.54-28.7-28.43-45.88,3.68,15.35,7.37,30.69,11.07,46.02-14.68.12-31,.23-48.12.31-2.2-18.72-2.78-38.73-2.78-57.38-2.1-39.37-4.22-78.79-10.29-117.77-4.54-28.54-10.82-56.77-18.8-84.55,8.75,5.42,13.55,14.94,16.98,24.28,2.55,7,4.56,14.11,6.55,21.24,2.33,8.33,4.67,16.65,7,24.97,7.66,27.21,15.3,54.42,22.93,81.64,2.68-15.99-2.32-32.12-7.24-47.61-6.74-21.11-13.47-42.22-20.19-63.34,11.76,14.91,21.52,31.29,29.02,48.73l-9.97-23.95c20.02,21.05,18.37,53.06,29.13,79.48,7.07,17.27,19.67,32.25,34.85,43.92-13.72-31.14-27.43-62.28-41.12-93.43,25.51,32.7,45.33,69.47,58.62,108.75,5.43-8.69,6.69-19.35,3.43-29.07,6.07,10.03,15.24,18.65,19.19,29.64.12.5.3,1.01.45,1.56Z"/><path class="cls-6_mountain-80" d="M219.37,258.14c-.47.6-.78,1.69,0,1.94.27.07.55.05.8-.05,1.29-.36,2.56-.8,3.8-1.33,1.01-.43,2.16-.93,3.18-.52,1.8.73,1.61,3.54,3.34,4.37,1.1.54,2.42,0,3.5-.48,1.55,2.44,3.55,4.55,5.91,6.23.78.67,1.78,1.06,2.81,1.09,1.99-.11,3.04-2.44,2.71-4.3-.32-1.85-1.5-3.5-2.07-5.25-.46-1.5-.52-3.15-1.4-4.47-1.22-1.83-3.65-2.52-5.9-2.9-2.8-.46-6.67-1.23-9.41-.23s-5.51,3.6-7.28,5.88Z"/><path class="cls-7_mountain-80" d="M220.38,506.68c-2.86,3.95-6.28,7.45-10.17,10.39-76.12,0-151.52-.95-162.26-4.49-22.58-7.45-16.69-86.55-16.69-86.55l4.45-3.97c21.52-16.37,43.68-32.22,60.7-52.72,3.5-4.23,6.79-8.64,9.97-13.12,6.23-8.75,12.13-17.73,18.85-26.14,2.92-3.67,6-7.21,9.25-10.63,22.73-23.85,51.43-41.16,83.12-50.15,9.62,35.13-10.4,71.31-10.66,107.62-.24,36.96,37.32,96.13,13.42,129.76Z"/><path class="cls-16_mountain-80" d="M210.37,134.4c-1.02.41-2.18.55-3.26.38-2.65-.42-4.82-2.21-6.67-4.05l-5.25,5.31c-3.39-2.76-9.07-5.36-11.57-1.75-2.5,3.6,2.46,8.89,0,12.53l-13.02-13.44c-1.97,3.73-6.08,5.83-10.26,5.25-4.13-.65-7.36-3.88-8.02-8-4.28,2.6-8.04,5.97-11.12,9.92-.92-5.32-1.84-10.65-2.77-15.97-2.29,3.56-1.35,8.36-3.65,11.9-3.5,5.38-11.85,4.78-18.37,3.5.71-2.26.63-4.7-.21-6.92,3.66-1.89,7.64-3.11,11.74-3.59.76-2.71.96-5.54.58-8.32-1.48,1.6-3.5,2.59-5.66,2.8,3.24-4.23,4.18-9.8,2.51-14.87.14,7.2-6.84,12.48-13.12,16.54l-12.85,8.31c7.81-5.04,19.51-24.61,32.88-40.31,12.81-15.05,27.15-26.54,41.05-18.27.31.18.61.37.92.57,1.23.81,2.7,1.89,4.14,3.08,3.04,2.79,5.52,6.19,7.57,9.39,9.63,14.99,17.13,30.47,24.41,46.01Z"/></g><path class="cls-12_mountain-80" d="M301.98,87.67c-4.7,3.67-8.9,8.09-14.45,10.45-5.99,2.55-13.5,2.72-19.96,2.13-6.68-.61-12.75-4.16-19.76-3.39-6.07.67-12.13,5.25-11.93,11.06-5.56-1.08-10.86,4.65-10.02,9.97.84,5.32,6.44,9.2,12.1,9.55,5.45.33,10.68-1.98,16.11-2.48.77-.12,1.55-.06,2.28.19,1.37.56,1.92,2.08,2.69,3.29,2.58,4.06,8.24,5.08,13.24,5.34,5.98.3,9.33,1.08,14,3.98s9.02,3.05,14.37.87,10.39-5.56,16.13-5.34c6.52.25,12.55,5.25,18.92,3.85,1.66-14.87,27.67-43.04,19.25-56.3-9.78-15.43-43.08-.92-52.97,6.82Z"/><path class="cls-10_mountain-80" d="M325.61,112.55c-8.04-2.55-17.44-1.36-24.1,3.6-6.66,4.97-10.07,13.76-7.78,21.49-5.98-1.34-12.08-2.69-18.21-2.16s-12.36,3.31-15.33,8.41c-1.71,2.94-2.78,6.93-6.23,7.7-1.57.35-3.18-.13-4.76-.46-3.57-.76-7.27-.76-10.84,0-3.19.68-6.59,2.35-7.4,5.35-.81,3,1.5,6.22,4.49,7.6s6.43,1.41,9.75,1.41h36.89c1.54-.12,3.09.13,4.51.73,1.7.87,2.62,2.74,4.13,3.89,3.07,2.34,7.55,1.36,11.31.28l15.24-4.37c4.69-1.35,10.5-4.62,8.99-9.04-.44-1.27-1.5-2.38-1.49-3.72.04-2.62,3.62-3.41,6.27-4.1,5.99-1.58,10.74-6.76,11.57-12.61,1.15-8.25-8.91-21.43-17.03-24Z"/></g><g id="character_mountain-80"><path class="cls-30_mountain-80 targetColor" d="M226.22,199.13c-.32.32-.57.7-.75,1.12-.38,1.04.24,2.14.83,3.09.51,1.03,1.34,1.86,2.36,2.39.56.19,1.16.27,1.75.24,1.18,0,2.35-.15,3.5-.43.22-.03.42-.13.59-.27.11-.14.19-.31.23-.49.38-1.39.64-2.8.79-4.23.09-.56.06-1.13-.08-1.68-.48-.98-1.28-1.77-2.28-2.21-1.1-.64-2.79-2.1-4.02-1.19-1.08.8-2.02,2.63-2.9,3.67Z" style="fill: rgb(104, 225, 253);"/><path class="cls-9_mountain-80" d="M226.22,199.13c-.32.32-.57.7-.75,1.12-.38,1.04.24,2.14.83,3.09.51,1.03,1.34,1.86,2.36,2.39.56.19,1.16.27,1.75.24,1.18,0,2.35-.15,3.5-.43.22-.03.42-.13.59-.27.11-.14.19-.31.23-.49.38-1.39.64-2.8.79-4.23.09-.56.06-1.13-.08-1.68-.48-.98-1.28-1.77-2.28-2.21-1.1-.64-2.79-2.1-4.02-1.19-1.08.8-2.02,2.63-2.9,3.67Z"/><path class="cls-30_mountain-80 targetColor" d="M221.49,214.63l-1.53,6.47c-.4,1.75-.66,3.89.82,4.98.5.39,1.18.46,1.75.17.42-.37.66-.9.66-1.46l.47-3.09c.16-1.32.43-2.63.82-3.9.36-1.07.87-2.08,1.27-3.14.51-1.4,2.14-7.35-.67-7.36-2.41,0-3.2,5.7-3.6,7.33Z" style="fill: rgb(104, 225, 253);"/><path class="cls-30_mountain-80 targetColor" d="M220.42,229.76c.06.47.27.92.59,1.27.36.35.92.4,1.33.1.28-.33.35-.79.2-1.2-.16-.39-.19-.83-.1-1.24.13-.32.43-.55.59-.87.09-.19.14-.4.14-.61,0-.92-1.18-2.84-2.37-2.1s-.59,3.67-.38,4.65Z" style="fill: rgb(104, 225, 253);"/><path class="cls-30_mountain-80 targetColor" d="M237.34,208.17l.45.73c.42.7.75,1.44.99,2.22.41.93.93,1.81,1.55,2.62.44.56.71,1.23.78,1.94-.1.77-.43,1.5-.93,2.09-.6.91-1.12,1.88-1.56,2.88-.38.87-.66,1.97-.07,2.74.59.77,2.14.81,3.05.17.84-.71,1.47-1.63,1.83-2.67.77-1.75,1.55-3.5,1.38-5.39-.15-1.02-.45-2-.87-2.94-.68-2.11-1.66-4.12-2.9-5.96-1.14-1.5-3.8-2.26-5.63-2.8.29,1.59.95,3.08,1.93,4.37Z" style="fill: rgb(104, 225, 253);"/><path class="cls-30_mountain-80 targetColor" d="M238.51,223.11c-.47.18-.8.6-.87,1.09,0,.56.59,1.02.52,1.58,0,.27-.21.52-.19.8.09.38.45.63.83.59.38-.04.73-.22.99-.5.87-.8,1.26-2,1.03-3.17-.32-1.56-1.25-.94-2.31-.39Z" style="fill: rgb(104, 225, 253);"/><path class="cls-30_mountain-80 targetColor" d="M224.26,226.89c.16,3.24.34,6.49.54,9.74.03,1.26.2,2.52.49,3.75.47,1.41,1.03,2.79,1.66,4.14.88,2.2,1.33,4.55,1.3,6.92.03.42-.05.84-.24,1.22-.18.31-.51.55-.59.87-.16.61.54,1.17,1.2,1.16.65-.07,1.26-.34,1.75-.77.43-.29.82-.64,1.16-1.04.69-.97.94-2.18.68-3.34-.26-1.14-.59-2.27-1.01-3.36-1.48-4.9-.72-10.19,2.06-14.48.47,8.53.24,17.08-.66,25.57-.08.45-.07.92.04,1.36.13.48.53.82,1.02.87.33-.02.64-.12.92-.31l1.81-1.01c.28-.12.52-.32.69-.57.27-.49-.05-1.07-.21-1.6-.13-.57-.16-1.17-.09-1.75l1.87-28.08c.08-.63.05-1.26-.1-1.88-.48-1.25-1.56-2.18-2.87-2.45-1.32-.28-2.68-.3-4.01-.07-1.83.23-4.28.36-5.95,1.15-1.53.66-1.53,2.48-1.49,3.95Z" style="fill: rgb(104, 225, 253);"/><path class="cls-15_mountain-80" d="M224.26,226.89c.16,3.24.34,6.49.54,9.74.03,1.26.2,2.52.49,3.75.47,1.41,1.03,2.79,1.66,4.14.88,2.2,1.33,4.55,1.3,6.92.03.42-.05.84-.24,1.22-.18.31-.51.55-.59.87-.16.61.54,1.17,1.2,1.16.65-.07,1.26-.34,1.75-.77.43-.29.82-.64,1.16-1.04.69-.97.94-2.18.68-3.34-.26-1.14-.59-2.27-1.01-3.36-1.48-4.9-.72-10.19,2.06-14.48.47,8.53.24,17.08-.66,25.57-.08.45-.07.92.04,1.36.13.48.53.82,1.02.87.33-.02.64-.12.92-.31l1.81-1.01c.28-.12.52-.32.69-.57.27-.49-.05-1.07-.21-1.6-.13-.57-.16-1.17-.09-1.75l1.87-28.08c.08-.63.05-1.26-.1-1.88-.48-1.25-1.56-2.18-2.87-2.45-1.32-.28-2.68-.3-4.01-.07-1.83.23-4.28.36-5.95,1.15-1.53.66-1.53,2.48-1.49,3.95Z"/><path class="cls-30_mountain-80 targetColor" d="M224.78,218.8c.21,1.39.58,2.9,1.75,3.75.97.58,2.07.88,3.2.87,1.75.13,3.68.16,5.25-.73,2.13-1.22,2.88-3.77,3.17-6.12.42-3.35.28-6.76-.44-10.06-.97-4.48-7.38-3.77-10.8-2.35-4.2,1.72-2.7,11.11-2.13,14.64Z" style="fill: rgb(104, 225, 253);"/><g class="cls-31_mountain-80"><path class="cls-11_mountain-80" d="M221.49,214.63l-1.53,6.47c-.4,1.75-.66,3.89.82,4.98.5.39,1.18.46,1.75.17.42-.37.66-.9.66-1.46l.47-3.09c.16-1.32.43-2.63.82-3.9.36-1.07.87-2.08,1.27-3.14.51-1.4,2.14-7.35-.67-7.36-2.41,0-3.2,5.7-3.6,7.33Z"/><path class="cls-18_mountain-80" d="M220.42,229.76c.06.47.27.92.59,1.27.36.35.92.4,1.33.1.28-.33.35-.79.2-1.2-.16-.39-.19-.83-.1-1.24.13-.32.43-.55.59-.87.09-.19.14-.4.14-.61,0-.92-1.18-2.84-2.37-2.1s-.59,3.67-.38,4.65Z"/><path class="cls-14_mountain-80" d="M238.51,223.11c-.47.18-.8.6-.87,1.09,0,.56.59,1.02.52,1.58,0,.27-.21.52-.19.8.09.38.45.63.83.59.38-.04.73-.22.99-.5.87-.8,1.26-2,1.03-3.17-.32-1.56-1.25-.94-2.31-.39Z"/><path class="cls-17_mountain-80" d="M243.28,221c-.36,1.04-.99,1.97-1.83,2.68-.92.64-2.4.71-3.05-.17-.66-.87-.31-1.86.07-2.74.43-1,.95-1.97,1.56-2.88.5-.6.82-1.32.93-2.09-.07-.71-.34-1.38-.78-1.94-.59-.87-1.12-1.79-1.75-2.62l-.46-.69c.16,2.01.11,4.02-.14,6.02-.29,2.34-1.04,4.89-3.17,6.12-1.52.87-3.43.87-5.25.73-1.13.01-2.23-.29-3.19-.87-1.17-.87-1.54-2.35-1.75-3.74-.55-3.5-2.07-12.91,2.09-14.63,2.73-1.13,7.38-1.81,9.62.25h.05c.17-.04.35-.04.52,0,4.25.57,5.74,5.07,7,8.36.43.93.73,1.92.87,2.94.2,1.75-.58,3.56-1.34,5.28Z"/></g><path class="cls-30_mountain-80 targetColor" d="M227.69,203.18c-.22.08-.36.18-.47.39-.07.14-.15.27-.23.4-.01.02-.03.04-.05.06-.04.03-.1.02-.14,0-.1-.05-.15-.17-.23-.25-.08-.07-.19-.17-.29-.2-.53-.13-1.1.02-1.5.38-.2.11-.36.28-.46.48-.15.41.26.8.43,1.21.37.87-.36,1.75-.87,2.55-1.02,1.75-.94,3.88-.87,5.9l.33,6.12c-.07,1.25.28,2.48,1.01,3.5.8.77,1.83,1.26,2.94,1.39,2.25.33,4.53.39,6.79.18.79.02,1.57-.14,2.29-.46.77-.48,1.31-1.26,1.49-2.14.17-.86.24-1.74.21-2.62.09-3.72.98-7.43.51-11.12-.13-1.04-.36-2.18.19-3.1.17-.22.31-.46.41-.73.16-.59-.36-1.15-.87-1.46-.72-.49-1.67-.46-2.36.06-.1.13-.22.24-.34.35-.46.31-1.08-.06-1.58-.34-1.51-.87-3.4-.82-5.18-.74-.38,0-.76.06-1.12.17Z" style="fill: rgb(104, 225, 253);"/><path class="cls-13_mountain-80" d="M228.81,203.01c-.5,0-1,.1-1.32.52-.15.2-.26.44-.48.57-.25.14-.33-.07-.45-.23-.14-.2-.29-.28-.54-.3-.46-.04-.92.11-1.26.42-.2.11-.36.28-.46.48-.15.41.26.8.43,1.21.37.87-.36,1.75-.87,2.55-1.02,1.75-.94,3.88-.87,5.9l.33,6.12c-.07,1.25.28,2.48,1.01,3.5.8.77,1.83,1.26,2.94,1.39,2.25.33,4.53.39,6.79.18.79.02,1.57-.14,2.29-.46.77-.48,1.31-1.26,1.49-2.14.17-.86.24-1.74.21-2.62.09-3.72.98-7.43.51-11.12-.13-1.04-.36-2.18.19-3.1.17-.22.31-.46.41-.73.16-.59-.36-1.15-.87-1.46-.72-.49-1.67-.46-2.36.06-.1.13-.22.24-.34.35-.46.31-1.08-.06-1.58-.34-1.51-.87-3.4-.82-5.18-.74Z"/><path class="cls-19_mountain-80" d="M235.64,212.97c.15-1.21.12-2.44-.1-3.64-.27-1.25-1.17-2.26-2.38-2.67-1.25-.33-2.55.23-3.84.31-.98-.07-1.96.01-2.9.25-1.5.65-1.84,2.51-1.9,4.08-.13,3.68.09,7.36.66,11,.05.48.19.95.42,1.37.39.54.93.94,1.56,1.15,2.14.87,7.87,1.75,8.79-1.14.44-1.36-.11-3.1-.24-4.45-.19-2.08-.22-4.18-.08-6.26Z"/><path class="cls-30_mountain-80 targetColor" d="M227.93,249.77c-.09.08-.16.19-.18.31,0,.13.05.26.11.37.27.91-.03,1.89-.76,2.49-.21.2-.41.41-.58.65-.16.24-.19.54-.09.81.08.14.19.26.31.35.25.24.55.43.87.53.5.09,1.02,0,1.46-.27.85-.41,1.65-.94,2.36-1.57.53-.42.94-.98,1.16-1.62.23-.83.24-2.96-.87-3.15-1.36-.17-2.74.23-3.81,1.08Z" style="fill: rgb(104, 225, 253);"/><path class="cls-30_mountain-80 targetColor" d="M232.96,252.41c-.16,0-.33.04-.46.13-.15.15-.22.36-.2.58l-.19,4.93c-.02.21,0,.43.05.63.16.36.49.62.87.7.4.07.81.07,1.22,0,.81-.09,1.62-.21,2.42-.37.36-.04.7-.17.98-.38.37-.43.46-1.05.21-1.57-.25-.5-.46-1.02-.65-1.55-.17-.87.59-2.67-.32-3.22-.4-.24-1.1-.09-1.54-.06l-2.39.17Z" style="fill: rgb(104, 225, 253);"/><path class="cls-4_mountain-80" d="M227.93,249.77c-.09.08-.16.19-.18.31,0,.13.05.26.11.37.27.91-.03,1.89-.76,2.49-.21.2-.41.41-.58.65-.16.24-.19.54-.09.81.08.14.19.26.31.35.25.24.55.43.87.53.5.09,1.02,0,1.46-.27.85-.41,1.65-.94,2.36-1.57.53-.42.94-.98,1.16-1.62.23-.83.24-2.96-.87-3.15-1.36-.17-2.74.23-3.81,1.08Z"/><path class="cls-20_mountain-80" d="M232.96,252.41c-.16,0-.33.04-.46.13-.15.15-.22.36-.2.58l-.19,4.93c-.02.21,0,.43.05.63.16.36.49.62.87.7.4.07.81.07,1.22,0,.81-.09,1.62-.21,2.42-.37.36-.04.7-.17.98-.38.37-.43.46-1.05.21-1.57-.25-.5-.46-1.02-.65-1.55-.17-.87.59-2.67-.32-3.22-.4-.24-1.1-.09-1.54-.06l-2.39.17Z"/></g></svg>