<svg version="1.1" id="Layer_1" xmlns="http://www.w3.org/2000/svg" xmlns:xlink="http://www.w3.org/1999/xlink" x="0px" y="0px" viewBox="0 0 500 500" style="width: 166px;" xml:space="preserve" data-imageid="navigation-8" imageName="Navigation" class="illustrations_image">
<style type="text/css">
	.st0_navigation-8{fill:#FFFFFF;}
	.st1_navigation-8{fill:#093F68;}
	.st2_navigation-8{fill:#68E1FD;}
	.st3_navigation-8{fill:#70CC40;}
	.st4_navigation-8{fill:#FFBC0E;}
	.st5_navigation-8{fill:#F56132;}
	.st6_navigation-8{fill:#FFC9B0;}
	.st7_navigation-8{fill:#725858;}
</style>
<g id="map_navigation-8">
	<polygon class="st0_navigation-8" points="496.9,418.8 5.1,418.8 95,263.4 391.9,263.4 &#9;"/>
	<path class="st1_navigation-8" d="M500.6,420.8H1.6l92.2-159.4h299.1L500.6,420.8z M8.6,416.8h484.5L390.8,265.4H96.2L8.6,416.8z"/>
	<polygon class="st2_navigation-8 targetColor" points="460.7,400.7 38,400.4 107,278.5 375.6,278.8 &#9;" style="fill: rgb(104, 225, 253);"/>
	<path class="st0_navigation-8" d="M125,286.2c0.1,0,0.3,0,0.4,0c1.3-0.2,2.1-1.4,1.9-2.7l-0.9-5.7c-0.2-1.3-1.4-2.1-2.7-1.9s-2.1,1.4-1.9,2.7&#10;&#9;&#9;l0,0l0.9,5.7C122.9,285.4,123.9,286.2,125,286.2z"/>
	<path class="st0_navigation-8" d="M129.2,324.1l-1.6-10c-0.3-1.2,0.5-2.5,1.7-2.8c1.2-0.3,2.5,0.5,2.8,1.7c0,0.1,0,0.2,0,0.3l1.6,10&#10;&#9;&#9;c0.2,1.3-0.7,2.5-1.9,2.7S129.4,325.4,129.2,324.1L129.2,324.1z M126,304.2l-1.6-10c-0.3-1.2,0.5-2.5,1.7-2.8&#10;&#9;&#9;c1.2-0.3,2.5,0.5,2.8,1.7c0,0.1,0,0.2,0,0.3l1.6,10c0.2,1.3-0.6,2.5-1.9,2.7c-0.1,0-0.3,0-0.4,0C127.2,306.1,126.2,305.3,126,304.2&#10;&#9;&#9;z"/>
	<path class="st0_navigation-8" d="M139.3,344.2c1.3,0,2.3-1,2.3-2.3c0-0.9-0.5-1.8-1.3-2.1l-4.1-1.9l-0.7-4.5c-0.1-1.3-1.3-2.2-2.5-2.1&#10;&#9;&#9;c-1.3,0.1-2.2,1.3-2.1,2.5c0,0.1,0,0.2,0,0.3l0.9,5.7c0.1,0.8,0.6,1.4,1.3,1.7l5.2,2.5C138.7,344.1,139,344.2,139.3,344.2z"/>
	<path class="st0_navigation-8" d="M217.1,380.8l-9.9-4.6c-1.2-0.6-1.7-1.9-1.1-3.1s1.9-1.7,3.1-1.1l9.9,4.6c1.2,0.5,1.7,1.9,1.1,3.1&#10;&#9;&#9;c-0.4,0.8-1.2,1.3-2.1,1.3C217.8,381,217.5,381,217.1,380.8z M197.4,371.6l-9.9-4.6c-1.2-0.6-1.6-1.9-1.1-3.1s1.9-1.6,3.1-1.1&#10;&#9;&#9;l9.9,4.6c1.2,0.5,1.7,1.9,1.1,3.1c-0.4,0.8-1.2,1.4-2.1,1.3C198.1,371.8,197.8,371.8,197.4,371.6z M177.7,362.4l-9.9-4.6&#10;&#9;&#9;c-1.2-0.6-1.7-1.9-1.1-3.1s1.9-1.7,3.1-1.1l0,0l9.9,4.6c1.2,0.6,1.6,1.9,1.1,3.1c-0.4,0.8-1.2,1.3-2.1,1.3&#10;&#9;&#9;C178.4,362.6,178,362.6,177.7,362.4L177.7,362.4z M158,353.2l-9.9-4.6c-1.2-0.6-1.6-1.9-1.1-3.1s1.9-1.6,3.1-1.1l9.9,4.6&#10;&#9;&#9;c1.2,0.5,1.7,1.9,1.1,3.1c-0.4,0.8-1.2,1.4-2.1,1.3C158.7,353.4,158.3,353.3,158,353.2z"/>
	<path class="st0_navigation-8" d="M232.2,393.8c1.1,0,2.1-0.8,2.3-1.9l1.1-5.7c0.2-1-0.3-2.1-1.3-2.5l-5.2-2.4c-1.2-0.6-2.5-0.1-3.1,1.1&#10;&#9;&#9;s-0.1,2.5,1.1,3.1l0,0l3.6,1.7l-0.7,3.9c-0.2,1.3,0.6,2.5,1.9,2.7C231.9,393.8,232,393.8,232.2,393.8z"/>
	<path class="st0_navigation-8" d="M416.5,375.3c1.3,0,2.3-1,2.3-2.3c0-0.8-0.4-1.6-1.1-2l-5-2.9c-1.1-0.6-2.5-0.3-3.2,0.8&#10;&#9;&#9;c-0.6,1.1-0.3,2.5,0.8,3.2l0,0l5,2.9C415.7,375.2,416.1,375.3,416.5,375.3z"/>
	<path class="st0_navigation-8" d="M401.1,366.7l-9.2-5.4c-1.1-0.7-1.4-2.1-0.8-3.2c0.7-1.1,2-1.4,3.1-0.8l9.2,5.4c1.1,0.7,1.5,2.1,0.8,3.2&#10;&#9;&#9;c-0.4,0.7-1.2,1.1-2,1.1C401.9,367,401.5,366.9,401.1,366.7z M382.7,355.9l-9.2-5.4c-1.1-0.6-1.5-2-0.9-3.2c0.6-1.1,2-1.5,3.2-0.9&#10;&#9;&#9;c0,0,0,0,0.1,0l9.2,5.4c1.1,0.6,1.5,2.1,0.8,3.2c-0.4,0.7-1.2,1.2-2,1.2C383.5,356.2,383.1,356.1,382.7,355.9z M364.3,345l-9.2-5.4&#10;&#9;&#9;c-1.1-0.7-1.4-2.1-0.7-3.2c0.7-1,2-1.3,3-0.8l9.2,5.4c1.1,0.6,1.5,2.1,0.8,3.2c-0.4,0.7-1.2,1.2-2,1.2&#10;&#9;&#9;C365.1,345.3,364.7,345.2,364.3,345z M345.9,334.2l-9.2-5.4c-1.1-0.7-1.4-2.1-0.7-3.2c0.7-1,2-1.3,3-0.8l9.2,5.4&#10;&#9;&#9;c1.1,0.6,1.5,2.1,0.8,3.2c-0.4,0.7-1.2,1.2-2,1.2C346.7,334.5,346.3,334.4,345.9,334.2L345.9,334.2z"/>
	<path class="st0_navigation-8" d="M319,324.2c0.5,0,1-0.2,1.4-0.4l3.5-2.5l3.7,2.2c1.1,0.6,2.5,0.2,3.2-0.9c0.6-1.1,0.3-2.5-0.8-3.1l-5-2.9&#10;&#9;&#9;c-0.8-0.5-1.8-0.4-2.5,0.1l-4.7,3.4c-1,0.7-1.3,2.2-0.5,3.2C317.5,323.8,318.2,324.2,319,324.2L319,324.2z"/>
	<path class="st0_navigation-8" d="M253.3,369.1c-0.7-1-0.5-2.5,0.5-3.2l10.6-7.6c1-0.7,2.5-0.5,3.2,0.5s0.5,2.5-0.5,3.2l-10.6,7.6&#10;&#9;&#9;C255.5,370.4,254.1,370.2,253.3,369.1z M274.6,353.8c-0.7-1-0.5-2.5,0.5-3.2l10.6-7.6c1-0.7,2.5-0.5,3.2,0.5c0.7,1,0.5,2.5-0.5,3.2&#10;&#9;&#9;l0,0l-10.6,7.7c-0.4,0.3-0.9,0.4-1.4,0.4C275.7,354.8,275,354.5,274.6,353.8L274.6,353.8z M295.8,338.5c-0.7-1-0.5-2.5,0.5-3.2&#10;&#9;&#9;c0,0,0,0,0,0l10.6-7.7c1-0.7,2.5-0.5,3.2,0.5s0.5,2.5-0.5,3.2l0,0l-10.6,7.6c-0.4,0.3-0.9,0.4-1.4,0.4&#10;&#9;&#9;C297,339.5,296.3,339.1,295.8,338.5L295.8,338.5z"/>
	<path class="st0_navigation-8" d="M239.9,381.1c0.5,0,1-0.2,1.4-0.4l4.7-3.4c1-0.7,1.3-2.2,0.5-3.2c-0.7-1-2.2-1.3-3.2-0.5l-4.7,3.4&#10;&#9;&#9;c-1,0.7-1.3,2.2-0.5,3.2C238.4,380.8,239.1,381.1,239.9,381.1L239.9,381.1z"/>
	<polygon class="st3_navigation-8" points="412.1,338.4 323.3,282.6 223.3,354.3 154.4,320.4 147.5,278.6 375.6,278.8 407.3,324.3 &#9;"/>
	<polygon class="st4_navigation-8" points="200.4,400.5 60.4,400.5 41.8,393.6 96.2,297.7 104.5,351 &#9;"/>
	<polygon class="st5_navigation-8" points="423.6,400.7 256.2,400.6 260.8,381.6 328.2,340.4 &#9;"/>
	<path class="st1_navigation-8" d="M223.4,356.4l-70.7-34.8l-7.4-44.8l231,0.3l32.3,46.2l0.1,0.4l6.4,18.7l-92-57.7L223.4,356.4z M155.9,319.3&#10;&#9;&#9;l67.2,33l100.1-71.8l85.6,53.7l-3.1-9.1l-31.1-44.5l-225.1-0.2L155.9,319.3z"/>
	<path class="st1_navigation-8" d="M207.6,402.3l-147.5-0.1l-20.8-7.6l57.8-102.1l9,57.4L207.6,402.3z M60.7,398.7l132.5,0.1l-90.3-46.6&#10;&#9;&#9;l-7.7-49.2l-50.8,89.8L60.7,398.7z"/>
	<path class="st1_navigation-8" d="M429.7,402.5l-175.7-0.1l5.3-21.8l68.9-42.2L429.7,402.5z M258.4,398.8l159.2,0.1l-89.4-56.5l-65.8,40.3&#10;&#9;&#9;L258.4,398.8z"/>
	<path class="st1_navigation-8" d="M464.1,402.5L35,402.2l71-125.4l270.5,0.3l32.3,46.2L464.1,402.5z M41,398.7l416.4,0.3l-82.7-118.4L108,280.3&#10;&#9;&#9;L41,398.7z"/>
</g>
<g id="pin_navigation-8">
	<path class="st2_navigation-8 targetColor" d="M69.4,161.8c0,32.6,59,121.8,59,121.8s59-89.2,59-121.8c0-32.6-26.4-59-59-59S69.4,129.2,69.4,161.8&#10;&#9;&#9;L69.4,161.8z M90.4,166.8c0-20.8,16.9-37.6,37.6-37.6s37.6,16.9,37.6,37.6s-16.9,37.6-37.6,37.6C107.3,204.5,90.4,187.7,90.4,166.8&#10;&#9;&#9;L90.4,166.8z" style="fill: rgb(104, 225, 253);"/>
	<path class="st1_navigation-8" d="M126.9,284.6c-2.4-3.7-59.3-90.1-59.3-122.8c0-33.6,27.2-60.8,60.8-60.8c33.6,0,60.8,27.2,60.8,60.8&#10;&#9;&#9;c0,32.8-56.9,119.1-59.3,122.8c-0.5,0.8-1.6,1.1-2.5,0.5C127.3,285,127.1,284.8,126.9,284.6L126.9,284.6z M71.2,161.8&#10;&#9;&#9;c0,28.8,48,104.3,57.2,118.5c9.2-14.2,57.2-89.7,57.2-118.5c0-31.6-25.6-57.2-57.2-57.2C96.8,104.6,71.2,130.2,71.2,161.8&#10;&#9;&#9;L71.2,161.8z M88.6,166.8c0-21.8,17.7-39.4,39.4-39.4s39.4,17.7,39.4,39.4s-17.7,39.4-39.4,39.4C106.3,206.2,88.7,188.6,88.6,166.8&#10;&#9;&#9;L88.6,166.8z M92.2,166.8c0,19.8,16,35.9,35.8,35.9c19.8,0,35.9-16,35.9-35.8s-16-35.9-35.8-35.9c0,0,0,0,0,0&#10;&#9;&#9;C108.3,131,92.2,147.1,92.2,166.8L92.2,166.8z"/>
</g>
<g id="character_navigation-8">
	<path class="st2_navigation-8 targetColor" d="M389.5,187.5c0,0-22.2,22.9-40.6,22c-14.9-0.7-29.2-22-34.1-30.3c-1-1.6-0.4-3.6,1.1-4.6&#10;&#9;&#9;c0.1-0.1,0.2-0.1,0.3-0.2l13.5-6.3c1.5-0.7,3.4-0.2,4.3,1.3c3.5,5.8,12.4,19.1,19.4,18.8c8.9-0.4,31.9-27.3,31.9-27.3" style="fill: rgb(104, 225, 253);"/>
	<path class="st1_navigation-8" d="M349.9,211.6h-1.1c-15.7-0.7-30.2-22.1-35.8-31.2c-1.5-2.5-0.7-5.8,1.8-7.3c0.2-0.1,0.3-0.2,0.5-0.3l13.5-6.3&#10;&#9;&#9;c2.5-1.2,5.4-0.3,6.8,2c6.8,11.2,13.6,18,17.6,17.8c5.9-0.3,21.8-16.5,30.5-26.6l3,2.6c-2.4,2.8-23.8,27.6-33.3,28&#10;&#9;&#9;c-4,0.2-11.1-3.1-21.2-19.7c-0.4-0.6-1.1-0.8-1.7-0.5l-13.4,6.4c-0.3,0.2-0.6,0.5-0.7,0.8c-0.1,0.4-0.1,0.8,0.1,1.1&#10;&#9;&#9;c4.1,6.7,18.4,28.7,32.5,29.3c17.3,0.8,38.9-21.2,39.1-21.4l2.9,2.8C390,189.8,368.7,211.6,349.9,211.6z"/>
	<path class="st2_navigation-8 targetColor" d="M299,121.7l1.9-0.9c1.7-0.8,3.7-0.1,4.5,1.7l15,32.4c0.8,1.7,0.1,3.7-1.7,4.5l-1.9,0.9&#10;&#9;&#9;c-1.7,0.8-3.7,0.1-4.5-1.7l-15-32.4C296.6,124.5,297.3,122.5,299,121.7z" style="fill: rgb(104, 225, 253);"/>
	<path class="st1_navigation-8" d="M315.5,162.5c-2.1,0-4-1.2-4.9-3.1l-15-32.4c-1.3-2.7-0.1-5.9,2.6-7.2l1.9-0.9c1.3-0.6,2.8-0.7,4.1-0.2&#10;&#9;&#9;c1.4,0.5,2.5,1.5,3.1,2.8l15,32.4c1.3,2.7,0.1,5.9-2.6,7.2l-1.9,0.9C317.1,162.3,316.3,162.5,315.5,162.5z M302.4,122.4&#10;&#9;&#9;c-0.2,0-0.4,0-0.6,0.1l-1.9,0.9c-0.7,0.3-1,1.2-0.7,1.9c0,0,0,0,0,0l15,32.4c0.3,0.7,1.2,1,1.9,0.7c0,0,0,0,0,0l1.9-0.9&#10;&#9;&#9;c0.7-0.3,1-1.2,0.7-1.9l-15-32.4c-0.2-0.3-0.4-0.6-0.8-0.7C302.7,122.5,302.5,122.4,302.4,122.4z"/>
	<path class="st6_navigation-8" d="M326.2,156.4c-1.2-3.9-3.8-7.3-7.3-9.5c-2.4-1.4-5.1-2.1-7.6-3.3c-2.7-1.3-5.3-3.2-8.3-3&#10;&#9;&#9;c-3.8,0.2-6.6,4-6.8,7.7s1.5,7.4,3.7,10.4c4.2,5.7,9.9,10,16.5,12.5c1.2,0.5,2.4,0.7,3.7,0.7c2.2-0.2,6.6-2.2,7.2-4.4&#10;&#9;&#9;C328.2,164.2,327.2,159.4,326.2,156.4z"/>
	<path class="st1_navigation-8" d="M319.6,173.8c-1.3,0-2.7-0.3-3.9-0.8c-7-2.6-13.1-7.2-17.5-13.2c-3-4.1-4.4-8-4.1-11.7&#10;&#9;&#9;c0.3-4.5,3.6-9.3,8.7-9.6c2.9-0.2,5.4,1.1,7.5,2.3c0.6,0.3,1.1,0.6,1.7,0.9c1,0.4,1.9,0.8,3,1.2c1.7,0.6,3.3,1.3,4.8,2.2&#10;&#9;&#9;c3.9,2.5,6.8,6.2,8.2,10.6l0,0c0.6,1.8,2.4,7.8,1.2,12.2c-1,3.3-6.3,5.6-8.9,5.8C320.1,173.8,319.9,173.8,319.6,173.8z&#10;&#9;&#9; M303.3,142.5h-0.3c-2.7,0.2-4.8,3.2-4.9,5.9s1,5.8,3.4,9.1c3.9,5.4,9.4,9.5,15.6,11.8c0.9,0.4,1.9,0.6,2.8,0.6&#10;&#9;&#9;c2.1-0.2,5.2-2,5.5-2.9c0.7-2.6-0.1-6.9-1.1-9.9c-1.1-3.5-3.4-6.5-6.4-8.4c-1.3-0.7-2.7-1.4-4.2-1.9c-1.1-0.4-2.2-0.8-3.3-1.4&#10;&#9;&#9;c-0.6-0.3-1.2-0.6-1.9-1C306.7,143.4,305,142.5,303.3,142.5L303.3,142.5z"/>
	<path class="st1_navigation-8" d="M416.2,247.6c-10.8,1.7-21.7-1.9-29.3-9.8l6.5-23.3l30.7,4.8C424.2,219.3,434.7,244.8,416.2,247.6z"/>
	<path class="st1_navigation-8" d="M431.2,336.5l14-17.5c-28-20.5-45-36.3-47.4-43.5c-1.9-5.8,16.1-29.9,23.1-54.2l-36.5-3.1&#10;&#9;&#9;c-3.5,12.2-10.5,54.2-5.3,70.4C384.1,303.9,419.2,327.1,431.2,336.5z"/>
	<path class="st1_navigation-8" d="M430.1,337.8c-2.1-1.6-4.9-3.7-8.1-6c-16-11.8-40.3-29.6-44.6-42.8c-5.6-17.1,2.1-60.6,5.2-71.4&#10;&#9;&#9;c0.2-0.8,1-1.3,1.8-1.3l36.5,3.1c1,0.1,1.7,0.9,1.6,1.9c0,0.1,0,0.2-0.1,0.3c-3.7,12.8-10.3,25.5-15.6,35.6&#10;&#9;&#9;c-4,7.6-8.1,15.5-7.5,17.5c2.3,6.9,19.7,22.9,46.8,42.6c0.4,0.3,0.6,0.7,0.7,1.2c0.1,0.5-0.1,0.9-0.4,1.3l-14,17.5&#10;&#9;&#9;c-0.3,0.4-0.8,0.7-1.4,0.7C430.8,338.2,430.4,338.1,430.1,337.8z M396.1,276c-1.1-3.3,1.7-8.9,7.7-20.3c5-9.5,11.1-21.1,14.8-32.9&#10;&#9;&#9;l-32.9-2.8c-3.5,13.3-9.8,52.9-4.9,68c3.9,12.1,28.6,30.2,43.4,41c2.6,1.9,4.9,3.6,6.8,5l11.8-14.8C426,307,399.5,286.2,396.1,276z&#10;&#9;&#9;"/>
	<polygon class="st1_navigation-8" points="394.7,344.9 436,226.2 417.1,213.7 372.7,340.1 &#9;"/>
	<path class="st1_navigation-8" d="M394.3,346.6l-22-4.8c-0.5-0.1-0.9-0.4-1.1-0.9c-0.2-0.4-0.3-1-0.1-1.4l44.4-126.4c0.3-0.9,1.3-1.4,2.2-1.1&#10;&#9;&#9;c0.1,0,0.3,0.1,0.4,0.2l19,12.5c0.7,0.4,0.9,1.3,0.7,2l-41.4,118.8c-0.2,0.7-0.9,1.2-1.6,1.2C394.5,346.7,394.4,346.7,394.3,346.6z&#10;&#9;&#9; M418,216.4l-43,122.4l18.6,4.1l40.4-116L418,216.4z"/>
	<path class="st2_navigation-8 targetColor" d="M382.4,166.7c2.4-6.7,6.8-12.5,14.6-12.5h22.2c9.3,0,16.9,7.6,16.9,16.9v55.1h-55.9c0-13.4-0.8-26.7-0.4-40.1&#10;&#9;&#9;c0-5,0.5-10,1.4-14.9C381.4,169.7,381.9,168.2,382.4,166.7z" style="fill: rgb(104, 225, 253);"/>
	<path class="st1_navigation-8" d="M438,228.2h-59.9v-2c0-5.5-0.1-11.1-0.3-16.5c-0.2-7.7-0.4-15.7-0.2-23.6c0-5.1,0.5-10.2,1.5-15.3&#10;&#9;&#9;c0.4-1.6,0.8-3.2,1.4-4.8l0,0c3.2-9,8.9-13.8,16.5-13.8h22.2c10.4,0,18.9,8.5,18.9,18.9V228.2z M382.1,224.2H434v-53.1&#10;&#9;&#9;c0-8.2-6.7-14.9-14.9-14.9H397c-5.8,0-10.1,3.8-12.7,11.2c-0.5,1.4-0.9,2.8-1.2,4.3c-0.9,4.8-1.4,9.6-1.4,14.5&#10;&#9;&#9;c-0.2,7.8,0,15.8,0.2,23.4C382,214.4,382.1,219.3,382.1,224.2z"/>
	<path class="st7_navigation-8" d="M413.8,55.6c-4.1-1.2-8.6-0.6-12.9,0.3c-4.8,1-9.6,2.5-14.5,2.1s-10-3.2-11.3-7.9c-4.9,5.6-6,13.6-5.8,21&#10;&#9;&#9;c0,2.2,0.2,4.3,0.7,6.4c0.6,1.9,1.3,3.8,2.2,5.6c1.2,2.7,2.7,5.2,2.7,8.2c0.1,3.5,0.5,7,1.2,10.4c1.3,7.7,3.2,15.2,4.8,22.8h65.5&#10;&#9;&#9;c0,0,1.9-15.9,1.9-29.2s-5.9-31.1-22.2-27.4c-0.5-1.9-1.5-3.6-2.8-5.1c-2.1-2.8-4.8-5.1-7.9-6.6C414.8,55.9,414.3,55.8,413.8,55.6z&#10;&#9;&#9;"/>
	<path class="st1_navigation-8" d="M379.3,124.9c-0.5-2.6-1.1-5.2-1.7-7.8c-1.1-4.9-2.2-10-3.1-15.1l0-0.3c-0.7-3.4-1.1-6.9-1.2-10.4&#10;&#9;&#9;c0-2.1-0.9-3.9-1.9-6c-0.2-0.5-0.5-1-0.7-1.4c-0.9-1.9-1.7-3.8-2.3-5.9c-0.5-2.2-0.8-4.5-0.8-6.8c-0.2-9.8,1.8-17.1,6.2-22.2&#10;&#9;&#9;c0.4-0.5,1.1-0.7,1.7-0.6c0.6,0.1,1.1,0.6,1.3,1.2c1.2,4.1,5.9,6.3,9.8,6.6s7.5-0.5,11.4-1.5l2.5-0.6c3.9-0.9,9-1.7,13.7-0.3l0,0&#10;&#9;&#9;c0.6,0.2,1.2,0.4,1.7,0.6c3.9,1.7,6.8,4.9,8.6,7.1c1.1,1.3,2,2.7,2.7,4.2c4.6-0.9,9.3,0.3,13,3.3c7.2,5.8,9.8,17.3,9.8,26.2&#10;&#9;&#9;c0,13.3-1.9,29.3-1.9,29.4c-0.1,0.9-0.8,1.5-1.7,1.5H381C380.2,126.3,379.4,125.7,379.3,124.9z M446.6,95.3&#10;&#9;&#9;c0-7.7-2.2-18.5-8.4-23.4c-3.2-2.5-7.1-3.3-11.6-2.3c-0.5,0.1-0.9,0-1.3-0.2c-0.4-0.2-0.7-0.6-0.8-1.1c-0.5-1.6-1.3-3.1-2.5-4.4&#10;&#9;&#9;c-2.5-3.1-4.8-5-7.3-6.1c-0.4-0.2-0.9-0.4-1.4-0.5l0,0c-3.9-1.2-8.5-0.4-12,0.3c-0.8,0.2-1.6,0.4-2.5,0.5c-4,0.9-8.2,1.9-12.5,1.5&#10;&#9;&#9;s-9-2.4-11.5-6.2c-2.7,4.3-3.9,10.1-3.7,17.6c0,2,0.2,4,0.7,6c0.5,1.8,1.2,3.6,2,5.3l0.7,1.4c1.1,2.3,2.2,4.6,2.2,7.5&#10;&#9;&#9;c0.1,3.3,0.5,6.6,1.1,9.8l0,0.3c0.9,5,2,10,3.1,14.9c0.5,2.2,1,4.3,1.4,6.5h62.5C445.3,118.5,446.6,106,446.6,95.3z M413.8,55.6&#10;&#9;&#9;L413.8,55.6z"/>
	<path class="st6_navigation-8" d="M409.7,163.5H402c-1.2,0-2.2-1-2.2-2.2v-9.9l0,0h12.1l0,0v9.9C411.9,162.5,410.9,163.5,409.7,163.5&#10;&#9;&#9;L409.7,163.5z"/>
	<path class="st1_navigation-8" d="M398,158.3v-7c0-1,0.8-1.7,1.8-1.8h12.1c1,0,1.8,0.8,1.8,1.8v7c0,3.8-3.1,6.9-6.9,6.9h-1.8&#10;&#9;&#9;C401.1,165.2,398,162.2,398,158.3L398,158.3z M401.5,153.1v5.2c0,1.9,1.5,3.4,3.4,3.4l0,0h1.8c1.9,0,3.4-1.5,3.4-3.4l0,0v-5.2&#10;&#9;&#9;L401.5,153.1z"/>
	<ellipse class="st6_navigation-8" cx="374.4" cy="121.1" rx="9.1" ry="10.2"/>
	<path class="st1_navigation-8" d="M363.5,121.1c0-6.6,4.9-11.9,10.9-11.9s10.8,5.3,10.8,11.9s-4.9,11.9-10.8,11.9S363.5,127.7,363.5,121.1z&#10;&#9;&#9; M367,121.1c0,4.6,3.3,8.4,7.4,8.4s7.4-3.8,7.4-8.4s-3.3-8.4-7.4-8.4S367,116.4,367,121.1z"/>
	<path class="st6_navigation-8" d="M406.2,154.2c20,0,37.8-24.6,37.8-44.3l-4.8,1.8l0.2-13.9c0,0-25-6.6-21.7-18.2c0,0-7.3,8.7-17.9,8.7&#10;&#9;&#9;c-19.4,0-27-5.2-27-5.2v35.5C372.9,138.3,386.2,154.2,406.2,154.2z"/>
	<path class="st1_navigation-8" d="M371.1,118.6V83.1c0-1,0.8-1.7,1.8-1.7c0.3,0,0.7,0.1,1,0.3c0.1,0,7.5,4.8,26,4.9l0,0c9.5,0,16.4-8,16.5-8.1&#10;&#9;&#9;c0.6-0.7,1.7-0.8,2.5-0.1c0.5,0.4,0.7,1.1,0.5,1.8c-0.5,1.6-0.2,3.3,0.6,4.7c4,7.1,19.7,11.3,19.8,11.3c0.8,0.2,1.3,0.9,1.3,1.7&#10;&#9;&#9;l-0.1,11.3l2.4-0.9c0.5-0.2,1.1-0.1,1.6,0.2c0.5,0.3,0.8,0.9,0.8,1.4c0,20.3-18.6,46-39.6,46C385.9,156,371.1,140.3,371.1,118.6z&#10;&#9;&#9; M439.9,113.4c-0.5,0.2-1.2,0.1-1.6-0.2c-0.5-0.3-0.8-0.9-0.7-1.4l0.1-12.6c-4.1-1.2-16.6-5.5-20.7-12.6c-0.5-0.9-0.9-1.8-1.1-2.8&#10;&#9;&#9;c-3.3,2.7-9,6.3-16,6.3h-0.1c-13.5,0-21.4-2.5-25.2-4.1v32.7c0,19.6,13.3,33.8,31.6,33.8c15.3,0,34.5-18.5,36-40L439.9,113.4z"/>
	<ellipse class="st1_navigation-8" cx="415.2" cy="114.2" rx="3.3" ry="3.3"/>
	<circle class="st1_navigation-8" cx="383.5" cy="114.2" r="3.3"/>
	<path class="st1_navigation-8" d="M397.7,124c1.1,0,2.2-0.1,3.3-0.3c1-0.1,1.6-1,1.5-1.9c-0.1-1-1-1.6-1.9-1.5c-0.1,0-0.1,0-0.2,0&#10;&#9;&#9;c-1.3,0.2-2.7,0.3-4,0.2c0.6-2.4,1.5-4.7,2.7-6.8c0.4-0.9,0.1-1.9-0.7-2.4c-0.9-0.4-1.9-0.1-2.3,0.7c0,0,0,0,0,0&#10;&#9;&#9;c-1.5,2.9-3.9,8-2.8,10.3c0.3,0.7,0.9,1.2,1.7,1.4C395.8,123.9,396.7,124,397.7,124z"/>
	<path class="st1_navigation-8" d="M427.4,108.9c1.9,0,3.5-1.6,3.5-3.5c0-1.7-1.2-3.1-2.8-3.4l-15.4-3c-1.9-0.4-3.8,0.8-4.2,2.7&#10;&#9;&#9;c-0.4,1.9,0.8,3.8,2.7,4.2c0.1,0,0.1,0,0.2,0l15.4,3C427,108.9,427.2,108.9,427.4,108.9z"/>
	<path class="st1_navigation-8" d="M380.1,106h0.2l15.7-0.7c1.9-0.1,3.4-1.7,3.3-3.7c-0.1-1.9-1.7-3.4-3.6-3.3c0,0,0,0-0.1,0L380,99&#10;&#9;&#9;c-1.9,0-3.5,1.6-3.4,3.6C376.6,104.5,378.2,106,380.1,106L380.1,106z"/>
	<path class="st6_navigation-8" d="M436.9,112.4c0,0,8.7-6,13.4,1.7s0.2,21-14.2,17.1"/>
	<path class="st1_navigation-8" d="M440.9,133.7c4,0.2,7.9-1.6,10.3-4.8c3.3-4.6,3.5-10.8,0.6-15.6c-1.3-2.3-3.5-4-6.1-4.6&#10;&#9;&#9;c-4.8-1-9.6,2.2-9.8,2.3c-0.8,0.6-1,1.6-0.4,2.4c0.6,0.8,1.6,1,2.4,0.4l0,0c0,0,3.7-2.5,7.1-1.8c1.6,0.4,3,1.5,3.8,3&#10;&#9;&#9;c2.2,3.7,2,8.2-0.4,11.7c-2.4,3.2-6.6,4.2-11.9,2.8c-0.9-0.2-1.9,0.3-2.1,1.2c-0.2,0.9,0.3,1.9,1.2,2.1&#10;&#9;&#9;C437.3,133.4,439.1,133.7,440.9,133.7z"/>
	<path class="st1_navigation-8" d="M401.6,139.3c1.2,0,2.4-0.1,3.6-0.4c4.7-1.1,8.5-4.3,11.4-9.5c0.5-0.8,0.2-1.9-0.6-2.4c0,0,0,0,0,0&#10;&#9;&#9;c-0.8-0.5-1.9-0.2-2.4,0.7c-2.4,4.3-5.5,6.9-9.2,7.8c-6.2,1.5-12.2-2.6-12.3-2.6c-0.8-0.6-1.9-0.4-2.4,0.4&#10;&#9;&#9;c-0.6,0.8-0.4,1.9,0.4,2.4C393.6,137.9,397.6,139.2,401.6,139.3z"/>
	<path class="st2_navigation-8 targetColor" d="M394.7,344.9L390,359l-36.6-12c-0.7-0.2-1-0.9-0.8-1.6c0.1-0.4,0.5-0.7,0.9-0.8l21.3-5.4L394.7,344.9z" style="fill: rgb(104, 225, 253);"/>
	<path class="st1_navigation-8" d="M389.5,360.6l-36.6-12c-1.6-0.5-2.4-2.3-1.9-3.8c0.3-0.9,1.1-1.7,2.1-1.9l21.3-5.4c0.3-0.1,0.6-0.1,0.9,0&#10;&#9;&#9;l19.9,5.8c0.5,0.1,0.8,0.4,1.1,0.9c0.2,0.4,0.3,0.9,0.1,1.4l-4.7,14C391.4,360.4,390.4,360.9,389.5,360.6&#10;&#9;&#9;C389.5,360.6,389.5,360.6,389.5,360.6L389.5,360.6z M374.8,341l-19.2,4.8l33.3,10.9l3.5-10.6L374.8,341z"/>
	<path class="st2_navigation-8 targetColor" d="M445.2,318.9l11.1,10.1l-26.9,28c-0.3,0.4-0.9,0.4-1.3,0c-0.2-0.2-0.3-0.5-0.3-0.7l2.3-22.9L445.2,318.9z" style="fill: rgb(104, 225, 253);"/>
	<path class="st1_navigation-8" d="M427.6,358.9c-1-0.5-1.6-1.5-1.5-2.7l2.3-22.9c0-0.4,0.2-0.8,0.5-1.1l15-14.5c0.7-0.6,1.7-0.6,2.4,0l11.1,10.1&#10;&#9;&#9;c0.4,0.3,0.6,0.8,0.6,1.2c0,0.5-0.2,0.9-0.5,1.3l-26.9,28c-0.5,0.5-1.2,0.8-1.9,0.8C428.4,359.1,428,359,427.6,358.9z M445.2,321.3&#10;&#9;&#9;l-13.4,12.9l-2,19.8l23.9-25L445.2,321.3z"/>
	<path class="st6_navigation-8" d="M462.6,238.3c0,0,0.2,15.6,2.5,18.2c2.3,2.5,7,5.5,9.3,5.1s5.1-1.7,4.9-4s-1-4.7-1-7.6s-1.1-14.2-1.1-14.2&#10;&#9;&#9;L462.6,238.3z"/>
	<path class="st1_navigation-8" d="M474.8,263.2c-3.5,0.6-8.8-3.4-10.9-5.6c-2.6-2.8-3-15.5-3-19.3c0-0.9,0.6-1.6,1.5-1.8l14.6-2.5&#10;&#9;&#9;c0.5-0.1,1,0,1.4,0.3c0.4,0.3,0.6,0.7,0.7,1.2c0,0.5,1.1,11.4,1.1,14.4c0,1.5,0.2,3,0.6,4.4c0.2,1,0.4,2,0.5,3c0,0.1,0,0.3,0,0.4&#10;&#9;&#9;C481.1,260.4,478.7,262.5,474.8,263.2z M464.4,239.7c0.2,6.9,1,14.4,2,15.5c2.4,2.6,6.4,4.8,7.7,4.5c1.7-0.3,3.5-1.2,3.4-2.1&#10;&#9;&#9;c-0.1-0.8-0.2-1.7-0.4-2.6c-0.4-1.7-0.6-3.4-0.6-5.1c0-2.1-0.6-8.8-0.9-12.1L464.4,239.7z"/>
	<path class="st2_navigation-8 targetColor" d="M417,176.4c10.6,6,35.5,24.4,43,67.4l22.4-1.9c0-0.7-0.1-1.3-0.2-1.9c-8.7-49.8-37.5-73.2-52.5-82.2" style="fill: rgb(104, 225, 253);"/>
	<path class="st1_navigation-8" d="M484,241.9L484,241.9c0-0.2-0.1-1.5-0.2-2.2c-8.7-49.9-37.1-73.7-53.3-83.4c-0.8-0.5-1.9-0.2-2.4,0.6&#10;&#9;&#9;c0,0,0,0,0,0c-0.6,0.8-0.4,2,0.3,2.6c15.7,9.4,43.5,32.2,51.9,80.8l0,0l-19,1.6c-8-42.7-33-61.1-43.5-67.1c-0.9-0.4-1.9,0.1-2.3,1&#10;&#9;&#9;c-0.3,0.7-0.1,1.5,0.5,2c10.2,5.8,34.7,23.9,42.1,66.2c0.2,0.9,1,1.5,1.9,1.4l22.4-1.9C483.3,243.4,484,242.7,484,241.9z"/>
	<path class="st0_navigation-8" d="M385.9,299.6c0.4,0,0.7-0.2,0.8-0.6l23.7-67.5c0.2-0.5-0.1-0.9-0.5-1.1c-0.5-0.2-1,0.1-1.1,0.5l-23.7,67.5&#10;&#9;&#9;c-0.2,0.5,0.1,1,0.5,1.1C385.7,299.6,385.8,299.6,385.9,299.6z"/>
</g>
</svg>