<svg id="_0036_online_shopping" xmlns="http://www.w3.org/2000/svg" viewBox="0 0 500 500" data-imageid="online-shopping-13-16762" imageName="Online Shopping" class="illustrations_image" style="width: 166px;"><defs><style>.cls-1_online-shopping-13-16762,.cls-2_online-shopping-13-16762{fill:#fff;}.cls-3_online-shopping-13-16762{fill:#f4a28c;}.cls-4_online-shopping-13-16762{fill:#a5a5a5;}.cls-5_online-shopping-13-16762{opacity:.03;}.cls-5_online-shopping-13-16762,.cls-6_online-shopping-13-16762{fill:#000001;}.cls-2_online-shopping-13-16762{opacity:.52;}.cls-7_online-shopping-13-16762,.cls-8_online-shopping-13-16762{fill:#e6e6e6;}.cls-8_online-shopping-13-16762{opacity:.55;}.cls-9_online-shopping-13-16762{fill:#ce8172;opacity:.31;}.cls-10_online-shopping-13-16762{fill:#24285b;}.cls-6_online-shopping-13-16762{opacity:.08;}.cls-11_online-shopping-13-16762{fill:#ffd200;}.cls-12_online-shopping-13-16762{fill:#68e1fd;}</style></defs><ellipse id="sd_online-shopping-13-16762" class="cls-5_online-shopping-13-16762" cx="270.34" cy="423.78" rx="206.94" ry="32.82"/><g id="store_phone_online-shopping-13-16762"><rect class="cls-7_online-shopping-13-16762" x="202.75" y="47.22" width="210.01" height="376.65"/><rect class="cls-1_online-shopping-13-16762" x="220.12" y="90.16" width="173.83" height="265.08"/><circle class="cls-1_online-shopping-13-16762" cx="308.39" cy="389.18" r="20.55"/><rect class="cls-4_online-shopping-13-16762" x="289.99" y="61.95" width="58.88" height="8.59" rx="4.29" ry="4.29"/><circle class="cls-1_online-shopping-13-16762" cx="268.66" cy="67.18" r="9.59"/><rect class="cls-4_online-shopping-13-16762" x="259.01" y="186.53" width="98.75" height="111.25"/><rect class="cls-11_online-shopping-13-16762" x="276.34" y="309.95" width="62.82" height="26.88" rx="13.44" ry="13.44"/><path class="cls-1_online-shopping-13-16762" d="m333.23,213.69l-12.8-4c-1.09,10.3-11.66,10.17-11.66,10.17,0,0-10.57.12-11.66-10.17l-12.8,4-15.63,16.72,11.03,12.93,9.21-7.12,2.39,32.28h34.96l2.39-32.28,9.21,7.12,11.03-12.93-15.63-16.72Z"/><path class="cls-6_online-shopping-13-16762" d="m203.21,158.3v17.15s11.44,5.6,27.5-1.34c16.06-6.94,23.88,7.67,44.06,0,20.18-7.67,25.66,9.08,47.92,3.08,22.27-6,29.2-8.19,41.25-1.62,12.05,6.57,38.6,1.12,48.82-6.74v-22.09l-29.47-21.18h-154.99l-25.09,32.73Z"/><polygon class="cls-10_online-shopping-13-16762" points="220.24 90.16 187.93 138.34 428.84 138.34 394.35 90.16 220.24 90.16"/><path class="cls-10_online-shopping-13-16762" d="m205.14,157.51c9.5,0,17.21-8.58,17.21-19.16h-34.42c0,10.58,7.7,19.16,17.21,19.16Z"/><path class="cls-1_online-shopping-13-16762" d="m239.56,157.51c9.5,0,17.21-8.58,17.21-19.16h-34.42c0,10.58,7.7,19.16,17.21,19.16Z"/><path class="cls-10_online-shopping-13-16762" d="m273.97,157.51c9.5,0,17.21-8.58,17.21-19.16h-34.42c0,10.58,7.7,19.16,17.21,19.16Z"/><path class="cls-1_online-shopping-13-16762" d="m308.39,157.51c9.5,0,17.21-8.58,17.21-19.16h-34.42c0,10.58,7.7,19.16,17.21,19.16Z"/><path class="cls-10_online-shopping-13-16762" d="m342.8,157.51c9.5,0,17.21-8.58,17.21-19.16h-34.42c0,10.58,7.7,19.16,17.21,19.16Z"/><path class="cls-1_online-shopping-13-16762" d="m377.22,157.51c9.5,0,17.21-8.58,17.21-19.16h-34.42c0,10.58,7.7,19.16,17.21,19.16Z"/><path class="cls-10_online-shopping-13-16762" d="m411.64,157.51c9.5,0,17.21-8.58,17.21-19.16h-34.42c0,10.58,7.7,19.16,17.21,19.16Z"/><polygon class="cls-1_online-shopping-13-16762" points="222.35 138.34 241.77 90.16 264.22 90.16 256.76 138.34 222.35 138.34"/><polygon class="cls-1_online-shopping-13-16762" points="394.38 138.34 374.96 90.16 352.51 90.16 359.96 138.34 394.38 138.34"/><polygon class="cls-1_online-shopping-13-16762" points="291.18 138.34 292.87 90.16 323.54 90.16 325.6 138.34 291.18 138.34"/><rect class="cls-2_online-shopping-13-16762" x="304.82" y="314.29" width="26.99" height="9.1" rx="4.55" ry="4.55"/><rect class="cls-8_online-shopping-13-16762" x="412.76" y="380.58" width="25.98" height="21.17"/><rect class="cls-7_online-shopping-13-16762" x="412.76" y="401.75" width="38.65" height="22.13"/></g><g id="person_online-shopping-13-16762"><path class="cls-3_online-shopping-13-16762" d="m154.13,172.58s-28.91-3.86-34.71,20.3c-5.81,24.15-6.64,57.62-29.86,64.32-23.22,6.7-36.08-39.75-36.08-39.75,0,0-5.39-13.03-11.2-14.81-5.81-1.78-9.95,11.08,0,18.96,0,0,8.38,59.3,52.92,57.23,44.53-2.07,58.93-63.22,58.93-106.24Z"/><path class="cls-6_online-shopping-13-16762" d="m154.13,172.58s-28.91-3.86-34.71,20.3c-5.81,24.15-6.64,57.62-29.86,64.32-23.22,6.7-36.08-39.75-36.08-39.75,0,0-5.39-13.03-11.2-14.81-5.81-1.78-9.95,11.08,0,18.96,0,0,8.38,59.3,52.92,57.23,44.53-2.07,58.93-63.22,58.93-106.24Z"/><path class="cls-10_online-shopping-13-16762" d="m154.13,129.56s-19.06,22.44-3.83,30.53c22.34,11.88,25.06-29.18,25.06-29.18l-21.23-1.35Z"/><path class="cls-3_online-shopping-13-16762" d="m155.62,131.81s-3.98,8.43-4.66,14.77c-.27,2.57,1.62,4.91,4.19,5.15,3.2.3,7.61-.23,10.29-4.49l5.44-6.67s3.26-4.3-.36-9.67c-3.62-5.37-12.74-4.34-14.9.92Z"/><polygon class="cls-3_online-shopping-13-16762" points="168.83 142.09 171.02 172.57 154.13 172.58 159.19 150.96 168.83 142.09"/><path class="cls-3_online-shopping-13-16762" d="m153.38,137.25l-3.68,2.47c-.91.61-.88,1.96.06,2.52l3.11,1.87.51-6.86Z"/><path class="cls-9_online-shopping-13-16762" d="m159.05,151.57s3.57-.61,5.5-2.63c0,0,1.09,6.6-6.95,8.83l1.45-6.19Z"/><path class="cls-3_online-shopping-13-16762" d="m163.32,141.71s1.31-3.34,3.74-2.15.57,6.04-3.04,5.22l-.71-3.07Z"/><polygon class="cls-3_online-shopping-13-16762" points="123.63 346.17 109.35 411.07 117.65 411.07 145.44 346.17 123.63 346.17"/><polygon class="cls-3_online-shopping-13-16762" points="170.1 338.29 185.32 411.07 193.68 411.07 192.42 337.77 170.1 338.29"/><path class="cls-12_online-shopping-13-16762 targetColor" d="m109.35,411.07s-4.61,5.85-10.51,5.56-6.76,8.05,2.73,7.19c3.62-.33,6.53-.91,8.74-1.5,2.64-.71,5.36-.42,8,.28.82.22,1.76.03,2.7-1.08,2.69-3.16-3.92-10.45-3.92-10.45h-7.74Z" style="fill: rgb(104, 225, 253);"/><path class="cls-12_online-shopping-13-16762 targetColor" d="m193.07,411.07s4.61,5.85,10.51,5.56,6.76,8.05-2.73,7.19c-3.62-.33-6.53-.91-8.74-1.5-2.64-.71-5.36-.42-8,.28-.82.22-1.76.03-2.7-1.08-2.69-3.16,3.92-10.45,3.92-10.45h7.74Z" style="fill: rgb(104, 225, 253);"/><path class="cls-10_online-shopping-13-16762" d="m156.73,118.49c-2.73,1.08-4.89,3.4-5.51,6.27-.56,2.58-.09,5.69,4.05,7.8,8.29,4.22,11.9,1.43,11.2,6.8-.7,5.37-9.68,23.96,8.84,22.72s12.44-12.38,9.12-18.98-3.46-12.26-4.7-16.55c-1.14-3.94-10.59-12.98-23-8.07Z"/><path class="cls-12_online-shopping-13-16762 targetColor" d="m154.13,172.58h16.88s1.16-.07,3.14,0c36.83,1.18,58.22,42.09,38.67,73.32-10.88,17.37-23.86,40.78-24.72,54.77l-65.64-3.32s4.98-42.58-7.19-66.9c0,0-22.36-38.31,38.86-57.86Z" style="fill: rgb(104, 225, 253);"/><path class="cls-1_online-shopping-13-16762" d="m157.99,288.88c-.1-.76-2.24-18.67,10.38-26.37l.87,1.42c-11.71,7.15-9.62,24.57-9.6,24.75l-1.65.21Z"/><path class="cls-6_online-shopping-13-16762" d="m190.13,185.79s-27.55,10.5-14.76,54.67c6.68,23.05-52.59,20.55-52.59,20.55,0,0,1.08,17.68.47,25.73l30.15,1.59,36.73,2.39,1.79-5.18,11.16-21.02,1.04-27.37-8.71-15.24-5.28-36.11Z"/><path class="cls-1_online-shopping-13-16762" d="m178.89,288.88c-.1-.76-2.45-19.23,10.48-26.21l.77,1.25c-11.71,7.15-9.62,24.57-9.6,24.75l-1.65.21Z"/><polygon class="cls-10_online-shopping-13-16762" points="123.24 286.74 190.27 290.27 208.17 358.17 111.29 354.71 123.24 286.74"/><path class="cls-3_online-shopping-13-16762" d="m184.01,198.12c-.61-13.68,16.6-20.2,25.31-9.64,7.51,9.11,14.4,22.48,14.15,40.78-.55,39.73-5.9,82.73-91.61,35.74l4.62-12.59s38.03,18.29,53.92,12.35c11.68-4.37-5.19-39.35-6.39-66.64Z"/><path class="cls-3_online-shopping-13-16762" d="m136.48,252.4s-14.29-6.79-20.38,0c-6.08,6.79,3.59,12.87,15.76,12.59l4.62-12.59Z"/><polygon class="cls-11_online-shopping-13-16762" points="151.64 285.54 200.42 290.23 202.36 349.73 138.16 346.02 151.64 285.54"/><polygon class="cls-6_online-shopping-13-16762" points="151.64 285.54 200.42 290.23 202.36 349.73 138.16 346.02 151.64 285.54"/><polygon class="cls-11_online-shopping-13-16762" points="162.37 286.57 207.01 290.97 214.59 350.35 150.4 346.64 162.37 286.57"/><rect class="cls-11_online-shopping-13-16762" x="39.85" y="180.04" width="20.67" height="36.49" transform="translate(-58.8 25.2) rotate(-17.99)"/><path class="cls-1_online-shopping-13-16762" d="m174.44,292.68l-1.39-.9c.1-.15,9.46-14.94,3.87-26.41h0s-1.48-2.31-3.8-2.65c-1.46-.22-2.48.19-4.15,1.37l-1.53-.85c1.97-1.73,3.97-2.47,5.95-2.16,3.12.47,4.92,3.37,4.99,3.5,6.03,12.38-3.52,27.47-3.93,28.1Z"/><path class="cls-1_online-shopping-13-16762" d="m193.82,293.78l-1.39-.9c.1-.15,9.46-14.94,3.87-26.41h0s-1.47-2.31-3.8-2.65c-1.46-.22-3.1.27-4.69,1.66l-1-1.13c1.97-1.73,3.97-2.47,5.95-2.16,3.12.47,4.92,3.37,4.99,3.5,6.03,12.38-3.52,27.47-3.93,28.1Z"/><polygon class="cls-7_online-shopping-13-16762" points="21.53 115.76 21.53 148.94 42.97 148.94 47.66 162.14 53.2 148.94 74.63 148.94 74.63 115.76 21.53 115.76"/><path class="cls-4_online-shopping-13-16762" d="m45.4,139.76s-.05,0-.07,0c-.49-.02-.94-.25-1.24-.64l-5.61-7.22c-.56-.72-.43-1.77.29-2.33.72-.56,1.77-.43,2.33.29l4.41,5.67,10.87-11.74c.62-.67,1.67-.71,2.34-.09.67.62.71,1.67.09,2.34l-12.2,13.17c-.31.34-.75.53-1.22.53Z"/></g></svg>