<svg version="1.1" id="Layer_1" xmlns="http://www.w3.org/2000/svg" xmlns:xlink="http://www.w3.org/1999/xlink" x="0px" y="0px" viewBox="0 0 500 500" style="width: 166px;" xml:space="preserve" data-imageid="pancake-21" imageName="Pancake" class="illustrations_image">
<style type="text/css">
	.st0_pancake-21{fill:#FF7B7B;}
	.st1_pancake-21{fill:#68E1FD;}
	.st2_pancake-21{opacity:0.29;fill:#093E3E;enable-background:new    ;}
	.st3_pancake-21{fill:#FFE8CA;}
	.st4_pancake-21{fill:#FFF2DE;}
	.st5_pancake-21{opacity:0.33;fill:#FFFFFF;enable-background:new    ;}
	.st6_pancake-21{fill:#FAD1A3;}
	.st7_pancake-21{fill:#F9A14D;}
	.st8_pancake-21{fill:#E5802E;}
	.st9_pancake-21{opacity:0.47;fill:#E5802E;enable-background:new    ;}
	.st10_pancake-21{fill:#FEEC64;}
	.st11_pancake-21{opacity:0.58;}
	.st12_pancake-21{fill:#FFFFFF;}
</style>
<path id="background_pancake-21" class="st0_pancake-21" d="M241.8,392.1L16.7,259c-7.2-4-13.3-10.6-6.3-15l226-130.2c3.4-2.1,8.5-3.5,12-1.5l236.2,137.2&#10;&#9;c7.2,4.2,8.5,15.8,1.3,20L271.5,391.8C262.3,397.2,251,397.2,241.8,392.1z"/>
<g id="plate_pancake-21">
	<ellipse class="st1_pancake-21 targetColor" cx="215.5" cy="254" rx="130.6" ry="72.3" style="fill: rgb(104, 225, 253);"/>
	<ellipse class="st2_pancake-21" cx="215.5" cy="254" rx="130.6" ry="72.3"/>
	<ellipse class="st1_pancake-21 targetColor" cx="215.5" cy="246.1" rx="130.6" ry="72.3" style="fill: rgb(104, 225, 253);"/>
	<ellipse class="st2_pancake-21" cx="215.5" cy="245.5" rx="90.7" ry="46.4"/>
</g>
<g id="drink_pancake-21">
	<path class="st1_pancake-21 targetColor" d="M351.3,165.9l9.1,104c0,0,10.4,11,37.1,11s33.1-16.3,33.1-16.3l6.8-98.7c0,0-2.8-18.1-46.6-18.1&#10;&#9;&#9;C356.2,147.8,351.3,165.9,351.3,165.9z" style="fill: rgb(104, 225, 253);"/>
	<path class="st3_pancake-21" d="M356.4,170.8l7.1,86.1c0,0,5.1,13,31.3,13s30.9-13.8,30.9-13.8l7.5-85.3"/>
	<ellipse class="st4_pancake-21" cx="394.8" cy="170.8" rx="38.3" ry="18.9"/>
	<path class="st1_pancake-21 targetColor" d="M394.8,190.3c-23.9,0-43.3-9.7-43.3-21.6s19.4-21.6,43.3-21.6s43.2,9.7,43.2,21.6S418.6,190.3,394.8,190.3z&#10;&#9;&#9; M394.8,148.4c-23.1,0-42,9.1-42,20.3s18.8,20.3,42,20.3s42-9.1,42-20.3S417.9,148.4,394.8,148.4z" style="fill: rgb(104, 225, 253);"/>
	<path class="st5_pancake-21" d="M405.5,189.6v87.5c0,0,8.7-1.8,9.1-2.5s0.6-87.9,0.6-87.9L405.5,189.6z"/>
</g>
<g id="pancake_pancake-21">
	<ellipse class="st6_pancake-21" cx="215.5" cy="247.4" rx="77.2" ry="33.6"/>
	<ellipse class="st7_pancake-21" cx="215.5" cy="240.5" rx="77.2" ry="33.6"/>
	<ellipse class="st6_pancake-21" cx="218.4" cy="233.5" rx="77.2" ry="33.6"/>
	<ellipse class="st7_pancake-21" cx="218.4" cy="226.5" rx="77.2" ry="33.6"/>
	<path class="st8_pancake-21" d="M287.3,210.4c0.8,1,7.5,10.6-4.1,23.1c-7.6,8.1-19.5,12.1-29.9,14.9c-17.7,4.9-36.8,6.1-55.1,2.6&#10;&#9;&#9;c-11.5-2.3-22.9-5.2-34.1-8.6l-0.2-0.1"/>
	<ellipse class="st6_pancake-21" cx="208.7" cy="215" rx="77.2" ry="33.6"/>
	<ellipse class="st7_pancake-21" cx="208.7" cy="208.1" rx="77.2" ry="33.6"/>
	<ellipse class="st6_pancake-21" cx="215.5" cy="200.6" rx="77.2" ry="33.6"/>
	<ellipse class="st7_pancake-21" cx="215.5" cy="193.6" rx="77.2" ry="33.6"/>
	<path class="st9_pancake-21" d="M231.5,160.6c0,0,0.7,9.9-6.8,10s-5.1-6-20-3.8s-17.9,9.5-27.7,15.8s-17-3-25.1,0.5s-14.2,12-13.2,17.3&#10;&#9;&#9;s-3.4,17.7,5.5,20s6.2-7,11-6.2s-2.3,18.8,7.2,24.8s7.3-18,13.7-16.6s14.4,2.1,20.3,7.9s26.9-2.4,32-3.3s18-4.8,22.2,3.3&#10;&#9;&#9;s3.9,29.1,1.6,37.2S241,281,232.4,284.3s-11.2,15.1,2.6,21.2s35.6-16.5,48.9-11.2s34.9-13.5,34.2-20.5s-20.7-7.5-14.7-17&#10;&#9;&#9;s-2.6-11.6-8.4-10.9s-17.5,19.3-25.4,13.5s-10.8-35.6-5.5-39.8s14.1,7,19.2-0.5s11.8-18,9.4-28.3S273.6,163.9,231.5,160.6z"/>
	<polygon class="st10_pancake-21" points="215.5,167 196.1,178.6 196.1,189.6 214.4,200.6 237.8,192.5 240.7,181.4 &#9;"/>
	<polygon class="st9_pancake-21" points="240.7,181.4 212.9,187.3 214.4,200.6 237.8,192.5 &#9;"/>
	<g class="st11_pancake-21">
		<path class="st12_pancake-21" d="M274.7,175.2c-3-2.9-7.6,1.7-4.6,4.6c1.6,1.5,3,3.1,4.2,4.9c1,1.5,2.5,3.3,2.3,5.1c-0.3,4.2,6.2,4.2,6.5,0&#10;&#9;&#9;&#9;C283.5,184.5,278.3,178.7,274.7,175.2z"/>
		<path class="st12_pancake-21" d="M279.3,195.6c-4.2,0-4.2,6.5,0,6.5S283.5,195.6,279.3,195.6z"/>
		<path class="st12_pancake-21" d="M237.4,297.4c-1.9,0-3.5-1.6-3.5-3.5c0-0.1,0-0.3,0-0.4c0.3-1-0.3-2.1-1.4-2.4c-1-0.3-2.1,0.3-2.4,1.4&#10;&#9;&#9;&#9;c-0.8,4,1.8,8,5.9,8.8c0.4,0.1,0.9,0.1,1.3,0.1C240,301.4,240,297.5,237.4,297.4z"/>
		<path class="st12_pancake-21" d="M307.9,276.3c-2.8,4.3-6.9,7.7-11.6,9.7c-2.3,1-1.3,4.8,1,3.8c5.7-2.3,10.6-6.4,14-11.5&#10;&#9;&#9;&#9;C312.6,276.2,309.2,274.2,307.9,276.3z"/>
		<path class="st12_pancake-21" d="M146.3,192.7c-2.7,2.5-4.4,5.9-4.8,9.5c-0.2,1.7,2.4,1.7,2.6,0c0.3-3,1.8-5.7,4-7.7&#10;&#9;&#9;&#9;C149.4,193.5,147.6,191.6,146.3,192.7z"/>
		<path class="st12_pancake-21" d="M143.1,207.8c-0.7,0.1-1.3,0.7-1.2,1.4c0.1,0.6,0.6,1.1,1.2,1.2c0.7-0.1,1.3-0.7,1.2-1.4&#10;&#9;&#9;&#9;C144.3,208.4,143.8,207.9,143.1,207.8z"/>
		<path class="st12_pancake-21" d="M211.3,222.2c-3,0.5-6.1,0.3-9.1-0.4c-1.6-0.4-2.3,2.1-0.7,2.5c3.4,0.8,7,1,10.5,0.4&#10;&#9;&#9;&#9;C213.6,224.4,212.9,221.9,211.3,222.2z"/>
	</g>
</g>
</svg>