<svg id="_0352_pilot" xmlns="http://www.w3.org/2000/svg" viewBox="0 0 500 500" data-imageid="pilot-58" imageName="Pilot" class="illustrations_image" style="width: 166px;"><defs><style>.cls-1_pilot-58{fill:#fff;}.cls-2_pilot-58{fill:#f4a28c;}.cls-3_pilot-58{opacity:.46;}.cls-3_pilot-58,.cls-4_pilot-58,.cls-5_pilot-58,.cls-6_pilot-58,.cls-7_pilot-58{fill:none;}.cls-8_pilot-58{fill:#a5a5a5;}.cls-9_pilot-58{fill:#ce8172;}.cls-10_pilot-58{fill:#e6e6e6;}.cls-4_pilot-58{opacity:.03;}.cls-5_pilot-58{opacity:.08;}.cls-6_pilot-58{opacity:.31;}.cls-7_pilot-58{opacity:.3;}.cls-11_pilot-58{fill:#24285b;}.cls-12_pilot-58{fill:#000001;}.cls-13_pilot-58{fill:#ffd200;}.cls-14_pilot-58{fill:#68e1fd;}</style></defs><g id="bg_pilot-58"><g class="cls-7_pilot-58"><path class="cls-10_pilot-58" d="m88.15,112.74c-41.6,35.56-66.25,100.82-62.34,168.96,2,34.84,11.22,68.46,35.61,86.81,65.04,48.95,348.98,49.79,391-36.72,42.03-86.5,26.38-209.41-65-260.62C308.21,26.78,195.57,20.92,88.15,112.74Z"/></g><g class="cls-4_pilot-58"><ellipse class="cls-12_pilot-58" cx="231.45" cy="469.36" rx="183.28" ry="18.59"/></g><path class="cls-10_pilot-58" d="m456.63,331.25c0-6.82-5.53-12.34-12.34-12.34-.68,0-1.34.07-1.98.17-2.81-5.22-8.32-8.76-14.66-8.76-.21,0-.41.02-.61.03.38-1.54.61-3.13.61-4.79,0-10.91-8.84-19.75-19.75-19.75s-19.75,8.84-19.75,19.75c0,1.65.23,3.25.61,4.79-.2,0-.4-.03-.61-.03-9.19,0-16.64,7.45-16.64,16.64s7.45,16.64,16.64,16.64h57.74v-.11c6.05-.79,10.73-5.95,10.73-12.23Z"/><path class="cls-10_pilot-58" d="m110.67,257.85c0-4.94-4-8.94-8.94-8.94-.49,0-.97.05-1.44.13-2.04-3.78-6.03-6.35-10.62-6.35-.15,0-.29.02-.44.02.28-1.11.44-2.27.44-3.47,0-7.9-6.41-14.31-14.31-14.31s-14.31,6.41-14.31,14.31c0,1.2.16,2.36.44,3.47-.15,0-.29-.02-.44-.02-6.66,0-12.05,5.4-12.05,12.05s5.4,12.05,12.05,12.05h41.84v-.08c4.38-.57,7.78-4.31,7.78-8.86Z"/><path class="cls-10_pilot-58" d="m202.88,47.62c0-5.34,5.28-9.66,11.79-9.66.65,0,1.28.05,1.89.14,2.68-4.08,7.95-6.86,14-6.86.2,0,.39.02.58.02-.37-1.2-.58-2.45-.58-3.75,0-8.54,8.45-15.46,18.87-15.46,10.42,0,18.87,6.92,18.87,15.46,0,1.29-.22,2.55-.58,3.75.19,0,.39-.02.58-.02,8.78,0,15.89,5.83,15.89,13.02,0,7.19-7.12,13.02-15.89,13.02h-55.17s.01-.09.01-.09c-5.79-.61-10.27-4.66-10.27-9.57Z"/><path class="cls-8_pilot-58" d="m411.58,112.16s-5.97-4.56-24.94,3.63l-29.5-8.2-6.67,4.1,22.83,10.19s-17.91,5.96-22.83,7.72l-7.73-1.63s-5.27,1.27-4.21,1.63,10.89,9.07,11.94,8.58,37.23-4.45,52.68-10.2c15.45-5.75,14.4-16.05,8.43-15.82Z"/><polygon class="cls-8_pilot-58" points="386.29 130.32 406.14 143.32 410.88 142.09 396.48 124.88 386.29 130.32"/></g><g id="bag_pilot-58"><path class="cls-13_pilot-58" d="m152.19,358.19h-2v-44.86c0-3.98-3.24-7.22-7.22-7.22h-32.71c-3.98,0-7.22,3.24-7.22,7.22v44.86h-2v-44.86c0-5.09,4.14-9.22,9.22-9.22h32.71c5.09,0,9.22,4.14,9.22,9.22v44.86Z"/><g class="cls-5_pilot-58"><path class="cls-12_pilot-58" d="m152.19,358.19h-2v-44.86c0-3.98-3.24-7.22-7.22-7.22h-32.71c-3.98,0-7.22,3.24-7.22,7.22v44.86h-2v-44.86c0-5.09,4.14-9.22,9.22-9.22h32.71c5.09,0,9.22,4.14,9.22,9.22v44.86Z"/></g><rect class="cls-11_pilot-58" x="112.06" y="301.1" width="28.95" height="9.37"/><rect class="cls-13_pilot-58" x="80.46" y="344.86" width="92.31" height="119.5"/><rect class="cls-11_pilot-58" x="92.8" y="464.36" width="11.28" height="11.28"/><rect class="cls-11_pilot-58" x="147.59" y="464.36" width="11.28" height="11.28"/><g class="cls-5_pilot-58"><rect class="cls-12_pilot-58" x="95.76" y="367.07" width="12.83" height="71.4"/></g><g class="cls-5_pilot-58"><rect class="cls-12_pilot-58" x="120.2" y="367.07" width="12.83" height="71.4"/></g><g class="cls-5_pilot-58"><rect class="cls-12_pilot-58" x="143.15" y="367.07" width="12.83" height="71.4"/></g></g><g id="pilot_pilot-58"><path class="cls-2_pilot-58" d="m317.9,242.77s18.49,100.17,16.94,112.56c-1.87,14.97-9.75,23.78-14.03,17.38-6.88-10.29-3.71-22.24-3.71-22.24l-32.94-81.18,33.74-26.53Z"/><path class="cls-14_pilot-58 targetColor" d="m285.54,462.55s3.08,6.52,9.23,6.44c6.15-.07,8.33,5.74,2.99,7.82-5.34,2.09-20.17-3.6-20.17-3.6l-.58-11.22,8.52.55Z" style="fill: rgb(104, 225, 253);"/><path class="cls-14_pilot-58 targetColor" d="m222.52,462.55s-3.08,6.52-9.23,6.44c-6.15-.07-8.33,5.74-2.99,7.82,5.34,2.09,20.17-3.6,20.17-3.6l.58-11.22-8.52.55Z" style="fill: rgb(104, 225, 253);"/><polygon class="cls-2_pilot-58" points="230.9 99.67 236.08 141.4 258.88 136.9 245.95 108.34 230.9 99.67"/><g class="cls-6_pilot-58"><path class="cls-9_pilot-58" d="m249.05,114.47s-4.36.35-8.46-2.22c0,0,2.45,7.3,12.68,12.25l-4.22-10.03Z"/></g><path class="cls-14_pilot-58 targetColor" d="m309.92,194.27l16.16,66.23-50.45,16.42s-2.28-85.81,11.89-90.29,22.4,7.64,22.4,7.64Z" style="fill: rgb(104, 225, 253);"/><g class="cls-3_pilot-58"><path class="cls-1_pilot-58" d="m309.92,194.27l16.16,66.23-50.45,16.42s-2.28-85.81,11.89-90.29,22.4,7.64,22.4,7.64Z"/></g><path class="cls-14_pilot-58 targetColor" d="m311.32,202.99c-1.26,19.29-2.03,40.18-3.23,58.99v.13c-1.92,30.18-3.84,55.04-4.19,59.61l-.06.75-50.3,6.58-26.55,3.46s-72.58-98.79-53.33-159.68c6.3-19.89,22.38-35.73,54-42.78l28.83,2.43s58.94,7.56,54.83,70.51Z" style="fill: rgb(104, 225, 253);"/><g class="cls-5_pilot-58"><path class="cls-12_pilot-58" d="m308.08,261.97v.13l-4.19,59.61-.06.75c-.11,1.6-46.59,6.09-50.3,6.58l-26.55,3.46s-72.58-98.79-53.33-159.68c5.96-3.76,12.77-6.58,19.31-9.18,5.92-2.35,12.88-4.63,18.5-2.05.47.21.92.45,1.35.73-4.53,31.42,4.83,119.4,51.97,114.12,33.68-3.78,43.28-14.48,43.28-14.48Z"/></g><path class="cls-11_pilot-58" d="m226.98,332.51l76.84-10.05-14.54,140.98h-17.92s1.33-72.32-9.57-93.77c-10.91-21.45-34.81-37.16-34.81-37.16Z"/><path class="cls-11_pilot-58" d="m226.98,332.51l-11.31,130.93h19.62s13.67-99.22,48.87-124.82l-57.18-6.11Z"/><path class="cls-2_pilot-58" d="m253.45,91.35s1.55,12.74-.31,21.31c-.75,3.48-4.24,5.72-7.7,4.91-4.3-1-9.83-3.6-11.49-10.32l-4.22-11.07s-2.4-7.03,4.65-12.48c7.05-5.45,18.52-.16,19.07,7.64Z"/><path class="cls-11_pilot-58" d="m250.29,92c-2.23.19-6.35.32-11.85-.5,0,0,4.2,5.45.4,11.73-3.8,6.29-10.4,3.84-10.4,3.84l-.36-16.48c-.26-4.8,2.11-9.37,6.22-11.88,1.68-1.02,3.54-2.05,5.41-2.88,4.68-2.07,11.73.86,15.88-2.49,1.82-1.47,4.55-.44,4.97,1.86.91,4.99.29,12.9-6.39,15.88-1.22.54-2.54.8-3.88.92Z"/><path class="cls-2_pilot-58" d="m240.2,102.8s-.27-4.93-3.96-4.43c-3.7.51-3.36,7.64,1.71,8.13l2.25-3.71Z"/><path class="cls-2_pilot-58" d="m254.02,99.43l3.74,4.82c.92,1.19.3,2.94-1.17,3.27l-4.87,1.09,2.3-9.18Z"/><path class="cls-14_pilot-58 targetColor" d="m227.66,130.05l-25.95.8-81.82,2.54s-7.41,56.42-4.24,57.48c3.18,1.06,46.86,9.53,76.37,0,29.51-9.53,35.63-60.82,35.63-60.82Z" style="fill: rgb(104, 225, 253);"/><path class="cls-2_pilot-58" d="m115.66,190.87c-8.92,1.85-54.71-11.65-41.29-33.53,13.41-21.88,132-53.32,132-53.32,0,0,26.21-14.1,27.4-13.92,1.19.18-10.46,11.77-11.16,12.33s10.58-1.96,5.47,1.59c-5.11,3.55-11.47,1.79-15.7,6.73s-61.06,72.71-96.71,80.12Z"/><polygon class="cls-11_pilot-58" points="206.44 130.71 216.34 139.5 226.23 138.28 216.46 129.85 206.44 130.71"/><polygon class="cls-11_pilot-58" points="221.16 129.85 229.05 138.06 238.68 137.69 229.34 129.78 221.16 129.85"/><path class="cls-11_pilot-58" d="m277.88,139.19l3.76,8.52,7.14,3.18-2.78-7.46s-6.08-3.27-8.12-4.24Z"/><path class="cls-11_pilot-58" d="m290.68,147.72s.35,3,.75,5.43l4.19,4.54s.84-4.06.31-5.34c0,0-3.92-3.94-5.25-4.63Z"/><path class="cls-11_pilot-58" d="m253.79,131.83c-.41-.06-.86-.12-1.23.06-.38.18-.63.58-.75.99-.37,1.29.35,2.71,1.43,3.52s2.45,1.1,3.78,1.28c.48.06.97.11,1.43-.06.87-.32,1.3-1.37,1.17-2.29-.45-3.21-3.25-3.1-5.83-3.5Z"/><path class="cls-11_pilot-58" d="m253.24,136.4s4.31,35.14,14.63,56.59c10.32,21.44,36.53,36,36.53,36h18.79l-10.37-22.83s-25.25-8.37-34.94-20.85c-15.22-19.59-21.45-49.44-21.45-49.44l-3.2.54Z"/><path class="cls-11_pilot-58" d="m326.09,359.22s-13.77,2.63-16.54,15.61c-2.77,12.98-5.72,57.45-5.72,57.45l11.13-2.12v18.53h26.24s2.61-86.83-15.11-89.47Z"/><rect class="cls-13_pilot-58" x="311.68" y="385.16" width="10.9" height="2.51"/><rect class="cls-13_pilot-58" x="311.68" y="390.43" width="10.9" height="2.51"/><rect class="cls-13_pilot-58" x="311.68" y="395.7" width="10.9" height="2.51"/><rect class="cls-13_pilot-58" x="311.68" y="400.97" width="10.9" height="2.51"/></g></svg>