<svg id="_0209_polaroid" xmlns="http://www.w3.org/2000/svg" viewBox="0 0 500 500" data-imageid="polaroid-54" imageName="Polaroid" class="illustrations_image" style="width: 166px;"><defs><style>.cls-1_polaroid-54{fill:#fff;}.cls-2_polaroid-54{opacity:.39;}.cls-2_polaroid-54,.cls-3_polaroid-54,.cls-4_polaroid-54,.cls-5_polaroid-54{fill:none;}.cls-6_polaroid-54{fill:#e6e6e6;}.cls-3_polaroid-54{opacity:.08;}.cls-4_polaroid-54{opacity:.5;}.cls-5_polaroid-54{opacity:.3;}.cls-7_polaroid-54{fill:#24285b;}.cls-8_polaroid-54{fill:#000001;}.cls-9_polaroid-54{fill:#ffd200;}.cls-10_polaroid-54{fill:#68e1fd;}</style></defs><g id="bg_polaroid-54" class="cls-5_polaroid-54"><path class="cls-6_polaroid-54" d="m104.39,103.12C57.81,125.26,23.41,181.08,16.84,248.47c-5.53,56.79,10.72,139.66,91.68,157.22,157.54,34.18,322.94,54.64,360.21-39.32,37.28-93.96,4.86-285.94-75.05-296.04-63.54-8.03-198.32-10.45-289.29,32.79Z"/></g><g id="camera_polaroid-54"><rect class="cls-10_polaroid-54 targetColor" x="100.94" y="56.3" width="298.49" height="130.89" style="fill: rgb(104, 225, 253);"/><polygon class="cls-10_polaroid-54 targetColor" points="100.94 187.19 80.45 224.14 419.55 224.14 399.42 187.19 100.94 187.19" style="fill: rgb(104, 225, 253);"/><g class="cls-2_polaroid-54"><polygon class="cls-1_polaroid-54" points="100.94 187.19 80.45 224.14 419.55 224.14 399.42 187.19 100.94 187.19"/></g><rect class="cls-10_polaroid-54 targetColor" x="80.5" y="224.14" width="339.05" height="15.05" style="fill: rgb(104, 225, 253);"/><polygon class="cls-7_polaroid-54" points="80.5 239.19 107.83 337.1 390.39 337.1 419.55 239.19 80.5 239.19"/><circle class="cls-10_polaroid-54 targetColor" cx="250" cy="121.74" r="50.18" style="fill: rgb(104, 225, 253);"/><g class="cls-2_polaroid-54"><circle class="cls-1_polaroid-54" cx="250" cy="121.74" r="50.18"/></g><circle class="cls-7_polaroid-54" cx="250" cy="121.74" r="39.9"/><g class="cls-3_polaroid-54"><circle class="cls-1_polaroid-54" cx="256.61" cy="115.42" r="20.99"/></g><g class="cls-3_polaroid-54"><circle class="cls-1_polaroid-54" cx="264.84" cy="111.28" r="8.23"/></g><g class="cls-3_polaroid-54"><path class="cls-8_polaroid-54" d="m339.49,76.77h59.94v51.33h-59.94c-8.48,0-15.36-6.88-15.36-15.36v-20.61c0-8.48,6.88-15.36,15.36-15.36Z"/></g><rect class="cls-7_polaroid-54" x="349.8" y="145.44" width="33.61" height="16.2"/><g class="cls-2_polaroid-54"><rect class="cls-1_polaroid-54" x="124.78" y="89.83" width="40.79" height="40.79"/></g><rect class="cls-7_polaroid-54" x="124.78" y="158.8" width="40.79" height="13.12"/><rect class="cls-7_polaroid-54" x="162.82" y="41.33" width="161.31" height="14.97"/><rect class="cls-9_polaroid-54" x="124.78" y="267.41" width="248.23" height="191.25"/><g class="cls-4_polaroid-54"><rect class="cls-1_polaroid-54" x="153.65" y="267.41" width="190.49" height="162.53"/></g><g class="cls-3_polaroid-54"><rect class="cls-8_polaroid-54" x="124.78" y="267.41" width="248.23" height="20.73"/></g></g></svg>