<svg version="1.1" id="Layer_1" xmlns="http://www.w3.org/2000/svg" xmlns:xlink="http://www.w3.org/1999/xlink" x="0px" y="0px" viewBox="0 0 500 500" style="width: 166px;" xml:space="preserve" data-imageid="polaroid-36" imageName="Polaroid" class="illustrations_image">
<style type="text/css">
	.st0_polaroid-36{fill:#231F20;}
	.st1_polaroid-36{fill:#FFFFFF;}
	.st2_polaroid-36{fill:#D1D3D4;}
	.st3_polaroid-36{fill:#68E1FD;}
</style>
<g id="Polaroid_polaroid-36">
	<path class="st0_polaroid-36" d="M82.1,169c2.6-1.9,5.6-3.2,8.8-3.8c9.4-1.5,17.9,6.2,27,9.3c11,3.8,23,0.8,33.6-4.2s20.5-12,31.3-16.7&#10;&#9;&#9;s23-6.9,33.7-2c-0.8,8.6-0.7,17.2,0.3,25.7c-12.8-20.1-42.6-5.9-56.9,4c-4.4,3.1-8.7,6.5-13.5,8.7c-12.8,5.9-21.5-2.5-32.4-8.8&#10;&#9;&#9;c-6.1-3.5-13.6-3.5-19.7-0.1c-9,5.1-14.6,17.2-15.5,27.1c-0.2,1.8-0.2,3.7,0.2,5.6c0.4,2,1.4,3.9,1.6,5.9c0.7,6.9-5.3,3.4-8.2,1.1&#10;&#9;&#9;c-1.8-1.5-3.5-3.1-5.1-4.9c-0.8-0.8-6.1-5.3-5.9-6.2C64,195.8,71.1,176.4,82.1,169z"/>
	<path class="st0_polaroid-36" d="M78.4,224.5c-2.4,0-5.5-2.3-6.6-3.1c-1.8-1.5-3.6-3.2-5.2-4.9c-0.2-0.2-0.6-0.6-1.1-1c-4.4-4-5.1-5-5-5.8&#10;&#9;&#9;c2.8-14.3,9.9-33.7,21-41.2l0,0c2.7-2,5.7-3.3,9-3.9c6.5-1,12.6,2.1,18.4,5.2c2.9,1.6,5.9,3,8.9,4.1c9.3,3.2,20.4,1.8,33.1-4.2&#10;&#9;&#9;c4.9-2.3,9.7-5.1,14.3-7.7c5.5-3.3,11.2-6.3,17-9c12.9-5.6,24.8-6.3,34.2-2c0.3,0.1,0.4,0.4,0.4,0.7c-0.8,8.5-0.7,17.1,0.3,25.6&#10;&#9;&#9;c0,0.4-0.2,0.7-0.6,0.8c-0.3,0-0.5-0.1-0.7-0.3c-3-4.9-7.9-8.3-13.5-9.4c-13.1-2.6-30.5,5.3-42.4,13.6c-1,0.7-2,1.4-3,2.1&#10;&#9;&#9;c-3.3,2.6-6.9,4.8-10.7,6.7c-10.9,5-18.9,0-27.5-5.4c-1.8-1.1-3.6-2.3-5.5-3.4c-5.9-3.3-13.1-3.3-19,0&#10;&#9;&#9;c-9.2,5.2-14.3,17.4-15.2,26.6c-0.2,1.8-0.2,3.6,0.2,5.3c0.2,0.8,0.4,1.6,0.7,2.4c0.4,1.2,0.7,2.4,0.9,3.6c0.2,2.3-0.2,3.9-1.4,4.5&#10;&#9;&#9;C79.3,224.4,78.9,224.5,78.4,224.5z M62,209.8c0.3,0.8,3.4,3.6,4.5,4.6c0.5,0.5,1,0.9,1.2,1.1c1.6,1.7,3.3,3.3,5.1,4.8&#10;&#9;&#9;c2.2,1.8,5.2,3.4,6.4,2.7c0.8-0.4,0.8-1.9,0.7-3.1c-0.2-1.1-0.5-2.2-0.9-3.3c-0.3-0.8-0.5-1.7-0.8-2.5c-0.4-1.9-0.4-3.8-0.2-5.8&#10;&#9;&#9;c0.9-9.5,6.3-22.2,15.9-27.7c6.3-3.6,14.1-3.5,20.4,0.1c1.9,1.1,3.8,2.3,5.6,3.4c8.5,5.4,15.9,10,26.1,5.3&#10;&#9;&#9;c3.7-1.9,7.2-4.1,10.5-6.6c1-0.7,2-1.4,3-2.1c12.1-8.4,29.9-16.5,43.4-13.8c5.1,0.9,9.7,3.7,12.9,7.8c-0.7-7.6-0.8-15.2-0.1-22.7&#10;&#9;&#9;c-11.4-4.9-24-1.5-32.6,2.2c-5.8,2.7-11.4,5.6-16.9,8.9c-4.7,2.7-9.5,5.5-14.4,7.8c-13,6.1-24.5,7.6-34.2,4.3&#10;&#9;&#9;c-3.1-1.2-6.2-2.6-9.1-4.2c-5.9-3.1-11.5-6.1-17.6-5.1c-3.1,0.6-5.9,1.9-8.5,3.7l0,0C71.7,176.9,64.7,195.8,62,209.8z M82.1,169&#10;&#9;&#9;L82.1,169z"/>
	<path class="st1_polaroid-36" d="M141,216.2c-12.9-2.8-26.3-11.4-39.3-8.3c-7.3,1.7-14.4,5.3-21.8,5.8c-3.3,0.2-18.5-4-18.5-4&#10;&#9;&#9;s6.4,13.3,14.4,17.3c4.1,2,8.7,2.7,13.2,2c4.7-0.6,8.8-3.5,13.6-4c4.4-0.4,9.2,1.5,13.2,3.1c14.4,5.8,27.4,14.8,43.6,12.5&#10;&#9;&#9;c15.4-2.1,28.9-11.6,39.9-22c1.2-1.2,2.4-2.4,3.6-3.6c-4.2-6.6-2.6-13.1-8.4-11.4c-5.5,1.6-11.5,7.8-17.3,9.9&#10;&#9;&#9;C165.6,217.9,153.1,218.8,141,216.2z"/>
	<path class="st0_polaroid-36" d="M154,241.8c-10.4,0-19.4-4.2-28.8-8.5c-3.2-1.5-6.5-3-9.8-4.4l-0.2-0.1c-4-1.6-8.5-3.4-12.7-3&#10;&#9;&#9;c-2.4,0.4-4.7,1-6.8,2c-2.2,0.9-4.4,1.6-6.7,2c-4.6,0.7-9.3,0-13.6-2.1c-8.1-4.1-14.5-17.1-14.7-17.6c-0.1-0.2-0.1-0.5,0.1-0.8&#10;&#9;&#9;c0.2-0.2,0.5-0.3,0.7-0.2c4.2,1.2,15.6,4.1,18.3,3.9c4.5-0.3,9.1-1.9,13.5-3.3c2.7-0.9,5.5-1.8,8.2-2.5c9-2.1,18.1,1.1,27,4.3&#10;&#9;&#9;c4.1,1.6,8.3,2.9,12.6,4c12,2.6,24.4,1.7,35.9-2.6c2.9-1.3,5.7-2.9,8.3-4.8c3-2.1,6.1-4.2,9.1-5.1c4.3-1.2,5.2,1.7,6.2,5&#10;&#9;&#9;c0.6,2.4,1.6,4.6,2.9,6.7c0.2,0.3,0.2,0.6-0.1,0.9c-1.2,1.2-2.4,2.4-3.6,3.6c-13.6,12.9-27.1,20.3-40.3,22.2&#10;&#9;&#9;C157.6,241.7,155.8,241.8,154,241.8z M103.7,224.4c4.1,0,8.2,1.7,12,3.2l0.2,0.1c3.4,1.4,6.7,2.9,9.9,4.4c10.8,5,21.1,9.8,33.4,8&#10;&#9;&#9;c12.9-1.8,26.2-9.1,39.6-21.8c1.1-1,2.1-2.1,3.2-3.1c-1.2-2.1-2.1-4.3-2.7-6.6c-1.1-3.7-1.7-4.9-4.5-4.1s-5.6,2.8-8.7,4.9&#10;&#9;&#9;c-2.6,2-5.5,3.7-8.6,5c-11.7,4.4-24.5,5.2-36.7,2.6c-4.3-1.1-8.6-2.4-12.8-4c-8.7-3.1-17.6-6.3-26.2-4.3c-2.7,0.6-5.5,1.6-8.1,2.5&#10;&#9;&#9;c-4.5,1.5-9.1,3.1-13.8,3.4c-2.8,0.2-13.2-2.5-17.2-3.6c1.9,3.5,7.2,12.5,13.4,15.6c4,1.9,8.4,2.6,12.7,1.9c2.2-0.4,4.4-1,6.4-1.9&#10;&#9;&#9;c2.3-1,4.7-1.7,7.2-2.1C102.8,224.4,103.3,224.3,103.7,224.4L103.7,224.4z"/>
	<path class="st0_polaroid-36" d="M121.5,248.9l-1,48.9l152,48.4L432.2,285c4.4-1.6,7.2-5.8,7.2-10.5l-0.5-36c0-2.8-1.1-5.5-3.1-7.5l-56.7-71&#10;&#9;&#9;l5-24.8L350,125.1l-3.8-18.7l-49.3-12l-109.5,20.5l11.1,105.5L121.5,248.9z"/>
	<path class="st0_polaroid-36" d="M272.4,347h-0.2l-151.9-48.4c-0.3-0.1-0.5-0.4-0.5-0.7l1-48.9c0-0.3,0.2-0.5,0.5-0.6l76.5-28.4l-11-105&#10;&#9;&#9;c0-0.4,0.2-0.7,0.6-0.8l109.4-20.5c0.1,0,0.2,0,0.3,0l49.3,12c0.3,0.1,0.5,0.3,0.5,0.5l3.7,18.3l33.8,9.9c0.3,0.1,0.6,0.5,0.5,0.8&#10;&#9;&#9;l-5,24.5l56.6,70.7c2.1,2.2,3.2,5,3.2,8l0.5,36c0,4.9-3,9.4-7.6,11.1l-159.8,61.3C272.6,347,272.5,347,272.4,347z M121.2,297.4&#10;&#9;&#9;l151.2,48.1L432,284.4c4.1-1.5,6.8-5.5,6.7-9.8l-0.5-36c0-2.6-1.1-5.2-2.9-7.1l-56.8-71c-0.1-0.2-0.2-0.4-0.1-0.6l4.9-24.2&#10;&#9;&#9;l-33.6-9.9c-0.2-0.1-0.4-0.3-0.5-0.5l-3.7-18.3l-48.8-11.9l-108.6,20.3l11,104.9c0,0.3-0.2,0.6-0.4,0.7l-76.6,28.5L121.2,297.4z"/>
	<path class="st1_polaroid-36" d="M180.3,202.6v-69.7c0-16.1,7.8-19.8,14-20.3s132.7,26,140.5,29.1s8.3,4.2,10.4,5.7s0,119.7,0,119.7&#10;&#9;&#9;s-65.1,28.1-72.9,27.1S124,252.1,121.4,248.9s0-13.5,5.2-16.1S180.3,202.6,180.3,202.6z"/>
	<path class="st0_polaroid-36" d="M272.8,294.9c-0.2,0-0.3,0-0.5,0c-7.7-1-148.5-42-151.4-45.5c-1.2-1.4-1.5-4.2-0.8-7.4c0.7-3.4,2.8-8,6.3-9.8&#10;&#9;&#9;c4.9-2.4,48.8-27.4,53.2-30v-69.3c0-16.3,8-20.4,14.7-21h0.2c7.9,0,132,25.8,140.6,29.2c6.6,2.7,8.1,3.8,9.7,5.1&#10;&#9;&#9;c0.3,0.2,0.6,0.5,0.9,0.7c2.1,1.5,1.1,76,0.3,120.3c0,0.3-0.2,0.5-0.4,0.6C342.9,268.9,282.6,294.9,272.8,294.9z M194.6,113.3h-0.2&#10;&#9;&#9;c-8.9,0.7-13.4,7.3-13.4,19.6v69.7c0,0.3-0.1,0.5-0.4,0.6c-2,1.1-48.5,27.6-53.6,30.2c-2.8,1.4-4.8,5.4-5.5,8.8&#10;&#9;&#9;c-0.6,2.8-0.4,5.1,0.5,6.2c1.6,1.4,30.6,10.6,73.7,23.4c38.7,11.5,73.1,21.2,76.7,21.7c6,0.8,49.5-17.1,72.1-26.8&#10;&#9;&#9;c0.8-45.9,1.5-114.8,0.2-118.8l-0.8-0.7c-1.5-1.2-2.9-2.3-9.3-4.9C326,138.9,202.4,113.3,194.6,113.3z M180.3,202.6L180.3,202.6z"/>
	<path class="st2_polaroid-36" d="M216.7,159.1h-0.2l-23.9-6c-0.3-0.1-0.5-0.4-0.5-0.7v-13c0-0.4,0.3-0.7,0.7-0.7c0.1,0,0.1,0,0.2,0l23.9,5.7&#10;&#9;&#9;c0.3,0.1,0.5,0.4,0.5,0.7v13.3c0,0.2-0.1,0.4-0.3,0.6C217,159,216.9,159.1,216.7,159.1z M193.5,151.8l22.5,5.6v-11.8l-22.5-5.4&#10;&#9;&#9;L193.5,151.8z"/>
	<ellipse class="st3_polaroid-36 targetColor" cx="200.1" cy="183.1" rx="9.5" ry="11.8" style="fill: rgb(104, 225, 253);"/>
	<path class="st2_polaroid-36" d="M350,125.8h-0.2l-34.6-10.4c-0.3-0.1-0.5-0.4-0.5-0.7c0-0.3,0.2-0.6,0.5-0.7l30.8-8.3c0.4-0.1,0.8,0.1,0.9,0.5&#10;&#9;&#9;c0.1,0.4-0.1,0.8-0.5,0.9c0,0,0,0,0,0l-28.5,7.7l32.3,9.7c0.4,0.1,0.6,0.5,0.5,0.9c0,0,0,0,0,0C350.5,125.5,350.3,125.7,350,125.8z&#10;&#9;&#9;"/>
	<path class="st2_polaroid-36" d="M345.3,148.1c-0.4,0-0.7-0.3-0.7-0.7c0-0.3,0.2-0.6,0.5-0.7l38.9-12.3c0.4-0.1,0.8,0.1,0.9,0.5&#10;&#9;&#9;s-0.1,0.8-0.5,0.9l-38.9,12.3C345.4,148.1,345.4,148.2,345.3,148.1z"/>
	<path class="st2_polaroid-36" d="M272.4,347c-0.4,0-0.7-0.3-0.7-0.7v0v-52.1c0-0.4,0.3-0.7,0.7-0.7c0.4,0,0.7,0.3,0.7,0.7v52&#10;&#9;&#9;C273.1,346.6,272.8,347,272.4,347C272.4,347,272.4,347,272.4,347z"/>
	<path class="st2_polaroid-36" d="M261.8,279.3h-0.6c-11.9-1-130.2-38.5-135.2-40.1c-0.4-0.1-0.6-0.5-0.5-0.9c0.1-0.4,0.5-0.6,0.9-0.5&#10;&#9;&#9;c0,0,0.1,0,0.1,0c1.2,0.4,123.1,39,134.9,40s62.8-31.7,66.1-36.5l2.1-94c0-0.4,0.3-0.7,0.7-0.7c0.4,0,0.7,0.3,0.7,0.7c0,0,0,0,0,0&#10;&#9;&#9;l-2.1,94.2c0,0.1,0,0.2-0.1,0.3C326.3,246.4,275.5,279.3,261.8,279.3z"/>
	<path class="st2_polaroid-36" d="M323.4,241.3c-0.1,0-0.1,0-0.2,0l-138.6-36.8c-0.4-0.1-0.6-0.5-0.5-0.9c0,0,0,0,0,0c0.1-0.4,0.5-0.6,0.8-0.5&#10;&#9;&#9;c0,0,0,0,0,0l138.6,36.8c0.4,0.1,0.6,0.5,0.5,0.9c0,0,0,0,0,0C324,241.1,323.7,241.3,323.4,241.3z"/>
	
		<ellipse transform="matrix(0.9992 -3.996804e-02 3.996804e-02 0.9992 -6.6059 10.4001)" class="st0_polaroid-36" cx="256.8" cy="170.4" rx="30.5" ry="42.3"/>
	<path class="st0_polaroid-36" d="M256.6,214.3c-8.1,0-15.7-4.2-21.7-11.9c-6.1-7.9-9.7-18.5-10.1-29.9c-0.9-23.7,12.4-43.4,29.6-44&#10;&#9;&#9;c8.4-0.3,16.4,3.9,22.5,11.9s9.7,18.5,10.1,29.9c0.9,23.7-12.4,43.4-29.6,44L256.6,214.3z M255.2,129.8h-0.8&#10;&#9;&#9;c-16.4,0.6-29.1,19.7-28.2,42.6c0.4,11.1,3.9,21.5,9.8,29.1s13.5,11.6,21.4,11.3c16.4-0.6,29.1-19.7,28.2-42.6&#10;&#9;&#9;c-0.4-11.1-3.9-21.5-9.8-29.1C270.1,133.8,262.9,129.8,255.2,129.8z"/>
	<polygon class="st0_polaroid-36" points="234.8,213.8 257.5,213.6 254.4,129.1 231.9,133.7 &#9;"/>
	<path class="st0_polaroid-36" d="M234.8,214.5c-0.4,0-0.7-0.3-0.7-0.7l-2.9-80.1c0-0.3,0.2-0.6,0.6-0.7l22.5-4.6c0.4-0.1,0.7,0.2,0.8,0.5&#10;&#9;&#9;c0,0,0,0.1,0,0.1l3,84.4c0,0.2-0.1,0.4-0.2,0.5c-0.1,0.1-0.3,0.2-0.5,0.2L234.8,214.5L234.8,214.5z M232.6,134.3l2.8,78.8l21.3-0.2&#10;&#9;&#9;l-3-82.9L232.6,134.3z"/>
	
		<ellipse transform="matrix(0.9994 -3.594604e-02 3.594604e-02 0.9994 -6.0948 8.5001)" class="st1_polaroid-36" cx="233.3" cy="173.8" rx="28.9" ry="40.1"/>
	<path class="st0_polaroid-36" d="M234,214.5c-16,0-29.4-17.6-30.2-39.7c-0.8-22.5,11.8-41.2,28.1-41.8c7.9-0.3,15.6,3.7,21.4,11.3&#10;&#9;&#9;c5.9,7.5,9.2,17.6,9.6,28.4l0,0c0.8,22.5-11.8,41.2-28.1,41.8L234,214.5z M232.6,134.4h-0.7c-15.5,0.6-27.5,18.7-26.8,40.4&#10;&#9;&#9;c0.8,21.4,13.6,38.3,28.9,38.3h0.7c15.5-0.6,27.5-18.7,26.7-40.4l0,0c-0.4-10.6-3.7-20.4-9.3-27.6&#10;&#9;&#9;C246.8,138.2,239.9,134.4,232.6,134.4L232.6,134.4z"/>
	
		<ellipse transform="matrix(0.9994 -3.594579e-02 3.594579e-02 0.9994 -6.0948 8.5001)" class="st3_polaroid-36 targetColor" cx="233.3" cy="173.8" rx="22.8" ry="31.6" style="fill: rgb(104, 225, 253);"/>
	<polygon class="st0_polaroid-36" points="297,147.4 297,177.1 319.6,183.1 319.6,152.1 &#9;"/>
	<path class="st0_polaroid-36" d="M319.6,183.8c-0.1,0-0.1,0-0.2,0l-22.6-6c-0.3-0.1-0.5-0.4-0.5-0.7v-29.7c0-0.4,0.3-0.7,0.7-0.7&#10;&#9;&#9;c0,0,0.1,0,0.1,0l22.6,4.7c0.3,0.1,0.5,0.4,0.5,0.7v31C320.3,183.5,320,183.8,319.6,183.8L319.6,183.8L319.6,183.8z M297.8,176.6&#10;&#9;&#9;l21.2,5.6v-29.5l-21.2-4.4V176.6z"/>
	<path class="st2_polaroid-36" d="M168.5,252c-0.4,0-0.7-0.3-0.7-0.7c0-0.2,0.1-0.4,0.3-0.6l55-36.1c0.3-0.2,0.7-0.2,1,0.1c0,0,0,0,0,0.1&#10;&#9;&#9;c0.2,0.3,0.1,0.8-0.2,1c0,0,0,0,0,0l-55,36.1C168.8,252,168.6,252,168.5,252z"/>
	<path class="st2_polaroid-36" d="M177,255.1c-0.4,0-0.7-0.3-0.7-0.7c0-0.2,0.1-0.4,0.3-0.6l56.4-37.7c0.3-0.2,0.8-0.1,1,0.2&#10;&#9;&#9;c0.2,0.3,0.1,0.7-0.2,0.9L177.4,255C177.3,255.1,177.1,255.1,177,255.1z"/>
	<path class="st2_polaroid-36" d="M186.8,258.1c-0.4,0-0.7-0.3-0.7-0.7c0-0.2,0.1-0.5,0.3-0.6l56-37.1c0.3-0.2,0.7-0.2,1,0.1&#10;&#9;&#9;c0.2,0.3,0.2,0.7-0.1,1c0,0-0.1,0.1-0.1,0.1l-56,37.1C187.1,258.1,186.9,258.1,186.8,258.1z"/>
	<path class="st2_polaroid-36" d="M197.4,261.4c-0.4,0-0.7-0.3-0.7-0.7c0-0.2,0.1-0.5,0.3-0.6l56.1-38.5c0.3-0.2,0.8-0.2,1,0.2c0,0,0,0,0,0&#10;&#9;&#9;c0.2,0.3,0.1,0.8-0.2,1l-56.1,38.5C197.7,261.3,197.5,261.4,197.4,261.4z"/>
	<path class="st1_polaroid-36" d="M249.5,174.4c-0.4,0-0.7-0.3-0.7-0.7c0-16.3-14-23.7-14.2-23.8c-0.3-0.2-0.5-0.6-0.3-0.9&#10;&#9;&#9;c0.2-0.4,0.6-0.5,0.9-0.3c0,0,0,0,0.1,0c0.1,0.1,14.9,7.9,14.9,25C250.3,174.1,250,174.4,249.5,174.4&#10;&#9;&#9;C249.6,174.5,249.5,174.5,249.5,174.4z"/>
</g>
<g id="photo_polaroid-36">
	<path class="st1_polaroid-36" d="M132.9,280.5c0,0-16.8-1.6-40.3,21.8c-18,17.9-8.3,33.7-32.1,52.3l126.2,51c0,0,7.6,1.7,18.4-14.8&#10;&#9;&#9;c12-18.2-9.2-50.8,49-70.6L132.9,280.5z"/>
	<path class="st0_polaroid-36" d="M187.4,406.3c-0.3,0-0.5,0-0.8-0.1l-126.3-51c-0.2-0.1-0.4-0.3-0.4-0.5c0-0.2,0.1-0.5,0.3-0.6&#10;&#9;&#9;C73,344,76,334.7,78.9,325.6c2.4-7.6,5-15.6,13.3-23.8c23.4-23.3,40.1-22,40.8-22h0.1l121.2,39.7c0.3,0.1,0.5,0.4,0.5,0.7&#10;&#9;&#9;c0,0.3-0.2,0.6-0.5,0.7c-40.3,13.7-42,33.2-43.6,50.5c-0.7,7.3-1.3,14.2-5,19.8C196.7,405,189.7,406.3,187.4,406.3z M187,404.9&#10;&#9;&#9;c0.1,0,7.3,1.1,17.5-14.5c3.5-5.3,4.1-12.1,4.8-19.2c1.5-16.5,3.4-37,42.6-51l-119.1-39c-1.2-0.1-17.5-0.5-39.7,21.6&#10;&#9;&#9;c-8,8-10.4,15.4-12.9,23.2c-2.9,9-5.9,18.4-18.2,28.3L187,404.9z"/>
	<path class="st3_polaroid-36 targetColor" d="M141.5,285.7c0,0-27.3,5.7-38.1,19.7c-17.2,22.4-10.2,31.8-23.4,44.2L186.8,392c0,0,8.1-5.9,11.3-19.5&#10;&#9;&#9;S201,347.5,210,336s30.7-20.2,30.7-20.2" style="fill: rgb(104, 225, 253);"/>
</g>
</svg>