<svg id="_0001_analysis" xmlns="http://www.w3.org/2000/svg" xmlns:xlink="http://www.w3.org/1999/xlink" viewBox="0 0 500 500" data-imageid="presentation-4-21" imageName="Presentation 4" class="illustrations_image" style="width: 166px;"><defs><style>.cls-1_presentation-4-21{fill:#000405;opacity:.05;}.cls-1_presentation-4-21,.cls-2_presentation-4-21,.cls-3_presentation-4-21,.cls-4_presentation-4-21,.cls-5_presentation-4-21,.cls-6_presentation-4-21,.cls-7_presentation-4-21,.cls-8_presentation-4-21,.cls-9_presentation-4-21,.cls-10_presentation-4-21,.cls-11_presentation-4-21,.cls-12_presentation-4-21,.cls-13_presentation-4-21{stroke-width:0px;}.cls-1_presentation-4-21,.cls-3_presentation-4-21,.cls-4_presentation-4-21{isolation:isolate;}.cls-2_presentation-4-21{fill:url(#linear-gradient);}.cls-3_presentation-4-21{opacity:.18;}.cls-3_presentation-4-21,.cls-4_presentation-4-21,.cls-13_presentation-4-21{fill:#64e0fd;}.cls-4_presentation-4-21{opacity:.4;}.cls-5_presentation-4-21{fill:url(#linear-gradient-4-presentation-4-21);}.cls-6_presentation-4-21{fill:url(#linear-gradient-2-presentation-4-21);}.cls-7_presentation-4-21{fill:url(#linear-gradient-3-presentation-4-21);}.cls-8_presentation-4-21{fill:url(#linear-gradient-5-presentation-4-21);}.cls-9_presentation-4-21{fill:#231f20;}.cls-10_presentation-4-21{fill:#fff;}.cls-11_presentation-4-21{fill:#ea9c8f;}.cls-12_presentation-4-21{fill:#ffb4a3;}</style><linearGradient id="linear-gradient-presentation-4-21" x1="279.96" y1="442.73" x2="309.28" y2="184.7" gradientUnits="userSpaceOnUse"><stop offset="0" stop-color="#231f20" stop-opacity="0"/><stop offset="1" stop-color="#231f20"/></linearGradient><linearGradient id="linear-gradient-2-presentation-4-21" x1="296.74" y1="204.27" x2="297.61" y2="142.15" xlink:href="#linear-gradient-presentation-4-21"/><linearGradient id="linear-gradient-3-presentation-4-21" x1="372.64" y1="2572.03" x2="367.6" y2="2588.63" gradientTransform="translate(-92 2999.84) scale(1 -1)" xlink:href="#linear-gradient-presentation-4-21"/><linearGradient id="linear-gradient-4-presentation-4-21" x1="405.87" y1="2569.44" x2="396.29" y2="2586.36" gradientTransform="translate(-92 2999.84) scale(1 -1)" xlink:href="#linear-gradient-presentation-4-21"/><linearGradient id="linear-gradient-5-presentation-4-21" x1="101.44" y1="101.2" x2="321.35" y2="266.37" xlink:href="#linear-gradient-presentation-4-21"/></defs><g id="background_presentation-4-21"><path class="cls-3_presentation-4-21" d="M419.07,401.42c-192.01,166.66-467.5,47.46-375.39-115.2h215.98c6.17,0,11.17-5,11.17-11.17h0V101.12c6.35-8.57,11.74-17.81,16.08-27.56,17.63-39.83,63.32-59.7,103.82-43.6,105.65,42.03,107.46,302.79,28.34,371.46Z"/></g><g id="shadow_presentation-4-21"><ellipse id="Oval_presentation-4-21" class="cls-1_presentation-4-21" cx="288.36" cy="426.71" rx="69.61" ry="8.58"/></g><g id="character_presentation-4-21"><path id="Shape_presentation-4-21" class="cls-9_presentation-4-21" d="M288.6,421.19c0,1.16-12.01,8.01-23.74,8.01s-6.21-11.38-2.2-11.26h4l2.24-1.12,8.61-4.41,1.28-2.76s6.84,1.54,8-.25l1.12,7.74v1.4c.44.81.68,1.72.68,2.65Z"/><path class="cls-13_presentation-4-21" d="M287.92,418.54c.43.82.65,1.73.64,2.65,0,1.16-12,8.01-23.73,8.01s-6.21-11.38-2.2-11.26h4l2.24-1.12,18.89.32.16,1.4Z"/><path class="cls-13_presentation-4-21" d="M318.06,421.79c-5.39,6.84-13.45,11.06-22.14,11.58-12,0-6.2-11.26-2.2-11.26,1.11.02,2.23-.08,3.32-.32l4.92-4.41,15.18.28v1.48c.52.79.84,1.7.92,2.65Z"/><path class="cls-13_presentation-4-21" d="M263.9,290.41l12,118.87s8.01,2.88,11.57,0l4.96-93.62,14.05,94.42s6.57,4.25,10.61-.56l5.25-119.71s-41.75,8.9-58.44.6Z"/><path class="cls-2_presentation-4-21" d="M263.9,290.41l12,118.87s8.01,2.88,11.57,0l4.96-93.62,14.05,94.42s6.57,4.25,10.61-.56l5.25-119.71s-41.75,8.9-58.44.6Z"/><path class="cls-13_presentation-4-21" d="M334.87,263.24c-8.77,7.26-12.77,3.77-12.77,3.77l.28,22.8s-45.96,11.18-58.48.6l1.88-47.85,2.83-21.6-20.53,14.96c-3.67,2.74-8.37,3.71-12.83,2.63-3.11-.81-6.05-2.72-6.98-6.91-2.24-9.98-.77-50.09-.77-50.09l13.01-4.01,4.77,32.06s18.92-15.9,27.31-18.99v-.16l19.45-9.1,13.97-3.33c1.57,1.22,3.24,2.29,5,3.21,4.2,2.48,8.79,4.24,13.57,5.21,6.29.68,8.92,12.47,9.77,18.04s6.65,33.16,6.65,33.16c0,0,2.63,18.36-6.14,25.61Z"/><path class="cls-6_presentation-4-21" d="M306.13,177.04c-2.77,6.01-9.89,8.63-15.9,5.85-.17-.08-.34-.16-.5-.25,0,0-9.93,17.28,4.28,15.23,7.53-1.08,12.85-10.33,13.65-18.72l-1.52-2.12Z"/><path class="cls-1_presentation-4-21" d="M305.49,241.36c.51-.55,2.44-.48,3.17-.3,3.26.83,12.29,3.07,13.36,2.39,1.27-.81-3.53-33.63-3.53-33.63,0,0-1.08,18.16-24.34,26.88-11.33,4.25,7.76,10.05,7.76,10.05l3.56-5.39Z"/><path class="cls-1_presentation-4-21" d="M305.29,256.98c4.61,2.63,14.33,8.19,16.77,9.98v15.03s-43.01-6.41-43.01-9.54-13.77-23.61-13.77-23.61l.28-2.57,37.19-4.41s1.77-2.11-.94,11.2c-.32,1.64,2.02,3.1,3.48,3.91Z"/><polygon class="cls-10_presentation-4-21" points="297.2 238.95 294.2 223.92 260.94 227.17 268.19 272.26 301.45 269.74 297.2 238.95"/><path class="cls-12_presentation-4-21" d="M306.85,163.17s-.15,2.55-.32,5.88c-.15,2.8-.33,6.14-.48,8.99-.26,4.76-2.31,9.24-5.74,12.55-2,2.04-6.75,5.84-10.39,4.49-1.75-.65-1.82-2.88-1.45-4.21,1.47-4.42,1.74-9.15.77-13.71-2.23-5.69,17.62-13.99,17.62-13.99Z"/><path class="cls-11_presentation-4-21" d="M306.85,163.17s-.15,2.55-.32,5.88c-1.39,3.11-2.7,5.64-3.41,6.91-1.44,2.55-7.36,6.57-13.29,7.37.06-2.06-.12-4.13-.55-6.14-2.27-5.72,17.57-14.02,17.57-14.02Z"/><path class="cls-12_presentation-4-21" d="M289.55,129.34c-10.47.64-18.44,9.65-17.79,20.12.03.44.07.88.13,1.32.59,7.72,2.57,15.26,5.84,22.27,6.21,10.58,21.86,1.89,24.34-2.48,2.48-4.37,12.06-24.04,8.02-29.61-2.76-3.79-10.41-12.02-20.54-11.62Z"/><path class="cls-9_presentation-4-21" d="M273.03,121.97l3.13,1.64c-3.82-.1-7.47,1.62-9.81,4.65-2.9,2.95-4.56,6.92-4.61,11.06l5.48-2.6s-.4,6.74,9.93,7.26c10.33.52,21.29.92,21.29.92l-3.52-4.85s6.52,2.61,7.57,4.97c1.01,3.8,1.73,7.68,2.16,11.59,0,0,2.6-6.61,3.6-5.18s-1.12,7.46-2.48,8.82-1.12,5.29-1.24,5.61,6.41-5.09,6.72-6.91,6.85-20.74,2.6-24.65l2.58-.2c-1.53-1.03-3.26-1.7-5.08-1.97,0,0-17.03-22.3-38.32-10.16Z"/><path class="cls-13_presentation-4-21" d="M266.66,417.98s4.01,2.04,4.25,5.21l.32,1.73s15.05-2.85,16.73-6.34l-.72-5.28c-1.73,1.95-4.34,2.88-6.91,2.48-3.56-1.08-2.88-3.36-2.88-3.36l-10.78,5.57Z"/><path class="cls-13_presentation-4-21" d="M298.45,422.51l-1.32-.68,9.81-8.78s2.12,5.13,9.56,1.01l.92,5.25c-4.28,4.52-9.7,7.81-15.69,9.5-.05-2.49-1.27-4.82-3.28-6.29Z"/><path class="cls-7_presentation-4-21" d="M266.66,417.98s4.01,2.04,4.25,5.21l.32,1.73s15.05-2.85,16.73-6.34l-.72-5.28c-1.73,1.95-4.34,2.88-6.91,2.48-3.56-1.08-2.88-3.36-2.88-3.36l-10.78,5.57Z"/><path class="cls-5_presentation-4-21" d="M298.45,422.51l-1.32-.68,9.81-8.78s2.12,5.13,9.56,1.01l.92,5.25c-4.28,4.52-9.7,7.81-15.69,9.5-.05-2.49-1.27-4.82-3.28-6.29Z"/><path class="cls-9_presentation-4-21" d="M286.27,296.3s1.97,16.04,6.33,19.36l-1.36-18.84-4.97-.52Z"/><polygon class="cls-9_presentation-4-21" points="314.51 291.49 316.38 410 322.34 289.81 314.51 291.49"/><path class="cls-12_presentation-4-21" d="M299.01,254.68c-4.21,0-8.38-.73-12.33-2.17-2.55-.75-4.01-3.43-3.25-5.98.04-.13.08-.26.13-.39,1.72-3.81,5.14-6.58,9.22-7.49,4.39-.05,8.73.87,12.73,2.68,2.43.91,3.66,3.61,2.75,6.04-.21.57-.53,1.09-.94,1.53-2.21,2.62-5.07,4.61-8.29,5.78Z"/><path class="cls-12_presentation-4-21" d="M240.52,177.56s-1-10.02-1.24-13.06.88-8.9-2.24-10.75c-1.22.87-2.57,1.55-4,2-1.48.24-6.77-7.01-10.37,0-3.6,7.01-2.49,13.26-.48,15.55,2.13,3.23,3.93,6.67,5.38,10.26l12.96-4.01Z"/><path class="cls-9_presentation-4-21" d="M307.65,410.58l-.71,2.44s3,6.21,9.56,1.01v-3.69c-2.68,1.71-6.08,1.8-8.85.24Z"/><path class="cls-12_presentation-4-21" d="M296.4,234.94c.94.22,1.8.72,2.44,1.44,1.09,1.4,2.25,2.73,3.48,4.01l-5.09-1.44-.83-4.01Z"/></g><g id="board_presentation-4-21"><g id="V3_presentation-4-21"><g id="v3.v1_presentation-4-21"><g id="request_presentation-4-21"><rect class="cls-4_presentation-4-21" x="31.74" y="88.26" width="238.81" height="203.59" rx="11.18" ry="11.18"/><path class="cls-9_presentation-4-21" d="M188.37,150.46l-44.48,20.57v-48.55l3.07-5.16c17.98.77,36.59,12.63,44.48,27.99l-3.07,5.16Z"/><rect id="Rectangle-path_presentation-4-21" class="cls-13_presentation-4-21" x="31.74" y="312.98" width="238.89" height="10.02" rx="4.93" ry="4.93"/></g></g></g><path class="cls-9_presentation-4-21" d="M191.46,180.06c0,27.24-22.08,49.31-49.31,49.31s-49.31-22.08-49.31-49.31c0-1.01,0-2.03.08-3.02,1.66,27.19,25.06,47.88,52.24,46.22,24.87-1.52,44.69-21.35,46.22-46.22.05.99.08,2,.08,3.02Z"/><path class="cls-13_presentation-4-21" d="M191.46,174.03c0,1.03,0,2.04-.08,3.07-1.66,27.19-25.05,47.88-52.24,46.22-24.87-1.52-44.69-21.35-46.22-46.22-.05-1-.08-2.01-.08-3.07,0-27.23,22.08-49.3,49.31-49.3v48.53l44.49-20.58c3.19,6.66,4.84,13.96,4.82,21.34Z"/><path class="cls-13_presentation-4-21" d="M191.46,145.3l-44.48,20.57v-48.55c18.98,0,36.27,10.88,44.48,27.99Z"/><path class="cls-8_presentation-4-21" d="M191.46,145.3l-44.48,20.57v-48.55c18.98,0,36.27,10.88,44.48,27.99Z"/></g></svg>