<svg version="1.1" id="Layer_1" xmlns="http://www.w3.org/2000/svg" xmlns:xlink="http://www.w3.org/1999/xlink" x="0px" y="0px" viewBox="0 0 500 500" style="width: 166px;" xml:space="preserve" data-imageid="presentation-60-a9f63" imageName="Presentation" class="illustrations_image">
<style type="text/css">
	.st0_presentation-60-a9f63{fill:#F4E4D9;}
	.st1_presentation-60-a9f63{fill:url(#SVGID_1_);}
	.st2_presentation-60-a9f63{fill:url(#SVGID_00000086664044863990067740000002023847293970702256_);}
	.st3_presentation-60-a9f63{fill:url(#SVGID_00000088105609825203405860000016982164466372125374_);}
	.st4_presentation-60-a9f63{fill:#68E1FD;}
	.st5_presentation-60-a9f63{fill:#F2F2F2;}
	.st6_presentation-60-a9f63{fill:#FFAC99;}
	.st7_presentation-60-a9f63{fill:#FFC36C;}
	.st8_presentation-60-a9f63{fill:#311E69;}
	.st9_presentation-60-a9f63{fill:#D86044;}
	.st10_presentation-60-a9f63{fill:#EA7554;}
	.st11_presentation-60-a9f63{fill:#E09B41;}
	.st12_presentation-60-a9f63{fill:none;}
	.st13_presentation-60-a9f63{opacity:0.36;fill:#311E69;enable-background:new    ;}
	.st14_presentation-60-a9f63{fill:#146666;}
	.st15_presentation-60-a9f63{fill:url(#Shadow__x23_2_00000126304440366098490130000005845184775435607447_);}
</style>
<polygon id="Base_presentation-60-a9f63" class="st0_presentation-60-a9f63" points="46.9,313.1 276.3,445.6 462.9,336.5 235.3,204.7 "/>
<g id="Shadow_00000162318318083626708990000004510464531230756280__presentation-60-a9f63">
	
		<linearGradient id="SVGID_1_-presentation-60-a9f63" gradientUnits="userSpaceOnUse" x1="329.0681" y1="317.4855" x2="189.8142" y2="148.3916" gradientTransform="matrix(1 0 0 -1 0 502)">
		<stop offset="0" style="stop-color:#E09B41"/>
		<stop offset="1" style="stop-color:#F4E4D9"/>
	</linearGradient>
	<path class="st1_presentation-60-a9f63" d="M233.2,238.7C212.4,251.8,106.3,320,83,332.8c-0.5,0.3-0.5,0.9,0,1.2l108.6,62.7c0.2,0.1,0.4,0.1,0.6,0&#10;&#9;&#9;l167.9-99.3c-1.2-16.6,0.5,0.2,0,0c-16.2-8.1-115.1-48.8-126.1-58.6C233.8,238.6,233.5,238.6,233.2,238.7z"/>
	
		<linearGradient id="SVGID_00000134947488786039191080000004375476376943604125_-presentation-60-a9f63" gradientUnits="userSpaceOnUse" x1="180.6154" y1="241.3615" x2="131.2269" y2="181.3898" gradientTransform="matrix(1 0 0 -1 0 502)">
		<stop offset="0" style="stop-color:#E09B41"/>
		<stop offset="1" style="stop-color:#F4E4D9"/>
	</linearGradient>
	<path style="fill:url(#SVGID_00000134947488786039191080000004375476376943604125_);" d="M166.9,277.8c-20,12.6-49.8,26.7-70.9,38&#10;&#9;&#9;l32.6,24.9l60.6-42.9C177.7,292.3,176,286.8,166.9,277.8z"/>
	
		<linearGradient id="SVGID_00000054954983873480043660000008139968770297061290_-presentation-60-a9f63" gradientUnits="userSpaceOnUse" x1="351.2482" y1="151.5513" x2="304.9951" y2="95.3869" gradientTransform="matrix(1 0 0 -1 0 502)">
		<stop offset="0" style="stop-color:#E09B41"/>
		<stop offset="1" style="stop-color:#F4E4D9"/>
	</linearGradient>
	<path style="fill:url(#SVGID_00000054954983873480043660000008139968770297061290_);" d="M333.5,374.3&#10;&#9;&#9;c-20,12.6-42.4,14.8-63.5,26.2l32.6,24.9L362,386C350.5,380.5,342.6,383.3,333.5,374.3z"/>
</g>
<g id="Character_Female_presentation-60-a9f63">
	<polyline class="st4_presentation-60-a9f63 targetColor" points="218.6,99.6 214.7,81.4 239.6,76.6 247,114.1 221.1,119.2 &#9;" style="fill: rgb(104, 225, 253);"/>
	<polygon class="st5_presentation-60-a9f63" points="232,86.7 230.9,81.4 238.1,80 240.2,90.9 233.2,92.3 &#9;"/>
	<circle class="st5_presentation-60-a9f63" cx="224.2" cy="90" r="5.3"/>
	<path class="st6_presentation-60-a9f63" d="M210.3,112.3c0,0,1.3-7.7,1.8-9.8s3.9-5.8,5.5-7.1c1.9-1.6,6.5-4.3,6.7-2.6s-4.7,6.7-4.7,6.7s1.6,7.8,0.5,11.6&#10;&#9;&#9;c-0.6,2.2-1.6,4.2-2.9,6.1"/>
	<path class="st7_presentation-60-a9f63" d="M208.3,111.8c-3.7,4.3-10,13.6-10,13.6s-6.2-11.2-9.3-20.8S178.2,95,178.2,95l5.3,42.7c0,0,5.9,8.7,16.9,4.6&#10;&#9;&#9;c9-3.4,17.5-18.8,19.2-25.9C216.1,114.3,212.2,112.7,208.3,111.8z"/>
	<path class="st8_presentation-60-a9f63" d="M167.8,309.5c-1.1-2.7-3.7-5.1-5.6-7.2c-2.3-2.5-3.7-4.3-4.5-7.9c-0.4-1.6,1.6-21.2,2.1-21.1&#10;&#9;&#9;c-4.9-1-12.4-3.2-14.9-7.6c-2,9.4-6.1,30.7-5.5,31.9c0.8,1.5,4.9,3.8,4.9,3.8l1.4-11.6l0.3,11.4c0.3,1,0.8,1.9,1.5,2.6&#10;&#9;&#9;c0.8,1.1,2.7,1.9,3.9,2.6c2.6,1.7,5.4,3,8.3,4c2.1,0.6,7,1.9,8.3-0.7C167.8,309.6,167.8,309.5,167.8,309.5z"/>
	<path class="st8_presentation-60-a9f63" d="M189.1,297.6c-1.1-2.7-3.7-5.1-5.7-7.2c-2.3-2.5-3.7-4.3-4.5-7.9c-0.4-1.6,1.6-21.2,2.1-21.1&#10;&#9;&#9;c-4.9-1-12.4-3.2-14.9-7.6c-2,9.4-6.1,30.7-5.5,31.9c0.8,1.5,4.9,3.8,4.9,3.8l1.4-11.6l0.4,11.4c0.3,1,0.8,1.9,1.5,2.6&#10;&#9;&#9;c0.8,1.1,2.7,1.9,3.9,2.6c2.6,1.7,5.4,3,8.3,4c2.1,0.6,7,1.9,8.3-0.6L189.1,297.6z"/>
	<path class="st9_presentation-60-a9f63" d="M185.8,154.5c-17.3-1.7-21.5-4.8-22.8,9.5c5.6,2.1,4.2,55.4,4.2,55.4c-3.5,14.5-6.3,36.2-6.3,36.3&#10;&#9;&#9;c-1.2,9.1,20.8,23,24.2,10.2c2.5-16.7,4-33.6,5.6-50.4c0.8-8.2,1.2-16.4,1.3-24.6C190.5,178.6,187.8,166.7,185.8,154.5z"/>
	<path class="st10_presentation-60-a9f63" d="M178,165.3c0.2-5.8-5.4-7.5-10.2-7.8c-3.6-0.1-7.1,0.1-10.7,0.7c-1.9,0.3-3.8,0.4-5.6,0.7&#10;&#9;&#9;c-1.1,0.1-2.1,0.4-3.1,0.8c-1.6,0.8-1.2,3.1-1.2,4.7c0,3,0.2,6.1,0.3,9.1c0.2,6.9,0.5,13.7,0.6,20.6s-0.3,13.9-0.3,20.9&#10;&#9;&#9;c-0.5,8.6-2.3,17-3.2,25.5c-1.1,10.4-1.9,20.9-2.6,31.3c3.2,3.5,7.8,5.3,12.5,6c3.3,0.6,6.8,0.2,9.9-1.1&#10;&#9;&#9;c4.9-15.6,11.2-54.5,13.6-71.9C180.5,186.9,178,165.3,178,165.3z"/>
	<path class="st7_presentation-60-a9f63" d="M187,120.6c-0.4-12.4-0.9-30.5-18.2-26.4c-0.4,0.1-0.8,0.1-1.1,0c-5.4,2.3-10.1,5.8-13.8,10.3&#10;&#9;&#9;c-8.4,10.7-6.8,58-6.8,58c13.1,4.9,27.8,3.7,39.9-3.4C187.1,146.2,187.4,133.4,187,120.6z"/>
	<path class="st7_presentation-60-a9f63" d="M169.4,178.8c5-3.4,5.9-3.7,10.4-7.7c-3.2-8.4-14.2-33.1-15.8-43.4c-1.9-12.6-1-17.8-0.8-18.5l-17.1-0.4&#10;&#9;&#9;c-9,34.2,10.9,62.3,18.6,72.8C165.3,181.2,168.9,179.2,169.4,178.8z"/>
	<path class="st6_presentation-60-a9f63" d="M198.9,189.3c-0.3-2.2-10.8-4.8-10.8-4.8s7.2,0.6,6.4-1.8s-9.5-0.8-11.5-2.2c-1.5-1.1-3.6-6.6-4.5-9.4&#10;&#9;&#9;c-2.8,2.4-5.6,4.6-8.6,6.8c1.6,3.7,3.7,8.5,4.2,10c0.8,2.6,12,8.4,13.4,8.8c3.1,0.9,2.3-1.5,2.3-1.5s3.4,2.1,4.4,1.5&#10;&#9;&#9;c1.8-1.1-0.2-3.1-0.2-3.1s2.6,1.7,4.2,0.2s-2.3-3-2.3-3S199.2,191.5,198.9,189.3z"/>
	<path class="st6_presentation-60-a9f63" d="M178.8,74.5c0,0,5.3,21.3-3.4,24.6c-7.3,2.7-12.9-5-14.1-9.9c-1.5-5.7,2.7-13.1,7-17&#10;&#9;&#9;C172.1,68.7,177.4,68.8,178.8,74.5z"/>
	<path class="st9_presentation-60-a9f63" d="M167.9,85.1c0,0,0.1-4.2,0.8-3.5s-0.6,3.7,1.8,3.8s8.9,0.1,12.6-4.5c2.3-2.9-1.1-13.4-9.3-15&#10;&#9;&#9;c-6.1-1.2-12-0.1-16.1,4.6c-3,3.5-4.5,8.1-5.2,12.6c-1.1,6.5-1.3,12.4-6.9,16.8c-2.4,1.9-5.4,4.5-4.3,7.9c0.9,2.4,2.8,4.3,5.2,5.3&#10;&#9;&#9;s5.4,1.5,5.5,4.7c0.1,5.5,7.7,11.4,15.6,6.7s6.4-13.3,1.2-17S163.3,89.6,167.9,85.1z"/>
	<path class="st6_presentation-60-a9f63" d="M166.6,89.1c0,0,0-3.6-2.2-3.1s-1.4,5.2,1.1,6.6"/>
	<path class="st11_presentation-60-a9f63" d="M152.2,161.2c-2.1-4.3-3.8-8.7-5.2-13.3c0,0-0.1,6-0.1,9.2C148.6,158.6,150.4,160,152.2,161.2z"/>
	<path class="st11_presentation-60-a9f63" d="M165.9,135.1c0,0,7,20.6,10.5,28.3l1.9-0.5C178.2,162.9,167,139.1,165.9,135.1z"/>
	<path class="st11_presentation-60-a9f63" d="M185.7,119.8c0,0,2.4,21.9,1.2,39.2c0,0-1.6-19-1.6-21.4S185.7,119.8,185.7,119.8z"/>
	<polygon class="st5_presentation-60-a9f63" points="234.5,100.1 233.4,94.8 240.6,93.4 242.8,104.3 235.7,105.7 &#9;"/>
	<line class="st12_presentation-60-a9f63" x1="221.8" y1="98.6" x2="231.1" y2="96.7"/>
	<path class="st5_presentation-60-a9f63" d="M221.9,99l8.1-1.7l1.2-0.3c0.5-0.1,0.3-0.8-0.2-0.7l-8.1,1.7l-1.1,0.2C221.3,98.3,221.5,99.1,221.9,99&#10;&#9;&#9;L221.9,99z"/>
	<line class="st12_presentation-60-a9f63" x1="222.2" y1="101.5" x2="231.4" y2="99.5"/>
	<path class="st5_presentation-60-a9f63" d="M222.3,101.8l8.1-1.7l1.1-0.2c0.5-0.1,0.3-0.8-0.2-0.7l-8.1,1.7l-1.2,0.2C221.6,101.2,221.8,101.9,222.3,101.8&#10;&#9;&#9;L222.3,101.8z"/>
	<line class="st12_presentation-60-a9f63" x1="223.6" y1="107.8" x2="232.9" y2="105.9"/>
	<path class="st5_presentation-60-a9f63" d="M223.7,108.2l8.1-1.7l1.1-0.2c0.5-0.1,0.3-0.8-0.2-0.7l-8.1,1.7l-1.2,0.2C223.1,107.6,223.3,108.3,223.7,108.2&#10;&#9;&#9;L223.7,108.2z"/>
	<line class="st12_presentation-60-a9f63" x1="222.8" y1="104.7" x2="232.1" y2="102.7"/>
	<path class="st5_presentation-60-a9f63" d="M222.9,105l8.1-1.7l1.2-0.2c0.5-0.1,0.3-0.8-0.2-0.7l-8.1,1.7l-1.2,0.2C222.2,104.4,222.4,105.1,222.9,105z"/>
</g>
<g id="Table_presentation-60-a9f63">
	<path class="st8_presentation-60-a9f63" d="M354,203.8c-1.3,1.4-2.7,2.8-4,4.1c-0.3,1.6-1.2,3.1-2.5,4.2c-0.6,0.5-1.2,1.1-1.8,1.6l13,87.7&#10;&#9;&#9;c0.4,2.6,2.8,4.4,5.5,4.1s4.4-2.8,4.1-5.5l0,0L354,203.8z"/>
	<path class="st8_presentation-60-a9f63" d="M137.5,204.5l-29.5,107c-0.6,2.6,1,5.2,3.6,5.8c2.5,0.6,5-0.8,5.7-3.2l32.1-116.3&#10;&#9;&#9;C145.6,200.4,141.7,202.7,137.5,204.5z"/>
	<path class="st8_presentation-60-a9f63" d="M236.1,215.6l4.3,0.3c1.5,0.1,2.6,1.4,2.4,2.9L230,378.7c-0.1,1.5-1.4,2.6-2.9,2.4l-4.3-0.3&#10;&#9;&#9;c-1.5-0.1-2.6-1.4-2.4-2.9L233.3,218C233.4,216.6,234.7,215.5,236.1,215.6z"/>
	<path class="st4_presentation-60-a9f63 targetColor" d="M380.9,208.6l-115.6-66.9c-5.3-3-11.8-3-17.1,0l-135.6,78.1c-0.8,0.5-1.5,1.1-2.1,1.8l-1.9-1.9v6.3&#10;&#9;&#9;c0,0.5,0,0.9,0,1.4l0,0l0,0c0.2,2.6,1.7,4.9,4,6.2l129.5,74.8c5.3,3,11.8,3,17.1,0l121.6-70.2c8.2-4.7,11-15.2,6.2-23.3&#10;&#9;&#9;C385.6,212.3,383.5,210.1,380.9,208.6z" style="fill: rgb(104, 225, 253);"/>
	<path class="st13_presentation-60-a9f63" d="M380.9,208.6l-115.6-66.9c-5.3-3-11.8-3-17.1,0l-135.6,78.1c-0.8,0.5-1.5,1.1-2.1,1.8l-1.9-1.9v6.3&#10;&#9;&#9;c0,0.5,0,0.9,0,1.4l0,0l0,0c0.2,2.6,1.7,4.9,4,6.2l129.5,74.8c5.3,3,11.8,3,17.1,0l121.6-70.2c8.2-4.7,11-15.2,6.2-23.3&#10;&#9;&#9;C385.6,212.3,383.5,210.1,380.9,208.6z"/>
	<path class="st4_presentation-60-a9f63 targetColor" d="M112.7,227.3l129.5,74.8c5.3,3,11.8,3,17.1,0L381,231.9c8.2-4.7,10.9-15.2,6.2-23.3c-1.5-2.6-3.6-4.7-6.2-6.2&#10;&#9;&#9;l-115.6-66.9c-5.3-3-11.8-3-17.1,0l-135.6,78.1c-3.8,2.2-5.2,7.1-3,10.9C110.4,225.6,111.4,226.6,112.7,227.3z" style="fill: rgb(104, 225, 253);"/>
</g>
<polygon id="Paper_presentation-60-a9f63" class="st5_presentation-60-a9f63" points="312.3,246.1 273.8,224.1 300.2,208.8 338,231.3 "/>
<polygon id="Big_Paper_presentation-60-a9f63" class="st5_presentation-60-a9f63" points="141.6,214.6 188.1,241.2 276.6,190 230.4,163.4 "/>
<g id="Character_Male_presentation-60-a9f63">
	<path class="st6_presentation-60-a9f63" d="M319.8,191.2c0,0,4.4-0.8,5.4-2.2s0-2.2,0-2.2s4.3-2,3.6-3.4s-4.3-4.9-6.6-4.9s-9.8,7.6-9.8,7.6"/>
	<path class="st9_presentation-60-a9f63" d="M314.4,384.9c-0.1,0.9-0.8,1.5-1.7,1.5c-1.5,0.1-16-6.1-19.5,2.3c-0.4,1.1,0,2.3,1,2.9&#10;&#9;&#9;c3.5,2.2,12.6,7.5,23.8,8.6c2.9,0.6,5.9,0.2,8.5-1.1l-0.7-15.9L314.4,384.9z"/>
	<path class="st9_presentation-60-a9f63" d="M349.4,377.5c0,0-13.5-8.8-15.9-3.2c-1.8,4.3,14.3,16.9,20.3,17.9s6.8-5.2,6.8-5.2l-0.2-10.2"/>
	<path class="st14_presentation-60-a9f63" d="M322.9,249.2c0,0-13.5,29.2-13.3,134.5c0,0,2.8,7.3,22.3,2.3l7.9-94.1l3.4,86.8c0,0,9.2,6.8,23.5-1.4&#10;&#9;&#9;c0,0-3.2-116.1-11-136.9"/>
	<path class="st9_presentation-60-a9f63" d="M356.4,243.9c3.4-14.3,10.4-51.4,2.9-57c-6.5-4.9-21.7,0.4-33.3,8.2c-9.5,6.4-5.6,43.8-4,56.8&#10;&#9;&#9;C334.6,253.5,346.4,251.3,356.4,243.9z"/>
	<path class="st9_presentation-60-a9f63" d="M359,186.8c0,0,4.8,2.4,6.6,10.6s5,29,0.1,34.6s-13.3-3.1-13.9-3.6"/>
	<path class="st9_presentation-60-a9f63" d="M331.6,191.9c0,0-17.6,9.1-18.1,9.4s8.3-6.8,8.3-6.8s-1-12.3-10.2-9.4c0,0-29.6,22.7-13.1,36.9&#10;&#9;&#9;c7.9,6.8,33.2-4,33.2-4"/>
	<path class="st6_presentation-60-a9f63" d="M328,166c0,0-0.3,19,5,19.5s8.5-1.9,10.4-5.4"/>
	<path class="st6_presentation-60-a9f63" d="M335.6,183.1v9.1c0,0,4.9,1.9,11.6-2.7v-7.4"/>
	<path class="st9_presentation-60-a9f63" d="M328.9,169.5c0,0-6.5-6.7-2.2-12.4s9-2.7,9-2.7s1-2.5,6-3s7,4.5,9,5.7s5.2,4.9,5.5,7.9s-4.2,20-9.5,21.2&#10;&#9;&#9;S334.6,189.4,328.9,169.5z"/>
</g>
<g id="Calendar_presentation-60-a9f63">
	<polygon class="st5_presentation-60-a9f63" points="241.8,269.2 269.9,252.9 263.4,223 233.6,238.5 &#9;"/>
	<polygon class="st8_presentation-60-a9f63" points="233.6,238.5 225.5,260.7 241.8,269.2 &#9;"/>
</g>
<linearGradient id="Shadow__x23_2_00000073688151090843899870000011090479195480855722_-presentation-60-a9f63" gradientUnits="userSpaceOnUse" x1="300.4777" y1="345.0052" x2="265.7494" y2="302.835" gradientTransform="matrix(1 0 0 -1 0 502)">
	<stop offset="0" style="stop-color:#E09B41"/>
	<stop offset="1" style="stop-color:#F2F2F2"/>
</linearGradient>
<path id="Shadow__x23_2_presentation-60-a9f63" style="fill:url(#Shadow__x23_2_00000073688151090843899870000011090479195480855722_);" d="M290.9,169.1&#10;&#9;c-14.1,8.8-35,18.8-49.9,26.7l22.9,17.5l42.6-30.2C298.4,179.3,297.2,175.4,290.9,169.1z"/>
<g id="Plant_presentation-60-a9f63">
	<path class="st9_presentation-60-a9f63" d="M293.9,164.2c-4.9-0.4-10-1.9-13.6-5.2v14.5c0,8.3,6.7,15,15,15l0,0l0,0c8.3,0,15-6.7,15-15l0,0v-14.7&#10;&#9;&#9;C305.1,160.9,299.3,164.7,293.9,164.2z"/>
	<ellipse class="st8_presentation-60-a9f63" cx="295.2" cy="158.9" rx="15" ry="7.9"/>
	<path class="st14_presentation-60-a9f63" d="M295.2,160.3c0,0-10.2-1.5-12.9-18C282.3,142.2,291,147.1,295.2,160.3z"/>
	<path class="st14_presentation-60-a9f63" d="M296.7,158.2c0,0-11.7-21,0-35.1C300.3,134.5,300.3,146.7,296.7,158.2z"/>
	<path class="st14_presentation-60-a9f63" d="M295.2,145c0,0-10.2-1.5-12.9-18C282.3,126.9,291,131.8,295.2,145z"/>
	<path class="st14_presentation-60-a9f63" d="M296.5,151.7c0,0-2.5-10,11.6-18.9C308.1,132.8,307,142.7,296.5,151.7z"/>
</g>
</svg>