<svg version="1.1" id="Layer_1" xmlns="http://www.w3.org/2000/svg" xmlns:xlink="http://www.w3.org/1999/xlink" x="0px" y="0px" viewBox="0 0 500 500" style="width: 166px;" xml:space="preserve" data-imageid="production-line-3" imageName="Production Line" class="illustrations_image">
<style type="text/css">
	.st0_production-line-3{fill:#FFBC0E;}
	.st1_production-line-3{fill:#093F68;}
	.st2_production-line-3{fill:#F56132;}
	.st3_production-line-3{fill:#DFEAEF;}
	.st4_production-line-3{fill:#68E1FD;}
	.st5_production-line-3{fill:#70CC40;}
</style>
<g id="box-3_production-line-3">
	<rect x="336.6" y="198.1" class="st0_production-line-3" width="67.5" height="63.9"/>
	<path class="st1_production-line-3" d="M404.1,263.9h-67.5c-1,0-1.8-0.8-1.8-1.8v-63.9c0-1,0.8-1.8,1.8-1.8h67.5c1,0,1.8,0.8,1.8,1.8v63.9&#10;&#9;&#9;C405.9,263.1,405.1,263.9,404.1,263.9L404.1,263.9z M338.4,260.2h63.8V200h-63.8V260.2z"/>
	<rect x="364" y="198.1" class="st2_production-line-3" width="12.6" height="20"/>
	<path class="st1_production-line-3" d="M376.6,220H364c-1,0-1.8-0.8-1.8-1.8v-20c0-1,0.8-1.8,1.8-1.8h12.6c1,0,1.8,0.8,1.8,1.8v20.1&#10;&#9;&#9;C378.4,219.2,377.6,220,376.6,220z M365.9,216.3h8.9V200h-8.9V216.3z"/>
</g>
<g id="box-1_production-line-3">
	<rect x="142.9" y="258" class="st0_production-line-3" width="67.5" height="63.9"/>
	<path class="st1_production-line-3" d="M210.4,323.8h-67.5c-1,0-1.8-0.8-1.8-1.8c0,0,0,0,0,0V258c0-1,0.8-1.8,1.8-1.8c0,0,0,0,0,0h67.5&#10;&#9;&#9;c1,0,1.8,0.8,1.8,1.8c0,0,0,0,0,0v63.9C212.3,322.9,211.4,323.8,210.4,323.8C210.4,323.8,210.4,323.8,210.4,323.8z M144.8,320.1&#10;&#9;&#9;h63.8v-60.3h-63.8V320.1z"/>
	<rect x="170.4" y="258" class="st2_production-line-3" width="12.6" height="20"/>
	<path class="st1_production-line-3" d="M183,279.9h-12.6c-1,0-1.8-0.8-1.8-1.8V258c0-1,0.8-1.8,1.8-1.8c0,0,0,0,0,0H183c1,0,1.8,0.8,1.8,1.8v20&#10;&#9;&#9;C184.8,279,184,279.9,183,279.9C183,279.9,183,279.9,183,279.9z M172.2,276.2h8.9v-16.4h-9L172.2,276.2z"/>
</g>
<g id="box-2_production-line-3">
	<rect x="235.5" y="258" class="st0_production-line-3" width="67.5" height="63.9"/>
	<path class="st1_production-line-3" d="M302.9,323.8h-67.5c-1,0-1.8-0.8-1.8-1.8c0,0,0,0,0,0V258c0-1,0.8-1.8,1.8-1.8c0,0,0,0,0,0h67.5&#10;&#9;&#9;c1,0,1.8,0.8,1.8,1.8c0,0,0,0,0,0v63.9C304.8,322.9,304,323.8,302.9,323.8C303,323.8,302.9,323.8,302.9,323.8z M237.3,320.1h63.8&#10;&#9;&#9;v-60.3h-63.8V320.1z"/>
	<rect x="262.9" y="258" class="st2_production-line-3" width="12.6" height="20"/>
	<path class="st1_production-line-3" d="M275.5,279.9h-12.6c-1,0-1.8-0.8-1.8-1.8V258c0-1,0.8-1.8,1.8-1.8c0,0,0,0,0,0h12.6c1,0,1.8,0.8,1.8,1.8&#10;&#9;&#9;c0,0,0,0,0,0v20C277.4,279,276.6,279.9,275.5,279.9C275.5,279.9,275.5,279.9,275.5,279.9z M264.7,276.2h8.9v-16.4h-8.9V276.2z"/>
</g>
<g id="lines_production-line-3">
	<path class="st3_production-line-3" d="M248.3,194.3h-48.5c-1,0-1.8-0.8-1.8-1.8s0.8-1.8,1.8-1.8h48.5c1,0,1.8,0.8,1.8,1.8S249.3,194.3,248.3,194.3&#10;&#9;&#9;L248.3,194.3z"/>
	<path class="st3_production-line-3" d="M237.2,207.3c-0.5,0-1-0.2-1.4-0.6c-0.7-0.8-0.6-1.9,0.2-2.6l13.6-11.6L236,181.1c-0.7-0.7-0.8-1.9-0.1-2.6&#10;&#9;&#9;c0.6-0.7,1.7-0.8,2.4-0.2l15.2,12.7c0.8,0.6,0.9,1.8,0.2,2.6c-0.1,0.1-0.1,0.2-0.2,0.2l-15.2,13.1&#10;&#9;&#9;C238.1,207.2,237.6,207.3,237.2,207.3z"/>
	<path class="st3_production-line-3" d="M385.6,291.7h-40.9c-1,0-1.8-0.8-1.8-1.8c0-1,0.8-1.8,1.8-1.8h41c1,0,1.8,0.8,1.8,1.8&#10;&#9;&#9;C387.5,290.9,386.6,291.7,385.6,291.7L385.6,291.7z"/>
	<path class="st3_production-line-3" d="M376.2,302.7c-1,0-1.8-0.8-1.8-1.8c0-0.5,0.2-1,0.6-1.4l11.2-9.6l-11.2-9.4c-0.8-0.6-0.9-1.8-0.2-2.6&#10;&#9;&#9;c0.6-0.8,1.8-0.9,2.6-0.2l0,0l12.9,10.7c0.8,0.7,0.9,1.8,0.2,2.6c-0.1,0.1-0.1,0.2-0.2,0.2l-12.9,11&#10;&#9;&#9;C377.1,302.5,376.7,302.7,376.2,302.7z"/>
</g>
<g id="machine_production-line-3">
	<path class="st1_production-line-3" d="M370.3,168.9c-1,0-1.8-0.8-1.8-1.8c0,0,0,0,0,0v-26.3c0-1,0.8-1.8,1.8-1.8c1,0,1.8,0.8,1.8,1.8v26.3&#10;&#9;&#9;C372.2,168.1,371.4,168.9,370.3,168.9C370.3,168.9,370.3,168.9,370.3,168.9z"/>
	<path class="st1_production-line-3" d="M411.8,220h-6.6c-1,0.1-1.9-0.7-2-1.7c-0.1-1,0.7-1.9,1.7-2c0.1,0,0.2,0,0.3,0h4.8v-14&#10;&#9;&#9;c0-5.6-2.9-10.7-7.6-13.6l-32-19.6l-32,19.6c-4.7,2.9-7.6,8.1-7.6,13.6v14h4.7c1,0.1,1.8,1,1.7,2c-0.1,0.9-0.8,1.6-1.7,1.7h-6.6&#10;&#9;&#9;c-1,0-1.8-0.8-1.8-1.8c0,0,0,0,0,0v-15.8c0-6.8,3.6-13.2,9.4-16.7l32.9-20.1c0.6-0.4,1.3-0.4,1.9,0l32.9,20.1&#10;&#9;&#9;c5.8,3.6,9.4,9.9,9.4,16.7v15.8C413.6,219.2,412.8,220,411.8,220z"/>
	<rect x="353.9" y="135.4" class="st1_production-line-3" width="33" height="9"/>
	<path class="st1_production-line-3" d="M386.8,146.2h-33c-1,0-1.8-0.8-1.8-1.8c0,0,0,0,0,0v-9c0-1,0.8-1.8,1.8-1.8h33c1,0,1.8,0.8,1.8,1.8v9&#10;&#9;&#9;C388.7,145.4,387.9,146.2,386.8,146.2C386.8,146.2,386.8,146.2,386.8,146.2z M355.7,142.6H385v-5.4h-29.3V142.6z"/>
	<g id="machine-2_production-line-3">
		<path class="st4_production-line-3 targetColor" d="M117.1,321.9h318.6c7.7,0,13.9,6.2,13.9,13.9v31.1c0,7.7-6.2,13.9-13.9,13.9H117.1c-7.7,0-13.9-6.2-13.9-13.9&#10;&#9;&#9;&#9;v-31.1C103.2,328.2,109.4,321.9,117.1,321.9z" style="fill: rgb(104, 225, 253);"/>
		<path class="st1_production-line-3" d="M424.2,382.7H128.7c-15.1,0-27.3-12.2-27.3-27.3v-8c0-15.1,12.2-27.3,27.3-27.3h295.5&#10;&#9;&#9;&#9;c15.1,0,27.3,12.2,27.3,27.3v8C451.5,370.5,439.3,382.7,424.2,382.7z M128.7,323.8c-13.1,0-23.6,10.6-23.7,23.6v8&#10;&#9;&#9;&#9;c0,13,10.6,23.6,23.7,23.6h295.5c13,0,23.6-10.6,23.6-23.6v-8c0-13-10.6-23.6-23.6-23.6L128.7,323.8z"/>
		<circle class="st1_production-line-3" cx="166.5" cy="351.4" r="16"/>
		<path class="st1_production-line-3" d="M166.5,369.3c-9.9,0-17.9-8-17.9-17.9s8-17.9,17.9-17.9s17.9,8,17.9,17.9&#10;&#9;&#9;&#9;C184.4,361.3,176.4,369.3,166.5,369.3z M166.5,337.2c-7.9,0-14.2,6.4-14.2,14.2s6.4,14.2,14.2,14.2s14.2-6.4,14.2-14.2&#10;&#9;&#9;&#9;C180.7,343.6,174.4,337.2,166.5,337.2z"/>
		<circle class="st1_production-line-3" cx="215.9" cy="351.4" r="16"/>
		<path class="st1_production-line-3" d="M215.9,369.3c-9.9,0-17.9-8-17.9-17.9s8-17.9,17.9-17.9s17.9,8,17.9,17.9&#10;&#9;&#9;&#9;C233.7,361.3,225.7,369.3,215.9,369.3z M215.9,337.2c-7.9,0-14.2,6.4-14.2,14.2s6.4,14.2,14.2,14.2s14.2-6.4,14.2-14.2&#10;&#9;&#9;&#9;C230.1,343.6,223.7,337.2,215.9,337.2z"/>
		<circle class="st1_production-line-3" cx="265.2" cy="351.4" r="16"/>
		<path class="st1_production-line-3" d="M265.2,369.3c-9.9,0-17.9-8-17.9-17.9s8-17.9,17.9-17.9c9.9,0,17.9,8,17.9,17.9&#10;&#9;&#9;&#9;C283.1,361.3,275.1,369.3,265.2,369.3z M265.2,337.2c-7.9,0-14.2,6.4-14.2,14.2s6.4,14.2,14.2,14.2s14.2-6.4,14.2-14.2&#10;&#9;&#9;&#9;C279.4,343.6,273.1,337.2,265.2,337.2z"/>
		<circle class="st1_production-line-3" cx="314.6" cy="351.4" r="16"/>
		<path class="st1_production-line-3" d="M314.6,369.3c-9.9,0-17.9-8-17.9-17.9s8-17.9,17.9-17.9s17.9,8,17.9,17.9&#10;&#9;&#9;&#9;C332.4,361.3,324.4,369.3,314.6,369.3z M314.6,337.2c-7.9,0-14.2,6.4-14.2,14.2s6.4,14.2,14.2,14.2s14.2-6.4,14.2-14.2&#10;&#9;&#9;&#9;c0,0,0,0,0,0C328.8,343.6,322.4,337.2,314.6,337.2z"/>
		<circle class="st1_production-line-3" cx="363.9" cy="351.4" r="16"/>
		<path class="st1_production-line-3" d="M363.9,369.3c-9.9,0-17.9-8-17.9-17.9s8-17.9,17.9-17.9s17.9,8,17.9,17.9&#10;&#9;&#9;&#9;C381.8,361.3,373.8,369.3,363.9,369.3z M363.9,337.2c-7.9,0-14.2,6.4-14.2,14.2s6.4,14.2,14.2,14.2s14.2-6.4,14.2-14.2&#10;&#9;&#9;&#9;C378.1,343.5,371.8,337.2,363.9,337.2z"/>
		<circle class="st1_production-line-3" cx="413.2" cy="351.4" r="16"/>
		<path class="st1_production-line-3" d="M413.2,369.3c-9.9,0-17.9-8-17.9-17.9s8-17.9,17.9-17.9s17.9,8,17.9,17.9&#10;&#9;&#9;&#9;C431.1,361.3,423.1,369.3,413.2,369.3z M413.2,337.2c-7.9,0-14.2,6.4-14.2,14.2s6.4,14.2,14.2,14.2s14.2-6.4,14.2-14.2&#10;&#9;&#9;&#9;C427.5,343.6,421.1,337.2,413.2,337.2z"/>
		<path class="st4_production-line-3 targetColor" d="M441.5,119.1H50.5v261.7h78.2V135.4h312.9c4.5,0,8.1-3.6,8.1-8.1C449.7,122.8,446,119.1,441.5,119.1&#10;&#9;&#9;&#9;C441.6,119.1,441.6,119.1,441.5,119.1z" style="fill: rgb(104, 225, 253);"/>
		<path class="st1_production-line-3" d="M128.7,382.7H50.5c-1,0-1.8-0.8-1.8-1.8V119.1c0-1,0.8-1.8,1.8-1.8h0h391.1c5.5,0.6,9.5,5.5,9,10.9&#10;&#9;&#9;&#9;c-0.5,4.7-4.2,8.5-9,9h-311v243.6C130.6,381.9,129.7,382.7,128.7,382.7C128.7,382.7,128.7,382.7,128.7,382.7z M52.3,379h74.5&#10;&#9;&#9;&#9;V135.4c0-1,0.8-1.8,1.8-1.8l0,0h312.9c3.5,0,6.3-2.8,6.3-6.3s-2.8-6.3-6.3-6.3H52.3V379z"/>
		<path class="st4_production-line-3 targetColor" d="M73.6,263h32c3.2,0,5.7,2.6,5.7,5.7l0,0v112.1l0,0H67.8l0,0V268.8C67.8,265.6,70.4,263,73.6,263&#10;&#9;&#9;&#9;C73.5,263,73.6,263,73.6,263z" style="fill: rgb(104, 225, 253);"/>
		<path class="st1_production-line-3" d="M111.3,382.7H67.8c-1,0-1.8-0.8-1.8-1.8c0,0,0,0,0,0V273.5c0-6.8,5.5-12.3,12.3-12.3h22.5&#10;&#9;&#9;&#9;c6.8,0,12.3,5.5,12.3,12.3v107.4C113.1,381.9,112.3,382.7,111.3,382.7z M69.7,379h39.8V273.5c0-4.8-3.9-8.6-8.6-8.6H78.3&#10;&#9;&#9;&#9;c-4.8,0-8.6,3.9-8.7,8.6V379z"/>
		<rect x="79.8" y="282.5" class="st5_production-line-3" width="19.9" height="19.9"/>
		<path class="st1_production-line-3" d="M99.6,304.2H79.8c-1,0-1.8-0.8-1.8-1.8v-19.9c0-1,0.8-1.8,1.8-1.8h19.9c1,0,1.8,0.8,1.8,1.8v19.9&#10;&#9;&#9;&#9;C101.5,303.4,100.7,304.2,99.6,304.2C99.6,304.2,99.6,304.2,99.6,304.2z M81.6,300.5h16.2v-16.2H81.6L81.6,300.5z"/>
		<rect x="79.8" y="311.4" class="st2_production-line-3" width="19.9" height="19.9"/>
		<path class="st1_production-line-3" d="M99.6,333.1H79.8c-1,0-1.8-0.8-1.8-1.8v-19.9c0-1,0.8-1.8,1.8-1.8h19.9c1,0,1.8,0.8,1.8,1.8v19.9&#10;&#9;&#9;&#9;C101.5,332.3,100.7,333.1,99.6,333.1C99.6,333.1,99.6,333.1,99.6,333.1z M81.6,329.5h16.2v-16.2H81.6L81.6,329.5z"/>
		<path class="st1_production-line-3" d="M128.7,137.2H67.8c-1,0-1.8-0.8-1.8-1.8s0.8-1.8,1.8-1.8h60.8c1,0,1.8,0.8,1.8,1.8S129.7,137.2,128.7,137.2z"/>
	</g>
</g>
</svg>