<svg id="_0243_recycling_2" xmlns="http://www.w3.org/2000/svg" xmlns:xlink="http://www.w3.org/1999/xlink" viewBox="0 0 500 500" data-imageid="recycling-2-1" imageName="Recycling 2" class="illustrations_image" style="width: 166px;"><defs><style>.cls-1_recycling-2-1{fill:url(#linear-gradient);}.cls-1_recycling-2-1,.cls-2_recycling-2-1,.cls-3_recycling-2-1,.cls-4_recycling-2-1,.cls-5_recycling-2-1,.cls-6_recycling-2-1,.cls-7_recycling-2-1,.cls-8_recycling-2-1,.cls-9_recycling-2-1,.cls-10_recycling-2-1,.cls-11_recycling-2-1,.cls-12_recycling-2-1,.cls-13_recycling-2-1,.cls-14_recycling-2-1,.cls-15_recycling-2-1,.cls-16_recycling-2-1,.cls-17_recycling-2-1,.cls-18_recycling-2-1,.cls-19_recycling-2-1,.cls-20_recycling-2-1,.cls-21_recycling-2-1,.cls-22_recycling-2-1,.cls-23_recycling-2-1,.cls-24_recycling-2-1,.cls-25_recycling-2-1,.cls-26_recycling-2-1,.cls-27_recycling-2-1,.cls-28_recycling-2-1,.cls-29_recycling-2-1,.cls-30_recycling-2-1,.cls-31_recycling-2-1,.cls-32_recycling-2-1,.cls-33_recycling-2-1,.cls-34_recycling-2-1,.cls-35_recycling-2-1,.cls-36_recycling-2-1,.cls-37_recycling-2-1,.cls-38_recycling-2-1,.cls-39_recycling-2-1,.cls-40_recycling-2-1,.cls-41_recycling-2-1,.cls-42_recycling-2-1,.cls-43_recycling-2-1,.cls-44_recycling-2-1,.cls-45_recycling-2-1,.cls-46_recycling-2-1{stroke-width:0px;}.cls-2_recycling-2-1{fill:url(#linear-gradient-38-recycling-2-1);}.cls-3_recycling-2-1{fill:url(#linear-gradient-33-recycling-2-1);}.cls-4_recycling-2-1{fill:url(#linear-gradient-29-recycling-2-1);}.cls-5_recycling-2-1{fill:url(#linear-gradient-32-recycling-2-1);}.cls-6_recycling-2-1{fill:url(#linear-gradient-30-recycling-2-1);}.cls-7_recycling-2-1{fill:url(#linear-gradient-31-recycling-2-1);}.cls-8_recycling-2-1{fill:url(#linear-gradient-36-recycling-2-1);}.cls-9_recycling-2-1{fill:url(#linear-gradient-39-recycling-2-1);}.cls-10_recycling-2-1{fill:url(#linear-gradient-34-recycling-2-1);}.cls-11_recycling-2-1{fill:url(#linear-gradient-37-recycling-2-1);}.cls-12_recycling-2-1{fill:url(#linear-gradient-35-recycling-2-1);}.cls-13_recycling-2-1{fill:url(#linear-gradient-28-recycling-2-1);}.cls-14_recycling-2-1{fill:url(#linear-gradient-25-recycling-2-1);}.cls-15_recycling-2-1{fill:url(#linear-gradient-11-recycling-2-1);}.cls-16_recycling-2-1{fill:url(#linear-gradient-12-recycling-2-1);}.cls-17_recycling-2-1{fill:url(#linear-gradient-13-recycling-2-1);}.cls-18_recycling-2-1{fill:url(#linear-gradient-10-recycling-2-1);}.cls-19_recycling-2-1{fill:url(#linear-gradient-17-recycling-2-1);}.cls-20_recycling-2-1{fill:url(#linear-gradient-16-recycling-2-1);}.cls-21_recycling-2-1{fill:url(#linear-gradient-19-recycling-2-1);}.cls-22_recycling-2-1{fill:url(#linear-gradient-15-recycling-2-1);}.cls-23_recycling-2-1{fill:url(#linear-gradient-23-recycling-2-1);}.cls-24_recycling-2-1{fill:url(#linear-gradient-21-recycling-2-1);}.cls-25_recycling-2-1{fill:url(#linear-gradient-18-recycling-2-1);}.cls-26_recycling-2-1{fill:url(#linear-gradient-14-recycling-2-1);}.cls-27_recycling-2-1{fill:url(#linear-gradient-22-recycling-2-1);}.cls-28_recycling-2-1{fill:url(#linear-gradient-20-recycling-2-1);}.cls-29_recycling-2-1{fill:url(#linear-gradient-27-recycling-2-1);}.cls-30_recycling-2-1{fill:url(#linear-gradient-24-recycling-2-1);}.cls-31_recycling-2-1{fill:url(#linear-gradient-26-recycling-2-1);}.cls-32_recycling-2-1{fill:url(#linear-gradient-42-recycling-2-1);}.cls-33_recycling-2-1{fill:url(#linear-gradient-40-recycling-2-1);}.cls-34_recycling-2-1{fill:url(#linear-gradient-41-recycling-2-1);}.cls-35_recycling-2-1{fill:url(#linear-gradient-4-recycling-2-1);}.cls-36_recycling-2-1{fill:url(#linear-gradient-2-recycling-2-1);}.cls-37_recycling-2-1{fill:url(#linear-gradient-3-recycling-2-1);}.cls-38_recycling-2-1{fill:url(#linear-gradient-8-recycling-2-1);}.cls-39_recycling-2-1{fill:url(#linear-gradient-9-recycling-2-1);}.cls-40_recycling-2-1{fill:url(#linear-gradient-7-recycling-2-1);}.cls-41_recycling-2-1{fill:url(#linear-gradient-5-recycling-2-1);}.cls-42_recycling-2-1{fill:url(#linear-gradient-6-recycling-2-1);}.cls-43_recycling-2-1{isolation:isolate;opacity:.24;}.cls-43_recycling-2-1,.cls-46_recycling-2-1{fill:#68e1fd;}.cls-44_recycling-2-1{fill:#231f20;}.cls-45_recycling-2-1{fill:#ffaa71;}</style><linearGradient id="linear-gradient-recycling-2-1" x1="465.44" y1="3578.22" x2="451.39" y2="3428.91" gradientTransform="translate(-32.61 3903.32) scale(1 -1)" gradientUnits="userSpaceOnUse"><stop offset="0" stop-color="#010101" stop-opacity="0"/><stop offset=".95" stop-color="#010101"/></linearGradient><linearGradient id="linear-gradient-2-recycling-2-1" x1="421.25" y1="3572.39" x2="324.33" y2="3342.69" xlink:href="#linear-gradient-recycling-2-1"/><linearGradient id="linear-gradient-3-recycling-2-1" x1="447.04" y1="3495.6" x2="267.83" y2="3414.7" xlink:href="#linear-gradient-recycling-2-1"/><linearGradient id="linear-gradient-4-recycling-2-1" x1="383.83" y1="3489.6" x2="450.39" y2="3489.6" xlink:href="#linear-gradient-recycling-2-1"/><linearGradient id="linear-gradient-5-recycling-2-1" x1="386.32" y1="3548.91" x2="439.11" y2="3548.91" xlink:href="#linear-gradient-recycling-2-1"/><linearGradient id="linear-gradient-6-recycling-2-1" x1="418.44" y1="3620.26" x2="386.75" y2="3490.35" xlink:href="#linear-gradient-recycling-2-1"/><linearGradient id="linear-gradient-7-recycling-2-1" x1="92.19" y1="3598.17" x2="210.57" y2="3499.7" xlink:href="#linear-gradient-recycling-2-1"/><linearGradient id="linear-gradient-8-recycling-2-1" x1="136.12" y1="3596.39" x2="226.25" y2="3452.03" xlink:href="#linear-gradient-recycling-2-1"/><linearGradient id="linear-gradient-9-recycling-2-1" x1="138.54" y1="3617.62" x2="156.75" y2="3617.62" xlink:href="#linear-gradient-recycling-2-1"/><linearGradient id="linear-gradient-10-recycling-2-1" x1="107.64" y1="3506.89" x2="211.15" y2="3502.92" xlink:href="#linear-gradient-recycling-2-1"/><linearGradient id="linear-gradient-11-recycling-2-1" x1="155.38" y1="3522.75" x2="270.73" y2="3481.19" xlink:href="#linear-gradient-recycling-2-1"/><linearGradient id="linear-gradient-12-recycling-2-1" x1="80.87" y1="3512.51" x2="135.81" y2="3512.51" xlink:href="#linear-gradient-recycling-2-1"/><linearGradient id="linear-gradient-13-recycling-2-1" x1="165.38" y1="3539.38" x2="177.88" y2="3434.63" xlink:href="#linear-gradient-recycling-2-1"/><linearGradient id="linear-gradient-14-recycling-2-1" x1="339.59" y1="3691.44" x2="360.17" y2="3607.28" gradientTransform="translate(-31 3904.32) scale(1 -1)" xlink:href="#linear-gradient-recycling-2-1"/><linearGradient id="linear-gradient-15-recycling-2-1" x1="379.37" y1="3701.15" x2="396.31" y2="3562.12" gradientTransform="translate(-31 3904.32) scale(1 -1)" xlink:href="#linear-gradient-recycling-2-1"/><linearGradient id="linear-gradient-16-recycling-2-1" x1="227.23" y1="3699.39" x2="261.8" y2="3617.14" gradientTransform="translate(-31 3904.32) scale(1 -1)" xlink:href="#linear-gradient-recycling-2-1"/><linearGradient id="linear-gradient-17-recycling-2-1" x1="305.27" y1="3701.82" x2="318.68" y2="3633.45" gradientTransform="translate(-32.61 3903.31) scale(1 -1)" xlink:href="#linear-gradient-recycling-2-1"/><linearGradient id="linear-gradient-18-recycling-2-1" x1="304.09" y1="3698.72" x2="317.51" y2="3630.34" gradientTransform="translate(-32.61 3903.32) scale(1 -1)" xlink:href="#linear-gradient-recycling-2-1"/><linearGradient id="linear-gradient-19-recycling-2-1" x1="276.83" y1="3689.74" x2="279.41" y2="3607.92" gradientTransform="translate(-32.6 3903.32) scale(1 -1)" xlink:href="#linear-gradient-recycling-2-1"/><linearGradient id="linear-gradient-20-recycling-2-1" x1="277.55" y1="3688.34" x2="280.13" y2="3606.51" gradientTransform="translate(-32.6 3903.33) scale(1 -1)" gradientUnits="userSpaceOnUse"><stop offset="0" stop-color="#231f20" stop-opacity="0"/><stop offset="1" stop-color="#231f20"/></linearGradient><linearGradient id="linear-gradient-21-recycling-2-1" x1="278.33" y1="3566.37" x2="430.3" y2="3648.55" gradientTransform="translate(-31 3904.32) scale(1 -1)" gradientUnits="userSpaceOnUse"><stop offset="0" stop-color="#fff" stop-opacity="0"/><stop offset=".95" stop-color="#fff"/></linearGradient><linearGradient id="linear-gradient-22-recycling-2-1" x1="240.43" y1="3593.41" x2="293.48" y2="3593.41" gradientTransform="translate(-32.61 3903.32) scale(1 -1)" xlink:href="#linear-gradient-21-recycling-2-1"/><linearGradient id="linear-gradient-23-recycling-2-1" x1="308.74" y1="3549.16" x2="349.23" y2="3549.16" gradientTransform="translate(-32.61 3903.32) scale(1 -1)" xlink:href="#linear-gradient-21-recycling-2-1"/><linearGradient id="linear-gradient-24-recycling-2-1" x1="240.43" y1="3593.41" x2="293.48" y2="3593.41" gradientTransform="translate(-32.61 3903.32) scale(1 -1)" xlink:href="#linear-gradient-21-recycling-2-1"/><linearGradient id="linear-gradient-25-recycling-2-1" x1="328.82" y1="3560.27" x2="330.37" y2="3514.12" gradientTransform="translate(-32.61 3903.32) scale(1 -1)" xlink:href="#linear-gradient-21-recycling-2-1"/><linearGradient id="linear-gradient-26-recycling-2-1" x1="246.24" y1="3552.07" x2="251.52" y2="3500.15" gradientTransform="translate(-32.61 3903.32) scale(1 -1)" xlink:href="#linear-gradient-21-recycling-2-1"/><linearGradient id="linear-gradient-27-recycling-2-1" x1="285.96" y1="3622.44" x2="350.26" y2="3492.79" xlink:href="#linear-gradient-recycling-2-1"/><linearGradient id="linear-gradient-28-recycling-2-1" x1="270.75" y1="3519.12" x2="563.65" y2="3575.1" xlink:href="#linear-gradient-recycling-2-1"/><linearGradient id="linear-gradient-29-recycling-2-1" x1="256.46" y1="3584.05" x2="176.52" y2="3440.36" xlink:href="#linear-gradient-recycling-2-1"/><linearGradient id="linear-gradient-30-recycling-2-1" x1="295.24" y1="3558.53" x2="-167.12" y2="3600.72" xlink:href="#linear-gradient-recycling-2-1"/><linearGradient id="linear-gradient-31-recycling-2-1" x1="221.86" y1="3678.1" x2="254.79" y2="3678.1" xlink:href="#linear-gradient-recycling-2-1"/><linearGradient id="linear-gradient-32-recycling-2-1" x1="174.58" y1="3632.76" x2="184.07" y2="3632.76" xlink:href="#linear-gradient-recycling-2-1"/><linearGradient id="linear-gradient-33-recycling-2-1" x1="206.56" y1="3627.71" x2="220.11" y2="3627.71" xlink:href="#linear-gradient-recycling-2-1"/><linearGradient id="linear-gradient-34-recycling-2-1" x1="242.06" y1="3695.53" x2="265.31" y2="3682.37" gradientTransform="translate(-32.59 3903.28) scale(1 -1)" xlink:href="#linear-gradient-21-recycling-2-1"/><linearGradient id="linear-gradient-35-recycling-2-1" x1="256.22" y1="3717.7" x2="276.61" y2="3703.08" gradientTransform="translate(-32.62 3903.34) scale(1 -1)" xlink:href="#linear-gradient-recycling-2-1"/><linearGradient id="linear-gradient-36-recycling-2-1" x1="216.17" y1="3716.69" x2="208.82" y2="3714.9" xlink:href="#linear-gradient-recycling-2-1"/><linearGradient id="linear-gradient-37-recycling-2-1" x1="210.12" y1="3744.19" x2="216.37" y2="3734.51" xlink:href="#linear-gradient-recycling-2-1"/><linearGradient id="linear-gradient-38-recycling-2-1" x1="219.51" y1="3718.05" x2="116.63" y2="3674.95" xlink:href="#linear-gradient-recycling-2-1"/><linearGradient id="linear-gradient-39-recycling-2-1" x1="176.6" y1="3662.35" x2="269.9" y2="3709.41" xlink:href="#linear-gradient-recycling-2-1"/><linearGradient id="linear-gradient-40-recycling-2-1" x1="211.66" y1="3721.62" x2="180.66" y2="3704.75" xlink:href="#linear-gradient-recycling-2-1"/><linearGradient id="linear-gradient-41-recycling-2-1" x1="197.77" y1="3664.37" x2="241.18" y2="3671.11" xlink:href="#linear-gradient-recycling-2-1"/><linearGradient id="linear-gradient-42-recycling-2-1" x1="255.09" y1="3719.69" x2="266.8" y2="3719.69" gradientTransform="translate(-32.6 3903.33) scale(1 -1)" xlink:href="#linear-gradient-21-recycling-2-1"/></defs><path id="background_recycling-2-1" class="cls-43_recycling-2-1 targetColor" d="M441.32,399.84c16.42-20.71,22.21-46.53,15.95-71.17-2.03-7.75-5.23-15.23-7.46-22.94-11.52-39.92,3.46-84.26-14.84-122.17-11.5-23.86-36.15-42.48-64.69-48.87-28.35-6.34-58.52-1.05-87.34-5.46-20.18-3.09-39.05-10.83-58.95-15.12-19.9-4.29-42.47-4.62-59.15,5.88-20.43,12.89-25.55,37.43-39.93,55.57-12.86,16.23-32.73,26.81-50.77,38.63-18.04,11.82-35.59,26.67-40.01,46.05-5.65,25.06,12.12,50.32,8.94,75.71-1.37,10.95-6.62,21.35-7.63,32.31-1.98,21.47,12.95,42.14,33.04,54.45,20.09,12.31,44.65,17.54,68.86,20.77,42.28,5.63,85.2,5.87,127.95,6.1l61.24.33c25.13.14,37.58-9.12,59.27-15.81,22.32-6.84,41.61-16.92,55.52-34.25Z" style="fill: rgb(104, 225, 253);"/><g id="plant_recycling-2-1"><path class="cls-46_recycling-2-1 targetColor" d="M419.84,353.11c8.98-9.42,14.74-20.88,16.62-33.06,1.56-10.31.34-20.94,3.32-30.99.73-2.46,1.83-5,4.12-6.55,2.78-1.86,6.77-1.79,9.98-.58,3.21,1.22,5.8,3.44,8.23,5.62,1.56,1.37,3.12,3.06,2.88,4.97-.21,1.65-1.72,2.89-3.08,4.04-4.45,3.75-8.37,8.11-10.55,13.18-6.25,14.43,2.4,32.17-6.67,45.37-2.34,3.44-5.71,6.19-8.12,9.58-4.79,6.68-5.42,14.96-5.92,22.84-.41,6.56-.83,13.11-1.25,19.67-.27,4.36-.57,8.81-2.27,12.91-2.01,4.8-5.83,8.86-10.81,11.5-3.51,1.85-7.81,2.94-11.72,1.95-4.18-1.06-7.27-4.32-8.75-7.92s-1.56-7.51-1.43-11.32c.46-12.37,4.48-23.76,6.8-35.81,2.12-10.97,10.73-17.16,18.61-25.4Z" style="fill: rgb(104, 225, 253);"/><path class="cls-1_recycling-2-1" d="M420.43,352.08c8.97-9.42,14.74-20.88,16.63-33.06,1.56-10.31.33-20.94,3.32-30.99.73-2.46,1.82-5,4.12-6.55,2.78-1.86,6.77-1.79,9.99-.58,3.22,1.22,5.8,3.44,8.23,5.63,1.52,1.37,3.12,3.05,2.87,4.96-.2,1.65-1.71,2.89-3.07,4.04-4.45,3.75-8.37,8.11-10.55,13.18-6.25,14.43,2.4,32.17-6.67,45.37-2.34,3.44-5.71,6.19-8.12,9.58-4.79,6.68-5.42,14.96-5.92,22.84-.42,6.56-.84,13.11-1.25,19.67-.28,4.36-.57,8.81-2.27,12.91-2.01,4.8-5.82,8.86-10.79,11.5-3.51,1.85-7.81,2.94-11.72,1.95-4.17-1.06-7.26-4.32-8.75-7.92-1.48-3.59-1.56-7.51-1.42-11.32.46-12.37,4.48-23.76,6.8-35.81,2.09-10.96,10.7-17.15,18.58-25.38Z"/><path class="cls-46_recycling-2-1 targetColor" d="M419.45,352.65c3.05-16.61,1.02-33.59-1.03-50.32-24.84,4.74-49.99,13.26-66.48,30.3-9.37,9.7-15.32,21.6-19.46,33.79-3.36,9.9-5.59,20.07-6.65,30.35-.25,1.19-.1,2.42.42,3.54.76,1.02,1.85,1.81,3.12,2.27,42.89,19.75,83.56-14.43,90.07-49.94Z" style="fill: rgb(104, 225, 253);"/><path class="cls-36_recycling-2-1" d="M419.45,352.65c3.05-16.61,1.02-33.59-1.03-50.32-24.84,4.74-49.99,13.26-66.48,30.3-9.37,9.7-15.32,21.6-19.46,33.79-3.36,9.9-5.59,20.07-6.65,30.35-.25,1.19-.1,2.42.42,3.54.76,1.02,1.85,1.81,3.12,2.27,42.89,19.75,83.56-14.43,90.07-49.94Z"/><path class="cls-46_recycling-2-1 targetColor" d="M404.95,384.1c20.2.39,39.24,8.14,56.88,16.81-10.86,15.04-23.02,30.29-40.84,38.75-23.88,11.33-53.6,8.17-78.75-.77-1-.25-1.88-.8-2.47-1.55-.55-.94-.15-2.06.26-3.07,5.23-12.7,10.02-24.96,21.15-34.49,11.99-10.26,26.83-16.02,43.76-15.69Z" style="fill: rgb(104, 225, 253);"/><path class="cls-37_recycling-2-1" d="M404.95,384.1c20.2.39,39.24,8.14,56.88,16.81-10.86,15.04-23.02,30.29-40.84,38.75-23.88,11.33-53.6,8.17-78.75-.77-1-.25-1.88-.8-2.47-1.55-.55-.94-.15-2.06.26-3.07,5.23-12.7,10.02-24.96,21.15-34.49,11.99-10.26,26.83-16.02,43.76-15.69Z"/><path class="cls-35_recycling-2-1" d="M372.95,415.46c6.44.81,12.91,2.06,19.4,1.59,9.89-.73,19.05-5.58,25.43-12.27-4.54,6.31-9.55,12.98-17.39,15.81-7.72,2.8-16.48,1.28-24.73.06-8.47-1.25-16.5-1.55-24.28,2.01-1.98-9.69,15.79-7.93,21.57-7.2Z"/><path class="cls-41_recycling-2-1" d="M358.6,376.45c-.13-5.9,4.17-11.19,9.08-15.21,4.91-4.02,10.63-7.33,14.84-11.95,3.82-4.22,6.15-9.33,9.54-13.83,3.39-4.5,8.4-8.61,14.51-9-4.44.17-8.16,3.18-10.36,6.57-2.19,3.4-3.27,7.27-5.02,10.86-2.51,5.14-6.38,9.67-11.29,13.23-3.83,2.75-8.23,4.89-11.72,7.95-5.41,4.68-8.31,11.09-11.07,17.31-3.59-2.38-4.41-6.82-1.86-10.08"/><path class="cls-46_recycling-2-1 targetColor" d="M394.24,309.26s9.72-21.4,6.62-35.78c0,0-26.52,3.5-31.37,9.72l-4.42,40.07,29.17-14Z" style="fill: rgb(104, 225, 253);"/><path class="cls-42_recycling-2-1" d="M394.24,309.26s9.72-21.4,6.62-35.78c0,0-26.52,3.5-31.37,9.72l-4.42,40.07,29.17-14Z"/><path class="cls-46_recycling-2-1 targetColor" d="M67.73,281.97c-3.02,19.59-5.98,39.95.78,58.8,1.35,3.75,3.12,7.51,6.35,10.27,3.23,2.76,8.04,4.32,12.27,3.03,4.91-1.51,7.48-6.14,9.37-10.4,4.63-10.46,16.53-33.43,2.88-37.56-20.57-6.23-31.71-23.83-31.66-24.14Z" style="fill: rgb(104, 225, 253);"/><path class="cls-40_recycling-2-1" d="M67.73,281.97c-3.02,19.59-5.98,39.95.78,58.8,1.35,3.75,3.12,7.51,6.35,10.27,3.23,2.76,8.04,4.32,12.27,3.03,4.91-1.51,7.48-6.14,9.37-10.4,4.63-10.46,16.53-33.43,2.88-37.56-20.57-6.23-31.71-23.83-31.66-24.14Z"/><path class="cls-46_recycling-2-1 targetColor" d="M105.12,215.48c-9.31-5.39-23.67-5.36-30.03,2.69-6.18,7.82-2.19,18.56,2.73,27.05,5.33,9.22,11.59,18.08,15.82,27.74s6.37,20.49,3.02,30.39c-2.93,8.78-9.79,16.13-13.51,24.67-5.72,13.53-3.24,28.68,6.57,40.25,6.33,7.3,15.62,13.15,18.29,22.03,2.08,6.94-.41,14.26,0,21.43.67,11.73,9.53,22.48,21.31,27.97,11.79,5.49,26.07,6.08,38.94,3,2.23-.53,4.51-1.22,6.1-2.68,3.04-2.79,2.5-7.23,1.77-11.04-6.65-34.37-13.31-68.75-19.97-103.15-2.7-13.98-2.92-28.79-6.7-42.54-2.65-9.62-8.86-18.03-14.02-26.72-8.1-13.63-15.04-32.24-30.32-41.07Z" style="fill: rgb(104, 225, 253);"/><path class="cls-38_recycling-2-1" d="M105.12,215.48c-9.31-5.39-23.67-5.36-30.03,2.69-6.18,7.82-2.19,18.56,2.73,27.05,5.33,9.22,11.59,18.08,15.82,27.74s6.37,20.49,3.02,30.39c-2.93,8.78-9.79,16.13-13.51,24.67-5.72,13.53-3.24,28.68,6.57,40.25,6.33,7.3,15.62,13.15,18.29,22.03,2.08,6.94-.41,14.26,0,21.43.67,11.73,9.53,22.48,21.31,27.97,11.79,5.49,26.07,6.08,38.94,3,2.23-.53,4.51-1.22,6.1-2.68,3.04-2.79,2.5-7.23,1.77-11.04-6.65-34.37-13.31-68.75-19.97-103.15-2.7-13.98-2.92-28.79-6.7-42.54-2.65-9.62-8.86-18.03-14.02-26.72-8.1-13.63-15.04-32.24-30.32-41.07Z"/><path class="cls-39_recycling-2-1" d="M114.57,315.04c-.37-5.01.71-10,1.56-14.96,3.48-19.62,3.34-41.39-10.23-57.24,9.21,4.81,14.17,14.32,15.57,23.68,1.41,9.36-.18,18.83-1.13,28.24-.95,9.4-1.2,19.16,2.71,27.96,1.86,4.19,1.56,7.82-3.31,4.63-3.59-2.34-4.91-8.7-5.17-12.31Z"/><path class="cls-46_recycling-2-1 targetColor" d="M23.93,348.26c1.38,24.51,9.37,48.39,23.3,69.65,4.62,7.02,10.01,13.86,17.43,18.66,9.27,6.03,20.89,8.34,32.22,9.98,6.08.88,12.43,1.59,18.29-.07,8.37-2.37,14.32-9.36,16.45-16.88,2.13-7.51.95-15.45-1.3-22.93-12.17-40.44-58.09-70.62-106.38-58.42Z" style="fill: rgb(104, 225, 253);"/><path class="cls-18_recycling-2-1" d="M23.93,348.26c1.38,24.51,9.37,48.39,23.3,69.65,4.62,7.02,10.01,13.86,17.43,18.66,9.27,6.03,20.89,8.34,32.22,9.98,6.08.88,12.43,1.59,18.29-.07,8.37-2.37,14.32-9.36,16.45-16.88,2.13-7.51.95-15.45-1.3-22.93-12.17-40.44-58.09-70.62-106.38-58.42Z"/><path class="cls-46_recycling-2-1 targetColor" d="M118.6,321.92c-12.09,22.12-18.03,46.45-17.32,70.99.24,8.11,1.27,16.38,5.18,23.72,4.89,9.17,13.83,16.11,22.91,22.33,4.86,3.33,10.06,6.62,16.11,7.62,8.64,1.44,17.66-2.21,23.6-7.9,5.94-5.7,9.22-13.18,11.3-20.7,11.23-40.66-12.75-86.44-61.78-96.05Z" style="fill: rgb(104, 225, 253);"/><path class="cls-15_recycling-2-1" d="M118.6,321.92c-12.09,22.12-18.03,46.45-17.32,70.99.24,8.11,1.27,16.38,5.18,23.72,4.89,9.17,13.83,16.11,22.91,22.33,4.86,3.33,10.06,6.62,16.11,7.62,8.64,1.44,17.66-2.21,23.6-7.9,5.94-5.7,9.22-13.18,11.3-20.7,11.23-40.66-12.75-86.44-61.78-96.05Z"/><path class="cls-16_recycling-2-1" d="M86.15,408.2c-3.41-.73-6.98-.45-10.48-.17l-21.33,1.72c6.79-4.32,14.61-7.22,22.87-8.48.92-.03,1.8-.35,2.48-.89,1.24-1.28-.19-3.17-1.56-4.34-11.04-9.38-22.77-18.61-29.87-30.6,6.85,2.06,12.68,6.14,16.53,11.53.13-5.19,1.95-10.24,5.24-14.54.33,4.63-.33,9.27-1.94,13.68-.37.76-.52,1.58-.43,2.41.27.86.83,1.63,1.59,2.23l16.88,15.37c2.34-2.99,4.55-6.09,6.58-9.27-1.17,6.95-2.12,14.73,2.64,20.37,2.76,3.28,9.95,7.39,7.27,11.96-6.06-3.38-8.67-9.31-16.46-10.98Z"/><path class="cls-17_recycling-2-1" d="M126.45,370.38c2.68,10.09,6.04,20.11,11.25,29.39,3.37,6,7.55,11.83,8.74,18.44.96,5.35-1.78,6.7-4.58,2.43-3.02-4.61-4.16-11.6-6.38-16.68-2.43-5.55-5.01-11.07-6.78-16.83-1.7-5.55-.84-11.41-2.25-16.76Z"/></g><g id="recycle_recycling-2-1"><polygon class="cls-46_recycling-2-1 targetColor" points="275.58 235.12 310.05 203.23 352.48 235.12 275.58 235.12" style="fill: rgb(104, 225, 253);"/><polygon class="cls-26_recycling-2-1" points="275.58 235.12 310.05 203.23 352.48 235.12 275.58 235.12"/><polygon class="cls-46_recycling-2-1 targetColor" points="218.34 233.76 228.07 217.42 281.1 217.04 289.5 233.37 218.34 233.76" style="fill: rgb(104, 225, 253);"/><polygon class="cls-46_recycling-2-1 targetColor" points="330.16 199.53 320.88 233.76 363.74 234.93 378.77 196.42 330.16 199.53" style="fill: rgb(104, 225, 253);"/><polygon class="cls-22_recycling-2-1" points="330.16 199.53 320.88 233.76 363.74 234.93 378.77 196.42 330.16 199.53"/><ellipse class="cls-46_recycling-2-1 targetColor" cx="208.32" cy="233.69" rx="29.54" ry="26" style="fill: rgb(104, 225, 253);"/><ellipse class="cls-20_recycling-2-1" cx="208.32" cy="233.69" rx="29.54" ry="26"/><polygon class="cls-46_recycling-2-1 targetColor" points="260.9 204.48 311.34 221.99 295.83 256.61 245.39 239.1 260.9 204.48" style="fill: rgb(104, 225, 253);"/><polygon class="cls-19_recycling-2-1" points="260.9 204.48 311.34 221.99 295.83 256.61 245.39 239.1 260.9 204.48"/><polygon class="cls-25_recycling-2-1" points="259.72 207.59 310.16 225.09 294.64 259.71 244.2 242.21 259.72 207.59"/><polygon class="cls-46_recycling-2-1 targetColor" points="215.52 214.91 269.42 209.72 274.02 246.71 220.12 251.9 215.52 214.91" style="fill: rgb(104, 225, 253);"/><polygon class="cls-21_recycling-2-1" points="215.52 214.91 269.42 209.72 274.02 246.71 220.12 251.9 215.52 214.91"/><polygon class="cls-28_recycling-2-1" points="216.4 221.32 270.3 216.13 274.9 253.13 221 258.32 216.4 221.32"/><path class="cls-46_recycling-2-1 targetColor" d="M199.26,190.09l-1.7-.44c.72-2.03,1.6-4.01,2.62-5.94l1.62.69c-.99,1.85-1.84,3.75-2.54,5.69ZM247.81,189.21h0c-1.43,0-2.83-.3-4.1-.87l.78-1.37c1.02.45,2.15.69,3.29.69h0c.99,0,1.97-.17,2.89-.48l.62,1.47c-1.11.37-2.29.56-3.48.57ZM314.76,187.08l-1.76-.25c.26-1.36.39-2.74.39-4.12,0-.64,0-1.29-.09-1.93l1.78-.13c.07.69.09,1.37.09,2.06,0,1.47-.12,2.93-.39,4.38h-.02ZM257.37,184.72l-1.37-1.01c1.45-1.52,2.51-3.29,3.12-5.2l1.73.43c-.68,2.12-1.87,4.09-3.48,5.78ZM238.45,183.56c-1.15-1.96-1.8-4.12-1.91-6.33l1.78-.1c.11,1.98.69,3.92,1.71,5.69l-1.58.74ZM205.25,179.01l-1.48-.89c1.37-1.77,2.91-3.43,4.62-4.95l1.27,1.11c-1.64,1.45-3.11,3.03-4.41,4.72h0ZM311.86,174.89c-.78-1.9-1.85-3.7-3.17-5.35l1.46-.9c1.41,1.76,2.55,3.68,3.39,5.71l-1.68.54ZM259.13,172.83c-.74-1.82-2.17-3.35-4.06-4.33l.95-1.33c2.24,1.17,3.94,2.99,4.81,5.16l-1.69.51ZM239.03,171.18l-1.73-.41c.65-2.09,1.63-4.09,2.91-5.94l1.56.82c-1.2,1.72-2.13,3.59-2.74,5.53ZM215.01,170.41l-.98-1.29c2.04-1.18,4.21-2.17,6.48-2.96l.65,1.47c-2.15.74-4.22,1.66-6.15,2.77ZM248.71,166.43c-2.3-.41-4.62-.72-6.95-.92l.17-1.57c2.3.2,4.69.52,7.13.94l-.35,1.55ZM227.83,165.93l-.34-1.55c2.38-.39,4.79-.62,7.21-.69l.05,1.57c-2.33.07-4.64.3-6.93.69v-.03ZM304.07,164.98c-1.74-1.35-3.62-2.55-5.62-3.59l.93-1.37c2.09,1.09,4.05,2.35,5.87,3.77l-1.19,1.2ZM246.06,160.96l-1.23-1.15c1.79-1.47,3.79-2.74,5.94-3.77l.86,1.37c-2.02.97-3.9,2.16-5.58,3.55ZM292.2,158.63c-2.16-.8-4.36-1.5-6.6-2.1l.52-1.51c2.31.61,4.58,1.33,6.8,2.15l-.72,1.45ZM258.04,155.19l-.48-1.52c2.35-.58,4.76-.96,7.19-1.14l.14,1.57c-2.31.16-4.6.52-6.83,1.07l-.02.03ZM278.78,155.04c-2.29-.41-4.61-.7-6.94-.87l.13-1.57c2.41.17,4.8.47,7.16.89l-.36,1.55Z" style="fill: rgb(104, 225, 253);"/><path class="cls-46_recycling-2-1 targetColor" d="M310.72,196.4l-1.46-.91c.65-.82,1.21-1.69,1.67-2.61l1.62.69c-.51.99-1.13,1.94-1.84,2.83Z" style="fill: rgb(104, 225, 253);"/><polygon class="cls-46_recycling-2-1 targetColor" points="376.12 234.52 348.72 446.91 157.8 446.91 153.69 407.26 153.13 401.91 151.09 382.26 150.52 376.9 147.22 345.1 135.7 234.52 376.12 234.52" style="fill: rgb(104, 225, 253);"/><polygon class="cls-24_recycling-2-1" points="376.12 234.52 348.72 446.91 157.8 446.91 153.69 407.26 153.13 401.91 151.09 382.26 150.52 376.9 147.22 345.1 135.7 234.52 376.12 234.52"/><path class="cls-27_recycling-2-1" d="M207.82,316.48l24.81,13.06s18.75-35.63,28.23-37.5c0,0-25.77-3.16-32.32-1-6.55,2.15-20.73,25.45-20.73,25.45Z"/><path class="cls-46_recycling-2-1 targetColor" d="M247.44,308.33s3.37,0,4.79,2.49c1.42,2.49,4.24,7.66,4.24,7.66l-8.16,4.6,28.63,1.05,13.06-21.76-8.16,2.68s-8.84-14.96-18.83-12.16c-7.51,2.12-15.56,15.43-15.56,15.43Z" style="fill: rgb(104, 225, 253);"/><path class="cls-23_recycling-2-1" d="M301.01,327.82l-24.88,12.99s26.68,31.48,24.04,39.7c0,0,15.43-18.46,16.4-24.54.97-6.08-15.57-28.15-15.57-28.15Z"/><path class="cls-46_recycling-2-1 targetColor" d="M290.29,362.34s-1.6,2.61-4.76,2.52-9.68-.36-9.68-.36l-.71-8.5-14.68,21.65,15.52,20.46,1.2-7.6s19.17.27,21.09-8.78c1.49-6.83-7.98-19.39-7.98-19.39Z" style="fill: rgb(104, 225, 253);"/><path class="cls-46_recycling-2-1 targetColor" d="M238.07,395.59l2.51-25.35s-44.62.69-50.67-5.99c0,0,8.03,21.8,13.08,26.03s35.07,5.31,35.07,5.31Z" style="fill: rgb(104, 225, 253);"/><path class="cls-30_recycling-2-1" d="M207.82,316.48l24.81,13.06s18.75-35.63,28.23-37.5c0,0-25.77-3.16-32.32-1-6.55,2.15-20.73,25.45-20.73,25.45Z"/><path class="cls-14_recycling-2-1" d="M301.01,327.82l-24.88,12.99s26.68,31.48,24.04,39.7c0,0,15.43-18.46,16.4-24.54.97-6.08-15.57-28.15-15.57-28.15Z"/><path class="cls-31_recycling-2-1" d="M238.07,395.59l2.51-25.35s-44.62.69-50.67-5.99c0,0,8.03,21.8,13.08,26.03s35.07,5.31,35.07,5.31Z"/><path class="cls-46_recycling-2-1 targetColor" d="M212.47,367.78s-1.48-2.67.45-4.88,5.98-6.7,5.98-6.7l8.26,4.45-11.42-23.12-27.93-.85,6.3,5.29s-11.43,13.53-4.21,20.22c5.42,5.02,22.56,5.59,22.56,5.59Z" style="fill: rgb(104, 225, 253);"/><path class="cls-46_recycling-2-1 targetColor" d="M247.44,308.33s3.37,0,4.79,2.49c1.42,2.49,4.24,7.66,4.24,7.66l-8.16,4.6,28.63,1.05,13.06-21.76-8.16,2.68s-8.84-14.96-18.83-12.16c-7.51,2.12-15.56,15.43-15.56,15.43Z" style="fill: rgb(104, 225, 253);"/><path class="cls-46_recycling-2-1 targetColor" d="M290.29,362.34s-1.6,2.61-4.76,2.52-9.68-.36-9.68-.36l-.71-8.5-14.68,21.65,15.52,20.46,1.2-7.6s19.17.27,21.09-8.78c1.49-6.83-7.98-19.39-7.98-19.39Z" style="fill: rgb(104, 225, 253);"/><path class="cls-46_recycling-2-1 targetColor" d="M212.47,367.78s-1.48-2.67.45-4.88,5.98-6.7,5.98-6.7l8.26,4.45-11.42-23.12-27.93-.85,6.3,5.29s-11.43,13.53-4.21,20.22c5.42,5.02,22.56,5.59,22.56,5.59Z" style="fill: rgb(104, 225, 253);"/><path class="cls-29_recycling-2-1" d="M247.44,308.33s3.37,0,4.79,2.49c1.42,2.49,4.24,7.66,4.24,7.66l-8.16,4.6,28.63,1.05,13.06-21.76-8.16,2.68s-8.84-14.96-18.83-12.16c-7.51,2.12-15.56,15.43-15.56,15.43Z"/><path class="cls-13_recycling-2-1" d="M290.29,362.34s-1.6,2.61-4.76,2.52-9.68-.36-9.68-.36l-.71-8.5-14.68,21.65,15.52,20.46,1.2-7.6s19.17.27,21.09-8.78c1.49-6.83-7.98-19.39-7.98-19.39Z"/><path class="cls-4_recycling-2-1" d="M212.47,367.78s-1.48-2.67.45-4.88,5.98-6.7,5.98-6.7l8.26,4.45-11.42-23.12-27.93-.85,6.3,5.29s-11.43,13.53-4.21,20.22c5.42,5.02,22.56,5.59,22.56,5.59Z"/></g><g id="stair_recycling-2-1"><path class="cls-6_recycling-2-1" d="M201.6,234.53l-4.27-.97-.09.97-1.76,17.38h-32.4l1.69-16.91-2.07-.47-4.27-.97-.09.97-11.11,110.57,3.3,31.8,1.98-19.62h32.4l-1.98,19.62h-32.4l.56,5.36h31.3l-1.94,19.65h-27.34l.56,5.36h26.15l-3.42,34.12,6.34,1.37,20.92-207.75-2.07-.49ZM185.34,352.64l-.12-.77h-32.18l1.98-19.62h32.4l-2.07,20.39ZM187.94,326.89h-32.4l1.98-19.62h32.41l-1.98,19.62ZM190.45,301.91h-32.4l1.98-19.65h32.4l-1.98,19.65ZM192.94,276.95h-32.38l1.98-19.65h32.4l-2,19.65Z"/><path class="cls-44_recycling-2-1" d="M197.04,233.58l-5.47,18.26h-32.4l5.05-16.81-6.08-1.37-61.87,206.9,6.08,1.37,10.58-35.37h32.38l-10.15,33.96,6.08,1.41,61.87-206.9-6.06-1.44ZM154.35,376.3h-32.4l5.85-19.54h32.4l-5.85,19.54ZM161.58,352.16v-.75h-32.18l5.85-19.54h32.4l-6.07,20.29ZM169.25,326.52h-32.41l5.85-19.55h32.4l-5.84,19.55ZM176.69,301.62h-32.41l5.85-19.55h32.4l-5.84,19.55ZM184.13,276.72h-32.41l5.85-19.54h32.4l-5.84,19.54ZM120.36,381.64h32.4l-5.85,19.55h-32.4l5.85-19.55Z"/></g><g id="character_recycling-2-1"><path class="cls-46_recycling-2-1 targetColor" d="M175.21,271.68c.76-.05,1.53.08,2.21.38l6.25,2.17c1.21.32,2.3.9,3.18,1.69.78.86.95,2.27,0,2.99-.62.39-1.36.59-2.12.58-2.02.12-4.05.07-6.06-.14-.85-.06-1.69-.24-2.48-.52-.79-.3-1.42-.86-1.74-1.57-.13-.39-.2-.8-.2-1.22-.05-1.24-1.07-4.06.97-4.36Z" style="fill: rgb(104, 225, 253);"/><path class="cls-46_recycling-2-1 targetColor" d="M150.49,271.3c.57.94.9,1.97.98,3.03.01.28-.07.55-.25.78-.44.45-1.26.29-1.88.06-1.75-.62-3.42-1.41-4.97-2.35-1.07-.69-2.15-1.48-2.34-2.61-.3-1.59,1.37-5.05,3.68-4.41,2.42.65,3.84,3.64,4.79,5.5Z" style="fill: rgb(104, 225, 253);"/><path class="cls-7_recycling-2-1" d="M192.72,229.52c-1.49-1.48-2.57-3.25-3.16-5.16-.59-1.92-.33-3.97.73-5.73.99-1.41,2.44-2.54,4.15-3.24.37-.18.77-.3,1.19-.34.47,0,.93.09,1.37.25,3.78,1.13,7.73,1.77,11.72,1.9,2.27.08,4.59,0,6.8.51.56.09,1.08.33,1.48.69.25.3.42.63.52.99,1.66,4.71,3.18,9.46,4.57,14.24.32.43.19,1.02-.31,1.3-.25.14-.56.19-.85.13-6.48.21-12.97.27-19.45.19-1.34,0-8.14.51-8.65-.51-.3-.59,1.12-1.6,1.27-2.13.41-1.19-.52-2.17-1.37-3.09Z"/><path class="cls-46_recycling-2-1 targetColor" d="M197.1,199.1l-1.79-.12s.11-1.24.51-3.18l1.76.27c-.37,1.83-.48,3.01-.48,3.02Z" style="fill: rgb(104, 225, 253);"/><path class="cls-45_recycling-2-1" d="M175.14,270.12c.02,1.09.53,2.12,1.42,2.87.53.45,1.35.5,1.96.14.31-.35.45-.79.4-1.22,0-.9-.09-1.8-.27-2.69-.07-.87-.55-1.67-1.33-2.21-2.75-1.46-2.34,1.69-2.18,3.11Z"/><path class="cls-45_recycling-2-1" d="M147.05,267.24c-.12.18-.3.33-.52.42-.4.06-.8-.1-1-.41-.61-.78-.76-1.76-.41-2.65.43-1.18,1.87-3.21,3.16-1.66,1.12,1.35-.37,3.21-1.24,4.3Z"/><path class="cls-5_recycling-2-1" d="M150.49,271.3c.57.94.9,1.97.98,3.03.01.28-.07.55-.25.78-.44.45-1.26.29-1.88.06-1.75-.62-3.42-1.41-4.97-2.35-1.07-.69-2.15-1.48-2.34-2.61-.3-1.59,1.37-5.05,3.68-4.41,2.42.65,3.84,3.64,4.79,5.5Z"/><path class="cls-3_recycling-2-1" d="M175.21,271.68c.76-.05,1.53.08,2.21.38l6.25,2.17c1.21.32,2.3.9,3.18,1.69.78.86.95,2.27,0,2.99-.62.39-1.36.59-2.12.58-2.02.12-4.05.07-6.06-.14-.85-.06-1.69-.24-2.48-.52-.79-.3-1.42-.86-1.74-1.57-.13-.39-.2-.8-.2-1.22-.05-1.24-1.07-4.06.97-4.36Z"/><path class="cls-46_recycling-2-1 targetColor" d="M203.64,229.62l-9.12-4.66c-3.55-1.82-4.76-5.82-2.69-8.95l16.95-25.67c2.06-3.12,6.61-4.19,10.16-2.37l9.12,4.66c3.55,1.82,4.76,5.82,2.69,8.95l-16.95,25.67c-2.06,3.12-6.61,4.19-10.16,2.37Z" style="fill: rgb(104, 225, 253);"/><path class="cls-10_recycling-2-1" d="M203.64,229.62l-9.12-4.66c-3.55-1.82-4.76-5.82-2.69-8.95l16.95-25.67c2.06-3.12,6.61-4.19,10.16-2.37l9.12,4.66c3.55,1.82,4.76,5.82,2.69,8.95l-16.95,25.67c-2.06,3.12-6.61,4.19-10.16,2.37Z"/><polygon class="cls-46_recycling-2-1 targetColor" points="227.39 192.62 219.88 188.5 224.49 182.01 231.99 186.12 227.39 192.62" style="fill: rgb(104, 225, 253);"/><polygon class="cls-12_recycling-2-1" points="227.39 192.62 219.88 188.5 224.49 182.01 231.99 186.12 227.39 192.62"/><path class="cls-46_recycling-2-1 targetColor" d="M182.38,186.85c.65.56,1.09,1.28,1.28,2.06,0,.48-.09.96-.29,1.42-.36,1.14-.86,2.24-1.48,3.28-.63,1.05-1.64,1.89-2.86,2.4-.18.08-.38.11-.58.09-.26-.08-.47-.25-.59-.46-2.13-2.75-3.94-5.67-5.4-8.73-.28-.51-.45-1.06-.48-1.63.13-.94.62-1.8,1.39-2.45.81-.83,1.7-1.61,2.64-2.33,1.29-.99,1.48-.58,2.22.6,1.19,2.02,2.59,3.95,4.16,5.75Z" style="fill: rgb(104, 225, 253);"/><path class="cls-8_recycling-2-1" d="M182.38,186.85c.65.56,1.09,1.28,1.28,2.06,0,.48-.09.96-.29,1.42-.36,1.14-.86,2.24-1.48,3.28-.63,1.05-1.64,1.89-2.86,2.4-.18.08-.38.11-.58.09-.26-.08-.47-.25-.59-.46-2.13-2.75-3.94-5.67-5.4-8.73-.28-.51-.45-1.06-.48-1.63.13-.94.62-1.8,1.39-2.45.81-.83,1.7-1.61,2.64-2.33,1.29-.99,1.48-.58,2.22.6,1.19,2.02,2.59,3.95,4.16,5.75Z"/><path class="cls-45_recycling-2-1" d="M185.38,169.24c.1.26.1.53,0,.79-.11.15-.26.27-.43.35l-2.3,1.37c-1.15.97-2.93,1.06-4.2.22l-.97,1.92c-.07.17-.19.33-.36.44-.19.07-.39.1-.59.07-.85,0-1.66-.31-2.24-.85-.69-.77-.42-1.88-.12-2.82l1.41-4.44c.25-1.11.79-2.16,1.56-3.07.92-.82,2.06-1.43,3.31-1.77,2.16-.74,4.76-.93,5.47,1.51.55,2.05-1.03,4.08-.53,6.26Z"/><path class="cls-44_recycling-2-1" d="M188.63,159.47c.5,1.12.17,2.4-.83,3.22-1.02.78-2.41,1.08-3.73.8-.62-.12-1.2-.35-1.81-.46-.62-.15-1.27-.05-1.8.27-.73.54-.69,1.51-.98,2.31-.03.14-.13.25-.27.3-.27.06-.43-.25-.43-.49s0-.54-.24-.64c-.93.34-1.48,1.19-1.34,2.06.07.35.25.74,0,1.03s-.52.27-.78.4c-.45.3-.8.7-1.02,1.15-.29.42-.78.83-1.33.74s-.78-.65-.98-1.12l-.57-1.57c-.21-.46-.3-.97-.26-1.46.18-.97,1.33-1.71,1.25-2.69-.1-1.31.78-2.49,1.28-3.71s1.24-2.44,2.61-2.79c1.56-.4,3.06.55,4.6.97,1.12.23,2.27.38,3.42.45,1.15.18,2.73.3,3.19,1.22Z"/><path class="cls-11_recycling-2-1" d="M188.63,159.47c.5,1.12.17,2.4-.83,3.22-1.02.78-2.41,1.08-3.73.8-.62-.12-1.2-.35-1.81-.46-.62-.15-1.27-.05-1.8.27-.73.54-.69,1.51-.98,2.31-.03.14-.13.25-.27.3-.27.06-.43-.25-.43-.49s0-.54-.24-.64c-.93.34-1.48,1.19-1.34,2.06.07.35.25.74,0,1.03s-.52.27-.78.4c-.45.3-.8.7-1.02,1.15-.29.42-.78.83-1.33.74s-.78-.65-.98-1.12l-.57-1.57c-.21-.46-.3-.97-.26-1.46.18-.97,1.33-1.71,1.25-2.69-.1-1.31.78-2.49,1.28-3.71s1.24-2.44,2.61-2.79c1.56-.4,3.06.55,4.6.97,1.12.23,2.27.38,3.42.45,1.15.18,2.73.3,3.19,1.22Z"/><path class="cls-44_recycling-2-1" d="M174.81,159.65c.5-1.17,1.24-2.44,2.61-2.79"/><path class="cls-46_recycling-2-1 targetColor" d="M177.62,179.51c.68,8.83,1.14,17.67,1.38,26.53.05.56-.02,1.13-.23,1.66-.52,1.1-1.99,1.57-3.33,1.75-2.76.27-5.56.21-8.3-.17-1.43-.05-2.83-.38-4.11-.96-1.45-.88-2.45-2.22-2.77-3.74-.32-1.51-.4-3.04-.26-4.57l.3-6.92c.2-4.5.43-9.1,2.43-13.25,1.56-3.33,4.58-6.38,8.52-7.64,5.01-1.61,6.11,4.08,6.36,7.31Z" style="fill: rgb(104, 225, 253);"/><path class="cls-2_recycling-2-1" d="M177.62,179.51c.68,8.83,1.14,17.67,1.38,26.53.05.56-.02,1.13-.23,1.66-.52,1.1-1.99,1.57-3.33,1.75-2.76.27-5.56.21-8.3-.17-1.43-.05-2.83-.38-4.11-.96-1.45-.88-2.45-2.22-2.77-3.74-.32-1.51-.4-3.04-.26-4.57l.3-6.92c.2-4.5.43-9.1,2.43-13.25,1.56-3.33,4.58-6.38,8.52-7.64,5.01-1.61,6.11,4.08,6.36,7.31Z"/><path class="cls-45_recycling-2-1" d="M184.99,193.73c1.56,1.21,3.23,2.3,5,3.26,4.56,2.33,9.99,2.93,15.06,1.68.47-.17.99-.22,1.49-.15.49.11.92.59.71,1-.05.08-.09.16-.12.25-.06.3.37.45.7.51l2.17.34c.53.02,1.03.23,1.39.58.49.64-.14,1.5-.87,1.92-1.25.72-2.79.94-4.23.59-.99-.25-1.87-.75-2.84-1.06-2.23-.74-4.69-.41-7.08-.43-2.96-.02-5.89-.58-8.59-1.64-4.1-1.62-7.51-4.31-10.84-6.96-1.25-.99-2.56-2.06-2.95-3.52-.24-.94.05-1.92.78-2.63,1.26-1.13,1.92-.31,2.92.58,2.32,2,4.76,3.9,7.3,5.68Z"/><path class="cls-45_recycling-2-1" d="M188.83,198.4c1.62,1.72,3.38,3.33,5.26,4.81,1.9,1.48,4.13,2.59,6.55,3.24.28.05.54.14.78.27.32.22.52.54.55.89.16,1.11-1.02,2.1-2.28,2.28-1.29.08-2.56-.23-3.63-.86-1.3-.69-2.55-1.47-3.73-2.32-1.21-.8-2.37-1.65-3.48-2.56-1.01-.85-1.91-1.78-2.82-2.71l-5.05-5.18c-.99-1.01-2.15-2.28-1.67-3.71.18-.88,1.14-1.46,2.14-1.3.24.04.47.12.67.24,1.41.69,2.19,2.06,3.12,3.11,1.13,1.31,2.35,2.55,3.57,3.78Z"/><path class="cls-44_recycling-2-1" d="M146.08,263.06c2.73-8.83,8.48-16.68,12.69-25.05.63-1.17,1.12-2.39,1.47-3.64.78-3.16-.13-6.43-.67-9.62-.6-3.6-.74-7.26-.42-10.89.27-3.03-.51-5.84,1.66-8.2,0,0,6.64-.89,7.95,1.46,1.56,2.82,1.28,10.14,2,13.23,1.34,5.75,1.66,11.91-.85,17.35-1.69,3.66-4.55,6.8-7.27,9.95-4.64,5.39-8.96,10.98-12.96,16.75-.42.6-.91,1.26-1.69,1.43s-2.14-2.07-1.9-2.76Z"/><path class="cls-9_recycling-2-1" d="M146.01,263.06c2.73-8.83,8.49-16.68,12.7-25.05.63-1.17,1.12-2.39,1.46-3.64.78-3.16-.13-6.43-.67-9.62-.6-3.6-.74-7.26-.41-10.89.27-3.03-.51-5.84,1.65-8.2,0,0,6.64-.89,7.96,1.46,1.56,2.82,1.27,10.14,1.99,13.23,1.34,5.75,1.66,11.91-.84,17.35-1.69,3.66-4.55,6.8-7.27,9.95-4.64,5.39-8.97,10.98-12.97,16.75-.33.65-.94,1.17-1.69,1.43-.78.16-2.11-2.07-1.9-2.76Z"/><path class="cls-46_recycling-2-1 targetColor" d="M179.59,185.74c.91,1.18.64,2.78-.62,3.68-1.16,1.33-2.41,2.61-3.71,3.82-.16.18-.37.33-.62.42-.62.18-1.2-.3-1.61-.74-2.34-2.52-4.38-5.35-5.16-8.53-.53-1.8-.37-3.71.45-5.43.6-1.11,1.63-2,2.9-2.52,1.63-.63,2.12-.23,3.01.98,1.98,2.67,3.77,5.45,5.36,8.32Z" style="fill: rgb(104, 225, 253);"/><path class="cls-33_recycling-2-1" d="M179.59,185.74c.91,1.18.64,2.78-.62,3.68-1.16,1.33-2.41,2.61-3.71,3.82-.16.18-.37.33-.62.42-.62.18-1.2-.3-1.61-.74-2.34-2.52-4.38-5.35-5.16-8.53-.53-1.8-.37-3.71.45-5.43.6-1.11,1.63-2,2.9-2.52,1.63-.63,2.12-.23,3.01.98,1.98,2.67,3.77,5.45,5.36,8.32Z"/><path class="cls-44_recycling-2-1" d="M179.01,270.67c-1.55-.16-2.91-1-3.62-2.22-.69-1.21-1.15-2.51-1.36-3.85l-2.59-11.86c-1.01-4.04-1.64-8.15-1.89-12.28-.08-2.93.23-5.9-.38-8.78-.97-3.9-2.69-7.62-5.1-11-4.41-6.59-3.34-14.88-1.76-15.25.95-.21,5.87.74,6.83.88,2.36.34,4.68.83,6.96,1.46,2.66.74,2.58,1.09,2.44,3.55-.27,4.74-.48,9.48-.61,14.22-.26,9.57-.21,19.14.15,28.7.2,5.5.51,10.97.91,16.41Z"/><path class="cls-34_recycling-2-1" d="M179.2,270.67c-1.55-.17-2.91-1-3.62-2.22-.7-1.22-1.17-2.53-1.37-3.88l-2.59-11.86c-1.02-4.04-1.65-8.15-1.89-12.28-.08-2.93.23-5.9-.39-8.78-.96-3.9-2.68-7.62-5.09-11-4.39-6.54-3.32-14.83-1.76-15.2.95-.21,5.87.74,6.84.88,2.36.34,4.68.83,6.96,1.46,2.66.74,2.58,1.09,2.44,3.55-.26,4.74-.48,9.48-.6,14.22-.26,9.57-.21,19.14.15,28.7.21,5.49.52,10.95.93,16.39Z"/><polygon class="cls-46_recycling-2-1 targetColor" points="224.34 179.58 234.2 185.15 232.35 187.69 222.49 182.12 224.34 179.58" style="fill: rgb(104, 225, 253);"/><polygon class="cls-32_recycling-2-1" points="224.34 179.58 234.2 185.15 232.35 187.69 222.49 182.12 224.34 179.58"/></g></svg>