<svg version="1.1" id="Layer_1" xmlns="http://www.w3.org/2000/svg" xmlns:xlink="http://www.w3.org/1999/xlink" x="0px" y="0px" viewBox="0 0 500 500" style="width: 166px;" xml:space="preserve" data-imageid="report-analysis-5-45" imageName="Report Analysis 5" class="illustrations_image">
<style type="text/css">
	.st0_report-analysis-5-45{fill:#D1D3D4;}
	.st1_report-analysis-5-45{fill:#FFFFFF;}
	.st2_report-analysis-5-45{fill:#231F20;}
	.st3_report-analysis-5-45{fill:#68E1FD;}
</style>
<g id="Ground_report-analysis-5-45">
	<path class="st0_report-analysis-5-45" d="M206.4,362.4c-51,0-90.1-0.2-91.3-0.8c-0.3-0.2-0.5-0.6-0.3-0.9c0.2-0.3,0.5-0.5,0.9-0.3&#10;&#9;&#9;c5.1,1.2,217.4,0.5,329,0c0.4,0,0.7,0.3,0.7,0.7s-0.3,0.7-0.7,0.7c0,0,0,0,0,0C423.4,361.9,296.3,362.4,206.4,362.4z"/>
</g>
<g id="Board_report-analysis-5-45">
	<rect x="155.8" y="110.7" class="st1_report-analysis-5-45" width="265.5" height="200.9"/>
	<path class="st2_report-analysis-5-45" d="M421.3,312.3H155.8c-0.4,0-0.7-0.3-0.7-0.7V110.7c0-0.4,0.3-0.7,0.7-0.7h265.5c0.4,0,0.7,0.3,0.7,0.7v0v200.9&#10;&#9;&#9;C422,312,421.6,312.3,421.3,312.3z M156.5,310.9h264.1V111.4H156.5V310.9z"/>
</g>
<g id="Bar_chart_report-analysis-5-45">
	<rect x="212.2" y="213.8" class="st3_report-analysis-5-45 targetColor" width="14.5" height="71" style="fill: rgb(104, 225, 253);"/>
	<rect x="237.1" y="237.9" class="st0_report-analysis-5-45" width="14.5" height="46.9"/>
	<rect x="262.1" y="224.2" class="st0_report-analysis-5-45" width="14.5" height="60.6"/>
	<path class="st0_report-analysis-5-45" d="M287.8,285h-85.9c-0.4,0-0.7-0.3-0.7-0.7c0-0.4,0.3-0.7,0.7-0.7h85.9c0.4,0,0.7,0.3,0.7,0.7&#10;&#9;&#9;C288.5,284.7,288.2,285,287.8,285z"/>
</g>
<g id="Character_report-analysis-5-45">
	<polygon class="st1_report-analysis-5-45" points="129.6,319 177.4,206.6 277.3,233.6 217.8,367.4 &#9;"/>
	<path class="st2_report-analysis-5-45" d="M217.8,368.1c-0.1,0-0.2,0-0.3-0.1l-88.1-48.4c-0.3-0.2-0.4-0.6-0.3-0.9l47.8-112.4c0.1-0.3,0.5-0.5,0.8-0.4&#10;&#9;&#9;l99.9,26.9c0.4,0.1,0.6,0.5,0.5,0.8c0,0.1,0,0.1-0.1,0.2l-59.5,133.8c-0.1,0.2-0.2,0.3-0.4,0.4&#10;&#9;&#9;C217.9,368.1,217.8,368.1,217.8,368.1z M130.5,318.7l86.9,47.7L276.3,234l-98.5-26.6L130.5,318.7z"/>
	<path class="st0_report-analysis-5-45" d="M155.6,325.8c-0.1,0-0.2,0-0.3-0.1c-0.3-0.2-0.5-0.6-0.3-0.9c0,0,0,0,0,0l47.8-104.2c0.1-0.4,0.5-0.5,0.9-0.4&#10;&#9;&#9;c0.4,0.1,0.5,0.5,0.4,0.9c0,0,0,0.1,0,0.1l-47.8,104.2C156.2,325.6,155.9,325.8,155.6,325.8z"/>
	<path class="st0_report-analysis-5-45" d="M253.4,260.6c-0.1,0-0.1,0-0.2,0l-77.7-23.8c-0.4-0.1-0.6-0.5-0.5-0.9c0.1-0.4,0.5-0.6,0.9-0.5c0,0,0,0,0,0&#10;&#9;&#9;l77.7,23.8c0.4,0.1,0.6,0.5,0.5,0.9C254,260.4,253.8,260.6,253.4,260.6L253.4,260.6z"/>
	<path class="st0_report-analysis-5-45" d="M213.4,353.6c-0.1,0-0.2,0-0.3,0l-76.9-30.1c-0.2-0.1-0.3-0.2-0.4-0.4c-0.1-0.2-0.1-0.4,0-0.6l48.6-107.3&#10;&#9;&#9;c0.1-0.3,0.5-0.5,0.8-0.4l77.8,22.6c0.2,0.1,0.4,0.2,0.4,0.4c0.1,0.2,0.1,0.4,0,0.6l-49.4,114.8C214,353.5,213.7,353.6,213.4,353.6&#10;&#9;&#9;z M137.4,322.4L213,352l48.8-113.5l-76.4-22.2L137.4,322.4z"/>
	<path class="st1_report-analysis-5-45" d="M153.3,241.8c0,0,4.6-18,12-21.1s20.5-4,16.8-0.4S168,226,168,226s4.1,23.2-5.4,25.8S153.3,241.8,153.3,241.8z&#10;&#9;&#9;"/>
	<path class="st2_report-analysis-5-45" d="M160.3,252.9c-1.4,0-2.8-0.4-3.9-1.3c-3.7-2.9-3.8-9.5-3.8-9.8c0-0.1,0-0.1,0-0.2c0.2-0.8,4.8-18.4,12.4-21.6&#10;&#9;&#9;c5.7-2.4,16.6-4,18.2-1.6c0.3,0.4,0.5,1.2-0.6,2.4c-3.3,3.2-11.4,5.2-13.8,5.8c0.6,3.9,3.2,23.5-6,25.9&#10;&#9;&#9;C162,252.7,161.2,252.9,160.3,252.9z M154,241.9c0,0.7,0.2,6.3,3.2,8.6c1.6,1.1,3.5,1.3,5.3,0.7c8.7-2.4,4.9-24.8,4.8-25&#10;&#9;&#9;c-0.1-0.4,0.2-0.7,0.6-0.8c0.1,0,10.3-2.1,13.8-5.5c0.4-0.4,0.4-0.6,0.4-0.6c-0.6-1.1-9.8-0.6-16.5,2.1S154.4,240.5,154,241.9&#10;&#9;&#9;L154,241.9z"/>
	<path class="st1_report-analysis-5-45" d="M96.9,206.1c-9.2-2.2-14.5-12.5-17.4-20.8c-3.2-9.4-6.8-17.1-3.5-27.2c0.8-2.3,2-4.8,4.4-5.6&#10;&#9;&#9;c0.6-0.1,1.1-0.3,1.6-0.7c0.4-0.4,0.7-0.9,0.8-1.5c4.8-13.2,20.3-14.4,32-13.2c6.8,0.7,15.7,3.3,18.2,10.1c4.5,12.6,2,26.6-4.5,38&#10;&#9;&#9;C122.4,196.1,110.6,209.5,96.9,206.1z"/>
	<path class="st2_report-analysis-5-45" d="M101.1,207.3c-1.5,0-3-0.2-4.4-0.5c-9.6-2.3-15-12.8-17.8-21.2c-0.4-1.1-0.7-2.1-1.1-3.2&#10;&#9;&#9;c-2.9-8.2-5.4-15.3-2.4-24.5c1.1-3.3,2.7-5.3,4.8-6l0.4-0.1c0.3-0.1,0.6-0.2,0.9-0.4c0.3-0.3,0.4-0.7,0.6-1.1l0.1-0.1&#10;&#9;&#9;c4.9-13.6,20.5-14.9,32.8-13.7c4.7,0.5,15.9,2.5,18.8,10.6c4.3,11.9,2.7,26-4.5,38.6C122.9,196.6,112.6,207.3,101.1,207.3z&#10;&#9;&#9; M108,137.5c-10.2,0-20.8,2.7-24.6,13.1v0.1c-0.2,0.6-0.5,1.2-1,1.6c-0.4,0.3-0.9,0.6-1.5,0.7l-0.4,0.1c-1.7,0.6-3,2.3-3.9,5.1&#10;&#9;&#9;c-2.9,8.8-0.4,15.6,2.4,23.6c0.4,1,0.7,2.1,1.1,3.2c2.8,8.1,7.9,18.2,16.9,20.3c12.5,3,24.1-8.6,30.9-20.4&#10;&#9;&#9;c7-12.2,8.6-25.9,4.4-37.4c-2.7-7.4-13.2-9.2-17.6-9.7C112.5,137.7,110.2,137.5,108,137.5z"/>
	<path class="st1_report-analysis-5-45" d="M136.5,178.1c0,0,10.3,11.6,9,14.5s-7.4,2-7.4,2"/>
	<path class="st2_report-analysis-5-45" d="M140.1,195.4c-0.7,0-1.4,0-2.2-0.1c-0.4,0-0.6-0.4-0.6-0.8c0,0,0,0,0,0c0.1-0.4,0.4-0.6,0.8-0.6&#10;&#9;&#9;c1.5,0.2,5.8,0.4,6.7-1.6c0.7-1.5-4-8.3-8.9-13.7c-0.3-0.3-0.2-0.7,0-1c0,0,0,0,0,0c0.3-0.3,0.7-0.2,1,0.1&#10;&#9;&#9;c1.8,2,10.6,12.1,9.1,15.3C145.1,195,142.1,195.4,140.1,195.4z"/>
	<path class="st1_report-analysis-5-45" d="M132.2,161.4c6,3.6,5.8,13.1,6.6,19.2c1.2,8.5,2.1,17.1,2.9,25.6c0.5,5.4-13.5,7.6-16.2,6.3l5.3,21l-31-7&#10;&#9;&#9;l-2.6-24.7c0,0,9.2-1.3,13.1-13s1.2-28.6,1.2-28.6S126.3,157.9,132.2,161.4z"/>
	<path class="st2_report-analysis-5-45" d="M130.9,234.3h-0.2l-31-7c-0.3-0.1-0.5-0.3-0.5-0.6l-2.6-24.8c0-0.4,0.2-0.7,0.6-0.8c0,0,0,0,0,0&#10;&#9;&#9;c0.4,0,8.9-1.4,12.5-12.6c3.8-11.5,1.2-28.2,1.2-28.3c0-0.2,0-0.4,0.1-0.5c0.1-0.1,0.3-0.2,0.5-0.3c0.6-0.1,15.1-2.2,21.1,1.4l0,0&#10;&#9;&#9;c5.3,3.2,6,10.5,6.6,16.4c0.1,1.2,0.2,2.3,0.4,3.3c1.2,8.5,2.1,17.1,2.9,25.7c0.1,1.1-0.2,2.7-2.4,4.2c-3.5,2.4-10.3,3.6-13.5,3.1&#10;&#9;&#9;l5,19.9c0.1,0.2,0,0.5-0.2,0.7C131.3,234.2,131.1,234.3,130.9,234.3z M100.6,226l29.4,6.6l-5-19.9c-0.1-0.3,0-0.5,0.2-0.7&#10;&#9;&#9;c0.2-0.2,0.5-0.2,0.7-0.1c1.8,0.8,9.7-0.1,13.4-2.7c1.3-0.9,1.9-1.9,1.8-2.9c-0.8-8.5-1.8-17.1-2.9-25.6c-0.1-1-0.2-2.2-0.4-3.4&#10;&#9;&#9;c-0.6-5.6-1.2-12.5-5.9-15.4l0,0c-4.9-2.9-16.5-1.7-19.5-1.3c0.5,3.4,2.2,17.7-1.3,28.3c-3.4,10.4-10.7,12.9-13,13.4L100.6,226z"/>
	<path class="st1_report-analysis-5-45" d="M140.6,199.9c0,0-8.4,0.4-11-10.8"/>
	<path class="st2_report-analysis-5-45" d="M140.6,200.6c-1.1,0-9.1-0.4-11.6-11.3c-0.1-0.4,0.1-0.8,0.5-0.9c0.4-0.1,0.8,0.1,0.9,0.5c0,0,0,0.1,0,0.1&#10;&#9;&#9;c2.5,10.5,10.2,10.2,10.3,10.2c0.4,0,0.7,0.3,0.7,0.7c0,0.4-0.3,0.7-0.7,0.7l0,0H140.6z"/>
	<path class="st1_report-analysis-5-45" d="M120.9,185.9c-0.3-2.1-1.8-3.9-3.2-5.5c-1-1.3-2.3-2.5-3.6-3.4c-1.4-1-3.2-1.2-4.8-0.7c-1.4,0.6-2.5,1.7-3,3.1&#10;&#9;&#9;c-0.5,1.4-0.6,2.9-0.4,4.4c0.7,6.6,4.8,12.3,10.8,15l-0.5-0.4"/>
	<path class="st2_report-analysis-5-45" d="M116.7,199.4c-0.1,0-0.2,0-0.3-0.1c-6.2-2.8-10.5-8.7-11.2-15.6c-0.2-1.6,0-3.2,0.5-4.7&#10;&#9;&#9;c0.5-1.6,1.8-2.9,3.3-3.5c1.8-0.6,3.8-0.3,5.4,0.8c1.4,1,2.7,2.2,3.8,3.6c1.3,1.5,3,3.4,3.4,5.8c0.1,0.4-0.2,0.7-0.6,0.8&#10;&#9;&#9;c-0.4,0.1-0.7-0.2-0.8-0.6l0,0c-0.3-2-1.8-3.7-3.1-5.1c-1-1.3-2.2-2.4-3.5-3.3c-1.2-0.8-2.8-1.1-4.2-0.7c-1.2,0.5-2.1,1.5-2.5,2.7&#10;&#9;&#9;c-0.4,1.3-0.6,2.7-0.4,4.1c0.6,5.9,4.1,11.1,9.4,13.9c0.2-0.1,0.4,0,0.6,0.1l0.5,0.4c0.3,0.2,0.3,0.7,0.1,1&#10;&#9;&#9;C117,199.3,116.8,199.4,116.7,199.4L116.7,199.4z"/>
	<path class="st2_report-analysis-5-45" d="M125.6,212.6c0,0-7.6-1.2-11.7-5.7c0,0,2,11.3,13.6,13.4L125.6,212.6z"/>
	<path class="st2_report-analysis-5-45" d="M127.6,221h-0.1c-12-2.2-14.1-13.9-14.2-14c-0.1-0.3,0.1-0.6,0.4-0.7c0.3-0.1,0.6-0.1,0.8,0.1&#10;&#9;&#9;c3.9,4.2,11.2,5.4,11.3,5.5c0.3,0,0.5,0.2,0.6,0.5l1.9,7.7c0.1,0.2,0,0.5-0.2,0.6C127.9,220.9,127.8,221,127.6,221z M115.3,209.1&#10;&#9;&#9;c1.8,5.1,6,9,11.3,10.3l-1.6-6.2C121.5,212.5,118.2,211.1,115.3,209.1z"/>
	
		<ellipse transform="matrix(2.356003e-02 -0.9997 0.9997 2.356003e-02 -45.1599 299.5824)" class="st2_report-analysis-5-45" cx="130.8" cy="172.9" rx="3.1" ry="1.2"/>
	<path class="st1_report-analysis-5-45" d="M229.8,294.6c9.5-11.3,20.1-25.6,13.3-41.2c-0.6-1.5-1.8-3.1-3.4-3c-0.7,0.1-1.3,0.4-1.9,0.8l-5.9,3.6&#10;&#9;&#9;c0.2-1.6-1.8-2.8-3.4-2.3s-2.6,1.8-3.6,3.1c-6.1,8.6-10,16.9-9.6,27.5"/>
	<path class="st2_report-analysis-5-45" d="M229.8,295.3c-0.2,0-0.3-0.1-0.4-0.2c-0.3-0.3-0.3-0.7-0.1-1c9.8-11.7,19.7-25.4,13.2-40.5&#10;&#9;&#9;c-0.3-0.6-1.3-2.7-2.8-2.6c-0.6,0.1-1.1,0.3-1.6,0.7l-5.9,3.6c-0.3,0.2-0.8,0.1-1-0.2c-0.1-0.1-0.1-0.3-0.1-0.4&#10;&#9;&#9;c0-0.4-0.2-0.8-0.5-1.1c-0.6-0.5-1.3-0.6-2-0.5c-1.4,0.4-2.4,1.7-3.2,2.9c-5.2,7.4-9.9,15.7-9.5,27.1c0,0.4-0.3,0.7-0.7,0.7&#10;&#9;&#9;c-0.4,0-0.7-0.3-0.7-0.7c-0.4-11.8,4.5-20.4,9.8-27.9c1-1.4,2.2-2.9,4-3.4c1.2-0.3,2.4,0,3.3,0.8c0.3,0.3,0.6,0.7,0.8,1.1l5-3&#10;&#9;&#9;c0.7-0.5,1.4-0.8,2.2-0.9c1.6-0.1,3.1,1.1,4.1,3.4c7.5,17.1-6.1,33.3-13.4,41.9C230.3,295.2,230.1,295.3,229.8,295.3z"/>
	<path class="st2_report-analysis-5-45" d="M224.9,265l10.1-31.6l3.2,0.9l-6.4,31.2C231.8,265.5,227.3,269.9,224.9,265z"/>
	<path class="st2_report-analysis-5-45" d="M228,268c-0.2,0-0.4,0-0.6,0c-1.4-0.3-2.6-1.3-3.1-2.6c-0.1-0.2-0.1-0.4-0.1-0.5l10.2-31.6&#10;&#9;&#9;c0.1-0.4,0.5-0.6,0.9-0.5l3.2,0.9c0.3,0.1,0.6,0.5,0.5,0.8l-6.4,31.2c0,0.1-0.1,0.3-0.2,0.4C231.1,267.2,229.6,267.9,228,268z&#10;&#9;&#9; M225.6,265c0.4,0.8,1.1,1.4,2,1.6c1.4,0.2,2.9-0.8,3.6-1.4l6.2-30.3l-1.9-0.5L225.6,265z"/>
	<path class="st3_report-analysis-5-45 targetColor" d="M212.2,276.1l-26.4,48.5c0,0-7.8-82.8-26.2-94.8s-51.2-12.5-78.9,0.9C58.6,241.3,51.5,346.4,55.9,390h110.9&#10;&#9;&#9;l-1.1-19.3c0,0,6.8,19.8,26.8,15s43.3-98.7,43.3-98.7L212.2,276.1z" style="fill: rgb(104, 225, 253);"/>
	<path class="st2_report-analysis-5-45" d="M165.7,371.4c-0.2,0-0.5-0.1-0.6-0.3c-12.6-18.8-20-74-20.3-76.4c0-0.4,0.2-0.7,0.6-0.8c0.4,0,0.7,0.2,0.8,0.6&#10;&#9;&#9;c0.1,0.6,7.7,57.2,20,75.8c0.2,0.3,0.1,0.8-0.2,1C166,371.3,165.8,371.4,165.7,371.4L165.7,371.4z"/>
</g>
<g id="Pie_Chart_report-analysis-5-45">
	<path class="st3_report-analysis-5-45 targetColor" d="M302.6,183.8c-0.4,25.2,19.7,45.9,44.9,46.3s45.9-19.7,46.3-44.9c0-0.5,0-0.9,0-1.4h-45.6v-45.6&#10;&#9;&#9;C323,138.2,302.6,158.6,302.6,183.8z" style="fill: rgb(104, 225, 253);"/>
	<path class="st0_report-analysis-5-45" d="M355.6,131.5v45.6h45.6C401.2,151.9,380.8,131.5,355.6,131.5z"/>
</g>
<g id="Wall_note_report-analysis-5-45">
	<rect x="383" y="301.3" class="st3_report-analysis-5-45 targetColor" width="29.4" height="25.8" style="fill: rgb(104, 225, 253);"/>
	<rect x="395.6" y="298.6" class="st0_report-analysis-5-45" width="3.4" height="5.2"/>
	<path class="st1_report-analysis-5-45" d="M397.4,309.6h-8.9c-0.4,0-0.7-0.3-0.7-0.7c0-0.4,0.3-0.7,0.7-0.7h8.9c0.4,0,0.7,0.3,0.7,0.7&#10;&#9;&#9;C398.1,309.3,397.7,309.6,397.4,309.6z"/>
	<path class="st1_report-analysis-5-45" d="M404.2,315.1h-15.7c-0.4,0-0.7-0.3-0.7-0.7c0-0.4,0.3-0.7,0.7-0.7h15.7c0.4,0,0.7,0.3,0.7,0.7&#10;&#9;&#9;C404.9,314.8,404.6,315.1,404.2,315.1z"/>
	<path class="st1_report-analysis-5-45" d="M407.9,309.8h-6.6c-0.4,0-0.7-0.3-0.7-0.7c0-0.4,0.3-0.7,0.7-0.7h6.6c0.4,0,0.7,0.3,0.7,0.7&#10;&#9;&#9;S408.3,309.7,407.9,309.8C407.9,309.8,407.9,309.8,407.9,309.8z"/>
</g>
<g id="Line_of_Texts_report-analysis-5-45">
	<path class="st0_report-analysis-5-45" d="M282.5,143.9h-15.6c-0.4,0-0.6-0.4-0.6-0.7c0-0.3,0.3-0.5,0.6-0.6h15.5c0.4,0,0.6,0.4,0.6,0.7&#10;&#9;&#9;C283,143.6,282.8,143.9,282.5,143.9L282.5,143.9z"/>
	<path class="st0_report-analysis-5-45" d="M288.3,143.9h-3c-0.4,0-0.7-0.2-0.7-0.6c0-0.4,0.2-0.7,0.6-0.7c0.1,0,0.1,0,0.2,0h3c0.4,0,0.7,0.2,0.7,0.6&#10;&#9;&#9;c0,0.4-0.2,0.7-0.6,0.7C288.4,143.9,288.4,143.9,288.3,143.9z"/>
	<path class="st0_report-analysis-5-45" d="M289.7,153.2h-22.9c-0.4,0-0.7-0.2-0.7-0.6c0-0.4,0.2-0.7,0.6-0.7c0.1,0,0.1,0,0.2,0h22.9&#10;&#9;&#9;c0.4,0,0.6,0.4,0.6,0.7C290.2,153,290,153.2,289.7,153.2z"/>
	<path class="st0_report-analysis-5-45" d="M274.3,162.6h-7.4c-0.4,0-0.7-0.2-0.7-0.6c0-0.4,0.2-0.7,0.6-0.7c0.1,0,0.1,0,0.2,0h7.4c0.4,0,0.7,0.2,0.7,0.6&#10;&#9;&#9;c0,0.4-0.2,0.7-0.6,0.7C274.4,162.6,274.4,162.6,274.3,162.6z"/>
	<path class="st0_report-analysis-5-45" d="M292.2,162.2h-13.2c-0.4,0-0.7-0.2-0.7-0.6c0-0.4,0.2-0.7,0.6-0.7c0.1,0,0.1,0,0.2,0h13.2&#10;&#9;&#9;c0.4,0,0.7,0.2,0.7,0.6c0,0.4-0.2,0.7-0.6,0.7C292.3,162.2,292.2,162.2,292.2,162.2z"/>
	<path class="st0_report-analysis-5-45" d="M382.2,249.3h-75.6c-0.4,0-0.7-0.3-0.7-0.7s0.3-0.7,0.7-0.7c0,0,0,0,0,0h75.6c0.4,0,0.7,0.3,0.7,0.7&#10;&#9;&#9;C382.9,249,382.6,249.3,382.2,249.3z"/>
	<path class="st0_report-analysis-5-45" d="M366,266h-58.2c-0.4,0-0.7-0.3-0.7-0.7c0-0.4,0.3-0.7,0.7-0.7H366c0.4,0,0.7,0.3,0.7,0.7S366.4,266,366,266&#10;&#9;&#9;C366,266,366,266,366,266z"/>
	<path class="st0_report-analysis-5-45" d="M374.1,282.2h-67.4c-0.4,0-0.7-0.3-0.7-0.7c0-0.4,0.3-0.7,0.7-0.7h67.4c0.4,0,0.7,0.3,0.7,0.7&#10;&#9;&#9;C374.8,281.9,374.5,282.2,374.1,282.2z"/>
	<path class="st0_report-analysis-5-45" d="M384.8,265.2h-10.7c-0.4,0-0.7-0.3-0.7-0.7s0.3-0.7,0.7-0.7c0,0,0,0,0,0h10.7c0.4,0,0.7,0.3,0.7,0.7&#10;&#9;&#9;C385.5,264.9,385.2,265.2,384.8,265.2z"/>
</g>
<g id="Line_Chart_report-analysis-5-45">
	<path class="st0_report-analysis-5-45" d="M267,196.2h-66.7c-0.4,0-0.7-0.3-0.7-0.7v-54.7c0-0.4,0.3-0.7,0.7-0.7c0.4,0,0.7,0.3,0.7,0.7v54h66&#10;&#9;&#9;c0.4,0,0.7,0.3,0.7,0.7C267.7,195.8,267.4,196.2,267,196.2L267,196.2z"/>
	<path class="st0_report-analysis-5-45" d="M200.3,196.2c-0.2,0-0.3-0.1-0.5-0.2c-0.3-0.3-0.3-0.7,0-1l28-30c0.1-0.2,0.4-0.2,0.6-0.2&#10;&#9;&#9;c0.2,0,0.4,0.1,0.5,0.3l6.2,9.9l19.4-21.3c0.3-0.3,0.7-0.3,1,0c0.3,0.3,0.3,0.7,0.1,1c0,0,0,0,0,0l-20,22c-0.3,0.3-0.7,0.3-1,0.1&#10;&#9;&#9;c-0.1,0-0.1-0.1-0.1-0.2l-6.2-9.9L200.8,196C200.7,196.1,200.5,196.2,200.3,196.2z"/>
</g>
</svg>