<svg version="1.1" id="Layer_1" xmlns="http://www.w3.org/2000/svg" xmlns:xlink="http://www.w3.org/1999/xlink" x="0px" y="0px" viewBox="0 0 500 500" style="width: 166px;" xml:space="preserve" data-imageid="rio-de-janeiro-2" imageName="Rio de Janeiro" class="illustrations_image">
<style type="text/css">
	.st0_rio-de-janeiro-2{fill:#2C7E72;}
	.st1_rio-de-janeiro-2{opacity:0.27;fill:#153E42;enable-background:new    ;}
	.st2_rio-de-janeiro-2{fill:url(#SVGID_1_);}
	.st3_rio-de-janeiro-2{fill:#B8BCCC;}
	.st4_rio-de-janeiro-2{fill:#DBDCE1;}
	.st5_rio-de-janeiro-2{opacity:0.2;fill:#153E42;enable-background:new    ;}
	.st6_rio-de-janeiro-2{fill:#68E1FD;}
	.st7_rio-de-janeiro-2{opacity:0.5;fill:#153E42;enable-background:new    ;}
	.st8_rio-de-janeiro-2{opacity:0.31;fill:#FFFFFF;enable-background:new    ;}
	.st9_rio-de-janeiro-2{fill:#DCFFF3;}
	.st10_rio-de-janeiro-2{opacity:0.4;fill:#153E42;enable-background:new    ;}
	.st11_rio-de-janeiro-2{opacity:0.41;fill:url(#SVGID_00000005263493181203557610000008640605547377609896_);enable-background:new    ;}
	.st12_rio-de-janeiro-2{fill:#A83F1E;}
	.st13_rio-de-janeiro-2{fill:#42210B;}
	.st14_rio-de-janeiro-2{fill:#77C457;}
	.st15_rio-de-janeiro-2{opacity:0.41;fill:url(#SVGID_00000057150347117892952250000015434258231836322234_);enable-background:new    ;}
	.st16_rio-de-janeiro-2{opacity:0.41;fill:url(#SVGID_00000006680850212111125870000015727685625092440462_);enable-background:new    ;}
	.st17_rio-de-janeiro-2{opacity:0.41;fill:url(#SVGID_00000083063106730390131670000005208784731579443584_);enable-background:new    ;}
	.st18_rio-de-janeiro-2{opacity:0.41;fill:url(#SVGID_00000048496607778831266880000009815430346518004412_);enable-background:new    ;}
</style>
<g id="field_rio-de-janeiro-2">
	<path class="st0_rio-de-janeiro-2" d="M243,415.5L22.2,285c-7-3.9-13.1-10.4-6.2-14.7l221.6-127.7c3.3-2.1,8.4-3.4,11.8-1.4l231.8,134.5&#10;&#9;&#9;c7,4.1,8.3,15.5,1.3,19.6l-210.3,120C263.1,420.5,252.1,420.6,243,415.5z"/>
	<path class="st1_rio-de-janeiro-2" d="M159.1,317.4c-10.1-6-13.4-18.9-7.4-29c1.4-2.3,3.2-4.4,5.3-6c15.1-11.5,35.3-26.6,55.4-40.3&#10;&#9;&#9;c17.4-11.9,81-1.7,85.7-1.5c3.5,0.1,34.8,27.2,54.5,49.8c7.7,8.8,6.7,22.2-2.1,29.8c-1.1,1-2.3,1.8-3.6,2.6&#10;&#9;&#9;c-30.9,17.1-86.5,47.2-93.9,46.4C246.1,368.4,192.5,337.1,159.1,317.4z"/>
</g>
<g id="rio_rio-de-janeiro-2">
	
		<linearGradient id="SVGID_1_-rio-de-janeiro-2" gradientUnits="userSpaceOnUse" x1="175.8619" y1="140.4577" x2="268.7219" y2="219.1678" gradientTransform="matrix(1 0 0 -1 0 502)">
		<stop offset="1.000000e-02" style="stop-color:#153E42;stop-opacity:0"/>
		<stop offset="1" style="stop-color:#153E42"/>
	</linearGradient>
	<polyline class="st2_rio-de-janeiro-2" points="214.2,281.1 129.1,348.2 202.8,391.8 304.5,293.3 &#9;"/>
	<polygon class="st3_rio-de-janeiro-2" points="274.7,268.5 229.4,276.8 214.2,286.2 214.2,293.7 253.1,316 265.5,316 304.5,293.3 304.5,285.1 &#9;"/>
	<polygon class="st4_rio-de-janeiro-2" points="274.7,263.3 229.4,271.5 214.2,281.1 214.2,288.4 253.2,310.7 265.6,310.7 304.5,288 304.5,279.8 &#9;"/>
	<polygon class="st4_rio-de-janeiro-2" points="273.5,223.7 231.3,231.4 217.1,240.2 217.1,247 253.5,267.9 265,267.9 301.2,246.7 301.2,239.1 &#9;"/>
	<polygon class="st3_rio-de-janeiro-2" points="272.1,225.8 233.9,232.7 221.1,240.7 221.1,247 253.9,265.8 264.4,265.8 297.2,246.6 297.2,239.7 &#9;"/>
	<polygon class="st4_rio-de-janeiro-2" points="272.1,221.4 234,228.3 221.1,236.3 221.1,242.5 254,261.3 264.4,261.3 297.2,242.2 297.2,235.3 &#9;"/>
	<path class="st4_rio-de-janeiro-2" d="M262.8,241.2c0.1,0.4,0.9,3.6,1.9,4.6s0.8,4-1,5s-7,0-7.6-0.6s-7.3-2.9-7.3-2.9s4.6-6.4,5.9-6.8&#10;&#9;&#9;S262.8,241.2,262.8,241.2z"/>
	<path class="st4_rio-de-janeiro-2" d="M267.6,238.4c2.6,0.9,5.1,1.9,7.6,3.1c1.2,0.7,4,0.8,4.7,0.7s2.2-3.2,1.9-4.6s-5.8-7-5.8-7L267.6,238.4z"/>
	<path class="st5_rio-de-janeiro-2" d="M262.8,241.2c0.1,0.4,0.9,3.6,1.9,4.6s0.8,4-1,5s-7,0-7.6-0.6s-7.3-2.9-7.3-2.9s4.6-6.4,5.9-6.8&#10;&#9;&#9;S262.8,241.2,262.8,241.2z"/>
	<path class="st5_rio-de-janeiro-2" d="M267.6,238.4c2.6,0.9,5.1,1.9,7.6,3.1c1.2,0.7,4,0.8,4.7,0.7s2.2-3.2,1.9-4.6s-5.8-7-5.8-7L267.6,238.4z"/>
	<path class="st6_rio-de-janeiro-2 targetColor" d="M305.2,90c1.3-1.8,2.8-3.5,4.3-5.1c1.2-1.1,6.4-3,7-3.2s6.6-1.2,7-0.7s0.1,1.7-0.9,2.7c-1.9,1.9-4,3.6-6.2,5.2&#10;&#9;&#9;c-1.2,0.7-7.8,5.1-8.6,5.3s-5.6,3.5-5.6,3.5l-0.6-6L305.2,90z" style="fill: rgb(104, 225, 253);"/>
	<path class="st6_rio-de-janeiro-2 targetColor" d="M212,144.9c-0.6,0.1-5.1-0.8-7-0.7s-7.2,1.5-6.9,2.2s4.7,0.1,4.1,0.5s-9.4,4.9-9.7,6.4s0,4.4,1.9,4.5&#10;&#9;&#9;s8.1-1.2,10.7-1.6s7.1-4,7.1-4l6.4-2.4c0,0,0.3-4-2-5.6s-1.9-0.6-1.9-0.6L212,144.9z" style="fill: rgb(104, 225, 253);"/>
	<path class="st6_rio-de-janeiro-2 targetColor" d="M305.2,90c1.3-1.8,2.8-3.5,4.3-5.1c1.2-1.1,6.4-3,7-3.2s6.6-1.2,7-0.7s0.1,1.7-0.9,2.7c-1.9,1.9-4,3.6-6.2,5.2&#10;&#9;&#9;c-1.2,0.7-7.8,5.1-8.6,5.3s-5.6,3.5-5.6,3.5l-0.6-6L305.2,90z" style="fill: rgb(104, 225, 253);"/>
	<path class="st6_rio-de-janeiro-2 targetColor" d="M234.8,206.8c-0.3,0.7-1.2,31.9-0.9,32.9s3.9,2.8,4.7,4.8s6.3,4.5,6.3,4.5s4.2-2.2,6.3-2.2s4.7-3.6,6.6-3.6&#10;&#9;&#9;s3.6,0.9,5.7-0.3s6.8-3.6,7.7-5s3.6-4.9,5-4.9s2.5-1.8,2.5-1.8l-1.6-39.9L234.8,206.8z" style="fill: rgb(104, 225, 253);"/>
	<path class="st6_rio-de-janeiro-2 targetColor" d="M234.8,206.8c-0.3,0.7-1.2,31.9-0.9,32.9s3.9,2.8,4.7,4.8s6.3,4.5,6.3,4.5s4.2-2.2,6.3-2.2s4.7-3.6,6.6-3.6&#10;&#9;&#9;s3.6,0.9,5.7-0.3s6.8-3.6,7.7-5s3.6-4.9,5-4.9s2.5-1.8,2.5-1.8l-1.6-39.9L234.8,206.8z" style="fill: rgb(104, 225, 253);"/>
	<path class="st6_rio-de-janeiro-2 targetColor" d="M271,103.8c2.3-0.5,4.5-1,6.7-1.7c0.7-0.4,27.5-12,27.5-12.1s0.7,5.2,0,6.9s-3.8,11.2-3.8,11.2&#10;&#9;&#9;s-18.1,8.2-18.4,8.7s-4.6,9.8-4.6,9.8s-1.6,65.7-1.7,66.9s-16.3,8.2-16.3,8.2l4.2-78.9" style="fill: rgb(104, 225, 253);"/>
	<path class="st6_rio-de-janeiro-2 targetColor" d="M210.8,143.2c-0.7,2.1-0.7,4.3,0,6.4c1.3,3.2,6.2,8.9,7.4,8.1s2.2-7.1,2.1-9.6S212.8,142.1,210.8,143.2z" style="fill: rgb(104, 225, 253);"/>
	<path class="st6_rio-de-janeiro-2 targetColor" d="M212,144.9c-0.6,0.1-5.1-0.8-7-0.7s-7.2,1.5-6.9,2.2s4.7,0.1,4.1,0.5s-9.4,4.9-9.7,6.4s0,4.4,1.9,4.5&#10;&#9;&#9;s8.1-1.2,10.7-1.6s7.1-4,7.1-4l6.4-2.4c0,0,0.3-4-2-5.6s-1.9-0.6-1.9-0.6L212,144.9z" style="fill: rgb(104, 225, 253);"/>
	<path class="st6_rio-de-janeiro-2 targetColor" d="M272.1,98.4l-1.1-2.7c0,0-5.3-5.4-6-5.4s-5.9-1.3-8,0.8s-8.4,13.3-8.7,13.8s0,4.2,0,4.2s-10.3,7.1-11.3,8.9&#10;&#9;&#9;s-4,6.3-4,6.3s-15.3,15-17.1,15.8s-5.1,2.9-5.1,2.9s7.9,2.9,7.8,6.5s0.3,6.2-0.4,7.9c0,0,15.7-10.8,16.8-11.6s-2.1,55-2.1,55&#10;&#9;&#9;l-0.2,6c0,0,2.6,4.9,5.1,4.9s6.9-1.9,8.6,0s4.5,0.5,5.8-1.9s3-3.4,4.5-3.4c1.5,0,5-2.1,5-3.1S272.1,98.4,272.1,98.4z" style="fill: rgb(104, 225, 253);"/>
	<path class="st6_rio-de-janeiro-2 targetColor" d="M270.4,98.4c0.6,0.4,0.8,1.1,0.5,1.8c-0.3,0.6-0.4,1.3-0.4,2c0,1.8-2.8,6.6-2.8,7.4s-0.8,5-1.3,5h-3.2&#10;&#9;&#9;l-2.9-4.2c0,0-2.2-1.7-2.2-3.5c0.2-1.7,0.4-3.3,0.8-4.9c0-0.5,5.7-4.9,7.8-4.9C268,97.2,269.3,97.6,270.4,98.4z" style="fill: rgb(104, 225, 253);"/>
	<path class="st1_rio-de-janeiro-2" d="M305.2,90c1.3-1.8,2.8-3.5,4.3-5.1c1.2-1.1,6.4-3,7-3.2s6.6-1.2,7-0.7s0.1,1.7-0.9,2.7c-1.9,1.9-4,3.6-6.2,5.2&#10;&#9;&#9;c-1.2,0.7-7.8,5.1-8.6,5.3s-5.6,3.5-5.6,3.5l-0.6-6L305.2,90z"/>
	<path class="st1_rio-de-janeiro-2" d="M234.8,206.8c-0.3,0.7-1.2,31.9-0.9,32.9s3.9,2.8,4.7,4.8s6.3,4.5,6.3,4.5s4.2-2.2,6.3-2.2s4.7-3.6,6.6-3.6&#10;&#9;&#9;s3.6,0.9,5.7-0.3s6.8-3.6,7.7-5s3.6-4.9,5-4.9s2.5-1.8,2.5-1.8l-1.6-39.9L234.8,206.8z"/>
	<path class="st1_rio-de-janeiro-2" d="M212,144.9c-0.6,0.1-5.1-0.8-7-0.7s-7.2,1.5-6.9,2.2s4.7,0.1,4.1,0.5s-9.4,4.9-9.7,6.4s0,4.4,1.9,4.5&#10;&#9;&#9;s8.1-1.2,10.7-1.6s7.1-4,7.1-4l6.4-2.4c0,0,0.3-4-2-5.6s-1.9-0.6-1.9-0.6L212,144.9z"/>
	<path class="st1_rio-de-janeiro-2" d="M270.4,98.4c0.6,0.4,0.8,1.1,0.5,1.8c-0.3,0.6-0.4,1.3-0.4,2c0,1.8-2.8,6.6-2.8,7.4s-0.8,5-1.3,5h-3.2&#10;&#9;&#9;l-2.9-4.2c0,0-2.2-1.7-2.2-3.5c0.2-1.7,0.4-3.3,0.8-4.9c0-0.5,5.7-4.9,7.8-4.9C268,97.2,269.3,97.6,270.4,98.4z"/>
	<polygon class="st3_rio-de-janeiro-2" points="301.2,246.7 301.2,285 265.2,306.1 265.2,267.9 &#9;"/>
	<rect x="253.5" y="267.9" class="st3_rio-de-janeiro-2" width="11.8" height="38.3"/>
	<rect x="253.5" y="267.9" class="st5_rio-de-janeiro-2" width="11.8" height="38.3"/>
	<polygon class="st3_rio-de-janeiro-2" points="217.1,247 217.1,285.4 253.5,306.1 253.5,267.9 &#9;"/>
	<polygon class="st7_rio-de-janeiro-2" points="217.1,247 217.1,285.4 253.5,306.1 253.5,267.9 &#9;"/>
	<path class="st6_rio-de-janeiro-2 targetColor" d="M248.3,109.3c-1.8,1.3-7.3,5.1-9.7,7.3c0,0,0,0.1,0,0.2c0.4,0.2,0.7,0.5,0.8,0.8c2.9,5.9,2.7,12.1,2.6,18.6&#10;&#9;&#9;c-0.2,9.2-0.8,18.4-1.1,27.6c-0.5,15.7-2,31.4-4.6,46.9c0.5,0.5,1.2,0.9,2,0.9c2.5,0,6.9-1.9,8.6,0s4.5,0.5,5.8-1.9s3-3.4,4.5-3.4&#10;&#9;&#9;h0.1c0.4-5.7,0.6-11.5,1.4-17.1c1.8-12.1,2.9-24.2,3.3-36.4C262.2,142.8,264.2,109,248.3,109.3z" style="fill: rgb(104, 225, 253);"/>
	<path class="st8_rio-de-janeiro-2" d="M248.3,109.3c-1.8,1.3-7.3,5.1-9.7,7.3c0,0,0,0.1,0,0.2c0.4,0.2,0.7,0.5,0.8,0.8c2.9,5.9,2.7,12.1,2.6,18.6&#10;&#9;&#9;c-0.2,9.2-0.8,18.4-1.1,27.6c-0.5,15.7-2,31.4-4.6,46.9c0.5,0.5,1.2,0.9,2,0.9c2.5,0,6.9-1.9,8.6,0s4.5,0.5,5.8-1.9s3-3.4,4.5-3.4&#10;&#9;&#9;h0.1c0.4-5.7,0.6-11.5,1.4-17.1c1.8-12.1,2.9-24.2,3.3-36.4C262.2,142.8,264.2,109,248.3,109.3z"/>
</g>
<g id="clouds_rio-de-janeiro-2">
	<path class="st9_rio-de-janeiro-2" d="M184.1,199.9h52.3l-12.5-4c0,0,1-12.6-6.8-13.1s-8.9,6.3-8.9,6.3c-1.9-1.4-4.4-1.9-6.8-1.2&#10;&#9;&#9;c-3.6,1.2-3.6,6-3.6,6L184.1,199.9z"/>
	<path class="st10_rio-de-janeiro-2" d="M219,191c0.5,3.2-0.4,6.4-2.3,8.9h19.8l-12.5-4c0,0,1-12.6-6.8-13.1c-1-0.1-2,0-3,0.2&#10;&#9;&#9;C216.8,184.5,218.5,187.6,219,191z"/>
	<path class="st9_rio-de-janeiro-2" d="M347.2,308.7h72.9l-17.5-5.6c0,0,1.3-17.6-9.4-18.2s-12.4,8.7-12.4,8.7s-4.4-3.4-9.4-1.7s-5,8.4-5,8.4&#10;&#9;&#9;L347.2,308.7z"/>
	<path class="st10_rio-de-janeiro-2" d="M395.8,296.2c0.6,4.4-0.5,8.9-3.3,12.5h27.5l-17.5-5.6c0,0,1.3-17.6-9.4-18.2c-1.4-0.1-2.8,0-4.2,0.3&#10;&#9;&#9;C392.8,287.3,395.1,291.5,395.8,296.2z"/>
	<path class="st9_rio-de-janeiro-2" d="M84.3,265.2h72.9l-17.5-5.6c0,0,1.3-17.6-9.4-18.2s-12.4,8.7-12.4,8.7s-4.4-3.4-9.4-1.7s-5,8.4-5,8.4&#10;&#9;&#9;L84.3,265.2z"/>
	<path class="st10_rio-de-janeiro-2" d="M132.9,252.8c0.6,4.4-0.5,8.9-3.3,12.4h27.5l-17.5-5.6c0,0,1.3-17.6-9.4-18.2c-1.4-0.1-2.8,0-4.2,0.3&#10;&#9;&#9;C129.9,243.8,132.2,248.1,132.9,252.8z"/>
</g>
<g id="trees_rio-de-janeiro-2">
	
		<linearGradient id="SVGID_00000023959228434293237960000006505776355979456445_-rio-de-janeiro-2" gradientUnits="userSpaceOnUse" x1="348.7924" y1="233.4683" x2="352.5424" y2="237.4583" gradientTransform="matrix(1 0 0 -1 0 502)">
		<stop offset="0" style="stop-color:#2C7E72;stop-opacity:0"/>
		<stop offset="1" style="stop-color:#42210B"/>
	</linearGradient>
	<path style="opacity:0.41;fill:url(#SVGID_00000023959228434293237960000006505776355979456445_);enable-background:new    ;" d="&#10;&#9;&#9;M345.9,267.7c0.5-0.1,0.8-0.1,1,0.1c-0.3,3.2,2,1.6,3,2.4l0.9-0.4c1.7-1.7,3.5-3.5,5.2-5.2c-0.6-0.4-1.2-0.9-1.8-1.4&#10;&#9;&#9;C351.4,264.6,348.6,266,345.9,267.7z"/>
	<path class="st12_rio-de-janeiro-2" d="M356.2,264.8v-15.6h-3.4v15.7C353.9,265.3,355.1,265.2,356.2,264.8z"/>
	<path class="st13_rio-de-janeiro-2" d="M354.9,249.2v16c0.5,0,0.9-0.2,1.4-0.4v-15.6H354.9z"/>
	<path class="st14_rio-de-janeiro-2" d="M359.2,250.6c2.1-0.1,4.8-0.9,4-3.2c-0.5-1.4-1.9-2.6-2.8-3.7s-0.7-1.8-1.7-2.9c0.9,0,2.1-0.1,2.4-1&#10;&#9;&#9;s-3.9-5.4-5.7-7.3c-0.4-0.4-1.1-0.5-1.5-0.1c-2.1,1.7-7.5,6.1-6.7,7.4c0.5,0.7,1.3,1.1,2.2,1.1c-1.9,1.9-4.1,4.4-4.4,6.9&#10;&#9;&#9;c-0.2,2.2,2.1,2.5,4.2,2.4c-1.5,1.8-5.5,6.9-4.6,8.4c0.5,0.8,2,1.1,3,1.3c2,0.4,4,0.6,6,0.6c2,0,4.1-0.3,6-0.9&#10;&#9;&#9;c1.1-0.3,2.1-0.9,2.9-1.6c0.9-0.9,0.4-1.8-0.2-2.7C361.3,253.8,360.3,252.2,359.2,250.6z"/>
	<path class="st7_rio-de-janeiro-2" d="M358.7,240.8c0,0-2.6-0.2-4.4-0.1l9.1,7.5c0,0,0.2-0.9-1.4-2.6C360.8,244,359.7,242.4,358.7,240.8z"/>
	<path class="st7_rio-de-janeiro-2" d="M359.2,250.6H354l8.6,7.4c0.5-0.4,0.7-1.1,0.4-1.7C362.4,255.3,359.2,250.6,359.2,250.6z"/>
	
		<linearGradient id="SVGID_00000124153147490471661300000017517087710746023355_-rio-de-janeiro-2" gradientUnits="userSpaceOnUse" x1="316.8794" y1="281.3105" x2="320.6294" y2="285.3005" gradientTransform="matrix(1 0 0 -1 0 502)">
		<stop offset="0" style="stop-color:#2C7E72;stop-opacity:0"/>
		<stop offset="1" style="stop-color:#42210B"/>
	</linearGradient>
	<path style="opacity:0.41;fill:url(#SVGID_00000124153147490471661300000017517087710746023355_);enable-background:new    ;" d="&#10;&#9;&#9;M314,219.9c0.5-0.1,0.8-0.1,1,0.1c-0.3,3.2,2,1.6,3,2.4l0.9-0.4c1.7-1.7,3.5-3.5,5.2-5.2c-0.6-0.4-1.2-0.9-1.8-1.4&#10;&#9;&#9;C319.4,216.7,316.7,218.2,314,219.9z"/>
	<path class="st12_rio-de-janeiro-2" d="M324.3,216.9v-15.6h-3.4v15.7C322,217.5,323.2,217.4,324.3,216.9z"/>
	<path class="st13_rio-de-janeiro-2" d="M323,201.4v16c0.5,0,0.9-0.2,1.4-0.4v-15.6H323z"/>
	<path class="st14_rio-de-janeiro-2" d="M327.4,202.8c2.1-0.1,4.8-0.9,4-3.2c-0.5-1.4-1.9-2.6-2.8-3.7s-0.7-1.8-1.8-2.9c0.9,0,2.1-0.1,2.4-1&#10;&#9;&#9;s-3.9-5.4-5.7-7.3c-0.4-0.4-1.1-0.5-1.5-0.1c-2.1,1.7-7.5,6.1-6.7,7.4c0.5,0.7,1.3,1.1,2.2,1.1c-1.9,1.9-4.1,4.4-4.4,6.9&#10;&#9;&#9;c-0.2,2.2,2.1,2.5,4.2,2.4c-1.5,1.8-5.5,6.9-4.6,8.4c0.5,0.8,2,1.1,3,1.3c2,0.4,4,0.6,6,0.6c2,0,4.1-0.3,6-0.9&#10;&#9;&#9;c1.1-0.3,2.1-0.9,2.9-1.6c0.9-0.9,0.4-1.8-0.2-2.7C329.4,205.9,328.4,204.4,327.4,202.8z"/>
	<path class="st7_rio-de-janeiro-2" d="M326.8,192.9c0,0-2.6-0.2-4.4-0.1l9.1,7.5c0,0,0.2-0.9-1.4-2.6C328.9,196.1,327.8,194.6,326.8,192.9z"/>
	<path class="st7_rio-de-janeiro-2" d="M327.4,202.8h-5.3l8.6,7.4c0.5-0.4,0.7-1.1,0.4-1.7C330.5,207.5,327.4,202.8,327.4,202.8z"/>
	
		<linearGradient id="SVGID_00000168081524277718722190000003847697714982617753_-rio-de-janeiro-2" gradientUnits="userSpaceOnUse" x1="408.9591" y1="224.9608" x2="412.7091" y2="228.9508" gradientTransform="matrix(1 0 0 -1 0 502)">
		<stop offset="0" style="stop-color:#2C7E72;stop-opacity:0"/>
		<stop offset="1" style="stop-color:#42210B"/>
	</linearGradient>
	<path style="opacity:0.41;fill:url(#SVGID_00000168081524277718722190000003847697714982617753_);enable-background:new    ;" d="&#10;&#9;&#9;M406.1,276.2c0.5-0.1,0.8-0.1,1,0.1c-0.3,3.2,2,1.6,3,2.4l0.9-0.4c1.7-1.7,3.5-3.5,5.2-5.2c-0.6-0.4-1.2-0.9-1.8-1.4&#10;&#9;&#9;C411.5,273.1,408.7,274.6,406.1,276.2z"/>
	<path class="st12_rio-de-janeiro-2" d="M416.4,273.3v-15.6H413v15.7C414.1,273.8,415.3,273.8,416.4,273.3z"/>
	<path class="st13_rio-de-janeiro-2" d="M415,257.7v16c0.5,0,0.9-0.2,1.4-0.4v-15.6L415,257.7z"/>
	<path class="st14_rio-de-janeiro-2" d="M419.4,259.1c2.1-0.1,4.8-0.9,4-3.2c-0.5-1.4-1.9-2.6-2.8-3.7s-0.7-1.8-1.7-2.9c0.9,0,2.1-0.1,2.4-1&#10;&#9;&#9;s-3.9-5.4-5.7-7.3c-0.4-0.4-1.1-0.5-1.5-0.1c-2.1,1.7-7.5,6.1-6.7,7.4c0.5,0.7,1.3,1.1,2.2,1.1c-1.9,1.9-4.1,4.4-4.4,6.9&#10;&#9;&#9;c-0.2,2.2,2.1,2.5,4.2,2.4c-1.5,1.8-5.5,6.9-4.6,8.4c0.5,0.8,2,1.1,3,1.3c2,0.4,4,0.6,6.1,0.6c2,0,4.1-0.3,6-0.9&#10;&#9;&#9;c1.1-0.3,2.1-0.9,2.9-1.6c0.9-0.9,0.4-1.8-0.2-2.7C421.5,262.3,420.5,260.7,419.4,259.1z"/>
	<path class="st7_rio-de-janeiro-2" d="M418.9,249.3c0,0-2.6-0.2-4.4-0.1l9.1,7.5c0,0,0.2-0.9-1.4-2.6C421,252.5,419.9,250.9,418.9,249.3z"/>
	<path class="st7_rio-de-janeiro-2" d="M419.4,259.1h-5.3l8.6,7.4c0.5-0.4,0.7-1.1,0.4-1.7C422.6,263.8,419.4,259.1,419.4,259.1z"/>
	
		<linearGradient id="SVGID_00000177465692350346070680000006305323227606773636_-rio-de-janeiro-2" gradientUnits="userSpaceOnUse" x1="158.5574" y1="256.303" x2="162.3074" y2="260.293" gradientTransform="matrix(1 0 0 -1 0 502)">
		<stop offset="0" style="stop-color:#2C7E72;stop-opacity:0"/>
		<stop offset="1" style="stop-color:#42210B"/>
	</linearGradient>
	<path style="opacity:0.41;fill:url(#SVGID_00000177465692350346070680000006305323227606773636_);enable-background:new    ;" d="&#10;&#9;&#9;M155.7,244.9c0.5-0.1,0.8-0.1,1,0.1c-0.3,3.2,2,1.6,3,2.4l0.9-0.4c1.7-1.7,3.5-3.5,5.2-5.2c-0.6-0.4-1.2-0.9-1.8-1.4&#10;&#9;&#9;C161.1,241.7,158.3,243.2,155.7,244.9z"/>
	<path class="st12_rio-de-janeiro-2" d="M166,241.9v-15.6h-3.4v15.7C163.7,242.5,164.9,242.4,166,241.9z"/>
	<path class="st13_rio-de-janeiro-2" d="M164.6,226.4v16c0.5,0,0.9-0.1,1.4-0.4v-15.6H164.6z"/>
	<path class="st14_rio-de-janeiro-2" d="M169,227.8c2.1-0.1,4.8-0.9,4-3.2c-0.5-1.4-1.9-2.6-2.8-3.7s-0.7-1.8-1.7-2.9c0.9,0,2.1-0.1,2.4-1&#10;&#9;&#9;s-3.9-5.4-5.7-7.3c-0.4-0.4-1.1-0.5-1.5-0.1c-2.1,1.7-7.5,6.1-6.7,7.4c0.5,0.7,1.3,1.1,2.2,1.1c-1.9,1.9-4.1,4.4-4.4,6.9&#10;&#9;&#9;c-0.2,2.2,2.1,2.5,4.2,2.4c-1.5,1.8-5.5,6.9-4.6,8.4c0.5,0.8,2,1.1,2.9,1.3c2,0.4,4,0.6,6.1,0.6c2,0,4.1-0.3,6-0.9&#10;&#9;&#9;c1.1-0.3,2.1-0.9,2.9-1.6c0.9-0.9,0.4-1.8-0.2-2.7C171.1,230.9,170.1,229.4,169,227.8z"/>
	<path class="st7_rio-de-janeiro-2" d="M168.5,217.9c0,0-2.6-0.2-4.4-0.1l9.1,7.5c0,0,0.2-0.9-1.4-2.6C170.6,221.1,169.5,219.6,168.5,217.9z"/>
	<path class="st7_rio-de-janeiro-2" d="M169,227.8h-5.3l8.6,7.4c0.5-0.4,0.7-1.1,0.4-1.7C172.2,232.5,169,227.8,169,227.8z"/>
	
		<linearGradient id="SVGID_00000132065404291185098400000018075975750777935762_-rio-de-janeiro-2" gradientUnits="userSpaceOnUse" x1="110.3351" y1="183.3558" x2="114.0851" y2="187.3458" gradientTransform="matrix(1 0 0 -1 0 502)">
		<stop offset="0" style="stop-color:#2C7E72;stop-opacity:0"/>
		<stop offset="1" style="stop-color:#42210B"/>
	</linearGradient>
	<path style="opacity:0.41;fill:url(#SVGID_00000132065404291185098400000018075975750777935762_);enable-background:new    ;" d="&#10;&#9;&#9;M107.5,317.8c0.5-0.1,0.8-0.1,1,0.1c-0.3,3.2,2,1.6,3,2.4l0.9-0.4c1.7-1.7,3.5-3.5,5.2-5.2c-0.6-0.4-1.2-0.9-1.8-1.4&#10;&#9;&#9;C112.9,314.7,110.1,316.1,107.5,317.8z"/>
	<path class="st12_rio-de-janeiro-2" d="M117.8,314.9v-15.6h-3.4V315C115.5,315.4,116.7,315.4,117.8,314.9z"/>
	<path class="st13_rio-de-janeiro-2" d="M116.4,299.3v16c0.5,0,0.9-0.2,1.4-0.4v-15.6L116.4,299.3z"/>
	<path class="st14_rio-de-janeiro-2" d="M120.8,300.7c2.1-0.1,4.8-0.9,4-3.2c-0.5-1.4-1.9-2.6-2.8-3.7s-0.7-1.9-1.8-2.9c0.9,0,2.2-0.1,2.4-1&#10;&#9;&#9;s-3.9-5.4-5.7-7.3c-0.4-0.4-1.1-0.5-1.5-0.1c-2.1,1.7-7.5,6.1-6.7,7.4c0.5,0.7,1.3,1.1,2.2,1.1c-1.9,1.9-4.1,4.4-4.4,6.9&#10;&#9;&#9;c-0.2,2.2,2.1,2.5,4.2,2.4c-1.5,1.8-5.5,6.9-4.6,8.4c0.5,0.8,2,1.1,3,1.3c2,0.4,4,0.6,6.1,0.6c2,0,4.1-0.3,6-0.9&#10;&#9;&#9;c1.1-0.3,2.1-0.9,2.9-1.6c0.9-0.9,0.4-1.8-0.2-2.7C122.9,303.9,121.8,302.3,120.8,300.7z"/>
	<path class="st7_rio-de-janeiro-2" d="M120.2,290.9c0,0-2.6-0.2-4.4-0.1l9.1,7.5c0,0,0.2-0.9-1.4-2.6C122.4,294.1,121.2,292.5,120.2,290.9z"/>
	<path class="st7_rio-de-janeiro-2" d="M120.8,300.7h-5.3l8.6,7.4c0.5-0.4,0.7-1.1,0.4-1.7C123.9,305.4,120.8,300.7,120.8,300.7z"/>
</g>
</svg>