<svg version="1.1" id="Layer_1" xmlns="http://www.w3.org/2000/svg" xmlns:xlink="http://www.w3.org/1999/xlink" x="0px" y="0px" viewBox="0 0 500 500" style="width: 166px;" xml:space="preserve" data-imageid="road-trip-1-67" imageName="Road Trip 1" class="illustrations_image">
<style type="text/css">
	.st0_road-trip-1-67{fill:#FFC49E;}
	.st1_road-trip-1-67{fill:url(#SVGID_1_);}
	.st2_road-trip-1-67{fill:url(#SVGID_00000181771125293953358830000011221807509992614078_);}
	.st3_road-trip-1-67{fill:url(#SVGID_00000161590496468850558850000012486335087847328445_);}
	.st4_road-trip-1-67{fill:#808080;}
	.st5_road-trip-1-67{opacity:0.2;fill:#0B096E;enable-background:new    ;}
	.st6_road-trip-1-67{fill:url(#SVGID_00000132054008165047059870000016560872399279579276_);}
	.st7_road-trip-1-67{fill:#A55942;}
	.st8_road-trip-1-67{fill:#6A9546;}
	.st9_road-trip-1-67{fill:#8BBC5C;}
	.st10_road-trip-1-67{fill:#68E1FD;}
	.st11_road-trip-1-67{opacity:0.33;fill:#0B096E;enable-background:new    ;}
	.st12_road-trip-1-67{fill:#D4F5FF;}
	.st13_road-trip-1-67{fill:#0B096E;}
	.st14_road-trip-1-67{opacity:0.5;fill:#0B096E;enable-background:new    ;}
	.st15_road-trip-1-67{fill:#FFC655;}
	.st16_road-trip-1-67{opacity:5.000000e-02;fill:#0B096E;enable-background:new    ;}
	.st17_road-trip-1-67{opacity:0.2;fill:#D4F5FF;enable-background:new    ;}
</style>
<g id="background_road-trip-1-67">
	<path class="st0_road-trip-1-67" d="M484.8,262.6L249.1,125.8c-3.4-2-8.6-0.6-11.9,1.5L11.8,257.2c-7,4.3-0.8,10.9,6.3,14.9l224.5,132.7&#10;&#9;&#9;c9.2,5.2,20.5,5.1,29.6-0.2L486,282.5C493.2,278.4,491.9,266.8,484.8,262.6z"/>
	
		<linearGradient id="SVGID_1_-road-trip-1-67" gradientUnits="userSpaceOnUse" x1="425.9262" y1="232.753" x2="386.2462" y2="197.483" gradientTransform="matrix(1 0 0 -1 0 502)">
		<stop offset="0" style="stop-color:#808080"/>
		<stop offset="1" style="stop-color:#808080;stop-opacity:0"/>
	</linearGradient>
	<path class="st1_road-trip-1-67" d="M389.1,317c6.2-3.4,45.1-21.6,45.1-21.6c-0.9-2.6-18.2-18-20.8-19.8l-55,20L389.1,317z"/>
	
		<linearGradient id="SVGID_00000026870948935336574390000003938988624123337398_-road-trip-1-67" gradientUnits="userSpaceOnUse" x1="126.2141" y1="272.7654" x2="95.5042" y2="245.4653" gradientTransform="matrix(1 0 0 -1 0 502)">
		<stop offset="0" style="stop-color:#808080"/>
		<stop offset="1" style="stop-color:#808080;stop-opacity:0"/>
	</linearGradient>
	<path style="fill:url(#SVGID_00000026870948935336574390000003938988624123337398_);" d="M99.4,267.3c6.2-3.4,33.9-16.9,33.9-16.9&#10;&#9;&#9;c-0.9-2.6-16.5-17.3-19.1-19l-40.9,17.5L99.4,267.3z"/>
	
		<linearGradient id="SVGID_00000049187867237384254490000013795234643973803696_-road-trip-1-67" gradientUnits="userSpaceOnUse" x1="87.7925" y1="257.1972" x2="49.7525" y2="223.3872" gradientTransform="matrix(1 0 0 -1 0 502)">
		<stop offset="0" style="stop-color:#808080"/>
		<stop offset="1" style="stop-color:#808080;stop-opacity:0"/>
	</linearGradient>
	<path style="fill:url(#SVGID_00000049187867237384254490000013795234643973803696_);" d="M54.7,294.7c6.2-3.4,33.1-31.8,33.1-31.8&#10;&#9;&#9;c-0.9-2.6-1.7-4.9-4.2-6.6l-55,20L54.7,294.7z"/>
	<polygon class="st4_road-trip-1-67" points="74.7,305.7 319.4,166.6 439.2,236.2 194.9,376.7 &#9;"/>
	<polygon class="st5_road-trip-1-67" points="74.7,305.7 319.4,166.6 439.2,236.2 194.9,376.7 &#9;"/>
	<polygon class="st4_road-trip-1-67" points="66.8,301.1 311.5,162.1 431.3,231.6 186.9,372.1 &#9;"/>
	
		<linearGradient id="SVGID_00000134968653148431232840000012196383850404174467_-road-trip-1-67" gradientUnits="userSpaceOnUse" x1="226.8789" y1="233.0215" x2="160.2489" y2="183.3315" gradientTransform="matrix(1 0 0 -1 0 502)">
		<stop offset="0" style="stop-color:#808080"/>
		<stop offset="1" style="stop-color:#808080;stop-opacity:0"/>
	</linearGradient>
	<polygon style="fill:url(#SVGID_00000134968653148431232840000012196383850404174467_);" points="323.7,259.3 178.3,345.1 &#10;&#9;&#9;102.9,298.9 165.7,263 296.7,238.9 &#9;"/>
	<path class="st7_road-trip-1-67" d="M389.1,317c-1,0.1-1.8,1-1.7,2c0.1,0.9,0.8,1.7,1.7,1.7c1-0.1,1.8-1,1.7-2C390.8,317.9,390.1,317.1,389.1,317z&#10;&#9;&#9;"/>
	<path class="st7_road-trip-1-67" d="M369.4,294.9c-1,0.1-1.8,1-1.7,2c0.1,0.9,0.8,1.7,1.7,1.7c1-0.1,1.8-1,1.7-2&#10;&#9;&#9;C371,295.7,370.3,294.9,369.4,294.9z"/>
	<path class="st7_road-trip-1-67" d="M310,351c-1,0.1-1.8,1-1.7,2c0.1,0.9,0.8,1.7,1.7,1.7c1-0.1,1.8-1,1.7-2C311.7,351.8,310.9,351.1,310,351z"/>
	<path class="st7_road-trip-1-67" d="M251.5,367.1c-1,0.1-1.8,1-1.7,2c0.1,0.9,0.8,1.7,1.7,1.7c1-0.1,1.8-1,1.7-2&#10;&#9;&#9;C253.2,367.9,252.5,367.2,251.5,367.1z"/>
	<path class="st7_road-trip-1-67" d="M254.8,147.6c-1,0.1-1.8,1-1.7,2c0.1,0.9,0.8,1.7,1.7,1.7c1-0.1,1.8-1,1.7-2&#10;&#9;&#9;C256.4,148.4,255.7,147.6,254.8,147.6z"/>
	<path class="st7_road-trip-1-67" d="M195.8,171.4c-1,0.1-1.8,1-1.7,2c0.1,0.9,0.8,1.7,1.7,1.7c1-0.1,1.8-1,1.7-2&#10;&#9;&#9;C197.5,172.2,196.8,171.4,195.8,171.4z"/>
	<path class="st7_road-trip-1-67" d="M169.6,213.3c-1,0.1-1.8,1-1.7,2c0.1,0.9,0.8,1.7,1.7,1.7c1-0.1,1.8-1,1.7-2&#10;&#9;&#9;C171.3,214.1,170.5,213.4,169.6,213.3z"/>
	<path class="st7_road-trip-1-67" d="M54.6,255.7c-1,0-1.9,0.8-1.9,1.9c0,1,0.8,1.9,1.9,1.9c1,0,1.9-0.8,1.9-1.9C56.5,256.6,55.6,255.7,54.6,255.7z&#10;&#9;&#9;"/>
</g>
<g id="plant_road-trip-1-67">
	<path class="st7_road-trip-1-67" d="M106.3,131.3c0,0-22.9,63.9-18.7,133c0,0-10.4,6.3-14.5-2.5C73.1,261.8,85,130.4,106.3,131.3z"/>
	<polyline class="st8_road-trip-1-67" points="102.9,136.4 120.6,111.4 107.8,135.7 &#9;"/>
	<path class="st8_road-trip-1-67" d="M109.6,113c7.2,11.2-6.9,29.2-10.9,34l-1,1.2"/>
	<path class="st8_road-trip-1-67" d="M95.4,111.3l8.4,21.2l4.8-10.2c0,0,5.4-7.6-2.5-12.8S95.4,111.3,95.4,111.3z"/>
	<path class="st9_road-trip-1-67" d="M135.5,126.4c12.9,6,13.8,24.2,13.8,24.2l-49.1-5.9l3.6-11"/>
	<path class="st9_road-trip-1-67" d="M107.9,133.2c0,0,14.7-12.8,27.6-6.8"/>
	<path class="st8_road-trip-1-67" d="M145.8,165.1c-1.5-0.8-3-1.5-4.5-2.2l0.1-7l-1.8,6.1c-4.1-2-8.2-3.8-12.3-5.7l-3.7-1.7&#10;&#9;&#9;c0.6-1.8,0.9-3.7,0.8-5.6c-0.1-0.3-1.3,2.4-2.5,4.9c-7.3-3.3-14.8-5.9-22.5-7.9l1.8-1.8c0,0,9.3-11.4,33.3-5s26.5,34.4,26.5,34.4&#10;&#9;&#9;l-0.4-0.2C156.1,170.2,150.9,167.7,145.8,165.1z"/>
	<path class="st8_road-trip-1-67" d="M109.6,113c-8.3-12.9-19.2-1.2-19.2-1.2"/>
	<path class="st9_road-trip-1-67" d="M100.1,144.8c0,0,8.4-9-0.4-27s-29.9-17.1-29.9-17.1l5.8,13.2l8.8,0.9l-6.8,3.2l5.5,10c0,0,7.4-0.8,9.7-0.8&#10;&#9;&#9;c0.5,0-7.2,4.7-7.2,4.7l12.1,16.2L100.1,144.8z"/>
	<path class="st8_road-trip-1-67" d="M88.8,142.5l1.9-5l-4,4.4c-4.8-1.1-9.6-2-14.4-2.8l1-4.7l-2.7,4.4c-2.6-0.4-5.2-0.9-7.8-1.2l1.8-5.6l-3.8,5.3&#10;&#9;&#9;c-3.2-0.4-6.4-0.5-9.6-0.2C56,125.8,74,118.7,87,123.4c13.2,4.8,13.2,21.4,13.2,21.4l-4-0.2C93.7,143.8,91.2,143.1,88.8,142.5z"/>
	<path class="st9_road-trip-1-67" d="M120.5,163.3l2-2.2l-2.3,1.8c-2.5-2.7-5-5.2-7.8-7.6l1.8-3.1l-2.6,2.4c-3.9-3.4-8-6.5-12.2-9.4&#10;&#9;&#9;c1.6-0.9,7.9-4,18.1-0.8c11.2,3.5,13.6,19.8,10,27l-1.1-0.8C124.5,168,122.6,165.6,120.5,163.3z"/>
	<path class="st7_road-trip-1-67" d="M407.1,146c0,0,22.9,63.9,18.7,133c0,0,10.4,6.3,14.5-2.5C440.4,276.4,428.5,145.1,407.1,146z"/>
	<polyline class="st8_road-trip-1-67" points="410.6,151.1 392.9,126.1 405.7,150.4 &#9;"/>
	<path class="st8_road-trip-1-67" d="M403.9,127.7c-7.2,11.2,6.9,29.3,10.9,34c0.6,0.7,1,1.1,1,1.1"/>
	<path class="st8_road-trip-1-67" d="M418.1,126l-8.4,21.1l-4.9-10.2c0,0-5.4-7.6,2.5-12.8S418.1,126,418.1,126z"/>
	<path class="st9_road-trip-1-67" d="M378,141.1c-12.8,6-13.8,24.2-13.8,24.2l49.1-5.9l-3.6-11"/>
	<path class="st9_road-trip-1-67" d="M405.6,147.9c0,0-14.7-12.8-27.6-6.8"/>
	<path class="st8_road-trip-1-67" d="M367.7,179.8c1.5-0.8,3-1.5,4.5-2.2l-0.1-7l1.9,6.1c4.1-2,8.2-3.8,12.3-5.7c1.2-0.6,2.5-1.1,3.7-1.7&#10;&#9;&#9;c-0.6-1.8-0.9-3.7-0.9-5.7c0-0.3,1.3,2.4,2.5,4.9c7.3-3.3,14.8-5.9,22.5-7.8l-1.8-1.8c0,0-9.3-11.3-33.3-5.1s-26.5,34.5-26.5,34.5&#10;&#9;&#9;l0.5-0.2C357.4,184.9,362.6,182.4,367.7,179.8z"/>
	<path class="st8_road-trip-1-67" d="M403.9,127.7c8.3-12.9,19.2-1.2,19.2-1.2"/>
	<path class="st9_road-trip-1-67" d="M413.4,159.5c0,0-8.4-9,0.4-27s29.9-17.1,29.9-17.1l-5.8,13.2l-8.9,0.9l6.8,3.2l-5.5,10.1c0,0-7.4-0.8-9.7-0.8&#10;&#9;&#9;c-0.5,0,7.2,4.7,7.2,4.7l-12.1,16.2L413.4,159.5z"/>
	<path class="st8_road-trip-1-67" d="M424.7,157.2l-2-4.9l4,4.4c4.8-1.1,9.6-2,14.4-2.8l-1-4.7l2.8,4.4c2.6-0.4,5.2-0.9,7.8-1.2l-1.8-5.6l3.8,5.3&#10;&#9;&#9;c3.2-0.4,6.4-0.5,9.6-0.2c-4.9-11.3-22.9-18.5-35.9-13.8c-13.2,4.8-13.2,21.4-13.2,21.4l4-0.2C419.8,158.5,422.2,157.8,424.7,157.2&#10;&#9;&#9;z"/>
	<path class="st9_road-trip-1-67" d="M393,177.9l-2-2.2l2.4,1.8c2.4-2.7,5-5.2,7.8-7.6l-1.8-3.1l2.6,2.4c3.9-3.4,8-6.5,12.2-9.4&#10;&#9;&#9;c-1.6-0.9-7.9-4-18.1-0.8c-11.2,3.5-13.6,19.8-10,27l1.1-0.8C389,182.7,390.9,180.2,393,177.9z"/>
	<path class="st7_road-trip-1-67" d="M111.7,247.1c6.4,0.1,12.3-1.2,17.4-4.5c0.1-0.6,0.1-1.2,0.1-1.8c0.3-9.5-7.1-17.4-16.6-17.7&#10;&#9;&#9;s-17.4,7.1-17.7,16.6c0,0.4,0,0.8,0,1.2c0,0.9,0.1,1.8,0.2,2.7C100,246.4,106.3,247,111.7,247.1z"/>
	<path class="st5_road-trip-1-67" d="M111.7,247.1c6.4,0.1,12.3-1.2,17.4-4.5c0.1-0.6,0.1-1.2,0.1-1.8c0.3-9.5-7.1-17.4-16.6-17.7&#10;&#9;&#9;s-17.4,7.1-17.7,16.6c0,0.4,0,0.8,0,1.2c0,0.9,0.1,1.8,0.2,2.7C100,246.4,106.3,247,111.7,247.1z"/>
	<path class="st8_road-trip-1-67" d="M120.5,244.1c0,0-10.2-19.2-13.1-29.8c0,0,10.7,5.6,16.2,28.8"/>
	<path class="st9_road-trip-1-67" d="M119.3,242.3c0,0,0.4-21.8,3.1-32.4c0,0,6.6,10.1,0.1,33.1"/>
	<path class="st9_road-trip-1-67" d="M116.8,243c0,0,10.7-18.9,18.1-27c0,0,1,12-15.6,29.1"/>
	<path class="st7_road-trip-1-67" d="M119.6,253.9c5,0.1,9.7-0.9,13.6-3.5c0-0.5,0.1-0.9,0.1-1.4c0.2-7.4-5.7-13.6-13.1-13.8&#10;&#9;&#9;c-7.4-0.2-13.6,5.7-13.8,13.1c0,0.2,0,0.5,0,0.7c0,0.7,0.1,1.4,0.2,2.1C110.4,253.3,115.4,253.9,119.6,253.9z"/>
	<path class="st7_road-trip-1-67" d="M412.7,292.1c6.4,0.1,12.3-1.2,17.4-4.5c0-0.6,0.1-1.2,0.1-1.8c0.3-9.5-7.1-17.4-16.6-17.7&#10;&#9;&#9;c-9.5-0.3-17.4,7.1-17.7,16.6c0,0.4,0,0.8,0,1.2c0,0.9,0.1,1.8,0.2,2.7C400.9,291.4,407.3,292.1,412.7,292.1z"/>
	<path class="st5_road-trip-1-67" d="M412.7,292.1c6.4,0.1,12.3-1.2,17.4-4.5c0-0.6,0.1-1.2,0.1-1.8c0.3-9.5-7.1-17.4-16.6-17.7&#10;&#9;&#9;c-9.5-0.3-17.4,7.1-17.7,16.6c0,0.4,0,0.8,0,1.2c0,0.9,0.1,1.8,0.2,2.7C400.9,291.4,407.3,292.1,412.7,292.1z"/>
	<path class="st8_road-trip-1-67" d="M421.5,289.1c0,0-10.2-19.2-13.1-29.8c0,0,10.7,5.6,16.2,28.8"/>
	<path class="st9_road-trip-1-67" d="M420.3,287.3c0,0,0.4-21.8,3.1-32.4c0,0,6.6,10.1,0.1,33.1"/>
	<path class="st9_road-trip-1-67" d="M417.7,288.1c0,0,10.7-18.9,18.1-27.1c0,0,1,12.1-15.6,29.1"/>
	<path class="st7_road-trip-1-67" d="M420.6,298.9c5,0.1,9.7-0.9,13.6-3.5c0-0.5,0.1-0.9,0.1-1.4c0.2-7.4-5.7-13.6-13.1-13.8&#10;&#9;&#9;c-7.4-0.2-13.6,5.7-13.8,13.1c0,0.2,0,0.5,0,0.7c0,0.7,0.1,1.4,0.2,2.1C411.4,298.4,416.4,298.9,420.6,298.9z"/>
</g>
<g id="car_road-trip-1-67">
	<path class="st10_road-trip-1-67 targetColor" d="M165.7,263l6.8-11.5c7.5-5.8,25.9-19.6,25.9-19.6c5.3-6.7,20-21.4,20-21.4c10.4-7.7,49.5-28.5,52.4-28.8&#10;&#9;&#9;s13.1,1.9,14.7,2.1s6.4-3.1,6.4-3.1c14.2,1.2,28,12.8,34.6,17.8c4,3.1,6.4,7.8,6.7,12.9c0,0,0.7,24.3,0.3,25.6s-4.3,4-4.3,4&#10;&#9;&#9;s0.1-13.7-9.8-8.8s-12,21.7-12.9,22.6s-49.3,28.9-60,35.1c0.1-3-0.3-6.2-2.6-8.4c-2.7-2.5-6.6-2.2-9.7-0.9c-3.2,1.2-6,3.4-7.9,6.3&#10;&#9;&#9;c-2.9,3.5-4.2,8.1-4.9,12.5c-0.1,0.5-0.4,8.1-0.5,8.1c-26.1,8.5-55-22.8-55.6-25.2S165.7,263,165.7,263z" style="fill: rgb(104, 225, 253);"/>
	<path class="st11_road-trip-1-67" d="M186.2,285.5c9.8,6.2,19.8,8.9,36.8,6.6c-0.3,1.2-1.4,6-1.6,7.2c-0.1,0.5-0.4,8.1-0.5,8.1&#10;&#9;&#9;c-26.1,8.5-55-22.8-55.6-25.2c-0.5-2.3,0.2-16.8,0.4-19C170.3,273,171.5,276.2,186.2,285.5z"/>
	<path class="st12_road-trip-1-67" d="M199.6,289.5c-0.7-0.2-1.4-0.6-2-1.1c-1.1-1.1-0.3-2.6,0.5-3.6c0.8-1,1.9-1.7,3.1-1.9c2.5-0.6,5-1.1,7.5-1.5&#10;&#9;&#9;c1.7-0.2,3.4-0.4,5.1-0.6c1.8-0.2,3.7-0.2,5.5,0.1c1.9,0.4,1.4,2.9,0.8,4.1c-1.2,2-3,3.7-5.1,4.8c-1.5,0.8-3.1,1.3-4.8,1.5&#10;&#9;&#9;c-1.8,0.1-3.6-0.1-5.4-0.4c-1.3-0.2-2.6-0.5-3.9-0.9C200.5,289.8,200,289.6,199.6,289.5z"/>
	<path class="st12_road-trip-1-67" d="M165.7,263c0,0,3.2,6.2,5,7.8s2.8,0.5,3-1.1s-0.9-18.2-1.2-18.2S167.6,253.7,165.7,263z"/>
	<path class="st12_road-trip-1-67" d="M177.4,268.2c0.6,0.3,1.2,0.8,1.6,1.1c3.1,1.9,6.3,3.9,9.4,5.8l4.7,2.9c1,0.6,3.3,1.4,2.3,2.9&#10;&#9;&#9;c-1.1,1.6-2.4,2.9-3.9,4.1c-1.1,0.9-1.9,1.1-3.1,0.4c-2.3-1.3-4.6-2.7-6.9-4c-1.8-1-3.8-2.4-4.3-4.5c-0.6-2.2-1-4.5-1.2-6.8&#10;&#9;&#9;c-0.1-0.8-0.2-2.4,1-2.1C177.1,268.1,177.3,268.1,177.4,268.2z"/>
	<path class="st12_road-trip-1-67" d="M175.2,279.8c0,0-0.1,3.9-0.1,4c4.5,3.9,9.6,7,15.1,9.2l0.1-3.8C190.3,289.2,181.2,284.8,175.2,279.8z"/>
	<path class="st12_road-trip-1-67" d="M205.6,301c0.8,0.2,1.4,1,1.4,1.8c0,1.9-1.8,1.9-3.1,1.9c-1.7,0.1-17-5.1-26.9-12.9s-11.6-14.4-11.6-14.4&#10;&#9;&#9;l0.1-5.1c0,0,2.4,10.6,15.4,18.3c5.4,3.2,11,5.8,16.9,7.9c1.8,0.6,3.7,1.2,5.5,1.8C204.1,300.5,204.9,300.7,205.6,301z"/>
	<path class="st12_road-trip-1-67" d="M221.9,211.5c-2-1.9-20.1,18.2-21.3,20.9s-2.8,4.5,0.9,8.6s24.9,16.6,29.1,17.6s6.5,3.3,12.2-2&#10;&#9;&#9;s14.3-22.2,14.3-22.2S232.2,221.4,221.9,211.5z"/>
	<path class="st13_road-trip-1-67" d="M201.9,228.3c0,0-4-3.4-6.7-2.2s3.3,5.8,3.3,5.8L201.9,228.3z"/>
	<path class="st12_road-trip-1-67" d="M308.5,205.2l10.8,0.7c0,0,1.6,0.6,0.6-2s-11.4-13.3-25.3-16.5c0,0-19.3-3.3-15.7-2&#10;&#9;&#9;C281,186.2,296.7,193.6,308.5,205.2z"/>
	
		<ellipse transform="matrix(0.4352 -0.9003 0.9003 0.4352 -42.1337 426.8974)" class="st13_road-trip-1-67" cx="319.2" cy="247" rx="16.7" ry="11.2"/>
	
		<ellipse transform="matrix(0.4352 -0.9003 0.9003 0.4352 -41.564 427.9277)" class="st12_road-trip-1-67" cx="320.3" cy="247.1" rx="9.1" ry="6.1"/>
	<path class="st12_road-trip-1-67" d="M308,223c3.5-2.5,7.1-5,10.5-7.6c-2-1.1-4.1-1.8-6.3-2.1c-1.3-0.1-2.7-0.1-4,0L308,223z"/>
	<path class="st12_road-trip-1-67" d="M284.1,220.3c-7.7,3.7-14.6,8.9-20.4,15.3c-5.8,6.7-10.4,14.4-13.6,22.8c-0.3,0.8,0.1,1.7,0.9,2.1&#10;&#9;&#9;c0.5,0.2,1,0.1,1.4-0.1c6-3.8,18-11.3,26.6-16.8l2.2-1.4v-0.1l2.4-1.7L284.1,220.3z"/>
	<path class="st12_road-trip-1-67" d="M304.8,213.6c-3.2,0.4-6.3,1.2-9.3,2.1c-2.2,0.7-4.4,1.5-6.5,2.4l-0.4,18.6l15.2-10.8l0.8-0.6L304.8,213.6z"/>
	<path class="st13_road-trip-1-67" d="M282.9,189.3c0,0,12.6,6.7,17.5,12.9c-0.2,1.1-1.2,1.8-2.3,1.6c-0.2,0-0.5-0.1-0.7-0.3&#10;&#9;&#9;c0,0-15.9-12.9-21.2-14.8"/>
	<path class="st12_road-trip-1-67" d="M244.8,200.8c-2.7-1.3-5.5-2.5-7.8-3.6c0,0.1-0.1,0.1-0.2,0.2c-3.4,3-5.8,7.1-6.8,11.6c2.6,2,5.3,3.9,8.2,5.5&#10;&#9;&#9;c0.9-5,3.2-9.7,6.4-13.6L244.8,200.8z"/>
	<path class="st12_road-trip-1-67" d="M234.5,196c-2.2-1-3.7-1.6-3.7-1.6s-2.8,0.4-5.6,6.9c-0.7,1.5,0.5,3.6,2.6,5.7C229,202.8,231.3,199,234.5,196&#10;&#9;&#9;z"/>
	<path class="st12_road-trip-1-67" d="M257,207.8c-0.4-1-4.9-3.5-10.2-6.1c0,0.4-0.1,0.7-0.3,1c-3.1,3.7-5.1,8.3-5.9,13.1c5.7,3,11,5.1,12.4,4.8&#10;&#9;&#9;C262.4,218.1,257.9,210.3,257,207.8z"/>
	<path class="st12_road-trip-1-67" d="M236.9,197.4c0.1-0.1,0.1-0.1,0.2-0.2l-2.6-1.2c-3.2,3-5.5,6.8-6.6,11c0.7,0.6,1.4,1.3,2.2,2&#10;&#9;&#9;C231,204.5,233.4,200.4,236.9,197.4z"/>
	<path class="st12_road-trip-1-67" d="M246.9,201.8l-2-1l-0.1,0.1c-3.3,3.9-5.5,8.6-6.4,13.6c0.8,0.5,1.6,0.9,2.4,1.3c0.7-4.8,2.8-9.3,5.9-13.1&#10;&#9;&#9;C246.8,202.5,246.9,202.1,246.9,201.8z"/>
	<path class="st14_road-trip-1-67" d="M236.9,197.4c0.1-0.1,0.1-0.1,0.2-0.2l-2.6-1.2c-3.2,3-5.5,6.8-6.6,11c0.7,0.6,1.4,1.3,2.2,2&#10;&#9;&#9;C231,204.5,233.4,200.4,236.9,197.4z"/>
	<path class="st14_road-trip-1-67" d="M246.9,201.8l-2-1l-0.1,0.1c-3.3,3.9-5.5,8.6-6.4,13.6c0.8,0.5,1.6,0.9,2.4,1.3c0.7-4.8,2.8-9.3,5.9-13.1&#10;&#9;&#9;C246.8,202.5,246.9,202.1,246.9,201.8z"/>
	<polygon class="st15_road-trip-1-67" points="264.1,224.3 250.9,217.1 251.2,200.5 265.5,208.4 &#9;"/>
	<path class="st15_road-trip-1-67" d="M230.6,183.5l-0.2,10.9c0,0.3,0.2,0.6,0.4,0.7l20.4,12c0.5,0.3,0-1,0-1.7v-11c0-0.3-0.1-0.6-0.4-0.8&#10;&#9;&#9;l-18.9-10.9c-0.4-0.2-0.9-0.1-1.1,0.3C230.6,183.2,230.6,183.3,230.6,183.5z"/>
	<path class="st16_road-trip-1-67" d="M230.6,183.5l-0.2,10.9c0,0.3,0.2,0.6,0.4,0.7l20.4,12c0.5,0.3,0-1,0-1.7v-11c0-0.3-0.1-0.6-0.4-0.8&#10;&#9;&#9;l-18.9-10.9c-0.4-0.2-0.9-0.1-1.1,0.3C230.6,183.2,230.6,183.3,230.6,183.5z"/>
	<path class="st5_road-trip-1-67" d="M230.6,188.2c0,0-0.3,1.4,0,1.4s20.7,12.2,20.7,12.2v-1.4L230.6,188.2z"/>
	<polygon class="st7_road-trip-1-67" points="244.1,194.7 244,198.1 246.2,199.5 246.3,196 &#9;"/>
	<path class="st15_road-trip-1-67" d="M251.2,200.5c1.3,0.6,13.2,7.9,13.2,7.9l23.9-13.1c0,0-9.1-6.2-9.9-5.9S251.2,200.5,251.2,200.5z"/>
	<path class="st17_road-trip-1-67" d="M251.2,200.5c1.3,0.6,13.2,7.9,13.2,7.9l23.9-13.1c0,0-9.1-6.2-9.9-5.9S251.2,200.5,251.2,200.5z"/>
	<path class="st15_road-trip-1-67" d="M231.3,182.6c0,0,24.4-14.2,24.7-14.1s19.4,11.7,19.4,11.7l-24.3,14.1L231.3,182.6z"/>
	<polygon class="st7_road-trip-1-67" points="235.2,189.3 235.2,192.7 237.4,194.1 237.5,190.6 &#9;"/>
	<polygon class="st15_road-trip-1-67" points="288.3,195.3 288,211.4 264.1,224.3 264.4,208.4 &#9;"/>
	<polygon class="st5_road-trip-1-67" points="288.3,195.3 288,211.4 264.1,224.3 264.4,208.4 &#9;"/>
	<path class="st7_road-trip-1-67" d="M251,193.4c0,0-3.2,1.8-0.4,6.1s5.1,4.6,8.6,3.6c0.9-1.1,1.3-2.4,1.3-3.8C260.6,196.9,258,190.3,251,193.4z"/>
	<path class="st17_road-trip-1-67" d="M251,193.4c0,0-3.2,1.8-0.4,6.1s5.1,4.6,8.6,3.6c0.9-1.1,1.3-2.4,1.3-3.8C260.6,196.9,258,190.3,251,193.4z"/>
	<path class="st7_road-trip-1-67" d="M277.2,179.5c-0.6,0-1.2,0.2-1.7,0.6c-4.3,2.7-8.9,4.8-13.3,7.1c-1.3,0.7-2.6,1.4-3.8,2.1l-7.3,4.1l-0.3,0.2&#10;&#9;&#9;c0,0,3.4-1.3,5.9,0.6s4.9,5.9,2.6,8.9c0,0,23.7-13,23.7-13.4c0-0.3,0.1-0.5,0.2-0.8c0.2-0.5,0.3-1.1,0.4-1.6&#10;&#9;&#9;c0.3-1.5,0.1-3.1-0.6-4.4c-0.7-1.1-1.6-1.9-2.8-2.5c-0.6-0.3-1.2-0.5-1.8-0.7c-0.4-0.1-0.7-0.3-1.1-0.4L277.2,179.5z"/>
	<path class="st14_road-trip-1-67" d="M258.1,199.2c0-1.5-1-2.8-2.4-3.2c-1.2-0.3-2.6,0.1-2.7,1.4c0,1.4,1,2.5,2.3,2.8c1.5,0.2,1.2-1.5,0.8-2.3&#10;&#9;&#9;c-0.3-0.5-1.1-0.1-0.8,0.4c0,0.9-0.3,1-0.7,0.3c-0.8-0.7-0.5-1.3,0.9-1.9c0.8,0.1,1.4,1,1.6,1.6c0.7,2-0.7,3.6-2.9,2.3&#10;&#9;&#9;c-1.3-0.7-2.1-2-2.1-3.5c0.2-1.9,2-2.4,3.7-2.1c0.6,0.1,0.8-0.7,0.3-0.9c-1.5-0.3-3.2-0.2-4.2,1.1c-0.9,1.3-0.9,3.1,0.1,4.4&#10;&#9;&#9;c0.8,1.2,2.3,2.4,3.9,2.3c1.3,0,2.4-1,2.4-2.3C258.2,199.6,258.2,199.4,258.1,199.2z"/>
	<path class="st13_road-trip-1-67" d="M253.4,225.5c-8.5-4.3-16.6-9.2-24.3-14.8c-1.8-1.3-3.6,1.6-1.8,2.9c7.7,5.6,15.8,10.5,24.3,14.8&#10;&#9;&#9;C253.5,229.4,255.3,226.5,253.4,225.5z"/>
	<path class="st13_road-trip-1-67" d="M232.2,212.9c-0.4-0.3,7.1-24.9,7.7-25.4c1.3-1.2,23.7-14.4,23.7-14.4l1.4,0.9l-24,14.4&#10;&#9;&#9;c0,0-7.9,24.3-7.9,25.2"/>
	<path class="st13_road-trip-1-67" d="M239.6,218c-0.4-0.3,7.3-25.4,7.9-25.9c1.3-1.2,23.7-14.4,23.7-14.4l1.4,0.9l-24,14.4c0,0-8,24.9-8,25.8"/>
	
		<ellipse transform="matrix(0.4352 -0.9003 0.9003 0.4352 -133.4476 377.4539)" class="st13_road-trip-1-67" cx="234.1" cy="295.1" rx="17.3" ry="11.3"/>
	
		<ellipse transform="matrix(0.4352 -0.9003 0.9003 0.4352 -132.8915 378.3704)" class="st12_road-trip-1-67" cx="235.1" cy="295.1" rx="9.4" ry="6.1"/>
</g>
</svg>