<svg version="1.1" id="Layer_1" xmlns="http://www.w3.org/2000/svg" xmlns:xlink="http://www.w3.org/1999/xlink" x="0px" y="0px" viewBox="0 0 500 500" style="width: 166px;" xml:space="preserve" data-imageid="rocket-launch-61" imageName="Rocket Launch" class="illustrations_image">
<style type="text/css">
	.st0_rocket-launch-61{fill:#093F68;}
	.st1_rocket-launch-61{fill:#68E1FD;}
	.st2_rocket-launch-61{fill:#FFFFFF;}
	.st3_rocket-launch-61{fill:#F56132;}
	.st4_rocket-launch-61{fill:#DFEAEF;}
</style>
<path id="line_rocket-launch-61" class="st0_rocket-launch-61" d="M429.5,400.2H70.5c-7.5,0-13.5-6.1-13.5-13.5V112.8c0-7.5,6.1-13.5,13.5-13.5h358.9&#10;&#9;c7.5,0,13.5,6.1,13.5,13.5v273.9C443,394.2,436.9,400.2,429.5,400.2z M70.5,103c-5.4,0-9.9,4.4-9.9,9.9v273.9c0,5.4,4.4,9.9,9.9,9.9&#10;&#9;h358.9c5.4,0,9.9-4.4,9.9-9.9V112.8c0-5.4-4.4-9.9-9.9-9.9L70.5,103z"/>
<g id="rocket_rocket-launch-61">
	<path class="st1_rocket-launch-61 targetColor" d="M261.2,203.2c0,0-18.4-12.7-43.8-5.2c-21.2,6.3-37.5,20.5-51.3,35.8c-1.2,1.4-1.1,3.5,0.2,4.8&#10;&#9;&#9;c1,0.9,2.4,1.1,3.6,0.6c7.3-3.2,16.2-5.4,25.4-3.6c16.8,3.2,21.4,12.2,21.4,12.2L261.2,203.2z" style="fill: rgb(104, 225, 253);"/>
	<path class="st0_rocket-launch-61" d="M216.8,249.6c-0.1,0-0.2,0-0.3,0c-0.6-0.1-1.1-0.5-1.3-1c0-0.1-4.5-8.2-20.1-11.2c-7.6-1.5-15.8-0.3-24.4,3.5&#10;&#9;&#9;c-2.6,1.2-5.7,0-6.9-2.6c-0.8-1.9-0.5-4.1,0.9-5.6c11-12.2,28.3-29.3,52.1-36.4c26-7.7,44.6,4.9,45.3,5.4c0.5,0.3,0.7,0.8,0.8,1.3&#10;&#9;&#9;c0,0.5-0.1,1.1-0.5,1.5L218.1,249C217.8,249.4,217.3,249.6,216.8,249.6z M188.7,233.1c2.4,0,4.8,0.2,7.1,0.7&#10;&#9;&#9;c12.7,2.5,18.8,8.1,21.3,11.1l41.2-41.4c-12.4-6.5-26.9-7.8-40.3-3.8c-23,6.8-39.8,23.4-50.5,35.2c-0.5,0.5-0.6,1.4-0.1,2&#10;&#9;&#9;c0.4,0.6,1.2,0.8,1.8,0.5C175.3,234.7,182,233.2,188.7,233.1z"/>
	<path class="st1_rocket-launch-61 targetColor" d="M306.5,265.4c0,0,6.4,21.4-8.6,43.3c-12.5,18.2-31,29.4-49.9,37.8c-1.7,0.8-3.7,0-4.5-1.7&#10;&#9;&#9;c-0.5-1.2-0.3-2.6,0.5-3.6c5.3-6,10.1-13.8,11.3-23.1c2.1-17-5-24.1-5-24.1L306.5,265.4z" style="fill: rgb(104, 225, 253);"/>
	<path class="st0_rocket-launch-61" d="M246.6,348.5c-1.7,0-3.2-0.8-4.2-2.2c-1.5-2-1.3-4.7,0.3-6.5c6.3-7,9.9-14.4,10.8-22.1&#10;&#9;&#9;c1.9-15.8-4.4-22.5-4.5-22.6c-0.7-0.7-0.7-1.9,0.1-2.6c0.1-0.1,0.3-0.2,0.4-0.3l56.1-28.5c0.5-0.2,1.1-0.3,1.5,0&#10;&#9;&#9;c0.5,0.2,0.9,0.6,1,1.2c0.3,0.9,6.5,22.5-8.8,44.8c-14,20.5-35.6,31.8-50.6,38.4C248.1,348.4,247.4,348.5,246.6,348.5z&#10;&#9;&#9; M253.2,294.5c2.1,3.3,5.6,10.8,4.1,23.7c-1,8.4-5,16.5-11.7,24.1c-0.5,0.5-0.5,1.3-0.1,1.9c0.4,0.6,1.2,0.8,1.9,0.5&#10;&#9;&#9;c14.6-6.5,35.6-17.4,49.1-37.1c8-11.5,11.1-25.7,8.8-39.5L253.2,294.5z"/>
	<path class="st2_rocket-launch-61" d="M337.3,251.6c-34.6,25.1-64.4,38.2-90.6,43.8l-32.5-44.7c13.4-23.1,35-47.5,69.5-72.7&#10;&#9;&#9;c12.5-9.2,26.2-16.5,40.8-21.7c42-15.1,75.3-6.5,75.3-6.5s-2.1,34.3-29.3,69.7C361.1,231.8,349.9,242.6,337.3,251.6z"/>
	<path class="st0_rocket-launch-61" d="M246.8,297.3c-0.6,0-1.1-0.3-1.5-0.8l-32.5-44.7c-0.4-0.6-0.5-1.4-0.1-2c14.9-25.9,37.8-49.8,70-73.2&#10;&#9;&#9;c12.6-9.3,26.5-16.7,41.2-22c42-15.1,75-6.9,76.4-6.5c0.8,0.2,1.4,1,1.4,1.9c-0.1,1.4-2.5,35.3-29.7,70.7&#10;&#9;&#9;c-9.6,12.4-20.9,23.3-33.6,32.5c-32.2,23.4-62,37.9-91.2,44.1C247,297.2,246.9,297.2,246.8,297.3z M216.4,250.6l31.1,42.8&#10;&#9;&#9;c28.3-6.3,57.3-20.4,88.7-43.2l0,0c12.4-9,23.5-19.7,32.8-31.8c23.3-30.2,28-60.1,28.8-67.1c-7-1.4-36.8-6.1-72.7,6.8&#10;&#9;&#9;c-14.4,5.2-28,12.4-40.3,21.5C253.5,202.3,231.1,225.6,216.4,250.6L216.4,250.6z"/>
	<polygon class="st0_rocket-launch-61" points="232.1,312.4 193.6,259.5 214.3,250.7 246.8,295.4 &#9;"/>
	<path class="st0_rocket-launch-61" d="M232.1,314.2L232.1,314.2c-0.6,0-1.1-0.3-1.5-0.8l-38.5-52.9c-0.6-0.8-0.4-2,0.4-2.6c0.1-0.1,0.2-0.2,0.4-0.2&#10;&#9;&#9;l20.7-8.7c0.8-0.3,1.7-0.1,2.2,0.6l32.5,44.6c0.5,0.7,0.5,1.6-0.1,2.3l-14.7,17C233.1,314,232.6,314.2,232.1,314.2z M196.4,260.2&#10;&#9;&#9;l35.8,49.2l12.2-14.2L213.7,253L196.4,260.2z"/>
	<circle class="st3_rocket-launch-61" cx="313.7" cy="212.5" r="23.6"/>
	<path class="st0_rocket-launch-61" d="M313.7,238c-14.1,0-25.5-11.4-25.4-25.5c0-14.1,11.4-25.5,25.5-25.4c14.1,0,25.5,11.4,25.4,25.5&#10;&#9;&#9;c0,8.1-3.9,15.8-10.5,20.6C324.4,236.3,319.1,238,313.7,238z M313.7,190.7c-12.1,0-21.8,9.8-21.8,21.9s9.8,21.8,21.9,21.8&#10;&#9;&#9;s21.8-9.8,21.8-21.9c0-10.7-7.8-19.9-18.4-21.6C316,190.8,314.8,190.7,313.7,190.7L313.7,190.7z"/>
	<path class="st1_rocket-launch-61 targetColor" d="M370.5,219.5l-46-63.2c42-15.1,75.3-6.5,75.3-6.5S397.8,184.2,370.5,219.5z" style="fill: rgb(104, 225, 253);"/>
	<path class="st0_rocket-launch-61" d="M370.5,221.4L370.5,221.4c-0.6,0-1.1-0.3-1.5-0.8l-46-63.2c-0.3-0.5-0.4-1.1-0.3-1.6c0.2-0.6,0.6-1,1.1-1.2&#10;&#9;&#9;c42.1-15.1,75-6.9,76.4-6.5c0.8,0.2,1.4,1,1.4,1.9c-0.1,1.4-2.5,35.3-29.7,70.7C371.7,221.1,371.1,221.4,370.5,221.4z M327.5,157.2&#10;&#9;&#9;l43.1,59.2c22-29.6,26.5-58.3,27.3-65.2C391.1,149.9,362.4,145.4,327.5,157.2z"/>
	<path class="st1_rocket-launch-61 targetColor" d="M280.1,234.3l2.6,3.6c0.9,1.2,0.6,2.9-0.6,3.7l-74.9,54.5c-1.2,0.9-2.9,0.6-3.7-0.6l-2.6-3.6&#10;&#9;&#9;c-0.9-1.2-0.6-2.9,0.6-3.7l74.9-54.5C277.5,232.8,279.2,233.1,280.1,234.3z" style="fill: rgb(104, 225, 253);"/>
	<path class="st0_rocket-launch-61" d="M206.1,297.6c-2.2,0-4.2-1-5.5-2.8l0,0c-2.2-3-1.5-7.2,1.5-9.4l71.4-51.9c3-2.2,7.2-1.5,9.4,1.5&#10;&#9;&#9;c2.2,3,1.5,7.2-1.5,9.4L210,296.3C208.9,297.1,207.5,297.6,206.1,297.6z M203.6,292.6c1,1.4,2.9,1.7,4.3,0.7c0,0,0,0,0,0l71.4-51.9&#10;&#9;&#9;c0.7-0.5,1.1-1.2,1.2-2c0.1-0.8-0.1-1.6-0.5-2.3c-1-1.4-2.9-1.7-4.3-0.7c0,0,0,0,0,0l-71.4,51.9&#10;&#9;&#9;C202.9,289.4,202.6,291.3,203.6,292.6C203.6,292.7,203.6,292.7,203.6,292.6L203.6,292.6z"/>
	<path class="st2_rocket-launch-61" d="M321.4,227.8c-1,0-1.8-0.8-1.8-1.8c0-0.8,0.5-1.5,1.2-1.7c0,0,3.1-1.2,5.9-5.5c3.8-5.8,0.3-12.2,0.1-12.5&#10;&#9;&#9;c-0.5-0.9-0.2-2,0.7-2.5c0.9-0.5,2-0.2,2.5,0.7c0.2,0.4,4.8,8.7-0.2,16.4c-3.6,5.4-7.6,6.9-7.8,7&#10;&#9;&#9;C321.8,227.8,321.6,227.8,321.4,227.8z"/>
	<path class="st2_rocket-launch-61" d="M314.2,229.6c-0.4,0-0.9,0-1.3-0.1c-1-0.1-1.7-1-1.6-2c0.1-1,1-1.7,2-1.6l0,0c1.3,0.1,2.7,0,4-0.2&#10;&#9;&#9;c1-0.2,1.9,0.4,2.1,1.4c0,0,0,0,0,0c0.2,1-0.5,1.9-1.5,2.1l0,0C316.7,229.5,315.4,229.6,314.2,229.6z"/>
	<path class="st0_rocket-launch-61" d="M110,318.4c-1,0-1.8-0.8-1.8-1.8c0-0.7,0.4-1.3,1-1.6l95.8-51.7c0.9-0.5,2-0.1,2.5,0.7c0.5,0.9,0.1,2-0.7,2.5&#10;&#9;&#9;l-95.8,51.7C110.6,318.3,110.3,318.4,110,318.4z"/>
	<path class="st0_rocket-launch-61" d="M165.3,369.8c-1,0-1.8-0.8-1.8-1.8c0-0.5,0.2-0.9,0.5-1.3l66.5-68.6c0.7-0.7,1.9-0.7,2.6,0s0.7,1.9,0,2.6&#10;&#9;&#9;l-66.5,68.5C166.2,369.6,165.8,369.8,165.3,369.8z"/>
	<path class="st0_rocket-launch-61" d="M151.4,296.1c-0.8,0-1.5-0.5-1.7-1.2c-2.8-8.3-7.8-14.2-15-17.5c-9.9-4.5-24-3.7-37.7,2.1c-0.9,0.4-2,0-2.4-1&#10;&#9;&#9;c-0.1-0.3-0.2-0.6-0.1-0.9c0.8-7.1-3.4-14.8-10.2-18.6c-6.4-3.6-14.7-3.9-22.2-0.9c-1,0.3-2-0.1-2.3-1.1c-0.3-0.9,0.1-1.9,1-2.3&#10;&#9;&#9;c8.6-3.4,18-3,25.3,1.2c7,4,11.6,11.2,12.1,19.2c14-5.3,27.7-5.7,38-1c8.2,3.7,13.9,10.3,17,19.7c0.3,0.9-0.2,2-1.1,2.3&#10;&#9;&#9;C151.8,296.1,151.6,296.1,151.4,296.1z"/>
	<path class="st0_rocket-launch-61" d="M116.9,328c-0.6,0-1.2-0.3-1.5-0.8c-14-19.9-42.8-18.3-43.1-18.3c-1,0.1-1.9-0.6-2-1.6c-0.1-1,0.6-1.9,1.6-2&#10;&#9;&#9;c0,0,0.1,0,0.1,0c1.3-0.1,31.2-1.7,46.4,19.8c0.6,0.8,0.4,2-0.4,2.5C117.7,327.9,117.3,328,116.9,328z"/>
	<path class="st4_rocket-launch-61" d="M75.7,359.8c-1,0-1.8-0.8-1.8-1.8c0-0.7,0.4-1.3,0.9-1.6l100.8-56.2c0.9-0.5,2-0.2,2.5,0.7&#10;&#9;&#9;c0.5,0.9,0.2,2-0.7,2.5L76.6,359.5C76.3,359.7,76,359.8,75.7,359.8z"/>
	<path class="st4_rocket-launch-61" d="M72.2,391.1c-1,0-1.8-0.8-1.8-1.8c0-0.6,0.3-1.2,0.8-1.5l107.9-71.3c0.8-0.6,2-0.3,2.5,0.5c0,0,0,0,0,0&#10;&#9;&#9;c0.5,0.8,0.3,2-0.5,2.5L73.2,390.8C72.9,391,72.5,391.1,72.2,391.1z"/>
	<path class="st4_rocket-launch-61" d="M131.6,388.9c-1,0-1.8-0.8-1.8-1.8c0-0.6,0.2-1.1,0.7-1.4l17.4-14.1c0.8-0.6,1.9-0.5,2.6,0.3&#10;&#9;&#9;c0.6,0.8,0.5,1.9-0.3,2.6l0,0l-17.4,14.1C132.4,388.7,132,388.9,131.6,388.9z"/>
	<path class="st4_rocket-launch-61" d="M165.3,346.3c-1,0-1.8-0.8-1.8-1.8c0-0.5,0.2-1,0.6-1.4l35.4-32.1c0.8-0.7,1.9-0.6,2.6,0.1&#10;&#9;&#9;c0.7,0.8,0.6,1.9-0.1,2.6l-35.4,32.1C166.2,346.2,165.7,346.3,165.3,346.3z"/>
	<path class="st0_rocket-launch-61" d="M221,399.5h-0.3c-1-0.2-1.7-1.1-1.5-2.1c1.4-9.5-5-18.5-14.5-20.2c-1-0.1-1.7-1.1-1.6-2.1&#10;&#9;&#9;c0-0.2,0.1-0.5,0.3-0.7c6.5-10.6,3.2-24.5-7.4-31.1c-1.3-0.8-2.7-1.5-4.2-2c-1-0.3-1.4-1.4-1.1-2.3c0.3-1,1.4-1.4,2.3-1.1&#10;&#9;&#9;c13.6,4.9,20.7,19.9,15.8,33.5c-0.3,0.9-0.7,1.8-1.1,2.7c4.6,1.4,8.5,4.2,11.3,8.1c3.3,4.5,4.7,10.2,3.8,15.8&#10;&#9;&#9;C222.6,398.9,221.9,399.5,221,399.5z"/>
	<path class="st0_rocket-launch-61" d="M203.3,390.6h-0.2c-1-0.1-1.7-1.1-1.6-2.1c0,0,0,0,0,0c1-8.6-3.5-17-11.2-21.1c-0.9-0.5-1.3-1.6-0.8-2.5&#10;&#9;&#9;s1.6-1.3,2.5-0.8l0,0c9.1,4.8,14.3,14.6,13.1,24.8C205,389.9,204.2,390.6,203.3,390.6z"/>
	<path class="st0_rocket-launch-61" d="M100.5,299.2c-0.7,0-1.3-0.4-1.7-1c-1.2-2.5-2.6-4.8-4.1-7c-3.1-4.3-6.2-6.8-9.6-7.6c-2.8-0.6-5.9,0-8.9,0.5&#10;&#9;&#9;c-1,0.2-2-0.4-2.2-1.5c0,0,0,0,0,0c-0.2-1,0.5-1.9,1.4-2.1c3.2-0.6,6.8-1.3,10.4-0.5c4.3,1,8.1,3.9,11.8,9c1.7,2.4,3.2,4.9,4.5,7.5&#10;&#9;&#9;c0.4,0.9,0.1,2-0.8,2.4C101,299.1,100.7,299.2,100.5,299.2L100.5,299.2z"/>
</g>
<g id="background_rocket-launch-61">
	<path class="st4_rocket-launch-61" d="M376.6,368.5c-15.8,0-30.3-8.8-37.6-22.8c-5.8-11.2-6.4-24.3-1.5-35.9c6.6-15.8,22-26.1,39.2-26.1&#10;&#9;&#9;c1.7,0,3.5,0.1,5.2,0.3c6.2,0.7,12.2,2.8,17.5,6.2c18,11.4,24.8,34.3,15.9,53.6c0,0.1-0.1,0.1-0.1,0.2&#10;&#9;&#9;C408.1,359,393.1,368.6,376.6,368.5L376.6,368.5z M376.6,287.3c-21.4,0-38.7,17.3-38.8,38.7c0,0,0,0.1,0,0.1&#10;&#9;&#9;c0,6.2,1.5,12.4,4.4,17.9c9.9,19,33.2,26.4,52.2,16.5c7.7-4,13.8-10.4,17.4-18.3c0-0.1,0.1-0.1,0.1-0.2c8-17.6,1.7-38.4-14.6-48.8&#10;&#9;&#9;c-4.8-3.1-10.3-5-16-5.7C379.7,287.4,378.2,287.3,376.6,287.3L376.6,287.3z M413.5,343L413.5,343z"/>
	<path class="st4_rocket-launch-61" d="M376.6,368.5c-15.8,0-30.3-8.8-37.6-22.8c-0.4-0.8-0.2-1.8,0.5-2.3c2-1.6,3.8-3.3,5.5-5.1&#10;&#9;&#9;c0.8-0.8,1.5-1.6,2.3-2.4c4.7-4.6,9.1-6.8,13.4-6.9c3.3,0,6.5,1.4,8.6,3.9c1.7,1.9,2.4,4.4,2,6.9c-0.1,0.6-0.3,1.2-0.5,1.8&#10;&#9;&#9;c-0.2,0.5-0.3,0.9-0.4,1.4c-0.4,2.8,2.4,5.3,5.4,6.2c1.9,0.5,3.8,0.9,5.7,1c1.9,0.2,3.8,0.5,5.6,0.9c4.9,1.4,9.1,4.5,11.7,8.9&#10;&#9;&#9;c0.3,0.4,0.3,0.9,0.2,1.4c-0.1,0.5-0.4,0.9-0.8,1.1C391.8,366.5,384.3,368.5,376.6,368.5z M342.9,345.3&#10;&#9;&#9;c10.4,18.2,33.4,24.8,51.9,15c-2.1-2.8-5.1-4.8-8.5-5.7c-1.7-0.4-3.4-0.7-5.1-0.8c-2.2-0.2-4.3-0.6-6.4-1.1&#10;&#9;&#9;c-4.4-1.4-8.6-5.4-7.9-10.3c0.1-0.7,0.3-1.3,0.5-2c0.2-0.4,0.3-0.9,0.4-1.3c0.2-1.4-0.2-2.8-1.2-3.8c-1.4-1.7-3.6-2.6-5.8-2.6&#10;&#9;&#9;c-3.4,0.1-7,2-11,5.9c-0.8,0.7-1.5,1.5-2.2,2.3C346.2,342.4,344.6,343.9,342.9,345.3z"/>
	<path class="st4_rocket-launch-61" d="M413.5,344.9c-0.2,0-0.3,0-0.5-0.1c-3.2-0.7-6-2.5-7.9-5.2c-1.3-2-2.2-4.2-2.9-6.5c-1.2-3.8-2.2-6.2-4.5-6.9&#10;&#9;&#9;c-1.5-0.3-3-0.2-4.4,0.3c-1.6,0.4-3.2,0.6-4.9,0.5c-2.6-0.3-4.9-1.7-6.4-3.8c-2.1-2.8-2.9-6.4-2.3-9.9c1-5.4,4.8-9.6,8.8-13.4&#10;&#9;&#9;l0.9-0.9c2.7-2.6,5.4-5.2,7.2-8.3c0.5-0.8,1.7-1.1,2.5-0.5c0.8,0.5,1.1,1.5,0.7,2.3c-2,3.5-5,6.4-7.8,9.1l-0.9,0.8&#10;&#9;&#9;c-3.3,3.1-6.9,6.9-7.7,11.4c-0.4,2.5,0.2,5,1.6,7c0.9,1.3,2.3,2.1,3.8,2.3c1.3,0,2.5-0.1,3.8-0.4c2-0.6,4.2-0.7,6.2-0.2&#10;&#9;&#9;c4.3,1.3,5.7,5.5,6.9,9.2c0.5,1.9,1.3,3.8,2.4,5.5c1.4,1.9,3.5,3.2,5.8,3.7c1,0.2,1.6,1.2,1.4,2.2&#10;&#9;&#9;C415.1,344.3,414.4,344.9,413.5,344.9L413.5,344.9z"/>
	<path class="st4_rocket-launch-61" d="M349,314.9c-3.8-0.1-7.4-1-10.8-2.8c-0.8-0.4-1.2-1.5-0.8-2.3c6.6-15.8,22-26.1,39.2-26.1&#10;&#9;&#9;c1.7,0,3.5,0.1,5.2,0.3c1,0.1,1.7,1.1,1.6,2.1c0,0.1-0.1,0.3-0.1,0.4c-0.9,2.2-2.2,4.1-3.9,5.7c-2.6,2.2-5.5,4-8.6,5.4&#10;&#9;&#9;c-0.8,0.4-1.6,0.8-2.4,1.2c-2.5,1.3-5.3,3-7.2,5.5c-0.6,1-1.1,2-1.5,3.1c-0.8,2-1.7,4.2-3.9,5.7C353.7,314.3,351.4,315,349,314.9z&#10;&#9;&#9; M341.5,309.6c4.2,1.7,9.4,2.4,12.2,0.5c1.2-0.8,1.8-2.3,2.5-4c0.5-1.4,1.2-2.7,2-3.9c2.3-3.1,5.5-5,8.4-6.5&#10;&#9;&#9;c0.8-0.4,1.6-0.8,2.4-1.2c2.8-1.2,5.4-2.9,7.8-4.8c0.7-0.6,1.3-1.3,1.8-2.1c-0.7,0-1.3,0-2,0C361.6,287.4,347.9,296,341.5,309.6&#10;&#9;&#9;L341.5,309.6z"/>
	<path class="st4_rocket-launch-61" d="M141.6,181c-12.7,0-23-10.3-23-23s10.3-23,23-23s23,10.3,23,23S154.3,181,141.6,181L141.6,181z M141.6,138.7&#10;&#9;&#9;c-10.7,0-19.3,8.6-19.3,19.3c0,10.7,8.6,19.3,19.3,19.3s19.3-8.6,19.3-19.3c0,0,0,0,0,0C160.9,147.3,152.3,138.7,141.6,138.7&#10;&#9;&#9;L141.6,138.7z"/>
	<path class="st4_rocket-launch-61" d="M115.4,184.2c-0.3,0-0.5,0-0.7-0.1c-1-0.4-1.7-1.3-1.9-2.4c-0.5-3.6,6.2-9.8,10.3-13.1c0.8-0.6,2-0.4,2.6,0.4&#10;&#9;&#9;c0.5,0.8,0.4,1.8-0.2,2.4c-4,3.3-7.7,7.1-8.7,9c8.6-2.9,49.5-33.3,53.5-39.8c-1.6-0.4-7.1,1.1-12.9,4c-0.9,0.4-2,0-2.4-0.9&#10;&#9;&#9;c-0.4-0.9-0.1-1.9,0.8-2.4c1.9-1,11.6-5.7,16-4.1c1,0.3,1.8,1,2.2,2c0.7,1.6-0.2,3.3-3.5,6.6C162.1,154,123.1,184.2,115.4,184.2z"/>
	<path class="st4_rocket-launch-61" d="M330.3,122.6c-7.1,0-7.1,11.1,0,11.1S337.5,122.6,330.3,122.6z"/>
	<path class="st4_rocket-launch-61" d="M99.9,124.3c-7.1,0-7.1,11.1,0,11.1S107.1,124.3,99.9,124.3z"/>
	<path class="st4_rocket-launch-61" d="M413.5,228.8c-7.1,0-7.1,11.1,0,11.1S420.6,228.8,413.5,228.8z"/>
	<path class="st4_rocket-launch-61" d="M209.5,145.4c-3.3,0-5.9-2.6-5.9-5.9c0-3.3,2.6-5.9,5.9-5.9c3.3,0,5.9,2.6,5.9,5.9c0,0,0,0,0,0&#10;&#9;&#9;C215.4,142.7,212.8,145.4,209.5,145.4z M209.5,137.2c-1.2,0-2.3,1-2.3,2.2s1,2.3,2.2,2.3s2.3-1,2.3-2.2c0,0,0,0,0,0&#10;&#9;&#9;C211.8,138.2,210.7,137.2,209.5,137.2z"/>
	<path class="st4_rocket-launch-61" d="M231.8,372.6c-3.3,0-5.9-2.7-5.9-5.9c0-3.3,2.7-5.9,5.9-5.9c3.3,0,5.9,2.7,5.9,5.9c0,0,0,0,0,0&#10;&#9;&#9;C237.7,370,235.1,372.6,231.8,372.6z M231.8,364.5c-1.2,0-2.3,1-2.3,2.2c0,1.2,1,2.3,2.2,2.3s2.3-1,2.3-2.2c0,0,0,0,0,0&#10;&#9;&#9;C234.1,365.5,233,364.5,231.8,364.5z"/>
	<path class="st4_rocket-launch-61" d="M305.9,354.3c-1,0-1.8-0.8-1.8-1.8v-5.8c0-1,0.8-1.8,1.8-1.8c1,0,1.8,0.8,1.8,1.8v5.8&#10;&#9;&#9;C307.8,353.5,306.9,354.3,305.9,354.3L305.9,354.3z"/>
	<path class="st4_rocket-launch-61" d="M305.9,368.6c-1,0-1.8-0.8-1.8-1.8V361c0-1,0.8-1.8,1.8-1.8c1,0,1.8,0.8,1.8,1.8v5.8&#10;&#9;&#9;C307.7,367.8,306.9,368.6,305.9,368.6z"/>
	<path class="st4_rocket-launch-61" d="M316,358.6h-5.8c-1-0.1-1.8-1-1.7-2c0.1-0.9,0.8-1.6,1.7-1.7h5.8c1,0.1,1.8,1,1.7,2&#10;&#9;&#9;C317.6,357.8,316.9,358.5,316,358.6z"/>
	<path class="st4_rocket-launch-61" d="M301.7,358.6h-5.8c-1-0.1-1.8-1-1.7-2c0.1-0.9,0.8-1.6,1.7-1.7h5.8c1,0.1,1.8,1,1.7,2&#10;&#9;&#9;C303.3,357.8,302.6,358.5,301.7,358.6z"/>
	<path class="st4_rocket-launch-61" d="M266.8,145c-1,0-1.8-0.8-1.8-1.8v-5.8c0-1,0.8-1.8,1.8-1.8c1,0,1.8,0.8,1.8,1.8l0,0v5.8&#10;&#9;&#9;C268.7,144.2,267.8,145,266.8,145C266.8,145,266.8,145,266.8,145z"/>
	<path class="st4_rocket-launch-61" d="M266.8,159.3c-1,0-1.8-0.8-1.8-1.8v-5.8c0-1,0.8-1.8,1.8-1.8c1,0,1.8,0.8,1.8,1.8v5.8&#10;&#9;&#9;C268.7,158.5,267.8,159.3,266.8,159.3C266.8,159.3,266.8,159.3,266.8,159.3z"/>
	<path class="st4_rocket-launch-61" d="M276.9,149.2h-5.8c-1-0.1-1.8-1-1.7-2c0.1-0.9,0.8-1.6,1.7-1.7h5.8c1-0.1,1.9,0.7,2,1.7c0.1,1-0.7,1.9-1.7,2&#10;&#9;&#9;C277,149.2,277,149.2,276.9,149.2z"/>
	<path class="st4_rocket-launch-61" d="M262.6,149.2h-5.8c-1-0.1-1.8-1-1.7-2c0.1-0.9,0.8-1.6,1.7-1.7h5.8c1,0.1,1.8,1,1.7,2&#10;&#9;&#9;C264.2,148.4,263.5,149.2,262.6,149.2z"/>
	<path class="st4_rocket-launch-61" d="M135.8,225.4c-1,0-1.8-0.8-1.8-1.8l0,0v-5.8c0-1,0.8-1.8,1.8-1.8s1.8,0.8,1.8,1.8v5.8&#10;&#9;&#9;C137.6,224.6,136.8,225.4,135.8,225.4L135.8,225.4z"/>
	<path class="st4_rocket-launch-61" d="M135.8,239.6c-1,0-1.8-0.8-1.8-1.8l0,0V232c0-1,0.8-1.8,1.8-1.8s1.8,0.8,1.8,1.8v5.8&#10;&#9;&#9;C137.6,238.8,136.8,239.6,135.8,239.6C135.8,239.6,135.8,239.6,135.8,239.6z"/>
	<path class="st4_rocket-launch-61" d="M145.8,229.6H140c-1-0.1-1.8-1-1.7-2c0.1-0.9,0.8-1.6,1.7-1.7h5.8c1,0.1,1.8,1,1.7,2&#10;&#9;&#9;C147.4,228.8,146.7,229.5,145.8,229.6z"/>
	<path class="st4_rocket-launch-61" d="M131.5,229.6h-5.8c-1-0.1-1.8-1-1.7-2c0.1-0.9,0.8-1.6,1.7-1.7h5.8c1,0.1,1.8,1,1.7,2&#10;&#9;&#9;C133.2,228.8,132.4,229.5,131.5,229.6z"/>
	<path class="st4_rocket-launch-61" d="M397.5,269.2c-1,0-1.8-0.8-1.8-1.8v-14.6c0-1,0.8-1.8,1.8-1.8c1,0,1.8,0.8,1.8,1.8l0,0v14.6&#10;&#9;&#9;C399.3,268.4,398.5,269.2,397.5,269.2L397.5,269.2z"/>
	<path class="st4_rocket-launch-61" d="M404.7,261.9h-14.6c-1,0-1.8-0.8-1.8-1.8c0-1,0.8-1.8,1.8-1.8h14.6c1,0,1.8,0.8,1.8,1.8&#10;&#9;&#9;C406.6,261.1,405.7,261.9,404.7,261.9L404.7,261.9z"/>
	<path class="st4_rocket-launch-61" d="M88.2,207.1c-1,0-1.8-0.8-1.8-1.8l0,0v-14.6c0-1,0.8-1.8,1.8-1.8s1.8,0.8,1.8,1.8v14.6&#10;&#9;&#9;C90,206.3,89.2,207.1,88.2,207.1L88.2,207.1z"/>
	<path class="st4_rocket-launch-61" d="M95.4,199.8H80.9c-1,0-1.8-0.8-1.8-1.8s0.8-1.8,1.8-1.8h14.6c1,0,1.8,0.8,1.8,1.8S96.5,199.8,95.4,199.8z"/>
</g>
</svg>