<svg version="1.1" id="Layer_1" xmlns="http://www.w3.org/2000/svg" xmlns:xlink="http://www.w3.org/1999/xlink" x="0px" y="0px" viewBox="0 0 500 500" style="width: 166px;" xml:space="preserve" data-imageid="savings-1-51" imageName="Savings 1" class="illustrations_image">
<style type="text/css">
	.st0_savings-1-51{fill:#16A79E;}
	.st1_savings-1-51{opacity:0.91;fill:url(#SVGID_1_);enable-background:new    ;}
	.st2_savings-1-51{opacity:0.91;fill:url(#SVGID_00000036957315058471528090000010408506857024134846_);enable-background:new    ;}
	.st3_savings-1-51{opacity:0.91;fill:url(#SVGID_00000029037544966910172470000006664976370942202528_);enable-background:new    ;}
	.st4_savings-1-51{fill:#68E1FD;}
	.st5_savings-1-51{opacity:0.54;fill:#1B3F60;enable-background:new    ;}
	.st6_savings-1-51{opacity:0.76;fill:#1B3F60;enable-background:new    ;}
	.st7_savings-1-51{opacity:0.3;fill:#1B3F60;enable-background:new    ;}
	.st8_savings-1-51{fill:#1B3F60;}
	.st9_savings-1-51{opacity:0.56;fill:#F2F2F2;enable-background:new    ;}
	.st10_savings-1-51{fill:#F7931E;}
	.st11_savings-1-51{fill:#FFB92C;}
	.st12_savings-1-51{fill:#F2F2F2;}
	.st13_savings-1-51{fill:#FFB3A6;}
	.st14_savings-1-51{fill:#56403D;}
	.st15_savings-1-51{fill:#999A1C;}
	.st16_savings-1-51{opacity:0.3;fill:#56403D;enable-background:new    ;}
</style>
<g id="background_savings-1-51">
	<path class="st0_savings-1-51" d="M242.5,388.4l-225.1-133c-7.2-4-13.3-10.6-6.3-15L237,110.2c3.4-2.1,8.5-3.5,12-1.5l236.3,137.1&#10;&#9;&#9;c7.2,4.2,8.5,15.8,1.3,20L272.2,388.2C263.1,393.5,251.8,393.6,242.5,388.4z"/>
	
		<linearGradient id="SVGID_1_-savings-1-51" gradientUnits="userSpaceOnUse" x1="132.3768" y1="243.2018" x2="100.7915" y2="266.5871" gradientTransform="matrix(1 0 0 -1 0 502)">
		<stop offset="0" style="stop-color:#16A79E;stop-opacity:0"/>
		<stop offset="0.9917" style="stop-color:#1B3F60"/>
	</linearGradient>
	<path class="st1_savings-1-51" d="M149.3,254.3c-3.3,1-2.9,4.4-6.3,5c-2,0.4-2.6,5.2-4.7,5.3l-14.4,11L81,248.9l40.2-23.1l34.6,22.2&#10;&#9;&#9;C150.4,252,155.6,252.4,149.3,254.3z"/>
	
		<linearGradient id="SVGID_00000041293786177938454810000005717923054872727963_-savings-1-51" gradientUnits="userSpaceOnUse" x1="436.0424" y1="222.5161" x2="404.126" y2="246.1466" gradientTransform="matrix(1 0 0 -1 0 502)">
		<stop offset="0" style="stop-color:#16A79E;stop-opacity:0"/>
		<stop offset="0.9917" style="stop-color:#1B3F60"/>
	</linearGradient>
	<path style="opacity:0.91;fill:url(#SVGID_00000041293786177938454810000005717923054872727963_);enable-background:new    ;" d="&#10;&#9;&#9;M453.2,274.9c-3.3,1-3,4.4-6.4,5.1c-2.1,0.4-2.7,5.2-4.7,5.4l-14.6,11.1l-43.3-27l40.6-23.3l34.9,22.4&#10;&#9;&#9;C454.3,272.6,459.5,273,453.2,274.9z"/>
	
		<linearGradient id="SVGID_00000131336681298030820480000017693152308227238792_-savings-1-51" gradientUnits="userSpaceOnUse" x1="311.7448" y1="204.7605" x2="233.3862" y2="262.7761" gradientTransform="matrix(1 0 0 -1 0 502)">
		<stop offset="0" style="stop-color:#16A79E;stop-opacity:0"/>
		<stop offset="0.9917" style="stop-color:#1B3F60"/>
	</linearGradient>
	<path style="opacity:0.91;fill:url(#SVGID_00000131336681298030820480000017693152308227238792_);enable-background:new    ;" d="&#10;&#9;&#9;M353.9,286c-8.1,2.5-7.3,10.8-15.6,12.5c-5.1,1-6.5,12.8-11.7,13.2L290.8,339l-106.3-66.2l99.7-57.3l85.8,55.1&#10;&#9;&#9;C356.6,280.4,369.5,281.2,353.9,286z"/>
</g>
<g id="piggy_savings-1-51">
	<path class="st4_savings-1-51 targetColor" d="M223.9,273.8c0,0,8.8,19.2,20.6,20.5c11.9,1.2,12-34.8,12-34.8S230.9,245.5,223.9,273.8z" style="fill: rgb(104, 225, 253);"/>
	<path class="st4_savings-1-51 targetColor" d="M287.7,232c0,0,8.8,19.2,20.6,20.5s12-34.8,12-34.8S294.8,203.7,287.7,232z" style="fill: rgb(104, 225, 253);"/>
	<path class="st4_savings-1-51 targetColor" d="M169.3,248.9c0,0,4.7,20.6,16.1,24.2s18.8-31.6,18.8-31.6S182,222.6,169.3,248.9z" style="fill: rgb(104, 225, 253);"/>
	<path class="st5_savings-1-51" d="M223.9,273.8c0,0,8.8,19.2,20.6,20.5c11.9,1.2,12-34.8,12-34.8S230.9,245.5,223.9,273.8z"/>
	<path class="st5_savings-1-51" d="M287.7,232c0,0,8.8,19.2,20.6,20.5s12-34.8,12-34.8S294.8,203.7,287.7,232z"/>
	<path class="st5_savings-1-51" d="M169.3,248.9c0,0,4.7,20.6,16.1,24.2s18.8-31.6,18.8-31.6S182,222.6,169.3,248.9z"/>
	<path class="st4_savings-1-51 targetColor" d="M163,237.4c9.8,27.9,41.3,39.7,69,39.3c35.3-0.6,70.9-23.8,86.4-55.4c14.9-30.1,7.1-64.6-21.7-82.8&#10;&#9;&#9;c-42.8-27-106.7-2.6-128,40.9c-8.4,17.1-12.1,38.8-6,57.2L163,237.4z" style="fill: rgb(104, 225, 253);"/>
	<path class="st5_savings-1-51" d="M207.7,165.7l16.9,7.1l0,0c0,0,20.4-18.3,39.8-25.7l-18.1-6.2C246.3,140.9,223.7,150.6,207.7,165.7z"/>
	<polygon class="st6_savings-1-51" points="246.3,140.9 245.8,156.9 251.2,153.5 264.4,147.1 &#9;"/>
	<path class="st7_savings-1-51" d="M297.2,139c-13.7-8.6-29.5-12-45.4-11.2c14.8,3.7,28,12.2,37.4,24.3c11.3,14.6,16.7,32.1,13.2,50.4&#10;&#9;&#9;c-3.5,18.6-14.1,35.7-27.4,48.9c-12.9,12.7-29.4,21.3-47.2,24.6c-1.8,0.3-3.6,0.6-5.4,0.9c3.3,0.3,6.6,0.4,9.9,0.4&#10;&#9;&#9;c35.3-0.6,70.8-23.8,86.4-55.4C333.8,191.6,326,157.2,297.2,139z"/>
	<ellipse class="st8_savings-1-51" cx="207.7" cy="221.1" rx="3.3" ry="4.7"/>
	
		<ellipse transform="matrix(0.498 -0.8672 0.8672 0.498 -108.3827 279.8897)" class="st4_savings-1-51 targetColor" cx="187.6" cy="233.6" rx="12.4" ry="15.7" style="fill: rgb(104, 225, 253);"/>
	
		<ellipse transform="matrix(0.498 -0.8672 0.8672 0.498 -108.3827 279.8897)" class="st5_savings-1-51" cx="187.6" cy="233.6" rx="12.4" ry="15.7"/>
	
		<ellipse transform="matrix(0.498 -0.8672 0.8672 0.498 -111.5913 278.5517)" class="st4_savings-1-51 targetColor" cx="184.8" cy="235.7" rx="12.4" ry="15.7" style="fill: rgb(104, 225, 253);"/>
	
		<ellipse transform="matrix(0.498 -0.8672 0.8672 0.498 -111.5913 278.5517)" class="st9_savings-1-51" cx="184.8" cy="235.7" rx="12.4" ry="15.7"/>
	<circle class="st8_savings-1-51" cx="189.7" cy="237.4" r="3"/>
	<ellipse class="st8_savings-1-51" cx="179.1" cy="210.2" rx="3.3" ry="4.7"/>
	<circle class="st8_savings-1-51" cx="179.1" cy="235" r="3"/>
	<path class="st4_savings-1-51 targetColor" d="M172.4,176.1c0,0,1-21.3,4.4-21s10,20.2,10,21S179.6,175.8,172.4,176.1z" style="fill: rgb(104, 225, 253);"/>
	<path class="st4_savings-1-51 targetColor" d="M226.5,192.9c0,0,11.2-18.5,15.1-16.9s1.7,25.9,1.7,25.9S235.7,195.1,226.5,192.9z" style="fill: rgb(104, 225, 253);"/>
	<path class="st9_savings-1-51" d="M172.4,176.1c0,0,1-21.3,4.4-21s10,20.2,10,21S179.6,175.8,172.4,176.1z"/>
	<path class="st9_savings-1-51" d="M226.5,192.9c0,0,11.2-18.5,15.1-16.9s1.7,25.9,1.7,25.9S235.7,195.1,226.5,192.9z"/>
</g>
<g id="coins_savings-1-51">
	<path class="st10_savings-1-51" d="M77.4,193.5c5.7-2.2,11.8-3.4,18-3.4c9.8,0.1-11.7,17.6-11.7,17.6"/>
	
		<ellipse transform="matrix(0.9964 -8.506683e-02 8.506683e-02 0.9964 -18.4617 8.5505)" class="st10_savings-1-51" cx="91.1" cy="220.9" rx="27.8" ry="30.5"/>
	
		<ellipse transform="matrix(0.9964 -8.506701e-02 8.506701e-02 0.9964 -18.4208 8.9071)" class="st11_savings-1-51" cx="95.3" cy="220.6" rx="27.8" ry="30.5"/>
	<path class="st10_savings-1-51" d="M95.7,247.8c-12.9,0-24-10.9-25.2-25.1c-0.7-7.1,1.3-14.2,5.6-19.8c7.7-10.4,22.4-12.7,32.8-5&#10;&#9;&#9;c0.8,0.6,1.6,1.3,2.4,2c5.2,4.9,8.4,11.5,8.9,18.6c1.3,15-8.8,28.1-22.6,29.3C97,247.8,96.3,247.8,95.7,247.8z M95,194.4&#10;&#9;&#9;c-0.6,0-1.3,0-1.9,0.1c-6.4,0.6-12.3,3.9-16.1,9c-4.1,5.4-6,12.2-5.4,19c1.2,14.4,12.8,25.1,26,24s22.7-13.7,21.5-28.1l0,0&#10;&#9;&#9;c-0.5-6.8-3.6-13.2-8.5-17.8C106.4,196.7,100.8,194.4,95,194.4z"/>
	<path class="st10_savings-1-51" d="M106.8,218.1c-2.8-2.4-6.6-2.2-10-1.3c-1.3-2.7-2.6-5.4-3.9-8.1c0.8-0.2,1.5-0.4,2.3-0.4&#10;&#9;&#9;c2.4-0.2,1.8-3.9-0.6-3.7c-1.2,0.1-2.3,0.4-3.4,0.9c-0.8-1.5-1.5-3-2.2-4.4c-1.1-2.1-4.5-0.6-3.4,1.5c0.8,1.6,1.6,3.1,2.4,4.7&#10;&#9;&#9;c-4.4,3.2-7.4,8.6-4,13.6c2.5,3.7,6.5,2.4,10,1.1l1-0.4c1.2,2.6,2.4,5.2,3.6,7.8c-1.6,0.4-3.3,0.6-5,0.7c-2.4,0.1-1.8,3.9,0.6,3.7&#10;&#9;&#9;c2-0.1,4-0.5,6-1c0.4,0.9,0.8,1.8,1.2,2.7c0.4,0.9,1.5,1.4,2.5,1s1.4-1.5,1-2.5c-0.4-0.8-0.8-1.6-1.1-2.5c1.9-0.8,3.5-2.1,4.7-3.8&#10;&#9;&#9;C110.3,224.4,109.7,220.3,106.8,218.1z M90.7,219c-3.6-0.1-5.1-2.4-3.7-5.5c0.6-1.2,1.4-2.3,2.5-3.1c1.3,2.6,2.5,5.2,3.8,7.8&#10;&#9;&#9;C92.4,218.6,91.6,218.9,90.7,219z M105.1,225.3c-0.8,1.2-1.9,2.1-3.1,2.6c-1.2-2.6-2.4-5.2-3.6-7.7c0.3-0.1,0.7-0.2,1-0.2&#10;&#9;&#9;C102.3,219.5,107.5,221,105.1,225.3L105.1,225.3z"/>
	<path class="st12_savings-1-51" d="M70.7,198.9c0,0,0.6,9.5-6.8,10.1c0,0,6.3,2.6,7.3,7.6c0,0,0.8-7,7.2-7.7C73.7,207.9,70.5,203.6,70.7,198.9z"/>
	<ellipse class="st10_savings-1-51" cx="406.5" cy="258.4" rx="29.6" ry="17.3"/>
	<polygon class="st10_savings-1-51" points="376.9,258.4 376.9,253.4 380.1,257.4 &#9;"/>
	<polygon class="st10_savings-1-51" points="436.1,253.4 436.1,258.4 432.3,258.4 435.1,254.4 &#9;"/>
	<ellipse class="st11_savings-1-51" cx="406.5" cy="253.4" rx="29.6" ry="17.3"/>
	<path class="st10_savings-1-51" d="M421.5,251.1c0.2,0.4,0.3,0.9,0.2,1.3l-0.1,0.5h-5.4c0-0.2,0.1-0.3,0.1-0.5c0-0.4-0.1-0.7-0.3-1&#10;&#9;&#9;c-0.3-0.5-0.8-0.9-1.3-1.2c-0.8-0.4-1.7-0.6-2.5-0.7c-0.8-0.1-1.6,0.1-2.4,0.4c-0.8,0.3-1,0.8-0.9,1.3c0.3,0.6,0.6,1.2,1.1,1.7&#10;&#9;&#9;c0.6,0.6,1.1,1.2,1.6,1.9c0.5,0.6,0.6,1.4,0.3,2.1c-0.6,1-1.5,1.7-2.6,2c-1.8,0.8-3.8,1.2-5.7,1.2c-2.1,0.1-4.2-0.2-6.3-0.9&#10;&#9;&#9;l-3.1,1.3l-3.6-1.8l3-1.3c-0.5-0.4-1-0.8-1.5-1.3c-0.3-0.4-0.5-0.8-0.7-1.2c-0.1-0.3-0.2-0.7-0.2-1c0-0.2,0-0.5,0-0.7l0.1-0.3h5.4&#10;&#9;&#9;c-0.1,0.2-0.1,0.4-0.1,0.6c0,0.4,0.2,0.9,0.4,1.2c0.4,0.7,1.1,1.2,1.8,1.5c1,0.5,2,0.8,3.1,0.8c1,0.1,2-0.1,2.9-0.5&#10;&#9;&#9;c0.8-0.3,1-0.7,0.9-1.3c-0.3-0.6-0.7-1.2-1.2-1.7c-0.6-0.6-1.1-1.2-1.6-1.9c-0.5-0.6-0.6-1.4-0.2-2.1c0.6-1,1.6-1.7,2.8-2.1&#10;&#9;&#9;c1.7-0.7,3.6-1.1,5.5-1.1c2-0.1,4,0.2,5.9,0.9l3.1-1.3l3.4,1.9l-3.1,1.3C420.8,249.8,421.2,250.4,421.5,251.1z"/>
	<path class="st10_savings-1-51" d="M406.5,269.3c-14.3,0-26-7-26-15.7s11.7-15.7,26-15.7s26,7.1,26,15.7C432.5,262.2,420.9,269.3,406.5,269.3z&#10;&#9;&#9; M406.5,240.2c-13.1,0-23.7,6-23.7,13.4c0,7.4,10.6,13.4,23.7,13.4s23.7-6,23.7-13.4S419.6,240.2,406.5,240.2L406.5,240.2z"/>
	<ellipse class="st10_savings-1-51" cx="396.1" cy="248.7" rx="29.6" ry="17.3"/>
	<polygon class="st10_savings-1-51" points="366.5,248.7 366.5,243.7 369.7,247.7 &#9;"/>
	<polygon class="st10_savings-1-51" points="425.7,243.7 425.7,248.7 421.9,248.7 424.7,244.7 &#9;"/>
	<ellipse class="st11_savings-1-51" cx="396.1" cy="243.7" rx="29.6" ry="17.3"/>
	<path class="st10_savings-1-51" d="M411.1,241.4c0.2,0.4,0.3,0.9,0.2,1.3l-0.1,0.5h-5.4c0.1-0.1,0.1-0.3,0.1-0.5c0-0.4-0.1-0.7-0.3-1&#10;&#9;&#9;c-0.3-0.5-0.8-0.9-1.3-1.2c-0.8-0.4-1.6-0.6-2.5-0.7c-0.8-0.1-1.7,0.1-2.4,0.4c-0.8,0.3-1,0.8-0.9,1.3c0.3,0.6,0.6,1.2,1.1,1.7&#10;&#9;&#9;c0.6,0.6,1.1,1.2,1.6,1.9c0.5,0.6,0.6,1.4,0.3,2.1c-0.6,1-1.5,1.7-2.6,2.1c-1.8,0.8-3.8,1.2-5.7,1.2c-2.1,0.1-4.2-0.2-6.3-0.9&#10;&#9;&#9;l-3.1,1.3l-3.6-1.8l3-1.3c-0.5-0.4-1-0.8-1.4-1.3c-0.3-0.4-0.6-0.8-0.7-1.2c-0.1-0.3-0.2-0.7-0.2-1c0-0.2,0-0.5,0-0.7l0.1-0.3h5.4&#10;&#9;&#9;c-0.1,0.2-0.1,0.4-0.1,0.6c0,0.4,0.2,0.9,0.4,1.2c0.4,0.7,1.1,1.2,1.8,1.5c1,0.5,2,0.8,3.1,0.8c1,0.1,2-0.1,2.9-0.5&#10;&#9;&#9;c0.7-0.3,1-0.8,0.8-1.3c-0.3-0.6-0.7-1.2-1.2-1.7c-0.6-0.6-1.2-1.2-1.7-1.9c-0.5-0.6-0.6-1.4-0.2-2.1c0.6-1,1.6-1.7,2.8-2.1&#10;&#9;&#9;c1.7-0.7,3.6-1.1,5.5-1.1c2-0.1,4,0.2,5.9,0.9l3.1-1.3l3.4,1.9l-3.1,1.3C410.4,240.1,410.8,240.7,411.1,241.4z"/>
	<path class="st10_savings-1-51" d="M396.2,259.6c-14.3,0-26-7.1-26-15.7s11.7-15.7,26-15.7s26,7.1,26,15.7S410.5,259.6,396.2,259.6z&#10;&#9;&#9; M396.2,230.5c-13.1,0-23.7,6-23.7,13.4s10.6,13.4,23.7,13.4s23.7-6,23.7-13.4S409.2,230.5,396.2,230.5z"/>
	<ellipse class="st10_savings-1-51" cx="400.9" cy="238.5" rx="29.6" ry="17.3"/>
	<polygon class="st10_savings-1-51" points="371.3,238.5 371.3,233.5 374.5,237.5 &#9;"/>
	<polygon class="st10_savings-1-51" points="430.5,233.5 430.5,238.5 426.8,238.5 429.5,234.5 &#9;"/>
	<ellipse class="st11_savings-1-51" cx="400.9" cy="233.5" rx="29.6" ry="17.3"/>
	<path class="st10_savings-1-51" d="M415.9,231.2c0.2,0.4,0.3,0.9,0.2,1.3L416,233h-5.4c0-0.2,0.1-0.3,0.1-0.5c0-0.4-0.1-0.7-0.3-1&#10;&#9;&#9;c-0.3-0.5-0.8-0.9-1.3-1.2c-0.8-0.4-1.7-0.6-2.5-0.7c-0.8-0.1-1.6,0.1-2.4,0.4c-0.8,0.3-1,0.8-0.9,1.3c0.2,0.6,0.6,1.2,1.1,1.7&#10;&#9;&#9;c0.6,0.6,1.1,1.2,1.6,1.9c0.5,0.6,0.6,1.4,0.3,2.1c-0.6,1-1.5,1.7-2.6,2.1c-1.8,0.8-3.8,1.2-5.7,1.2c-2.1,0.1-4.2-0.2-6.3-0.9&#10;&#9;&#9;l-3.1,1.3L385,239l3-1.3c-0.5-0.4-1-0.8-1.5-1.3c-0.3-0.4-0.6-0.8-0.7-1.2c-0.1-0.3-0.2-0.7-0.2-1c0-0.2,0-0.5,0-0.7l0.1-0.2h5.4&#10;&#9;&#9;c0,0.1-0.1,0.3-0.1,0.6c0,0.4,0.2,0.9,0.4,1.2c0.4,0.7,1.1,1.2,1.8,1.5c1,0.5,2,0.8,3.1,0.8c1,0.1,2-0.1,2.9-0.5&#10;&#9;&#9;c0.8-0.3,1-0.8,0.9-1.3c-0.3-0.6-0.7-1.2-1.2-1.7c-0.6-0.6-1.1-1.2-1.6-1.9c-0.5-0.6-0.6-1.4-0.2-2.1c0.6-1,1.6-1.7,2.8-2.1&#10;&#9;&#9;c1.7-0.7,3.6-1.1,5.5-1.1c2-0.1,4,0.2,5.9,0.9l3.1-1.3l3.4,1.9l-3.1,1.3C415.2,230,415.6,230.6,415.9,231.2z"/>
	<path class="st10_savings-1-51" d="M401,249.4c-14.3,0-26-7-26-15.7s11.6-15.8,26-15.8s26,7.1,26,15.7S415.3,249.4,401,249.4z M401,220.3&#10;&#9;&#9;c-13.1,0-23.7,6-23.7,13.4s10.6,13.4,23.7,13.4s23.7-6,23.7-13.4S414,220.4,401,220.3L401,220.3z"/>
	<ellipse class="st10_savings-1-51" cx="404.1" cy="225.7" rx="29.6" ry="17.3"/>
	<polygon class="st10_savings-1-51" points="374.5,225.7 374.5,220.7 377.8,224.7 &#9;"/>
	<polygon class="st10_savings-1-51" points="433.7,220.7 433.7,225.7 430,225.7 432.7,221.7 &#9;"/>
	<ellipse class="st11_savings-1-51" cx="404.1" cy="220.7" rx="29.6" ry="17.3"/>
	<path class="st10_savings-1-51" d="M419.1,218.4c0.2,0.4,0.3,0.9,0.2,1.3l-0.1,0.5h-5.4c0-0.2,0.1-0.3,0.1-0.5c0-0.4-0.1-0.7-0.3-1&#10;&#9;&#9;c-0.3-0.5-0.8-0.9-1.3-1.2c-0.8-0.4-1.7-0.6-2.5-0.7c-0.8-0.1-1.6,0.1-2.4,0.4c-0.8,0.3-1,0.8-0.9,1.3c0.3,0.6,0.6,1.2,1.1,1.7&#10;&#9;&#9;c0.6,0.6,1.1,1.2,1.6,1.9c0.5,0.6,0.6,1.4,0.3,2.1c-0.6,1-1.5,1.7-2.6,2c-1.8,0.8-3.8,1.2-5.7,1.2c-2.1,0.1-4.2-0.2-6.3-0.9&#10;&#9;&#9;l-3.1,1.3l-3.6-1.8l3-1.3c-0.5-0.4-1-0.8-1.5-1.3c-0.3-0.4-0.5-0.8-0.7-1.2c-0.1-0.3-0.2-0.7-0.2-1c0-0.2,0-0.5,0.1-0.7l0.1-0.3&#10;&#9;&#9;h5.4c-0.1,0.2-0.1,0.4-0.1,0.5c0,0.4,0.2,0.9,0.4,1.2c0.4,0.7,1.1,1.2,1.8,1.5c1,0.5,2,0.8,3.1,0.8c1,0.1,2-0.1,2.9-0.5&#10;&#9;&#9;c0.8-0.3,1-0.7,0.9-1.3c-0.3-0.6-0.7-1.2-1.2-1.7c-0.6-0.6-1.1-1.2-1.6-1.9c-0.5-0.6-0.6-1.4-0.2-2.1c0.6-1,1.6-1.7,2.8-2.1&#10;&#9;&#9;c1.8-0.7,3.6-1.1,5.5-1.1c2-0.1,4,0.2,5.9,0.9l3.1-1.3l3.4,2l-3.1,1.3C418.4,217.2,418.9,217.8,419.1,218.4z"/>
	<path class="st10_savings-1-51" d="M404.2,236.6c-14.3,0-26-7.1-26-15.7s11.7-15.7,26-15.7s26,7,26,15.7S418.5,236.6,404.2,236.6z M404.2,207.5&#10;&#9;&#9;c-13.1,0-23.7,6-23.7,13.4s10.6,13.4,23.7,13.4s23.7-6,23.7-13.4S417.2,207.5,404.2,207.5z"/>
	<ellipse class="st10_savings-1-51" cx="396.1" cy="214.6" rx="29.6" ry="17.3"/>
	<polygon class="st10_savings-1-51" points="366.5,214.6 366.5,209.6 369.7,213.6 &#9;"/>
	<polygon class="st10_savings-1-51" points="425.7,209.6 425.7,214.6 421.9,214.6 424.7,210.6 &#9;"/>
	<ellipse class="st11_savings-1-51" cx="396.1" cy="209.6" rx="29.6" ry="17.3"/>
	<path class="st10_savings-1-51" d="M411.1,207.3c0.2,0.4,0.3,0.9,0.2,1.3l-0.1,0.5h-5.4c0.1-0.1,0.1-0.3,0.1-0.5c0-0.4-0.1-0.7-0.3-1&#10;&#9;&#9;c-0.3-0.5-0.8-0.9-1.3-1.2c-0.8-0.4-1.6-0.6-2.5-0.7c-0.8-0.1-1.7,0.1-2.4,0.4c-0.8,0.3-1,0.8-0.9,1.3c0.3,0.6,0.6,1.2,1.1,1.7&#10;&#9;&#9;c0.6,0.6,1.1,1.2,1.6,1.9c0.5,0.6,0.6,1.4,0.3,2.1c-0.6,1-1.5,1.7-2.6,2c-1.8,0.8-3.8,1.2-5.7,1.2c-2.1,0.1-4.2-0.2-6.3-0.9&#10;&#9;&#9;l-3.1,1.3l-3.6-1.7l3-1.3c-0.5-0.4-1-0.8-1.4-1.3c-0.3-0.4-0.6-0.8-0.7-1.2c-0.1-0.3-0.2-0.7-0.2-1c0-0.2,0-0.5,0-0.7l0.1-0.3h5.4&#10;&#9;&#9;c-0.1,0.2-0.1,0.4-0.1,0.6c0,0.4,0.2,0.9,0.4,1.2c0.4,0.7,1.1,1.2,1.8,1.5c1,0.5,2,0.8,3.1,0.8c1,0.1,2-0.1,2.9-0.5&#10;&#9;&#9;c0.7-0.3,1-0.7,0.8-1.3c-0.3-0.6-0.7-1.2-1.2-1.7c-0.6-0.6-1.2-1.2-1.7-1.9c-0.5-0.6-0.6-1.4-0.2-2.1c0.6-1,1.6-1.7,2.8-2.1&#10;&#9;&#9;c1.7-0.7,3.6-1.1,5.5-1.1c2-0.1,4,0.2,5.9,0.9l3.1-1.3l3.4,1.9l-3.1,1.3C410.4,206,410.8,206.6,411.1,207.3z"/>
	<path class="st10_savings-1-51" d="M396.2,225.5c-14.3,0-26-7.1-26-15.7s11.7-15.7,26-15.7s26,7,26,15.7S410.5,225.5,396.2,225.5z M396.2,196.4&#10;&#9;&#9;c-13.1,0-23.7,6-23.7,13.4s10.6,13.4,23.7,13.4s23.7-6,23.7-13.4S409.2,196.4,396.2,196.4z"/>
	<path class="st12_savings-1-51" d="M370.8,194.9c0,0,0.7,11.5-8.2,12.2c0,0,7.6,3.1,8.8,9.2c0,0,0.9-8.4,8.6-9.3&#10;&#9;&#9;C374.4,205.7,370.5,200.6,370.8,194.9z"/>
</g>
<g id="stairs_savings-1-51">
	<path class="st12_savings-1-51" d="M282,147.2l38.4,161.9c0.9,3.9-5.1,5.6-6,1.6L276,148.8C275.1,144.9,281.1,143.3,282,147.2z"/>
	<path class="st12_savings-1-51" d="M246.1,166.3l38.3,161.9c0.9,3.9-5.1,5.6-6,1.6L240.1,168C239.1,164.1,245.1,162.4,246.1,166.3L246.1,166.3z"/>
	<path class="st12_savings-1-51" d="M286,172.7l-36,20.1c-3.5,2-6.6-3.4-3.1-5.4l36-20.1C286.4,165.3,289.5,170.8,286,172.7L286,172.7z"/>
	<path class="st12_savings-1-51" d="M289.8,195.2l-34.5,19.3c-3.5,2-6.6-3.4-3.1-5.4l34.5-19.3C290.1,187.8,293.3,193.3,289.8,195.2z"/>
	<path class="st12_savings-1-51" d="M293.9,213.4l-34.4,19.2c-3.5,2-6.6-3.4-3.1-5.4l34.4-19.2C294.3,206.1,297.4,211.5,293.9,213.4L293.9,213.4z&#10;&#9;&#9;"/>
	<path class="st12_savings-1-51" d="M299.4,233.1l-34.1,19.1c-3.5,2-6.6-3.4-3.1-5.4l34.1-19.1C299.7,225.7,302.9,231.1,299.4,233.1z"/>
	<path class="st12_savings-1-51" d="M304,251l-34.2,19.1c-3.5,2-6.6-3.4-3.1-5.4l34.2-19.1C304.4,243.6,307.6,249,304,251L304,251z"/>
	<path class="st12_savings-1-51" d="M309.3,271.9l-36,20.1c-3.5,2-6.6-3.4-3.1-5.4l36-20.1C309.6,264.5,312.8,269.9,309.3,271.9z"/>
</g>
<g id="character_savings-1-51">
	<path class="st13_savings-1-51" d="M258.9,217.1c1.3-0.4,6.7-0.1,6.7-0.1s0.4-7.3,0.3-7.5h5.4c0,0,1.6,10.7,1.8,11.8c0.2,2-2.1,2.8-2.7,2.8&#10;&#9;&#9;c-0.1,0-0.5-0.1-1.2-0.4c0.1-1,0.1-2.1,0-3.1c-0.1-0.5-0.2-0.8-0.7-0.9c-0.9-0.2-2.3,0.4-3.2,0.6s-1.9,0.6-2.9,0.9&#10;&#9;&#9;c-2.3-0.9-4.3-1.9-4.5-2.3C257.5,218,257,217.8,258.9,217.1z"/>
	<path class="st14_savings-1-51" d="M257.1,217.7c0-0.1,0.1-0.1,0.1-0.2c0.4-0.5,1.5-0.5,2-0.6c2.1-0.2,4.3-0.2,6.4,0.1c0,0-5.1-0.2-5.2,0.8&#10;&#9;&#9;c-0.1,0.7,0.2,1.5,0.7,2c2.3,1.6,5.4-0.8,7.3-1.9l3.6-2l0.6,3.1c0,0,0.7,3.8,0.5,4.3s-2.4,1.9-2.9,1.7s-2.1-0.9-2.1-0.9l-0.1-3.8&#10;&#9;&#9;c0,0-3,1.7-4.5,1.5C262.4,221.6,256,219.6,257.1,217.7z"/>
	<path class="st15_savings-1-51" d="M275.4,201.7l0.4,8.4c-4.1,1.9-8.6,2.4-13,1.4c-0.9-4.8-2.6-14.4-2.4-17.6c0.2-4.4-0.7-8.9,5.1-11.8&#10;&#9;&#9;c4.5-2.2,18.1,3.1,18.1,3.1l10.3,17.5C280.8,208,275.4,201.7,275.4,201.7z"/>
	<path class="st13_savings-1-51" d="M301.8,263.6c0.8-0.4,2.1-0.8,2.6-1.6s0.3-2.1,0.3-3s-0.2-1.9-0.3-2.9c0.1-0.1,0.2-0.2,0.1-0.4&#10;&#9;&#9;c0-0.8-0.1-1.6-0.3-2.3l3.9-0.8c0,0,2.4,6.5,2.4,7.3s-3.2,6.3-5.1,6.8s-7.3-0.6-7.8-1.2c0,0,0,0,0-0.1&#10;&#9;&#9;C299,264.8,300.4,264.2,301.8,263.6z"/>
	<path class="st14_savings-1-51" d="M306.9,260.4c0,0-1.4,6.6-2.1,7.1s-8.8-1.2-7.8-2.8c0.6-1,5.4-1.5,5.8-1.7c0,0-2.4,1.1-2.4,1.5&#10;&#9;&#9;s3.3,1.5,3.5,1.2s3-6.3,3-6.3l3.1-1.5l3.3,5.6l-2.1,1.2c0,0-0.5,1.9-0.7,1.9c-0.9-1-1.7-2-2.4-3.1c-0.1,0.8-0.2,1.6-0.5,2.4&#10;&#9;&#9;c-0.3,0.3-2.7,2.7-4,1.2l1.9-2.7"/>
	<path class="st15_savings-1-51" d="M284.4,198.6c-2.5-8.2-2.6-6.7-4.2-13.5l16.4-4.3c8.4,12.5,16.1,73.1,16.1,73.1s-8.1,6.5-15.1,4.5l-9.5-50&#10;&#9;&#9;C286.8,205,286.7,204.4,284.4,198.6z"/>
	<path class="st16_savings-1-51" d="M287,205.5c0,0,4.4-0.7,6.9-2.7l0.9,37.5L287,205.5z"/>
	<path class="st13_savings-1-51" d="M288.2,159.4c0,0,9.1-20.5,10.1-21.8s-1.2-8,0.2-7.9s3.1,3.4,3.1,3.4s6.2-4.5,8.5-3.1s-7,10.7-7,10.7&#10;&#9;&#9;l-7.6,25.4"/>
	<path class="st13_savings-1-51" d="M272.3,155.3c0,0-20.7-8.6-22.3-8.8s-4.6-6.6-5.6-5.6s0.1,4.6,0.1,4.6s-7.6,1-8.3,3.6s12.5,3,12.5,3l23,13.1"/>
	<polyline class="st11_savings-1-51" points="287.9,153.1 294.8,147 299.4,161.9 293.6,170.3 &#9;"/>
	<path class="st11_savings-1-51" d="M277.2,156.7h0.6c3.3,0,6.9-4.5,6.9-4.5s1.2-10.3,7-2c4.4,6.2,5.5,23.7,5.8,32.2c-2.3,1.7-5.4,2.3-8.3,2.6&#10;&#9;&#9;c-1.9,0.2-3.8,0.3-5.7,0.3c-1.2-0.1-2.3-0.4-3.4-0.9l-2.5-13.7C277.8,166,277.6,161.4,277.2,156.7z"/>
	<path class="st13_savings-1-51" d="M280.6,141c0,0-5.6,7.9-1.6,10.9s8-0.5,8.5-1.4S289.1,141.6,280.6,141z"/>
	<path class="st14_savings-1-51" d="M280.5,139.7c2.5-1.3,5.2-1,7.8,0c2.2,0.7,4.1,2.1,5.5,3.9c0.6-0.3,1.3-0.4,2-0.4c1.7,0.1,3.2,1.3,3.6,3&#10;&#9;&#9;c0.3,1.6-0.5,3.1-1.9,3.8c-1.1,0.4-2.3,0.3-3.3-0.2c0,0.1,0,0.1,0,0.2c-0.4,1.6,1,2.6,1.4,4c0.2,0.7,0.2,1.4,0,2s-1,1.3-1.1,2&#10;&#9;&#9;c0,0.5,0.2,1.1,0.5,1.5c0.2,0.5,0.4,1,0.6,1.6c-3.4,1.3-7.4,0.7-10.8-0.5c-3.7-1.2-6.9-3.6-9.2-6.8c0.2-0.3,0.5-0.6,0.8-0.8&#10;&#9;&#9;c0.6-0.3,1.3-0.6,2-0.7c1-0.4,0.3-2.2,0.4-3.1c0.3-1.5,1.5-2,2.8-2.4c1-0.2,1.1-0.8,1.2-1.7c0.2-0.7,0.1-1.5-0.1-2.2&#10;&#9;&#9;c-0.3,0-0.6-0.1-0.8-0.3c-0.4-0.3-0.9-0.6-1.4-0.9c-0.5-0.3-0.7-0.9-0.5-1.4C279.9,140.1,280.2,139.8,280.5,139.7z"/>
	<path class="st14_savings-1-51" d="M283.4,143.6c-1.4-0.5-2.7-1.2-3.9-2c0-0.1,0.3-5.5,9.5-2.3s3,13.7,3,13.7"/>
	<path class="st11_savings-1-51" d="M281.3,152.9c0,0-14-1.9-17.2-1.5l-0.9,10.6l18,10.6"/>
</g>
</svg>