<svg id="_0018_search_engine" xmlns="http://www.w3.org/2000/svg" xmlns:xlink="http://www.w3.org/1999/xlink" viewBox="0 0 500 500" data-imageid="search-engine-46" imageName="Search Engine" class="illustrations_image" style="width: 166px;"><defs><style>.cls-1_search-engine-46{stroke:#fff;stroke-miterlimit:10;stroke-width:.57px;}.cls-1_search-engine-46,.cls-2_search-engine-46{fill:none;}.cls-3_search-engine-46{fill:url(#linear-gradient);}.cls-3_search-engine-46,.cls-4_search-engine-46,.cls-5_search-engine-46,.cls-6_search-engine-46,.cls-7_search-engine-46,.cls-8_search-engine-46,.cls-9_search-engine-46,.cls-10_search-engine-46,.cls-11_search-engine-46,.cls-12_search-engine-46,.cls-13_search-engine-46,.cls-14_search-engine-46{stroke-width:0px;}.cls-4_search-engine-46{opacity:.18;}.cls-4_search-engine-46,.cls-8_search-engine-46,.cls-9_search-engine-46{isolation:isolate;}.cls-4_search-engine-46,.cls-8_search-engine-46,.cls-14_search-engine-46{fill:#68e1fd;}.cls-2_search-engine-46{stroke:#3f3d56;stroke-miterlimit:10;stroke-width:1.56px;}.cls-5_search-engine-46{fill:url(#linear-gradient-4-search-engine-46);}.cls-6_search-engine-46{fill:url(#linear-gradient-2-search-engine-46);}.cls-7_search-engine-46{fill:url(#linear-gradient-3-search-engine-46);}.cls-8_search-engine-46{opacity:.27;}.cls-9_search-engine-46{opacity:.24;}.cls-9_search-engine-46,.cls-12_search-engine-46{fill:#fff;}.cls-10_search-engine-46{fill:#091240;}.cls-11_search-engine-46{fill:#231f20;}.cls-13_search-engine-46{fill:#ffaa71;}</style><linearGradient id="linear-gradient-search-engine-46" x1="-303.26" y1="-840.24" x2="-305.02" y2="-764.65" gradientTransform="translate(409.01 940.5)" gradientUnits="userSpaceOnUse"><stop offset="0" stop-color="#231f20" stop-opacity="0"/><stop offset="1" stop-color="#231f20"/></linearGradient><linearGradient id="linear-gradient-2-search-engine-46" x1="-293.71" y1="-840.02" x2="-295.46" y2="-764.43" xlink:href="#linear-gradient-search-engine-46"/><linearGradient id="linear-gradient-3-search-engine-46" x1="-284.16" y1="-839.8" x2="-285.91" y2="-764.21" xlink:href="#linear-gradient-search-engine-46"/><linearGradient id="linear-gradient-4-search-engine-46" x1="-277.12" y1="-599.02" x2="-215.15" y2="-707.12" xlink:href="#linear-gradient-search-engine-46"/></defs><g id="background_search-engine-46"><path class="cls-8_search-engine-46 targetColor" d="M458.93,367.76c-6.05,8.77-12.76,15.14-20.02,18.37-57.22,25.45-73.91-39.8-222.31,12.7-11.52,4.11-23.26,7.57-35.17,10.36-84.21,19.39-121.85-14.17-133.66-41.43-4.8-11.07-5.35-21.07-3.02-26.14,8.79-19.04.78-50.09-15.94-139.06-16.72-88.97,57.22-118.49,114.72-132.47,36.85-8.95,54.8-21.25,62.94-28.93,9.46-9.04,20.63-16.09,32.86-20.74,82.73-30.87,122.9-3.12,172.21,36.23,10.89,8.65,22.23,17.95,34.52,27.21,64.55,48.71,54.55,223.44,12.87,283.9Z" style="fill: rgb(104, 225, 253);"/><path class="cls-4_search-engine-46 targetColor" d="M458.93,367.76c-6.05,8.77-12.76,15.14-20.02,18.37-57.22,25.45-73.91-39.8-222.31,12.7-109.17,38.58-155.48-.28-168.83-31.07h411.16Z" style="fill: rgb(104, 225, 253);"/></g><g id="windows_search-engine-46"><path class="cls-12_search-engine-46" d="M446.07,121.21v213.35c0,8.65-7.02,15.67-15.67,15.67H106.52c-8.65.03-15.68-6.96-15.72-15.61V121.21c0-8.65,7.02-15.67,15.67-15.67h323.92c8.65,0,15.67,7.01,15.68,15.66h0s0,0,0,0Z"/><path class="cls-14_search-engine-46 targetColor" d="M371.2,228.27h-237.45v-21h237.45v21ZM134.53,227.49h235.89v-19.44h-235.89v19.44Z" style="fill: rgb(104, 225, 253);"/><rect class="cls-14_search-engine-46 targetColor" x="371.2" y="207.28" width="31.3" height="20.99" style="fill: rgb(104, 225, 253);"/><circle class="cls-1_search-engine-46" cx="385.17" cy="216.68" r="5.31"/><rect class="cls-12_search-engine-46" x="391.01" y="218.55" width="1.68" height="6.91" transform="translate(-20.93 402.14) rotate(-53.11)"/><path class="cls-14_search-engine-46 targetColor" d="M446.07,121.21v5.17H90.8v-5.17c0-8.66,7.02-15.67,15.68-15.67h323.92c8.65,0,15.67,7.01,15.68,15.66h0s0,0,0,0Z" style="fill: rgb(104, 225, 253);"/><path class="cls-3_search-engine-46" d="M108.68,117.08c0,1.84-1.49,3.32-3.32,3.32s-3.32-1.49-3.32-3.32c0-1.84,1.49-3.32,3.32-3.32h0c1.83,0,3.32,1.48,3.32,3.31h0v.02Z"/><path class="cls-6_search-engine-46" d="M118.24,117.08c0,1.84-1.49,3.32-3.32,3.32s-3.32-1.49-3.32-3.32c0-1.84,1.49-3.32,3.32-3.32h0c1.83,0,3.32,1.48,3.32,3.31h0v.02Z"/><path class="cls-7_search-engine-46" d="M127.8,117.08c0,1.84-1.49,3.32-3.32,3.32s-3.32-1.49-3.32-3.32c0-1.84,1.49-3.32,3.32-3.32h0c1.83,0,3.32,1.48,3.32,3.31h0v.02Z"/><path class="cls-14_search-engine-46 targetColor" d="M230.2,181.39h-2.45v-.78c.02-.23,0-.45-.09-.66-.07-.1-.19-.16-.31-.14-.15,0-.28.06-.36.19-.09.18-.13.38-.12.59-.01.27.03.53.13.78.21.27.47.48.78.62.83.42,1.58,1,2.19,1.69.35.66.51,1.4.45,2.15.03.53-.05,1.06-.25,1.56-.22.39-.56.69-.97.86-.53.23-1.1.35-1.68.34-.62.02-1.23-.12-1.79-.4-.44-.21-.78-.57-.98-1.01-.17-.56-.25-1.15-.23-1.74v-.66h2.43v1.22c-.02.25.01.5.1.73.08.12.22.18.36.16.16,0,.31-.07.39-.2.1-.19.14-.4.12-.61.05-.4-.04-.81-.24-1.16-.37-.34-.78-.65-1.22-.91-.45-.28-.88-.59-1.29-.94-.23-.22-.41-.48-.53-.78-.3-.98-.27-2.04.09-3,.22-.37.55-.67.95-.84.49-.2,1.03-.31,1.56-.3.59-.02,1.19.1,1.73.33.41.15.74.45.95.83.19.54.27,1.12.23,1.69l.02.41Z" style="fill: rgb(104, 225, 253);"/><path class="cls-14_search-engine-46 targetColor" d="M237.95,178.35h4.35v2.01h-1.74v1.9h1.63v1.91h-1.63v2.21h1.91v2.01h-4.53v-10.04Z" style="fill: rgb(104, 225, 253);"/><path class="cls-14_search-engine-46 targetColor" d="M254.47,178.35l1.49,10.04h-2.67l-.14-1.81h-.94l-.16,1.81h-2.7l1.33-10.04h3.78ZM253.08,184.81c-.14-1.14-.27-2.54-.4-4.21-.27,1.92-.43,3.32-.5,4.21h.9Z" style="fill: rgb(104, 225, 253);"/><path class="cls-14_search-engine-46 targetColor" d="M263.12,178.35h1.85c.83-.02,1.67.02,2.5.14.44.09.82.35,1.07.73.32.57.46,1.22.41,1.87.05.54-.05,1.08-.29,1.56-.29.31-.7.49-1.12.5.39.06.76.24,1.05.52.15.17.27.37.34.59.06.49.08.99.06,1.48v2.65h-2.46v-3.34c.03-.34,0-.68-.12-1-.09-.12-.31-.2-.67-.2v4.53h-2.61v-10.04ZM265.73,180.07v2.23c.21.02.42-.02.62-.12.12-.09.18-.34.18-.78v-.59c.04-.22-.03-.45-.17-.62-.19-.11-.41-.15-.62-.12Z" style="fill: rgb(104, 225, 253);"/><path class="cls-14_search-engine-46 targetColor" d="M282.78,182.72h-2.61v-1.75c.02-.32,0-.64-.09-.94-.07-.13-.22-.21-.37-.19-.17-.02-.34.07-.41.23-.07.33-.1.66-.09.99v4.68c-.03.32-.01.64.05.96.07.15.22.24.39.23.17.02.33-.07.39-.23.09-.34.12-.7.09-1.05v-1.29h2.61v.39c.03.74-.04,1.49-.23,2.21-.17.48-.49.88-.92,1.15-.56.34-1.21.51-1.87.49-.66.03-1.31-.12-1.89-.42-.47-.24-.82-.65-.98-1.15-.19-.72-.27-1.46-.24-2.21v-2.93c0-.54.02-1.09.07-1.63.06-.38.21-.74.44-1.05.27-.35.62-.62,1.02-.78,1.11-.43,2.35-.38,3.41.16.45.24.8.63.98,1.11.19.67.27,1.38.24,2.08l-.02.95Z" style="fill: rgb(104, 225, 253);"/><path class="cls-14_search-engine-46 targetColor" d="M296.43,178.35v10.04h-2.61v-4.22h-.78v4.22h-2.61v-10.04h2.61v3.59h.78v-3.59h2.61Z" style="fill: rgb(104, 225, 253);"/></g><g id="character_search-engine-46"><path class="cls-4_search-engine-46 targetColor" d="M69.66,458.52c-19.46,9.42,39.8,14.91,61.35,13.53l94.6-6.04c4.09-.26,14.95-.37,11.76-2.97-16.3-13.27-142.03-16.97-167.71-4.53Z" style="fill: rgb(104, 225, 253);"/><path class="cls-11_search-engine-46" d="M150.32,408.35c-.65,4.18-24.86,48.21-24.86,48.21,7.08,1.28,9.65,6.43,9.65,6.43h-21.93l17.35-54.63s.78-26.11-3.77-40.26c-3-9.44-2.82-20.37-2.34-26.61.23-3.12.52-5.06.52-5.06l32.36,14.63s-6.33,53.13-6.98,57.29Z"/><path class="cls-11_search-engine-46" d="M189.79,463.01h-22.22v-.12l-4.01-57.42s-18.78-22.88-29.7-39.58c-10.93-16.69-9.05-27.72-9.05-27.72h29.89c1.51.61,3.56,6.54,4.88,9.51,5.56,12.61,18.19,38.7,19.3,43.7,3.55,15.8-1.3,63.3-1.3,63.3,6.76.6,12.22,8.32,12.22,8.32Z"/><path class="cls-14_search-engine-46 targetColor" d="M131.91,310.92l-7.27,13.03c-.97-.68-1.89-1.43-2.75-2.24-5.66-5.21-17.17-19.45-6.06-41.98,0,0,5.11-13.93,7.98-19.89.37-.95.9-1.83,1.56-2.61,1.7-1.18,6.53,53.69,6.53,53.69Z" style="fill: rgb(104, 225, 253);"/><ellipse class="cls-2_search-engine-46" cx="156.64" cy="221.75" rx="7.45" ry="14.75" transform="translate(-98.59 129.19) rotate(-34.83)"/><polygon class="cls-11_search-engine-46" points="164.15 234.56 168.63 240.76 170.99 238.99 166.45 233.19 164.15 234.56"/><rect class="cls-10_search-engine-46" x="170.83" y="233.34" width="4.41" height="20.38" transform="translate(-116.1 168.35) rotate(-40.03)"/><path class="cls-13_search-engine-46" d="M149.37,211.92s2.04,4.68,3.75,9.67c.45,1.29,2.99,2.11,3.36,3.36.72,2.48-1.19,3.26-1.28,4.68-.32,4.82,1.44,10.08-6.67,13.03-7.2,2.61-4.29,14.36-4.29,14.36,0,0-9.22,4.07-13.27-1.07,0,0,1.51-15.44-4.92-28.73-6.43-13.29,11-27.95,23.33-15.3Z"/><path class="cls-11_search-engine-46" d="M129.83,253.74l.78-3.81s12.76.7,14.05,1.9c.87.89,1.6,1.91,2.15,3.03l-16.97-1.12Z"/><path class="cls-14_search-engine-46 targetColor" d="M154.69,338.5h-27.08c-4.21-.13-5.96-.89-5.85-5.05.2-7.59,0-59.99,2.04-71.8,1.24-7.27,6.57-8.67,7.75-8.9h.22s8.07.69,11.42.65c3.57-.05,7.93,5.17,7.93,5.17,0,0,2.78,10.76,5.26,19.92,1.21,4.48,2.34,8.58,3.06,10.84,1.5,4.78,3.21,26.83,4.11,39.73.32,4.88-3.38,9.09-8.26,9.42h0l-.59.02Z" style="fill: rgb(104, 225, 253);"/><path class="cls-5_search-engine-46" d="M154.69,338.5h-7.8l-3.12-63.51,12.6,3.47c1.21,4.48,2.34,8.58,3.06,10.84,1.5,4.78,3.21,26.83,4.11,39.73.34,4.87-3.33,9.11-8.2,9.45h0l-.65.02Z"/><path class="cls-11_search-engine-46" d="M149.37,211.92l-3.02-.33c-.11,1.93-1.11,3.7-2.7,4.8-.38-.61-.92-1.09-1.56-1.4-1.11,1.29.19,3.2.21,4.89-.06.8-.22,1.59-.48,2.34-.45,1.69-.53,3.46-.23,5.18-1.14-.09-1.68-1.62-2.79-1.84-1.11-.23-1.85.78-2.12,1.74-.56,2.4.92,4.79,3.32,5.36h.16c.26.04.56.08.7.3.08.15.1.33.08.5-.03,2.18-.41,4.33-1.14,6.38-.75,2.07-2.27,3.76-4.24,4.73-1.37.6-3.28.55-4.03-.78.12.69-.73,1.25-1.42,1.1-.67-.23-1.22-.69-1.56-1.31-2.19-3.18-2.75-7.16-4.03-10.8-1.12-3.18-2.8-6.14-4.1-9.26-1.3-3.12-2.23-6.52-1.72-9.85.83-4.93,4.58-8.86,9.46-9.93.9-.12,1.77-.33,2.62-.64.73-.42,1.44-.88,2.12-1.37,1.46-.71,3.06-1.11,4.68-1.17,1.69-.12,3.39-.09,5.08.1,6.24.48,6,6.42,6.45,7.7.03.33.6,3.61.26,3.57Z"/><path class="cls-13_search-engine-46" d="M170.11,235.58c.03-.6.18-1.19.43-1.73.26-.55.83-.9,1.44-.89.78.09,1.22.84,1.56,1.51.5.95.99,1.9,1.48,2.86,1.13-.52,2.42.38,3.12,1.42s1.1,2.29,2.09,3.04c.31.19.59.42.83.69.24.46.32.98.23,1.49l-.16,2.01c-.1,1.31-.27,2.75-1.22,3.68-.9.7-1.99,1.11-3.12,1.17-.99.2-2,.24-3,.12-1.37-.36-2.63-1.05-3.67-2.02-1.51-1.22-5.62-5.2-2.93-6.78,1.05-.62,1.62.09,2.34-1.12s.46-4.07.57-5.44Z"/><path class="cls-14_search-engine-46 targetColor" d="M180.62,278.26c-2.12,9.37-8.73,14.83-15.38,15.98-3.01.57-6.13.13-8.87-1.24-8.43-4.35-17.43-27.25-16.97-34.49.22-3.47,1.7-5.08,3.76-5.12,2.25-.05,5.19,1.78,7.93,5.15,2.74,3.37,4.99,7.91,7.27,11.28.79,1.26,1.76,2.41,2.86,3.42.66.6,1.47,1.01,2.34,1.19,1.18.13,2.37-.25,3.25-1.04,6.24-4.83,3.73-23.75,3.73-23.75l3.22-.19,6.6-.39s3.35,15.44.25,29.2Z" style="fill: rgb(104, 225, 253);"/><path class="cls-9_search-engine-46" d="M126.65,337.26c.36.37.69.78.98,1.2-4.21-.12-5.96-.88-5.85-5.04.2-7.59,0-59.99,2.04-71.8,1.24-7.27,6.57-8.67,7.75-8.9h.2c-2.71,3.35-4.47,7.37-5.1,11.63-.92,6.85-2.19,70.63-.02,72.91Z"/><path class="cls-9_search-engine-46" d="M165.24,294.24c-3.01.57-6.13.13-8.87-1.24-8.43-4.35-17.43-27.25-16.97-34.49.22-3.47,1.7-5.08,3.76-5.12,0,.78-3.38,9.24,6.8,27.22,6.87,12.14,13.48,12.65,15.28,13.63Z"/><path class="cls-12_search-engine-46" d="M161.22,273.24c-1.26-.84-2.25-2.03-2.86-3.42.79,1.26,1.76,2.41,2.86,3.42Z"/><path class="cls-9_search-engine-46" d="M163.57,274.46c1.18.13,2.37-.25,3.25-1.04,6.24-4.83,3.73-23.75,3.73-23.75l3.22-.19s3.17,29.92-10.21,24.97Z"/><path class="cls-9_search-engine-46" d="M114.36,298.66c-1.62,10.3,7.56,19.57,7.56,19.57v3.49c-5.66-5.21-17.17-19.45-6.06-41.98,0,0,5.11-13.93,7.98-19.89v1.78s-7.86,26.75-9.49,37.03Z"/><path class="cls-9_search-engine-46" d="M168.59,463.01c.03.82.15,1.63.34,2.42l-1.29-2.42-.06-.12-4.01-57.42s-18.78-22.88-29.7-39.58c-10.93-16.69-9.05-27.72-9.05-27.72h2.18c.23.08.45.18.66.29,0,0,2.16,19.72,36.06,62.12,0,0,6.68,6.15,5.14,29.46-1.39,20.69-.57,29.38-.27,32.97Z"/><path class="cls-9_search-engine-46" d="M133.94,410.54l-18.07,52.48h-2.68l17.35-54.63s.78-26.11-3.77-40.26c-3-9.44-2.82-20.37-2.34-26.61l3.23,12.49c.59,6.87,1.97,13.65,4.1,20.21,3.39,9.94,2.19,36.33,2.19,36.33Z"/></g></svg>