<svg version="1.1" id="Layer_1" xmlns="http://www.w3.org/2000/svg" xmlns:xlink="http://www.w3.org/1999/xlink" x="0px" y="0px" viewBox="0 0 500 500" style="width: 166px;" xml:space="preserve" data-imageid="seattle-89" imageName="Seattle" class="illustrations_image">
<style type="text/css">
	.st0_seattle-89{fill:#398DE7;}
	.st1_seattle-89{fill:#006D29;}
	.st2_seattle-89{opacity:0.41;fill:url(#SVGID_1_);enable-background:new    ;}
	.st3_seattle-89{fill:#873230;}
	.st4_seattle-89{fill:#5FC963;}
	.st5_seattle-89{opacity:0.33;fill:#1E4549;enable-background:new    ;}
	.st6_seattle-89{fill:#F9B176;}
	.st7_seattle-89{fill:#C8BEBC;}
	.st8_seattle-89{opacity:0.3;fill:#FFFFFF;enable-background:new    ;}
	.st9_seattle-89{opacity:0.5;fill:#1E4549;enable-background:new    ;}
	.st10_seattle-89{fill:#FFFFFF;}
	.st11_seattle-89{fill:#1E4549;}
	.st12_seattle-89{fill:#CCCCCC;}
	.st13_seattle-89{opacity:0.68;fill:url(#SVGID_00000042718003868574976250000008420252642133879231_);enable-background:new    ;}
	.st14_seattle-89{opacity:0.68;fill:url(#SVGID_00000016064703512781818860000005791289198883302075_);enable-background:new    ;}
	.st15_seattle-89{opacity:0.68;fill:url(#SVGID_00000116927080317452283010000015494206433425771439_);enable-background:new    ;}
	.st16_seattle-89{opacity:0.68;fill:url(#SVGID_00000086649938191305984080000016147358011694235533_);enable-background:new    ;}
	.st17_seattle-89{fill:#68E1FD;}
	.st18_seattle-89{opacity:0.41;fill:url(#SVGID_00000021806540584255643560000008840838120913610926_);enable-background:new    ;}
	.st19_seattle-89{opacity:0.41;fill:url(#SVGID_00000181768750576374275190000003503029057688303262_);enable-background:new    ;}
	.st20_seattle-89{opacity:0.41;fill:url(#SVGID_00000088120519511962348400000000982865437613748155_);enable-background:new    ;}
	.st21_seattle-89{opacity:0.68;fill:url(#SVGID_00000141454188708226108510000004981936349966510522_);enable-background:new    ;}
	.st22_seattle-89{opacity:0.68;fill:url(#SVGID_00000082369544609449826930000017811291582864951729_);enable-background:new    ;}
	.st23_seattle-89{opacity:0.68;fill:url(#SVGID_00000069394525465164303150000003061584850069511824_);enable-background:new    ;}
	.st24_seattle-89{opacity:0.4;fill:#1E4549;enable-background:new    ;}
	.st25_seattle-89{opacity:0.68;fill:url(#SVGID_00000044179426939273591630000001501825202323530667_);enable-background:new    ;}
	.st26_seattle-89{opacity:0.68;fill:url(#SVGID_00000103259329360607754140000005208119482887869358_);enable-background:new    ;}
	.st27_seattle-89{opacity:0.68;fill:url(#SVGID_00000091729443015361077680000008735085039118257080_);enable-background:new    ;}
	.st28_seattle-89{opacity:0.68;fill:url(#SVGID_00000009561799934092399460000003530713919234959499_);enable-background:new    ;}
	.st29_seattle-89{opacity:0.68;fill:url(#SVGID_00000174582639290617977650000014090475001585431218_);enable-background:new    ;}
	.st30_seattle-89{opacity:0.68;fill:url(#SVGID_00000116213016049503352180000018029602500477441702_);enable-background:new    ;}
	.st31_seattle-89{opacity:0.6;fill:#1E4549;enable-background:new    ;}
	.st32_seattle-89{opacity:0.6;}
	.st33_seattle-89{opacity:0.5;}
</style>
<g id="background_seattle-89">
	<path class="st0_seattle-89" d="M24.3,239.9c1.1-0.6,14.7-71.2,38.6-76.9c15.6-3.6,22.1,21.4,42,9.3s19.8-27.6,32.4-23.9s8.6,18.4,24.6-1.5&#10;&#9;&#9;s28.5-37,52-33.4s35.3,2.1,35.3,2.1L24.3,239.9z"/>
	<path class="st1_seattle-89" d="M262.1,331.9c30.4-14,65.7-16.2,81.4-60.7s45.4-74.3,45.4-74.3l-139.8-81.2c-3.4-2-8.5-0.6-11.8,1.4L15,245.2&#10;&#9;&#9;c-6.9,4.3-0.9,10.8,6.2,14.8l205.3,121.3l0,0C226.5,381.3,231.7,345.8,262.1,331.9z"/>
	
		<linearGradient id="SVGID_1_-seattle-89" gradientUnits="userSpaceOnUse" x1="188.1216" y1="347.7285" x2="190.7616" y2="350.5385" gradientTransform="matrix(1 0 0 -1 0 502)">
		<stop offset="0" style="stop-color:#873230;stop-opacity:0"/>
		<stop offset="1" style="stop-color:#873230"/>
	</linearGradient>
	<path class="st2_seattle-89" d="M186.1,153.7c0.3-0.1,0.6,0,0.7,0.1c-0.2,2.2,1.4,1.1,2.1,1.7l0.6-0.2c1.2-1.2,2.4-2.4,3.7-3.6&#10;&#9;&#9;c-0.4-0.3-0.8-0.6-1.2-0.9C189.9,151.5,188,152.5,186.1,153.7z"/>
	<path class="st3_seattle-89" d="M193.4,151.6v-11H191v11.1C191.8,152,192.6,151.9,193.4,151.6z"/>
	<path class="st3_seattle-89" d="M192.4,140.6v11.3c0.3,0,0.7-0.1,1-0.3v-11H192.4z"/>
	<path class="st4_seattle-89" d="M195,135.3c-0.2-0.3-0.1-0.7,0.2-0.9c0,0,0.1-0.1,0.2-0.1c0.4-0.1,0.9-0.1,1.3-0.1c0.1-0.1,0.1-0.2,0.1-0.2&#10;&#9;&#9;c0-0.1-0.1-0.4-0.3-0.7s-0.5-0.6-0.7-0.9c-1.2-1.3-2.5-2.4-3.6-3.8c-1.6,1.6-3.3,3.1-5,4.6c-0.1,0.1-0.1,0.3-0.2,0.4&#10;&#9;&#9;c0.7,0.1,1.5,0.3,2.1,0.6c0.3,0.2,0.4,0.6,0.2,0.9c-0.6,0.9-1.2,1.8-1.9,2.6c-0.6,0.8-1.2,1.6-1.7,2.4c1.3,0.1,4,0.1,3.3,1.8&#10;&#9;&#9;c-0.5,0.8-1.1,1.6-1.8,2.2c-0.7,1-1.4,2-1.9,3l0,0c0.3,0.6,1.4,0.8,2.1,0.9c1.4,0.3,2.8,0.4,4.3,0.4c1.4,0,2.9-0.2,4.2-0.6&#10;&#9;&#9;c0.7-0.2,1.4-0.6,2-1.1c-1.2-1.6-2.3-3.3-3.1-5.1c-0.1-0.3,0.1-0.7,0.4-0.8c1.1-0.3,2.2-0.6,3.3-0.9c0,0,0-0.1,0-0.1&#10;&#9;&#9;c-0.5-0.7-1.2-1.4-1.8-2.1S195.6,136.1,195,135.3z"/>
	<path class="st5_seattle-89" d="M195,135.3c-0.2-0.3-0.1-0.7,0.2-0.9c0,0,0.1-0.1,0.2-0.1c0.4-0.1,0.9-0.1,1.3-0.1c0.1-0.1,0.1-0.2,0.1-0.2&#10;&#9;&#9;c0-0.1-0.1-0.4-0.3-0.7s-0.5-0.6-0.7-0.9c-1.2-1.3-2.5-2.4-3.6-3.8c-1.6,1.6-3.3,3.1-5,4.6c-0.1,0.1-0.1,0.3-0.2,0.4&#10;&#9;&#9;c0.7,0.1,1.5,0.3,2.1,0.6c0.3,0.2,0.4,0.6,0.2,0.9c-0.6,0.9-1.2,1.8-1.9,2.6c-0.6,0.8-1.2,1.6-1.7,2.4c1.3,0.1,4,0.1,3.3,1.8&#10;&#9;&#9;c-0.5,0.8-1.1,1.6-1.8,2.2c-0.7,1-1.4,2-1.9,3l0,0c0.3,0.6,1.4,0.8,2.1,0.9c1.4,0.3,2.8,0.4,4.3,0.4c1.4,0,2.9-0.2,4.2-0.6&#10;&#9;&#9;c0.7-0.2,1.4-0.6,2-1.1c-1.2-1.6-2.3-3.3-3.1-5.1c-0.1-0.3,0.1-0.7,0.4-0.8c1.1-0.3,2.2-0.6,3.3-0.9c0,0,0-0.1,0-0.1&#10;&#9;&#9;c-0.5-0.7-1.2-1.4-1.8-2.1S195.6,136.1,195,135.3z"/>
	<path class="st0_seattle-89" d="M271.9,390.6l210.9-120.4c7-4.1,5.8-15.5-1.3-19.6l-92.7-53.8c0,0-29.7,29.9-45.4,74.3s-51,46.8-81.4,60.7&#10;&#9;&#9;s-35.6,49.5-35.6,49.5l0,0l16.2,9.6C251.8,396,262.9,395.9,271.9,390.6z"/>
	<path class="st6_seattle-89" d="M346.2,231.3c-5.8,9.9-9.2,18.7-14.9,28.6c-4.2,7.4-7.9,18.6-14,24.4c-12.5,11.9-29.5,15.1-45.1,21.3&#10;&#9;&#9;c-14.5,5.8-29.1,12.9-40,24.5c-11.4,12-16.6,27.6-18.3,43.7l12.7,7.5c0,0,5.2-35.5,35.6-49.5s65.7-16.2,81.4-60.7&#10;&#9;&#9;s45.4-74.3,45.4-74.3l-12.1-7C367.2,204.3,355,216.3,346.2,231.3z"/>
	<path class="st7_seattle-89" d="M344.7,171.1l-51.5,29.7L172,270.7c-22.9,13.2-50.1,35.2-76.8,14.9c-6.1-4.6-9.3-13.3-8.3-20.9&#10;&#9;&#9;c1.6-11.9,17.8-17.8,27.7-23.2c17.2-9.4,34.1-19.4,51.2-29l81-45.9l53.5-30.3c-7.6-4.6-15.3-9.2-23.3-13.1c0,0,0,0-0.1-0.1&#10;&#9;&#9;L75.1,239.3c-23.8,17.8-17.6,42.2-17.6,42.2l47.3,27.9l33.2,19.6l238.8-139.2C369.1,185.6,334.4,165.1,344.7,171.1z"/>
	<path class="st7_seattle-89" d="M163,159.8c-6.8,3.6-13.4,7.4-20.2,10.9l45.2,26l19.4-11.5L163,159.8z"/>
	<path class="st7_seattle-89" d="M78.8,208.6c-6.6,3.5-13,7.5-19.5,11.3l38.8,22.4l19.4-11.5L78.8,208.6z"/>
	<path class="st7_seattle-89" d="M158.7,213.2c-6.2,3.8-12.4,7.8-18.4,11.8l63.2,36.4l19.4-11.5L158.7,213.2z"/>
	<path class="st8_seattle-89" d="M44.8,180.8c-0.8,1.5-2.8,5.5,1.5,3.4s7-14.2,8.7-8.9s-3.3,23.8,1.9,17s3.2-19.1,7.3-17s4.7,10.8,6.4,4&#10;&#9;&#9;s1.5-9.1,5.1-7.4s6.8-0.9,6.8-0.9S74,160.8,62,163C53,164.6,44.8,180.8,44.8,180.8z"/>
	<path class="st9_seattle-89" d="M411.7,224.7c1.9,1.7,3.6,3.6,5.1,5.7c-3.7,1-7.7,0.9-11.4-0.3c-5.5-2-18.8-10.2-19.2-10.3s-1.6-3.4-1.6-3.4"/>
	<path class="st10_seattle-89" d="M384.6,211.6c-0.1,0.2,0,4.9,0,4.9s7,5.2,10.8,7.4s9.4,4.5,18,5.2v-4.2c-2.4-3.1-5.2-5.9-8.2-8.4&#10;&#9;&#9;c0,0,0.6-1.2-0.4-1.7s-9.3-5.5-9.3-5.5l-5.9-3.1l-4.8,2.7c-0.6,0.4-0.9,1.1-0.6,1.8L384.6,211.6z"/>
	<path class="st11_seattle-89" d="M413.5,226.7c0,0-9.1-0.5-14.3-3.4s-14.6-8.9-14.6-8.9v2.2l9.1,6.4c0,0,6.8,5.4,19.7,6.3L413.5,226.7z"/>
	<polygon class="st12_seattle-89" points="405.3,216.6 405.3,220.4 399.2,223.3 384.6,214.3 384.3,210.7 398.2,219.7 &#9;"/>
	<polygon class="st3_seattle-89" points="396,218.9 396,220.7 394.7,220 394.7,218 &#9;"/>
	<polygon class="st3_seattle-89" points="394.2,217.9 394.2,219.7 392.9,218.9 392.9,217 &#9;"/>
	<polygon class="st3_seattle-89" points="391.3,215.9 391.3,217.7 390,216.9 390,215 &#9;"/>
	<polygon class="st3_seattle-89" points="389.6,214.9 389.6,216.7 388.3,215.9 388.3,214 &#9;"/>
	<path class="st11_seattle-89" d="M413.5,224.9c0,0-9.9-0.5-15.1-2.1l0,0c4.6,2.5,9.8,3.9,15.1,3.9V224.9z"/>
	<path class="st9_seattle-89" d="M401.9,239c1.9,1.7,3.6,3.6,5.1,5.7c-3.7,1-7.7,0.9-11.4-0.3c-5.5-2-18.8-10.1-19.2-10.3s-1.6-3.4-1.6-3.4"/>
	<path class="st10_seattle-89" d="M374.8,225.9c-0.1,0.2,0,4.9,0,4.9s7.1,5.2,10.8,7.4s9.4,4.5,18,5.2v-4.2c-2.4-3.1-5.1-5.9-8.2-8.4&#10;&#9;&#9;c0,0,0.5-1.2-0.4-1.7s-9.3-5.5-9.3-5.5l-5.9-3.1l-4.8,2.7c-0.6,0.4-0.9,1.1-0.6,1.8L374.8,225.9z"/>
	<path class="st11_seattle-89" d="M403.6,240.9c0,0-9.1-0.5-14.3-3.4s-14.6-8.9-14.6-8.9v2.2l9.1,6.4c0,0,6.8,5.4,19.7,6.3L403.6,240.9z"/>
	<polygon class="st12_seattle-89" points="395.4,230.9 395.4,234.7 389.4,237.5 374.8,228.6 374.5,225 388.3,234 &#9;"/>
	<polygon class="st3_seattle-89" points="386.1,233.2 386.1,235 384.9,234.2 384.9,232.3 &#9;"/>
	<polygon class="st3_seattle-89" points="384.4,232.2 384.4,234 383,233.2 383,231.3 &#9;"/>
	<polygon class="st3_seattle-89" points="381.5,230.2 381.5,232 380.1,231.2 380.1,229.3 &#9;"/>
	<polygon class="st3_seattle-89" points="379.8,229.2 379.8,230.9 378.5,230.2 378.5,228.3 &#9;"/>
	<path class="st11_seattle-89" d="M403.6,239.2c0,0-9.9-0.5-15.1-2.1l0,0c4.6,2.5,9.8,3.9,15.1,3.9V239.2z"/>
	<path class="st9_seattle-89" d="M376.3,268.5c1.9,1.7,3.6,3.6,5.1,5.7c-3.7,1-7.7,0.9-11.4-0.3c-5.5-2-18.8-10.2-19.2-10.3s-1.6-3.4-1.6-3.4"/>
	<path class="st10_seattle-89" d="M349.3,255.4c-0.1,0.2,0,4.9,0,4.9s7.1,5.2,10.8,7.4s9.4,4.5,18,5.2v-4.2c-2.4-3.1-5.1-5.9-8.2-8.4&#10;&#9;&#9;c0,0,0.5-1.2-0.4-1.7s-9.3-5.5-9.3-5.5l-5.9-3.2l-4.8,2.7c-0.6,0.4-0.9,1.1-0.6,1.8L349.3,255.4z"/>
	<path class="st11_seattle-89" d="M378.1,270.4c0,0-9.1-0.5-14.3-3.4s-14.6-8.9-14.6-8.9v2.2l9.1,6.4c0,0,6.8,5.4,19.7,6.3L378.1,270.4z"/>
	<polygon class="st12_seattle-89" points="369.9,260.3 369.9,264.2 363.9,267 349.2,258.1 349,254.5 362.8,263.4 &#9;"/>
	<polygon class="st3_seattle-89" points="360.6,262.7 360.6,264.5 359.3,263.7 359.3,261.8 &#9;"/>
	<polygon class="st3_seattle-89" points="358.9,261.7 358.9,263.4 357.5,262.7 357.5,260.8 &#9;"/>
	<polygon class="st3_seattle-89" points="356,259.7 356,261.5 354.6,260.7 354.6,258.8 &#9;"/>
	<polygon class="st3_seattle-89" points="354.3,258.6 354.3,260.4 353,259.7 353,257.8 &#9;"/>
	<path class="st11_seattle-89" d="M378.1,268.7c0,0-9.9-0.5-15.1-2.1l0,0c4.6,2.5,9.8,3.9,15.1,3.9V268.7z"/>
	<path class="st9_seattle-89" d="M306.8,339.9c1.9,1.7,3.6,3.6,5.1,5.7c-3.7,1-7.7,0.9-11.4-0.3c-5.5-2-18.8-10.2-19.2-10.3s-1.6-3.4-1.6-3.4"/>
	<path class="st10_seattle-89" d="M279.8,326.8c-0.1,0.2,0,4.9,0,4.9s7.1,5.2,10.8,7.4s9.4,4.5,18,5.2v-4.2c-2.4-3.1-5.1-5.9-8.2-8.4&#10;&#9;&#9;c0,0,0.5-1.2-0.4-1.7s-9.3-5.5-9.3-5.5l-5.9-3.1l-4.8,2.7c-0.6,0.4-0.9,1.1-0.6,1.8L279.8,326.8z"/>
	<path class="st11_seattle-89" d="M308.6,341.9c0,0-9.1-0.5-14.3-3.4s-14.6-8.9-14.6-8.9v2.2l9.1,6.4c0,0,6.8,5.4,19.7,6.3L308.6,341.9z"/>
	<polygon class="st12_seattle-89" points="300.4,331.8 300.4,335.6 294.3,338.5 279.7,329.5 279.4,325.9 293.3,334.9 &#9;"/>
	<polygon class="st3_seattle-89" points="291.1,334.1 291.1,335.9 289.8,335.1 289.8,333.2 &#9;"/>
	<polygon class="st3_seattle-89" points="289.3,333.1 289.3,334.9 288,334.1 288,332.2 &#9;"/>
	<polygon class="st3_seattle-89" points="286.4,331.1 286.4,332.9 285.1,332.1 285.1,330.2 &#9;"/>
	<polygon class="st3_seattle-89" points="284.8,330.1 284.8,331.9 283.5,331.1 283.5,329.2 &#9;"/>
	<path class="st11_seattle-89" d="M308.6,340.1c0,0-9.9-0.5-15.1-2.1l0,0c4.6,2.5,9.8,3.9,15.1,3.9V340.1z"/>
	<path class="st9_seattle-89" d="M385.5,255.7c1.9,1.7,3.6,3.6,5.1,5.7c-3.7,1-7.7,0.9-11.4-0.2c-5.5-2-18.8-10.2-19.2-10.3s-1.6-3.4-1.6-3.4"/>
	<path class="st10_seattle-89" d="M358.5,242.6c-0.1,0.2,0,4.9,0,4.9s7.1,5.2,10.8,7.4s9.4,4.5,18,5.2v-4.2c-2.4-3.1-5.1-5.9-8.2-8.3&#10;&#9;&#9;c0,0,0.5-1.2-0.4-1.7s-9.3-5.5-9.3-5.5l-5.9-3.1l-4.8,2.7c-0.6,0.3-0.9,1.1-0.6,1.8L358.5,242.6z"/>
	<path class="st11_seattle-89" d="M387.3,257.7c0,0-9.1-0.5-14.3-3.4s-14.6-8.9-14.6-8.9v2.2l9.1,6.4c0,0,6.8,5.4,19.7,6.3L387.3,257.7z"/>
	<polygon class="st12_seattle-89" points="379.1,247.6 379.1,251.4 373,254.3 358.5,245.3 358.2,241.7 372,250.7 &#9;"/>
	<polygon class="st3_seattle-89" points="369.9,249.9 369.9,251.7 368.5,251 368.5,249 &#9;"/>
	<polygon class="st3_seattle-89" points="368.1,248.9 368.1,250.7 366.8,249.9 366.8,248 &#9;"/>
	<polygon class="st3_seattle-89" points="365.2,246.9 365.2,248.7 363.9,248 363.9,246 &#9;"/>
	<polygon class="st3_seattle-89" points="363.5,245.9 363.5,247.7 362.2,246.9 362.2,245 &#9;"/>
	<path class="st11_seattle-89" d="M387.3,255.9c0,0-9.9-0.5-15.1-2.1l0,0c4.6,2.5,9.8,3.9,15.1,3.9V255.9z"/>
	<path class="st8_seattle-89" d="M213,113.5c0,0-11.1-1.8-19.9,2.4c-3.2,1.6-6.3,3.6-9.2,5.8c-3.7,3.4-7.2,6.9-10.5,10.7&#10;&#9;&#9;c-0.6,0.7-1.1,1.4-1.7,2.1c-0.5,1.6-0.2,2.6,2.1,0.6c4.7-3.9,7-9.3,10-7.9s1.7,4.8,6.4,0s2.4-7.8,7.5-6.5s3.4-0.7,7.6-2.3&#10;&#9;&#9;s9.5-1.6,10-3.6S213,113.5,213,113.5z"/>
	
		<linearGradient id="SVGID_00000165943845193668013590000015848194066234534819_-seattle-89" gradientUnits="userSpaceOnUse" x1="282.1801" y1="249.8462" x2="318.36" y2="219.4762" gradientTransform="matrix(1 0 0 -1 0 502)">
		<stop offset="0" style="stop-color:#1E4549"/>
		<stop offset="1" style="stop-color:#006D29;stop-opacity:0"/>
	</linearGradient>
	<path style="opacity:0.68;fill:url(#SVGID_00000165943845193668013590000015848194066234534819_);enable-background:new    ;" d="&#10;&#9;&#9;M304.1,251.7c-2.5,0.9-5.1,1.3-7.8,1.4c-6,0-25.4,5.1-29.6,1.6l-1.5,6c2.4,1.6,59,43.2,59,43.2c3.1-2.2,24.3-14,27.4-16.2&#10;&#9;&#9;L304.1,251.7z"/>
	<path class="st3_seattle-89" d="M351.4,277.6l0.1-0.1l-62.2-36.6l-23.5,13.9l0.1,0.1c-0.4,0.2-0.6,0.6-0.6,1v5.2c0,0.7,0.6,1.2,1.2,1.2&#10;&#9;&#9;c0.7,0,1.2-0.5,1.2-1.2V256l11.3,7.2v9.5c0,0.7,0.6,1.2,1.2,1.2c0.7,0,1.2-0.5,1.2-1.2v-8l12.9,8.2v11.7c0,0.7,0.6,1.2,1.2,1.2&#10;&#9;&#9;c0.7,0,1.2-0.5,1.2-1.2v-10.2l11.8,7.5c-0.2,0.2-0.4,0.5-0.4,0.8v10.7c0,0.7,0.6,1.2,1.2,1.2c0.7,0,1.2-0.5,1.2-1.2v-10.2l12.3,7.7&#10;&#9;&#9;v10.9c0,0.7,0.6,1.2,1.2,1.2c0.7,0,1.2-0.5,1.2-1.2v-11.4l23.7-11.8v9.5c0,0.7,0.6,1.2,1.2,1.2c0.7,0,1.2-0.5,1.2-1.2v-9.8&#10;&#9;&#9;C351.6,278,351.5,277.8,351.4,277.6z"/>
</g>
<g id="shadow_seattle-89">
	
		<linearGradient id="SVGID_00000008125907962059408210000002327240327980616854_-seattle-89" gradientUnits="userSpaceOnUse" x1="311.4343" y1="316.7713" x2="329.7243" y2="301.4113" gradientTransform="matrix(1 0 0 -1 0 502)">
		<stop offset="0" style="stop-color:#1E4549"/>
		<stop offset="1" style="stop-color:#FFFFFF;stop-opacity:0"/>
	</linearGradient>
	<path style="opacity:0.68;fill:url(#SVGID_00000008125907962059408210000002327240327980616854_);enable-background:new    ;" d="&#10;&#9;&#9;M326.8,211c0,0-28.3-15.2-30-16.3l24.2-14l30.6,16.4C349.5,198.7,328.9,209.4,326.8,211z"/>
	
		<linearGradient id="SVGID_00000064355264475522298780000007517479935145657237_-seattle-89" gradientUnits="userSpaceOnUse" x1="256.0484" y1="285.748" x2="277.1184" y2="268.058" gradientTransform="matrix(1 0 0 -1 0 502)">
		<stop offset="0" style="stop-color:#1E4549"/>
		<stop offset="1" style="stop-color:#FFFFFF;stop-opacity:0"/>
	</linearGradient>
	<path style="opacity:0.68;fill:url(#SVGID_00000064355264475522298780000007517479935145657237_);enable-background:new    ;" d="&#10;&#9;&#9;M273.7,245.9c0,0-32.6-17.4-34.5-18.8l27.8-16.1l35.3,18.9C299.8,231.8,276.1,244.1,273.7,245.9z"/>
	
		<linearGradient id="SVGID_00000062884804456765953280000008638597683673475457_-seattle-89" gradientUnits="userSpaceOnUse" x1="132.69" y1="242.5" x2="159.09" y2="220.33" gradientTransform="matrix(1 0 0 -1 0 502)">
		<stop offset="0" style="stop-color:#1E4549"/>
		<stop offset="0.1567" style="stop-color:#22484C;stop-opacity:0.8433"/>
		<stop offset="0.3103" style="stop-color:#2E5054;stop-opacity:0.6897"/>
		<stop offset="0.4627" style="stop-color:#415E61;stop-opacity:0.5373"/>
		<stop offset="0.6144" style="stop-color:#5D7274;stop-opacity:0.3856"/>
		<stop offset="0.7656" style="stop-color:#818B8C;stop-opacity:0.2344"/>
		<stop offset="0.9144" style="stop-color:#ACAAA9;stop-opacity:8.555025e-02"/>
		<stop offset="1" style="stop-color:#C8BEBC;stop-opacity:0"/>
	</linearGradient>
	<path style="opacity:0.68;fill:url(#SVGID_00000062884804456765953280000008638597683673475457_);enable-background:new    ;" d="&#10;&#9;&#9;M154.8,296.7c0,0-40.9-21.9-43.2-23.5l34.9-20.1l44.2,23.7C187.5,279,157.9,294.4,154.8,296.7z"/>
</g>
<g id="building_seattle-89">
	<polygon class="st17_seattle-89 targetColor" points="208.9,217.9 208.9,149.3 193.9,157.6 193.9,226.5 &#9;" style="fill: rgb(104, 225, 253);"/>
	<polygon class="st5_seattle-89" points="208.9,217.9 208.9,149.3 193.9,157.6 193.9,226.5 &#9;"/>
	<polygon class="st17_seattle-89 targetColor" points="193.9,157.6 178.7,149.3 178.7,217.6 193.9,226.5 &#9;" style="fill: rgb(104, 225, 253);"/>
	<polygon class="st12_seattle-89" points="208.9,149.3 193.9,140.1 178.7,149.3 193.9,157.6 &#9;"/>
	<polygon class="st12_seattle-89" points="178.7,154.1 194,162.1 208.9,154.3 208.9,155.5 194,163.2 178.7,155.3 &#9;"/>
	<polygon class="st12_seattle-89" points="178.7,159.1 194,167 208.9,159.2 208.9,160.4 194,168.2 178.7,160.3 &#9;"/>
	<polygon class="st12_seattle-89" points="178.7,164.5 194.1,172.5 208.9,164.7 208.9,165.9 194.1,173.7 178.7,165.7 &#9;"/>
	<polygon class="st12_seattle-89" points="178.7,169.4 194.2,177.4 208.9,169.8 208.9,170.9 194.2,178.6 178.7,170.6 &#9;"/>
	<polygon class="st12_seattle-89" points="178.7,174.2 194,182.1 208.9,174.3 208.9,175.5 194,183.3 178.7,175.4 &#9;"/>
	<polygon class="st12_seattle-89" points="178.7,179.1 194.1,187.1 208.9,179.3 208.9,180.5 194.1,188.3 178.7,180.3 &#9;"/>
	<polygon class="st12_seattle-89" points="178.7,184 193.9,191.8 208.9,184 208.9,185.2 193.9,193 178.7,185.2 &#9;"/>
	<polygon class="st12_seattle-89" points="178.7,189.1 194,197 208.9,189.2 208.9,190.4 194,198.2 178.7,190.2 &#9;"/>
	<polygon class="st12_seattle-89" points="178.7,194.1 194.1,202.1 208.9,194.4 208.9,195.6 194.1,203.3 178.7,195.3 &#9;"/>
	<polygon class="st12_seattle-89" points="178.7,199 194.3,207.1 208.9,199.4 208.9,200.6 194.3,208.3 178.7,200.2 &#9;"/>
	<polygon class="st12_seattle-89" points="178.7,204.5 193.9,212.3 208.9,204.5 208.9,205.7 193.9,213.5 178.7,205.7 &#9;"/>
	<polygon class="st12_seattle-89" points="178.7,209.4 194,217.3 208.9,209.5 208.9,210.7 194,218.5 178.7,210.6 &#9;"/>
	<polygon class="st12_seattle-89" points="178.7,214.1 194.1,222.1 208.9,214.4 208.9,215.6 194.1,223.3 178.7,215.4 &#9;"/>
	<path class="st17_seattle-89 targetColor" d="M321.5,184.3v-62.8l-23.1,12.9v59.7l0.5,0.1C306.2,190.4,314.2,188.1,321.5,184.3z" style="fill: rgb(104, 225, 253);"/>
	<path class="st5_seattle-89" d="M321.5,184.3v-62.8l-23.1,12.9v59.7l0.5,0.1C306.2,190.4,314.2,188.1,321.5,184.3z"/>
	<path class="st17_seattle-89 targetColor" d="M298.4,194.1v-59.7l-23.5-12.9v61.2C283.3,185.5,290,191.9,298.4,194.1z" style="fill: rgb(104, 225, 253);"/>
	<polygon class="st12_seattle-89" points="321.5,121.6 298.4,107.4 274.9,121.6 298.4,134.5 &#9;"/>
	<polygon class="st11_seattle-89" points="274.9,121.6 298.4,134.5 321.5,121.6 321.5,124.7 298.4,137.4 274.9,124.5 &#9;"/>
	<polygon class="st10_seattle-89" points="277.7,135.2 277.7,130.3 280.7,131.9 280.7,136.6 &#9;"/>
	<polygon class="st10_seattle-89" points="285.1,139.2 285.1,134.2 288,135.8 288,140.6 &#9;"/>
	<polygon class="st10_seattle-89" points="292.7,143.8 292.7,138.9 295.6,140.5 295.6,145.3 &#9;"/>
	<polygon class="st10_seattle-89" points="277.7,153 277.7,148 280.7,149.6 280.7,154.4 &#9;"/>
	<polygon class="st10_seattle-89" points="285.1,156.9 285.1,152 288,153.6 288,158.3 &#9;"/>
	<polygon class="st10_seattle-89" points="292.7,161.6 292.7,156.6 295.6,158.2 295.6,163 &#9;"/>
	<polygon class="st10_seattle-89" points="277.7,173.3 277.7,168.3 280.7,169.9 280.7,174.7 &#9;"/>
	<polygon class="st10_seattle-89" points="285.1,177.2 285.1,172.3 288,173.9 288,178.6 &#9;"/>
	<polygon class="st10_seattle-89" points="292.7,181.9 292.7,176.9 295.6,178.6 295.6,183.3 &#9;"/>
	<polygon class="st10_seattle-89" points="320.2,135.3 320.2,130.3 317.2,131.9 317.2,136.7 &#9;"/>
	<polygon class="st10_seattle-89" points="312.9,139.2 312.9,134.3 309.9,135.9 309.9,140.6 &#9;"/>
	<polygon class="st10_seattle-89" points="305.2,143.9 305.2,138.9 302.3,140.6 302.3,145.3 &#9;"/>
	<polygon class="st10_seattle-89" points="320.2,153 320.2,148.1 317.2,149.7 317.2,154.4 &#9;"/>
	<polygon class="st10_seattle-89" points="312.9,157 312.9,152 309.9,153.6 309.9,158.4 &#9;"/>
	<polygon class="st10_seattle-89" points="305.2,161.6 305.2,156.7 302.3,158.3 302.3,163.1 &#9;"/>
	<polygon class="st10_seattle-89" points="320.2,173.3 320.2,168.4 317.2,170 317.2,174.7 &#9;"/>
	<polygon class="st10_seattle-89" points="312.9,177.3 312.9,172.3 309.9,173.9 309.9,178.7 &#9;"/>
	<polygon class="st10_seattle-89" points="305.2,181.9 305.2,177 302.3,178.6 302.3,183.4 &#9;"/>
	<polygon class="st11_seattle-89" points="274.9,158.3 298.6,170.5 321.5,158.5 321.5,163.4 298.4,175.4 274.9,163.4 &#9;"/>
	<polygon class="st11_seattle-89" points="274.9,178.6 298.6,190.9 321.5,178.9 321.5,183.8 298.4,195.8 274.9,183.8 &#9;"/>
	<polygon class="st11_seattle-89" points="274.9,138.9 298.6,151.1 321.5,139.1 321.5,144 298.4,156 274.9,144 &#9;"/>
	<polygon class="st17_seattle-89 targetColor" points="271.1,212.7 271.1,82.4 242.6,98.2 242.6,229.1 &#9;" style="fill: rgb(104, 225, 253);"/>
	<polygon class="st5_seattle-89" points="271.1,212.7 271.1,82.4 242.6,98.2 242.6,229.1 &#9;"/>
	<polygon class="st17_seattle-89 targetColor" points="242.6,98.2 213.8,82.4 213.8,212.1 242.6,229.1 &#9;" style="fill: rgb(104, 225, 253);"/>
	<polygon class="st12_seattle-89" points="271.1,82.4 242.6,64.9 213.8,82.4 242.6,98.2 &#9;"/>
	<polygon class="st5_seattle-89" points="208.9,149.3 193.9,140.1 178.7,149.3 193.9,157.6 &#9;"/>
	<polygon class="st5_seattle-89" points="271.1,82.4 242.6,64.9 213.8,82.4 242.6,98.2 &#9;"/>
	<polygon class="st12_seattle-89" points="213.8,91.6 242.9,106.6 271.1,91.8 271.1,94.1 242.9,108.9 213.8,93.8 &#9;"/>
	<polygon class="st12_seattle-89" points="213.8,101 242.9,116.1 271.1,101.2 271.1,103.5 242.9,118.3 213.8,103.3 &#9;"/>
	<polygon class="st12_seattle-89" points="213.8,111.3 243,126.4 271.1,111.7 271.1,113.9 243,128.7 213.8,113.6 &#9;"/>
	<polygon class="st12_seattle-89" points="213.8,120.6 243.2,135.9 271.1,121.2 271.1,123.5 243.2,138.1 213.8,122.9 &#9;"/>
	<polygon class="st12_seattle-89" points="213.8,129.7 242.8,144.7 271.1,129.9 271.1,132.1 242.8,147 213.8,132 &#9;"/>
	<polygon class="st12_seattle-89" points="213.8,139 243,154.1 271.1,139.4 271.1,141.7 243,156.4 213.8,141.3 &#9;"/>
	<polygon class="st12_seattle-89" points="213.8,148.3 242.6,163.2 271.1,148.3 271.1,150.6 242.7,165.5 213.8,150.5 &#9;"/>
	<polygon class="st12_seattle-89" points="213.8,157.9 242.9,172.9 271.1,158.2 271.1,160.4 242.9,175.2 213.8,160.2 &#9;"/>
	<polygon class="st12_seattle-89" points="213.8,167.5 243.1,182.7 271.1,168 271.1,170.3 243.1,185 213.8,169.8 &#9;"/>
	<polygon class="st12_seattle-89" points="213.8,176.9 243.3,192.1 271.1,177.6 271.1,179.9 243.4,194.4 213.8,179.1 &#9;"/>
	<polygon class="st12_seattle-89" points="213.8,187.2 242.6,202.1 271.1,187.2 271.1,189.5 242.7,204.4 213.8,189.4 &#9;"/>
	<polygon class="st12_seattle-89" points="213.8,196.5 242.9,211.6 271.1,196.8 271.1,199.1 242.9,213.8 213.8,198.8 &#9;"/>
	<polygon class="st12_seattle-89" points="213.8,205.6 243,220.7 271.1,206 271.1,208.2 243,223 213.8,207.9 &#9;"/>
</g>
<g id="tree_seattle-89">
	
		<linearGradient id="SVGID_00000053541600472136596840000016931520112759929501_-seattle-89" gradientUnits="userSpaceOnUse" x1="54.1566" y1="267.7932" x2="56.7966" y2="270.6032" gradientTransform="matrix(1 0 0 -1 0 502)">
		<stop offset="0" style="stop-color:#873230;stop-opacity:0"/>
		<stop offset="1" style="stop-color:#873230"/>
	</linearGradient>
	<path style="opacity:0.41;fill:url(#SVGID_00000053541600472136596840000016931520112759929501_);enable-background:new    ;" d="&#10;&#9;&#9;M52.1,233.6c0.3,0,0.6,0,0.7,0.1c-0.2,2.2,1.4,1.1,2.1,1.7l0.6-0.3c1.2-1.2,2.5-2.4,3.7-3.6c-0.4-0.3-0.8-0.6-1.2-0.9&#10;&#9;&#9;C56,231.4,54,232.5,52.1,233.6z"/>
	<path class="st3_seattle-89" d="M59.4,231.6v-11H57v11.1C57.8,231.9,58.6,231.9,59.4,231.6z"/>
	<path class="st3_seattle-89" d="M58.5,220.6v11.3c0.3,0,0.7-0.1,1-0.3v-11L58.5,220.6z"/>
	<path class="st4_seattle-89" d="M61,215.2c-0.2-0.3-0.1-0.7,0.2-0.9c0,0,0.1,0,0.1-0.1c0.4-0.1,0.9-0.1,1.3-0.1c0.1-0.1,0.1-0.2,0.1-0.2&#10;&#9;&#9;c0-0.1-0.1-0.4-0.3-0.7s-0.5-0.6-0.7-0.9c-1.2-1.3-2.5-2.4-3.6-3.8c-1.6,1.6-3.3,3.1-5,4.6c-0.1,0.1-0.2,0.3-0.2,0.5&#10;&#9;&#9;c0.7,0.1,1.5,0.3,2.1,0.6c0.3,0.2,0.4,0.6,0.2,0.9c-0.5,0.9-1.2,1.8-2,2.6c-0.6,0.8-1.2,1.6-1.7,2.4c1.3,0.1,3.9,0.1,3.3,1.8&#10;&#9;&#9;c-0.5,0.8-1.1,1.6-1.8,2.2c-0.7,1-1.4,2-1.9,3l0,0c0.3,0.6,1.4,0.8,2.1,0.9c1.4,0.3,2.8,0.4,4.3,0.4c1.4,0,2.9-0.2,4.2-0.6&#10;&#9;&#9;c0.7-0.2,1.4-0.6,2-1.1c-1.1-1.7-2.5-3.2-3.1-5.1c-0.1-0.3,0.1-0.7,0.4-0.8c1.1-0.3,2.2-0.6,3.3-0.9c0,0,0-0.1,0-0.1&#10;&#9;&#9;c-0.5-0.7-1.2-1.4-1.8-2.1S61.7,216,61,215.2z"/>
	
		<linearGradient id="SVGID_00000106829261472434032950000013638023355698534063_-seattle-89" gradientUnits="userSpaceOnUse" x1="87.7438" y1="289.5164" x2="90.3938" y2="292.3264" gradientTransform="matrix(1 0 0 -1 0 502)">
		<stop offset="0" style="stop-color:#873230;stop-opacity:0"/>
		<stop offset="1" style="stop-color:#873230"/>
	</linearGradient>
	<path style="opacity:0.41;fill:url(#SVGID_00000106829261472434032950000013638023355698534063_);enable-background:new    ;" d="&#10;&#9;&#9;M85.7,211.9c0.3-0.1,0.6,0,0.7,0.1c-0.2,2.2,1.4,1.1,2.1,1.7l0.6-0.2c1.2-1.2,2.5-2.4,3.7-3.6c-0.4-0.3-0.8-0.6-1.2-1&#10;&#9;&#9;C89.5,209.7,87.6,210.7,85.7,211.9z"/>
	<path class="st3_seattle-89" d="M93,209.8v-11h-2.4v11.1C91.4,210.2,92.2,210.2,93,209.8z"/>
	<path class="st3_seattle-89" d="M92,198.9v11.3c0.3,0,0.7-0.1,1-0.3v-11H92z"/>
	<path class="st4_seattle-89" d="M94.6,193.5c-0.2-0.3-0.1-0.7,0.2-0.9c0,0,0.1-0.1,0.2-0.1c0.4-0.1,0.9-0.1,1.3-0.1c0.1-0.1,0.1-0.1,0.1-0.2&#10;&#9;&#9;c0-0.1-0.1-0.4-0.3-0.7s-0.5-0.6-0.7-0.9c-1.2-1.3-2.5-2.4-3.6-3.8c-1.6,1.6-3.3,3.1-5,4.6c-0.1,0.1-0.1,0.3-0.2,0.5&#10;&#9;&#9;c0.7,0.1,1.5,0.3,2.1,0.6c0.3,0.2,0.4,0.6,0.2,0.9c-0.5,1-1.2,1.8-1.9,2.6c-0.6,0.8-1.2,1.6-1.7,2.4c1.3,0.1,4,0.1,3.3,1.8&#10;&#9;&#9;c-0.5,0.8-1.1,1.6-1.8,2.3c-0.7,1-1.4,2-1.9,3l0,0c0.3,0.6,1.4,0.8,2.1,0.9c1.4,0.3,2.8,0.4,4.3,0.4c1.4,0,2.9-0.2,4.2-0.6&#10;&#9;&#9;c0.7-0.2,1.4-0.6,2-1.1c-1.2-1.6-2.3-3.3-3.1-5.2c-0.1-0.3,0.1-0.7,0.4-0.8c1.1-0.3,2.2-0.6,3.3-0.9c0,0,0,0,0-0.1&#10;&#9;&#9;c-0.5-0.7-1.2-1.4-1.8-2.1S95.2,194.3,94.6,193.5z"/>
	
		<linearGradient id="SVGID_00000171686691292791605130000014488615074325946793_-seattle-89" gradientUnits="userSpaceOnUse" x1="107.5843" y1="300.006" x2="110.2243" y2="302.816" gradientTransform="matrix(1 0 0 -1 0 502)">
		<stop offset="0" style="stop-color:#873230;stop-opacity:0"/>
		<stop offset="1" style="stop-color:#873230"/>
	</linearGradient>
	<path style="opacity:0.41;fill:url(#SVGID_00000171686691292791605130000014488615074325946793_);enable-background:new    ;" d="&#10;&#9;&#9;M105.6,201.4c0.3-0.1,0.6,0,0.7,0.1c-0.2,2.2,1.4,1.1,2.1,1.7l0.6-0.2c1.2-1.2,2.4-2.4,3.7-3.6c-0.4-0.3-0.8-0.6-1.2-0.9&#10;&#9;&#9;C109.4,199.2,107.4,200.2,105.6,201.4z"/>
	<path class="st3_seattle-89" d="M112.8,199.3v-11h-2.4v11.1C111.2,199.7,112.1,199.7,112.8,199.3z"/>
	<path class="st3_seattle-89" d="M111.9,188.4v11.3c0.3,0,0.7-0.1,0.9-0.3v-11H111.9z"/>
	<path class="st4_seattle-89" d="M114.5,183c-0.2-0.3-0.1-0.7,0.2-0.9c0,0,0.1-0.1,0.2-0.1c0.4-0.1,0.9-0.1,1.3-0.1c0.1-0.1,0.1-0.2,0.1-0.2&#10;&#9;&#9;c0-0.1-0.1-0.4-0.3-0.7s-0.5-0.6-0.7-0.9c-1.2-1.3-2.5-2.4-3.6-3.8c-1.6,1.6-3.3,3.1-5,4.6c-0.1,0.1-0.1,0.3-0.2,0.5&#10;&#9;&#9;c0.7,0.1,1.5,0.3,2.1,0.6c0.3,0.2,0.4,0.6,0.2,0.9c-0.6,1-1.2,1.8-2,2.6c-0.6,0.8-1.2,1.6-1.7,2.4c1.3,0.1,3.9,0.1,3.3,1.8&#10;&#9;&#9;c-0.5,0.8-1.1,1.6-1.8,2.2c-0.7,1-1.4,2-1.9,3l0,0c0.3,0.6,1.4,0.8,2.1,0.9c1.4,0.3,2.8,0.4,4.3,0.4c1.4,0,2.9-0.2,4.2-0.6&#10;&#9;&#9;c0.7-0.2,1.4-0.6,2.1-1.1c-1.2-1.6-2.3-3.3-3.1-5.2c-0.1-0.3,0.1-0.7,0.4-0.8c1.1-0.3,2.2-0.6,3.3-0.9c0,0,0,0,0-0.1&#10;&#9;&#9;c-0.5-0.7-1.2-1.4-1.8-2.1S115.1,183.8,114.5,183z"/>
	<path class="st5_seattle-89" d="M61,215.2c-0.2-0.3-0.1-0.7,0.2-0.9c0,0,0.1,0,0.1-0.1c0.4-0.1,0.9-0.1,1.3-0.1c0.1-0.1,0.1-0.2,0.1-0.2&#10;&#9;&#9;c0-0.1-0.1-0.4-0.3-0.7s-0.5-0.6-0.7-0.9c-1.2-1.3-2.5-2.4-3.6-3.8c-1.6,1.6-3.3,3.1-5,4.6c-0.1,0.1-0.2,0.3-0.2,0.5&#10;&#9;&#9;c0.7,0.1,1.5,0.3,2.1,0.6c0.3,0.2,0.4,0.6,0.2,0.9c-0.5,0.9-1.2,1.8-2,2.6c-0.6,0.8-1.2,1.6-1.7,2.4c1.3,0.1,3.9,0.1,3.3,1.8&#10;&#9;&#9;c-0.5,0.8-1.1,1.6-1.8,2.2c-0.7,1-1.4,2-1.9,3l0,0c0.3,0.6,1.4,0.8,2.1,0.9c1.4,0.3,2.8,0.4,4.3,0.4c1.4,0,2.9-0.2,4.2-0.6&#10;&#9;&#9;c0.7-0.2,1.4-0.6,2-1.1c-1.1-1.7-2.5-3.2-3.1-5.1c-0.1-0.3,0.1-0.7,0.4-0.8c1.1-0.3,2.2-0.6,3.3-0.9c0,0,0-0.1,0-0.1&#10;&#9;&#9;c-0.5-0.7-1.2-1.4-1.8-2.1S61.7,216,61,215.2z"/>
	<path class="st5_seattle-89" d="M94.6,193.5c-0.2-0.3-0.1-0.7,0.2-0.9c0,0,0.1-0.1,0.2-0.1c0.4-0.1,0.9-0.1,1.3-0.1c0.1-0.1,0.1-0.1,0.1-0.2&#10;&#9;&#9;c0-0.1-0.1-0.4-0.3-0.7s-0.5-0.6-0.7-0.9c-1.2-1.3-2.5-2.4-3.6-3.8c-1.6,1.6-3.3,3.1-5,4.6c-0.1,0.1-0.1,0.3-0.2,0.5&#10;&#9;&#9;c0.7,0.1,1.5,0.3,2.1,0.6c0.3,0.2,0.4,0.6,0.2,0.9c-0.5,1-1.2,1.8-1.9,2.6c-0.6,0.8-1.2,1.6-1.7,2.4c1.3,0.1,4,0.1,3.3,1.8&#10;&#9;&#9;c-0.5,0.8-1.1,1.6-1.8,2.3c-0.7,1-1.4,2-1.9,3l0,0c0.3,0.6,1.4,0.8,2.1,0.9c1.4,0.3,2.8,0.4,4.3,0.4c1.4,0,2.9-0.2,4.2-0.6&#10;&#9;&#9;c0.7-0.2,1.4-0.6,2-1.1c-1.2-1.6-2.3-3.3-3.1-5.2c-0.1-0.3,0.1-0.7,0.4-0.8c1.1-0.3,2.2-0.6,3.3-0.9c0,0,0,0,0-0.1&#10;&#9;&#9;c-0.5-0.7-1.2-1.4-1.8-2.1S95.2,194.3,94.6,193.5z"/>
	<path class="st5_seattle-89" d="M114.5,183c-0.2-0.3-0.1-0.7,0.2-0.9c0,0,0.1-0.1,0.2-0.1c0.4-0.1,0.9-0.1,1.3-0.1c0.1-0.1,0.1-0.2,0.1-0.2&#10;&#9;&#9;c0-0.1-0.1-0.4-0.3-0.7s-0.5-0.6-0.7-0.9c-1.2-1.3-2.5-2.4-3.6-3.8c-1.6,1.6-3.3,3.1-5,4.6c-0.1,0.1-0.1,0.3-0.2,0.5&#10;&#9;&#9;c0.7,0.1,1.5,0.3,2.1,0.6c0.3,0.2,0.4,0.6,0.2,0.9c-0.6,1-1.2,1.8-2,2.6c-0.6,0.8-1.2,1.6-1.7,2.4c1.3,0.1,3.9,0.1,3.3,1.8&#10;&#9;&#9;c-0.5,0.8-1.1,1.6-1.8,2.2c-0.7,1-1.4,2-1.9,3l0,0c0.3,0.6,1.4,0.8,2.1,0.9c1.4,0.3,2.8,0.4,4.3,0.4c1.4,0,2.9-0.2,4.2-0.6&#10;&#9;&#9;c0.7-0.2,1.4-0.6,2.1-1.1c-1.2-1.6-2.3-3.3-3.1-5.2c-0.1-0.3,0.1-0.7,0.4-0.8c1.1-0.3,2.2-0.6,3.3-0.9c0,0,0,0,0-0.1&#10;&#9;&#9;c-0.5-0.7-1.2-1.4-1.8-2.1S115.1,183.8,114.5,183z"/>
	
		<linearGradient id="SVGID_00000097466062630463751730000003550726520024872328_-seattle-89" gradientUnits="userSpaceOnUse" x1="106.9908" y1="307.5891" x2="99.6008" y2="300.5591" gradientTransform="matrix(-1 0 0 -1 386.41 502)">
		<stop offset="0" style="stop-color:#873230"/>
		<stop offset="1" style="stop-color:#006D29;stop-opacity:0"/>
	</linearGradient>
	<path style="opacity:0.68;fill:url(#SVGID_00000097466062630463751730000003550726520024872328_);enable-background:new    ;" d="&#10;&#9;&#9;M278.1,198.1l2.4-2.3l11.2,5.3c-1.1,0.6-2.8,1.6-4.4,2.5C284.1,202,281,200.2,278.1,198.1z"/>
	<path class="st3_seattle-89" d="M279.5,198.1h-0.1c-0.8,0-1.4-0.6-1.4-1.4v-16.5c0-0.8,0.6-1.4,1.4-1.4h0.1c0.8,0,1.4,0.6,1.4,1.4v16.5&#10;&#9;&#9;C280.8,197.4,280.2,198.1,279.5,198.1z"/>
	<circle class="st4_seattle-89" cx="279.4" cy="180.4" r="9.7"/>
	<path class="st5_seattle-89" d="M274.5,180.4c-0.1-3.3,0.8-6.6,2.6-9.4c-5.2,1.3-8.4,6.5-7.1,11.8c1.1,4.3,5,7.4,9.4,7.4c0.7,0,1.3-0.1,2-0.2&#10;&#9;&#9;C277.2,188.6,274.4,184.8,274.5,180.4z"/>
	
		<linearGradient id="SVGID_00000013885223373191220110000006183069255745614213_-seattle-89" gradientUnits="userSpaceOnUse" x1="171.2858" y1="269.9844" x2="163.8959" y2="262.9544" gradientTransform="matrix(-1 0 0 -1 386.41 502)">
		<stop offset="0" style="stop-color:#873230"/>
		<stop offset="1" style="stop-color:#006D29;stop-opacity:0"/>
	</linearGradient>
	<path style="opacity:0.68;fill:url(#SVGID_00000013885223373191220110000006183069255745614213_);enable-background:new    ;" d="&#10;&#9;&#9;M213.8,235.7l2.4-2.3l11.2,5.3c-1.1,0.6-2.8,1.6-4.4,2.6C219.8,239.6,216.7,237.8,213.8,235.7z"/>
	<path class="st3_seattle-89" d="M215.2,235.7H215c-0.8,0-1.4-0.6-1.4-1.4v-16.5c0-0.8,0.6-1.4,1.4-1.4h0.1c0.8,0,1.4,0.6,1.4,1.4v16.5&#10;&#9;&#9;C216.5,235,215.9,235.7,215.2,235.7z"/>
	<circle class="st4_seattle-89" cx="215.1" cy="218" r="9.7"/>
	<path class="st5_seattle-89" d="M210.2,218c-0.1-3.3,0.8-6.6,2.6-9.4c-5.2,1.3-8.4,6.5-7.1,11.8c1.1,4.3,5,7.4,9.4,7.4c0.7,0,1.3-0.1,2-0.2&#10;&#9;&#9;C212.9,226.3,210.1,222.4,210.2,218z"/>
</g>
<g id="lamp_seattle-89">
	
		<linearGradient id="SVGID_00000134958920154478932380000010647266703736283554_-seattle-89" gradientUnits="userSpaceOnUse" x1="237.1129" y1="177.1869" x2="229.0829" y2="169.5569" gradientTransform="matrix(-1 0 0 -1 386.41 502)">
		<stop offset="0" style="stop-color:#1E4549"/>
		<stop offset="1" style="stop-color:#006D29;stop-opacity:0"/>
	</linearGradient>
	<path style="opacity:0.68;fill:url(#SVGID_00000134958920154478932380000010647266703736283554_);enable-background:new    ;" d="&#10;&#9;&#9;M147.8,328.8l2.6-2.5l12.2,5.8c-1.2,0.6-3.1,1.7-4.8,2.8C154.4,333.1,151,331.1,147.8,328.8z"/>
	<rect x="149.7" y="303.8" class="st11_seattle-89" width="1" height="24"/>
	<circle class="st17_seattle-89 targetColor" cx="150.3" cy="303.2" r="3" style="fill: rgb(104, 225, 253);"/>
	<circle class="st10_seattle-89" cx="151.6" cy="302.1" r="0.6"/>
	<path class="st24_seattle-89" d="M148,301.3c-0.5,1.4,0.1,3,1.5,3.7c1.2,0.7,2.7,0.4,3.5-0.7c-0.5,1.6-2.2,2.5-3.8,2c-1.6-0.5-2.5-2.2-2-3.8&#10;&#9;&#9;C147.4,302,147.7,301.6,148,301.3L148,301.3z"/>
	<path class="st11_seattle-89" d="M149,321.7l-1.1,6.5c0.8,0.4,1.7,0.5,2.7,0.5c2,0.1,1.9-0.6,1.9-0.6l-1.1-6.4H149z"/>
	<ellipse class="st12_seattle-89" cx="150.2" cy="321.7" rx="1.2" ry="0.6"/>
	<ellipse class="st11_seattle-89" cx="150.2" cy="328.2" rx="2.3" ry="1.1"/>
	
		<linearGradient id="SVGID_00000047059787124521188430000005923261849954830229_-seattle-89" gradientUnits="userSpaceOnUse" x1="206.8929" y1="194.4969" x2="198.8629" y2="186.8669" gradientTransform="matrix(-1 0 0 -1 386.41 502)">
		<stop offset="0" style="stop-color:#1E4549"/>
		<stop offset="1" style="stop-color:#006D29;stop-opacity:0"/>
	</linearGradient>
	<path style="opacity:0.68;fill:url(#SVGID_00000047059787124521188430000005923261849954830229_);enable-background:new    ;" d="&#10;&#9;&#9;M178.1,311.5l2.6-2.5l12.2,5.8c-1.2,0.6-3.1,1.7-4.8,2.8C184.6,315.8,181.3,313.7,178.1,311.5z"/>
	<rect x="179.9" y="286.5" class="st11_seattle-89" width="1" height="24"/>
	<circle class="st17_seattle-89 targetColor" cx="180.5" cy="285.9" r="3" style="fill: rgb(104, 225, 253);"/>
	<circle class="st10_seattle-89" cx="181.8" cy="284.8" r="0.6"/>
	<path class="st24_seattle-89" d="M178.2,284c-0.5,1.4,0.1,3,1.5,3.7c1.2,0.7,2.7,0.4,3.5-0.7c-0.7,1.5-2.4,2.2-4,1.5c-1-0.5-1.7-1.5-1.8-2.6&#10;&#9;&#9;C177.5,285.2,177.8,284.5,178.2,284z"/>
	<path class="st11_seattle-89" d="M179.2,304.4l-1.1,6.5c0.8,0.4,1.7,0.5,2.7,0.5c2,0.1,1.9-0.6,1.9-0.6l-1.1-6.4H179.2z"/>
	<ellipse class="st12_seattle-89" cx="180.4" cy="304.4" rx="1.2" ry="0.6"/>
	<ellipse class="st11_seattle-89" cx="180.4" cy="310.9" rx="2.3" ry="1.1"/>
	
		<linearGradient id="SVGID_00000163769253425395322900000013011776180266869899_-seattle-89" gradientUnits="userSpaceOnUse" x1="173.6082" y1="215.6519" x2="165.5782" y2="208.0219" gradientTransform="matrix(-1 0 0 -1 386.41 502)">
		<stop offset="0" style="stop-color:#1E4549"/>
		<stop offset="1" style="stop-color:#006D29;stop-opacity:0"/>
	</linearGradient>
	<path style="opacity:0.68;fill:url(#SVGID_00000163769253425395322900000013011776180266869899_);enable-background:new    ;" d="&#10;&#9;&#9;M211.4,290.4l2.6-2.5l12.2,5.8c-1.2,0.6-3.1,1.7-4.8,2.8C217.9,294.6,214.5,292.6,211.4,290.4z"/>
	<rect x="213.2" y="265.3" class="st11_seattle-89" width="1" height="24"/>
	<circle class="st17_seattle-89 targetColor" cx="213.8" cy="264.8" r="3" style="fill: rgb(104, 225, 253);"/>
	<circle class="st10_seattle-89" cx="215.1" cy="263.6" r="0.6"/>
	<path class="st24_seattle-89" d="M211.5,262.8c-0.5,1.4,0.1,3,1.5,3.7c1.2,0.7,2.7,0.4,3.5-0.7c-0.5,1.6-2.2,2.5-3.8,2c-1.6-0.5-2.5-2.2-2-3.8&#10;&#9;&#9;C211,263.6,211.2,263.2,211.5,262.8L211.5,262.8z"/>
	<path class="st11_seattle-89" d="M212.5,283.2l-1.1,6.5c0.8,0.4,1.7,0.5,2.6,0.5c2,0.1,1.9-0.6,1.9-0.6l-1.1-6.4H212.5z"/>
	<ellipse class="st12_seattle-89" cx="213.7" cy="283.2" rx="1.2" ry="0.6"/>
	<ellipse class="st11_seattle-89" cx="213.7" cy="289.8" rx="2.3" ry="1.1"/>
	
		<linearGradient id="SVGID_00000083811155514216274850000014242549006060839326_-seattle-89" gradientUnits="userSpaceOnUse" x1="143.387" y1="232.9732" x2="135.3569" y2="225.3332" gradientTransform="matrix(-1 0 0 -1 386.41 502)">
		<stop offset="0" style="stop-color:#1E4549"/>
		<stop offset="1" style="stop-color:#006D29;stop-opacity:0"/>
	</linearGradient>
	<path style="opacity:0.68;fill:url(#SVGID_00000083811155514216274850000014242549006060839326_);enable-background:new    ;" d="&#10;&#9;&#9;M241.6,273l2.6-2.5l12.2,5.8c-1.2,0.6-3.1,1.7-4.8,2.8C248.1,277.3,244.8,275.3,241.6,273z"/>
	<rect x="243.4" y="248" class="st11_seattle-89" width="1" height="24"/>
	<circle class="st17_seattle-89 targetColor" cx="244" cy="247.4" r="3" style="fill: rgb(104, 225, 253);"/>
	<circle class="st10_seattle-89" cx="245.3" cy="246.3" r="0.6"/>
	<path class="st24_seattle-89" d="M241.7,245.5c-0.5,1.4,0.1,3,1.5,3.7c1.2,0.7,2.7,0.4,3.5-0.7c-0.7,1.5-2.4,2.2-3.9,1.6&#10;&#9;&#9;c-1.1-0.5-1.8-1.5-1.8-2.6C241,246.7,241.3,246,241.7,245.5z"/>
	<path class="st11_seattle-89" d="M242.7,265.9l-1.1,6.5c0.8,0.4,1.7,0.5,2.6,0.5c2,0.1,1.9-0.6,1.9-0.6l-1.1-6.4H242.7z"/>
	<ellipse class="st12_seattle-89" cx="243.9" cy="265.9" rx="1.2" ry="0.6"/>
	<ellipse class="st11_seattle-89" cx="243.9" cy="272.5" rx="2.3" ry="1.1"/>
	
		<linearGradient id="SVGID_00000010992948944902853750000012501309876203976842_-seattle-89" gradientUnits="userSpaceOnUse" x1="78.6031" y1="267.5663" x2="70.573" y2="259.9363" gradientTransform="matrix(-1 0 0 -1 386.41 502)">
		<stop offset="0" style="stop-color:#1E4549"/>
		<stop offset="1" style="stop-color:#006D29;stop-opacity:0"/>
	</linearGradient>
	<path style="opacity:0.68;fill:url(#SVGID_00000010992948944902853750000012501309876203976842_);enable-background:new    ;" d="&#10;&#9;&#9;M306.4,238.4l2.6-2.4l12.2,5.8c-1.2,0.6-3.1,1.7-4.8,2.8C312.9,242.7,309.6,240.7,306.4,238.4z"/>
	<rect x="308.2" y="213.4" class="st11_seattle-89" width="1" height="24"/>
	<circle class="st17_seattle-89 targetColor" cx="308.8" cy="212.8" r="3" style="fill: rgb(104, 225, 253);"/>
	<circle class="st10_seattle-89" cx="310.1" cy="211.7" r="0.6"/>
	<path class="st24_seattle-89" d="M306.5,210.9c-0.5,1.4,0.1,3,1.5,3.7c1.2,0.7,2.7,0.4,3.5-0.7c-0.5,1.6-2.2,2.5-3.8,2c-1.6-0.5-2.5-2.2-2-3.8&#10;&#9;&#9;C306,211.7,306.2,211.2,306.5,210.9L306.5,210.9z"/>
	<path class="st11_seattle-89" d="M307.5,231.3l-1.1,6.5c0.8,0.4,1.7,0.5,2.7,0.5c2,0.1,1.9-0.6,1.9-0.6l-1.1-6.4L307.5,231.3z"/>
	<ellipse class="st12_seattle-89" cx="308.7" cy="231.3" rx="1.2" ry="0.6"/>
	<ellipse class="st11_seattle-89" cx="308.7" cy="237.8" rx="2.3" ry="1.1"/>
	
		<linearGradient id="SVGID_00000083053186342137475190000002967993490177677208_-seattle-89" gradientUnits="userSpaceOnUse" x1="48.3729" y1="284.8969" x2="40.3429" y2="277.2669" gradientTransform="matrix(-1 0 0 -1 386.41 502)">
		<stop offset="0" style="stop-color:#1E4549"/>
		<stop offset="1" style="stop-color:#006D29;stop-opacity:0"/>
	</linearGradient>
	<path style="opacity:0.68;fill:url(#SVGID_00000083053186342137475190000002967993490177677208_);enable-background:new    ;" d="&#10;&#9;&#9;M336.6,221.1l2.6-2.5l12.2,5.8c-1.2,0.6-3.1,1.7-4.8,2.8C343.1,225.4,339.8,223.3,336.6,221.1z"/>
	<rect x="338.4" y="196.1" class="st11_seattle-89" width="1" height="24"/>
	<circle class="st17_seattle-89 targetColor" cx="339" cy="195.5" r="3" style="fill: rgb(104, 225, 253);"/>
	<circle class="st10_seattle-89" cx="340.4" cy="194.4" r="0.6"/>
	<path class="st24_seattle-89" d="M336.8,193.6c-0.5,1.4,0.1,3,1.5,3.7c1.2,0.7,2.7,0.4,3.5-0.7c-0.5,1.6-2.2,2.5-3.8,2c-1.6-0.5-2.5-2.2-2-3.8&#10;&#9;&#9;C336.2,194.3,336.4,193.9,336.8,193.6L336.8,193.6z"/>
	<path class="st11_seattle-89" d="M337.7,214l-1.1,6.5c0.8,0.4,1.7,0.5,2.7,0.5c2,0.1,1.9-0.6,1.9-0.6l-1.1-6.4L337.7,214z"/>
	<ellipse class="st12_seattle-89" cx="338.9" cy="214" rx="1.2" ry="0.6"/>
	<ellipse class="st11_seattle-89" cx="338.9" cy="220.5" rx="2.3" ry="1.1"/>
	
		<linearGradient id="SVGID_00000163067433226994058620000006849478133593002166_-seattle-89" gradientUnits="userSpaceOnUse" x1="155.1417" y1="275.3682" x2="147.1117" y2="267.7282" gradientTransform="matrix(-1 0 0 -1 386.41 502)">
		<stop offset="0" style="stop-color:#1E4549"/>
		<stop offset="1" style="stop-color:#006D29;stop-opacity:0"/>
	</linearGradient>
	<path style="opacity:0.68;fill:url(#SVGID_00000163067433226994058620000006849478133593002166_);enable-background:new    ;" d="&#10;&#9;&#9;M229.8,230.6l2.6-2.5l12.2,5.8c-1.2,0.6-3.1,1.7-4.8,2.8C236.3,234.9,233,232.9,229.8,230.6z"/>
	<rect x="231.7" y="205.6" class="st11_seattle-89" width="1" height="24"/>
	<circle class="st17_seattle-89 targetColor" cx="232.2" cy="205" r="3" style="fill: rgb(104, 225, 253);"/>
	<circle class="st10_seattle-89" cx="233.6" cy="203.9" r="0.6"/>
	<path class="st24_seattle-89" d="M230,203.1c-0.5,1.4,0.1,3,1.5,3.7c1.2,0.7,2.7,0.4,3.5-0.7c-0.5,1.6-2.2,2.5-3.8,2c-1.6-0.5-2.5-2.2-2-3.8&#10;&#9;&#9;C229.4,203.9,229.7,203.5,230,203.1L230,203.1z"/>
	<path class="st11_seattle-89" d="M231,223.5l-1.1,6.5c0.8,0.4,1.7,0.5,2.7,0.5c2,0.1,1.9-0.6,1.9-0.6l-1.1-6.4L231,223.5z"/>
	<ellipse class="st12_seattle-89" cx="232.2" cy="223.5" rx="1.2" ry="0.6"/>
	<ellipse class="st11_seattle-89" cx="232.2" cy="230.1" rx="2.3" ry="1.1"/>
</g>
<g id="landmark_seattle-89">
	<ellipse class="st0_seattle-89" cx="132.6" cy="268.8" rx="24.8" ry="10.7"/>
	<polyline class="st0_seattle-89" points="107.8,256.9 107.8,268.8 157.4,268.8 157.4,256.9 &#9;"/>
	<path class="st31_seattle-89" d="M107.8,256.9v11.9c0,5.9,11.1,10.7,24.8,10.7s24.8-4.8,24.8-10.7v-11.9H107.8z"/>
	<ellipse class="st0_seattle-89" cx="132.6" cy="257.6" rx="24.8" ry="10.7"/>
	<path class="st31_seattle-89" d="M147.8,253.8c-3.2-2.4-9.3-4-16.2-4s-12.9,1.6-16.2,4h-2.6v4.1c0,4.5,8.4,8.1,18.7,8.1s18.8-3.6,18.8-8.1&#10;&#9;&#9;v-4.1H147.8z"/>
	<ellipse class="st0_seattle-89" cx="131.6" cy="253.8" rx="18.7" ry="8.1"/>
	<g class="st32_seattle-89">
		<ellipse class="st11_seattle-89" cx="132.6" cy="253.2" rx="12.6" ry="5.4"/>
		<polyline class="st11_seattle-89" points="120,250.5 120,253.2 145.2,253.2 145.2,250.5 &#9;&#9;"/>
	</g>
	<ellipse class="st0_seattle-89" cx="132.6" cy="250.5" rx="12.6" ry="5.4"/>
	<path class="st0_seattle-89" d="M127,239v12.2c3.5,1.8,7.9,2.1,11.2,0V239C134.5,239.1,130.8,239,127,239z"/>
	<path class="st31_seattle-89" d="M127,239v12.2c3.5,1.8,7.9,2.1,11.2,0V239C134.5,239.1,130.8,239,127,239z"/>
	<ellipse class="st17_seattle-89 targetColor" cx="132.6" cy="233" rx="21.4" ry="10.3" style="fill: rgb(104, 225, 253);"/>
	<path class="st0_seattle-89" d="M127.1,208.9v23.8c3.5,1.8,7.9,2.1,11.2,0V209C134.6,210.1,130.7,210.1,127.1,208.9z"/>
	<path class="st31_seattle-89" d="M127.1,208.9v23.8c3.5,1.8,7.9,2.1,11.2,0V209C134.6,210.1,130.7,210.1,127.1,208.9z"/>
	<ellipse class="st17_seattle-89 targetColor" cx="132.7" cy="209.1" rx="14.6" ry="7" style="fill: rgb(104, 225, 253);"/>
	<path class="st0_seattle-89" d="M138.3,206.6v-73.8c0-3.1-2.5-5.6-5.6-5.6c-3.1,0-5.6,2.5-5.6,5.6v73.6C130.7,207.7,134.6,207.8,138.3,206.6z"/>
	<path class="st31_seattle-89" d="M138.3,206.6v-73.8c0-3.1-2.5-5.6-5.6-5.6c-3.1,0-5.6,2.5-5.6,5.6v73.6C130.7,207.7,134.6,207.8,138.3,206.6z&#10;&#9;&#9;"/>
	<path class="st17_seattle-89 targetColor" d="M114.1,135.1c0,0,8.2,21.5,8.2,26.4s-0.1,28.3-0.2,29.6s-14,75.8-14,75.8l0.7,1.7h2.1l9.6-56.8l3.9-22.9&#10;&#9;&#9;l3.6-0.7c0,0,0.6-20.5,0-22.8s-5.3-27.8-5.3-27.8l-2.7-0.7c0,0,3.4,11.1,2.1,11.5s-4.9-12.5-4.9-12.5L114.1,135.1z" style="fill: rgb(104, 225, 253);"/>
	<path class="st17_seattle-89 targetColor" d="M124.4,188.8c0,0-0.2,14.1-0.6,15.9s-10.6,66.9-10.6,66.9l2.4,0.7c0,0,10.4-66.1,10.8-67.6s1.6-16.6,1.6-16.6&#10;&#9;&#9;L124.4,188.8z" style="fill: rgb(104, 225, 253);"/>
	<polygon class="st17_seattle-89 targetColor" points="122.6,196.8 125.4,198.6 124.7,202.5 121.7,200.6 &#9;" style="fill: rgb(104, 225, 253);"/>
	<polygon class="st17_seattle-89 targetColor" points="120.7,207.6 123.5,209.4 122.8,213.3 119.8,211.3 &#9;" style="fill: rgb(104, 225, 253);"/>
	<polygon class="st17_seattle-89 targetColor" points="118.8,219.8 121.7,221.6 120.9,225.6 117.9,223.6 &#9;" style="fill: rgb(104, 225, 253);"/>
	<polygon class="st17_seattle-89 targetColor" points="116.9,229.3 119.8,231.1 119,235.1 116,233.1 &#9;" style="fill: rgb(104, 225, 253);"/>
	<polygon class="st17_seattle-89 targetColor" points="115,241.5 117.9,243.3 117.1,247.2 114.1,245.3 &#9;" style="fill: rgb(104, 225, 253);"/>
	<polygon class="st17_seattle-89 targetColor" points="113.4,252.9 116.3,254.8 115.5,258.7 112.5,256.7 &#9;" style="fill: rgb(104, 225, 253);"/>
	<path class="st17_seattle-89 targetColor" d="M151.1,135.8c0,0-8.2,21.5-8.2,26.4s0.1,28.3,0.2,29.6s14,75.8,14,75.8l-0.7,1.7h-2.1l-9.6-56.8l-3.9-22.9&#10;&#9;&#9;l-3.6-0.7c0,0-0.6-20.5,0-22.8s5.3-27.8,5.3-27.8l2.7-0.7c0,0-3.4,11.1-2.1,11.5s4.9-12.5,4.9-12.5L151.1,135.8z" style="fill: rgb(104, 225, 253);"/>
	<path class="st17_seattle-89 targetColor" d="M140.8,189.4c0,0,0.2,14.1,0.6,15.9s10.6,66.9,10.6,66.9l-2.4,0.7c0,0-10.4-66.1-10.9-67.6&#10;&#9;&#9;s-1.5-16.6-1.5-16.6L140.8,189.4z" style="fill: rgb(104, 225, 253);"/>
	<polygon class="st17_seattle-89 targetColor" points="142.6,197.4 139.7,199.2 140.5,203.2 143.5,201.2 &#9;" style="fill: rgb(104, 225, 253);"/>
	<polygon class="st17_seattle-89 targetColor" points="144.5,208.2 141.6,210 142.4,213.9 145.4,212 &#9;" style="fill: rgb(104, 225, 253);"/>
	<polygon class="st17_seattle-89 targetColor" points="146.4,220.5 143.5,222.3 144.3,226.2 147.3,224.3 &#9;" style="fill: rgb(104, 225, 253);"/>
	<polygon class="st17_seattle-89 targetColor" points="148.3,230 145.4,231.8 146.2,235.7 149.2,233.8 &#9;" style="fill: rgb(104, 225, 253);"/>
	<polygon class="st17_seattle-89 targetColor" points="150.2,242.1 147.3,244 148.1,247.9 151.1,245.9 &#9;" style="fill: rgb(104, 225, 253);"/>
	<polygon class="st17_seattle-89 targetColor" points="151.8,253.6 148.9,255.4 149.7,259.3 152.7,257.4 &#9;" style="fill: rgb(104, 225, 253);"/>
	<ellipse class="st17_seattle-89 targetColor" cx="132.4" cy="120.6" rx="35.7" ry="18.3" style="fill: rgb(104, 225, 253);"/>
	<ellipse class="st0_seattle-89" cx="132.6" cy="121.2" rx="27.7" ry="12"/>
	<polyline class="st0_seattle-89" points="104.8,115.2 104.8,121.2 160.3,121.2 160.3,115.2 &#9;"/>
	<g class="st32_seattle-89">
		<ellipse class="st11_seattle-89" cx="132.6" cy="121.2" rx="27.7" ry="12"/>
		<polyline class="st11_seattle-89" points="104.8,115.2 104.8,121.2 160.3,121.2 160.3,115.2 &#9;&#9;"/>
	</g>
	<ellipse class="st0_seattle-89" cx="132.6" cy="115.2" rx="27.7" ry="12"/>
	<g class="st33_seattle-89">
		<ellipse class="st11_seattle-89" cx="132.6" cy="108.2" rx="12.1" ry="5.2"/>
		<polyline class="st11_seattle-89" points="120.5,105.6 120.5,108.2 144.6,108.2 144.6,105.6 &#9;&#9;"/>
	</g>
	<ellipse class="st0_seattle-89" cx="132.6" cy="105.6" rx="12.1" ry="5.2"/>
	<path class="st12_seattle-89" d="M130.3,102.8l1.8-29.3h1l1.9,29.3C133.6,103.8,131.7,103.8,130.3,102.8z"/>
</g>
</svg>