<svg version="1.1" id="Layer_1" xmlns="http://www.w3.org/2000/svg" xmlns:xlink="http://www.w3.org/1999/xlink" x="0px" y="0px" viewBox="0 0 500 500" style="width: 166px;" xml:space="preserve" data-imageid="soccer-58" imageName="Soccer" class="illustrations_image">
<style type="text/css">
	.st0_soccer-58{fill:#D1D3D4;}
	.st1_soccer-58{fill:#FFFFFF;}
	.st2_soccer-58{fill:#231F20;}
	.st3_soccer-58{fill:#68E1FD;}
	.st4_soccer-58{fill:none;}
</style>
<path id="Ground_soccer-58" class="st0_soccer-58" d="M470.1,349H48.6c-0.4,0-0.7-0.3-0.7-0.7c0-0.4,0.3-0.7,0.7-0.7h421.5c0.4,0,0.7,0.3,0.7,0.7&#10;&#9;S470.5,349,470.1,349C470.1,349,470.1,349,470.1,349z"/>
<g id="Shadow_soccer-58">
	<ellipse class="st0_soccer-58" cx="186.7" cy="395" rx="100.2" ry="3.9"/>
	<ellipse class="st0_soccer-58" cx="375.5" cy="393.6" rx="26" ry="3.6"/>
</g>
<g id="Character_soccer-58">
	<path class="st1_soccer-58" d="M178.8,276.5c0,0-26.9,32-31.7,31.7s-75.7-20.9-75.7-20.9s6.4-11,4.1-8.6s9-4,9-4l57.3,6.4l16.9-30.3&#10;&#9;&#9;L178.8,276.5z"/>
	<path class="st2_soccer-58" d="M147.2,308.9L147.2,308.9c-4.9-0.3-73-20.1-75.9-20.9c-0.2-0.1-0.4-0.2-0.4-0.4c-0.1-0.2-0.1-0.4,0-0.6&#10;&#9;&#9;c1.5-2.6,3.2-5.6,4-7.2l-0.1-0.1c-0.4-0.6,0.1-1.2,0.3-1.4s0.8-0.8,1.4-0.4c0.1,0.1,0.2,0.1,0.2,0.2c1.7-0.8,4.8-2.4,7.5-3.9&#10;&#9;&#9;c0.1-0.1,0.3-0.1,0.4-0.1l56.8,6.3l16.6-29.9c0.1-0.2,0.3-0.3,0.6-0.4c0.2,0,0.5,0.1,0.6,0.3l20.1,25.6c0.2,0.3,0.2,0.6,0,0.9&#10;&#9;&#9;C174.9,282.3,152.2,308.9,147.2,308.9z M72.5,286.9c24.7,7.2,71,20.4,74.7,20.6h0.1c3.3,0,20.4-18.8,30.7-31.1l-19.1-24.3&#10;&#9;&#9;l-16.4,29.4c-0.1,0.2-0.4,0.4-0.7,0.4l-57.1-6.3c-2.7,1.6-5.5,3-8.4,4.2C75.2,282.2,73.9,284.6,72.5,286.9L72.5,286.9z"/>
	<path class="st2_soccer-58" d="M207.9,256.8c0,0-21.7,31.6-38,46.6l-26.6-28.7c0,0,26.3-49.2,36.3-57.1C195.5,212.5,207.9,256.8,207.9,256.8z&#10;&#9;&#9;"/>
	<path class="st2_soccer-58" d="M169.9,304.1c-0.2,0-0.4-0.1-0.5-0.2l-26.6-28.7c-0.2-0.2-0.2-0.5-0.1-0.8c1.1-2,26.5-49.4,36.5-57.3&#10;&#9;&#9;c0.1-0.1,0.1-0.1,0.2-0.1c2.5-0.8,5.2-0.5,7.5,0.8c12.4,6.6,21.2,37.5,21.6,38.8c0.1,0.2,0,0.4-0.1,0.6c-0.2,0.3-22,31.9-38.1,46.7&#10;&#9;&#9;C170.3,304.1,170.1,304.2,169.9,304.1z M144.2,274.7l25.8,27.8c15.2-14.2,35-42.7,37.2-45.8c-1-3.3-9.6-31.6-20.8-37.7&#10;&#9;&#9;c-1.9-1.1-4.2-1.4-6.3-0.7C170.7,225.9,146.9,269.8,144.2,274.7L144.2,274.7z"/>
	<path class="st2_soccer-58" d="M84.3,274.1c0,0-5.5-11.8-7.3-11.3s-47.7,13.4-47.1,15.8s2.6,5.5,8.3,5.7s30.3,2.7,33.2,3.1&#10;&#9;&#9;C74.5,281.9,78.9,277.3,84.3,274.1z"/>
	<path class="st2_soccer-58" d="M71.4,288L71.4,288c-3-0.4-27.5-2.9-33.2-3.1c-6.6-0.2-8.5-4-9-6.2c-0.2-1-0.5-2.2,23.1-9.5&#10;&#9;&#9;c11.7-3.6,23.6-7,24.5-7.2c2-0.5,5.5,6.1,8.2,11.7c0.2,0.3,0,0.7-0.3,0.9c-5.3,3.1-9.6,7.6-12.6,12.9C71.9,287.9,71.7,288,71.4,288&#10;&#9;&#9;z M30.6,278.6c0.6,2.2,2.4,4.7,7.6,4.9c5.5,0.2,28.3,2.5,32.8,3c3-5.2,7.2-9.6,12.4-12.8c-2.3-4.9-5.4-10.1-6.3-10.4&#10;&#9;&#9;C71.4,265,33.3,276,30.6,278.6L30.6,278.6z"/>
	<path class="st2_soccer-58" d="M104.1,297.4h-0.2c-0.4-0.1-0.6-0.5-0.5-0.9l5.4-19.1c0.1-0.4,0.5-0.6,0.9-0.5c0.4,0.1,0.6,0.5,0.5,0.9&#10;&#9;&#9;l-5.4,19.1C104.6,297.2,104.4,297.4,104.1,297.4z"/>
	<polygon class="st2_soccer-58" points="63.5,267.4 61,262.6 57.3,263.7 57.7,269.7 &#9;"/>
	<path class="st2_soccer-58" d="M57.7,270.4c-0.1,0-0.3,0-0.4-0.1c-0.2-0.1-0.3-0.3-0.3-0.5l-0.4-6.1c0-0.3,0.2-0.6,0.5-0.7l3.7-1.1&#10;&#9;&#9;c0.3-0.1,0.7,0.1,0.8,0.4l2.5,4.8c0.1,0.2,0.1,0.4,0,0.6c-0.1,0.2-0.2,0.3-0.4,0.4l-5.7,2.4C57.9,270.4,57.8,270.4,57.7,270.4z&#10;&#9;&#9; M58,264.2l0.3,4.5l4.2-1.7l-1.9-3.6L58,264.2z"/>
	<polygon class="st2_soccer-58" points="74.6,264 72.1,259.2 68.4,260.3 68.8,266.4 &#9;"/>
	<path class="st2_soccer-58" d="M68.8,267.1c-0.1,0-0.3,0-0.4-0.1c-0.2-0.1-0.3-0.3-0.3-0.5l-0.4-6c0-0.3,0.2-0.6,0.5-0.7l3.7-1.1&#10;&#9;&#9;c0.3-0.1,0.7,0,0.8,0.4l2.5,4.8c0.1,0.2,0.1,0.4,0,0.6c-0.1,0.2-0.2,0.3-0.4,0.4l-5.7,2.3C69,267,68.9,267.1,68.8,267.1z&#10;&#9;&#9; M69.1,260.8l0.3,4.5l4.2-1.7l-1.8-3.6L69.1,260.8z"/>
	<polygon class="st2_soccer-58" points="40.5,275.4 38.1,270.6 34.4,271.7 34.8,277.8 &#9;"/>
	<path class="st2_soccer-58" d="M34.8,278.5c-0.1,0-0.3,0-0.4-0.1c-0.2-0.1-0.3-0.3-0.3-0.5l-0.4-6c0-0.3,0.2-0.6,0.5-0.7l3.7-1.1&#10;&#9;&#9;c0.3-0.1,0.7,0.1,0.8,0.4l2.5,4.8c0.1,0.2,0.1,0.4,0,0.6c-0.1,0.2-0.2,0.3-0.4,0.4l-5.8,2.4C34.9,278.4,34.9,278.5,34.8,278.5z&#10;&#9;&#9; M35.1,272.2l0.3,4.5l4.2-1.7l-1.9-3.6L35.1,272.2z"/>
	<path class="st1_soccer-58" d="M185.2,131.6c0,0-25-5.1-34-2.8c-2.6,0.7-34.8,45.7-34.8,45.7s-13.5,10.5-11.3,15s10.2,11.1,13.6,11.6&#10;&#9;&#9;c2.4,0.3,5-2.1,10.2-7.9c1.7-1.9,2.1-12.9,2.1-12.9l30.5-32.9l17.4,3.8"/>
	<path class="st2_soccer-58" d="M119.2,201.9h-0.5c-3.7-0.5-11.8-7.4-14.1-12c-2.4-4.8,9.6-14.4,11.4-15.8c7.7-10.7,32.5-45.2,35.1-45.9&#10;&#9;&#9;c9.1-2.3,33.3,2.6,34.3,2.8c0.4,0.1,0.6,0.4,0.6,0.8s-0.4,0.6-0.8,0.6c0,0,0,0-0.1,0c-0.2-0.1-25-5-33.7-2.8&#10;&#9;&#9;c-2.1,1-22.2,28.4-34.4,45.4l-0.1,0.1c-5.1,3.9-12.5,11.2-11.1,14.1c2.2,4.5,10,10.8,13,11.2c2,0.3,4.6-2.1,9.5-7.6&#10;&#9;&#9;c1.1-1.2,1.8-8.3,1.9-12.4c0-0.2,0.1-0.3,0.2-0.4l30.5-32.9c0.2-0.2,0.4-0.3,0.7-0.2l17.4,3.8c0.4,0.1,0.6,0.5,0.5,0.8&#10;&#9;&#9;c-0.1,0.4-0.5,0.6-0.8,0.5l-17.1-3.7l-30,32.4c-0.1,2.4-0.6,11.2-2.3,13.1C124.5,199.2,121.8,201.9,119.2,201.9z"/>
	<path class="st1_soccer-58" d="M275.3,181.8l20.1,16.1l35.8-17.9c0,0,5.4-9.8,8-10.7s14.2-7.9,16,0.4c0.7,3.5,3.2,11.8-8.9,20.1&#10;&#9;&#9;c-4.3,3-10.6,4.4-10.6,4.4s-30.9,22.6-39.6,26.9c-5.9,2.9-35-25.1-35-25.1L275.3,181.8z"/>
	<path class="st2_soccer-58" d="M295.2,222c-7.9,0-31.7-22.7-34.5-25.4c-0.1-0.1-0.2-0.3-0.2-0.5c0-0.2,0.1-0.4,0.2-0.5l14.2-14.2&#10;&#9;&#9;c0.3-0.3,0.7-0.3,0.9-0.1l19.8,15.9l35.2-17.6c0.9-1.6,5.6-9.9,8.2-10.8c0.4-0.1,0.9-0.4,1.6-0.7c3.3-1.6,8.9-4.1,12.5-2.4&#10;&#9;&#9;c1.5,0.8,2.5,2.3,2.8,4l0.1,0.5c0.9,3.9,2.6,12.1-9.2,20.3c-3.3,2.1-6.9,3.6-10.7,4.4c-2.4,1.7-31.1,22.7-39.5,26.9&#10;&#9;&#9;C296.1,221.9,295.7,222,295.2,222z M262.2,196c11.2,10.7,29.8,26.4,33.7,24.4c8.5-4.2,39.1-26.6,39.5-26.8c0.1-0.1,0.2-0.1,0.3-0.1&#10;&#9;&#9;c0.1,0,6.2-1.4,10.4-4.3c11.1-7.7,9.5-15.2,8.7-18.9l-0.1-0.5c-0.2-1.3-0.9-2.4-2-3c-3-1.5-8.4,1-11.3,2.4&#10;&#9;&#9;c-0.8,0.4-1.4,0.6-1.8,0.8c-1.7,0.6-5.6,6.7-7.6,10.4c-0.1,0.1-0.2,0.2-0.3,0.3l-35.8,17.9c-0.2,0.1-0.5,0.1-0.8-0.1l-19.6-15.8&#10;&#9;&#9;L262.2,196z"/>
	<path class="st3_soccer-58 targetColor" d="M207.1,134.6c45.4,9.8,90,58.5,90,58.5l-22,21.2l-17.6-14.7c-4.3,8.6-25.5,41.4-25.5,41.4s-29.8-3.6-52.4-23.2&#10;&#9;&#9;C178,222,203.9,144.2,207.1,134.6z" style="fill: rgb(104, 225, 253);"/>
	<path class="st2_soccer-58" d="M231.3,149c0,0-5.7,16,3.8,22.2c7.7,5,11.6-5,11.6-5L231.3,149z"/>
	<path class="st2_soccer-58" d="M239.3,173.3c-1.6-0.1-3.2-0.6-4.5-1.5c-9.9-6.4-4.3-22.3-4.1-23c0.1-0.2,0.3-0.4,0.5-0.4&#10;&#9;&#9;c0.2-0.1,0.5,0,0.7,0.2l15.4,17.2c0.2,0.2,0.2,0.5,0.1,0.7c-0.1,0.2-2.1,5.2-6.1,6.5C240.6,173.2,239.9,173.3,239.3,173.3z&#10;&#9;&#9; M231.6,150.4c-1.1,3.7-3.6,15.3,3.9,20.2c1.5,1.1,3.5,1.5,5.3,1c2.8-0.9,4.5-4.2,5.1-5.3L231.6,150.4z"/>
	<path class="st1_soccer-58" d="M222.4,243.4c0,0,47.7,10.2,52.5,19.3s-16.1,101.4-16.1,101.4l-20.5,5.7l5.8-85.1l-26.7-13.4"/>
	<path class="st2_soccer-58" d="M238.2,370.5c-0.2,0-0.3-0.1-0.4-0.2c-0.2-0.1-0.3-0.4-0.3-0.6l5.8-84.7L217,271.9c-0.3-0.2-0.5-0.6-0.3-0.9&#10;&#9;&#9;c0,0,0,0,0,0c0.2-0.3,0.6-0.5,0.9-0.3l26.8,13.3c0.3,0.1,0.4,0.4,0.4,0.7l-5.8,84.2l19.1-5.3c7.2-31.9,19.8-93.5,16.1-100.5&#10;&#9;&#9;c-4.6-8.8-51.6-18.9-52-19c-0.4-0.1-0.6-0.5-0.5-0.8c0.1-0.4,0.5-0.6,0.8-0.5c2,0.4,48,10.4,53,19.7s-15.2,98.1-16.1,101.9&#10;&#9;&#9;c-0.1,0.2-0.2,0.4-0.5,0.5l-20.5,5.7L238.2,370.5z M258.8,364.1L258.8,364.1z"/>
	<path class="st2_soccer-58" d="M232,240.9l18.3,7.8l-16.1,34.7c0,0-44.1-7.2-55.5-32.3c-7.5-16.5,1-33.4,1-33.4L232,240.9z"/>
	<path class="st2_soccer-58" d="M234.2,284.1h-0.1c-8.1-1.5-16-3.8-23.6-6.8c-11.5-4.6-26.5-12.8-32.5-26c-7.6-16.6,0.9-33.8,1-34&#10;&#9;&#9;c0.2-0.3,0.6-0.5,0.9-0.3l52.4,23.2l18.3,7.8c0.2,0.1,0.3,0.2,0.4,0.4c0.1,0.2,0.1,0.4,0,0.6l-16.1,34.7&#10;&#9;&#9;C234.7,283.9,234.5,284.1,234.2,284.1z M180,218.6c-1.4,3.1-7.2,17.9-0.7,32.2c10.5,23,49.5,30.9,54.5,31.8l15.6-33.5l-17.6-7.5&#10;&#9;&#9;l0,0L180,218.6z"/>
	<path class="st2_soccer-58" d="M240.5,337.1c-0.4,0-0.7-0.3-0.7-0.7c0-0.4,0.3-0.7,0.7-0.7h24.2l0,0c0.4,0,0.7,0.3,0.7,0.7v0&#10;&#9;&#9;c0,0.4-0.3,0.7-0.7,0.7c0,0,0,0,0,0L240.5,337.1L240.5,337.1z"/>
	<path class="st1_soccer-58" d="M198.3,271.4h-0.2c-0.2-0.1-20.4-6-23.6-33.7c0-0.4,0.2-0.7,0.6-0.8c0,0,0,0,0,0c0.4,0,0.7,0.2,0.8,0.6&#10;&#9;&#9;c0,0,0,0,0,0c3.1,26.7,22.4,32.4,22.6,32.4c0.4,0.1,0.6,0.5,0.5,0.9C198.8,271.2,198.6,271.4,198.3,271.4L198.3,271.4z"/>
	<path class="st1_soccer-58" d="M337,171.3c3.2-1.8,6.7-3.1,10.4-3.7c0.7-0.2,1.5-0.1,2.1,0.3c0.6,0.6,0.6,1.5,0.2,2.2&#10;&#9;&#9;c-0.5,0.7-1.1,1.2-1.8,1.6c-2.5,1.7-5,3.4-7.4,5.1c-0.7,0.3-1,1.1-0.8,1.8c0.5,3.3-0.2,6.6-2,9.3"/>
	<path class="st2_soccer-58" d="M337.6,188.6c-0.1,0-0.3,0-0.4-0.1c-0.3-0.2-0.4-0.6-0.2-1c0,0,0,0,0,0c1.7-2.6,2.4-5.7,1.9-8.8&#10;&#9;&#9;c-0.1-0.3-0.1-0.7,0-1.1c0.2-0.6,0.6-1.1,1.1-1.4c2.4-1.7,4.9-3.5,7.4-5.1c0.6-0.3,1.1-0.8,1.5-1.4c0.3-0.4,0.3-0.9,0-1.3&#10;&#9;&#9;c-0.5-0.2-1-0.3-1.5-0.1c-3.6,0.6-7,1.8-10.2,3.6c-0.3,0.2-0.8,0-1-0.3c-0.2-0.3-0.1-0.8,0.3-0.9c0,0,0,0,0,0&#10;&#9;&#9;c3.3-1.9,6.9-3.2,10.6-3.8c0.9-0.2,1.9-0.1,2.7,0.5c0.8,0.8,0.9,2.1,0.3,3.1c-0.5,0.8-1.2,1.4-2,1.8c-2.5,1.7-5,3.4-7.4,5.1&#10;&#9;&#9;c-0.2,0.1-0.5,0.4-0.6,0.6c0,0.2,0,0.3,0,0.5c0.6,3.4-0.2,7-2.2,9.9C338.1,188.5,337.9,188.6,337.6,188.6z"/>
	<path class="st2_soccer-58" d="M238.3,365.5c0,0,14.2,2.2,21.3-5.2c2.8,5.2,7.6,9.1,13.4,10.7c9.9,3,18.5,5.8,18.4,8.2s-4.6,4-4.6,4&#10;&#9;&#9;s-43.9,7.5-50.8,3.1S238.3,365.5,238.3,365.5z"/>
	<path class="st2_soccer-58" d="M245.7,388.4c-4.7,0-8.4-0.4-10-1.5c-7.3-4.7,1.7-21.1,2.1-21.8c0.1-0.3,0.4-0.4,0.7-0.4&#10;&#9;&#9;c0.1,0,13.9,2.1,20.7-5c0.2-0.2,0.4-0.2,0.6-0.2c0.2,0,0.4,0.2,0.5,0.4c2.7,5,7.4,8.8,12.9,10.3c12.9,3.9,19,6.2,18.9,8.9&#10;&#9;&#9;s-4.5,4.5-5,4.7C285.6,384.1,260.6,388.4,245.7,388.4z M238.7,366.2c-1.3,2.5-8,15.8-2.3,19.5c5.2,3.4,35.2-0.6,50.3-3.2&#10;&#9;&#9;c0.9-0.3,3.9-1.8,4-3.4c0.1-2.1-12.1-5.8-17.9-7.5c-5.6-1.6-10.4-5.2-13.4-10.2C252.7,367.6,241.2,366.5,238.7,366.2L238.7,366.2z"/>
	<path class="st1_soccer-58" d="M239,144c-2.6-2.4-3-6.3-3.2-9.6c-0.4-8.1-0.6-17.7,4.9-24.2c5.8-6.8,18.5-9.8,27-7.7&#10;&#9;&#9;c11.9,3,18.4,16.4,11,26.9c-1.4,2-2.3,2.8-4.6,2.1s-4.5-1.5-6.9-0.3c-2.1,1.1-3.7,3.2-4.9,5.1c-1.1,2.1-2.5,4-4.2,5.7&#10;&#9;&#9;c-3.6,3.2-9.1,3.4-13.7,3.6C242.5,145.9,240.5,145.3,239,144z"/>
	<path class="st2_soccer-58" d="M243.9,146.4c-2,0.1-3.9-0.6-5.4-1.9l0,0c-2.7-2.4-3.2-6.3-3.4-10.1c-0.3-7.5-0.8-17.8,5.1-24.7&#10;&#9;&#9;c6.2-7.3,19.3-10,27.7-7.9c6.2,1.5,11.3,5.9,13.5,11.9c2,5.4,1.2,11.4-2.1,16c-1.4,2-2.5,3.2-5.4,2.4l-0.9-0.2&#10;&#9;&#9;c-2-0.6-3.6-1.1-5.5-0.1s-3.5,3-4.6,4.9l-0.4,0.6c-1.1,1.9-2.4,3.7-3.9,5.2c-3.5,3.2-8.6,3.5-13.2,3.8l-0.9,0.1L243.9,146.4z&#10;&#9;&#9; M239.4,143.4c1.4,1.2,3.2,1.7,5.1,1.5l0.9-0.1c4.3-0.3,9.2-0.5,12.3-3.4c1.5-1.5,2.7-3.2,3.7-5l0.4-0.6c1.2-2,2.8-4.2,5.2-5.4&#10;&#9;&#9;s4.5-0.6,6.5,0l0.8,0.2c1.9,0.5,2.5,0.1,3.9-1.9c3.1-4.3,3.8-9.8,2-14.7c-2.1-5.5-6.8-9.6-12.6-11c-7.8-2-20.5,0.6-26.3,7.4&#10;&#9;&#9;c-5.5,6.5-5.1,16.5-4.8,23.7C236.7,137.8,237.1,141.3,239.4,143.4L239.4,143.4z"/>
	<path class="st1_soccer-58" d="M272.1,137.4c0,0,2.1,10.1,0.3,11.3s-4.9-1.3-4.9-1.3"/>
	<path class="st2_soccer-58" d="M271.3,149.8c-1.9,0-4-1.6-4.2-1.8c-0.3-0.2-0.4-0.7-0.1-1c0.2-0.3,0.7-0.4,1-0.1c0.7,0.6,3,2.1,4.1,1.3&#10;&#9;&#9;c0.7-0.5,0.5-5.5-0.6-10.6c-0.1-0.4,0.1-0.8,0.5-0.9c0.4-0.1,0.8,0.1,0.9,0.5c0,0,0,0,0,0.1c0.6,3.2,2,10.7,0,12&#10;&#9;&#9;C272.4,149.6,271.9,149.8,271.3,149.8z"/>
	<path class="st1_soccer-58" d="M277.6,119.2c2.3,4.1-3.4,16.7-4.9,20.5c-2.2,5.3-4.5,10.5-6.9,15.7c-1.5,3.3-10.3-0.1-11.4-1.8l-8.6,13.3&#10;&#9;&#9;c0,0-2.5,3.8-8.2-2.3s-6.2-15.7-6.2-15.7l10.4-11c0,0,5.7,2.4,11.9-3.1s10.2-16.1,10.2-16.1S275.4,115.2,277.6,119.2z"/>
	<path class="st2_soccer-58" d="M243.3,168.8c-1.9,0-4-1.2-6.3-3.7c-5.8-6.2-6.4-15.7-6.4-16.1c0-0.2,0.1-0.4,0.2-0.5l10.4-11&#10;&#9;&#9;c0.2-0.2,0.5-0.3,0.8-0.2c0.2,0.1,5.4,2.1,11.2-3c6-5.3,10-15.7,10.1-15.8c0.1-0.2,0.2-0.4,0.5-0.4c1.2-0.4,12.2-3.6,14.6,0.7l0,0&#10;&#9;&#9;c2,3.6-1.1,12.2-4.5,20.1l-0.4,1c-2.2,5.3-4.5,10.6-6.9,15.7c-0.6,1.1-1.7,1.8-3,1.8c-2.9,0.2-7.1-1.4-8.9-2.7l-8.2,12.6&#10;&#9;&#9;c-0.6,0.9-1.6,1.4-2.7,1.5L243.3,168.8z M232,149.2c0.1,1.6,1.1,9.7,6,14.9c2.6,2.8,4.4,3.3,5.5,3.2c0.6,0,1.2-0.4,1.6-0.9&#10;&#9;&#9;l8.6-13.3c0.1-0.2,0.3-0.3,0.6-0.3c0.2,0,0.4,0.1,0.6,0.3c0.6,0.9,5.3,3.1,8.4,2.8c0.7,0,1.4-0.3,1.8-0.9&#10;&#9;&#9;c2.4-5.1,4.7-10.4,6.9-15.7l0.4-1c1.8-4.2,6.4-15.4,4.5-18.9c-1.5-2.8-9.5-1.1-12.6-0.2c-0.8,1.9-4.6,11-10.3,16&#10;&#9;&#9;c-5.5,4.9-10.6,3.9-12.1,3.4L232,149.2z"/>
	<path class="st1_soccer-58" d="M267.2,151.4c-3.5-1-6.2-4-6.7-7.6"/>
	<path class="st2_soccer-58" d="M267.2,152.1h-0.2c-0.1,0-6.3-1.6-7.3-8.2c-0.1-0.4,0.2-0.7,0.6-0.8c0.4-0.1,0.7,0.2,0.8,0.6&#10;&#9;&#9;c0.5,3.4,2.9,6.1,6.2,7.1c0.4,0.1,0.6,0.5,0.5,0.9C267.8,151.9,267.6,152.1,267.2,152.1z"/>
	<path class="st1_soccer-58" d="M260.6,136.7c0.4-1.4,0.4-2.9,0-4.2c-0.2-1.1-0.5-2.2-1-3.2c-0.5-1-1.4-1.7-2.5-2c-1-0.1-2,0.2-2.7,0.8&#10;&#9;&#9;c-0.7,0.6-1.3,1.5-1.7,2.4c-1.8,4-1.4,8.6,1.2,12.2l-0.2-0.4"/>
	<path class="st2_soccer-58" d="M253.9,143.4c-0.2,0-0.4-0.1-0.6-0.3c-2.7-3.8-3.2-8.7-1.3-12.9c0.4-1,1.1-1.9,1.9-2.6c0.9-0.8,2.1-1.2,3.3-1&#10;&#9;&#9;c1.3,0.3,2.4,1.2,3,2.4c0.5,1.1,0.8,2.2,1,3.4c0.4,1.5,0.4,3.1,0,4.6c-0.1,0.4-0.5,0.5-0.9,0.4c0,0,0,0,0,0&#10;&#9;&#9;c-0.4-0.1-0.5-0.5-0.4-0.9c0.3-1.3,0.3-2.6,0-3.9c-0.1-1-0.4-2-0.9-3c-0.4-0.8-1.1-1.4-2-1.7c-0.8-0.1-1.6,0.1-2.2,0.7&#10;&#9;&#9;c-0.7,0.6-1.2,1.3-1.5,2.1c-1.6,3.5-1.3,7.6,0.7,10.9c0.2,0.1,0.3,0.2,0.4,0.4l0.2,0.4c0.1,0.3,0,0.7-0.3,0.9&#10;&#9;&#9;C254.1,143.4,254,143.4,253.9,143.4z"/>
	<path class="st2_soccer-58" d="M254.4,153.6c0,0-3.9-3.2-4.8-7.1c0,0-4.7,7.4,1.3,12.5L254.4,153.6z"/>
	<path class="st2_soccer-58" d="M250.9,159.7c-0.2,0-0.3-0.1-0.4-0.2c-6.4-5.4-1.5-13.4-1.5-13.4c0.1-0.2,0.4-0.4,0.7-0.3&#10;&#9;&#9;c0.3,0,0.5,0.3,0.6,0.5c0.8,3.6,4.5,6.7,4.6,6.8c0.3,0.2,0.3,0.6,0.1,0.9l-3.5,5.4c-0.1,0.2-0.3,0.3-0.5,0.3L250.9,159.7z&#10;&#9;&#9; M249.4,148.3c-0.9,2.2-1.9,6.3,1.3,9.6l2.7-4.2C251.8,152.2,250.4,150.4,249.4,148.3L249.4,148.3z"/>
	<ellipse transform="matrix(0.5219 -0.853 0.853 0.5219 15.5362 293.4589)" class="st2_soccer-58" cx="269.5" cy="132.9" rx="2" ry="0.8"/>
	<line class="st4_soccer-58" x1="272.8" y1="131.7" x2="269.8" y2="128.5"/>
	<path class="st2_soccer-58" d="M272.8,132.4c-0.2,0-0.4-0.1-0.5-0.2l-3-3.2c-0.3-0.3-0.3-0.7,0-1c0.3-0.3,0.7-0.3,1,0c0,0,0,0,0,0l3,3.2&#10;&#9;&#9;c0.3,0.3,0.3,0.7,0,1C273.2,132.3,273,132.4,272.8,132.4z"/>
	<polygon class="st2_soccer-58" points="245.4,387.8 244.6,393.2 240.7,393.3 239.1,387.5 &#9;"/>
	<path class="st2_soccer-58" d="M240.7,394c-0.3,0-0.6-0.2-0.7-0.5l-1.6-5.9c-0.1-0.2,0-0.4,0.1-0.6c0.1-0.2,0.4-0.3,0.6-0.3l6.2,0.4&#10;&#9;&#9;c0.2,0,0.4,0.1,0.5,0.2c0.1,0.2,0.2,0.3,0.1,0.5l-0.8,5.4c0,0.3-0.3,0.6-0.7,0.6L240.7,394L240.7,394z M240.1,388.2l1.2,4.4&#10;&#9;&#9;l2.7-0.1l0.6-4L240.1,388.2z"/>
	<polygon class="st2_soccer-58" points="256.2,386.8 255.4,392.2 251.6,392.3 250,386.5 &#9;"/>
	<path class="st2_soccer-58" d="M251.6,393c-0.3,0-0.6-0.2-0.7-0.5l-1.6-5.9c-0.1-0.4,0.1-0.8,0.5-0.9c0.1,0,0.1,0,0.2,0l6.2,0.4&#10;&#9;&#9;c0.2,0,0.4,0.1,0.5,0.2c0.1,0.1,0.2,0.3,0.1,0.5l-0.8,5.4c-0.1,0.3-0.3,0.6-0.7,0.6L251.6,393L251.6,393z M250.9,387.2l1.2,4.4&#10;&#9;&#9;l2.7-0.1l0.6-4L250.9,387.2z"/>
	<polygon class="st2_soccer-58" points="284.6,383.2 283.8,388.5 280,388.7 278.4,382.8 &#9;"/>
	<path class="st2_soccer-58" d="M280,389.4c-0.3,0-0.6-0.2-0.7-0.5l-1.6-5.9c-0.1-0.2,0-0.4,0.1-0.6c0.1-0.2,0.4-0.3,0.6-0.3l6.2,0.4&#10;&#9;&#9;c0.2,0,0.4,0.1,0.5,0.2c0.1,0.1,0.2,0.3,0.1,0.5l-0.8,5.4c0,0.3-0.3,0.6-0.7,0.6L280,389.4L280,389.4z M279.3,383.6l1.2,4.4&#10;&#9;&#9;l2.7-0.1l0.6-4L279.3,383.6z"/>
	<path class="st3_soccer-58 targetColor" d="M212.3,135.4c-10.8-3.9-22.2-6.2-33.7-6.8l-11.2,26.3l38.6,16.9L212.3,135.4z" style="fill: rgb(104, 225, 253);"/>
	<path class="st2_soccer-58" d="M210.3,172.1c-0.1,0-0.2,0-0.2,0l-36.4-13.7c-0.4-0.1-0.6-0.5-0.4-0.9c0.1-0.4,0.5-0.6,0.9-0.4l0,0l36.4,13.7&#10;&#9;&#9;c0.4,0.1,0.5,0.5,0.4,0.9C210.9,171.9,210.6,172.1,210.3,172.1z"/>
	<path class="st1_soccer-58" d="M171.8,296.8c-0.2,0-0.4-0.1-0.5-0.2l-23.7-25c-0.3-0.3-0.3-0.7,0-1c0,0,0,0,0,0c0.3-0.3,0.7-0.3,1,0l23.7,25&#10;&#9;&#9;c0.3,0.3,0.3,0.7,0,1C172.1,296.7,172,296.8,171.8,296.8L171.8,296.8z"/>
	<path class="st1_soccer-58" d="M230.4,280.2c-0.1,0-0.2,0-0.3-0.1c-0.3-0.2-0.5-0.6-0.3-0.9c0,0,0,0,0,0l15-30.8c0.2-0.3,0.6-0.5,0.9-0.3&#10;&#9;&#9;c0,0,0,0,0,0c0.3,0.2,0.5,0.6,0.3,0.9c0,0,0,0,0,0l-15,30.8C230.9,280,230.7,280.2,230.4,280.2z"/>
	<path class="st2_soccer-58" d="M238.9,230.8c-0.1,0-0.3,0-0.4-0.1c-0.3-0.2-0.4-0.7-0.2-1c0,0,0,0,0,0c0.2-0.3,19.9-30.6,24.5-42&#10;&#9;&#9;c0.1-0.4,0.5-0.6,0.9-0.5c0.4,0.1,0.6,0.5,0.5,0.9c0,0,0,0.1,0,0.1c-4.7,11.6-23.8,41-24.6,42.2&#10;&#9;&#9;C239.4,230.7,239.2,230.8,238.9,230.8z"/>
</g>
<g id="Ball_soccer-58">
	<path class="st1_soccer-58" d="M434.5,336.4c0,5-1.4,9.8-4.1,14c-7.7,12.3-23.9,16-36.2,8.3c-3.3-2.1-6.2-4.9-8.3-8.3c-5.1-8-5.5-18.1-1-26.4&#10;&#9;&#9;c2.8-5.3,7.4-9.5,13-11.9c13.4-5.6,28.8,0.7,34.4,14.1C433.8,329.4,434.5,332.8,434.5,336.4L434.5,336.4z"/>
	<path class="st2_soccer-58" d="M408.2,310.1c3.5,0,6.9,0.7,10.2,2c9.8,4.1,16.1,13.6,16.1,24.2c0,5-1.4,9.8-4.1,14&#10;&#9;&#9;c-7.7,12.3-23.9,16-36.2,8.3c-3.3-2.1-6.2-4.9-8.3-8.3c-5.1-8-5.5-18.1-1-26.4c2.8-5.3,7.4-9.5,13-11.9&#10;&#9;&#9;C401.3,310.8,404.7,310.1,408.2,310.1 M408.2,308.7c-3.7,0-7.3,0.7-10.7,2.2c-14.1,5.9-20.7,22.2-14.8,36.3&#10;&#9;&#9;c2.6,6.2,7.5,11.3,13.6,14.2c13.8,6.6,30.3,0.7,36.9-13.1c3.8-7.9,3.6-17.1-0.6-24.9c-3-5.6-7.8-10-13.7-12.5&#10;&#9;&#9;C415.5,309.4,411.9,308.7,408.2,308.7L408.2,308.7z"/>
	<polygon class="st0_soccer-58" points="408.2,326.9 398.3,334.1 402.1,345.9 414.4,345.9 418.2,334.1 &#9;"/>
	<path class="st0_soccer-58" d="M398.3,312.3l-3.8,11.7h-9.4c2.8-5.3,7.4-9.5,13-11.9L398.3,312.3z"/>
	<path class="st0_soccer-58" d="M431.4,324H422l-3.8-11.7l0.2-0.1C424,314.5,428.6,318.7,431.4,324z"/>
	<path class="st0_soccer-58" d="M398.3,360.5l-3.8-11.7h-9.4c2.8,5.3,7.4,9.5,13,11.9L398.3,360.5z"/>
	<path class="st0_soccer-58" d="M431.4,348.8H422l-3.8,11.7l0.2,0.1C424,358.3,428.6,354.1,431.4,348.8z"/>
</g>
</svg>