<svg id="_0463_information_carousel" xmlns="http://www.w3.org/2000/svg" viewBox="0 0 500 500" data-imageid="social-media-carousel-85" imageName="Social Media Carousel" class="illustrations_image" style="width: 166px;"><defs><style>.cls-1_social-media-carousel-85{fill:#fff;}.cls-2_social-media-carousel-85{fill:#f4a28c;}.cls-3_social-media-carousel-85{opacity:.44;}.cls-3_social-media-carousel-85,.cls-4_social-media-carousel-85,.cls-5_social-media-carousel-85,.cls-6_social-media-carousel-85{fill:none;}.cls-7_social-media-carousel-85{fill:#e6e6e6;}.cls-4_social-media-carousel-85{opacity:.03;}.cls-5_social-media-carousel-85{opacity:.3;}.cls-8_social-media-carousel-85{fill:#24285b;}.cls-9_social-media-carousel-85{fill:#000001;}.cls-10_social-media-carousel-85{fill:#ffd200;}.cls-6_social-media-carousel-85{opacity:.1;}.cls-11_social-media-carousel-85{fill:#68e1fd;}</style></defs><g id="bg_social-media-carousel-85" class="cls-5_social-media-carousel-85"><path class="cls-7_social-media-carousel-85" d="m109.96,70.86C63.52,97.74,29.06,165.9,22.27,248.34c-5.72,69.47,7.96,146.25,88.47,168.12,156.67,42.56,318.18,47.55,355.64-67.28,37.46-114.83-13.81-298.67-93.31-311.4-63.22-10.12-172.39-19.42-263.1,33.07Z"/></g><g id="phone_social-media-carousel-85"><rect class="cls-8_social-media-carousel-85" x="166.26" y="91.52" width="167.48" height="288.91" rx="11.13" ry="11.13"/><rect class="cls-11_social-media-carousel-85 targetColor" x="182.59" y="116.6" width="134.81" height="224.96" style="fill: rgb(104, 225, 253);"/><g class="cls-4_social-media-carousel-85"><circle class="cls-9_social-media-carousel-85" cx="234.56" cy="323.78" r="4.41"/></g><g class="cls-3_social-media-carousel-85"><circle class="cls-1_social-media-carousel-85" cx="250" cy="323.78" r="4.41"/></g><g class="cls-4_social-media-carousel-85"><circle class="cls-9_social-media-carousel-85" cx="265.44" cy="323.78" r="4.41"/></g><g class="cls-4_social-media-carousel-85"><rect class="cls-9_social-media-carousel-85" x="200.58" y="141.41" width="98.83" height="84.36"/></g><g class="cls-4_social-media-carousel-85"><rect class="cls-9_social-media-carousel-85" x="200.58" y="242.04" width="69.34" height="7.72"/></g><g class="cls-4_social-media-carousel-85"><rect class="cls-9_social-media-carousel-85" x="274.6" y="242.04" width="24.81" height="7.72"/></g><g class="cls-4_social-media-carousel-85"><rect class="cls-9_social-media-carousel-85" x="200.58" y="265.75" width="32.39" height="7.72"/></g><g class="cls-4_social-media-carousel-85"><rect class="cls-9_social-media-carousel-85" x="239.87" y="265.75" width="59.55" height="7.72"/></g><g class="cls-4_social-media-carousel-85"><rect class="cls-9_social-media-carousel-85" x="200.58" y="289.46" width="74.85" height="7.72"/></g></g><g id="panel2_social-media-carousel-85"><rect class="cls-11_social-media-carousel-85 targetColor" x="16.27" y="116.6" width="134.81" height="224.96" style="fill: rgb(104, 225, 253);"/><g class="cls-3_social-media-carousel-85"><circle class="cls-1_social-media-carousel-85" cx="68.24" cy="323.78" r="4.41"/></g><g class="cls-4_social-media-carousel-85"><circle class="cls-9_social-media-carousel-85" cx="83.68" cy="323.78" r="4.41"/></g><g class="cls-4_social-media-carousel-85"><circle class="cls-9_social-media-carousel-85" cx="99.11" cy="323.78" r="4.41"/></g><g class="cls-4_social-media-carousel-85"><rect class="cls-9_social-media-carousel-85" x="34.26" y="141.41" width="98.83" height="84.36"/></g><g class="cls-4_social-media-carousel-85"><rect class="cls-9_social-media-carousel-85" x="34.26" y="242.04" width="69.34" height="7.72"/></g><g class="cls-4_social-media-carousel-85"><rect class="cls-9_social-media-carousel-85" x="108.28" y="242.04" width="24.81" height="7.72"/></g><g class="cls-4_social-media-carousel-85"><rect class="cls-9_social-media-carousel-85" x="34.26" y="265.75" width="32.39" height="7.72"/></g><g class="cls-4_social-media-carousel-85"><rect class="cls-9_social-media-carousel-85" x="73.54" y="265.75" width="59.55" height="7.72"/></g><g class="cls-4_social-media-carousel-85"><rect class="cls-9_social-media-carousel-85" x="34.26" y="289.46" width="74.85" height="7.72"/></g></g><g id="panel1_social-media-carousel-85"><rect class="cls-11_social-media-carousel-85 targetColor" x="348.92" y="116.6" width="134.81" height="224.96" style="fill: rgb(104, 225, 253);"/><g class="cls-4_social-media-carousel-85"><circle class="cls-9_social-media-carousel-85" cx="400.89" cy="323.78" r="4.41"/></g><g class="cls-4_social-media-carousel-85"><circle class="cls-9_social-media-carousel-85" cx="416.32" cy="323.78" r="4.41"/></g><g class="cls-3_social-media-carousel-85"><circle class="cls-1_social-media-carousel-85" cx="431.76" cy="323.78" r="4.41"/></g><g class="cls-4_social-media-carousel-85"><rect class="cls-9_social-media-carousel-85" x="366.91" y="141.41" width="98.83" height="84.36"/></g><g class="cls-4_social-media-carousel-85"><rect class="cls-9_social-media-carousel-85" x="366.91" y="242.04" width="69.34" height="7.72"/></g><g class="cls-4_social-media-carousel-85"><rect class="cls-9_social-media-carousel-85" x="440.93" y="242.04" width="24.81" height="7.72"/></g><g class="cls-4_social-media-carousel-85"><rect class="cls-9_social-media-carousel-85" x="366.91" y="265.75" width="32.39" height="7.72"/></g><g class="cls-4_social-media-carousel-85"><rect class="cls-9_social-media-carousel-85" x="406.19" y="265.75" width="59.55" height="7.72"/></g><g class="cls-4_social-media-carousel-85"><rect class="cls-9_social-media-carousel-85" x="366.91" y="289.46" width="74.85" height="7.72"/></g></g><g id="hand_social-media-carousel-85"><g class="cls-6_social-media-carousel-85"><path class="cls-9_social-media-carousel-85" d="m300.8,439.65c0-2.21-4.41-91.15-1.59-104.25,2.82-13.11,28.65-77.87,21.85-85.42-6.8-7.55-31.76,9.63-31.76,9.63,0,0,4.54-77.83-6.3-83.38-10.84-5.55-15.55,16.19-15.55,16.19l-5.73,87.07-28.41,159.75,67.49.41Z"/></g><path class="cls-2_social-media-carousel-85" d="m281.6,341.34c3.63-14.55,9.06-28.63,12.53-43.26,2.3-9.7,17.16-50.2,21.34-62.06,1.28-3.65,2.38-8.1-.11-11.06-1.56-1.86-4.22-2.54-6.61-2.15-2.39.39-4.54,1.73-6.36,3.32-4.18,3.65-11.8,21.68-17.37,21.66-6.78-.03-3.6-18.61-3.77-22.22-.76-15.42.37-35.08-5.65-49.6-4.46-10.76-15.58-9.32-18.17,2.32-2.59,11.64-2.5,60.39-2.5,60.39,0,0-43.32-7.45-50.72,5.77-7.39,13.22,5.1,97.12,5.1,97.12,0,0,72.3-.23,72.3-.23Z"/><polygon class="cls-10_social-media-carousel-85" points="286.87 470.06 286.09 336.72 205.15 318.94 172.57 470.06 286.87 470.06"/><g class="cls-6_social-media-carousel-85"><polygon class="cls-9_social-media-carousel-85" points="286.87 470.06 286.09 336.72 247.45 328.23 240.54 470.06 286.87 470.06"/></g></g></svg>