<svg id="_0286_startup" xmlns="http://www.w3.org/2000/svg" xmlns:xlink="http://www.w3.org/1999/xlink" viewBox="0 0 500 500" data-imageid="startup-1" imageName="Startup" class="illustrations_image" style="width: 166px;"><defs><style>.cls-1_startup-1{opacity:.45;}.cls-1_startup-1,.cls-2_startup-1,.cls-3_startup-1,.cls-4_startup-1,.cls-5_startup-1,.cls-6_startup-1,.cls-7_startup-1,.cls-8_startup-1,.cls-9_startup-1,.cls-10_startup-1,.cls-11_startup-1,.cls-12_startup-1,.cls-13_startup-1,.cls-14_startup-1,.cls-15_startup-1,.cls-16_startup-1,.cls-17_startup-1,.cls-18_startup-1,.cls-19_startup-1,.cls-20_startup-1,.cls-21_startup-1,.cls-22_startup-1{stroke-width:0px;}.cls-1_startup-1,.cls-17_startup-1{isolation:isolate;}.cls-1_startup-1,.cls-17_startup-1,.cls-22_startup-1{fill:#68e1fd;}.cls-2_startup-1{fill:url(#linear-gradient);}.cls-3_startup-1{fill:url(#linear-gradient-11-startup-1);}.cls-4_startup-1{fill:url(#linear-gradient-12-startup-1);}.cls-5_startup-1{fill:url(#linear-gradient-13-startup-1);}.cls-6_startup-1{fill:url(#linear-gradient-10-startup-1);}.cls-7_startup-1{fill:url(#linear-gradient-15-startup-1);}.cls-8_startup-1{fill:url(#linear-gradient-14-startup-1);}.cls-9_startup-1{fill:url(#linear-gradient-4-startup-1);}.cls-10_startup-1{fill:url(#linear-gradient-2-startup-1);}.cls-11_startup-1{fill:url(#linear-gradient-3-startup-1);}.cls-12_startup-1{fill:url(#linear-gradient-8-startup-1);}.cls-13_startup-1{fill:url(#linear-gradient-9-startup-1);}.cls-14_startup-1{fill:url(#linear-gradient-7-startup-1);}.cls-15_startup-1{fill:url(#linear-gradient-5-startup-1);}.cls-16_startup-1{fill:url(#linear-gradient-6-startup-1);}.cls-17_startup-1{opacity:.24;}.cls-18_startup-1{fill:#231f20;}.cls-19_startup-1{fill:#c14834;}.cls-20_startup-1{fill:#fff;}.cls-21_startup-1{fill:#ffaa71;}</style><linearGradient id="linear-gradient-startup-1" x1="691.79" y1="3080.05" x2="716.12" y2="2820.14" gradientTransform="translate(-471 3073.02) scale(1 -1)" gradientUnits="userSpaceOnUse"><stop offset="0" stop-color="#fff" stop-opacity="0"/><stop offset=".95" stop-color="#fff"/></linearGradient><linearGradient id="linear-gradient-2-startup-1" x1="720.44" y1="2872.12" x2="723.05" y2="2844.31" gradientTransform="translate(-483.99 3006.43) scale(1 -1)" xlink:href="#linear-gradient-startup-1"/><linearGradient id="linear-gradient-3-startup-1" x1="814.02" y1="2829.92" x2="829.25" y2="2829.92" gradientTransform="translate(-483.99 3006.43) scale(1 -1)" gradientUnits="userSpaceOnUse"><stop offset="0" stop-color="#231f20" stop-opacity="0"/><stop offset="1" stop-color="#231f20"/></linearGradient><linearGradient id="linear-gradient-4-startup-1" x1="843.13" y1="2793.41" x2="805.05" y2="2668.58" xlink:href="#linear-gradient-3-startup-1"/><linearGradient id="linear-gradient-5-startup-1" x1="830.15" y1="2830.68" x2="865.88" y2="2852.27" gradientTransform="translate(-483.99 3006.43) scale(1 -1)" gradientUnits="userSpaceOnUse"><stop offset="0" stop-color="#010101" stop-opacity="0"/><stop offset=".47" stop-color="#010101" stop-opacity=".47"/><stop offset=".95" stop-color="#010101"/></linearGradient><linearGradient id="linear-gradient-6-startup-1" x1="634.48" y1="2847.05" x2="662.87" y2="2847.05" xlink:href="#linear-gradient-3-startup-1"/><linearGradient id="linear-gradient-7-startup-1" x1="652.66" y1="2791.31" x2="546.3" y2="2713.53" xlink:href="#linear-gradient-3-startup-1"/><linearGradient id="linear-gradient-8-startup-1" x1="641.88" y1="2663.46" x2="641.88" y2="2799.82" xlink:href="#linear-gradient-3-startup-1"/><linearGradient id="linear-gradient-9-startup-1" x1="623.81" y1="2807.56" x2="623.65" y2="2758.75" xlink:href="#linear-gradient-3-startup-1"/><linearGradient id="linear-gradient-10-startup-1" x1="582.45" y1="2749.95" x2="570.45" y2="2725.14" xlink:href="#linear-gradient-3-startup-1"/><linearGradient id="linear-gradient-11-startup-1" x1="597.89" y1="2732.59" x2="558.19" y2="2721.39" xlink:href="#linear-gradient-3-startup-1"/><linearGradient id="linear-gradient-12-startup-1" x1="591.07" y1="2754.88" x2="574.98" y2="2672.05" xlink:href="#linear-gradient-3-startup-1"/><linearGradient id="linear-gradient-13-startup-1" x1="568.01" y1="2730.53" x2="583.85" y2="2689.08" xlink:href="#linear-gradient-3-startup-1"/><linearGradient id="linear-gradient-14-startup-1" x1="575.4" y1="2735.53" x2="550.67" y2="2726.53" xlink:href="#linear-gradient-3-startup-1"/><linearGradient id="linear-gradient-15-startup-1" x1="570.76" y1="2773.25" x2="552.83" y2="2569.03" gradientTransform="translate(-471 3073.02) scale(1 -1)" xlink:href="#linear-gradient-3-startup-1"/></defs><g id="background_startup-1"><path class="cls-17_startup-1 targetColor" d="M144.66,105.05c-4.39-.9-8.84-1.55-13.3-1.93-21.61-1.71-43.15,4.02-61.05,16.25-29.98,20.59-42.97,58.46-50.48,92.55-8.48,38.27-7.58,79.34,7.84,115.79,21.09,49.86,72.76,88.2,126.74,84.05,23.5-1.79,45.87-11.09,69.3-13.74,26.91-3.04,53.95,2.76,80.97,4.48,40.76,2.56,81.56-4.13,119.36-19.59,22.26-9.12,44.09-22,57.1-42.23,19.45-30.29,14.98-70.37,2.14-104.03-6.81-17.9-15.7-34.97-24.17-52.16-8.47-17.19-14.07-35.59-21.95-52.82-13.2-28.84-49.59-45.87-80.15-41.49-26.94,3.85-50.07,21.43-76.58,27.57-12.59,2.91-25.63,3.17-38.55,2.86-21.92-.51-43.87-2.61-65.2-7.65-10.7-2.5-21.26-5.78-32.01-7.92Z" style="fill: rgb(104, 225, 253);"/></g><g id="data_board_startup-1"><path class="cls-18_startup-1" d="M230.45,181.71l-9.9-1.62s-1.02-2.1.54-2.82l15.67,2.69-6.3,1.75Z"/><rect class="cls-22_startup-1 targetColor" x="133.52" y="136.31" width="217.02" height="141.48" rx="22.72" ry="22.72" style="fill: rgb(104, 225, 253);"/><rect class="cls-2_startup-1" x="132.32" y="136.31" width="217.02" height="141.48" rx="22.72" ry="22.72"/><path class="cls-17_startup-1 targetColor" d="M228.51,231.44c.04,13.72-11.04,24.87-24.76,24.91-13.72.04-24.87-11.04-24.91-24.76-.04-13.24,10.31-24.18,23.54-24.87.44-.05.89-.07,1.33-.06,13.69,0,24.79,11.1,24.8,24.79Z" style="fill: rgb(104, 225, 253);"/><path class="cls-1_startup-1 targetColor" d="M226.77,164.67c-.2.68-3.38,1.53-4.19,2.05-1.4.99-2.64,2.2-3.65,3.58-1.94,2.56-3.47,5.43-5.77,7.68-.67.57-1.26,1.23-1.74,1.97-.62,1.07-.62,2.35-.98,3.52-.78,2.4-2.94,4.08-5.46,4.26,2.56,2.23,2.82,6.12.59,8.68-1.33,1.52-3.32,2.29-5.33,2.06,1.32,2.53,2.06,5.33,2.15,8.18-7.18.37-13.85,3.84-18.27,9.52-1.57-.35-2.93-1.36-3.72-2.76-1.98,1.79-5.15.64-7.22-.99-7.51-5.83-9.62-17.53-4.61-25.61,2.46-4.03,7.74-7.16,11.77-4.74,1.06-1.7,3.44-2.21,5.37-1.7,1.93.67,3.68,1.75,5.15,3.17-.38-2.97,2.15-5.84,5.08-6.42,3.05-.39,6.08.79,8.06,3.14-.82-.96,15.44-14.97,17.15-16.11.96-.6,6.76-3.33,5.63.53Z" style="fill: rgb(104, 225, 253);"/><circle class="cls-17_startup-1 targetColor" cx="233.23" cy="230.57" r="24.81" style="fill: rgb(104, 225, 253);"/><rect class="cls-17_startup-1 targetColor" x="266.76" y="166.95" width="64.1" height="4.32" rx="2.16" ry="2.16" style="fill: rgb(104, 225, 253);"/><rect class="cls-17_startup-1 targetColor" x="266.04" y="174.39" width="64.1" height="4.32" rx="2.16" ry="2.16" style="fill: rgb(104, 225, 253);"/><rect class="cls-17_startup-1 targetColor" x="265.31" y="181.84" width="64.1" height="4.32" rx="2.16" ry="2.16" style="fill: rgb(104, 225, 253);"/><rect class="cls-17_startup-1 targetColor" x="264.6" y="189.28" width="64.1" height="4.32" rx="2.16" ry="2.16" style="fill: rgb(104, 225, 253);"/><rect class="cls-17_startup-1 targetColor" x="263.64" y="201.28" width="66.5" height="58.58" style="fill: rgb(104, 225, 253);"/><polygon class="cls-17_startup-1 targetColor" points="270.2 221.13 283.64 243.53 305.41 216.32 314.7 229.45 327.82 208.01 327.82 256.65 266.04 256.65 266.04 230.41 270.2 221.13" style="fill: rgb(104, 225, 253);"/><path class="cls-17_startup-1 targetColor" d="M332.72,210.33c-3.07-2.9-7.8-3.54-11.88-2.47s-7.63,3.63-10.74,6.46c-1.93,1.61-3.53,3.57-4.74,5.77-1.46,2.95-1.63,6.37-1.65,9.67-.03,7.29.57,14.57,1.79,21.75.06.69.29,1.34.67,1.92,1.15,1.42,3.38.76,5.2.96,2.2.24,4,1.93,5.12,3.85.99,1.98,1.85,4.02,2.58,6.11,1.65,3.84,4.28,7.18,7.64,9.68,2.42,1.79,5.97,3.07,8.3,1.15.79-.75,1.4-1.67,1.79-2.69,11.1-24.22,1.97-53.36,9.96-78.78.5-1.59,4.15-9.06,1.79-10.18-1.79-.81-4.52,3.82-5.29,4.86-2.36,3.07-4.46,6.34-6.27,9.78-.73,1.35-5.51,11-4.28,12.16Z" style="fill: rgb(104, 225, 253);"/><path class="cls-10_startup-1" d="M253,153.51c-1.74,2.86-5.77,6.27-10.95,9.01-8.01,4.23-15.76,5.26-17.32,2.28-.39-.9-.35-1.92.1-2.79.72-1.79,2.52-3.92,5.12-6.01,2.01-1.61,4.16-3.01,6.45-4.19,4.98-2.63,9.85-4.03,13.2-3.99l3.41,5.69Z"/><path class="cls-17_startup-1 targetColor" d="M229.94,156c-2.6,2.09-4.4,4.2-5.12,6.01-1.91-2.26-7.16-3.96-7.16-3.96,4.33-3.14,10.64-2.32,12.28-2.05Z" style="fill: rgb(104, 225, 253);"/><path class="cls-17_startup-1 targetColor" d="M227.85,174.94s7.02-3.58,8.29-9.89c0,0-5.96,2.38-8.79,1.29,0,0,1.88,2.69.5,8.6Z" style="fill: rgb(104, 225, 253);"/><path class="cls-17_startup-1 targetColor" d="M253.03,153.45h0l-3.41-5.69h0s5.6-.9,6.35.11-2.56,5.14-2.94,5.59Z" style="fill: rgb(104, 225, 253);"/><circle class="cls-17_startup-1 targetColor" cx="235.43" cy="158.75" r="2.52" style="fill: rgb(104, 225, 253);"/><circle class="cls-17_startup-1 targetColor" cx="240.69" cy="155.78" r="1.99" style="fill: rgb(104, 225, 253);"/><circle class="cls-17_startup-1 targetColor" cx="245.67" cy="153.25" r="1.99" style="fill: rgb(104, 225, 253);"/></g><g id="character_2_startup-1"><path class="cls-17_startup-1 targetColor" d="M296.99,361.62c-4.91.25-10.27.68-13.83,4.06,42.93,4.63,86.27,4.01,129.06-1.85-2.69-4.99-9.46-5.71-15.15-5.84-16.11-.36-35.01-4.88-50.89-2.26-16.43,2.72-32.51,5.88-49.18,5.88Z" style="fill: rgb(104, 225, 253);"/><path class="cls-19_startup-1" d="M336.38,302.57c-.37,1.44-.32,2.96.14,4.38,2.55,11.21,4.94,22.56,5,34.02,0,3.14-.17,6.37-1.41,9.25-1.18,2.53-2.93,4.74-5.13,6.45-.81.68-1.79,1.58-1.5,2.6.14.42.4.78.76,1.03,1.42,1.12,3.36,1.3,4.97.47.86-.53,1.64-1.2,2.28-1.99l6-6.53c.33-.32.59-.69.78-1.11.19-.87.09-1.78-.3-2.58-2.44-7.68.81-15.9,1.23-23.95.38-7.49-1.75-14.86-3.84-22.07-.18-.8-.51-1.56-.98-2.23-.89-.98-2.19-1.5-3.51-1.4-1.3.11-2.58.43-3.79.94"/><path class="cls-19_startup-1" d="M348.71,304.11c1.1,8.64,2.13,17.29,3.09,25.96.99,9.08,1.9,18.41-.47,27.24-.48,1.79-1.06,3.96.08,5.46,1.18,1.34,3.17,1.6,4.66.62,1.42-1,2.36-2.55,2.58-4.28.19-1.7.19-3.43,0-5.13-.59-10.95,1.91-21.81,2.58-32.75.35-4.12.16-8.27-.57-12.34-.84-4.12-2.89-10.04-6.75-12.33-4.96-2.96-5.59,4.42-5.19,7.54Z"/><path class="cls-22_startup-1 targetColor" d="M330.7,360.69c-.27.24-.48.55-.61.9-.09.65.25,1.29.84,1.57.59.26,1.23.36,1.86.31,2.44.07,4.83-.66,6.83-2.06,2.62-2.03,3.85-5.58,6.71-7.25.09-.07.19-.11.3-.13.79-.1.51,1.43,1.18,1.84s1.22-.51,1.34-1.21c.23-1.25.23-2.54,0-3.79-.09-.42-.26-.9-.68-1.02s-.95.44-1.21.9c-.76,1.52-1.88,2.83-3.27,3.82-2.55,1.64-5.11.79-7.83,1.4-2.36.58-3.89,3.04-5.47,4.73Z" style="fill: rgb(104, 225, 253);"/><path class="cls-22_startup-1 targetColor" d="M350.28,363.53c-.07,1.05.03,2.1.29,3.12.27,1.03,1.01,1.88,2,2.29,1.24.29,2.55-.04,3.5-.9,1.66-1.36,2.83-3.22,3.34-5.31.49-2.08.63-4.22.39-6.35-.07-.85-.28-1.84-1.05-2.21-.39,2.13-2.01,3.84-4.12,4.34-1.37.36-2.79-.37-3.29-1.69-1.23,1.63-1.03,4.66-1.07,6.7Z" style="fill: rgb(104, 225, 253);"/><path class="cls-18_startup-1" d="M331.75,264.66c-.31,5.51-.21,11.03.28,16.53l.9,13.51.96,14.74c-.04,1.37.3,2.73.98,3.92.9,1.25,2.44,1.5,3.81,1.64,8.01.84,16.06,1.24,24.11,1.19,1.06,0,2.26-.08,2.96-1.01.46-.77.71-1.65.73-2.54.47-4.71.56-9.47,1.03-14.18.76-7.7,2.54-15.22,3.29-22.88.74-7.66.38-15.9-2.87-22.7-.32-.82-.84-1.55-1.5-2.12-.71-.45-1.53-.69-2.36-.72-7.52-.81-15.08-1.16-22.64-1.03-1.32,0-4-.5-5.16.26-1.01.66-1.79,3.38-2.25,4.58-1.23,3.49-1.99,7.13-2.26,10.82Z"/><path class="cls-18_startup-1" d="M334.17,177.13c-1.13,3.36-1.84,7.03-.8,10.41.05.24.17.47.35.64.16.12.34.21.53.26l1.39.46c.59.26,1.25.36,1.89.29.67-.09,1.16-.66,1.15-1.33l.55,1.95,7.44-.67c.24,0,.48-.07.69-.21.23-.24.35-.56.34-.9.46-4.56.35-9.15.4-13.73,0-2.48.09-5.06-.9-7.33s-3.38-4.14-5.83-3.68c-2.44.47-3.67,2.38-4.05,4.63-.56,3.18-2.12,6.18-3.15,9.21Z"/><path class="cls-11_startup-1" d="M334.17,177.13c-1.13,3.36-1.84,7.03-.8,10.41.05.24.17.47.35.64.16.12.34.21.53.26l1.39.46c.59.26,1.25.36,1.89.29.67-.09,1.16-.66,1.15-1.33l.55,1.95,7.44-.67c.24,0,.48-.07.69-.21.23-.24.35-.56.34-.9.46-4.56.35-9.15.4-13.73,0-2.48.09-5.06-.9-7.33s-3.38-4.14-5.83-3.68c-2.44.47-3.67,2.38-4.05,4.63-.56,3.18-2.12,6.18-3.15,9.21Z"/><path class="cls-22_startup-1 targetColor" d="M370.78,199.3c1.66,3.44,1.87,7.37,2.05,11.18.38,7.65,2.85,15.97-.36,22.93-4.36,9.5,4.56,14.55-1.9,22.17-.96,1.13-34.61,3.46-37.33-2.46-1.01-2.18,1.71-9.93,1.5-12.33-1.09-12.63-2.13-25.71,2.06-37.67.83-2.72,2.25-5.22,4.17-7.32,9.42-9.34,23.85-9,29.8,3.5Z" style="fill: rgb(104, 225, 253);"/><path class="cls-9_startup-1" d="M370.78,199.3c1.66,3.44,1.87,7.37,2.05,11.18.38,7.65,2.85,15.97-.36,22.93-4.36,9.5,4.56,14.55-1.9,22.17-.96,1.13-34.61,3.46-37.33-2.46-1.01-2.18,1.71-9.93,1.5-12.33-1.09-12.63-2.13-25.71,2.06-37.67.83-2.72,2.25-5.22,4.17-7.32,9.42-9.34,23.85-9,29.8,3.5Z"/><path class="cls-19_startup-1" d="M338.17,177.22c-.3,1.9-.3,3.83,0,5.73.31,1.92,1.45,3.6,3.11,4.62,1.1.47,2.24.83,3.41,1.07.33.06.65.22.9.45.17.2.29.44.34.7.2,1.26.25,2.54.14,3.8-.1,1.29.43,2.55,1.41,3.39.86.51,1.9.59,2.82.21.91-.38,1.72-.95,2.38-1.68.45-.44.85-.93,1.19-1.46.87-1.67,1.25-3.56,1.08-5.43,0-2.49-.25-4.98-.27-7.47,0-4.4,2.1-7.03,1.96-11.42,0-.77-1.62-3.34-1.96-4.03-.33-.58-.76-1.09-1.26-1.53-.49-.52-1.05-.95-1.68-1.27-.96-.34-2-.4-2.99-.18-2.13.32-4.21.9-6.2,1.73-.78.29-1.49.72-2.1,1.27-.57.58-.85,1.38-.77,2.19-.08,1.01-.25,2-.5,2.98-.41,2.11-.75,4.22-1,6.34Z"/><path class="cls-18_startup-1" d="M338.15,157.03c-2.25,2.18-3.67,5.08-4.01,8.19-.14.99-.1,2,.13,2.98.17.73.58,1.39,1.17,1.85.68.43,1.48.61,2.28.53.86,0,1.71-.26,2.42-.76.72-.51,1.07-1.4.9-2.26l.23,2.24c0,.15.05.3.13.43.18.14.41.2.64.16l4.91-.27c.6.1,1.18-.3,1.3-.9l.9-2.36c-.03.93.23,1.85.73,2.64.75.88,2.03,1.1,3.03.5-.04,6.27-.13,12.76-2.83,18.41.93,1.15,2.35,1.77,3.82,1.68,1.04.06,2.08-.18,2.99-.68.92-.52,1.49-1.49,1.5-2.54l-.11,1.57c-.03.15,0,.3.09.43.13.1.3.14.47.11l5.01-.36c.59.06,1.14-.32,1.29-.9,1.41-2.6,2.57-5.33,3.46-8.16,1.29-4.55,1.17-9.37.73-14.07-.08-1.37-.34-2.72-.77-4.02-1.44-3.82-5.53-6.05-9.54-6.79s-8-.19-12.01-.55c-3.24-.39-6.48.67-8.86,2.9Z"/><path class="cls-15_startup-1" d="M338.15,157.03c-2.25,2.18-3.67,5.08-4.01,8.19-.14.99-.1,2,.13,2.98.17.73.58,1.39,1.17,1.85.68.43,1.48.61,2.28.53.86,0,1.71-.26,2.42-.76.72-.51,1.07-1.4.9-2.26l.23,2.24c0,.15.05.3.13.43.18.14.41.2.64.16l4.91-.27c.6.1,1.18-.3,1.3-.9l.9-2.36c-.03.93.23,1.85.73,2.64.75.88,2.03,1.1,3.03.5-.04,6.27-.13,12.76-2.83,18.41.93,1.15,2.35,1.77,3.82,1.68,1.04.06,2.08-.18,2.99-.68.92-.52,1.49-1.49,1.5-2.54l-.11,1.57c-.03.15,0,.3.09.43.13.1.3.14.47.11l5.01-.36c.59.06,1.14-.32,1.29-.9,1.41-2.6,2.57-5.33,3.46-8.16,1.29-4.55,1.17-9.37.73-14.07-.08-1.37-.34-2.72-.77-4.02-1.44-3.82-5.53-6.05-9.54-6.79s-8-.19-12.01-.55c-3.24-.39-6.48.67-8.86,2.9Z"/><polygon class="cls-20_startup-1" points="339.74 245.24 308.63 249.66 298.7 206.34 329.81 201.92 339.74 245.24"/><path class="cls-22_startup-1 targetColor" d="M378.84,233.66c0,1.37,0,2.87-.9,3.94-.9,1.07-2.5,1.43-3.94,1.59-10.45,1.16-20.99-.96-30.18-6.07-.73-.34-1.36-.86-1.84-1.5-.39-.74-.59-1.57-.56-2.41-.07-1.7-.03-3.41.12-5.1-.04-.76.26-1.49.81-2.01.51-.28,1.11-.38,1.68-.29l14.11.7c.47.08.96-.01,1.36-.27.32-.32.51-.74.53-1.19.76-4.55,0-9.22.45-13.81.35-3.33,1.9-8.95,5.73-9.85,4.48-1.05,5.92,4.58,7.06,7.71,3.38,9.16,5.26,18.81,5.57,28.57Z" style="fill: rgb(104, 225, 253);"/><path class="cls-19_startup-1" d="M335.65,220.75c-.57-.28-1.17-.5-1.79-.66-.56-.1-1.14-.15-1.71-.14h-3.66c-1.08-.02-2.16.09-3.22.31-.31.05-.59.21-.81.44-.14.22-.22.47-.21.73-.1,1.84.86,3.58,2.48,4.48.36.14.68.39.9.72.1.2.1.44.19.64.2.34.52.6.9.73,1.93.88,4,1.4,6.11,1.54.29,0,.58.05.85.16.19.11.37.24.55.38.8.44,1.75.52,2.61.21.84-.31,1.71-.56,2.59-.74.73-.09,1.63-.06,2-.69.17-.38.21-.81.1-1.22-.07-1.04-.22-2.07-.46-3.08-.23-.74-.84-.9-1.53-1.17l-2.96-1.33c-.81-.37-2.23-.69-2.9-1.29Z"/></g><g id="character_1_startup-1"><path class="cls-17_startup-1 targetColor" d="M93.08,361.76c-2.69.06-6.44,1.3-5.88,3.96.38,1.79,2.61,2.47,4.48,2.76,44.95,7.09,90.98,6.34,136-.4-.56-2.83-11.45-1.67-16.11-2.45-5.73-.96-11.46-1.96-17.15-3.13-9.67-2.02-19.54-2.86-29.41-2.49l-71.91,1.76Z" style="fill: rgb(104, 225, 253);"/><path class="cls-17_startup-1 targetColor" d="M223.07,201.79c-6.2,7.99-14.05,16.37-24.17,16.55-1.85,0-3.79-.21-5.51.5-3.3,1.38-4.26,5.51-4.78,9.07-1.3,8.95-2.59,18.04-.9,26.86,1.32,6.88,4.41,13.57,3.76,20.54-.13,1.28-.47,2.69-1.58,3.37-.87.39-1.84.51-2.78.33l-15.51-1.36c-1.29.01-2.56-.35-3.65-1.05-.87-.83-1.49-1.89-1.79-3.05-6.27-17.82-4.76-37.3-3.2-56.11.34-4.14.7-8.36,2.22-12.24,1.52-3.88,4.38-7.42,8.32-8.76,8.95-3.03,17.61,6.2,27.07,6.56,9.85.38,16.73-8.29,23.78-13.81,2.35-1.85,8.14-7.41,8.66-1.73.38,3.78-7.68,11.48-9.94,14.33Z" style="fill: rgb(104, 225, 253);"/><path class="cls-21_startup-1" d="M132.27,210.01c-.96,2.41-1.93,4.96-1.49,7.51.36,1.6,1.03,3.12,1.96,4.48,2.7,4.42,5.78,8.6,9.21,12.49.89,1.21,2.12,2.13,3.54,2.63,1.32-9.49,1.63-19.09.94-28.65,0-.86-.19-1.71-.58-2.48-.66-.87-1.56-1.52-2.59-1.89-2.37-1.11-4.74-2.41-7.16-3.3-.72.9-3.1,9.21-3.83,9.21Z"/><path class="cls-21_startup-1" d="M200.22,199.54c1.5.22,3.02.24,4.52.06.58-.23,17.52-13.68,24.01-17.01,3-1.86,6.45-2.86,9.98-2.91,1.63-.11,3.58-.05,4.48,1.33.53.99.45,2.2-.21,3.12-.65.89-1.52,1.59-2.52,2.05-2.07,1.08-4.34,1.71-6.67,1.87-.61,0-1.21.09-1.79.27-.75.37-1.39.92-1.87,1.6-4.8,5.69-9.83,11.17-15.08,16.45-2.8,2.81-5.97,5.71-9.92,6.16-1.42.12-2.85.03-4.24-.28-2.72-.53-5.35-1.43-7.82-2.69-.54-.23-1.01-.59-1.39-1.04-.39-.63-.57-1.38-.51-2.12.05-2.47.95-4.85,2.53-6.75,2.08-2.47,3.85-.7,6.51-.12Z"/><path class="cls-21_startup-1" d="M176.6,166.31c.16,2.06.09,4.12-.23,6.16-.4,2.08-1.57,4.28-3.58,4.82-1.2.31-2.61,0-3.58.81-.73.6-.94,1.61-1.43,2.43-.97,1.38-2.56,2.19-4.24,2.17-1.66-.04-3.3-.37-4.85-.96-.41-.09-.78-.29-1.1-.56-.41-.53-.61-1.19-.56-1.86-.18-5.1-.26-10.21-.21-15.33-.08-1.48.15-2.95.68-4.33.94-1.63,2.38-2.91,4.1-3.66,2.44-1.26,5.06-2.12,7.77-2.54,2.5-.4,6.65-.17,7.11,3.05.02,1.18-.03,2.36-.16,3.53.04,2.07.21,4.16.3,6.28Z"/><path class="cls-18_startup-1" d="M178.11,149.79c.8,1.22.99,2.74.5,4.12-.5,1.36-1.37,2.55-2.51,3.46-.67.49-1.28,1.07-1.79,1.72-1.08,1.62-.56,3.79-.9,5.72,0,.15-.09.34-.25.37s-.28-.11-.38-.23c-.78-.9-2.13-1-3.03-.22-.54.46-.81,1.16-.73,1.87.13,1.16,1.17,2.12,1.13,3.29-.09.66-.38,1.29-.82,1.79-.32.53-.8.94-1.37,1.18-.47.1-.95.1-1.41,0l-9.67-1.12c-.54-.04-1.08-.15-1.6-.31-1.38-.59-2.42-1.79-2.8-3.24-.37-1.44-.52-2.92-.47-4.4,0-2.69-.13-5.51-1.23-8-.2-.35-.3-.76-.29-1.16.07-.27.2-.52.38-.73,1.53-1.98,3.86-3.34,4.91-5.6.16-.43.37-.83.62-1.22.81-1.07,2.37-1.08,3.71-1.01l5.97.33c1.37.07,2.44-.44,3.74-.53.97,0,1.93.21,2.81.61,1.79.79,4.32,1.74,5.48,3.34Z"/><path class="cls-16_startup-1" d="M178.11,149.79c.8,1.22.99,2.74.5,4.12-.5,1.36-1.37,2.55-2.51,3.46-.67.49-1.28,1.07-1.79,1.72-1.08,1.62-.56,3.79-.9,5.72,0,.15-.09.34-.25.37s-.28-.11-.38-.23c-.78-.9-2.13-1-3.03-.22-.54.46-.81,1.16-.73,1.87.13,1.16,1.17,2.12,1.13,3.29-.09.66-.38,1.29-.82,1.79-.32.53-.8.94-1.37,1.18-.47.1-.95.1-1.41,0l-9.67-1.12c-.54-.04-1.08-.15-1.6-.31-1.38-.59-2.42-1.79-2.8-3.24-.37-1.44-.52-2.92-.47-4.4,0-2.69-.13-5.51-1.23-8-.2-.35-.3-.76-.29-1.16.07-.27.2-.52.38-.73,1.53-1.98,3.86-3.34,4.91-5.6.16-.43.37-.83.62-1.22.81-1.07,2.37-1.08,3.71-1.01l5.97.33c1.37.07,2.44-.44,3.74-.53.97,0,1.93.21,2.81.61,1.79.79,4.32,1.74,5.48,3.34Z"/><path class="cls-22_startup-1 targetColor" d="M156.42,180.09c3.58.63,7.34.47,11.01.61,5.57.21,11.29,1.19,15.96,4.22,1.9,1.31,3.68,2.77,5.33,4.38l8.06,7.44c.66.44.97,1.24.79,2.01-.43,3.94-2.32,7.59-5.3,10.21-.17.19-.4.32-.65.37-.25,0-.49-.06-.71-.18l-8.95-4.15c-.31,1.76-.31,3.56,0,5.33,2.3,12.92,0,26.37-1.13,39.44,0,.6-.14,1.18-.4,1.72-.37.55-.89.99-1.49,1.28-5.04,2.82-11.1,2.94-16.88,2.9-5.37,0-11.06-.27-15.37-3.4-.52-.34-.95-.79-1.28-1.32-.32-.73-.46-1.54-.41-2.34l-.5-34.06c.04-.81-.07-1.62-.33-2.38-.8-1.99-8.21-5.08-9.49-11.16.9-6.37,16.62-19.96,21.75-20.9Z" style="fill: rgb(104, 225, 253);"/><path class="cls-14_startup-1" d="M156.42,180.09c3.58.63,7.34.47,11.01.61,5.57.21,11.29,1.19,15.96,4.22,1.9,1.31,3.68,2.77,5.33,4.38l8.06,7.44c.66.44.97,1.24.79,2.01-.43,3.94-2.32,7.59-5.3,10.21-.17.19-.4.32-.65.37-.25,0-.49-.06-.71-.18l-8.95-4.15c-.31,1.76-.31,3.56,0,5.33,2.3,12.92,0,26.37-1.13,39.44,0,.6-.14,1.18-.4,1.72-.37.55-.89.99-1.49,1.28-5.04,2.82-11.1,2.94-16.88,2.9-5.37,0-11.06-.27-15.37-3.4-.52-.34-.95-.79-1.28-1.32-.32-.73-.46-1.54-.41-2.34l-.5-34.06c.04-.81-.07-1.62-.33-2.38-.8-1.99-8.21-5.08-9.49-11.16.9-6.37,16.62-19.96,21.75-20.9Z"/><path class="cls-18_startup-1" d="M180.39,251.44s7.39,39.39,7.39,44.66-9.6,55.93-9.6,55.93c0,0-8.41.48-10.56-2.4l4.08-48.48-6.82-20.82-3.52,27.29-22.33,43.21-11.03-6.71,21.66-46.55s-10.86-22.94-4.23-46.64l34.97.5Z"/><path class="cls-12_startup-1" d="M180.39,251.44s7.39,39.39,7.39,44.66-9.6,55.93-9.6,55.93c0,0-8.41.48-10.56-2.4l4.08-48.48-6.82-20.82-3.52,27.29-22.33,43.21-11.03-6.71,21.66-46.55s-10.86-22.94-4.23-46.64l34.97.5Z"/><path class="cls-18_startup-1" d="M167.76,365.74c-.01.13.01.26.06.38.1.15.25.26.43.3,1.6.51,3.28.75,4.96.71,5.43.14,10.86.27,16.29.37,0-2.6-2.24-4.7-4.65-5.67-2.41-.97-5.05-1.13-7.56-1.79-.51-.08-.98-.34-1.32-.73-.21-.38-.31-.81-.29-1.24l-.2-5.13c.05-.63-.15-1.25-.56-1.72-.24-.17-.5-.3-.79-.37-.99-.3-3.54-1.36-4.48-.73s-.94,3.24-1.08,4.32c-.53,3.74-.8,7.52-.82,11.3Z"/><path class="cls-18_startup-1" d="M124.18,355.67c-.36.44-.29,1.09.15,1.45.02.01.03.03.05.04l7.87,8.95c.2.27.46.49.75.66.35.14.72.21,1.09.21,3.26.13,6.54.13,9.79,0-.43-2.16-1.81-4.01-3.77-5.03-1.23-.63-2.69-.9-3.72-1.79-.92-.85-1.64-1.9-2.1-3.07-.86-1.21-.8-2.85.15-3.99l1.62-2.69c.48-.59.64-1.37.45-2.09-.23-.39-.58-.7-.99-.9-1.13-.66-2.69-2.01-3.97-2.26s-1.79.97-2.45,2.05c-1.58,2.75-3.6,5.53-4.91,8.46Z"/><path class="cls-13_startup-1" d="M144.14,212.12v-15.81s-7.41,3.53-8.69,6.72c0,0,6.97,8.25,8.69,9.09Z"/></g><g id="plant_startup-1"><path class="cls-22_startup-1 targetColor" d="M88.9,308.33c.76-8.21-.19-16.49-2.8-24.31-1.51-4.48-3.58-8.83-4.91-13.43s-1.95-9.51-.51-14.04c1.44-4.53,2.48-8.39,4.85-12.49,2.61-4.48,5.27-9.07,9.02-12.67-7.36,11.06-9.96,24.61-7.22,37.6.76,3.49,1.9,6.89,2.77,10.37,2.01,8.06,2.58,16.41,2.69,24.72,0,1.59,0,3.31-.97,4.6s-1.96.96-2.92-.36Z" style="fill: rgb(104, 225, 253);"/><path class="cls-22_startup-1 targetColor" d="M80.36,235.63s14.6,13.37,13.8,31.87c-.81,18.5-2.93,40.29-2.39,41.18s9.18.95,9.18.95c-.91-13.89-1.12-27.82-.62-41.74.81-23.21-19.96-32.26-19.96-32.26Z" style="fill: rgb(104, 225, 253);"/><path class="cls-6_startup-1" d="M80.36,235.63s14.6,13.37,13.8,31.87c-.81,18.5-2.93,40.29-2.39,41.18s9.18.95,9.18.95c-.91-13.89-1.12-27.82-.62-41.74.81-23.21-19.96-32.26-19.96-32.26Z"/><path class="cls-22_startup-1 targetColor" d="M124.64,237.22s-17.28,13.43-21.25,35.5c-3.97,22.07-6.02,37.01-6.02,37.01l9.85-.41s.13-35.64,7.82-51.82c7.68-16.18,9.61-20.28,9.61-20.28Z" style="fill: rgb(104, 225, 253);"/><path class="cls-3_startup-1" d="M124.64,237.22s-17.28,13.43-21.25,35.5c-3.97,22.07-6.02,37.01-6.02,37.01l9.85-.41s.13-35.64,7.82-51.82c7.68-16.18,9.61-20.28,9.61-20.28Z"/><path class="cls-22_startup-1 targetColor" d="M105.58,224.17s6.27,23.17,2.34,34.68c-3.93,11.51-5.37,51.19-5.37,51.19l-5.21-.34s.47-42.01,2.33-48.18,7.49-21.43,5.92-37.35Z" style="fill: rgb(104, 225, 253);"/><path class="cls-4_startup-1" d="M105.58,224.17s6.27,23.17,2.34,34.68c-3.93,11.51-5.37,51.19-5.37,51.19l-5.21-.34s.47-42.01,2.33-48.18,7.49-21.43,5.92-37.35Z"/><path class="cls-22_startup-1 targetColor" d="M63.64,257.36s25.07-3.97,31.53,12.88c6.46,16.86,0,39.31,0,39.31l-3.42-.85s3.21-35.65-16.11-45.51l-12-5.83Z" style="fill: rgb(104, 225, 253);"/><path class="cls-5_startup-1" d="M63.64,257.36s25.07-3.97,31.53,12.88c6.46,16.86,0,39.31,0,39.31l-3.42-.85s3.21-35.65-16.11-45.51l-12-5.83Z"/><path class="cls-8_startup-1" d="M88.9,308.33c.76-8.21-.19-16.49-2.8-24.31-1.51-4.48-3.58-8.83-4.91-13.43s-1.95-9.51-.51-14.04c1.44-4.53,2.48-8.39,4.85-12.49,2.61-4.48,5.27-9.07,9.02-12.67-7.36,11.06-9.96,24.61-7.22,37.6.76,3.49,1.9,6.89,2.77,10.37,2.01,8.06,2.58,16.41,2.69,24.72,0,1.59,0,3.31-.97,4.6s-1.96.96-2.92-.36Z"/><polygon class="cls-22_startup-1 targetColor" points="82.69 306.84 115.59 306.84 109.01 357.83 88.72 357.83 82.69 306.84" style="fill: rgb(104, 225, 253);"/><polygon class="cls-7_startup-1" points="82.69 306.84 115.59 306.84 109.01 357.83 88.72 357.83 82.69 306.84"/></g></svg>