<svg version="1.1" id="Layer_1" xmlns="http://www.w3.org/2000/svg" xmlns:xlink="http://www.w3.org/1999/xlink" x="0px" y="0px" viewBox="0 0 500 500" style="width: 166px;" xml:space="preserve" data-imageid="step-three-8" imageName="Step Three" class="illustrations_image">
<style type="text/css">
	.st0_step-three-8{fill:#093F68;}
	.st1_step-three-8{fill:#68E1FD;}
	.st2_step-three-8{fill:#FFFFFF;}
</style>
<g id="flag_step-three-8">
	<rect x="396.7" y="150.5" class="st0_step-three-8" width="6.5" height="147.2"/>
	<path class="st0_step-three-8" d="M403.3,299.5h-6.5c-1,0-1.9-0.8-1.9-1.9V150.5c0-1,0.8-1.9,1.8-1.9c0,0,0,0,0,0h6.5c1,0,1.9,0.8,1.9,1.8&#10;&#9;&#9;c0,0,0,0,0,0v147.2C405.1,298.7,404.3,299.5,403.3,299.5z M398.6,295.8h2.8V152.4h-2.8V295.8z"/>
	<ellipse class="st1_step-three-8 targetColor" cx="401.1" cy="147.2" rx="9.5" ry="7.9" style="fill: rgb(104, 225, 253);"/>
	<path class="st0_step-three-8" d="M401.1,157c-6.3,0-11.4-4.4-11.4-9.7s5.1-9.7,11.4-9.7s11.4,4.4,11.4,9.7S407.3,157,401.1,157z M401.1,141.3&#10;&#9;&#9;c-4.2,0-7.6,2.7-7.6,6s3.4,6,7.6,6s7.6-2.7,7.6-6S405.3,141.2,401.1,141.3L401.1,141.3z"/>
	<polygon class="st1_step-three-8 targetColor" points="397,230.3 397,164.5 291.5,197.4 &#9;" style="fill: rgb(104, 225, 253);"/>
	<path class="st0_step-three-8" d="M397,232.2c-0.2,0-0.4,0-0.6-0.1L291,199.2c-1-0.3-1.5-1.4-1.2-2.3c0.2-0.6,0.6-1,1.2-1.2l105.5-32.9&#10;&#9;&#9;c0.6-0.2,1.2-0.1,1.7,0.3c0.5,0.4,0.8,0.9,0.8,1.5v65.8C398.9,231.3,398,232.2,397,232.2L397,232.2z M297.7,197.4l97.4,30.4V167&#10;&#9;&#9;L297.7,197.4z"/>
</g>
<g id="line_step-three-8">
	<rect x="100" y="304.3" class="st0_step-three-8" width="300" height="29.8"/>
	<path class="st0_step-three-8" d="M400,335.9H100c-1,0-1.9-0.8-1.9-1.8c0,0,0,0,0,0v-29.8c0-1,0.8-1.9,1.8-1.9c0,0,0,0,0,0h300&#10;&#9;&#9;c1,0,1.9,0.8,1.9,1.9v29.8C401.9,335.1,401,335.9,400,335.9z M101.9,332.2h296.3v-26H101.9L101.9,332.2z"/>
</g>
<g id="step-1_step-three-8">
	<circle class="st1_step-three-8 targetColor" cx="100" cy="319.2" r="41.5" style="fill: rgb(104, 225, 253);"/>
	<path class="st0_step-three-8" d="M100,362.5c-23.9,0-43.3-19.4-43.3-43.3c0-23.9,19.4-43.3,43.3-43.3s43.3,19.4,43.3,43.3&#10;&#9;&#9;C143.3,343.1,123.9,362.5,100,362.5z M100,279.5c-21.9,0-39.6,17.7-39.6,39.6s17.7,39.6,39.6,39.6s39.6-17.7,39.6-39.6l0,0&#10;&#9;&#9;C139.6,297.3,121.9,279.6,100,279.5z"/>
</g>
<g id="step-2_step-three-8">
	<circle class="st1_step-three-8 targetColor" cx="250" cy="319.2" r="41.5" style="fill: rgb(104, 225, 253);"/>
	<path class="st0_step-three-8" d="M250,362.5c-23.9,0-43.3-19.4-43.3-43.3s19.4-43.3,43.3-43.3s43.3,19.4,43.3,43.3&#10;&#9;&#9;C293.3,343.1,273.9,362.5,250,362.5z M250,279.5c-21.9,0-39.6,17.7-39.6,39.6c0,21.9,17.7,39.6,39.6,39.6&#10;&#9;&#9;c21.9,0,39.6-17.7,39.6-39.6c0,0,0,0,0,0C289.6,297.3,271.9,279.6,250,279.5z"/>
</g>
<g id="step-3_step-three-8">
	<circle class="st1_step-three-8 targetColor" cx="400" cy="319.2" r="41.5" style="fill: rgb(104, 225, 253);"/>
	<path class="st0_step-three-8" d="M400,362.5c-23.9,0-43.3-19.4-43.3-43.3s19.4-43.3,43.3-43.3c23.9,0,43.3,19.4,43.3,43.3&#10;&#9;&#9;C443.3,343.1,423.9,362.5,400,362.5z M400,279.5c-21.9,0-39.6,17.7-39.6,39.6s17.7,39.6,39.6,39.6c21.9,0,39.6-17.7,39.6-39.6&#10;&#9;&#9;c0,0,0,0,0,0C439.6,297.3,421.9,279.6,400,279.5z"/>
</g>
<g id="speech-bubble_step-three-8">
	<path class="st2_step-three-8" d="M110.9,164.5h113.3c10.1,0,18.3,8.2,18.3,18.3l0,0v3.5l20.7,7.7l-20.7,7.2v32.9c0,10.1-8.2,18.3-18.3,18.3l0,0&#10;&#9;&#9;H110.9c-10.1,0-18.3-8.2-18.3-18.3l0,0v-51.3C92.6,172.7,100.8,164.5,110.9,164.5z"/>
	<path class="st0_step-three-8" d="M224.2,254.3H110.9c-11.1,0-20.2-9-20.2-20.2v-51.3c0-11.1,9-20.2,20.2-20.2h113.3c11.1,0,20.2,9,20.2,20.2&#10;&#9;&#9;v2.2l19.6,7.3c1,0.3,1.5,1.4,1.1,2.4c-0.2,0.5-0.6,0.9-1.1,1.1l-19.5,6.8v31.6C244.5,245.3,235.4,254.3,224.2,254.3&#10;&#9;&#9;C224.3,254.3,224.3,254.3,224.2,254.3z M110.9,166.3c-9.1,0-16.5,7.4-16.5,16.5v51.3c0,9.1,7.4,16.5,16.5,16.5c0,0,0,0,0,0h113.3&#10;&#9;&#9;c9.1,0,16.5-7.4,16.5-16.5v-32.9c0-0.8,0.5-1.5,1.3-1.8l15.8-5.5l-15.9-6c-0.7-0.3-1.2-1-1.2-1.7v-3.5c0-9.1-7.4-16.5-16.5-16.5&#10;&#9;&#9;L110.9,166.3z"/>
	<path class="st0_step-three-8" d="M180.4,207c1.1,0.4,2.2,0.9,3.1,1.6c0.9,0.7,1.7,1.4,2.4,2.3c0.7,0.9,1.2,1.8,1.5,2.9c0.4,1,0.5,2.1,0.5,3.1&#10;&#9;&#9;c0.1,2.3-0.5,4.7-1.6,6.7c-1.1,1.8-2.5,3.4-4.3,4.6c-1.8,1.2-3.9,2.1-6,2.6c-2.2,0.5-4.5,0.8-6.7,0.8c-2.3,0-4.5-0.3-6.7-0.8&#10;&#9;&#9;c-2.1-0.5-4.1-1.3-6-2.5c-1.8-1.1-3.4-2.6-4.8-4.3c-1.4-1.8-2.4-3.9-2.9-6.2l14-3.3c0.3,1.2,0.9,2.2,1.9,3c1,0.9,2.4,1.4,3.8,1.4&#10;&#9;&#9;c0.4,0,0.9-0.1,1.3-0.2c0.4-0.1,0.9-0.3,1.3-0.5c0.4-0.2,0.7-0.5,0.9-0.9c0.3-0.4,0.4-0.9,0.4-1.4c0.1-1.2-0.6-2.3-1.8-2.6&#10;&#9;&#9;c-1.5-0.5-3.1-0.7-4.7-0.6h-4.3v-10.3h4.8c1.3,0.1,2.6-0.2,3.8-0.7c1-0.4,1.6-1.5,1.4-2.5c0.1-0.8-0.4-1.6-1.1-2&#10;&#9;&#9;c-0.7-0.4-1.6-0.6-2.4-0.6c-1,0-2.1,0.4-2.9,1c-0.9,0.7-1.5,1.7-1.6,2.9l-13.9-3c1.2-4.3,4.1-7.9,7.9-10.1c1.8-1,3.7-1.7,5.7-2.2&#10;&#9;&#9;c2-0.4,4-0.7,6-0.7c2.1,0,4.1,0.3,6.1,0.7c2,0.5,4,1.2,5.7,2.3c1.7,1,3.1,2.4,4.2,4.1c1.1,1.8,1.7,3.9,1.6,6c0.1,2.2-0.6,4.3-2,6&#10;&#9;&#9;c-1.3,1.4-3,2.5-4.8,3L180.4,207z"/>
</g>
</svg>