<svg version="1.1" id="Layer_1" xmlns="http://www.w3.org/2000/svg" xmlns:xlink="http://www.w3.org/1999/xlink" x="0px" y="0px" viewBox="0 0 500 500" style="width: 166px;" xml:space="preserve" data-imageid="sushi-85" imageName="Sushi" class="illustrations_image">
<style type="text/css">
	.st0_sushi-85{fill:#B2581B;}
	.st1_sushi-85{fill:#68E1FD;}
	.st2_sushi-85{opacity:0.16;fill:#02180C;enable-background:new    ;}
	.st3_sushi-85{opacity:0.45;fill:#02180C;enable-background:new    ;}
	.st4_sushi-85{opacity:0.5;fill:#02180C;enable-background:new    ;}
	.st5_sushi-85{opacity:0.45;}
	.st6_sushi-85{fill:none;}
	.st7_sushi-85{fill:#02180C;}
	.st8_sushi-85{fill:#7C7C7C;}
	.st9_sushi-85{fill:#DFE0E2;}
	.st10_sushi-85{fill:#65A818;}
	.st11_sushi-85{fill:#EC6B20;}
	.st12_sushi-85{fill:#FFD217;}
	.st13_sushi-85{fill:#552D2E;}
	.st14_sushi-85{opacity:0.8;fill:#DFE0E2;enable-background:new    ;}
	.st15_sushi-85{fill:#D33C3C;}
</style>
<path id="background_sushi-85" class="st0_sushi-85" d="M241.5,398.2L15.9,264.9c-7.2-4-13.4-10.7-6.3-15L236,119.4c3.4-2.1,8.6-3.5,12-1.5&#10;&#9;l236.9,137.5c7.2,4.2,8.5,15.8,1.3,20L271.3,398C262.1,403.3,250.8,403.4,241.5,398.2z"/>
<g id="table_sushi-85">
	<polygon class="st1_sushi-85 targetColor" points="97.1,221.8 300.2,339.6 410.9,275.3 207.1,158.1 &#9;" style="fill: rgb(104, 225, 253);"/>
	<polygon class="st1_sushi-85 targetColor" points="97.1,221.8 97.1,236.7 108.3,243 108.3,238.1 288.7,342.3 288.7,347.6 300.3,354.6 300.2,339.6 &#9;" style="fill: rgb(104, 225, 253);"/>
	<polygon class="st1_sushi-85 targetColor" points="300.3,354.6 311.7,347.7 311.7,341.6 399.4,290.5 399.4,296.7 410.9,290.5 410.9,275.3 300.2,339.6 &#9;&#10;&#9;&#9;" style="fill: rgb(104, 225, 253);"/>
	<polygon class="st2_sushi-85" points="97.1,221.8 97.1,236.7 108.3,243 108.3,238.1 288.7,342.3 288.7,347.6 300.3,354.6 300.2,339.6 &#9;"/>
	<polygon class="st0_sushi-85" points="108.3,243 112.7,240.6 108.3,238.1 &#9;"/>
	<polygon class="st3_sushi-85" points="300.3,354.6 311.7,347.7 311.7,341.6 399.4,290.5 399.4,296.7 410.9,290.5 410.9,275.3 300.2,339.6 &#9;&#10;&#9;&#9;"/>
	<polygon class="st4_sushi-85" points="399.4,296.7 394.2,293.5 399.4,290.5 &#9;"/>
	<g class="st5_sushi-85">
		<line class="st6_sushi-85" x1="109.3" y1="229.8" x2="220.4" y2="164.9"/>
		
			<rect x="100.6" y="196.7" transform="matrix(0.8632 -0.5048 0.5048 0.8632 -77.0856 110.2222)" class="st7_sushi-85" width="128.6" height="1.3"/>
		<line class="st6_sushi-85" x1="123.9" y1="238.1" x2="235" y2="173.1"/>
		
			<rect x="115.2" y="205" transform="matrix(0.8632 -0.5048 0.5048 0.8632 -79.2529 118.7226)" class="st7_sushi-85" width="128.6" height="1.3"/>
		<line class="st6_sushi-85" x1="139.6" y1="246.5" x2="250.6" y2="181.5"/>
		
			<rect x="130.8" y="213.4" transform="matrix(0.8632 -0.5048 0.5048 0.8632 -81.3556 127.7459)" class="st7_sushi-85" width="128.6" height="1.3"/>
		<line class="st6_sushi-85" x1="154.1" y1="254.7" x2="265.2" y2="189.8"/>
		
			<rect x="143.9" y="221.9" transform="matrix(0.8645 -0.5026 0.5026 0.8645 -83.6969 134.6562)" class="st7_sushi-85" width="127.9" height="1.3"/>
		<line class="st6_sushi-85" x1="169.1" y1="264.6" x2="280.2" y2="199.6"/>
		
			<rect x="160.3" y="231.5" transform="matrix(0.8632 -0.5048 0.5048 0.8632 -86.4512 145.1592)" class="st7_sushi-85" width="128.6" height="1.3"/>
		<line class="st6_sushi-85" x1="183.7" y1="272.8" x2="294.8" y2="207.9"/>
		
			<rect x="174.9" y="239.7" transform="matrix(0.8632 -0.5048 0.5048 0.8632 -88.6286 153.6522)" class="st7_sushi-85" width="128.6" height="1.3"/>
		<line class="st6_sushi-85" x1="199.3" y1="281.2" x2="310.4" y2="216.3"/>
		
			<rect x="190.5" y="248.1" transform="matrix(0.8632 -0.5048 0.5048 0.8632 -90.73 162.6806)" class="st7_sushi-85" width="128.6" height="1.3"/>
		<line class="st6_sushi-85" x1="213.9" y1="289.5" x2="325" y2="224.6"/>
		
			<rect x="205.1" y="256.4" transform="matrix(0.8632 -0.5048 0.5048 0.8632 -92.901 171.1773)" class="st7_sushi-85" width="128.6" height="1.3"/>
		<line class="st6_sushi-85" x1="228.8" y1="298.9" x2="339.8" y2="233.9"/>
		
			<rect x="219.9" y="265.7" transform="matrix(0.8632 -0.5048 0.5048 0.8632 -95.5984 179.9379)" class="st7_sushi-85" width="128.6" height="1.3"/>
		<line class="st6_sushi-85" x1="243.3" y1="307.1" x2="354.4" y2="242.2"/>
		
			<rect x="234.5" y="274" transform="matrix(0.8632 -0.5048 0.5048 0.8632 -97.7745 188.436)" class="st7_sushi-85" width="128.6" height="1.3"/>
		<line class="st6_sushi-85" x1="259" y1="315.5" x2="370" y2="250.6"/>
		
			<rect x="250.1" y="282.4" transform="matrix(0.8637 -0.5041 0.5041 0.8637 -99.8075 197.102)" class="st7_sushi-85" width="128.6" height="1.3"/>
		<line class="st6_sushi-85" x1="273.5" y1="323.8" x2="384.6" y2="258.8"/>
		
			<rect x="264.8" y="290.7" transform="matrix(0.8637 -0.5041 0.5041 0.8637 -101.9773 205.5885)" class="st7_sushi-85" width="128.6" height="1.3"/>
		<line class="st6_sushi-85" x1="287.4" y1="333" x2="398.4" y2="268.1"/>
		
			<rect x="278.6" y="299.9" transform="matrix(0.8637 -0.5041 0.5041 0.8637 -104.7649 213.8242)" class="st7_sushi-85" width="128.6" height="1.3"/>
	</g>
</g>
<g id="chopstick_sushi-85">
	<path class="st8_sushi-85" d="M419.6,74.2L322.5,257c0.3,0.6,0.8,0.9,1.5,0.9c1.5,0,2.7-1.8,3.2-3c0.1-0.2,0.2-0.3,0.4-0.4l96.9-174.9&#10;&#9;&#9;C423.7,77.2,421.9,75.3,419.6,74.2z"/>
	<path class="st8_sushi-85" d="M410.4,73l-88.5,181.2c0,0,0,0,0,0.1c0,0.9,0.2,1.8,0.6,2.6l97.1-182.8C416.8,72.7,413.5,72.3,410.4,73z"/>
	<path class="st8_sushi-85" d="M471.4,113L334.4,266.8c0.1,0.6,0.6,1.1,1.2,1.2c1.5,0.4,3-1.1,3.8-2.2c0.1-0.2,0.3-0.3,0.5-0.3L474.7,120&#10;&#9;&#9;C474.1,117.5,473,115.1,471.4,113z"/>
	<path class="st8_sushi-85" d="M464.1,108L334.4,264c0,0,0,0,0,0.1c-0.2,0.9-0.2,1.8,0,2.7L471.4,113C469.5,110.7,467,108.9,464.1,108z"/>
	<path class="st3_sushi-85" d="M410.4,73l-88.5,181.2c0,0,0,0,0,0.1c0,0.9,0.2,1.8,0.6,2.6l97.1-182.8C416.8,72.7,413.5,72.3,410.4,73z"/>
	<path class="st3_sushi-85" d="M464.1,108L334.4,264c0,0,0,0,0,0.1c-0.2,0.9-0.2,1.8,0,2.7L471.4,113C469.5,110.7,467,108.9,464.1,108z"/>
</g>
<g id="sushi_4_sushi-85">
	<polyline class="st7_sushi-85" points="300.2,257.2 300.2,281.7 342.9,281.7 342.9,257.2 &#9;"/>
	<ellipse class="st7_sushi-85" cx="321.6" cy="282.2" rx="21.3" ry="10.2"/>
	<ellipse class="st9_sushi-85" cx="321.6" cy="257.1" rx="21.3" ry="10.2"/>
	<path class="st10_sushi-85" d="M329.8,252.9c-2.8-1.1-5.7-1.8-8.7-2.2c-3.6-0.4-7.7,0-10.5,2.4s-3.3,5.8,0,7.9c5,3.3,14.3,3.5,19.8,1.7&#10;&#9;&#9;c2-0.6,4.2-2.3,4.2-4.7S332.5,254,329.8,252.9z"/>
	<path class="st11_sushi-85" d="M321.6,252.5c0,0,0.8,8.1-0.7,9.3s-10.2,0-10.9-3.5S314.8,251.4,321.6,252.5z"/>
</g>
<g id="sushi_3_sushi-85">
	<polyline class="st7_sushi-85" points="211.8,209.4 211.8,233.9 254.5,233.9 254.5,209.4 &#9;"/>
	<ellipse class="st7_sushi-85" cx="233.1" cy="234.4" rx="21.3" ry="10.2"/>
	<ellipse class="st9_sushi-85" cx="233.1" cy="209.3" rx="21.3" ry="10.2"/>
	<path class="st12_sushi-85" d="M238.9,201.7c-4.4-0.6-8.8-0.4-13.1,0.6c-3.1,0.9-7.2,2.2-7.8,5.6c-1.1,6.1,7.9,7.9,12.8,8.2&#10;&#9;&#9;c5.3,0.3,14.5-0.2,16.9-5.4C250.3,205.1,245.1,202.6,238.9,201.7z"/>
	<path class="st11_sushi-85" d="M241.5,204.4c-0.2-1.5-1.6-2.7-3.1-2.6c-3.9,0.1-8.4,0.4-11.6,2.9c-3,2.4-3.4,6.4-0.1,8.7&#10;&#9;&#9;c4.6,3.1,18.1,4.8,17.9-3.9C244.6,207.3,243.4,205.3,241.5,204.4z"/>
	<path class="st10_sushi-85" d="M247.8,205.4c-1.8-4.5-9.3-5.5-12-1.4c-1.7,1.6-2.4,4-2,6.3c0.3,1.7,1.4,3.2,3,4c0.7,1.2,2.2,1.8,3.5,1.3&#10;&#9;&#9;c2.2-0.5,4.3-1.6,5.9-3.1C248,210.7,248.7,207.9,247.8,205.4z"/>
</g>
<g id="sushi_2_sushi-85">
	<polyline class="st7_sushi-85" points="169.1,186.6 169.1,211.2 211.8,211.2 211.8,186.6 &#9;"/>
	<ellipse class="st7_sushi-85" cx="190.5" cy="211.6" rx="21.3" ry="10.2"/>
	<ellipse class="st9_sushi-85" cx="190.5" cy="186.6" rx="21.3" ry="10.2"/>
	<path class="st13_sushi-85" d="M196,179.4l-10,13.5c1.6,0.3,3.2,0.4,4.8,0.5h0.2c2.8-4.4,5.7-8.6,8.9-12.7&#10;&#9;&#9;C198.6,180.1,197.3,179.6,196,179.4z"/>
	<path class="st13_sushi-85" d="M177.1,184.6c-0.5,1.3-0.5,2.8,0.2,4c1.8-3,3.8-5.8,6.1-8.5C180.6,180.8,178,182.1,177.1,184.6z"/>
	<path class="st13_sushi-85" d="M190.9,179.1c-0.9,0-2.1,0.1-3.3,0.2c-3.2,3.4-6,7.1-8.4,11.2c1.2,0.8,2.6,1.4,4,1.8l9.8-13.2&#10;&#9;&#9;C192.2,179,191.5,179,190.9,179.1z"/>
	<path class="st13_sushi-85" d="M203.6,184.7c-0.4-0.9-1-1.8-1.7-2.5c-2.7,3.6-5.3,7.2-7.7,10.9C199.3,192.6,206.1,190.3,203.6,184.7z"/>
	<path class="st13_sushi-85" d="M183.4,180c-2.3,2.7-4.3,5.5-6.1,8.5c0.5,0.8,1.1,1.5,1.9,2c2.4-4,5.2-7.8,8.4-11.2&#10;&#9;&#9;C186.2,179.4,184.8,179.7,183.4,180z"/>
	<path class="st13_sushi-85" d="M193,179.1l-9.8,13.2c0.9,0.3,1.8,0.5,2.8,0.6l10-13.5C195,179.2,194,179.1,193,179.1z"/>
	<path class="st13_sushi-85" d="M199.9,180.7c-3.1,4.1-6.1,8.3-8.9,12.7c1.1,0,2.2-0.1,3.2-0.2c2.4-3.7,5-7.4,7.7-10.9&#10;&#9;&#9;C201.3,181.7,200.6,181.1,199.9,180.7z"/>
	<path class="st14_sushi-85" d="M183.4,180c-2.3,2.7-4.3,5.5-6.1,8.5c0.5,0.8,1.1,1.5,1.9,2c2.4-4,5.2-7.8,8.4-11.2&#10;&#9;&#9;C186.2,179.4,184.8,179.7,183.4,180z"/>
	<path class="st14_sushi-85" d="M193,179.1l-9.8,13.2c0.9,0.3,1.8,0.5,2.8,0.6l10-13.5C195,179.2,194,179.1,193,179.1z"/>
	<path class="st14_sushi-85" d="M199.9,180.7c-3.1,4.1-6.1,8.3-8.9,12.7c1.1,0,2.2-0.1,3.2-0.2c2.4-3.7,5-7.4,7.7-10.9&#10;&#9;&#9;C201.3,181.7,200.6,181.1,199.9,180.7z"/>
</g>
<g id="sushi_1_sushi-85">
	<polyline class="st7_sushi-85" points="257.6,234.5 257.6,259 300.2,259 300.2,234.5 &#9;"/>
	<ellipse class="st7_sushi-85" cx="278.9" cy="259.4" rx="21.3" ry="10.2"/>
	<ellipse class="st9_sushi-85" cx="278.9" cy="234.4" rx="21.3" ry="10.2"/>
	<path class="st11_sushi-85" d="M281.8,229.1c-0.3-0.2-0.7-0.4-1.1-0.5c-3.8-1-10.5-0.2-11.7,4.4c-1.3,4.8,5.4,7.2,9.1,7.2&#10;&#9;&#9;c3.5,0,10.5-1.3,10.4-6C288.5,231,285.2,229.6,281.8,229.1z"/>
	<path class="st15_sushi-85" d="M270.3,232.3c-0.1,0-0.3,0-0.4,0.1c0.2-0.7-0.1-1.4-0.8-1.6c-0.1-0.1-0.3-0.1-0.4-0.1c-0.7,0-1.3,0.6-1.3,1.3&#10;&#9;&#9;c0,0.7,0.6,1.3,1.3,1.3c0.1,0,0.3,0,0.4-0.1c-0.2,0.7,0.1,1.4,0.8,1.6c0.1,0.1,0.3,0.1,0.4,0.1c0.7-0.1,1.3-0.7,1.2-1.4&#10;&#9;&#9;C271.4,232.8,270.9,232.3,270.3,232.3z"/>
	<path class="st15_sushi-85" d="M272.2,226.7c-0.7,0-1.3,0.7-1.3,1.4c0,0.4,0.2,0.8,0.5,1c-0.7,0-1.3,0.6-1.3,1.3s0.6,1.3,1.3,1.3&#10;&#9;&#9;c0.7,0,1.3-0.6,1.3-1.3c0-0.4-0.2-0.8-0.6-1.1c0.7-0.1,1.2-0.7,1.2-1.4C273.4,227.3,272.8,226.8,272.2,226.7z"/>
	<path class="st15_sushi-85" d="M275.4,229.8c-0.7,0.1-1.3,0.7-1.2,1.4c0.1,0.6,0.6,1.1,1.2,1.2c0.7-0.1,1.3-0.7,1.2-1.4&#10;&#9;&#9;C276.5,230.3,276,229.8,275.4,229.8z"/>
	<path class="st15_sushi-85" d="M277,226.8c-0.7,0-1.3,0.6-1.3,1.3c0,0.7,0.6,1.3,1.3,1.3c0.7,0,1.3-0.6,1.3-1.3&#10;&#9;&#9;C278.3,227.4,277.7,226.8,277,226.8z"/>
	<path class="st15_sushi-85" d="M283,228.9c-0.7,0-1.3,0.6-1.3,1.3c0,0.7,0.6,1.3,1.3,1.3c0.7,0,1.3-0.6,1.3-1.3&#10;&#9;&#9;C284.4,229.5,283.8,228.9,283,228.9z"/>
	<path class="st15_sushi-85" d="M290.3,232.8c0.5-0.5,0.4-1.4-0.1-1.9c-0.2-0.2-0.5-0.3-0.8-0.3c-0.7,0-1.3,0.6-1.2,1.4&#10;&#9;&#9;c0,0.6,0.5,1.2,1.1,1.2c-0.5,0.6-0.4,1.5,0.2,2c0,0,0,0,0.1,0c-0.7,0.1-1.2,0.7-1.1,1.4c0.1,0.6,0.6,1.1,1.3,1.1&#10;&#9;&#9;c0.7,0,1.3-0.6,1.3-1.4c0-0.4-0.2-0.8-0.6-1c0.7,0,1.3-0.6,1.3-1.3C291.6,233.3,291,232.7,290.3,232.8L290.3,232.8z"/>
	<path class="st15_sushi-85" d="M280.7,237.2c-0.7,0-1.3,0.6-1.3,1.3c0,0.7,0.6,1.3,1.3,1.3c0.7,0,1.3-0.6,1.3-1.3&#10;&#9;&#9;C282,237.8,281.4,237.2,280.7,237.2z"/>
	<path class="st15_sushi-85" d="M286.6,237.4c-0.7,0-1.3,0.6-1.3,1.3c0,0.7,0.6,1.3,1.3,1.3c0.7,0,1.3-0.6,1.3-1.3&#10;&#9;&#9;C287.9,238,287.3,237.4,286.6,237.4z"/>
	<path class="st15_sushi-85" d="M286.8,227.8c-0.7,0-1.3,0.6-1.3,1.3c0,0.7,0.6,1.3,1.3,1.3c0.7,0,1.3-0.6,1.3-1.3&#10;&#9;&#9;C288.1,228.4,287.5,227.8,286.8,227.8z"/>
	<path class="st15_sushi-85" d="M280.7,232.9c-0.7-0.1-1.3,0.4-1.4,1.1c-0.1,0.7,0.4,1.3,1.1,1.4c0,0,0,0,0.1,0c0.7-0.1,1.3-0.7,1.2-1.4&#10;&#9;&#9;C281.6,233.5,281.2,233,280.7,232.9z"/>
	<path class="st15_sushi-85" d="M276.5,232.5c-0.7,0-1.3,0.6-1.3,1.3c0,0.7,0.6,1.3,1.3,1.3c0.7,0,1.3-0.6,1.3-1.3&#10;&#9;&#9;C277.8,233.1,277.2,232.5,276.5,232.5z"/>
	<path class="st15_sushi-85" d="M275,237.6c-0.7,0-1.3,0.6-1.3,1.3c0,0.7,0.6,1.3,1.3,1.3c0.7,0,1.3-0.6,1.3-1.3&#10;&#9;&#9;C276.3,238.2,275.7,237.6,275,237.6z"/>
	<path class="st15_sushi-85" d="M271.6,234.6c-0.7,0-1.3,0.6-1.3,1.3c0,0.7,0.6,1.3,1.3,1.3c0.7,0,1.3-0.6,1.3-1.3&#10;&#9;&#9;C272.9,235.2,272.4,234.6,271.6,234.6z"/>
	<path class="st15_sushi-85" d="M268.7,236.3c-0.7,0-1.3,0.6-1.3,1.3c0,0.7,0.6,1.3,1.3,1.3c0.7,0,1.3-0.6,1.3-1.3&#10;&#9;&#9;C270,236.9,269.4,236.3,268.7,236.3z"/>
	<path class="st15_sushi-85" d="M274.6,234.4c-0.7,0-1.3,0.6-1.3,1.3c0,0.7,0.6,1.3,1.3,1.3c0.7,0,1.3-0.6,1.3-1.3&#10;&#9;&#9;C275.9,235,275.3,234.4,274.6,234.4z"/>
	<path class="st15_sushi-85" d="M278,236.3c-0.7,0-1.3,0.6-1.3,1.3c0,0.7,0.6,1.3,1.3,1.3c0.7,0,1.3-0.6,1.3-1.3&#10;&#9;&#9;C279.3,236.9,278.7,236.3,278,236.3z"/>
	<path class="st15_sushi-85" d="M281.5,226.4c-0.7,0-1.3,0.6-1.3,1.3c0,0.7,0.6,1.3,1.3,1.3c0.7,0,1.3-0.6,1.3-1.3&#10;&#9;&#9;C282.8,226.9,282.3,226.4,281.5,226.4z"/>
	<path class="st15_sushi-85" d="M286.8,231.6c-0.6,0-1.1,0.4-1.2,0.9c-0.5,0.3-0.8,1-0.6,1.6l0,0c-0.7,0-1.3,0.6-1.3,1.3c0,0.2,0,0.4,0.1,0.5&#10;&#9;&#9;c-0.2-0.3-0.6-0.4-0.9-0.4c-0.7,0-1.3,0.6-1.3,1.3c0,0.5,0.3,1,0.8,1.2c-0.3,0.6-0.1,1.4,0.5,1.7c0.2,0.1,0.4,0.2,0.6,0.2&#10;&#9;&#9;c0.7,0,1.3-0.6,1.3-1.3c0-0.5-0.3-1-0.8-1.2c0.1-0.4,0.1-0.7,0-1.1c0.2,0.3,0.6,0.4,0.9,0.4c0.7,0,1.3-0.6,1.3-1.3&#10;&#9;&#9;c0-0.1,0-0.3-0.1-0.4l0,0c0.6,0,1.1-0.4,1.2-0.9c0.6-0.4,0.8-1.2,0.5-1.8C287.6,231.9,287.2,231.6,286.8,231.6z"/>
	<path class="st15_sushi-85" d="M267.3,233.1c-0.7,0-1.3,0.6-1.3,1.3c0,0.7,0.6,1.3,1.3,1.3c0.7,0,1.3-0.6,1.3-1.3&#10;&#9;&#9;C268.6,233.7,268,233.1,267.3,233.1z"/>
	<path class="st15_sushi-85" d="M268.5,226.9c-0.7,0-1.3,0.6-1.3,1.3c0,0.7,0.6,1.3,1.3,1.3c0.7,0,1.3-0.6,1.3-1.3&#10;&#9;&#9;C269.8,227.5,269.2,226.9,268.5,226.9z"/>
</g>
</svg>