<svg id="_0343_taxi_driver" xmlns="http://www.w3.org/2000/svg" xmlns:xlink="http://www.w3.org/1999/xlink" viewBox="0 0 500 500" data-imageid="taxi-driver-25" imageName="Taxi Driver" class="illustrations_image" style="width: 166px;"><defs><style>.cls-1_taxi-driver-25{fill:url(#linear-gradient);}.cls-1_taxi-driver-25,.cls-2_taxi-driver-25,.cls-3_taxi-driver-25,.cls-4_taxi-driver-25,.cls-5_taxi-driver-25,.cls-6_taxi-driver-25,.cls-7_taxi-driver-25,.cls-8_taxi-driver-25,.cls-9_taxi-driver-25,.cls-10_taxi-driver-25,.cls-11_taxi-driver-25,.cls-12_taxi-driver-25,.cls-13_taxi-driver-25,.cls-14_taxi-driver-25,.cls-15_taxi-driver-25,.cls-16_taxi-driver-25,.cls-17_taxi-driver-25,.cls-18_taxi-driver-25,.cls-19_taxi-driver-25,.cls-20_taxi-driver-25,.cls-21_taxi-driver-25,.cls-22_taxi-driver-25,.cls-23_taxi-driver-25,.cls-24_taxi-driver-25{stroke-width:0px;}.cls-2_taxi-driver-25{opacity:.18;}.cls-2_taxi-driver-25,.cls-9_taxi-driver-25,.cls-10_taxi-driver-25,.cls-11_taxi-driver-25{isolation:isolate;}.cls-2_taxi-driver-25,.cls-10_taxi-driver-25,.cls-11_taxi-driver-25,.cls-24_taxi-driver-25{fill:#68e1fd;}.cls-3_taxi-driver-25{fill:url(#linear-gradient-11-taxi-driver-25);}.cls-4_taxi-driver-25{fill:url(#linear-gradient-12-taxi-driver-25);}.cls-5_taxi-driver-25{fill:url(#linear-gradient-13-taxi-driver-25);}.cls-6_taxi-driver-25{fill:url(#linear-gradient-10-taxi-driver-25);}.cls-7_taxi-driver-25{fill:url(#linear-gradient-15-taxi-driver-25);}.cls-8_taxi-driver-25{fill:url(#linear-gradient-14-taxi-driver-25);}.cls-9_taxi-driver-25{opacity:.2;}.cls-9_taxi-driver-25,.cls-22_taxi-driver-25{fill:#fff;}.cls-10_taxi-driver-25{opacity:.37;}.cls-11_taxi-driver-25{opacity:.74;}.cls-12_taxi-driver-25{fill:url(#linear-gradient-4-taxi-driver-25);}.cls-13_taxi-driver-25{fill:url(#linear-gradient-2-taxi-driver-25);}.cls-14_taxi-driver-25{fill:url(#linear-gradient-3-taxi-driver-25);}.cls-15_taxi-driver-25{fill:url(#linear-gradient-8-taxi-driver-25);}.cls-16_taxi-driver-25{fill:url(#linear-gradient-9-taxi-driver-25);}.cls-17_taxi-driver-25{fill:url(#linear-gradient-7-taxi-driver-25);}.cls-18_taxi-driver-25{fill:url(#linear-gradient-5-taxi-driver-25);}.cls-19_taxi-driver-25{fill:url(#linear-gradient-6-taxi-driver-25);}.cls-20_taxi-driver-25{fill:#090909;}.cls-21_taxi-driver-25{fill:#c14834;}.cls-23_taxi-driver-25{fill:#ffaa71;}</style><linearGradient id="linear-gradient-taxi-driver-25" x1="-1169.98" y1="2846.45" x2="-1166.39" y2="2770.79" gradientTransform="translate(1285.77 3025.06) scale(1 -1)" gradientUnits="userSpaceOnUse"><stop offset="0" stop-color="#231f20" stop-opacity="0"/><stop offset="1" stop-color="#231f20"/></linearGradient><linearGradient id="linear-gradient-2-taxi-driver-25" x1="-882.52" y1="2860.13" x2="-878.92" y2="2784.47" xlink:href="#linear-gradient-taxi-driver-25"/><linearGradient id="linear-gradient-3-taxi-driver-25" x1="-1029.82" y1="2962.05" x2="-1028.28" y2="2880.99" gradientTransform="translate(1289 3047.03) scale(1 -1)" xlink:href="#linear-gradient-taxi-driver-25"/><linearGradient id="linear-gradient-4-taxi-driver-25" x1="-1023.17" y1="2811.53" x2="-1023.94" y2="2699.59" xlink:href="#linear-gradient-taxi-driver-25"/><linearGradient id="linear-gradient-5-taxi-driver-25" x1="256.91" y1="91.83" x2="263.75" y2="330.31" gradientTransform="matrix(1,0,0,1,0,0)" xlink:href="#linear-gradient-taxi-driver-25"/><linearGradient id="linear-gradient-6-taxi-driver-25" x1="258.25" y1="207.58" x2="281.05" y2="445.41" gradientTransform="matrix(1,0,0,1,0,0)" xlink:href="#linear-gradient-taxi-driver-25"/><linearGradient id="linear-gradient-7-taxi-driver-25" x1="-1027.03" y1="2781.36" x2="-1020.85" y2="2636.23" xlink:href="#linear-gradient-taxi-driver-25"/><linearGradient id="linear-gradient-8-taxi-driver-25" x1="-1027.96" y1="2808.29" x2="-1024.36" y2="2719.24" gradientTransform="translate(1289 3047.03) scale(1 -1)" xlink:href="#linear-gradient-taxi-driver-25"/><linearGradient id="linear-gradient-9-taxi-driver-25" x1="257.91" y1="168.26" x2="272.24" y2="418.46" gradientTransform="matrix(1,0,0,1,0,0)" xlink:href="#linear-gradient-taxi-driver-25"/><linearGradient id="linear-gradient-10-taxi-driver-25" x1="-1081.36" y1="2806.01" x2="-1082.22" y2="2827.63" xlink:href="#linear-gradient-taxi-driver-25"/><linearGradient id="linear-gradient-11-taxi-driver-25" x1="-1079.53" y1="2839.69" x2="-1080.82" y2="2823.2" xlink:href="#linear-gradient-taxi-driver-25"/><linearGradient id="linear-gradient-12-taxi-driver-25" x1="-1057.79" y1="2854.81" x2="-1074.46" y2="2852.63" xlink:href="#linear-gradient-taxi-driver-25"/><linearGradient id="linear-gradient-13-taxi-driver-25" x1="-1077.81" y1="2849.1" x2="-1076.09" y2="2864.38" xlink:href="#linear-gradient-taxi-driver-25"/><linearGradient id="linear-gradient-14-taxi-driver-25" x1="-1080.21" y1="2847.11" x2="-1084.02" y2="2760.89" xlink:href="#linear-gradient-taxi-driver-25"/><linearGradient id="linear-gradient-15-taxi-driver-25" x1="-1040.39" y1="2939.53" x2="-1064.5" y2="2588.75" gradientTransform="translate(1289 3047.03) scale(1 -1)" gradientUnits="userSpaceOnUse"><stop offset=".02" stop-color="#fff" stop-opacity="0"/><stop offset=".39" stop-color="#fff" stop-opacity=".39"/><stop offset="1" stop-color="#fff"/></linearGradient></defs><g id="background_taxi-driver-25"><path class="cls-2_taxi-driver-25 targetColor" d="M492.41,351.74c-1.3,11.34-3.61,23.05-10.61,32.07-6.27,8.16-15.64,13.23-24.95,17.66-60.97,28.76-129.93,36.09-197.3,36.52-51.9.36-105.1-3.34-152.62-24.22-45.9-20.15-86-58.95-97.31-107.53-.41-1.71-.76-3.43-1.09-5.17-2.94-15.72-2.83-31.99-1.71-48.01,2.15-30.82,8.63-62.83,28.32-86.69,17.38-21.09,42.86-33.32,66.03-47.89,20.01-12.58,38.7-27.31,59.65-38.24,27.67-14.44,58.6-21.51,89.69-22.24,53.8-1.2,98.96,22.86,150.5,31.63,53.98,9.16,55.34,48.72,60.56,95.85,2.6,23.27,13.37,44.7,20.69,66.95,10.51,31.99,13.98,65.87,10.15,99.32Z" style="fill: rgb(104, 225, 253);"/><path class="cls-10_taxi-driver-25 targetColor" d="M490.1,352.52c-1.31,11.33-3.61,23.04-10.61,32.07-6.27,8.14-15.64,13.23-24.95,17.65-60.97,28.76-129.87,36.09-197.3,36.52-51.9.37-105.08-3.34-152.6-24.22-45.88-20.15-86-58.92-97.31-107.54h483.51c1.24,15.16,1,30.4-.73,45.51Z" style="fill: rgb(104, 225, 253);"/><path class="cls-11_taxi-driver-25 targetColor" d="M82.53,361.15c-3.61,3.92-7.22,8.12-7.22,12.73-.07,8.42,11.63,14.63,23.19,17.73,15.3,4.1,31.99,5.09,48.42,5.89,63.76,3.16,127.79,4.42,191.75,5.67,26.14.52,52.6,1,78.11-2.83,9.5-1.43,19.89-4.05,23.82-10.06,4.91-7.51-2.65-16.84,2.48-24.27,2.71-3.92,8.63-6.72,10.2-10.92,1.86-5-3.49-10.21-10.33-12.52-6.85-2.31-14.82-2.41-22.48-2.51-55.49-.54-110.99-.94-166.5-1.2l-111.5-.65c-11.55-.06-36.82-3.61-46.69,1.09-8.07,3.8-7.76,15.83-13.26,21.85Z" style="fill: rgb(104, 225, 253);"/></g><g id="taxi_taxi-driver-25"><path class="cls-20_taxi-driver-25" d="M102.24,331.84h54.23v46.74c0,6.88-5.57,12.45-12.45,12.45h-29.33c-6.88,0-12.45-5.57-12.45-12.45h0v-46.74h0Z"/><path class="cls-20_taxi-driver-25" d="M367.54,331.84h54.24v46.74c0,6.88-5.57,12.45-12.45,12.45h-29.34c-6.88,0-12.45-5.57-12.45-12.45h0v-46.74h0Z"/><path class="cls-24_taxi-driver-25 targetColor" d="M109.77,224.92h25.73v-21.65h-25.73c-5.98,0-10.83,4.85-10.83,10.83h0c0,5.98,4.85,10.83,10.83,10.83Z" style="fill: rgb(104, 225, 253);"/><path class="cls-24_taxi-driver-25 targetColor" d="M413.29,224.92h-25.73v-21.65h25.73c5.98,0,10.83,4.85,10.83,10.83h0c0,5.98-4.85,10.83-10.83,10.83h0Z" style="fill: rgb(104, 225, 253);"/><path class="cls-1_taxi-driver-25" d="M109.77,224.92h25.73v-21.65h-25.73c-5.98,0-10.83,4.85-10.83,10.83h0c0,5.98,4.85,10.83,10.83,10.83Z"/><path class="cls-13_taxi-driver-25" d="M413.29,224.92h-25.73v-21.65h25.73c5.98,0,10.83,4.85,10.83,10.83h0c0,5.98-4.85,10.83-10.83,10.83h0Z"/><polygon class="cls-24_taxi-driver-25 targetColor" points="298.56 143.72 222.02 143.72 225.45 117.62 295.13 117.62 298.56 143.72" style="fill: rgb(104, 225, 253);"/><polygon class="cls-14_taxi-driver-25" points="298.56 143.72 222.02 143.72 225.45 117.62 295.13 117.62 298.56 143.72"/><path class="cls-24_taxi-driver-25 targetColor" d="M110.71,246.86c-5.58,14.49-8.43,29.88-8.42,45.4l70.62,35.33,171.01.34,77.92-35.67h0c0-15.52-2.85-30.91-8.42-45.4H110.71Z" style="fill: rgb(104, 225, 253);"/><path class="cls-12_taxi-driver-25" d="M110.71,246.86c-5.58,14.49-8.43,29.88-8.42,45.4l70.62,35.33,171.01.34,77.92-35.67h0c0-15.52-2.85-30.91-8.42-45.4H110.71Z"/><path class="cls-24_taxi-driver-25 targetColor" d="M327.57,143.72h-130.69c-24.53,0-46.37,15.52-54.44,38.69l-9.53,27.34h258.65l-9.54-27.34c-8.06-23.18-29.92-38.7-54.46-38.69Z" style="fill: rgb(104, 225, 253);"/><path class="cls-18_taxi-driver-25" d="M379.07,209.76h-237.55l9.62-28.02c6.24-18.06,23.24-30.16,42.35-30.15h135.38c20.08,0,37.7,13.37,43.1,32.71l7.1,25.46Z"/><path class="cls-24_taxi-driver-25 targetColor" d="M110.71,246.86h0c99.34,12.51,199.84,12.65,299.22.42l3.39-.42c-4.89-12.69-11.79-24.51-20.45-35l-1.77-2.14H132.92l-1.78,2.14c-8.65,10.49-15.55,22.31-20.43,35Z" style="fill: rgb(104, 225, 253);"/><path class="cls-19_taxi-driver-25" d="M110.71,246.86h0c99.34,12.51,199.84,12.65,299.22.42l3.39-.42c-4.89-12.69-11.79-24.51-20.45-35l-1.77-2.14H132.92l-1.78,2.14c-8.65,10.49-15.55,22.31-20.43,35Z"/><path class="cls-24_taxi-driver-25 targetColor" d="M423.94,316.74l-2.15-24.45h-3.44l-32.08,9.31c-23.5,6.83-47.85,10.3-72.33,10.3h-107.29c-24.47,0-48.82-3.47-72.33-10.3l-32.08-9.31-2.15,24.45c-2.05,23.38,15.24,44,38.62,46.06,1.23.11,2.47.16,3.71.16h239.19c23.47,0,42.5-19.03,42.5-42.51,0-1.24-.05-2.48-.16-3.71Z" style="fill: rgb(104, 225, 253);"/><path class="cls-17_taxi-driver-25" d="M423.94,316.74l-2.15-24.45h-3.44l-32.08,9.31c-23.5,6.83-47.85,10.3-72.33,10.3h-107.29c-24.47,0-48.82-3.47-72.33-10.3l-32.08-9.31-2.15,24.45c-2.05,23.38,15.24,44,38.62,46.06,1.23.11,2.47.16,3.71.16h239.19c23.47,0,42.5-19.03,42.5-42.51,0-1.24-.05-2.48-.16-3.71Z"/><polygon class="cls-22_taxi-driver-25" points="262.01 259.92 198 259.92 210.76 296.69 262.01 296.69 313.25 296.69 326.03 259.92 262.01 259.92"/><polygon class="cls-24_taxi-driver-25 targetColor" points="262.01 262.83 202.69 262.83 214.52 293.78 262.01 293.78 309.51 293.78 321.33 262.83 262.01 262.83" style="fill: rgb(104, 225, 253);"/><polygon class="cls-15_taxi-driver-25" points="262.01 262.83 202.69 262.83 214.52 293.78 262.01 293.78 309.51 293.78 321.33 262.83 262.01 262.83"/><rect class="cls-22_taxi-driver-25" x="202.69" y="266.37" width="118.16" height="3.87"/><rect class="cls-22_taxi-driver-25" x="206.52" y="276.37" width="111.04" height="3.87"/><rect class="cls-22_taxi-driver-25" x="209.22" y="286.37" width="104.12" height="3.87"/><path class="cls-20_taxi-driver-25" d="M355.54,353.36h-187c0-11.89,16.17-21.52,36.09-21.52h114.76c19.95,0,36.09,9.62,36.09,21.52h.06Z"/><path class="cls-22_taxi-driver-25" d="M237.31,138.33v-13.94h-4.04v-1.74h12.13v1.74h-4.03v13.94h-4.05Z"/><path class="cls-22_taxi-driver-25" d="M247.43,138.33v-12.21c.02-.94.46-1.83,1.2-2.41.79-.68,1.8-1.05,2.84-1.02h4.05c1.05-.02,2.06.35,2.85,1.03.74.58,1.18,1.46,1.2,2.41v12.2h-4.04v-6.97h-4.05v6.98h-4.05ZM251.46,129.62h4.05v-3.5c0-.47-.22-.92-.6-1.2-.39-.34-.9-.52-1.42-.52-.52,0-1.03.18-1.43.52-.37.29-.59.73-.6,1.2v3.5Z"/><path class="cls-22_taxi-driver-25" d="M263.6,138.33v-4.37c0-2.05,1.34-3.2,4.03-3.48-2.69-.28-4.03-1.43-4.03-3.48v-4.37h4.03v5.23c.01.47.23.91.6,1.2.83.69,2.03.69,2.85,0,.37-.29.59-.73.6-1.2v-5.23h4.04v4.37c0,2.05-1.35,3.2-4.04,3.48,2.69.28,4.04,1.44,4.04,3.49v4.35h-4.04v-5.23c0-.47-.23-.92-.6-1.2-.83-.69-2.03-.69-2.85,0-.37.29-.59.73-.6,1.2v5.23h-4.03Z"/><path class="cls-22_taxi-driver-25" d="M281.79,138.33v-15.64h4.04v15.64h-4.04Z"/><path class="cls-24_taxi-driver-25 targetColor" d="M331.92,254.34l47.15-44.58h-237.56l50.17,44.51c46.71,2.74,93.54,2.76,140.25.07Z" style="fill: rgb(104, 225, 253);"/><path class="cls-16_taxi-driver-25" d="M331.92,254.34l47.15-44.58h-237.56l50.17,44.51c46.71,2.74,93.54,2.76,140.25.07Z"/><path class="cls-9_taxi-driver-25" d="M128.45,211.9h-21.21c-1.48,0-2.68-1.2-2.68-2.68h0c0-1.48,1.2-2.68,2.68-2.68h21.21c1.48,0,2.68,1.2,2.68,2.68h0c0,1.48-1.2,2.68-2.68,2.68Z"/><path class="cls-9_taxi-driver-25" d="M416.43,211.9h-21.21c-1.48,0-2.68-1.2-2.68-2.68h0c0-1.48,1.2-2.68,2.68-2.68h21.21c1.48,0,2.68,1.2,2.68,2.68h0c0,1.48-1.2,2.68-2.68,2.68h0Z"/><path class="cls-22_taxi-driver-25" d="M189.05,260.2s-61.75-4.63-68.45-2.07c-6.7,2.56-10.83,25.26-10.83,25.26l92.63,12.36-13.35-35.55Z"/><path class="cls-22_taxi-driver-25" d="M335.13,260.2s61.76-4.63,68.45-2.07,10.83,25.26,10.83,25.26l-92.63,12.36,13.35-35.55Z"/><path class="cls-24_taxi-driver-25 targetColor" d="M236.62,209.76h-65.19c.15-.25.33-.48.52-.7,1.8-2.03,3.71-3.96,5.71-5.79,1.76-1.81,3.74-3.39,5.88-4.73,4.58-2.67,9.76-2.97,15.05-3.61l.77-.08h.54l1.31-.18c3.34-.47,6.72-.58,10.08-.35l1.2.08h0c2.82.24,5.62.72,8.36,1.41,3.59.75,6.97,2.29,9.9,4.5,2.88,2.41,4.37,5.68,5.77,8.83.12.18.15.41.08.61Z" style="fill: rgb(104, 225, 253);"/><path class="cls-6_taxi-driver-25" d="M236.62,209.76h-65.19c.15-.25.33-.48.52-.7,1.8-2.03,3.71-3.96,5.71-5.79,1.76-1.81,3.74-3.39,5.88-4.73,4.58-2.67,9.76-2.97,15.05-3.61l.77-.08h.54l1.31-.18c3.34-.47,6.72-.58,10.08-.35l1.2.08h0c2.82.24,5.62.72,8.36,1.41,3.59.75,6.97,2.29,9.9,4.5,2.88,2.41,4.37,5.68,5.77,8.83.12.18.15.41.08.61Z"/><path class="cls-23_taxi-driver-25" d="M198.84,199.74c.6.92,1.49,1.62,2.54,1.96,2.47.78,5.07,1.05,7.65.79.87.04,1.73-.15,2.5-.55.79-.67,1.23-1.65,1.2-2.68.21-2.61-.2-5.23-1.2-7.65-.13-.4-.37-.76-.7-1.02-.34-.2-.72-.33-1.11-.37-2.41-.45-7.76-1.2-9.72.72-1.42,1.43-2.07,7.13-1.17,8.81Z"/><path class="cls-3_taxi-driver-25" d="M202.19,199.51c2.37,1.37,5.3,1.37,7.68,0,.53-.29.97-.7,1.3-1.2.37-.79.49-1.67.35-2.53.04-.88-.27-1.74-.84-2.41-.54-.42-1.18-.7-1.85-.81-2.07-.48-4.21-.61-6.33-.37-.95.03-1.87.35-2.63.91-.49.62-.66,1.43-.47,2.2.25,1.75,1.28,3.3,2.8,4.2Z"/><path class="cls-23_taxi-driver-25" d="M216.78,188.87c-1.87,4.44-5.92,7.57-10.68,8.26-3.61.28-7.57-2.59-9.14-6.17-1.58-3.59-1.8-17.36-1.8-17.36-.05-.93.16-1.85.61-2.66.49-1,1.41-4.01,2.66-4.88,5.76-1.3,11.75-1.19,17.46.34,1.2.91,1.8,3.81,2.07,4.35.13.32.21.66.25,1.01.48,3.32.26,12.8-1.42,17.11Z"/><path class="cls-23_taxi-driver-25" d="M194.98,177.29c-.78-.45-1.78-.31-2.41.34-.23.39-.32.85-.25,1.3,0,.45.04.89.12,1.34.32,1.21,1.01,2.3,1.96,3.12.24.23.51.43.81.58.31.15.67.18,1.01.08.48-.22.82-.68.88-1.2.21-1.1.09-2.24-.32-3.28-.33-.93-.96-1.73-1.79-2.26Z"/><path class="cls-23_taxi-driver-25" d="M218.91,177.08c.78-.45,1.77-.32,2.41.32.23.39.32.85.26,1.3,0,.45-.05.9-.13,1.34-.32,1.21-1.01,2.3-1.96,3.12-.23.24-.5.44-.81.58-.31.16-.67.19-1.01.1-.5-.23-.84-.72-.88-1.28-.21-1.1-.09-2.25.34-3.28.34-.91.96-1.68,1.78-2.19Z"/><path class="cls-21_taxi-driver-25" d="M218.37,177.64c-.04-.22-.08-.44-.14-.66-.33-1.18-.78-2.33-1.34-3.43-.88-1.89-1.74-3.75-2.61-5.64-.14-.29-.28-.59-.41-.88h0v.08c-.14.13-.32.23-.51.28-1.18.39-2.39.7-3.61.91-1.61.2-3.24.1-4.81-.29-1.34-.34-2.71-1.34-4.13-1.29h-.2c-1.41-.01-2.65.94-3.01,2.31-.29,3.07-1.04,6.07-2.24,8.91-1.53-.9-1.7-2.69-1.71-4.25s0-3.21,0-4.81c-.06-.78.05-1.56.3-2.3.34-.81,1.08-1.39,1.95-1.54.73-.12,1.59.1,2.21-.25.47-.36.75-.9.77-1.49.14-1.16.62-2.24,1.4-3.12,1.76-1.79,5.09-1.91,7.72-1.2s4.92,2.18,7.52,3.04c1.74.59,3.77.99,4.88,2.25.53.66.87,1.45,1,2.29.74,3.96-.38,8.04-3.04,11.07Z"/><path class="cls-4_taxi-driver-25" d="M218.93,176.12c-.17.34-.41.63-.71.85-.33-1.18-.78-2.33-1.34-3.43l-3.02-6.52c.59-.31,1.24-.52,1.9-.63.89-.15,1.81.06,2.55.58.5.43.86,1.01,1.02,1.66.26,1.02.39,2.07.37,3.13.17,1.5-.1,3.01-.78,4.35Z"/><path class="cls-5_taxi-driver-25" d="M217.46,166.09c-1.15.43-2.23,1.04-3.19,1.82-.14-.29-.28-.59-.41-.88h0v.08c-.14.13-.32.23-.51.28-1.18.39-2.39.7-3.61.91-1.61.2-3.24.1-4.81-.29-1.34-.34-2.71-1.34-4.13-1.29h-.2c0-.19.16-.4.23-.61.69-1.94,1.14-3.61,3.68-4.21,1.49-.32,3.05-.2,4.48.36,1.3.65,2.67,1.15,4.08,1.49.88.02,1.75.12,2.61.29.93.29,1.62,1.08,1.78,2.05Z"/><path class="cls-8_taxi-driver-25" d="M204.13,196.61c-9.4,0-17.3,5.62-19.39,13.15h4.42c1.98-5.5,7.95-9.49,14.98-9.49s13,3.99,15,9.49h4.43c-2.12-7.53-10.03-13.15-19.43-13.15Z"/><path class="cls-23_taxi-driver-25" d="M192.63,201.31c.94.71,1.77,1.55,2.48,2.49.23.2.35.5.32.81-.07.32-.46.48-.78.55-.73.16-1.49.13-2.21-.07.53.44.68,1.19.37,1.8-.35.6-1.06.88-1.72.67.5.6.41,1.49-.19,1.98-.05.05-.11.09-.17.12-.74.38-1.58.53-2.41.42l-3.93-.1c-.57.04-1.15-.1-1.64-.4-.32-.27-.53-.65-.6-1.06-.15-1.26.12-2.52.77-3.61.46-1.22,1.18-2.34,2.11-3.26,2.17-1.81,5.27-1.96,7.6-.36Z"/><path class="cls-23_taxi-driver-25" d="M218.85,205.4c-.93.34-1.76.92-2.41,1.67-.22.27-.35.61-.36.96-.02.36.15.69.46.88.59.34,1.34-.17,2,0-.14.36.03.76.37.93.34.15.71.2,1.08.16l4.27-.13c.23.02.46-.03.66-.16.23-.24.29-.6.14-.9-.29-.79-1.2-1.2-1.47-2.06-.26-.85,0-2.48-1.44-2.68-1-.13-2.44.93-3.31,1.34Z"/><polygon class="cls-7_taxi-driver-25" points="193.49 151.59 242.58 209.59 293.7 209.24 249.79 152.63 193.49 151.59"/></g></svg>