<svg version="1.1" id="Layer_1" xmlns="http://www.w3.org/2000/svg" xmlns:xlink="http://www.w3.org/1999/xlink" x="0px" y="0px" viewBox="0 0 500 500" style="width: 166px;" xml:space="preserve" data-imageid="team-presentation-2-81" imageName="Team Presentation 2" class="illustrations_image">
<style type="text/css">
	.st0_team-presentation-2-81{fill:#231F20;}
	.st1_team-presentation-2-81{fill:#FFFFFF;}
	.st2_team-presentation-2-81{fill:#D1D3D4;}
	.st3_team-presentation-2-81{fill:#68E1FD;}
	.st4_team-presentation-2-81{fill:none;}
</style>
<path id="Chair_2_team-presentation-2-81" class="st0_team-presentation-2-81" d="M349.3,215.8h56.5c16,0,28.9,13,28.9,28.9c0,1.3-0.1,2.6-0.3,3.8l-9.1,68.6H310.4l10.1-76.2&#10;&#9;C322.5,226.6,334.7,215.9,349.3,215.8z"/>
<path id="Chair_1_team-presentation-2-81" class="st0_team-presentation-2-81" d="M151.9,215.8H95.3c-16,0-29,13-28.9,29.1c0,1.2,0.1,2.5,0.2,3.7l9.1,68.6h115L180.6,241&#10;&#9;C178.6,226.6,166.4,215.9,151.9,215.8z"/>
<g id="Screen_team-presentation-2-81">
	<path class="st1_team-presentation-2-81" d="M171.6,103.3h156.8c2.7,0,4.8,2.2,4.8,4.8v95.7c0,2.7-2.2,4.8-4.8,4.8H171.6c-2.7,0-4.8-2.2-4.8-4.8v-95.7&#10;&#9;&#9;C166.8,105.4,169,103.3,171.6,103.3z"/>
	<path class="st2_team-presentation-2-81" d="M328.4,209.3H171.6c-3,0-5.5-2.5-5.5-5.5v-95.7c0-3,2.5-5.5,5.5-5.5h156.7c3,0,5.5,2.5,5.5,5.5c0,0,0,0,0,0&#10;&#9;&#9;v95.7C333.9,206.8,331.4,209.3,328.4,209.3z M171.6,104c-2.3,0-4.1,1.8-4.1,4.1v95.7c0,2.3,1.8,4.1,4.1,4.1h156.7&#10;&#9;&#9;c2.3,0,4.1-1.8,4.1-4.1v-95.7c0-2.3-1.8-4.1-4.1-4.1L171.6,104z"/>
	<path class="st2_team-presentation-2-81" d="M323.9,201.3H176.1c-0.4,0-0.7-0.3-0.7-0.7v-89.3c0-0.4,0.3-0.7,0.7-0.7h147.7c0.4,0,0.7,0.3,0.7,0.7v89.3&#10;&#9;&#9;C324.5,201,324.2,201.3,323.9,201.3z M176.9,199.9h146.3V112H176.9V199.9z"/>
</g>
<g id="Character_Female_team-presentation-2-81">
	<path class="st1_team-presentation-2-81" d="M384.5,153c5.5-1.3,11.5,0.4,16,3.8c3.7,2.7,6.4,6.6,7.6,11c1.3,5,0.3,10.3-2.7,14.4c-3.1,4.1-8,6.5-13.1,6.4&#10;&#9;&#9;c-5.3-0.2-10.2-3.2-13.5-7.4c-2.4-3-5.7-7.9-6.3-11.8C371.6,162.6,378.1,154.5,384.5,153z"/>
	<path class="st0_team-presentation-2-81" d="M392.9,189.4h-0.6c-5.1-0.2-10.3-3-14-7.6c-2.1-2.7-5.8-7.8-6.4-12.1c-1.1-7.5,5.9-15.8,12.5-17.3l0,0&#10;&#9;&#9;c5.9-1.2,11.9,0.3,16.6,4c3.8,2.8,6.6,6.8,7.9,11.3c1.4,5.2,0.3,10.7-2.8,15C402.9,186.8,398.1,189.3,392.9,189.4z M384.7,153.7&#10;&#9;&#9;c-5.8,1.4-12.4,9-11.4,15.7c0.6,4.1,4.5,9.4,6.1,11.4c3.4,4.3,8.2,6.9,12.9,7.1c4.9,0.1,9.6-2.1,12.6-6.1c2.9-4,3.8-9.1,2.6-13.8&#10;&#9;&#9;c-1.2-4.3-3.8-8-7.4-10.6C395.8,154,390.2,152.6,384.7,153.7L384.7,153.7z"/>
	<path class="st0_team-presentation-2-81" d="M388.6,165.7c3.7,2.7,6.6,6.4,8.4,10.6c1.8,4.3,1.6,9.1-0.4,13.3c-0.6-3.5-3.3-6.1-5.9-8.5&#10;&#9;&#9;c-3.3-3.3-6.9-6.2-10.7-8.8c-1.9-1.2-4-2.2-6.1-2.9c-1.7-0.6-5.1-0.7-6.2-2.3c-2.4-3.5,4.6-5.5,7.1-5.9&#10;&#9;&#9;C379.8,160.5,384.7,162.8,388.6,165.7z"/>
	<path class="st0_team-presentation-2-81" d="M396.6,190.3h-0.1c-0.3,0-0.5-0.3-0.6-0.6c-0.5-3.1-2.9-5.5-5.6-8.1c-3.2-3.2-6.8-6.2-10.6-8.7&#10;&#9;&#9;c-1.9-1.2-3.9-2.2-6-2.9c-0.6-0.2-1.1-0.3-1.7-0.4c-1.9-0.4-4-0.8-4.9-2.2c-0.6-0.8-0.8-1.9-0.4-2.9c1.1-2.6,6.2-3.8,8-4.1&#10;&#9;&#9;c5.7-0.8,10.9,2.1,14.3,4.7l0,0c3.8,2.8,6.8,6.6,8.6,10.9c1.8,4.5,1.7,9.5-0.4,13.9C397.1,190.2,396.9,190.3,396.6,190.3z&#10;&#9;&#9; M376.6,161.8c-0.6,0-1.2,0-1.8,0.1c-2,0.3-6.2,1.5-6.9,3.3c-0.2,0.5-0.1,1.1,0.3,1.5c0.6,0.9,2.5,1.3,4,1.6&#10;&#9;&#9;c0.6,0.1,1.2,0.3,1.9,0.4c2.2,0.7,4.3,1.7,6.3,3c3.9,2.6,7.5,5.6,10.8,8.9c1.9,1.8,4.3,4.1,5.5,7c1.1-3.6,1-7.5-0.4-11&#10;&#9;&#9;c-1.7-4.1-4.6-7.7-8.2-10.3l0,0C385.3,164.1,381.2,161.8,376.6,161.8L376.6,161.8z"/>
	<path class="st3_team-presentation-2-81 targetColor" d="M303.4,290.7c6.2-20.6,15.2-40.2,26.7-58.3c4.3-5.7,16.9-10.1,34.7-7.7c0,0,39.7,0.8,47.4,13.4&#10;&#9;&#9;c4.4,7.3,8.2,26.6,10.6,55.3C422.8,293.4,300.5,291.1,303.4,290.7z" style="fill: rgb(104, 225, 253);"/>
	<polygon class="st0_team-presentation-2-81" points="358.6,230.6 359.5,284.8 383.3,227.6 &#9;"/>
	<path class="st0_team-presentation-2-81" d="M359.5,285.5h-0.1c-0.3-0.1-0.6-0.3-0.6-0.7l-0.9-54.2c0-0.4,0.3-0.7,0.6-0.7l24.7-3c0.2,0,0.5,0.1,0.6,0.3&#10;&#9;&#9;c0.1,0.2,0.2,0.5,0.1,0.7L360.1,285C360,285.3,359.8,285.5,359.5,285.5z M359.3,231.2l0.8,50.2l22.1-52.9L359.3,231.2z"/>
	<path class="st1_team-presentation-2-81" d="M347.1,176.2c6.2-14.1,28.5-18.5,42.7-5.9c6.3,5.6,8.1,14.1,5.6,22.1c-2.4,7.8-8.1,14.1-15.6,17.3&#10;&#9;&#9;c-7.6,3.1-16.1,2.1-22.8-2.6c-3.7-2.9-6.7-6.7-8.6-11C344.7,188.4,344.7,181.6,347.1,176.2z"/>
	<path class="st0_team-presentation-2-81" d="M370.8,212.3c-5.1,0-10.1-1.5-14.2-4.5c-3.8-3-6.9-6.8-8.9-11.2c-3.5-7.4-4-14.6-1.4-20.6l0,0&#10;&#9;&#9;c2.9-6.5,9.1-11.2,17.1-13c9.5-2.1,19.4,0.5,26.7,6.9c6.3,5.5,8.5,14.3,5.8,22.9c-2.4,8-8.3,14.5-16,17.8&#10;&#9;&#9;C377.1,211.7,374,212.3,370.8,212.3z M370.1,163.6c-2.1,0-4.2,0.2-6.2,0.7c-7.6,1.7-13.5,6.1-16.1,12.2l0,0&#10;&#9;&#9;c-2.5,5.6-2,12.4,1.3,19.4c1.9,4.2,4.8,7.9,8.4,10.7c6.5,4.5,14.8,5.5,22.1,2.5c7.3-3.1,12.9-9.3,15.2-16.9&#10;&#9;&#9;c2.5-8,0.4-16.2-5.4-21.4C384,166.2,377.2,163.6,370.1,163.6L370.1,163.6z M347.1,176.2L347.1,176.2z"/>
	<path class="st1_team-presentation-2-81" d="M353.1,196.7c-0.4-1.3-1-2.5-1.9-3.5c-0.9-1-2.4-1.4-3.7-0.9c-0.9,0.5-1.5,1.5-1.5,2.5c-0.1,1,0.1,2,0.5,3&#10;&#9;&#9;c0.6,1.8,1.6,3.4,2.9,4.8c1.4,1.3,3.2,2.1,5.1,2"/>
	<path class="st0_team-presentation-2-81" d="M354.1,205.3c-1.9,0-3.8-0.8-5.2-2.2c-1.4-1.4-2.5-3.1-3.1-5.1c-0.4-1-0.6-2.2-0.5-3.3c0.1-1.3,0.8-2.4,1.9-3&#10;&#9;&#9;c1.6-0.6,3.3-0.2,4.5,1c0.9,1.1,1.6,2.4,2.1,3.8c0.1,0.4,0,0.8-0.4,0.9c-0.4,0.1-0.8-0.1-0.9-0.4c-0.3-1.2-0.9-2.3-1.8-3.3&#10;&#9;&#9;c-0.7-0.8-1.8-1.1-2.8-0.7c-0.7,0.4-1.1,1.1-1.2,1.9c0,0.9,0.1,1.8,0.5,2.7c0.5,1.7,1.5,3.2,2.7,4.5c1.2,1.2,2.9,1.9,4.6,1.8&#10;&#9;&#9;c0.4,0,0.7,0.3,0.8,0.6c0,0.4-0.3,0.7-0.6,0.7c0,0,0,0,0,0L354.1,205.3z"/>
	<path class="st1_team-presentation-2-81" d="M360.2,214.6l-1.6,16c0,0,0.8,9.1,10.7,7.3c6-1.1,11.1-4.9,14-10.2l1.5-27.7c0.1-1.4-1.5-3.4-2-4.7&#10;&#9;&#9;c-1.3-3.7-1.2-11.4-1.2-11.4s-4.9-1.6-17.2-9.2c-3.9,0.5-6.8,3.8-9.1,6.9c-4.2,5.6-5.2,13.9-4.3,20.6&#10;&#9;&#9;C351.7,206.6,354.7,214.7,360.2,214.6z"/>
	<path class="st0_team-presentation-2-81" d="M366.9,238.8c-2,0.1-3.9-0.5-5.5-1.7c-1.9-1.6-3.2-3.9-3.5-6.4l1.5-15.3c-5.3-0.6-8.4-8.2-9.1-13.1&#10;&#9;&#9;c-0.9-6.2-0.2-15.1,4.4-21.1c2.4-3.2,5.5-6.6,9.6-7.2c0.2,0,0.3,0,0.5,0.1c12.1,7.4,17,9.1,17.1,9.1c0.3,0.1,0.5,0.4,0.5,0.7&#10;&#9;&#9;c0,0.1-0.1,7.6,1.1,11.1c0.2,0.5,0.5,1,0.7,1.5c0.7,1,1.1,2.2,1.2,3.5l0,0c0,0,0,0.5-1.5,27.7c0,0.1,0,0.2-0.1,0.3&#10;&#9;&#9;c-3,5.6-8.3,9.5-14.5,10.6C368.6,238.7,367.7,238.8,366.9,238.8z M359.3,230.6c0.3,2.1,1.3,4,2.9,5.3c1.7,1.3,4.1,1.7,7,1.2&#10;&#9;&#9;c5.7-1.1,10.6-4.7,13.4-9.7c0.1-2.1,1.5-27.4,1.5-27.6c-0.2-1-0.5-1.9-1.1-2.8c-0.3-0.5-0.6-1.1-0.8-1.7c-1.1-3.3-1.2-9.3-1.2-11.1&#10;&#9;&#9;c-1.5-0.6-6.6-2.7-16.7-8.9c-3.5,0.6-6.2,3.6-8.4,6.6c-4.3,5.8-5,14.1-4.1,20.1c0.5,3.9,3.3,11.9,8.4,11.9h0.1&#10;&#9;&#9;c0.4,0,0.7,0.3,0.7,0.7c0,0,0,0,0,0.1L359.3,230.6L359.3,230.6z"/>
	<path class="st1_team-presentation-2-81" d="M365.5,190c0,0-5.9,7.2-4.8,8.6s4.6,0.9,4.6,0.9"/>
	<path class="st0_team-presentation-2-81" d="M363.9,200.3c-1.2,0-2.9-0.2-3.7-1.3c-1.2-1.6,2.5-6.7,4.8-9.5c0.2-0.3,0.7-0.4,1-0.1c0.3,0.2,0.4,0.7,0.1,1&#10;&#9;&#9;c0,0,0,0,0,0c-2.8,3.4-5,7-4.7,7.8c0.6,0.8,2.7,0.8,3.9,0.6c0.4-0.1,0.7,0.2,0.8,0.6c0,0,0,0,0,0c0.1,0.4-0.2,0.7-0.6,0.8&#10;&#9;&#9;C364.9,200.3,364.4,200.3,363.9,200.3z"/>
	
		<ellipse transform="matrix(0.1326 -0.9912 0.9912 0.1326 124.4475 520.3058)" class="st0_team-presentation-2-81" cx="359.5" cy="189.1" rx="1.7" ry="0.9"/>
	
		<ellipse transform="matrix(1.169341e-02 -0.9999 0.9999 1.169341e-02 180.1735 557.0257)" class="st0_team-presentation-2-81" cx="371.9" cy="187.4" rx="1.7" ry="0.9"/>
	<path class="st1_team-presentation-2-81" d="M380.2,193.8c0.4-1.4,1-2.6,1.8-3.8c1-1.3,2.5-2.1,4.1-2.1c1,0,1.9,0.5,2.5,1.4c0.4,0.6,0.6,1.2,0.6,1.9&#10;&#9;&#9;c0.5,3.6-0.6,8.2-4,10c-1.1,0.7-2.6,0.8-3.8,0.1"/>
	<path class="st0_team-presentation-2-81" d="M383.2,202.4c-0.7,0-1.5-0.2-2.1-0.7c-0.3-0.2-0.4-0.7-0.1-1c0.2-0.3,0.7-0.4,1-0.1c0.9,0.5,2.1,0.5,3-0.1&#10;&#9;&#9;c3-1.7,4.1-5.9,3.6-9.3c-0.1-0.6-0.2-1.1-0.5-1.6c-0.5-0.6-1.2-1-2-1c-1.4,0-2.7,0.7-3.6,1.8c-0.8,1.1-1.3,2.3-1.7,3.6&#10;&#9;&#9;c-0.1,0.4-0.5,0.6-0.9,0.5s-0.6-0.5-0.5-0.9c0.4-1.4,1-2.8,1.9-4c1.1-1.5,2.9-2.4,4.7-2.4c1.2,0.1,2.4,0.7,3.1,1.7&#10;&#9;&#9;c0.4,0.6,0.7,1.3,0.8,2.1c0.6,3.8-0.8,8.7-4.4,10.7C384.9,202.1,384.1,202.4,383.2,202.4z"/>
	<path class="st0_team-presentation-2-81" d="M330.1,288.8L330.1,288.8c-0.4,0-0.7-0.3-0.7-0.7c0-1.2,6-33.4,7.2-39.8c0.1-0.4,0.4-0.6,0.8-0.6&#10;&#9;&#9;c0.4,0.1,0.6,0.4,0.6,0.8c-2.9,15.3-7.2,38.5-7.2,39.6C330.8,288.6,330.5,288.8,330.1,288.8z"/>
	<path class="st0_team-presentation-2-81" d="M394.3,291.4c-0.4,0-0.7-0.3-0.7-0.7v0v-43.8c0-0.4,0.3-0.7,0.7-0.7c0.4,0,0.7,0.3,0.7,0.7c0,0,0,0,0,0v43.8&#10;&#9;&#9;C395,291.1,394.7,291.4,394.3,291.4z"/>
	<path class="st0_team-presentation-2-81" d="M360.2,214.6c5.2,0.1,10.4-0.9,15.2-2.8c0,0-9,10.9-16,14.9L360.2,214.6z"/>
	<path class="st0_team-presentation-2-81" d="M359.5,227.4c-0.4,0-0.7-0.3-0.7-0.7c0,0,0,0,0,0l0.7-12c0-0.4,0.3-0.7,0.7-0.7c0,0,0,0,0.1,0&#10;&#9;&#9;c5.1,0.1,10.2-0.8,14.9-2.8c0.3-0.1,0.6,0,0.8,0.2c0.2,0.3,0.2,0.6,0,0.9c-0.4,0.4-9.1,11-16.1,15&#10;&#9;&#9;C359.7,227.3,359.6,227.4,359.5,227.4z M360.9,215.4l-0.6,10c4.7-3.1,10.1-8.8,12.8-11.9C369.1,214.7,365,215.4,360.9,215.4&#10;&#9;&#9;L360.9,215.4z"/>
	<path class="st0_team-presentation-2-81" d="M353.2,262.9c-0.2,0-0.4-0.1-0.5-0.2l-10.4-11c-0.1-0.1-0.2-0.3-0.2-0.6c0-0.2,0.1-0.4,0.3-0.5l9.6-6.6&#10;&#9;&#9;l-9.6-7.1c-0.2-0.1-0.3-0.4-0.3-0.6c0-0.2,0.1-0.4,0.3-0.6l11.7-8.1c0.3-0.2,0.8-0.1,1,0.2s0.1,0.8-0.2,1l0,0l-10.9,7.5l9.6,7.2&#10;&#9;&#9;c0.2,0.1,0.3,0.3,0.3,0.6c0,0.2-0.1,0.4-0.3,0.6l-9.8,6.7l9.9,10.4c0.3,0.3,0.3,0.7,0,1C353.6,262.9,353.4,262.9,353.2,262.9z"/>
	<path class="st0_team-presentation-2-81" d="M373.2,263.7c-0.2,0-0.5-0.1-0.6-0.3c-0.2-0.3-0.1-0.8,0.2-1c0,0,0,0,0.1,0l15.2-9l-8.4-9.5&#10;&#9;&#9;c-0.1-0.2-0.2-0.4-0.2-0.6c0-0.2,0.2-0.4,0.4-0.5l10.5-4.9l-6.1-6.6c-0.3-0.3-0.3-0.7,0-1c0,0,0,0,0,0c0.3-0.3,0.7-0.3,1,0l6.7,7.3&#10;&#9;&#9;c0.2,0.2,0.2,0.4,0.2,0.6c0,0.2-0.2,0.4-0.4,0.5l-10.5,4.9l8.3,9.4c0.1,0.2,0.2,0.4,0.2,0.6c0,0.2-0.2,0.4-0.3,0.5l-15.9,9.5&#10;&#9;&#9;C373.4,263.6,373.3,263.7,373.2,263.7z"/>
	<path class="st0_team-presentation-2-81" d="M362.7,206.3c-0.4,0-0.7,0-1.1-0.1c-1.9-0.3-3.6-1.3-4.7-2.9c-0.2-0.3-0.1-0.8,0.2-1c0.3-0.2,0.8-0.1,1,0.2&#10;&#9;&#9;c0,0,0,0,0,0.1c0.9,1.2,2.2,2,3.7,2.2c2.5,0.4,5.5-0.9,8.7-3.7c0.3-0.3,0.7-0.3,1,0c0.3,0.3,0.3,0.7,0,1c0,0,0,0-0.1,0.1&#10;&#9;&#9;C368.3,204.9,365.3,206.3,362.7,206.3z"/>
	<path class="st1_team-presentation-2-81" d="M386.9,284.1c0,0-4.9-12.5-7-13.4s-8-1.5-10.2-1.2c-4,0.6-8.5,7-8.9,8.6c-0.3,1.2,10.5,2.1,13.2,0.7l0.9,4.2&#10;&#9;&#9;L386.9,284.1z"/>
	<path class="st0_team-presentation-2-81" d="M386.9,284.8L386.9,284.8l-12.1-1c-0.3,0-0.6-0.3-0.6-0.6l-0.7-3.5c-3.4,0.9-11.5,0.3-13-0.8&#10;&#9;&#9;c-0.3-0.2-0.5-0.6-0.4-1c0.4-1.9,5.1-8.5,9.4-9.1c2.2-0.3,8.3,0.1,10.6,1.2s6.5,11.7,7.4,13.8c0.1,0.2,0.1,0.5-0.1,0.7&#10;&#9;&#9;C387.3,284.7,387.1,284.8,386.9,284.8z M375.4,282.4l10.4,0.9c-2.3-5.7-5.2-11.5-6.2-12c-1.9-0.9-7.7-1.4-9.8-1.1&#10;&#9;&#9;c-3.4,0.5-7.4,6-8.2,7.8c1.6,0.8,9.9,1.3,12.1,0.3c0.2-0.1,0.4-0.1,0.6,0c0.2,0.1,0.3,0.3,0.4,0.5L375.4,282.4z"/>
	<line class="st4_team-presentation-2-81" x1="377.1" y1="275.2" x2="374" y2="278.8"/>
	<path class="st0_team-presentation-2-81" d="M374,279.5c-0.2,0-0.3-0.1-0.5-0.2c-0.3-0.2-0.3-0.7-0.1-1c0,0,0,0,0,0l3.1-3.6c0.3-0.3,0.7-0.3,1-0.1&#10;&#9;&#9;c0.3,0.3,0.3,0.7,0.1,1l-3.1,3.6C374.4,279.4,374.2,279.5,374,279.5z"/>
</g>
<g id="Pie_Chart_team-presentation-2-81">
	<path class="st3_team-presentation-2-81 targetColor" d="M225.5,132c8.3,8.3,16.6,16.6,24.8,24.8c0.3,0.3,0.6,0.4,1,0.4h38.1c-0.7,20.3-17.7,36.1-38,35.4&#10;&#9;&#9;c-20.3-0.7-36.1-17.7-35.4-38c0.3-8.5,3.5-16.6,9.1-22.9L225.5,132z" style="fill: rgb(104, 225, 253);"/>
	<path class="st2_team-presentation-2-81" d="M254,119.2v35.4h0.4l34.3-0.1c0.8,0,0.8,0,0.7-0.8c-0.9-13.7-9.3-25.9-21.9-31.4c-3.8-1.6-7.8-2.7-11.9-3&#10;&#9;&#9;L254,119.2z"/>
	<path class="st2_team-presentation-2-81" d="M251.4,154.1v-34.9c-4.1,0.2-8.2,1.1-12,2.5c-4.6,1.8-8.8,4.6-12.4,8L251.4,154.1z"/>
</g>
<g id="Character_Male_team-presentation-2-81">
	<path class="st1_team-presentation-2-81" d="M208.7,248.8c0,0,4.2-17.3,7.4-19.9s21.4-10.2,22.5-6.9s3.2,10.4,0,13.4s-10.1,9.7-10.1,9.7l-7.7,19.5&#10;&#9;&#9;L208.7,248.8z"/>
	<path class="st0_team-presentation-2-81" d="M220.8,265.2c-0.2,0-0.4-0.1-0.6-0.3l-12.1-15.8c-0.1-0.2-0.2-0.4-0.1-0.6c0.4-1.8,4.4-17.6,7.6-20.3&#10;&#9;&#9;c2.8-2.4,18.1-9,22.3-7.7c0.6,0.1,1.1,0.6,1.4,1.2c1.1,3.5,3.4,10.8-0.2,14.1c-2.9,2.7-9.1,8.8-10,9.6l-7.6,19.3&#10;&#9;&#9;C221.3,265,221.1,265.2,220.8,265.2L220.8,265.2z M209.4,248.6l11.1,14.5l7.2-18.3c0-0.1,0.1-0.2,0.2-0.2c0.1-0.1,6.9-6.8,10.1-9.8&#10;&#9;&#9;c2.9-2.7,0.7-9.6-0.2-12.6c0-0.1-0.2-0.2-0.4-0.2c-3.5-1-18.2,5.1-21,7.4C214.1,231.4,210.7,243.6,209.4,248.6z"/>
	<path class="st1_team-presentation-2-81" d="M115.8,199.7c-1.1-4.9-2.5-9.7-3-14.7s0.2-10.3,3.1-14.4c1.1-1.7,2.7-3,4.6-3.7c1.7-0.5,4.6,0.4,4.6,0.4&#10;&#9;&#9;c1.4-1,2.8-2,4.3-2.8c3.3-1.4,6.7-2.3,10.3-2.5c5-0.5,10.8-0.2,14,3.7c2.3,2.9,2.5,6.9,2.6,10.6l0.2,9.5"/>
	<path class="st0_team-presentation-2-81" d="M115.8,200.5c-0.3,0-0.6-0.2-0.7-0.6c-0.3-1.3-0.6-2.5-0.9-3.8c-1-3.6-1.7-7.3-2.1-11&#10;&#9;&#9;c-0.4-4.1-0.1-10.1,3.2-14.9c1.2-1.9,2.9-3.3,5-4c1.5-0.3,3.1-0.2,4.6,0.3c1.3-1,2.7-1.9,4.1-2.7c3.3-1.5,6.9-2.4,10.5-2.6&#10;&#9;&#9;c7.1-0.7,11.9,0.6,14.6,3.9c2.6,3.2,2.7,7.7,2.8,11l0.2,9.5c0,0.4-0.3,0.7-0.7,0.7l0,0c-0.4,0-0.7-0.3-0.7-0.7l-0.2-9.5&#10;&#9;&#9;c-0.1-3.9-0.4-7.5-2.5-10.1c-2.4-2.9-6.8-4-13.4-3.4c-3.5,0.2-6.8,1-10,2.4c-1.5,0.8-2.9,1.8-4.2,2.8c-0.2,0.1-0.4,0.2-0.7,0.1&#10;&#9;&#9;c-1.3-0.5-2.7-0.6-4.1-0.4c-1.7,0.6-3.2,1.9-4.2,3.4c-3,4.4-3.3,10-3,13.9c0.4,3.6,1.1,7.2,2,10.8c0.3,1.3,0.6,2.6,0.9,3.8&#10;&#9;&#9;c0.1,0.4-0.2,0.8-0.5,0.9c0,0,0,0,0,0L115.8,200.5z"/>
	<path class="st0_team-presentation-2-81" d="M178.8,285.4c-5.5-25.6-19.1-55.6-21.5-56.7c-5.9-2.7-37.1-5.7-44.1,6.3c-2.2,3.8-0.9,28.6,1.9,50.4H178.8z"/>
	<polygon class="st1_team-presentation-2-81" points="145.5,240.6 141.5,249.9 151.8,285.4 136,285.4 137.1,249.5 127.2,237.3 &#9;"/>
	<path class="st0_team-presentation-2-81" d="M151.8,286.2H136c-0.2,0-0.4-0.1-0.5-0.2c-0.1-0.1-0.2-0.3-0.2-0.5l1-35.7l-9.7-12c-0.2-0.2-0.2-0.6-0.1-0.8&#10;&#9;&#9;c0.2-0.3,0.5-0.4,0.8-0.3l18.2,3.3c0.2,0,0.4,0.2,0.5,0.4c0.1,0.2,0.1,0.4,0,0.6l-3.8,9.2l10.2,35.3c0.1,0.2,0,0.5-0.1,0.6&#10;&#9;&#9;C152.2,286.1,152,286.2,151.8,286.2z M136.8,284.7h14l-10-34.6c0-0.2,0-0.3,0-0.5l3.6-8.5l-15.4-2.8l8.6,10.7&#10;&#9;&#9;c0.1,0.1,0.2,0.3,0.2,0.5L136.8,284.7z"/>
	<path class="st3_team-presentation-2-81 targetColor" d="M136,285.4l-14.7-54.8l30-1.1l0.4,55.8h52.7c-7.7-26.1-27.1-50.4-30.8-54.4c-13.8-15-49.2-10-49.2-10&#10;&#9;&#9;s-33.5,3.3-41.6,18.2c-2,3.8-4.1,29.9-4.3,46.1L136,285.4z" style="fill: rgb(104, 225, 253);"/>
	<path class="st1_team-presentation-2-81" d="M149,220.7l1.6,10.5c0,0-1.6,15.2-13.2,12.6s-16.1-13.1-16.1-13.1l-1.5-27.6c0,0,8.5-4.6,5.8-23.1&#10;&#9;&#9;c9.4,4,19.8,5.3,29.9,3.9c0,0,4.1,19,2.8,28S149,220.7,149,220.7z"/>
	<path class="st0_team-presentation-2-81" d="M140,244.8c-0.9,0-1.9-0.1-2.8-0.3c-11.7-2.7-16.4-13-16.6-13.5c0-0.1-0.1-0.2-0.1-0.2l-1.4-27.7&#10;&#9;&#9;c0-0.3,0.1-0.5,0.4-0.7c0.1,0,8-4.7,5.4-22.4c0-0.3,0.1-0.5,0.3-0.7c0.2-0.2,0.5-0.2,0.7-0.1c9.3,3.9,19.5,5.2,29.5,3.8&#10;&#9;&#9;c0.4,0,0.7,0.2,0.8,0.6c0.2,0.8,4.1,19.3,2.8,28.2c-1.1,7.7-7.1,9.2-9.3,9.5l1.5,9.7c0,0.1,0,0.1,0,0.2c0,0.3-0.9,8.3-6,11.9&#10;&#9;&#9;C143.8,244.2,141.9,244.8,140,244.8z M122,230.5c0.5,1.1,5.2,10.1,15.6,12.5c2.4,0.7,4.9,0.3,6.9-1.1c4.2-3,5.2-9.9,5.4-10.8&#10;&#9;&#9;l-1.6-10.4c0-0.2,0-0.4,0.2-0.6c0.1-0.2,0.3-0.3,0.5-0.2c0.3,0,7.5-0.2,8.7-8.4c1.1-7.8-2-23.6-2.7-27.1c-9.6,1.2-19.4,0-28.4-3.5&#10;&#9;&#9;c1.9,15.7-4.3,21.2-5.9,22.3L122,230.5z"/>
	<path class="st1_team-presentation-2-81" d="M143.1,194.9c0,0,5.5,10,3.8,11.6s-5.8,0-5.8,0"/>
	<path class="st0_team-presentation-2-81" d="M144.6,207.8c-1.3,0-2.5-0.3-3.7-0.7c-0.4-0.1-0.6-0.5-0.4-0.9s0.5-0.6,0.9-0.4c1,0.4,4,1.1,5.1,0.1&#10;&#9;&#9;c0.6-0.7-1.3-5.8-4-10.7c-0.2-0.3-0.1-0.8,0.2-1c0,0,0,0,0.1,0c0.3-0.2,0.7-0.1,1,0.2c0,0,0,0.1,0,0.1c1.7,3.2,5.5,10.7,3.7,12.4&#10;&#9;&#9;C146.6,207.5,145.6,207.9,144.6,207.8z"/>
	
		<ellipse transform="matrix(0.9991 -4.205003e-02 4.205003e-02 0.9991 -8.0019 5.7732)" class="st0_team-presentation-2-81" cx="133.2" cy="193.1" rx="1.1" ry="2.6"/>
	
		<ellipse transform="matrix(0.9991 -4.205003e-02 4.205003e-02 0.9991 -7.9859 6.5341)" class="st0_team-presentation-2-81" cx="151.3" cy="193.1" rx="1.1" ry="2.6"/>
	<path class="st1_team-presentation-2-81" d="M127.2,198.2c-1-1.7-2.4-3.3-4-4.5c-0.8-0.7-1.9-1.2-3-1.3c-0.9,0-1.8,0.3-2.5,0.8c-2.3,1.3-3.9,3.6-4.4,6.2&#10;&#9;&#9;c-0.2,1.2-0.2,2.4,0.1,3.6c0.7,1.8,1.9,3.3,3.6,4.3c1.7,1,3.4,1.7,5.2,2.3"/>
	<path class="st0_team-presentation-2-81" d="M122.3,210.3c-0.1,0-0.2,0-0.2,0c-1.9-0.6-3.7-1.4-5.4-2.3c-1.8-1.1-3.2-2.7-3.9-4.7c-0.4-1.3-0.4-2.7-0.2-4&#10;&#9;&#9;c0.6-2.8,2.3-5.3,4.8-6.7c0.9-0.6,1.9-0.9,2.9-0.9c1.2,0.1,2.4,0.6,3.4,1.4c1.7,1.3,3.1,2.9,4.2,4.7c0.2,0.3,0.1,0.8-0.3,1&#10;&#9;&#9;c-0.3,0.2-0.8,0.1-1-0.3c-1-1.7-2.3-3.1-3.8-4.3c-0.7-0.6-1.6-1-2.5-1.1c-0.8,0-1.5,0.2-2.1,0.6c-2.1,1.2-3.6,3.3-4.1,5.7&#10;&#9;&#9;c-0.2,1.1-0.2,2.2,0.1,3.3c0.6,1.6,1.8,3,3.3,3.9c1.6,0.9,3.3,1.7,5.1,2.2c0.4,0.1,0.6,0.5,0.5,0.9&#10;&#9;&#9;C123,210.1,122.7,210.3,122.3,210.3L122.3,210.3z"/>
	<path class="st0_team-presentation-2-81" d="M105.5,283.2c-0.4,0-0.7-0.3-0.7-0.7l0,0v-36c0-0.4,0.3-0.7,0.7-0.7s0.7,0.3,0.7,0.7l0,0v36&#10;&#9;&#9;C106.2,282.8,105.9,283.2,105.5,283.2L105.5,283.2z"/>
	<path class="st0_team-presentation-2-81" d="M149,220.7c-6.6,1-13.4-0.1-19.3-3.2c0,0,9.9,15.1,20.8,13L149,220.7z"/>
	<path class="st0_team-presentation-2-81" d="M148.3,231.4c-10.3,0-18.9-13-19.3-13.5c-0.2-0.3-0.2-0.6,0.1-0.9c0.2-0.2,0.6-0.3,0.8-0.2&#10;&#9;&#9;c5.8,3,12.4,4.1,18.9,3.2c0.2,0,0.4,0,0.5,0.1c0.2,0.1,0.3,0.3,0.3,0.5l1.5,9.8c0.1,0.4-0.2,0.7-0.6,0.8&#10;&#9;&#9;C149.9,231.3,149.1,231.4,148.3,231.4z M131.8,219.2c3.1,3.9,10.2,11.6,17.9,10.7l-1.3-8.4C142.8,222.2,137,221.4,131.8,219.2z"/>
	<ellipse class="st0_team-presentation-2-81" cx="143.6" cy="212.5" rx="1.9" ry="2.9"/>
	<polygon class="st3_team-presentation-2-81 targetColor" points="190.3,285.4 206.8,245 230.2,250.2 221.8,285.4 &#9;" style="fill: rgb(104, 225, 253);"/>
	<path class="st0_team-presentation-2-81" d="M191.4,283.2c-0.1,0-0.2,0-0.3-0.1c-0.4-0.1-0.5-0.6-0.4-0.9c0,0,0,0,0,0l12.5-30.3c0.1-0.4,0.6-0.5,0.9-0.4&#10;&#9;&#9;c0,0,0,0,0,0c0.4,0.1,0.6,0.6,0.4,0.9c0,0,0,0,0,0.1L192,282.7C191.9,283,191.7,283.1,191.4,283.2z"/>
	<path class="st0_team-presentation-2-81" d="M179.3,283.2c-0.3,0-0.6-0.2-0.7-0.6l-8.1-36.5c-0.1-0.4,0.2-0.8,0.5-0.9c0,0,0,0,0,0c0.4-0.1,0.8,0.2,0.9,0.5&#10;&#9;&#9;c0,0,0,0,0,0l8.1,36.5c0.1,0.4-0.2,0.8-0.5,0.9c0,0,0,0,0,0L179.3,283.2z"/>
	<path class="st0_team-presentation-2-81" d="M134.4,202.2c-5.1,0-9.2-4.1-9.2-9.2c0-5.1,4.1-9.2,9.2-9.2c5.1,0,9.2,4.1,9.2,9.2c0,0,0,0,0,0&#10;&#9;&#9;C143.5,198.1,139.4,202.2,134.4,202.2z M134.4,185.3c-4.3,0-7.7,3.5-7.7,7.7c0,4.3,3.5,7.7,7.7,7.7c4.3,0,7.7-3.5,7.7-7.7&#10;&#9;&#9;C142.1,188.8,138.6,185.3,134.4,185.3z"/>
	<path class="st0_team-presentation-2-81" d="M152.6,202.2c-5.1,0-9.2-4.1-9.2-9.2c0-5.1,4.1-9.2,9.2-9.2c5.1,0,9.2,4.1,9.2,9.2c0,0,0,0,0,0&#10;&#9;&#9;C161.8,198.1,157.7,202.2,152.6,202.2z M152.6,185.3c-4.3,0-7.7,3.5-7.7,7.7s3.5,7.7,7.7,7.7c4.3,0,7.7-3.5,7.7-7.7&#10;&#9;&#9;C160.4,188.8,156.9,185.3,152.6,185.3z"/>
	<polygon class="st0_team-presentation-2-81" points="225.9,241.7 246.1,168.3 247.8,168.5 229,242.9 &#9;"/>
	<path class="st1_team-presentation-2-81" d="M222.9,226.3c0,0,15.7-1.8,14.6,1.3s-10,4.9-10,4.9s2.8,7.9-4.6,8.7"/>
	<path class="st0_team-presentation-2-81" d="M222.9,241.9c-0.4,0-0.7-0.3-0.8-0.7s0.3-0.7,0.7-0.8c1.5,0,2.9-0.8,3.8-2c1.4-2.2,0.2-5.7,0.2-5.7&#10;&#9;&#9;c-0.1-0.2-0.1-0.4,0.1-0.6c0.1-0.2,0.3-0.3,0.5-0.4c3.3-0.7,8.8-2.5,9.5-4.5c-0.4-1-6.9-1.1-13.9-0.3c-0.4,0-0.7-0.2-0.8-0.6&#10;&#9;&#9;c0-0.4,0.2-0.8,0.6-0.8c0,0,0,0,0,0c3.1-0.4,13.4-1.4,15.1,0.8c0.3,0.4,0.4,0.9,0.2,1.4c-1,2.9-7.4,4.7-9.8,5.2&#10;&#9;&#9;c0.3,1.3,0.8,4.1-0.6,6.2C226.7,240.8,224.9,241.8,222.9,241.9L222.9,241.9z"/>
</g>
<g id="Line_of_Text_team-presentation-2-81">
	<path class="st2_team-presentation-2-81" d="M212.9,127.5H189c-0.4,0-0.7-0.3-0.7-0.7c0-0.4,0.3-0.7,0.7-0.7h24c0.4,0,0.7,0.3,0.7,0.7&#10;&#9;&#9;C213.7,127.2,213.4,127.5,212.9,127.5L212.9,127.5z"/>
	<path class="st2_team-presentation-2-81" d="M212.9,132.4H189c-0.4,0-0.7-0.3-0.7-0.7c0-0.4,0.3-0.7,0.7-0.7h24c0.4,0,0.7,0.3,0.7,0.7&#10;&#9;&#9;C213.7,132.1,213.4,132.4,212.9,132.4C213,132.4,213,132.4,212.9,132.4L212.9,132.4z"/>
	<path class="st2_team-presentation-2-81" d="M205.8,137.2H189c-0.4,0-0.7-0.3-0.7-0.7c0-0.4,0.3-0.7,0.7-0.7h16.8c0.4,0,0.7,0.3,0.7,0.7&#10;&#9;&#9;C206.5,136.9,206.2,137.2,205.8,137.2L205.8,137.2z"/>
	<path class="st2_team-presentation-2-81" d="M316.1,178.1h-16.9c-0.4,0-0.7-0.3-0.7-0.7c0-0.4,0.3-0.7,0.7-0.7h16.9c0.4,0,0.7,0.3,0.7,0.7&#10;&#9;&#9;S316.5,178.1,316.1,178.1C316.1,178.1,316.1,178.1,316.1,178.1z"/>
	<path class="st2_team-presentation-2-81" d="M311.1,183h-11.9c-0.4,0-0.7-0.3-0.7-0.7c0-0.4,0.3-0.7,0.7-0.7h11.9c0.4,0,0.7,0.3,0.7,0.7&#10;&#9;&#9;C311.8,182.7,311.5,183,311.1,183z"/>
</g>
<g id="Desk_team-presentation-2-81">
	<rect x="52.3" y="285" class="st1_team-presentation-2-81" width="395.3" height="16.4"/>
	<path class="st0_team-presentation-2-81" d="M447.7,302H52.3c-0.4,0-0.6-0.3-0.6-0.6l0,0V285c0-0.4,0.3-0.6,0.6-0.6c0,0,0,0,0,0h395.3&#10;&#9;&#9;c0.4,0,0.6,0.3,0.6,0.6v0v16.4C448.3,301.7,448,302,447.7,302z M53,300.8h394v-15.1H53V300.8z"/>
	<rect x="56.9" y="301.4" class="st1_team-presentation-2-81" width="386.2" height="95.4"/>
	<path class="st0_team-presentation-2-81" d="M443.1,397.4H56.9c-0.4,0-0.6-0.3-0.6-0.6l0,0v-95.4c0-0.4,0.3-0.6,0.6-0.6c0,0,0,0,0,0h386.3&#10;&#9;&#9;c0.4,0,0.6,0.3,0.6,0.6v0v95.4C443.8,397.1,443.5,397.4,443.1,397.4L443.1,397.4z M57.5,396.1h385V302h-385L57.5,396.1z"/>
</g>
<g id="Laptop_team-presentation-2-81">
	<rect x="272.3" y="279.2" class="st1_team-presentation-2-81" width="109.3" height="5.5"/>
	<path class="st0_team-presentation-2-81" d="M381.6,285.4H272.3c-0.3,0-0.6-0.3-0.6-0.6c0,0,0,0,0,0v-5.5c0-0.4,0.3-0.6,0.6-0.6h0h109.3&#10;&#9;&#9;c0.4,0,0.6,0.3,0.6,0.6v0v5.5C382.2,285.1,381.9,285.4,381.6,285.4L381.6,285.4z M273,284.1h108v-4.2H273V284.1z"/>
	<polygon class="st1_team-presentation-2-81" points="351.5,279.2 272.1,279.2 255.2,232.5 334.5,232.5 &#9;"/>
	<path class="st0_team-presentation-2-81" d="M351.5,279.9h-79.3c-0.3,0-0.5-0.2-0.6-0.4l-16.9-46.7c-0.1-0.2,0-0.4,0.1-0.6c0.1-0.2,0.3-0.3,0.5-0.3h79.3&#10;&#9;&#9;c0.3,0,0.5,0.2,0.6,0.4l16.9,46.7c0.1,0.2,0,0.4-0.1,0.6C351.9,279.8,351.7,279.9,351.5,279.9z M272.6,278.6h78l-16.5-45.4h-78&#10;&#9;&#9;L272.6,278.6z"/>
</g>
</svg>