<svg version="1.1" id="Layer_1" xmlns="http://www.w3.org/2000/svg" xmlns:xlink="http://www.w3.org/1999/xlink" x="0px" y="0px" viewBox="0 0 500 500" style="width: 166px;" xml:space="preserve" data-imageid="team-building-32" imageName="Team Building" class="illustrations_image">
<style type="text/css">
	.st0_team-building-32{fill:#FFBC0E;}
	.st1_team-building-32{fill:#093F68;}
	.st2_team-building-32{fill:#FFC9B0;}
	.st3_team-building-32{fill:#F56132;}
	.st4_team-building-32{fill:#68E1FD;}
	.st5_team-building-32{fill:#725858;}
	.st6_team-building-32{fill:#FFFFFF;}
	.st7_team-building-32{fill:#70CC40;}
	.st8_team-building-32{fill:#AD7972;}
</style>
<g id="puzzle_team-building-32">
	<path class="st0_team-building-32" d="M330.7,327.2c-2.9-2.2-3.9-6.1-2.6-9.5c3.1-2.9,4.8-6.9,4.9-11.1c0-8.6-7.3-15.5-16.3-15.5s-16.3,7-16.3,15.5&#10;&#9;&#9;c0,4.2,1.8,8.2,4.9,11.1c1.3,3.4,0.3,7.2-2.6,9.5h-38.9v38.9c2.2,2.9,6.1,3.9,9.5,2.6c2.9-3.1,6.9-4.8,11.1-4.9&#10;&#9;&#9;c8.6,0,15.5,7.3,15.5,16.3s-7,16.3-15.5,16.3c-4.2,0-8.2-1.8-11.1-4.9c-3.4-1.3-7.2-0.3-9.5,2.6v38.9h105.9V327.2L330.7,327.2&#10;&#9;&#9;L330.7,327.2z"/>
	<path class="st1_team-building-32" d="M369.6,434.7H263.8c-0.9,0-1.6-0.7-1.6-1.6v-38.9c0-0.4,0.1-0.7,0.3-1c2.7-3.5,7.3-4.7,11.4-3.1&#10;&#9;&#9;c0.2,0.1,0.4,0.2,0.6,0.4c2.6,2.8,6.1,4.3,9.9,4.3c7.7,0,13.9-6.6,13.9-14.7s-6.2-14.7-13.9-14.7c-3.8,0-7.3,1.6-9.9,4.3&#10;&#9;&#9;c-0.2,0.2-0.4,0.3-0.6,0.4c-4,1.6-8.7,0.4-11.4-3.1c-0.2-0.3-0.3-0.6-0.3-1v-38.9c0-0.9,0.7-1.6,1.6-1.6h38.3&#10;&#9;&#9;c1.9-1.8,2.6-4.5,1.8-7c-3.2-3.1-5.1-7.4-5.1-12c0-9.5,8-17.1,17.9-17.1s17.9,7.7,17.9,17.1c0,4.5-1.8,8.8-5.1,12&#10;&#9;&#9;c-0.9,2.5-0.2,5.2,1.8,7h38.3c0.9,0,1.6,0.7,1.6,1.6v105.9C371.2,434,370.5,434.7,369.6,434.7z M265.4,431.5H368V328.8h-37.3&#10;&#9;&#9;c-0.4,0-0.7-0.1-1-0.3c-3.4-2.7-4.7-7.3-3.1-11.3c0.1-0.2,0.2-0.4,0.4-0.6c2.8-2.5,4.3-6.1,4.4-9.9c0-7.7-6.6-13.9-14.7-13.9&#10;&#9;&#9;S302,299,302,306.7c0,3.8,1.6,7.3,4.4,9.9c0.2,0.2,0.3,0.4,0.4,0.6c1.6,4,0.4,8.7-3.1,11.4c-0.3,0.2-0.6,0.3-1,0.3h-37.3v36.7&#10;&#9;&#9;c1.8,1.9,4.5,2.6,7,1.8c3.1-3.2,7.5-5.1,12-5.1c9.5,0,17.1,8,17.1,17.9s-7.8,17.9-17.2,17.9c-4.5,0-8.9-1.8-12-5.1&#10;&#9;&#9;c-2.5-0.9-5.2-0.2-7,1.8L265.4,431.5z"/>
	<path class="st1_team-building-32" d="M299.8,380.1c0,9-7,16.3-15.5,16.3c-4.2,0-8.2-1.8-11.1-4.9c-3.4-1.3-7.2-0.3-9.5,2.6v38.9H157.9V327.2H197&#10;&#9;&#9;c2.7,2.3,3.6,6,2.3,9.3c-3.1,2.9-4.8,6.9-4.9,11.1c0,8.6,7.3,15.5,16.3,15.5s16.3-7,16.3-15.5c0-4.2-1.8-8.2-4.9-11.1&#10;&#9;&#9;c-1.3-3.3-0.3-7,2.3-9.3h39.2v38.9c2.2,2.9,6.1,3.9,9.5,2.6c2.9-3.1,6.9-4.8,11.1-4.9C292.8,363.8,299.8,371.1,299.8,380.1&#10;&#9;&#9;L299.8,380.1z"/>
</g>
<g id="character_2_team-building-32">
	<path class="st2_team-building-32" d="M160.2,280c0,0,16,5.3,17.8,8.6s3.4,9,2.2,11.2s-3.4,4.6-5.7,3.7s-4.5-2.6-7.4-3.6s-14.2-5.7-14.2-5.7&#10;&#9;&#9;L160.2,280z"/>
	<path class="st1_team-building-32" d="M175.5,305.5c-0.6,0-1.2-0.1-1.8-0.4c-1-0.4-2-1-2.9-1.5c-1.4-0.8-2.8-1.5-4.4-2c-3-1-13.9-5.6-14.4-5.8&#10;&#9;&#9;c-1-0.4-1.4-1.5-1-2.4c0-0.1,0-0.1,0.1-0.2l7.4-14.1c0.4-0.8,1.4-1.2,2.3-0.9c3.9,1.3,16.8,5.9,18.9,9.4c1.6,2.9,4,9.6,2.2,13&#10;&#9;&#9;C180.2,303.8,177.8,305.5,175.5,305.5z M155.4,293.2c3.3,1.4,10,4.2,12.2,4.9c1.7,0.6,3.4,1.4,5,2.3c0.9,0.5,1.7,1,2.6,1.3&#10;&#9;&#9;c1,0.4,2.4-1.1,3.3-2.8c0.7-1.2-0.3-6.1-2.1-9.4c-0.8-1.5-8.3-4.8-15.3-7.2L155.4,293.2z"/>
	<path class="st1_team-building-32" d="M80.6,318.8c11.6,1.8,23.4-2.1,31.6-10.5l-7-25.1L72,288.3C72,288.3,60.7,315.8,80.6,318.8z"/>
	<path class="st1_team-building-32" d="M64.5,414.5l-15-18.9c30.2-22.1,48.5-39.1,51-46.8c2-6.2-17.4-32.2-24.9-58.4l39.3-3.3&#10;&#9;&#9;c3.8,13.2,11.3,58.4,5.7,75.8C115.2,379.4,77.3,404.5,64.5,414.5z"/>
	<path class="st1_team-building-32" d="M64.5,416.4c-0.6,0-1.1-0.3-1.5-0.7l-15-18.9c-0.3-0.4-0.5-0.9-0.4-1.4c0.1-0.5,0.3-1,0.8-1.3&#10;&#9;&#9;c29.1-21.3,47.9-38.5,50.3-45.9c0.7-2.2-3.7-10.7-8.1-18.9c-5.7-10.9-12.9-24.5-16.8-38.4c-0.3-1,0.3-2,1.3-2.3&#10;&#9;&#9;c0.1,0,0.2-0.1,0.4-0.1l39.3-3.3c0.9-0.1,1.7,0.5,2,1.4c3.3,11.7,11.6,58.5,5.6,76.9c-4.6,14.2-30.8,33.3-48,46&#10;&#9;&#9;c-3.5,2.5-6.5,4.8-8.7,6.5C65.4,416.2,64.9,416.4,64.5,416.4z M52.1,396l12.6,15.9c2-1.6,4.5-3.4,7.3-5.4&#10;&#9;&#9;c15.9-11.6,42.4-31.1,46.7-44.1c5.3-16.2-1.5-58.9-5.3-73.2l-35.5,3c4,12.7,10.6,25.2,15.9,35.4c6.4,12.2,9.5,18.3,8.3,21.8&#10;&#9;&#9;C98.7,360.4,70,382.8,52.1,396z"/>
	<polygon class="st1_team-building-32" points="103.8,423.6 59.2,295.8 79.7,282.3 127.5,418.4 &#9;"/>
	<path class="st1_team-building-32" d="M103.8,425.5c-0.8,0-1.5-0.5-1.8-1.3L57.5,296.4c-0.3-0.8,0-1.7,0.7-2.2l20.5-13.5c0.5-0.3,1.1-0.4,1.6-0.2&#10;&#9;&#9;c0.6,0.2,1,0.6,1.2,1.2l47.8,136.1c0.3,1-0.2,2-1.1,2.4c-0.1,0-0.2,0.1-0.2,0.1l-23.7,5.2C104.1,425.5,103.9,425.5,103.8,425.5z&#10;&#9;&#9; M61.5,296.5L105,421.4l20-4.4L78.7,285.2L61.5,296.5z"/>
	<path class="st3_team-building-32" d="M117.4,231.6c-5.2-9.3-7.4-13.3-16.1-13.3H77.4c-10,0-18.2,8.1-18.2,18.2c0,0,0,0,0,0v59.3h60.2V276&#10;&#9;&#9;c11.2,13.4,26,25.4,44.3,28l3.4-24C143.6,276.6,126,247.3,117.4,231.6z"/>
	<path class="st1_team-building-32" d="M163.8,305.9c-0.1,0-0.2,0-0.3,0c-15-2.1-29.2-10.5-42.2-24.8v14.8c0,1-0.9,1.9-1.9,1.9H59.2&#10;&#9;&#9;c-1,0-1.9-0.8-1.9-1.9l0,0v-59.3c0-11.1,9-20,20.1-20.1h23.9c9.7,0,12.4,4.7,17.6,14l0.2,0.3l0,0c6,10.9,24.2,44,48.5,47.4&#10;&#9;&#9;c0.5,0.1,0.9,0.3,1.2,0.7c0.3,0.4,0.4,0.9,0.4,1.4l-3.4,24C165.5,305.1,164.7,305.8,163.8,305.9L163.8,305.9z M119.5,274.1&#10;&#9;&#9;c0.6,0,1.1,0.2,1.4,0.7c12.8,15.3,26.6,24.4,41.3,27l2.9-20.3c-25.1-5-43.3-38-49.3-49l-0.1-0.2c-5.1-9-6.8-12.1-14.3-12.1H77.4&#10;&#9;&#9;c-9,0-16.3,7.3-16.3,16.3v57.4h56.5V276c0-0.8,0.5-1.5,1.2-1.8C119,274.2,119.2,274.1,119.5,274.1z"/>
	<path class="st4_team-building-32 targetColor" d="M202.4,249.7c1.5,8.9,9.5,14.9,18,13.5c4.1-0.7,7.8-3.1,10.1-6.6c2.9-1.8,6.7-1.5,9.4,0.6l6.4,38.8l-38.7,6.4&#10;&#9;&#9;c-2.3,2.7-2.6,6.5-0.8,9.5c3.5,2.3,5.9,6,6.6,10.1c1.4,8.5-4.7,16.5-13.6,18s-17.2-4.2-18.6-12.7c-0.7-4.1,0.4-8.4,3-11.7&#10;&#9;&#9;c0.7-3.4-0.8-7-3.8-8.8l-38.6,6.4l-17.2-104.5L229,191.6l6.4,38.8c-1.8,2.9-5.3,4.3-8.6,3.6c-3.3-2.6-7.6-3.7-11.7-3&#10;&#9;&#9;C206.6,232.5,200.9,240.8,202.4,249.7L202.4,249.7z" style="fill: rgb(104, 225, 253);"/>
	<path class="st1_team-building-32" d="M197,342c-8.5,0-16-5.9-17.4-14.3c-0.7-4.4,0.4-9,3.1-12.6c0.4-2.5-0.6-5-2.6-6.4l-38,6.2&#10;&#9;&#9;c-0.9,0.1-1.7-0.5-1.8-1.3c0,0,0,0,0,0l-17.2-104.5c-0.1-0.4,0-0.9,0.3-1.2c0.2-0.3,0.6-0.6,1.1-0.6l104.5-17.2&#10;&#9;&#9;c0.9-0.1,1.7,0.4,1.8,1.3c0,0,0,0,0,0l6.4,38.8c0.1,0.4,0,0.8-0.2,1.1c-2.2,3.5-6.4,5.2-10.4,4.3c-0.2-0.1-0.4-0.2-0.6-0.3&#10;&#9;&#9;c-5.8-4.6-14.3-3.5-18.8,2.3c-0.2,0.3-0.4,0.6-0.6,0.8c-2.2,3.2-3,7.1-2.3,10.9c0,0.1,0,0.1,0,0.2c1.4,7.9,8.6,13.3,16.1,12.1&#10;&#9;&#9;c3.7-0.6,7-2.8,9.1-5.9c0.1-0.2,0.3-0.4,0.5-0.5c0.6-0.4,6.1-3.4,11.2,0.8c0.3,0.2,0.5,0.6,0.6,1l6.4,38.8c0.1,0.9-0.5,1.7-1.3,1.8&#10;&#9;&#9;c0,0,0,0,0,0l-38,6.2c-1.5,2-1.6,4.7-0.4,6.9c3.7,2.6,6.2,6.5,6.9,11c1.5,9.3-5.1,18.2-14.9,19.8C199.1,341.9,198,342,197,342z&#10;&#9;&#9; M180.4,305.4c0.3,0,0.6,0.1,0.8,0.2c3.6,2.1,5.5,6.4,4.6,10.5c-0.1,0.2-0.1,0.4-0.3,0.6c-2.3,3-3.3,6.8-2.7,10.5&#10;&#9;&#9;c1.2,7.6,8.8,12.7,16.7,11.4s13.5-8.6,12.2-16.2c-0.6-3.7-2.8-6.9-5.9-9c-0.2-0.1-0.4-0.3-0.5-0.5c-2.2-3.6-1.8-8.2,1-11.4&#10;&#9;&#9;c0.3-0.3,0.6-0.5,1-0.5l37.1-6.1l-6-36.6c-2-1.3-4.6-1.4-6.8-0.3c-2.6,3.7-6.5,6.2-11,6.9c-9.3,1.5-18.2-5.1-19.8-14.9&#10;&#9;&#9;c0-0.1,0-0.1,0-0.2c-0.7-4.6,0.3-9.3,2.9-13.1c5.1-7.6,15.5-9.7,23.1-4.6c0.2,0.2,0.4,0.3,0.7,0.5c2.4,0.4,4.8-0.5,6.3-2.4l-6-36.6&#10;&#9;&#9;l-101.4,16.6L143,311.5l37.1-6.1C180.2,305.4,180.3,305.3,180.4,305.4L180.4,305.4z"/>
	<path class="st1_team-building-32" d="M113.2,275c-1,0-1.9-0.8-1.9-1.9l0,0v-29.2c0.1-1,1-1.8,2-1.7c0.9,0.1,1.7,0.8,1.7,1.7v29.2&#10;&#9;&#9;C115.1,274.1,114.3,275,113.2,275C113.2,275,113.2,275,113.2,275z"/>
	<path class="st5_team-building-32" d="M84.5,112c0.8-1.9,2.3-3.4,4.1-4.4c3-1.6,7.4-0.8,9.1,2.2c-0.7-3.5,2.3-6.9,5.7-7.8s7.1,0.3,10.2,2&#10;&#9;&#9;c9,4.8,15.3,13.5,16.9,23.6c0.8,4.7,0,9.5-2.2,13.8c-2.7,5.4-2.1,10.7-2.3,16.6c-0.1,6.7,1.1,13.1-2.4,18.9&#10;&#9;&#9;c-3.6,6.1-7.7,11.9-13.1,16.4c-7,5.9-16.7,9.5-25.7,7.1c-6.1-1.6-11.2-5.8-16.1-9.9c-3.6-3-7.3-6.1-9.9-10c-3.2-4.9-8.9-5.4-14-7.4&#10;&#9;&#9;c-11.5-4.4-17.4-17.2-13-28.8c0.8-2.2,2-4.3,3.5-6.1c3.6-4.4,8.6-7.3,13.9-9.3s10.8-3.2,16.2-4.8s10.7-3.5,16-5.5&#10;&#9;&#9;c0.6-0.2,1.1-0.5,1.5-0.9c0.3-0.6,0.5-1.2,0.5-1.9C83.6,114.6,83.9,113.3,84.5,112z"/>
	<path class="st1_team-building-32" d="M90.8,202.7c-2.1,0-4.2-0.3-6.2-0.8c-6.6-1.8-11.9-6.2-16.7-10.2c-3.7-3-7.4-6.2-10.2-10.4&#10;&#9;&#9;c-2.2-3.4-5.7-4.4-9.5-5.6c-1.2-0.4-2.5-0.8-3.7-1.2c-12.3-4.6-18.5-18.4-13.9-30.7c0.9-2.4,2.1-4.6,3.7-6.5&#10;&#9;&#9;c3.3-4.1,8.1-7.4,14.5-9.8c3.7-1.3,7.4-2.5,11.2-3.4c1.7-0.5,3.4-0.9,5.1-1.4c5.4-1.6,10.7-3.5,15.9-5.4c0.3-0.1,0.5-0.2,0.8-0.4&#10;&#9;&#9;c0.1-0.3,0.2-0.6,0.2-0.9v-0.2c0.1-1.6,0.5-3.1,1.2-4.5c1-2.2,2.6-4,4.7-5.2c2.7-1.4,5.9-1.3,8.5,0.2c1.1-2.9,3.6-5.2,6.6-5.9&#10;&#9;&#9;c3.3-0.8,7.1-0.1,11.3,2.1c9.5,5,16,14.2,17.7,24.8c0.8,5,0,10.1-2.3,14.7c-2.1,4.1-2.1,8.1-2.1,12.8c0,1,0,2.1,0,3.1&#10;&#9;&#9;c0,1.5,0,3,0,4.4c0.1,5.1,0.3,10.3-2.6,15.2c-4.4,7.5-8.7,12.8-13.4,16.8C105.2,199.8,97.8,202.7,90.8,202.7z M91.9,108.3&#10;&#9;&#9;c-0.9,0-1.8,0.2-2.7,0.6c-1.5,0.8-2.7,2.2-3.4,3.8l0,0c-0.5,1.1-0.8,2.3-0.9,3.5v0.2c0,0.9-0.3,1.8-0.8,2.5&#10;&#9;&#9;c-0.6,0.7-1.3,1.1-2.2,1.4c-5.2,1.9-10.6,3.9-16.1,5.5c-1.7,0.5-3.5,1-5.2,1.4c-3.7,0.9-7.3,2-10.9,3.3c-5.8,2.2-10.3,5.2-13.2,8.9&#10;&#9;&#9;c-7.2,9-5.8,22.1,3.2,29.3c1.7,1.4,3.6,2.5,5.7,3.2c1.2,0.4,2.4,0.8,3.5,1.2c4.1,1.2,8.4,2.6,11.1,6.8c2.5,3.8,6.1,6.8,9.6,9.7&#10;&#9;&#9;c4.5,3.8,9.6,8,15.5,9.6c7.7,2.1,16.8-0.5,24.3-6.8c4.5-3.8,8.6-8.9,12.8-16.1c2.4-4.1,2.3-8.7,2.2-13.6c0-1.5-0.1-3,0-4.6&#10;&#9;&#9;c0-1.1,0-2.1,0-3.1c0-4.8,0-9.4,2.4-14.2c2-4,2.7-8.5,2-12.9c-1.5-9.6-7.4-18-16.1-22.5c-3.5-1.8-6.6-2.5-9.2-1.8s-5.2,3.3-4.6,6&#10;&#9;&#9;c0.1,0.8-0.4,1.6-1.2,1.7c-0.6,0.1-1.2-0.2-1.6-0.7C95.3,109,93.7,108.2,91.9,108.3z M84.5,112L84.5,112z"/>
	<path class="st2_team-building-32" d="M85.2,215.2h13.1l0,0v10.1c0,1.6-1.3,2.9-2.9,2.9h-7.2c-1.6,0-2.9-1.3-2.9-2.9&#10;&#9;&#9;C85.2,225.3,85.2,215.2,85.2,215.2z"/>
	<path class="st1_team-building-32" d="M92.8,230.1h-2c-4.1,0-7.4-3.3-7.4-7.4v-7.5c0-1,0.8-1.9,1.9-1.9l0,0h13.1c1,0,1.9,0.8,1.9,1.9l0,0v7.5&#10;&#9;&#9;C100.2,226.8,96.9,230.1,92.8,230.1z M87.1,217.1v5.6c0,2,1.6,3.7,3.6,3.7c0,0,0,0,0,0h2c2,0,3.7-1.6,3.7-3.7c0,0,0,0,0,0v-5.6&#10;&#9;&#9;H87.1z"/>
	<ellipse class="st2_team-building-32" cx="125.6" cy="182.6" rx="9.8" ry="10.9"/>
	<path class="st1_team-building-32" d="M125.6,195.4c-6.4,0-11.7-5.8-11.7-12.8s5.2-12.8,11.7-12.8c6.4,0,11.7,5.8,11.7,12.8S132.1,195.4,125.6,195.4&#10;&#9;&#9;z M125.6,173.5c-4.4,0-7.9,4.1-7.9,9.1s3.6,9.1,7.9,9.1c4.4,0,7.9-4.1,7.9-9.1S130,173.5,125.6,173.5z"/>
	<path class="st2_team-building-32" d="M91.4,218.3c-21.5,0-40.7-26.5-40.7-47.7l5.1,1.9l-0.2-15c0,0,26.9-7.1,23.4-19.6c0,0,7.9,9.4,19.2,9.4&#10;&#9;&#9;c20.9-0.1,29-5.6,29-5.6V180C127.2,201.1,112.9,218.3,91.4,218.3z"/>
	<path class="st1_team-building-32" d="M91.4,220.1c-22.6,0-42.6-27.7-42.6-49.6c0-1,0.8-1.9,1.9-1.9c0.2,0,0.5,0,0.7,0.1l2.5,1l-0.2-12.2&#10;&#9;&#9;c0-0.9,0.6-1.6,1.4-1.8c0.2,0,17-4.6,21.4-12.2c0.9-1.5,1.2-3.4,0.7-5.1c-0.3-1,0.3-2,1.3-2.3c0.7-0.2,1.4,0,1.9,0.6&#10;&#9;&#9;c0.1,0.1,7.5,8.7,17.8,8.7l0,0c19.9,0,27.9-5.2,28-5.3c0.6-0.4,1.3-0.4,1.9-0.1c0.6,0.3,1,1,1,1.7V180&#10;&#9;&#9;C129.1,203.2,113.2,220.1,91.4,220.1z M52.6,173.3c1.6,23.1,22.3,43,38.8,43c19.7,0,34-15.3,34-36.4v-35.2&#10;&#9;&#9;c-4.1,1.7-12.7,4.4-27.1,4.4h-0.1c-7.6,0-13.7-3.8-17.2-6.8c-0.2,1.1-0.6,2.1-1.2,3c-4.4,7.6-17.8,12.3-22.3,13.6l0.2,13.5&#10;&#9;&#9;c0,0.6-0.3,1.2-0.8,1.6c-0.5,0.4-1.2,0.4-1.7,0.2L52.6,173.3z"/>
	<ellipse class="st1_team-building-32" cx="81.7" cy="175.2" rx="3.6" ry="3.5"/>
	<circle class="st1_team-building-32" cx="115.8" cy="175.2" r="3.6"/>
	<path class="st1_team-building-32" d="M100.6,185.7c-1.2,0-2.4-0.1-3.6-0.3c-1-0.2-1.7-1.2-1.5-2.2c0.2-1,1.2-1.7,2.2-1.5c1.4,0.2,2.9,0.3,4.3,0.2&#10;&#9;&#9;c-0.6-2.6-1.6-5.1-2.9-7.4c-0.5-0.9-0.2-2,0.7-2.6c0.9-0.5,2-0.2,2.6,0.7c0,0,0,0.1,0.1,0.1c1.6,3.1,4.1,8.6,3,11.1&#10;&#9;&#9;c-0.3,0.8-1,1.3-1.8,1.5C102.6,185.6,101.6,185.7,100.6,185.7z"/>
	<path class="st1_team-building-32" d="M68.6,169.5c-2.1,0-3.8-1.6-3.8-3.7c0-1.8,1.3-3.4,3.1-3.7l16.6-3.2c2-0.4,4,0.9,4.4,3c0.4,2-0.9,4-3,4.4&#10;&#9;&#9;l-16.6,3.2C69,169.5,68.8,169.5,68.6,169.5z"/>
	<path class="st1_team-building-32" d="M119.5,166.4h-0.2l-16.9-0.8c-2.1-0.1-3.7-1.8-3.6-3.9c0,0,0,0,0,0c0.1-2,1.8-3.7,3.8-3.6c0,0,0.1,0,0.1,0&#10;&#9;&#9;l16.9,0.7c2.1,0.1,3.6,1.9,3.5,4C123,164.8,121.4,166.3,119.5,166.4L119.5,166.4z"/>
	<path class="st2_team-building-32" d="M58.3,173.3c0,0-9.3-6.5-14.3,1.9s-0.2,22.6,15.3,18.4"/>
	<path class="st1_team-building-32" d="M54.1,196.2c-4.3,0.2-8.4-1.7-11.1-5.2c-3.5-5-3.8-11.6-0.6-16.8c1.4-2.5,3.8-4.3,6.5-4.9&#10;&#9;&#9;c5.2-1.1,10.3,2.4,10.5,2.5c0.8,0.6,1.1,1.8,0.5,2.6c-0.6,0.9-1.7,1.1-2.6,0.5c0,0,0,0,0,0l0,0c0,0-4-2.7-7.6-1.9&#10;&#9;&#9;c-1.8,0.4-3.2,1.6-4.1,3.2c-2.3,3.9-2.2,8.9,0.4,12.6c2.6,3.4,7.1,4.5,12.8,3c1-0.3,2,0.3,2.3,1.3s-0.3,2-1.3,2.3l0,0&#10;&#9;&#9;C57.9,195.9,56,196.1,54.1,196.2z"/>
	<path class="st1_team-building-32" d="M96.3,202.2c-1.3,0-2.6-0.1-3.9-0.4c-5-1.2-9.2-4.6-12.3-10.2c-0.5-0.9-0.2-2.1,0.7-2.6s2.1-0.2,2.6,0.7l0,0&#10;&#9;&#9;c2.6,4.6,5.9,7.5,9.9,8.4c6.7,1.6,13.2-2.8,13.2-2.8c0.9-0.6,2-0.4,2.6,0.5c0.6,0.9,0.4,2-0.5,2.6&#10;&#9;&#9;C104.9,200.7,100.6,202,96.3,202.2z"/>
	<path class="st4_team-building-32 targetColor" d="M103.8,423.6l5,15.1l39.4-13c0.7-0.2,1.1-1,0.8-1.7c-0.1-0.4-0.5-0.7-0.9-0.9l-23-5.8L103.8,423.6z" style="fill: rgb(104, 225, 253);"/>
	<path class="st1_team-building-32" d="M108.8,440.6c-0.8,0-1.5-0.5-1.8-1.3l-5-15.1c-0.3-1,0.2-2,1.2-2.4c0,0,0,0,0.1,0l21.4-6.2&#10;&#9;&#9;c0.3-0.1,0.7-0.1,1,0l23,5.8c1.7,0.4,2.8,2.2,2.3,3.9c-0.3,1.1-1.1,1.9-2.1,2.3l-39.4,13C109.3,440.6,109,440.6,108.8,440.6z&#10;&#9;&#9; M106.2,424.9l3.8,11.5l35.8-11.8l-20.6-5.2L106.2,424.9z"/>
	<path class="st4_team-building-32 targetColor" d="M49.4,395.6l-12,10.9l28.9,30.2c0.4,0.4,1,0.3,1.4-0.1c0.2-0.2,0.3-0.4,0.3-0.7l-2.4-24.7L49.4,395.6z" style="fill: rgb(104, 225, 253);"/>
	<path class="st1_team-building-32" d="M67.1,438.9c-0.8,0-1.5-0.3-2-0.9l-29-30.2c-0.4-0.4-0.5-0.9-0.5-1.4c0-0.5,0.2-1,0.6-1.3l12-10.9&#10;&#9;&#9;c0.7-0.7,1.9-0.7,2.6,0L67,409.9c0.3,0.3,0.5,0.7,0.6,1.2l2.4,24.7c0.1,1.2-0.5,2.4-1.6,2.9C68,438.8,67.5,438.9,67.1,438.9z&#10;&#9;&#9; M40.2,406.6l25.8,26.9l-2.1-21.4l-14.4-13.9L40.2,406.6z"/>
	<path class="st6_team-building-32" d="M113.2,374.8c-0.4,0-0.8-0.3-0.9-0.6l-25.5-72.7c-0.2-0.5,0.1-1,0.6-1.2c0.5-0.2,1,0.1,1.2,0.6c0,0,0,0,0,0&#10;&#9;&#9;l25.5,72.7c0.2,0.5-0.1,1-0.6,1.2c0,0,0,0,0,0C113.4,374.8,113.3,374.8,113.2,374.8z"/>
	<g id="tab-1_team-building-32">
		<path class="st2_team-building-32" d="M154.4,287.1c0,0,16.9,0.2,19.6,2.7s5.9,7.5,5.5,10s-1.8,5.5-4.3,5.2s-5.1-1.1-8.2-1.1s-15.3-1.1-15.3-1.1&#10;&#9;&#9;&#9;L154.4,287.1z"/>
		<path class="st1_team-building-32" d="M175.3,307h-0.4c-1.1-0.1-2.1-0.3-3.2-0.5c-1.6-0.4-3.2-0.6-4.8-0.6c-3.2,0-15-1.1-15.5-1.2&#10;&#9;&#9;&#9;c-0.5-0.1-1-0.3-1.3-0.7c-0.3-0.4-0.4-1-0.4-1.5l2.7-15.7c0.2-0.9,1-1.6,1.9-1.6c4.1,0,17.8,0.5,20.8,3.2c2.4,2.2,6.7,8,6.1,11.7&#10;&#9;&#9;&#9;C180.5,304.4,178.2,307,175.3,307z M153.8,301.1c3.6,0.3,10.9,1,13.1,1c1.9,0,3.7,0.3,5.5,0.7c1,0.2,1.9,0.4,2.8,0.5&#10;&#9;&#9;&#9;c1.1,0.1,2-1.8,2.3-3.7c0.3-1.4-2.1-5.8-4.9-8.3c-1.2-1.1-9.3-2-16.7-2.2L153.8,301.1z"/>
		<path class="st3_team-building-32" d="M87.7,237.9c6.5,11.4,26.3,38.2,72.6,46.3l-2.1,24.1c0,0-1.4-0.1-2.1-0.2c-53.6-9.4-78.8-40.4-88.5-56.5"/>
		<path class="st1_team-building-32" d="M158.2,310.1L158.2,310.1c-0.2,0-1.6-0.1-2.4-0.2c-53.8-9.4-79.3-40-89.8-57.4c-0.5-0.9-0.2-2,0.6-2.6&#10;&#9;&#9;&#9;c0.9-0.5,2-0.2,2.6,0.6c10.1,16.9,35,46.5,87.2,55.6h0.1l1.8-20.5c-46-8.6-65.8-35.6-72.2-46.9c-0.4-0.9-0.1-2.1,0.9-2.5&#10;&#9;&#9;&#9;c0.9-0.4,1.9-0.1,2.4,0.7c6.2,11,25.7,37.4,71.3,45.3c1,0.2,1.6,1,1.6,2l-2.1,24.1C160,309.4,159.2,310.1,158.2,310.1z"/>
	</g>
</g>
<g id="character_1_team-building-32">
	<g id="ahcQ9Z_team-building-32">
		<path class="st4_team-building-32 targetColor" d="M349.7,162.6c-0.1-2.9-2.2-5.4-5-6c-2.4-0.5-4.8-0.9-7.3-1.3c-0.7,0-1.3-0.5-1.4-1.2&#10;&#9;&#9;&#9;c-0.7-1.9-1.5-3.8-2.4-5.7c-0.3-0.4-0.2-1,0.1-1.4c1.5-2,3-4,4.3-6.1c1.6-2.4,1.4-5.6-0.6-7.8c-2.2-2.4-4.6-4.7-6.9-7.1&#10;&#9;&#9;&#9;c-2.4-2.7-6.4-3.1-9.3-0.9l-5.4,3.9c-0.4,0.4-1,0.4-1.5,0.2c-2.1-0.9-4.1-1.8-6.2-2.6c-0.5-0.1-0.9-0.6-0.9-1.1&#10;&#9;&#9;&#9;c-0.3-2.2-0.7-4.4-1.1-6.6c-0.5-3.2-3.2-5.6-6.4-5.8c-3.4-0.1-6.8-0.1-10.3,0c-3,0.1-5.5,2.2-6.2,5.1c-0.6,2.5-0.9,5-1.4,7.5&#10;&#9;&#9;&#9;c0,0.5-0.4,1-0.9,1.1c-2,0.8-4,1.6-6,2.5c-0.4,0.3-1,0.2-1.4-0.1c-2-1.5-4-2.9-6-4.3c-2.4-1.7-5.7-1.4-7.9,0.5&#10;&#9;&#9;&#9;c-2.6,2.4-5.1,4.9-7.5,7.5c-2.4,2.4-2.5,6.1-0.4,8.7c1.3,1.9,2.7,3.8,4,5.7c0.2,0.3,0.2,0.7,0.1,1c-0.8,2.1-1.7,4.3-2.6,6.4&#10;&#9;&#9;&#9;c-0.2,0.3-0.5,0.6-0.8,0.7c-2.2,0.4-4.4,0.8-6.6,1.1c-3.2,0.3-5.8,3-6,6.2c-0.1,3.6-0.1,7.1,0,10.7c0.1,2.9,2.1,5.3,4.9,5.9&#10;&#9;&#9;&#9;c2.5,0.6,5.1,1,7.7,1.4c0.5,0,1,0.4,1.1,0.9c0.8,2,1.7,4,2.6,6c0.2,0.4,0.2,0.9-0.1,1.3c-1.4,1.8-2.7,3.7-4,5.6&#10;&#9;&#9;&#9;c-2.1,2.8-1.7,6.6,0.8,9c2.1,2.2,4.3,4.4,6.5,6.5c2.4,2.6,6.4,3,9.2,0.7c1.9-1.3,3.7-2.6,5.6-4c0.3-0.3,0.8-0.3,1.2-0.1l5.7,2.4&#10;&#9;&#9;&#9;c0.6,0.2,1,0.7,1.1,1.3c0.3,2.2,0.7,4.4,1.1,6.6c0.4,3.1,3,5.5,6.1,5.7c3.6,0.1,7.2,0.1,10.8,0c2.9-0.1,5.4-2.2,6-5&#10;&#9;&#9;&#9;c0.5-2.4,0.9-4.9,1.3-7.3c0-0.6,0.4-1.1,1-1.3c2-0.8,4-1.6,6-2.5c0.4-0.2,0.9-0.2,1.3,0.1c1.8,1.4,3.7,2.6,5.5,4&#10;&#9;&#9;&#9;c1.3,1,2.9,1.4,4.5,1.4c1.5,0,2.9-0.6,4-1.6c2.4-2.2,4.6-4.5,6.9-6.8c2.8-2.4,3.1-6.6,0.8-9.4l-3.9-5.4c-0.3-0.4-0.4-0.9-0.1-1.3&#10;&#9;&#9;&#9;c0.9-2,1.7-4,2.5-6c0.2-0.5,0.6-0.9,1.2-0.9c2.2-0.3,4.4-0.7,6.7-1.1c3.2-0.4,5.7-3.1,5.8-6.4&#10;&#9;&#9;&#9;C349.8,169.6,349.8,166.1,349.7,162.6z M294.8,191.6c-13.1,0-23.6-10.6-23.6-23.7s10.6-23.6,23.7-23.6c13.1,0,23.6,10.6,23.6,23.7&#10;&#9;&#9;&#9;c0,13-10.6,23.6-23.6,23.6C294.9,191.6,294.9,191.6,294.8,191.6L294.8,191.6z" style="fill: rgb(104, 225, 253);"/>
		<path class="st1_team-building-32" d="M294.7,224.7c-1.8,0-3.6,0-5.5-0.1c-4.1-0.3-7.4-3.4-8-7.4c-0.4-2.1-0.8-4.3-1.1-6.4l-5.3-2.2&#10;&#9;&#9;&#9;c-2,1.5-3.7,2.7-5.3,3.8c-3.5,2.8-8.6,2.4-11.7-0.9c-2.2-2.1-4.4-4.3-6.5-6.5c-3.2-3.1-3.6-8-1-11.6c1.2-1.7,2.4-3.5,3.7-5.2&#10;&#9;&#9;&#9;l-2.4-5.4c-2.5-0.4-5-0.8-7.5-1.4c-3.7-0.8-6.3-4-6.4-7.8c-0.1-3.7-0.1-7.2,0-10.8c0.3-4.2,3.6-7.7,7.8-8.1c1.9-0.3,3.9-0.6,5.9-1&#10;&#9;&#9;&#9;c0.8-1.9,1.6-3.8,2.2-5.5c-0.5-0.8-1.1-1.6-1.7-2.4c-0.7-1-1.4-1.9-2-2.9c-2.6-3.4-2.4-8.1,0.6-11.2c2.4-2.6,5-5.2,7.6-7.6&#10;&#9;&#9;&#9;c2.9-2.6,7.2-2.8,10.4-0.7c1.9,1.3,3.8,2.7,5.7,4.1c1.9-0.8,3.7-1.6,5.5-2.3c0.2-0.9,0.3-1.8,0.5-2.7c0.3-1.5,0.5-3.1,0.9-4.6&#10;&#9;&#9;&#9;c0.9-3.8,4.2-6.5,8.1-6.6c3.6-0.1,7-0.1,10.4,0c4.2,0.3,7.6,3.4,8.3,7.5c0.4,2,0.8,4.1,1.1,6.3c1.5,0.6,3.1,1.3,4.5,1.9l1.2,0.5&#10;&#9;&#9;&#9;l5.2-3.8c3.7-2.8,8.9-2.3,12,1.2c0.9,0.9,1.8,1.8,2.7,2.8c1.4,1.4,2.8,2.8,4.2,4.3c2.6,2.9,2.9,7.1,0.8,10.3c-1.2,2-2.7,4-4.1,5.9&#10;&#9;&#9;&#9;c0.9,1.8,1.6,3.7,2.3,5.5c2.2,0.4,4.7,0.8,7.3,1.3c3.7,0.8,6.5,4.1,6.6,7.9l0,0c0.1,4,0.1,7.5-0.1,10.7c-0.2,4.2-3.3,7.7-7.5,8.3&#10;&#9;&#9;&#9;l-0.9,0.2c-1.9,0.3-3.7,0.6-5.5,0.9c-0.7,1.8-1.5,3.6-2.3,5.4l3.6,5c2.9,3.7,2.5,9-1,12.1l-1.7,1.7c-1.7,1.7-3.4,3.5-5.3,5.1&#10;&#9;&#9;&#9;c-1.5,1.4-3.4,2.1-5.4,2.1c-2,0.1-4.1-0.6-5.7-1.8c-0.9-0.7-1.8-1.3-2.7-1.9c-0.8-0.6-1.6-1.1-2.4-1.8c-1.9,0.8-3.7,1.6-5.5,2.3&#10;&#9;&#9;&#9;l-0.1,0.8c-0.4,2.1-0.7,4.3-1.2,6.5c-0.8,3.7-4.1,6.5-7.9,6.6C298.4,224.8,296.5,224.6,294.7,224.7z M281.7,207.1&#10;&#9;&#9;&#9;c1.2,0.5,2.1,1.5,2.4,2.8c0.3,2.2,0.7,4.4,1.1,6.5v0.1c0.3,2.1,2.1,3.8,4.2,4c3.5,0.1,7.1,0.1,10.6,0c2-0.1,3.7-1.5,4.1-3.4&#10;&#9;&#9;&#9;c0.4-2,0.8-4.2,1.1-6.3l0.1-0.8c0.1-1.4,1-2.5,2.3-3c2-0.8,3.9-1.6,5.9-2.4c1.1-0.5,2.3-0.4,3.3,0.3c0.9,0.7,1.8,1.3,2.7,2&#10;&#9;&#9;&#9;s1.9,1.3,2.8,2.1c1,0.7,2.1,1,3.3,1c1,0,2-0.4,2.7-1.1c1.8-1.6,3.4-3.3,5.1-5c0.6-0.6,1.1-1.2,1.7-1.7l0.1-0.1&#10;&#9;&#9;&#9;c1.9-1.7,2.2-4.6,0.6-6.6l-0.1-0.1l-3.9-5.4c-0.8-1-0.9-2.3-0.2-3.4l2.4-5.7c0.4-1.2,1.6-2.1,2.9-2.2c1.8-0.2,3.6-0.6,5.5-0.9&#10;&#9;&#9;&#9;l1-0.2c2.3-0.3,4.1-2.2,4.1-4.5c0.2-3.1,0.2-6.5,0.1-10.4c-0.1-2-1.5-3.7-3.4-4.1c-2.4-0.5-4.9-0.9-7.1-1.3&#10;&#9;&#9;&#9;c-1.5-0.1-2.8-1.2-3.1-2.7c-0.7-1.8-1.4-3.5-2.2-5.3c-0.6-1.1-0.5-2.5,0.3-3.5c1.4-1.9,2.9-3.9,4.2-6c1.1-1.7,1-3.9-0.4-5.4&#10;&#9;&#9;&#9;c-1.3-1.4-2.7-2.8-4.1-4.2c-0.9-0.9-1.9-1.9-2.8-2.9c-1.6-2-4.6-2.3-6.6-0.7l-5.4,3.9c-1,0.8-2.3,1-3.5,0.5l-1.5-0.6&#10;&#9;&#9;&#9;c-1.6-0.7-3-1.3-4.6-1.9c-1.3-0.4-2.2-1.5-2.3-2.8c-0.3-2.1-0.7-4.3-1.1-6.4c-0.4-2.3-2.3-4-4.6-4.2c-3.3-0.1-6.6-0.1-10.1,0&#10;&#9;&#9;&#9;c-2.1,0-3.8,1.5-4.3,3.5c-0.4,1.5-0.6,2.9-0.9,4.4c-0.2,1-0.3,1.9-0.5,2.9c-0.1,1.3-1,2.4-2.3,2.8c-1.9,0.7-3.8,1.5-5.7,2.4&#10;&#9;&#9;&#9;c-1.2,0.6-2.6,0.5-3.6-0.3c-2-1.5-4-2.9-5.9-4.2c-1.7-1.2-4-1-5.5,0.4c-2.5,2.3-5,4.8-7.3,7.3s-1.3,4.7-0.2,6.2&#10;&#9;&#9;&#9;c0.7,1,1.3,1.9,2,2.9s1.4,1.9,2,2.9c0.5,0.8,0.7,1.9,0.3,2.8c-0.8,2.1-1.7,4.3-2.7,6.6c0,0.1-0.1,0.2-0.2,0.3&#10;&#9;&#9;&#9;c-0.4,0.7-1.1,1.2-1.8,1.5c-0.1,0-0.2,0.1-0.3,0.1c-2.2,0.4-4.4,0.8-6.7,1.1c-2.3,0.2-4.1,2-4.3,4.3c-0.1,3.5-0.1,7,0,10.5&#10;&#9;&#9;&#9;c0,1.9,1.4,3.6,3.3,4c2.4,0.6,5,1,7.5,1.4c1.3,0.1,2.4,1,2.8,2.2c0.8,2,1.7,4,2.6,5.9c0.5,1.1,0.4,2.3-0.3,3.3&#10;&#9;&#9;&#9;c-1.4,1.8-2.7,3.7-3.9,5.5c0,0.1,0,0.1-0.1,0.1h0c-1.5,2-1.2,4.7,0.6,6.4c2.1,2.2,4.3,4.4,6.5,6.5c2.5,2.5,5,1.7,6.7,0.5&#10;&#9;&#9;&#9;s3.3-2.3,5.5-3.9c0.9-0.8,2.2-0.9,3.3-0.4L281.7,207.1z M294.8,193.6c-14.2,0-25.7-11.5-25.6-25.7c0-14.2,11.5-25.7,25.7-25.6&#10;&#9;&#9;&#9;c14.2,0,25.7,11.5,25.6,25.7c0,0,0,0,0,0c0.1,14.1-11.3,25.5-25.4,25.6C295,193.6,294.9,193.6,294.8,193.6L294.8,193.6z&#10;&#9;&#9;&#9; M294.7,146.3c-5.7,0-11.1,2.2-15.1,6.3c-8.5,8.4-8.5,22.1-0.1,30.6s22.1,8.5,30.6,0.1c8.5-8.4,8.5-22.1,0.1-30.6&#10;&#9;&#9;&#9;C306.1,148.6,300.5,146.3,294.7,146.3z"/>
	</g>
	<g id="character_1-2_team-building-32">
		<path class="st7_team-building-32" d="M351.4,226.3c-7.2-4.7-14-10-20.2-15.9c2.2-4.7,5.1-9.1,8.6-12.9c13.7,10.3,29.2,17.8,45.2,23.9&#10;&#9;&#9;&#9;c6.1,2.3,12.2,4.4,18.4,6.4c4.9,1.6,8.5,7,10,11.9c1.2,3.9,0.8,8.6-2.1,11.6c-1.8,1.7-4.1,2.8-6.5,3.2c-6.1,1.1-10.9-1.1-15.7-4.4&#10;&#9;&#9;&#9;C376.9,241.6,363.7,234.5,351.4,226.3z"/>
		<path class="st1_team-building-32" d="M401.6,256.8c-5.4,0-9.7-2.4-13.6-5.1c-6.6-4.6-13.7-8.9-20.6-13c-5.6-3.4-11.5-6.9-17.1-10.6l0,0&#10;&#9;&#9;&#9;c-7.3-4.7-14.2-10.1-20.5-16.1l-1-1l0.6-1.3c2.3-4.9,5.3-9.4,9-13.4l1.2-1.3l1.4,1.1c12,9,26.6,16.7,44.7,23.6&#10;&#9;&#9;&#9;c5,1.9,10.2,3.7,15.3,5.4l3.1,1c5.9,2,9.8,8.4,11.3,13.2c1.6,5,0.5,10.3-2.6,13.6c-2.1,2-4.7,3.3-7.6,3.8&#10;&#9;&#9;&#9;C404,256.7,402.8,256.8,401.6,256.8z M352.5,224.7c5.5,3.7,11.3,7.2,16.9,10.6c6.9,4.2,14.1,8.5,20.8,13.2&#10;&#9;&#9;&#9;c4.6,3.2,8.8,5.1,14.2,4.1c2-0.3,3.9-1.2,5.4-2.6c2.1-2.2,2.8-5.9,1.6-9.6c-1.3-4.2-4.6-9.1-8.8-10.6l-3-1&#10;&#9;&#9;&#9;c-5.1-1.7-10.3-3.5-15.4-5.4c-17.7-6.8-32.2-14.3-44.2-23c-2.5,3-4.7,6.3-6.5,9.8C339.5,215.5,345.8,220.4,352.5,224.7&#10;&#9;&#9;&#9;L352.5,224.7z"/>
		<g id="character-1_team-building-32">
			<path class="st2_team-building-32" d="M429.2,243.3h-14.7c-2,0-3.5-1.6-3.5-3.6v-18.2l0,0h21.8l0,0v18.2C432.8,241.7,431.2,243.3,429.2,243.3z"/>
			<path class="st1_team-building-32" d="M429.2,244.8h-14.7c-2.8,0-5-2.3-5-5.1V220h24.8v19.8C434.3,242.5,432,244.8,429.2,244.8z M412.5,223v16.8&#10;&#9;&#9;&#9;&#9;c0,1.1,0.9,2.1,2,2.1h14.7c1.1,0,2-0.9,2-2.1V223H412.5z"/>
			<rect x="426.5" y="311.4" class="st2_team-building-32" width="17.2" height="117.7"/>
			<path class="st1_team-building-32" d="M425,429.1V311.4c0-0.8,0.7-1.5,1.5-1.5h17.3c0.8,0,1.5,0.7,1.5,1.5v117.7c0,0.8-0.7,1.5-1.5,1.5h-17.2&#10;&#9;&#9;&#9;&#9;C425.7,430.6,425,430,425,429.1C425,429.1,425,429.1,425,429.1z M442.3,312.9H428v114.7h14.3V312.9z"/>
			<rect x="390.1" y="311.4" class="st2_team-building-32" width="17.2" height="117.7"/>
			<polygon class="st1_team-building-32" points="388.8,343.4 445.3,343.5 445.3,311.4 388.6,311.4 &#9;&#9;&#9;"/>
			<path class="st1_team-building-32" d="M388.6,429.1V311.4c0-0.8,0.7-1.5,1.5-1.5h17.2c0.8,0,1.5,0.7,1.5,1.5v117.7c0,0.8-0.7,1.5-1.5,1.5h-17.2&#10;&#9;&#9;&#9;&#9;C389.3,430.6,388.6,429.9,388.6,429.1z M405.9,312.9h-14.2v114.7h14.2V312.9z"/>
			<path class="st8_team-building-32" d="M426.5,429.1v13.2H457c0,0-1.6-10.2-13.8-13.2H426.5z"/>
			<path class="st1_team-building-32" d="M425,442.3v-13.2c0-0.8,0.7-1.5,1.5-1.5h16.7c0.1,0,0.2,0,0.4,0c12.9,3.2,14.8,14,14.9,14.4&#10;&#9;&#9;&#9;&#9;c0.1,0.8-0.4,1.6-1.2,1.7c-0.1,0-0.2,0-0.2,0h-30.5C425.7,443.8,425,443.1,425,442.3z M443,430.6h-15v10.2h27&#10;&#9;&#9;&#9;&#9;C454,438,451.1,432.7,443,430.6L443,430.6z"/>
			<path class="st8_team-building-32" d="M407.4,429.1v13.2h-30.5c0,0,1.6-10.2,13.8-13.2H407.4z"/>
			<path class="st1_team-building-32" d="M375.8,443.3c-0.3-0.3-0.4-0.8-0.3-1.2c0.1-0.5,1.9-11.2,14.9-14.4c0.1,0,0.2,0,0.4,0h16.7&#10;&#9;&#9;&#9;&#9;c0.8,0,1.5,0.7,1.5,1.5v13.2c0,0.8-0.7,1.5-1.5,1.5h-30.5C376.4,443.8,376,443.6,375.8,443.3z M405.9,430.6h-15&#10;&#9;&#9;&#9;&#9;c-8,2.1-11,7.4-12,10.2h27V430.6z"/>
			<path class="st2_team-building-32" d="M334.5,209.5c-0.1-0.9-1.3-1.5-2.1-2.1c-1.1-0.9-2.1-1.8-3.1-2.7c-1.3-1.2-2.7-2.3-4-3.5&#10;&#9;&#9;&#9;&#9;c-2-1.8-2.2-6.6-3.4-9.8s-3.9-2.8-4-1s1.2,6.6,1.1,6.6s-7.7-9-8.8-9.1s-8.8,8.4-8,11.8c0.3,1.6,3.9,6.2,7.6,10.5&#10;&#9;&#9;&#9;&#9;c1,1.2,7,2.4,7,2.4c1.7,1.1,3.3,2.1,5,3.2c1.2,0.8,2.4,1.5,3.6,2.2c0.6,0.4,1.1,0.9,1.9,0.6s1.2-1.2,1.7-1.8&#10;&#9;&#9;&#9;&#9;c0.3-0.3,2.5-2.6,2.4-2.9c0.9-1.1,1.8-2.3,2.8-3.4C334.4,210.3,334.5,209.9,334.5,209.5z"/>
			<path class="st1_team-building-32" d="M326.8,220.8c-0.8,0-1.6-0.3-2.2-0.8l-0.3-0.2L323,219l-2.4-1.5l-4.7-3c-2.9-0.6-6.5-1.6-7.7-3&#10;&#9;&#9;&#9;&#9;c-3.4-3.9-7.6-9-8-11.4c-0.8-3.7,4.1-9.5,5.6-11.1c2.7-3,3.8-3.2,4.6-3.1s1.7,0.6,5.5,4.7c0-0.1,0-0.2,0-0.4&#10;&#9;&#9;&#9;&#9;c0.1-1.6,1.3-3,2.9-3.2c1.5-0.2,3.8,0.6,4.9,3.6c1,2.7,2.8,7.7,3.3,9.3c1.2,1,2.4,2.1,3.6,3.1c1,0.9,2.1,1.8,3.1,2.7l0.5,0.4&#10;&#9;&#9;&#9;&#9;c1.1,0.6,2,1.7,2.3,3l0,0c0.1,1-0.2,2-0.9,2.7c-0.6,0.7-1.2,1.4-1.8,2.2l-0.7,0.9c-0.6,1-1.4,2-2.3,2.8l-0.4,0.4l-0.3,0.4&#10;&#9;&#9;&#9;&#9;c-0.5,0.9-1.3,1.6-2.2,2C327.5,220.7,327.1,220.8,326.8,220.8z M311.1,209c1.9,0.8,3.9,1.4,5.9,1.8l0.4,0.1l0.3,0.2&#10;&#9;&#9;&#9;&#9;c1.7,1.1,3.3,2.1,5,3.1l2.4,1.4l1.3,0.8l0.3,0.2l0.2-0.3c0.1-0.2,0.3-0.4,0.4-0.6c0.1-0.1,0.3-0.3,0.5-0.6s0.8-0.8,1.2-1.3l0-0.1&#10;&#9;&#9;&#9;&#9;l0.7-0.9c0.3-0.4,0.6-0.8,0.9-1.1c0.5-0.6,1-1.3,1.5-1.9l-0.4-0.3c-0.2-0.2-0.5-0.4-0.7-0.6c-1.1-0.9-2.1-1.8-3.2-2.7&#10;&#9;&#9;&#9;&#9;c-1.4-1.2-2.7-2.3-4-3.5l-0.4-0.4l-0.2-0.5c0-0.1-2.1-6.3-3.3-9.4c0.2,1,0.4,2.2,0.6,2.9c0.4,1.6,0.6,3-0.9,3.7&#10;&#9;&#9;&#9;&#9;c-1.4,0.6-1.8,0.1-4-2.4c-1.2-1.4-4.2-4.7-5.7-6.2c-2.2,1.9-6.3,7.5-6,9C304.2,200.2,306.3,203.4,311.1,209z M332.6,210.2&#10;&#9;&#9;&#9;&#9;L332.6,210.2z"/>
			<path class="st2_team-building-32" d="M404.6,228.6c0,0,52.4-12.5,52.4-33.7v-20.7c0,0-9.7-5.5-12.6-14.3c0,0-18.4,7-29.1,7&#10;&#9;&#9;&#9;&#9;c-21-0.1-35.4-7.6-35.4-7.6v35.7C380,216.1,383.3,228.6,404.6,228.6z"/>
			<path class="st1_team-building-32" d="M404.8,230.1h-0.2c-24.1,0-26.1-16.7-26.1-35.2v-38.1l2.2,1.1c0.1,0.1,14.4,7.4,34.7,7.4h0&#10;&#9;&#9;&#9;&#9;c10.3,0,28.3-6.8,28.5-6.9l1.5-0.6l0.5,1.5c2.7,8.1,11.8,13.4,11.9,13.4l0.8,0.4v21.6c0,22.2-51.4,34.7-53.5,35.2L404.8,230.1z&#10;&#9;&#9;&#9;&#9; M381.5,161.6v33.3c0,27.1,7.7,32.2,23,32.2c8.8-2.2,17.5-5.2,25.8-8.8c11.5-5.1,25.3-13.3,25.3-23.5V175c-2.3-1.4-9-6.2-12-13.2&#10;&#9;&#9;&#9;&#9;c-4.6,1.6-18.9,6.5-28.1,6.5h-0.1C403.7,168.4,392.2,166.1,381.5,161.6L381.5,161.6z"/>
			<path class="st1_team-building-32" d="M426,199.1c-0.8,0-1.5-0.7-1.5-1.5c0-0.6,0.4-1.1,0.9-1.4c0,0,0.1-0.1,0.1-0.2c0.6-1.1,0.8-2.3,0.6-3.6&#10;&#9;&#9;&#9;&#9;c-0.1-0.8,0.5-1.6,1.3-1.6c0.8-0.1,1.6,0.5,1.7,1.3c0.2,1.8-0.2,3.6-1,5.2c-0.3,0.8-1,1.4-1.8,1.7&#10;&#9;&#9;&#9;&#9;C426.3,199,426.1,199.1,426,199.1z"/>
			<circle class="st1_team-building-32" cx="393.2" cy="179.2" r="3.6"/>
			<path class="st1_team-building-32" d="M383.9,198c1.2,0,2.4-0.1,3.5-0.3c0.9-0.2,1.4-1,1.3-1.8c-0.2-0.9-1-1.4-1.8-1.3c-1.6,0.3-3.2,0.3-4.8,0.1&#10;&#9;&#9;&#9;&#9;c0.1-1.3,1.3-4.7,3-7.8c0.4-0.8,0.1-1.7-0.7-2.1c-0.8-0.4-1.7-0.1-2.1,0.7l0,0c-1.6,3-4.1,8.5-3,10.9c0.3,0.7,0.9,1.2,1.6,1.4&#10;&#9;&#9;&#9;&#9;C381.9,197.9,382.9,198,383.9,198z"/>
			<path class="st7_team-building-32" d="M341.5,232.2c-7.2-4.7-14-10-20.2-15.9c2.2-4.7,5.1-9.1,8.6-12.9c13.7,10.3,29.2,17.8,45.2,23.9&#10;&#9;&#9;&#9;&#9;c8,3.1,16.2,5.8,24.4,8.3c7.9,2.4,15.5,1.4,23.7,1.3c4.8-0.1,12.7,0.7,16.6,3.7c6,4.7,9,12.8,9.6,20.2c0.6,7.5-0.7,15.1-1,22.7&#10;&#9;&#9;&#9;&#9;c-0.2,5.5,2.7,25.9-3.7,27.6c-3.8,1-9.2,0-13,0h-43.6l-0.1-22.4c0-3.6,0-7.2,0-10.8c0-3.3-0.3-6.5-0.5-9.8c0-1.5-0.3-2.9-0.6-4.4&#10;&#9;&#9;&#9;&#9;c-1-3.3-4.7-5.8-7.4-7.7C367.1,247.4,353.9,240.4,341.5,232.2z"/>
			<path class="st1_team-building-32" d="M440.4,313.5c-1.6,0-3.3-0.1-4.9-0.2s-2.8-0.2-3.9-0.2h-45.6l-0.1-35.2c0-2.6-0.2-5.2-0.4-8l-0.1-1.7&#10;&#9;&#9;&#9;&#9;c0-1.3-0.2-2.6-0.6-3.9c-0.8-2.5-4-4.8-6.4-6.5l-0.2-0.1c-6.6-4.6-13.7-8.9-20.6-13c-5.6-3.4-11.5-6.9-17.1-10.6l0,0&#10;&#9;&#9;&#9;&#9;c-7.3-4.7-14.2-10.1-20.5-16.1l-1-1l0.6-1.3c2.3-4.9,5.3-9.4,9-13.4l1.2-1.3l1.5,1.1c12,9,26.6,16.7,44.7,23.6&#10;&#9;&#9;&#9;&#9;c7.1,2.7,14.8,5.3,24.3,8.3c5.9,1.8,11.7,1.6,17.9,1.4c1.7-0.1,3.4-0.1,5.1-0.2c2.1,0,12.6,0,17.8,4.1&#10;&#9;&#9;&#9;&#9;c5.7,4.5,9.6,12.6,10.3,21.6c0.3,5.1,0.1,10.1-0.4,15.2c-0.2,2.5-0.4,5.2-0.5,7.8c0,1.1,0.1,3,0.2,5.2c0.5,9.5,1.2,22.5-5.4,24.3&#10;&#9;&#9;&#9;&#9;C443.6,313.3,442,313.5,440.4,313.5z M389.9,309h41.6c1.3,0,2.7,0.1,4.2,0.2c2.8,0.2,6.1,0.4,8.3-0.2c3.5-0.9,2.7-14.9,2.4-20.2&#10;&#9;&#9;&#9;&#9;c-0.1-2.4-0.2-4.2-0.2-5.5c0.1-2.7,0.3-5.4,0.5-8c0.5-4.8,0.7-9.7,0.4-14.5c-0.6-7.9-3.9-14.9-8.8-18.8c-3-2.4-9.9-3.4-15.3-3.3&#10;&#9;&#9;&#9;&#9;c-1.7,0-3.4,0.1-5,0.2c-6.5,0.3-12.7,0.5-19.3-1.5c-9.6-3-17.4-5.6-24.5-8.4c-17.7-6.8-32.2-14.3-44.2-23c-2.5,3-4.7,6.3-6.5,9.8&#10;&#9;&#9;&#9;&#9;c5.9,5.4,12.2,10.3,18.9,14.6l0,0c5.5,3.7,11.3,7.2,16.9,10.6c6.9,4.2,14.1,8.5,20.8,13.2l0.2,0.1c2.9,2,6.8,4.7,8,8.6&#10;&#9;&#9;&#9;&#9;c0.4,1.6,0.6,3.2,0.7,4.8l0.1,1.7c0.2,2.7,0.4,5.5,0.4,8.3L389.9,309z"/>
		</g>
		<path class="st1_team-building-32" d="M389.9,209c-1,0.3-2,0.2-2.9-0.2c-0.4-0.2-0.7-0.6-0.8-1c-0.1-0.4,0-0.8,0.2-1.2c0.8-1.4,2.9-0.9,4.4-1.3&#10;&#9;&#9;&#9;c1.4-0.3,2.7-0.8,4-1.4c1.3-0.6,2.6-1.5,3.7-2.4c0.7-0.6,1.8-0.6,2.5,0.1c0.6,0.7,0.6,1.8-0.1,2.5&#10;&#9;&#9;&#9;C397.7,206.7,393.9,208.4,389.9,209z"/>
	</g>
	<path class="st5_team-building-32" d="M422.7,177c0.9-0.1,1.8,0.1,2.6,0.5c0.7,0.6,1.1,1.5,1.2,2.5c0.5,2.6,0.5,5.2,0.1,7.8c1.6-2,3-4.2,4.1-6.6&#10;&#9;&#9;c2.6,14.9-3,31.2,3.5,44.8c1.7,3.4,3.8,6.5,6.2,9.4c1,1.5,2.2,2.7,3.7,3.7c1.4,0.7,2.9,1.1,4.5,1.1c3.5,0.4,6.9,0.6,10.4,0.5&#10;&#9;&#9;c3.1,0,6.4-0.3,9.2-1.7s4.8-3.7,6.8-6c1.5-1.5,2.7-3.2,3.6-5.2c2-5-1.8-11.4-7.1-12.1c-7.4-1.1-6.9-10.7-6.5-16.4&#10;&#9;&#9;c1.3-16.3,1.9-33.8-6.6-47.8c-5.6-9.1-14.6-15.8-24.6-19.8s-20.8-5.2-31.5-5c-5.8-0.1-11.5,0.7-17.1,2.4c-3.2,1-6.1,2.7-8.5,5&#10;&#9;&#9;c-1.9,2.1-3.3,4.5-4.3,7.1c-2.4,5.6-4,11.8-3.2,17.9s4.5,12,10.2,14.3l2.2-8.9c0.2-0.8,0.6-1.7,1.4-1.8c0.5,0,0.9,0.3,1.3,0.6&#10;&#9;&#9;c5.1,4.2,10.8,7.6,16.9,10C408.2,176,415.4,177.2,422.7,177z"/>
	<path class="st1_team-building-32" d="M458.2,242.2c-3.2,0-6.4-0.2-9.6-0.5c-1.7-0.1-3.4-0.6-5-1.3c-1.7-1.1-3.1-2.5-4.2-4.1c-2.4-3-4.6-6.3-6.3-9.7&#10;&#9;&#9;c-4-8.5-3.6-17.9-3.2-27c0.3-4.6,0.3-9.1,0.1-13.7c-0.6,1-1.3,1.9-2,2.8c-0.4,0.5-1.2,0.7-1.8,0.4c-0.6-0.3-1-0.9-0.9-1.6&#10;&#9;&#9;c0.3-2.4,0.3-4.9-0.1-7.3c0-0.6-0.2-1.1-0.6-1.5c-0.5-0.2-1.1-0.3-1.7-0.2l0,0c-7.5,0.2-14.9-1-21.9-3.7c-6.3-2.5-12.1-6-17.4-10.3&#10;&#9;&#9;l-0.1-0.1c0,0.1-0.1,0.3-0.1,0.4l-2.2,8.9c-0.1,0.4-0.4,0.8-0.8,1c-0.4,0.2-0.8,0.2-1.2,0.1c-5.8-2.4-10.1-8.4-11.1-15.5&#10;&#9;&#9;c-0.8-5.6,0.3-11.8,3.3-18.7c1.1-2.8,2.7-5.3,4.6-7.5c2.6-2.5,5.7-4.4,9.1-5.4c6.2-2.1,12.6-2.4,17.5-2.5&#10;&#9;&#9;c12.4-0.2,22.9,1.5,32.1,5.1c10.9,4.3,19.9,11.5,25.3,20.4c8.6,14.3,8.1,31.9,6.8,48.7c-0.5,6.9-0.3,14.1,5.2,14.8&#10;&#9;&#9;c5.9,1.1,9.8,6.8,8.7,12.7c-0.1,0.5-0.2,1-0.4,1.5c-0.9,2.1-2.3,4-3.9,5.6c-2,2.2-4.3,4.8-7.3,6.3s-6.6,1.8-9.9,1.8L458.2,242.2z&#10;&#9;&#9; M430.8,179.6h0.2c0.6,0.1,1.2,0.6,1.3,1.2c1.1,6.2,0.8,12.6,0.5,18.8c-0.4,9.2-0.8,17.8,2.9,25.6c1.7,3.3,3.7,6.3,6,9.2&#10;&#9;&#9;c0.8,1.3,1.9,2.4,3.2,3.3c1.2,0.6,2.5,0.9,3.9,1c3.4,0.4,6.8,0.5,10.2,0.5c2.9,0,6-0.2,8.6-1.5s4.5-3.5,6.4-5.6&#10;&#9;&#9;c1.4-1.4,2.5-3,3.3-4.7c1.3-4.2-1-8.6-5.2-9.9c-0.2-0.1-0.5-0.1-0.8-0.2c-9.1-1.3-8.2-13-7.8-18c1.2-16.4,1.8-33.4-6.4-46.9&#10;&#9;&#9;c-5-8.3-13.5-15.1-23.8-19.1c-8.8-3.5-18.9-5.1-30.9-4.9c-4.7,0.1-10.8,0.4-16.6,2.3c-3,0.9-5.7,2.5-7.9,4.6c-1.7,2-3.1,4.2-4,6.6&#10;&#9;&#9;c-2.8,6.4-3.8,12-3.1,17.1c0.7,5.4,3.7,10,7.7,12.4l1.8-7.1c0.6-2.3,1.8-2.8,2.7-2.9c0.9,0,1.7,0.3,2.3,0.9&#10;&#9;&#9;c4.9,4.1,10.5,7.4,16.5,9.8c6.6,2.5,13.7,3.7,20.8,3.5l0,0c1.2-0.1,2.5,0.1,3.6,0.8c1,0.9,1.6,2.1,1.8,3.4c0.2,1,0.3,1.9,0.3,2.9&#10;&#9;&#9;c0.4-0.7,0.8-1.4,1.1-2.1C429.7,180,430.2,179.7,430.8,179.6z"/>
	<polygon class="st1_team-building-32" points="385.9,313 380,393.7 465.6,391.1 445.1,313 &#9;"/>
</g>
</svg>