<svg id="_0508_team_work_1" xmlns="http://www.w3.org/2000/svg" xmlns:xlink="http://www.w3.org/1999/xlink" viewBox="0 0 500 500" data-imageid="team-work-1-87" imageName="Team Work 1" class="illustrations_image" style="width: 166px;"><defs><style>.cls-1_team-work-1-87{opacity:.44;}.cls-1_team-work-1-87,.cls-2_team-work-1-87,.cls-3_team-work-1-87,.cls-4_team-work-1-87,.cls-5_team-work-1-87,.cls-6_team-work-1-87,.cls-7_team-work-1-87,.cls-8_team-work-1-87,.cls-9_team-work-1-87,.cls-10_team-work-1-87,.cls-11_team-work-1-87,.cls-12_team-work-1-87,.cls-13_team-work-1-87,.cls-14_team-work-1-87,.cls-15_team-work-1-87,.cls-16_team-work-1-87{stroke-width:0px;}.cls-1_team-work-1-87,.cls-4_team-work-1-87,.cls-5_team-work-1-87,.cls-15_team-work-1-87,.cls-16_team-work-1-87{fill:#68e1fd;}.cls-1_team-work-1-87,.cls-4_team-work-1-87,.cls-5_team-work-1-87,.cls-16_team-work-1-87{isolation:isolate;}.cls-2_team-work-1-87{fill:none;}.cls-3_team-work-1-87{fill:url(#linear-gradient);}.cls-4_team-work-1-87{opacity:.18;}.cls-5_team-work-1-87{opacity:.16;}.cls-6_team-work-1-87{fill:url(#linear-gradient-4-team-work-1-87);}.cls-7_team-work-1-87{fill:url(#linear-gradient-2-team-work-1-87);}.cls-8_team-work-1-87{fill:url(#linear-gradient-3-team-work-1-87);}.cls-9_team-work-1-87{fill:url(#linear-gradient-5-team-work-1-87);}.cls-10_team-work-1-87{fill:url(#linear-gradient-6-team-work-1-87);}.cls-11_team-work-1-87{fill:#231f20;}.cls-12_team-work-1-87{fill:#c14834;}.cls-13_team-work-1-87{fill:#fff;}.cls-14_team-work-1-87{fill:#ffaa71;}.cls-16_team-work-1-87{opacity:.5;}</style><linearGradient id="linear-gradient-team-work-1-87" x1="764.53" y1="1905.89" x2="776.65" y2="1742.51" gradientTransform="translate(1024.48 2171.8) rotate(-180)" gradientUnits="userSpaceOnUse"><stop offset="0" stop-color="#231f20"/><stop offset=".08" stop-color="#231f20" stop-opacity=".69"/><stop offset=".21" stop-color="#231f20" stop-opacity=".32"/><stop offset="1" stop-color="#231f20" stop-opacity="0"/></linearGradient><linearGradient id="linear-gradient-2-team-work-1-87" x1="686.2" y1="1894.48" x2="605.35" y2="1904.9" gradientTransform="translate(1024.48 2171.8) rotate(-180)" xlink:href="#linear-gradient-team-work-1-87"/><linearGradient id="linear-gradient-3-team-work-1-87" x1="610.75" y1="1885.76" x2="803" y2="1919.1" gradientTransform="translate(1024.48 2171.8) rotate(-180)" xlink:href="#linear-gradient-team-work-1-87"/><linearGradient id="linear-gradient-4-team-work-1-87" x1="660.87" y1="1835.43" x2="728.38" y2="1848.97" gradientTransform="translate(1024.48 2171.8) rotate(-180)" xlink:href="#linear-gradient-team-work-1-87"/><linearGradient id="linear-gradient-5-team-work-1-87" x1="674.12" y1="1908.84" x2="708.71" y2="1944.68" gradientTransform="translate(1024.48 2171.8) rotate(-180)" xlink:href="#linear-gradient-team-work-1-87"/><linearGradient id="linear-gradient-6-team-work-1-87" x1="645.07" y1="1890.72" x2="721.54" y2="1899.68" gradientTransform="translate(1024.48 2171.8) rotate(-180)" xlink:href="#linear-gradient-team-work-1-87"/></defs><g id="background_team-work-1-87"><path class="cls-4_team-work-1-87 targetColor" d="M170.45,57.35c-26.62,14.3-46.03,40.44-54.67,69.39-5.11,17.15-6.7,35.22-12.53,52.15-16.58,48.13-64.38,79.44-84.74,126.07-11.37,25.97-13.33,56.24-3.77,82.92,9.55,26.68,30.92,49.24,57.65,58.66,16.38,5.77,33.99,6.63,51.35,7.19,32.49,1.04,65.24,1.15,97.24-4.62,15.23-2.75,30.25-6.83,45.63-8.6,29.75-3.44,60.13,1.79,89.69-3.01,20.58-3.34,40.1-11.47,58.74-20.8,14-7.02,27.76-14.87,39.32-25.45,30.54-28.01,41.85-73.43,33.65-114.05-8.2-40.62-33.99-76.3-66.45-102.06-14.27-11.33-29.81-20.92-44.77-31.32-19.28-13.39-37.59-28.12-54.8-44.08-41.18-38.19-94.29-73.12-151.53-42.4Z" style="fill: rgb(104, 225, 253);"/><path class="cls-1_team-work-1-87 targetColor" d="M142.14,364.77l-27.93,3.88c-1.33.18-2.74.41-3.76,1.27-1.64,1.39-1.64,4-.63,5.88s2.8,3.18,4.53,4.43c-6.63,1.58-18.16,1.23-17.82,10.69.18,3.55,2.37,6.69,5.65,8.08,1.96.79,4.13.88,6.24.95,20.65.74,41.64,1.43,61.64-3.75,3.81-.99,8.33-3.15,8.33-7.08,0-1.4-.61-2.73-.68-4.13-.44-8.93,18.65-3.69,23.57-3.4,10.92.64,21.84,1.09,32.76,1.37,22.31.59,44.64.56,66.94.25,7.05-.1,14.15-.26,21.1.89,5.49.9,10.81,2.6,16.2,3.97,17.74,4.5,36.19,5.45,54.3,2.79,8.19-1.23,18.29-5.62,17.76-13.9-.45-7.1-8.53-10.79-15.4-12.63-10.18-2.73-20.52-4.79-30.97-6.14-18.43-2.39-37.08-2.61-55.7-2.76-40.41-.32-80.81-.35-121.22-.37-13.56,0-31.45,7.84-44.91,9.71Z" style="fill: rgb(104, 225, 253);"/></g><g id="monitor_team-work-1-87"><polygon class="cls-15_team-work-1-87 targetColor" points="197.07 353.46 309.84 353.46 289.89 281.74 213.9 281.74 197.07 353.46" style="fill: rgb(104, 225, 253);"/><polygon class="cls-3_team-work-1-87" points="197.07 353.46 309.84 353.46 289.89 281.74 213.9 281.74 197.07 353.46"/><path class="cls-15_team-work-1-87 targetColor" d="M422.37,90.1v184.93c0,11.18-9.06,20.24-20.24,20.24H109.9c-11.18,0-20.24-9.06-20.24-20.24h0V90.1c0-11.18,9.07-20.24,20.24-20.24h292.23c11.18,0,20.24,9.06,20.24,20.24Z" style="fill: rgb(104, 225, 253);"/><path class="cls-11_team-work-1-87" d="M422.37,90.1v162.18H89.66V90.1c0-11.18,9.07-20.24,20.24-20.24h292.23c11.18,0,20.24,9.06,20.24,20.24Z"/><path class="cls-13_team-work-1-87" d="M417.36,93.98v152.89H94.68V93.98c0-10.72,8.79-19.42,19.63-19.42h283.43c10.83-.02,19.62,8.68,19.62,19.42Z"/><path class="cls-4_team-work-1-87 targetColor" d="M417.36,93.98v152.89H94.68V93.98c0-10.72,8.79-19.42,19.63-19.42h283.43c10.83-.02,19.62,8.68,19.62,19.42Z" style="fill: rgb(104, 225, 253);"/><path class="cls-15_team-work-1-87 targetColor" d="M319.87,145.02c0-3.68.78-7.31,2.32-10.65l-15.88-8.65c-10.65,21.59-1.79,47.73,19.81,58.39,2.75,1.36,5.64,2.42,8.61,3.17l3.21-17.83c-10.74-3.29-18.07-13.21-18.08-24.44Z" style="fill: rgb(104, 225, 253);"/><path class="cls-16_team-work-1-87 targetColor" d="M382.85,167.43c-9.9,16.51-29.45,24.58-48.12,19.86l3.21-17.84c2.43.75,4.96,1.13,7.5,1.13,8.72,0,16.84-4.45,21.54-11.8l15.86,8.65Z" style="fill: rgb(104, 225, 253);"/><path class="cls-13_team-work-1-87" d="M389.05,145.02c.01,7.9-2.13,15.64-6.2,22.41l-15.88-8.65c7.6-11.89,4.13-27.7-7.76-35.3-11.89-7.6-27.7-4.13-35.3,7.76-.64,1-1.21,2.05-1.71,3.14l-15.88-8.65c10.66-21.6,36.82-30.47,58.42-19.81,14.88,7.34,24.3,22.5,24.31,39.09h0Z"/><line class="cls-2_team-work-1-87" x1="366.97" y1="158.79" x2="322.2" y2="134.38"/></g><g id="character_2_team-work-1-87"><path class="cls-7_team-work-1-87" d="M380.04,281.96c-3.15-10.43-6.74-20.71-10.78-30.84-.12-.45-.39-.85-.77-1.12-.43-.19-.91-.23-1.36-.11l-8.78,1.25c.16,4.95,2.41,9.54,4.33,14.1,3.41,8.08,5.9,16.52,7.43,25.16.09.87.36,1.7.79,2.46.82,1.18,2.31,1.64,3.69,1.92,4.3.9,7.11,2.21,7.83-2.16.53-3.12-1.47-7.72-2.38-10.66Z"/><path class="cls-8_team-work-1-87" d="M338.9,284.67l-9.42-.11c-.66,0-1.38,0-1.86.45s-.56,1.03-.91,1.51c-.76,1.05-2.31,1.05-3.6.91-4.53-.48-9-1.34-13.39-2.56l1.68-11.51c8.01,1.79,16.21,2.6,24.42,2.42l.43-13.86-12.45-.11c-.53.05-1.06-.07-1.52-.34-.58-.44-.67-1.27-.68-1.99-.03-1.69.07-3.39.29-5.07,0-.4.16-.78.45-1.06.35-.2.77-.26,1.17-.15,9.49,1.25,19.07,1.6,28.62,1.04.53,14.15,3.11,28.15,7.65,41.56-5.07-.55-11.06.32-15.97-.79-2.33-.52-2.22-.78-2.97-3.28-.18-.64-1.63-7.06-1.95-7.06Z"/><rect class="cls-4_team-work-1-87 targetColor" x="122.58" y="94.58" width="106.28" height="97.63" style="fill: rgb(104, 225, 253);"/><path class="cls-13_team-work-1-87" d="M340.7,381.83c-5.84.34-12.09.58-17.07-2.46-.36-.19-.66-.46-.88-.79-.26-.54-.2-1.18.16-1.67.35-.48.82-.86,1.35-1.11,1.82-.99,3.89-1.36,5.93-1.71,2.51-.44,5.03-.88,7.57-1.13,1.64-.16,4.4-.82,5.73.5,1.04,1.04.82,2.87.65,4.2-.34,2.36-.8,4.03-3.44,4.18Z"/><path class="cls-13_team-work-1-87" d="M379.36,375.24c-4.6,3.6-9.6,7.37-15.44,7.7-.4.05-.8,0-1.18-.15-.52-.3-.83-.86-.82-1.46.02-.59.18-1.17.48-1.68.93-1.84,2.43-3.33,3.9-4.79,1.82-1.79,3.64-3.59,5.58-5.24,1.23-1.06,3.15-3.18,4.98-2.87,1.45.26,2.32,1.91,2.92,3.09,1.08,2.14,1.65,3.77-.43,5.4Z"/><path class="cls-11_team-work-1-87" d="M333.75,368.62c.02,1.94.05,3.88.09,5.81,3.52.44,7.07.54,10.6.29.57.11,1.11-.26,1.22-.83.02-.11.02-.23,0-.34.75-9.61-.48-19.31.64-28.89.17-2,.63-3.97,1.37-5.84.82-1.88,2.05-3.52,3.28-5.18,3.69-5.09,6.98-10.46,9.83-16.07,2.95-5.77,3.73-11.75,3.64-18.29-.08-6.3-3.3-9.03-9.46-7.4-1.8.23-3.34,1.39-4.05,3.05-3.58,6.11-7.17,12.25-9.86,18.8-7.07,17.2-7.55,36.22-7.32,54.89Z"/><path class="cls-6_team-work-1-87" d="M333.75,368.62c.02,1.94.05,3.88.09,5.81,3.52.44,7.07.54,10.6.29.57.11,1.11-.26,1.22-.83.02-.11.02-.23,0-.34.75-9.61-.48-19.31.64-28.89.17-2,.63-3.97,1.37-5.84.82-1.88,2.05-3.52,3.28-5.18,3.69-5.09,6.98-10.46,9.83-16.07,2.95-5.77,3.73-11.75,3.64-18.29-.08-6.3-3.3-9.03-9.46-7.4-1.8.23-3.34,1.39-4.05,3.05-3.58,6.11-7.17,12.25-9.86,18.8-7.07,17.2-7.55,36.22-7.32,54.89Z"/><path class="cls-14_team-work-1-87" d="M330.4,257.57c-12.53-3.5-23.29-11.57-30.17-22.6-1.08-1.75-2.08-3.89-1.3-5.8.07-.24.24-.44.45-.57.35-.16.75.06,1.08.27l16.26,10.65c4.5,2.94,9.12,5.94,14.33,7.24.57,1.85,1.57,3.07,1.64,5s-1,4.37-2.29,5.81Z"/><rect class="cls-13_team-work-1-87" x="133.78" y="130.98" width="190.66" height="153.63"/><path class="cls-5_team-work-1-87 targetColor" d="M297.55,281.55c.82.66,1.9.91,2.94,1.12,6.98,1.39,14.12,1.85,21.22,1.37.69-.05,1.43-.12,1.96-.56.64-.53.82-1.43.88-2.26.19-2.18.04-4.37-.44-6.5-.06-.27-17.24-.25-18.88,0-2.44.37-11.75,3.56-7.69,6.84Z" style="fill: rgb(104, 225, 253);"/><path class="cls-5_team-work-1-87 targetColor" d="M149.65,220.85c.27,1.37.29,2.78.07,4.17-.41,1.97-1.67,3.64-2.84,5.28-5.24,7.29-9.34,15.34-12.17,23.86-1.27-4.62-1.23-9.47-1.2-14.26-.05-1.69.09-3.38.39-5.04.5-2.31,1.64-4.41,2.64-6.55,1.54-3.35,2.69-6.86,3.45-10.46.53-2.54,1.44-8.99,5.44-8.56,3.37.36,3.85,9.01,4.22,11.57Z" style="fill: rgb(104, 225, 253);"/><path class="cls-11_team-work-1-87" d="M376.42,304.49c-1.46,6.08-3.78,11.91-6.47,17.54-2.27,4.76-7.52,10.88-7.49,16.28.04,9.69,10.24,22.66,16.49,29.31-3.31,2.19-6.85,4.01-10.55,5.44-.82.32-1.73.62-2.58.37-1.02-.3-1.64-1.3-2.17-2.22l-6.83-11.88c-3.8-6.61-7.72-13.55-8.03-21.17-.11-2.76.25-5.5.56-8.24.73-5.83.07-12.44,1.47-18.11,1.28-5.17,2.96-10.3,4.17-15.56.61-2.63,1.36-5.5,3.54-7.09.93-.63,1.98-1.09,3.07-1.35,5.32-1.49,11.08-1.69,14,3.83,2.01,3.83,1.81,8.74.83,12.84Z"/><path class="cls-15_team-work-1-87 targetColor" d="M328.82,247.25c-2.9,1.05-.19,7.82.59,9.83.14.49.43.92.84,1.23.45.21.96.27,1.45.17,4.37-.41,8.71-.92,13.03-1.55.97-.08,1.91-.35,2.76-.82,1.03-.73,1.72-1.85,1.92-3.1.41-2.05.6-6.9-1.16-8.45-1.28-1.12-3.82-.33-5.49-.16-4.72.5-9.46,1.21-13.93,2.84Z" style="fill: rgb(104, 225, 253);"/><path class="cls-9_team-work-1-87" d="M328.82,247.25c-2.9,1.05-.19,7.82.59,9.83.14.49.43.92.84,1.23.45.21.96.27,1.45.17,4.37-.41,8.71-.92,13.03-1.55.97-.08,1.91-.35,2.76-.82,1.03-.73,1.72-1.85,1.92-3.1.41-2.05.6-6.9-1.16-8.45-1.28-1.12-3.82-.33-5.49-.16-4.72.5-9.46,1.21-13.93,2.84Z"/><path class="cls-14_team-work-1-87" d="M337.27,222.26c-.52.86-1.56,1.36-1.9,2.31-.41,1.14.38,2.31.79,3.45.57,1.59.41,3.37.94,4.96.1.35.29.66.56.9.25.17.54.28.84.33,1.18.25,2.39.32,3.6.21.24-.05.48-.02.7.09.17.16.28.38.31.61.69,3.02.64,6.15-.14,9.15-.26.99-.54,2.19.18,2.9.26.23.58.39.93.47,2.28.55,4.47-1.13,6.01-2.9,1.37-1.58,2.56-3.32,3.53-5.18.3-.51.5-1.08.61-1.66.04-.76-.07-1.53-.32-2.25-.65-2.49-1.04-5.04-1.18-7.61-.17-3.28.07-6.71-1.19-9.76-.37-1.05-1.07-1.95-1.99-2.56-1.04-.61-2.33-.61-3.54-.57-2.4.09-5.02.41-6.65,2.17-.47.51-1.45,3.89-2.09,4.96Z"/><path class="cls-11_team-work-1-87" d="M338.26,214.44c-.97-.18-1.71,1.13-1.33,2.05s1.41,1.38,2.39,1.55,1.99.13,2.94.43,1.85,1.1,1.82,2.09c1.06-.29,2.15.6,2.46,1.64.31,1.04.11,2.17-.11,3.25.3.32.86.1,1.15-.23s.47-.79.85-1c.82-.48,1.84.59,1.73,1.54s-.88,1.67-1.56,2.33c-.17.14-.31.32-.41.52-.29.79.77,1.36,1.6,1.54-.06.62.02,1.24.21,1.83.21.6.77,1.01,1.4,1.03.55-.03,1-.45,1.5-.66s1.29-.08,1.34.48c.86-1.79-.05-3.45.32-5.14.34-1.55,1.7-.97,2.64-2.02.52-.58.48-1.45.72-2.19.31-.95,1.09-1.7,1.31-2.67.36-1.64-1-3.12-2.25-4.25.27-.62.1-1.35-.41-1.79-.51-.42-1.13-.69-1.79-.78-.18-.02-.34-.08-.48-.19-.21-.2-.17-.55-.14-.84.41-4.98-7.72-3.6-10.72-3.34-1.24.11-2.44.51-3.49,1.18-.29.24-2.77,3.47-1.66,3.67Z"/><path class="cls-15_team-work-1-87 targetColor" d="M354.04,238.14l-.2.05c-4.35,1.09-10.69,5.05-12.11,9.46-1.79,5.54-2.96,12.98-1.67,18.7.9,3.98,3.31,7.45,4.32,11.32,1.13,4.3,1.31,8.5,3.06,12.7.77,1.85,1.77,3.73,3.49,4.75,1.43.84,3.15.96,4.8,1.05,4.87.26,11.72,1.91,15.76-1.44,3.12-2.56,4.35-6.87,4.13-10.89-.21-4.02-1.68-7.86-3.12-11.63l-6.78-17.69c-1.63-4.25-5.6-17.58-11.68-16.38Z" style="fill: rgb(104, 225, 253);"/><path class="cls-10_team-work-1-87" d="M357.61,281.65c-.77,1.04-.96,2.4-.51,3.62.7,2.88.99,5.84.88,8.79.04.53-.12,1.05-.46,1.46-.38.28-.85.43-1.33.41-1.7.13-3.5.25-5.03-.5-1.81-.89-2.87-2.81-3.69-4.66-2.33-5.3-3.64-10.98-4.91-16.62-.27-.91-.36-1.87-.26-2.81.25-1.42,1.34-2.56,2.54-3.37s2.53-1.41,3.69-2.29c2.24-1.72,3.9-4.84,6.96-5.24,2.31-.3,3.99,1.32,4.74,3.37,1.93,5.39-.17,12.98-2.63,17.85Z"/><path class="cls-15_team-work-1-87 targetColor" d="M350.24,251.05s-6.21,16.81-7.44,18.04,11.94,8.67,11.94,8.67c0,0,8.6-16.35,8.19-23.43-.41-7.09-7.85-9.95-12.7-3.27Z" style="fill: rgb(104, 225, 253);"/><path class="cls-14_team-work-1-87" d="M354.74,275.47s-.45,5.41-7.1,5.32l-11.23-.16c-5.17-.07-10.35-.25-15.53-.21-1.39,0-2.35.65-3.69.96-4.85,1.08-9.92-.3-13.55-3.69-1.4-1.36-2.58-3.42-1.75-5.18.1-.25.28-.46.52-.59.21-.08.43-.1.65-.08,3.13.1,6.37.9,9.32-.16-.25-.4-.38-.85-.38-1.32.05-.46.47-.92.92-.82.24.09.45.24.6.44,1.54,1.71,3.79,2.59,6.07,2.4,8.51-.41,16.91-2.22,25.43-2.6,1.99-.09,4.05-.09,5.91.62s3.54,3.09,3.8,5.07Z"/><path class="cls-15_team-work-1-87 targetColor" d="M144.77,151.63h165.69v115.32h-165.69v-115.32ZM308.99,153.11h-162.75v112.36h162.73l.02-112.36Z" style="fill: rgb(104, 225, 253);"/><rect class="cls-15_team-work-1-87 targetColor" x="157.69" y="188.64" width="11.6" height="76.83" style="fill: rgb(104, 225, 253);"/><rect class="cls-15_team-work-1-87 targetColor" x="183.53" y="171.53" width="11.6" height="93.93" style="fill: rgb(104, 225, 253);"/><rect class="cls-15_team-work-1-87 targetColor" x="210.2" y="203.93" width="11.6" height="61.53" style="fill: rgb(104, 225, 253);"/><rect class="cls-15_team-work-1-87 targetColor" x="236.87" y="171.53" width="11.6" height="93.93" style="fill: rgb(104, 225, 253);"/><rect class="cls-15_team-work-1-87 targetColor" x="263.54" y="185.92" width="11.6" height="79.54" style="fill: rgb(104, 225, 253);"/><rect class="cls-15_team-work-1-87 targetColor" x="290.21" y="161.07" width="11.6" height="104.39" style="fill: rgb(104, 225, 253);"/></g><g id="character_1_team-work-1-87"><path class="cls-14_team-work-1-87" d="M153.44,382.17c.67.06,1.32.23,1.93.5.62.29,1.02.91,1.02,1.59-.12.65-.56,1.21-1.17,1.46-.59.29-1.23.44-1.81.75-.5.34-1.03.63-1.58.88-.93.29-1.92-.07-2.83-.41-4.14-1.46-8.5-2.19-12.89-2.13-.43.03-.85,0-1.27-.09-1.23-.32-1.97-1.64-2.33-2.87-.76-2.67-.41-5.53.08-8.27.03-.31.14-.6.31-.86.19-.2.43-.35.69-.43,4.32-1.61,6.14,2.67,8.97,4.96,3.13,2.56,6.88,4.26,10.87,4.92Z"/><path class="cls-15_team-work-1-87 targetColor" d="M139.15,382.29c.28.05.57.08.85.11,1.93.21,3.87.26,5.81.16.37.01.74-.07,1.06-.25.42-.34.66-.86.64-1.4-.02-.53.02-1.07.11-1.59.02-.21.2-.37.42-.35.01,0,.02,0,.03,0,1.49-.05,2.92.54,4.26,1.19,2.59,1.25,5.15,2.87,6.59,5.36.14.2.22.44.23.69-.02.22-.1.42-.23.6-1.74,2.72-6.09,2.05-8.76,1.48-2.97-.63-5.82-1.75-8.82-2.22-3.28-.52-6.86-.29-9.71-2.03-.47-.25-.86-.62-1.15-1.07-.79-1.38.18-3.59,1.17-4.66.11-.13.25-.23.41-.27.21-.03.43.03.6.16,1.37.84,2.26,2.31,3.62,3.17.88.51,1.86.83,2.87.95Z" style="fill: rgb(104, 225, 253);"/><path class="cls-11_team-work-1-87" d="M109.66,272.08s-13.44,7.69-9.67,21.77c3.28,12.29,12.73,19.94,18.77,30.44,3.35,5.82,2.74,15.33,4.15,22.12,1.74,8.31,4.13,16.47,7.16,24.4.61,1.6,1.6,3.45,3.31,3.51.82.03,1.57-.38,2.38-.41s1.54.25,2.29.08c1.95-.45,1.94-3.21,1.5-5.17-2.13-9.43-3.42-19.03-3.84-28.69-.33-7.44,1.69-15.34-.41-22.55-1.68-5.73-14.82-32.85-14.82-32.85l-10.82-12.64Z"/><path class="cls-14_team-work-1-87" d="M125.15,389.59c.63.23,1.22.55,1.74.96.53.43.76,1.13.6,1.79-.27.61-.84,1.03-1.5,1.12-.64.14-1.3.12-1.94.27-.57.2-1.15.36-1.74.46-.97.05-1.84-.55-2.65-1.09-3.64-2.44-7.69-4.23-11.95-5.27-.43-.08-.84-.22-1.23-.41-1.13-.62-1.51-2.05-1.54-3.35-.07-2.78.97-5.46,2.13-7.99.1-.29.28-.55.52-.75.23-.15.5-.24.78-.25,4.59-.49,5.3,4.1,7.46,7.04,2.4,3.26,5.62,5.83,9.33,7.45Z"/><path class="cls-11_team-work-1-87" d="M111.33,281.57c-3.79.46-6.55,2.16-9.42,4.61-5.64,4.78-5.23,14.54-3.33,21.67,1,3.76,6.96,15.56,7.84,18.89,1.66,6.35-1.66,14.21-1.95,20.62-.38,8.48-.09,16.98.86,25.42.2,1.7.7,3.74,2.33,4.22.78.23,1.64,0,2.42.18s1.43.62,2.19.64c2.01.05,2.68-2.63,2.74-4.64.28-9.67,1.42-19.29,3.41-28.75,1.53-7.29,5.45-14.44,5.2-21.94-.2-6.14-.38-12.25-.57-18.37-.21-6.81.76-9.64-1.32-16.19-.24-.77-.57-5.63-1.22-6.11-.59-.35-1.27-.53-1.96-.52-2.02-.11-4.06-.07-6.07.14-.37.04-.78.08-1.15.13Z"/><path class="cls-14_team-work-1-87" d="M120.97,212.73c.51.86,1.56,1.36,1.9,2.31.41,1.14-.38,2.31-.79,3.45-.57,1.59-.38,3.37-.94,4.96-.1.35-.29.66-.57.9-.25.17-.54.28-.84.33-1.18.25-2.39.32-3.59.21-.24-.05-.49-.02-.7.09-.18.16-.29.37-.31.61-.69,3.02-.64,6.15.14,9.15.26.99.54,2.19-.18,2.9-.26.24-.58.4-.93.47-2.28.56-4.48-1.13-6.01-2.9-1.38-1.58-2.56-3.32-3.53-5.18-.3-.51-.5-1.08-.61-1.66-.04-.77.07-1.53.32-2.26.65-2.49,1.05-5.04,1.18-7.61.17-3.28-.07-6.71,1.2-9.76.37-1.05,1.07-1.95,1.99-2.56,1.05-.61,2.33-.61,3.55-.57,2.39.09,5.02.41,6.64,2.17.47.5,1.46,3.89,2.09,4.95Z"/><path class="cls-15_team-work-1-87 targetColor" d="M104.14,229.72c.13,0,.25.02.38.03,4.62.42,8.9,2.54,12.98,4.75,1.75.95,3.72,1.95,5.64,1.4.88-.25,1.64-.82,2.37-1.37,3.88-2.91,7.78-5.6,11.07-9.16.38-.41,5.48-5.98,5.26-6.15,1.28.93,2.41,2.05,3.34,3.33.33.4.55.88.63,1.39,0,.48-.13.96-.37,1.38-2.68,5.9-6.06,11.45-10.07,16.54-1.48,1.93-3.13,3.74-4.94,5.36-1.33,1.2-2.38,2.72-4.22,3.18-1.39.35-2.86.22-4.29.08,1.56,2.71,1.93,6.07.99,9.05-.8,2.52-2.46,4.72-3.04,7.29-.3,1.34,1.84,8.58,1.88,9.96.15,5.72,2.38,9.52,0,11.15-3.45,1.21-7.1,1.73-10.72,2.24-2.85.4-5.71.8-8.56,1.2-1.92.27-4.16.43-5.49-.97-.66-.7-.96-1.66-1.2-2.59-.74-2.9-1.11-5.87-1.45-8.84-.52-4.62-.94-9.25-1.26-13.88-.66-9.41-.9-19.04,1.86-28.06.75-2.45,1.86-5,4.05-6.33,1.53-.92,3.38-1.1,5.17-.98Z" style="fill: rgb(104, 225, 253);"/><path class="cls-12_team-work-1-87" d="M117.8,207.44c-.19,1.62-.97,3.12-2.18,4.21-1.16,1.09-2.61,1.84-3.81,2.87s-2.18,2.58-1.91,4.15c-.95-.32-2.18-.06-2.61.82-.26.61-.15,1.31.28,1.81.44.48,1.07.75,1.72.71-1.25.51-2.32,1.37-3.07,2.48-1.06,1.56-1.25,3.13-1.88,4.84-.41,1.09-1.31,1.92-1.9,2.93-1.03,1.77-1.02,3.93-1.27,5.96-.41,3.2-1.55,6.39-3.75,8.75s-5.51,3.8-8.69,3.28c-3.18-.52-6-3.28-6.18-6.48-1.38-.22-2.46-1.41-2.9-2.73-.45-1.32-.38-2.76-.23-4.15.16-1.5.44-3.03,1.23-4.31,1.43-2.27,4.16-3.28,6.55-4.5,1.07-.55,2.1-1.18,3.09-1.88.45-.28.83-.65,1.12-1.1.54-.96.18-2.15-.06-3.23-.38-1.74-.35-3.69.68-5.15.93-1.33,2.51-2.02,4.02-2.64l3.85-1.61c.33-.11.63-.29.87-.54.17-.24.29-.51.34-.79.5-1.87.73-3.83,1.52-5.6,1.64-3.73,5.57-4.91,9.32-4.26,3.17.61,6.19,2.58,5.87,6.16Z"/><path class="cls-15_team-work-1-87 targetColor" d="M110.82,387.22c.25.08.51.14.77.21,1.75.43,3.53.72,5.32.87.34.05.69.02,1.01-.1.43-.27.72-.72.77-1.23.05-.49.15-.98.29-1.45.03-.1.09-.18.18-.23.09-.04.18-.05.28-.03,1.37.14,2.61.87,3.76,1.64,2.22,1.47,4.37,3.28,5.39,5.73.1.21.15.43.13.66-.05.2-.15.38-.29.52-1.94,2.27-5.85,1.11-8.23.26-2.65-.95-5.13-2.34-7.82-3.15-2.96-.89-6.27-1.13-8.67-3.08-.4-.29-.71-.68-.92-1.13-.55-1.37.61-3.28,1.64-4.14.22-.25.61-.27.86-.05.03.02.05.05.07.08,1.15.94,1.78,2.41,2.93,3.36.75.59,1.62,1.02,2.54,1.25Z" style="fill: rgb(104, 225, 253);"/><path class="cls-14_team-work-1-87" d="M142.19,213.62c0-1.86.04-3.88,1.18-5.35l.84,3.47c1.02-3.28,2.6-6.35,4.66-9.09.26,1.93-.35,3.86-.96,5.73.89-1.8,1.9-3.53,3.02-5.19.7,1.98-1.09,3.96-1.32,6.05.7-1.06,1.58-1.98,2.61-2.73.31.59,0,1.3-.29,1.9l-1.87,3.67c.53-.55,1.13-1.03,1.78-1.43.58,1.42-.59,2.87-1.26,4.25-.5,1.02-.73,2.15-1.23,3.17-.91,1.91-2.6,3.35-4.63,3.94-.72-1.27-2.27-1.37-2.51-2.76-.3-1.76-.02-3.83-.03-5.62Z"/></g></svg>