<svg version="1.1" id="Layer_1" xmlns="http://www.w3.org/2000/svg" xmlns:xlink="http://www.w3.org/1999/xlink" x="0px" y="0px" viewBox="0 0 500 500" style="width: 166px;" xml:space="preserve" data-imageid="team-presentation-50" imageName="Team Presentation" class="illustrations_image">
<style type="text/css">
	.st0_team-presentation-50{fill:#FFFFFF;}
	.st1_team-presentation-50{fill:#093F68;}
	.st2_team-presentation-50{fill:#DFEAEF;}
	.st3_team-presentation-50{fill:#68E1FD;}
	.st4_team-presentation-50{fill:#F56132;}
	.st5_team-presentation-50{fill:#725858;}
	.st6_team-presentation-50{fill:#FFC9B0;}
	.st7_team-presentation-50{fill:#70CC40;}
	.st8_team-presentation-50{fill:#FFBC0E;}
</style>
<g id="board_team-presentation-50">
	<rect x="130.4" y="125.6" class="st0_team-presentation-50" width="342" height="218.3"/>
	<path class="st1_team-presentation-50" d="M472.5,345.9h-342c-1,0-1.9-0.8-1.9-1.9V125.6c0-1,0.8-1.9,1.9-1.9h342c1,0,1.9,0.8,1.9,1.9V344&#10;&#9;&#9;C474.3,345,473.5,345.9,472.5,345.9z M132.3,342.1h338.3V127.5H132.3L132.3,342.1z"/>
	<path class="st2_team-presentation-50" d="M301.4,322.8H154.6c-1,0-1.8-0.8-1.9-1.8V145.2c0-1,0.8-1.9,1.9-1.9h146.9c1,0,1.9,0.8,1.9,1.9V321&#10;&#9;&#9;C303.3,322,302.5,322.8,301.4,322.8z M156.4,319.1h143.1v-172H156.4V319.1z"/>
	<path class="st2_team-presentation-50" d="M386.3,258.2c-31.4,0-56.8-25.5-56.8-56.9c0-31.4,25.5-56.8,56.9-56.8c31.4,0,56.8,25.5,56.8,56.9&#10;&#9;&#9;c0,9.4-2.4,18.7-6.9,27C426.4,246.8,407.2,258.2,386.3,258.2z M386.3,148.1c-29.4,0-53.3,23.8-53.3,53.2&#10;&#9;&#9;c0,29.4,23.8,53.3,53.2,53.3c29.4,0,53.3-23.8,53.3-53.2c0-0.1,0-0.1,0-0.2C439.4,171.9,415.6,148.1,386.3,148.1L386.3,148.1z"/>
	<path class="st2_team-presentation-50" d="M434.7,229.4c-0.3,0-0.6-0.1-0.9-0.2l-48.4-26.3c-0.6-0.3-1-1-1-1.6v-55.1c0-1,0.8-1.9,1.9-1.9&#10;&#9;&#9;c31.5,0,57,25.6,56.9,57.1c0,9.4-2.4,18.7-6.8,27c-0.2,0.4-0.6,0.8-1.1,0.9C435.1,229.4,434.9,229.4,434.7,229.4z M388.2,200.1&#10;&#9;&#9;l45.8,24.9c13.1-26.4,2.3-58.3-24.1-71.4c-6.8-3.3-14.2-5.2-21.7-5.5V200.1z"/>
	<path class="st2_team-presentation-50" d="M432.8,322.1h-92.9c-1,0-1.9-0.8-1.9-1.9v-51.4c0.1-1,1-1.8,2-1.7c0.9,0.1,1.7,0.8,1.7,1.7v49.5h91.1&#10;&#9;&#9;c1,0,1.9,0.8,1.9,1.9C434.6,321.3,433.8,322.1,432.8,322.1C432.8,322.1,432.8,322.1,432.8,322.1L432.8,322.1z"/>
	<path class="st2_team-presentation-50" d="M365.6,322.1h-16.4c-1,0-1.9-0.8-1.9-1.9v-14.9c0-1,0.8-1.9,1.8-1.9c0,0,0,0,0,0h16.4c1,0,1.9,0.8,1.9,1.9&#10;&#9;&#9;v14.9C367.5,321.3,366.7,322.1,365.6,322.1z M351.1,318.4h12.7v-11.1h-12.7L351.1,318.4z"/>
	<path class="st2_team-presentation-50" d="M393.4,322.1H377c-1,0-1.9-0.8-1.9-1.9V277c0-1,0.8-1.9,1.9-1.9h16.4c1,0,1.9,0.8,1.9,1.9v43.2&#10;&#9;&#9;C395.3,321.2,394.5,322.1,393.4,322.1C393.4,322.1,393.4,322.1,393.4,322.1z M378.8,318.4h12.7v-39.5h-12.7L378.8,318.4z"/>
	<path class="st2_team-presentation-50" d="M421.1,322.1h-16.4c-1,0-1.9-0.8-1.9-1.9v-29.9c0-1,0.8-1.9,1.9-1.9h16.4c1,0,1.9,0.8,1.9,1.9c0,0,0,0,0,0&#10;&#9;&#9;v29.9C423,321.3,422.2,322.1,421.1,322.1z M406.6,318.4h12.7v-26.1h-12.7V318.4z"/>
	<path class="st2_team-presentation-50" d="M385.2,223.9h-24.6c-1,0-1.9-0.8-1.9-1.9c0-1,0.8-1.9,1.9-1.9l0,0h24.6c1,0,1.9,0.8,1.9,1.9&#10;&#9;&#9;C387,223.1,386.2,223.9,385.2,223.9z"/>
	<path class="st2_team-presentation-50" d="M385.2,232.1h-24.6c-1,0-1.9-0.8-1.9-1.9c0-1,0.8-1.9,1.9-1.9l0,0h24.6c1,0,1.9,0.8,1.9,1.9&#10;&#9;&#9;C387,231.3,386.2,232.1,385.2,232.1z"/>
	<path class="st2_team-presentation-50" d="M424.5,182.8h-16.9c-1,0-1.9-0.8-1.9-1.9c0-1,0.8-1.9,1.9-1.9h16.9c1,0,1.9,0.8,1.9,1.9&#10;&#9;&#9;C426.3,182,425.5,182.8,424.5,182.8z"/>
</g>
<g id="character-1_team-presentation-50">
	<path class="st3_team-presentation-50 targetColor" d="M135.6,369.5V320c0-17.6-14.3-31.9-31.9-31.9H73.2c-17.6,0-31.9,14.3-31.9,31.9v49.5L135.6,369.5z" style="fill: rgb(104, 225, 253);"/>
	<path class="st1_team-presentation-50" d="M135.6,371.4H41.3c-1,0-1.9-0.8-1.9-1.9V320c0-18.7,15.1-33.8,33.8-33.8h30.5c18.7,0,33.8,15.1,33.8,33.8v49.5&#10;&#9;&#9;C137.4,370.6,136.6,371.4,135.6,371.4z M43.1,367.6h90.5V320c0-16.6-13.4-30-30-30H73.2c-16.6,0-30,13.4-30,30L43.1,367.6z"/>
	<polygon class="st4_team-presentation-50" points="82.3,291.2 90.4,346.1 98.4,291.2 &#9;"/>
	<path class="st1_team-presentation-50" d="M90.4,348c-0.9,0-1.7-0.7-1.8-1.6l-8-54.9c-0.1-1,0.6-2,1.6-2.1c0.1,0,0.2,0,0.3,0h16c1,0,1.9,0.9,1.9,1.9&#10;&#9;&#9;c0,0.1,0,0.2,0,0.2l-8,54.9C92.1,347.3,91.3,348,90.4,348z M84.5,293.1l5.9,40.1l5.8-40.1H84.5z"/>
	<path class="st5_team-presentation-50" d="M85.9,158.1c2-0.3,4-0.5,6-0.5c9.2,0,18.6-0.2,27,3.9c17.3,8.6,28.4,26.2,28.5,45.6v37.8H35&#10;&#9;&#9;c-0.6-2.2,0.3-4.8,0.5-7.1c0.1-2.5-0.6-4.8-1.1-7.3c-1.3-6.2-2-12.4-2.2-18.7c-0.1-10,2.3-19.6,6.1-28.8c2.2-5.5,4.9-11.1,9.7-14.5&#10;&#9;&#9;s12.5-3.5,15.9,1.3C69.7,163.5,77.5,159.4,85.9,158.1z"/>
	<path class="st1_team-presentation-50" d="M147.4,246.7H35c-0.8,0-1.6-0.5-1.8-1.4c-0.4-1.8-0.4-3.7,0.1-5.5c0.1-0.7,0.2-1.4,0.3-2.2&#10;&#9;&#9;c0-1.8-0.2-3.5-0.7-5.2c-0.1-0.5-0.2-1.1-0.3-1.6c-1.3-6.3-2.1-12.7-2.2-19.1c-0.1-9.4,1.9-19,6.2-29.5c2.2-5.5,5.1-11.6,10.4-15.4&#10;&#9;&#9;c4.9-3.4,12.5-4,17,0.1c6-5.7,13.6-9.5,21.8-10.8c2.1-0.3,4.2-0.5,6.3-0.5h1.6c8.8,0,17.9,0,26.2,4.1c18,8.9,29.4,27.2,29.5,47.2&#10;&#9;&#9;v37.8C149.2,245.9,148.4,246.7,147.4,246.7z M36.7,243h108.9v-35.9c-0.1-18.6-10.7-35.6-27.4-43.9c-7.5-3.7-16.2-3.7-24.6-3.7h-1.6&#10;&#9;&#9;c-1.9,0-3.8,0.2-5.7,0.4l0,0c-8,1.2-15.4,5.1-21,11.1c-0.4,0.4-0.9,0.6-1.5,0.6c-0.6,0-1.1-0.3-1.4-0.8C59.5,167,53,167.2,49,170&#10;&#9;&#9;c-4.5,3.1-6.9,8.5-9,13.7c-4.1,10-6,19.2-5.9,28.1c0.2,6.2,0.9,12.3,2.2,18.4c0.1,0.5,0.2,1,0.3,1.6c0.5,2,0.8,4.1,0.8,6.2&#10;&#9;&#9;c-0.1,0.9-0.2,1.8-0.3,2.6C36.9,241.3,36.7,242.2,36.7,243z M85.9,158.1L85.9,158.1z"/>
	<path class="st6_team-presentation-50" d="M82.3,282h16l0,0v12.4c0,2-1.6,3.6-3.6,3.6H86c-2,0-3.6-1.6-3.6-3.6l0,0L82.3,282L82.3,282z"/>
	<path class="st1_team-presentation-50" d="M91.6,299.9h-2.4c-4.8,0-8.7-3.9-8.7-8.7V282c0-1,0.8-1.9,1.9-1.9h16c1,0,1.9,0.8,1.9,1.9v9.2&#10;&#9;&#9;C100.2,296,96.3,299.9,91.6,299.9z M84.2,283.9v7.4c0,2.7,2.2,4.9,4.9,4.9c0,0,0,0,0,0h2.4c2.7,0,4.9-2.2,4.9-4.9v-7.4H84.2z"/>
	<ellipse class="st6_team-presentation-50" cx="44.5" cy="240.3" rx="15.6" ry="13.4"/>
	<path class="st1_team-presentation-50" d="M44.5,255.6c-9.6,0-17.5-6.9-17.5-15.3S34.9,225,44.5,225S62,231.9,62,240.3S54.1,255.6,44.5,255.6z&#10;&#9;&#9; M44.5,228.8c-7.6,0-13.7,5.2-13.7,11.6s6.2,11.6,13.7,11.6s13.7-5.2,13.7-11.6S52.1,228.8,44.5,228.8z"/>
	<ellipse class="st6_team-presentation-50" cx="135.4" cy="240.3" rx="15.6" ry="13.4"/>
	<path class="st1_team-presentation-50" d="M135.4,255.6c-9.6,0-17.5-6.9-17.5-15.3s7.8-15.3,17.5-15.3s17.4,6.9,17.4,15.3S145,255.6,135.4,255.6z&#10;&#9;&#9; M135.4,228.8c-7.6,0-13.7,5.2-13.7,11.6s6.2,11.6,13.7,11.6c7.6,0,13.7-5.2,13.7-11.6S142.9,228.8,135.4,228.8z"/>
	<path class="st6_team-presentation-50" d="M90.4,284.1L90.4,284.1c-26,0-47-21-47-47v-25.3c0,0,11.8-6.8,15.3-17.4c0,0,22.5,8.5,35.5,8.5&#10;&#9;&#9;c25.6-0.1,43.2-9.3,43.2-9.3v43.5C137.3,263,116.3,284.1,90.4,284.1z"/>
	<path class="st1_team-presentation-50" d="M90.4,286c-27,0-48.8-21.9-48.9-48.9v-25.3c0-0.7,0.4-1.3,0.9-1.6c0.1-0.1,11.2-6.6,14.5-16.4&#10;&#9;&#9;c0.2-0.5,0.5-0.9,1-1.1c0.5-0.2,1-0.2,1.5-0.1c0.2,0.1,22.2,8.4,34.7,8.4h0.1c24.8-0.1,42.1-9,42.3-9.1c0.9-0.5,2.1-0.1,2.5,0.8&#10;&#9;&#9;c0.1,0.3,0.2,0.6,0.2,0.9v43.5C139.2,264.1,117.3,286,90.4,286z M45.2,212.8v24.2c-0.4,24.9,19.5,45.4,44.5,45.8&#10;&#9;&#9;c24.9,0.4,45.4-19.5,45.8-44.5c0-0.4,0-0.9,0-1.3v-40.6c-13.1,5.5-27.1,8.3-41.3,8.2c-11.2,0-28.8-5.9-34.4-8&#10;&#9;&#9;C56.2,205.3,48,211.1,45.2,212.8z"/>
	<circle class="st1_team-presentation-50" cx="68.6" cy="230.2" r="4.4"/>
	<circle class="st1_team-presentation-50" cx="113.5" cy="230.2" r="4.4"/>
	<path class="st1_team-presentation-50" d="M90.1,246.7c-1.5,0-2.9-0.1-4.3-0.4c-1-0.2-1.7-1.2-1.5-2.2c0.2-1,1.2-1.7,2.2-1.5c1.9,0.3,3.9,0.4,5.9,0.1&#10;&#9;&#9;c0-1.6-1.6-5.8-3.6-9.6c-0.6-0.9-0.3-2,0.6-2.6c0.9-0.6,2-0.3,2.6,0.6c0.1,0.1,0.1,0.2,0.2,0.3c1.9,3.7,5,10.4,3.7,13.2&#10;&#9;&#9;c-0.3,0.8-1.1,1.4-1.9,1.6C92.6,246.6,91.4,246.8,90.1,246.7z"/>
	<path class="st1_team-presentation-50" d="M93.3,264.9c-10,0-20.6-5.4-21.2-5.8c-0.9-0.5-1.2-1.6-0.7-2.5c0.5-0.9,1.6-1.2,2.5-0.8&#10;&#9;&#9;c0.2,0.1,20,10.2,28.7,2.4c0.8-0.7,2-0.6,2.6,0.2c0.6,0.8,0.6,1.9-0.1,2.6C101.8,263.9,97.6,264.9,93.3,264.9z"/>
	<path class="st1_team-presentation-50" d="M61.8,371.4c-1,0-1.8-0.9-1.8-1.9v-46.9c0.1-1,1-1.8,2-1.7c0.9,0.1,1.7,0.8,1.7,1.7v46.9&#10;&#9;&#9;C63.8,370.5,62.9,371.4,61.8,371.4C61.9,371.4,61.8,371.4,61.8,371.4z"/>
	<path class="st1_team-presentation-50" d="M115,371.4c-1,0-1.9-0.8-1.9-1.9v-46.9c0-1,0.8-1.9,1.9-1.9c1,0,1.9,0.8,1.9,1.9v46.9&#10;&#9;&#9;C116.9,370.5,116,371.4,115,371.4z"/>
	<path class="st1_team-presentation-50" d="M66.9,250.4c-9,0-16.4-7.3-16.4-16.4c0-9,7.3-16.4,16.4-16.4s16.4,7.3,16.4,16.4c0,0,0,0,0,0&#10;&#9;&#9;C83.3,243,75.9,250.3,66.9,250.4z M66.9,221.4c-7,0-12.6,5.7-12.6,12.6s5.7,12.6,12.6,12.6c7,0,12.6-5.7,12.6-12.6&#10;&#9;&#9;C79.6,227,73.9,221.3,66.9,221.4C66.9,221.3,66.9,221.3,66.9,221.4L66.9,221.4z"/>
	<path class="st1_team-presentation-50" d="M113.5,250.4c-9,0-16.4-7.3-16.4-16.4c0-9,7.3-16.4,16.4-16.4s16.4,7.3,16.4,16.4c0,0,0,0,0,0&#10;&#9;&#9;C129.8,243,122.5,250.3,113.5,250.4z M113.5,221.4c-7,0-12.6,5.7-12.6,12.6s5.7,12.6,12.6,12.6c7,0,12.6-5.7,12.6-12.6&#10;&#9;&#9;C126.1,227,120.5,221.3,113.5,221.4C113.5,221.3,113.5,221.3,113.5,221.4L113.5,221.4z"/>
	<path class="st1_team-presentation-50" d="M81.4,232.1c-0.6,0-1.2-0.3-1.5-0.8c-0.6-0.8-0.4-2,0.4-2.6c0.4-0.3,10.3-7.1,19.6-1.6&#10;&#9;&#9;c0.9,0.5,1.2,1.7,0.6,2.6c-0.5,0.9-1.7,1.2-2.6,0.6c-7.3-4.3-15.4,1.4-15.5,1.4C82.2,232,81.8,232.1,81.4,232.1z"/>
	<path class="st1_team-presentation-50" d="M77.5,217.3L77.5,217.3l-20.8-0.1c-2.1,0-3.7-1.7-3.7-3.7c0-2.1,1.7-3.7,3.7-3.7c0,0,0,0,0,0l0,0h20.8&#10;&#9;&#9;c2.1,0.1,3.7,1.9,3.6,3.9C80.9,215.7,79.4,217.2,77.5,217.3L77.5,217.3z"/>
	<path class="st1_team-presentation-50" d="M107.1,217.9c-2.1,0.1-3.8-1.6-3.8-3.6c-0.1-2.1,1.6-3.8,3.6-3.8l20.7-1.1c2-0.1,3.8,1.4,3.9,3.5&#10;&#9;&#9;c0,0,0,0,0,0.1c0.1,2.1-1.5,3.8-3.6,3.9l-20.7,1.1L107.1,217.9z"/>
	
		<rect x="34.1" y="318.2" transform="matrix(0.9789 -0.2043 0.2043 0.9789 -69.1271 18.4862)" class="st7_team-presentation-50" width="41.6" height="51.6"/>
	<path class="st1_team-presentation-50" d="M39.9,375.4c-0.9,0-1.7-0.6-1.9-1.5l-10.5-50.5c-0.2-1,0.4-2,1.5-2.2l40.8-8.5c0.5-0.1,1,0,1.4,0.3&#10;&#9;&#9;c0.4,0.3,0.7,0.7,0.8,1.2l10.6,50.5c0.2,1-0.4,2-1.5,2.2l-40.8,8.5C40.1,375.4,40,375.4,39.9,375.4z M31.5,324.4l9.8,46.9l37.1-7.7&#10;&#9;&#9;l-9.8-46.9L31.5,324.4z"/>
	<path class="st6_team-presentation-50" d="M56.7,353.9c-0.9-1.6-2.9-2.1-4.5-1.2c0,0,0,0,0,0c1.6-0.9,2.1-3,1.2-4.5c-0.9-1.6-3-2.1-4.5-1.2&#10;&#9;&#9;c1.6-0.9,2.2-2.9,1.4-4.5c-0.9-1.6-2.9-2.2-4.5-1.4c-0.1,0-0.2,0.1-0.3,0.2c1.6-0.9,2.1-3,1.2-4.5c-0.9-1.6-3-2.1-4.5-1.2l-10.2,6&#10;&#9;&#9;c-5.5,3.1-7.9,9.7-5.8,15.6c0.9,2.4,2.3,6,4.4,7.5c2.2,1.5,4.8,2.3,7.5,2c6.2-0.5,12.3-5.4,17.5-8.5&#10;&#9;&#9;C57.1,357.5,57.6,355.5,56.7,353.9z"/>
	<path class="st1_team-presentation-50" d="M37,368.8c-2.7,0-5.4-0.8-7.6-2.4c-2.4-1.8-4-5.5-5-8.4c-2.4-6.8,0.3-14.3,6.6-17.9l10.2-6&#10;&#9;&#9;c2.5-1.4,5.6-0.6,7.1,1.8c0.6,1,0.8,2.3,0.7,3.5c2.3,0.9,3.7,3.2,3.3,5.6c2.3,0.8,3.7,3.2,3.4,5.7c1.1,0.4,2.1,1.2,2.7,2.3&#10;&#9;&#9;c1.4,2.4,0.6,5.5-1.8,7c-1.1,0.6-2.2,1.4-3.4,2.1c-4.5,2.9-9.6,6.1-14.9,6.6C37.8,368.8,37.4,368.8,37,368.8z M43.7,337.1&#10;&#9;&#9;c-0.3,0-0.5,0.1-0.7,0.2l-10.2,6c-4.7,2.7-6.8,8.3-4.9,13.4c0.5,1.3,1.9,5.3,3.7,6.7c1.8,1.3,4,1.8,6.2,1.6c4.4-0.4,9.1-3.4,13.2-6&#10;&#9;&#9;c1.2-0.8,2.4-1.5,3.5-2.2c0.3-0.2,0.6-0.5,0.7-0.9c0.1-0.4,0-0.8-0.2-1.1c-0.2-0.3-0.5-0.6-0.9-0.7c-0.4-0.1-0.8,0-1.1,0.2&#10;&#9;&#9;c-0.9,0.5-2,0.2-2.6-0.7c-0.2-0.3-0.3-0.6-0.3-1c0-0.7,0.4-1.3,0.9-1.6c0.3-0.2,0.6-0.5,0.7-0.9c0.1-0.4,0-0.8-0.2-1.1&#10;&#9;&#9;c-0.2-0.3-0.5-0.6-0.9-0.6c-0.4-0.1-0.8,0-1.1,0.1c-0.9,0.5-2,0.2-2.6-0.7c-0.2-0.3-0.3-0.6-0.3-1c0-0.7,0.3-1.3,0.9-1.6&#10;&#9;&#9;c0.3-0.2,0.6-0.5,0.7-0.9c0.1-0.4,0-0.8-0.2-1.1c-0.2-0.3-0.5-0.6-0.9-0.7c-0.4-0.1-0.8,0-1.1,0.1c-0.9,0.5-2,0.2-2.6-0.7&#10;&#9;&#9;c-0.2-0.3-0.3-0.6-0.3-1c0-0.7,0.4-1.3,0.9-1.6c0.7-0.4,0.9-1.3,0.5-2C44.8,337.3,44.3,337,43.7,337.1L43.7,337.1z"/>
</g>
<g id="character-2_team-presentation-50">
	<path class="st5_team-presentation-50" d="M195.2,159.1c0,0-12.2-4.1-23.8,10.2c-10.8,13.3-10.2,32.4-10.8,48.3c-0.7,19.2-2,34.3-13.1,56.6&#10;&#9;&#9;c5.4,3.8,6.6,6.3,12.7,8.8c2.1-3.9,7.1-11.2,7.1-11.2s1.8,9.2,1.6,13.9c20.5,8.1,42.4,11.8,64.4,10.9c14.2-0.6,29.2-3.4,41-11.8&#10;&#9;&#9;c10.4-7.4,2.5-26.3,2.9-38.1c0.8-21.8,0.5-52.2-10.8-72C251.7,148.8,212.3,136.9,195.2,159.1z"/>
	<path class="st1_team-presentation-50" d="M226.8,298.5c-20.1,0-39.9-3.8-58.6-11.1c-0.7-0.3-1.2-1-1.2-1.8c0-3-0.3-5.9-0.8-8.9&#10;&#9;&#9;c-1.5,2.3-3.3,5.2-4.4,7.1c-0.5,0.8-1.5,1.2-2.4,0.8c-3.2-1.3-6.1-3.1-8.6-5.5c-1.4-1.2-2.9-2.4-4.5-3.5c-0.8-0.5-1-1.5-0.6-2.4&#10;&#9;&#9;c11-22,12.3-37,13-55.8c0-1.5,0.1-3,0.1-4.6c0.4-15.1,0.9-32.3,11.1-44.9s20.8-11.8,24.5-11.1c6.8-8.1,17.1-12.1,29.1-11.3&#10;&#9;&#9;c17.7,1.2,35.6,12.5,44.5,28.1c11.5,20.3,11.8,51.4,11,73c0,4,0.4,8,1.2,12c1.5,10.2,3.3,21.8-4.9,27.6&#10;&#9;&#9;c-10.4,7.4-24.2,11.3-42,12.1C231.2,298.5,229,298.5,226.8,298.5z M170.8,284.4c19.9,7.6,41.2,11.1,62.4,10.3&#10;&#9;&#9;c17.1-0.7,30.1-4.5,40-11.4c6.3-4.5,4.8-14.4,3.3-24c-0.8-4.2-1.2-8.4-1.2-12.7c0.8-21.1,0.5-51.5-10.5-71&#10;&#9;&#9;c-8.3-14.5-24.9-25-41.5-26.2c-11.2-0.8-20.7,3.1-26.7,10.8c-0.5,0.6-1.3,0.9-2.1,0.6c-0.5-0.2-11.2-3.4-21.7,9.6&#10;&#9;&#9;c-9.4,11.6-9.8,28.1-10.2,42.6c0,1.6-0.1,3.1-0.1,4.6c-0.6,18.8-1.9,34-12.6,55.9c1.4,1,2.5,2,3.5,2.8c1.8,1.7,3.9,3.1,6.1,4.2&#10;&#9;&#9;c2.4-4,6.2-9.6,6.3-9.9c0.6-0.9,1.7-1.1,2.6-0.5c0.4,0.3,0.7,0.7,0.8,1.2C170,275.7,170.6,280,170.8,284.4L170.8,284.4z"/>
	<path class="st6_team-presentation-50" d="M287.7,316.4c6.4,3,12.6,6.3,18.8,9.7c6.5-13.5,11.9-24.8,11.9-24.8c0.7-1.5,7.1-18.9,6.7-28&#10;&#9;&#9;c-0.5-13.1-14.2-10.1-15.7-10c-3.5,0.2-9.1,13.3-9.2,19.5c0,0-1.5-2.5-3.5-9.9c-1.2-4.4-7.3-4.5-6.1,5.3s5.3,21.4,5.3,21.4&#10;&#9;&#9;l-3.7,7.7L287.7,316.4z"/>
	<path class="st1_team-presentation-50" d="M306.5,328c-0.3,0-0.6-0.1-0.9-0.2l-0.9-0.5c-5.8-3.1-11.7-6.4-17.8-9.2c-0.5-0.2-0.8-0.6-1-1.1&#10;&#9;&#9;c-0.2-0.5-0.1-1,0.1-1.5l7.8-16.2c-0.9-2.7-4.1-12.4-5.1-21s2.9-9.9,4.1-10.2c2.4-0.5,4.9,1.3,5.7,4.2c0.4,1.5,0.8,2.7,1.1,3.8&#10;&#9;&#9;c2-6.5,5.8-14.4,9.7-14.7l0.5-0.1c2.2-0.3,8.8-1.2,13.2,2.5c2.5,2.1,3.8,5.2,4,9.3c0.4,9.8-6.3,27.6-6.9,28.8l0,0L308.1,327&#10;&#9;&#9;c-0.2,0.5-0.6,0.8-1.1,1C306.8,328,306.6,328,306.5,328z M290.2,315.5c5.2,2.5,10.4,5.3,15.4,8l11.1-23c0.8-1.7,6.9-18.6,6.5-27.1&#10;&#9;&#9;c-0.1-3-1-5.2-2.6-6.6c-3.2-2.7-8.6-1.9-10.3-1.7l-0.7,0.1c-2,0.5-7.4,11.5-7.5,17.6c0,1-0.9,1.9-1.9,1.8c-0.7,0-1.3-0.4-1.6-0.9&#10;&#9;&#9;c-0.1-0.1-1.6-2.8-3.7-10.4c-0.3-1.1-1-1.6-1.4-1.5c-0.5,0.1-1.6,1.8-1.1,6.1c1.1,9.5,5.1,20.8,5.2,21c0.2,0.5,0.1,1-0.1,1.4&#10;&#9;&#9;L290.2,315.5z"/>
	<path class="st1_team-presentation-50" d="M309.9,292c-0.9,0-1.7-0.7-1.9-1.6c-0.1-1.8-0.9-3.5-2.3-4.6c-1.5-0.9-3.4-1.3-5.2-1c-1,0.2-2-0.5-2.2-1.5&#10;&#9;&#9;c-0.2-1,0.5-2,1.5-2.2c0,0,0,0,0,0c2.8-0.5,5.7,0.1,8.1,1.7c2.3,1.7,3.7,4.4,3.9,7.2c0.1,1-0.6,2-1.6,2.1L309.9,292z"/>
	<path class="st3_team-presentation-50 targetColor" d="M289.4,306c0,0-6.6,17.3-9.6,23.5c-7.7-7.8-22-28.6-28.2-33.4s-20.6-8-24.7-8h-28c-16.2,0-29.3,14.3-29.3,31.9&#10;&#9;&#9;v49.5H256v-24.6c10.7,11.5,18.6,17.7,26.4,17.7c2.1,0,4.2-0.5,6.1-1.3c3.7-1.5,12.1-5,25.5-41.8L289.4,306z" style="fill: rgb(104, 225, 253);"/>
	<path class="st1_team-presentation-50" d="M256.1,371.4h-86.5c-1,0-1.9-0.8-1.9-1.9V320c0-18.6,14-33.8,31.1-33.8h28c4.5,0,19.3,3.2,25.9,8.4&#10;&#9;&#9;c3.6,2.8,9.5,10.3,15.7,18.2c3.8,4.9,7.7,9.9,10.9,13.4c3.2-7.3,8.3-20.7,8.4-20.8c0.2-0.5,0.6-0.9,1.1-1.1&#10;&#9;&#9;c0.5-0.2,1.1-0.1,1.5,0.1l24.7,13.5c0.8,0.4,1.2,1.4,0.9,2.3c-13.6,37.5-22.3,41.1-26.5,42.9c-2.2,0.9-4.5,1.4-6.9,1.4&#10;&#9;&#9;c-8,0-15.7-5.8-24.5-14.8v19.9C257.9,370.6,257.1,371.4,256.1,371.4z M171.4,367.6h82.8v-22.8c0-1,0.8-1.9,1.9-1.9&#10;&#9;&#9;c0.5,0,1,0.2,1.4,0.6c11.2,12.1,18.5,17.1,25,17.1c1.9,0,3.7-0.4,5.4-1.1c3.1-1.3,11.1-4.6,23.9-39.2l-21.4-11.7&#10;&#9;&#9;c-1.8,4.8-6.5,16.6-8.9,21.6c-0.5,0.9-1.6,1.3-2.5,0.8c-0.2-0.1-0.3-0.2-0.5-0.3c-3.5-3.5-8.3-9.7-13-15.7&#10;&#9;&#9;c-5.8-7.4-11.8-15-15-17.6c-5.6-4.4-19.4-7.6-23.6-7.6h-28c-15.1,0-27.4,13.5-27.4,30L171.4,367.6z"/>
	<polygon class="st8_team-presentation-50" points="210.4,291.2 218.2,350 226.5,291.2 &#9;"/>
	<path class="st1_team-presentation-50" d="M218.2,351.9L218.2,351.9c-0.9,0-1.7-0.7-1.9-1.6l-7.8-58.8c-0.1-1,0.6-2,1.6-2.1c0.1,0,0.2,0,0.3,0h16&#10;&#9;&#9;c0.5,0,1.1,0.2,1.4,0.6c0.4,0.4,0.5,1,0.4,1.5l-8.2,58.8C219.9,351.2,219.2,351.9,218.2,351.9z M212.6,293.1l5.7,43.1l6-43.1H212.6&#10;&#9;&#9;z"/>
	<path class="st6_team-presentation-50" d="M210.4,282h16l0,0v12.4c0,2-1.6,3.6-3.6,3.6h0H214c-2,0-3.6-1.6-3.6-3.6l0,0L210.4,282L210.4,282z"/>
	<path class="st1_team-presentation-50" d="M219.7,299.9h-2.4c-4.8,0-8.7-3.9-8.7-8.7V282c0-1,0.8-1.9,1.9-1.9h16c1,0,1.9,0.8,1.9,1.9v9.2&#10;&#9;&#9;C228.3,296,224.4,299.9,219.7,299.9z M212.3,283.9v7.4c0,2.7,2.2,4.9,4.9,4.9h2.4c2.7,0,4.9-2.2,4.9-4.9v-7.4H212.3z"/>
	<ellipse class="st6_team-presentation-50" cx="172.6" cy="240.3" rx="15.6" ry="13.4"/>
	<path class="st1_team-presentation-50" d="M172.6,255.6c-9.6,0-17.4-6.9-17.4-15.3S163,225,172.6,225s17.5,6.9,17.5,15.3S182.2,255.6,172.6,255.6z&#10;&#9;&#9; M172.6,228.8c-7.6,0-13.7,5.2-13.7,11.6s6.1,11.6,13.7,11.6s13.7-5.2,13.7-11.6S180.2,228.8,172.6,228.8z"/>
	<ellipse class="st6_team-presentation-50" cx="263.5" cy="240.3" rx="15.6" ry="13.4"/>
	<path class="st1_team-presentation-50" d="M263.5,255.6c-9.6,0-17.5-6.9-17.5-15.3s7.8-15.3,17.5-15.3c9.6,0,17.5,6.9,17.5,15.3S273.1,255.6,263.5,255.6&#10;&#9;&#9;z M263.5,228.8c-7.6,0-13.7,5.2-13.7,11.6s6.1,11.6,13.7,11.6c7.6,0,13.7-5.2,13.7-11.6S271,228.8,263.5,228.8z"/>
	<path class="st6_team-presentation-50" d="M247,200.5l-15.2-19.6c0,0-3.4,12-5.5,19.5l-24-0.1l-5.6-17.4l-6.6,17.4l-18.6-0.1v36.8c0,26,21,47,47,47l0,0&#10;&#9;&#9;c26,0,47-21,47-47v-36.5L247,200.5z"/>
	<path class="st1_team-presentation-50" d="M218.4,286c-27,0-48.8-21.9-48.9-48.9v-36.9c0-1,0.8-1.9,1.8-1.9c0,0,0,0,0,0l0,0l17.3,0.1l6.2-16.2&#10;&#9;&#9;c0.3-0.8,1-1.2,1.8-1.2c0.8,0,1.5,0.5,1.7,1.3l5.2,16.2l21.2,0.1c2.1-7.5,5.1-18.1,5.1-18.1c0.2-0.7,0.7-1.2,1.4-1.3&#10;&#9;&#9;c0.7-0.1,1.4,0.1,1.8,0.7l14.7,18.8h17.5c1,0,1.9,0.8,1.9,1.9V237C267.4,264.1,245.5,286,218.4,286C218.5,286,218.5,286,218.4,286z&#10;&#9;&#9; M173.3,202.2v35c0,24.9,20.2,45.1,45.1,45.1c24.9,0,45.1-20.2,45.1-45.1v-34.8l-16.6,0c-0.6,0-1.1-0.3-1.5-0.7L232.6,185&#10;&#9;&#9;c-1.2,4.1-3.1,11-4.5,15.9c-0.2,0.8-1,1.4-1.8,1.4l0,0l-24-0.1c-0.8,0-1.5-0.5-1.8-1.3l-4-12.4l-4.8,12.5c-0.3,0.7-1,1.2-1.8,1.2&#10;&#9;&#9;L173.3,202.2z"/>
	<circle class="st1_team-presentation-50" cx="196.7" cy="230.2" r="4.4"/>
	<circle class="st1_team-presentation-50" cx="241.6" cy="230.2" r="4.4"/>
	<path class="st1_team-presentation-50" d="M218.2,246.7c-1.5,0-2.9-0.1-4.3-0.4c-1-0.2-1.7-1.2-1.5-2.2s1.2-1.7,2.2-1.5c1.9,0.3,3.9,0.4,5.9,0.1&#10;&#9;&#9;c0-1.6-1.6-5.8-3.6-9.6c-0.5-0.9-0.1-2,0.8-2.5c0.9-0.5,2-0.1,2.5,0.8c1.9,3.7,5,10.4,3.7,13.2c-0.4,0.8-1.1,1.4-1.9,1.6&#10;&#9;&#9;C220.7,246.6,219.5,246.8,218.2,246.7z"/>
	<path class="st1_team-presentation-50" d="M205.6,219.1L205.6,219.1l-20.8-0.1c-2.1-0.1-3.7-1.9-3.6-3.9c0.1-1.9,1.6-3.5,3.6-3.6l0,0h20.8&#10;&#9;&#9;c2.1,0.1,3.7,1.9,3.6,3.9C209,217.4,207.5,218.9,205.6,219.1L205.6,219.1z"/>
	<path class="st1_team-presentation-50" d="M235.2,219.6c-2.1,0.1-3.8-1.6-3.8-3.6c-0.1-2.1,1.6-3.8,3.6-3.8l20.7-1.1c2.1,0,3.8,1.7,3.8,3.7&#10;&#9;&#9;c0,1.9-1.5,3.5-3.4,3.7l-20.7,1.1H235.2z"/>
	<path class="st1_team-presentation-50" d="M221.4,264.9c-10,0-20.6-5.4-21.2-5.8c-0.9-0.5-1.2-1.6-0.7-2.5c0.5-0.9,1.6-1.2,2.5-0.8&#10;&#9;&#9;c0.2,0.1,20,10.2,28.7,2.4c0.8-0.7,2-0.6,2.6,0.2c0.7,0.8,0.6,2-0.2,2.6C229.9,263.9,225.7,264.9,221.4,264.9z"/>
	<path class="st1_team-presentation-50" d="M256.1,346.7c-1,0-1.9-0.8-1.9-1.9v-22.9c0.1-1,1-1.8,2-1.7c0.9,0.1,1.7,0.8,1.7,1.7v22.9&#10;&#9;&#9;C257.9,345.9,257.1,346.7,256.1,346.7z"/>
	<path class="st1_team-presentation-50" d="M187.1,370.1c-1,0-1.9-0.8-1.9-1.9v-48.5c0-1,0.8-1.9,1.9-1.9c1,0,1.9,0.8,1.9,1.9v48.5&#10;&#9;&#9;C189,369.3,188.1,370.1,187.1,370.1L187.1,370.1z"/>
</g>
</svg>