<svg id="_0337_thinking" xmlns="http://www.w3.org/2000/svg" viewBox="0 0 500 500" data-imageid="thinking-40" imageName="Thinking" class="illustrations_image" style="width: 166px;"><defs><style>.cls-1_thinking-40{fill:#fff;}.cls-2_thinking-40{fill:#f4a28c;}.cls-3_thinking-40{fill:#a5a5a5;}.cls-4_thinking-40{opacity:.58;}.cls-4_thinking-40,.cls-5_thinking-40,.cls-6_thinking-40,.cls-7_thinking-40,.cls-8_thinking-40{fill:none;}.cls-5_thinking-40{opacity:.54;}.cls-9_thinking-40{fill:#e6e6e6;}.cls-6_thinking-40{opacity:.09;}.cls-7_thinking-40{opacity:.73;}.cls-10_thinking-40{fill:#24285b;}.cls-11_thinking-40{fill:#000001;}.cls-12_thinking-40{fill:#ffd200;}.cls-13_thinking-40{fill:#68e1fd;}.cls-8_thinking-40{opacity:.38;}</style></defs><g id="plant_thinking-40"><g class="cls-4_thinking-40"><path class="cls-13_thinking-40 targetColor" d="m86.02,371.5s-19.59-5.35-23.85-23.58c0,0,30.35-6.13,31.22,25.19l-7.37-1.61Z" style="fill: rgb(104, 225, 253);"/></g><g class="cls-7_thinking-40"><path class="cls-13_thinking-40 targetColor" d="m88.42,369.56s-13.69-21.64-1.64-41.87c0,0,23.08,14.66,12.82,41.91l-11.18-.05Z" style="fill: rgb(104, 225, 253);"/></g><path class="cls-13_thinking-40 targetColor" d="m91.94,369.58s7.23-22.85,29.09-27.18c0,0,4.1,14.84-14.15,27.24l-14.94-.06Z" style="fill: rgb(104, 225, 253);"/><polygon class="cls-10_thinking-40" points="77.74 369.06 81.71 396.23 106.72 396.34 110.4 369.2 77.74 369.06"/></g><g id="person_thinking-40"><path class="cls-13_thinking-40 targetColor" d="m217.76,212.75s-32.99,9.97-42.54,36.56c-9.55,26.59-.92,76.16,37.36,106.27,38.28,30.11,99.23,6.24,99.23,6.24,0,0,41.86-56.54,24.23-97.3-17.62-40.76-46.74-81.88-118.28-51.77Z" style="fill: rgb(104, 225, 253);"/><path class="cls-2_thinking-40" d="m154.64,326.52s-17.45,68.95,8.74,68.95,70.94-1,70.94-1l-33.69-59.97-45.99-7.99Z"/><path class="cls-2_thinking-40" d="m220.86,212.88s-18.62,20.07,0,32.31c18.62,12.24,41.14-5.44,35.76-17.9-5.39-12.46-21.61-20.99-21.61-20.99l-14.15,6.57Z"/><g class="cls-6_thinking-40"><path class="cls-11_thinking-40" d="m220.86,212.88s-18.62,20.07,0,32.31c18.62,12.24,41.14-5.44,35.76-17.9-5.39-12.46-21.61-20.99-21.61-20.99l-14.15,6.57Z"/></g><path class="cls-13_thinking-40 targetColor" d="m173.14,253.41c-8.6,17.99-21.88,49.71-21.14,72.65l48.63,8.45s27.13-63.94.66-87.03c-8.99-7.84-23.01-4.83-28.16,5.93Z" style="fill: rgb(104, 225, 253);"/><g class="cls-5_thinking-40"><path class="cls-1_thinking-40" d="m173.14,253.41c-8.6,17.99-21.88,49.71-21.14,72.65l48.63,8.45s27.13-63.94.66-87.03c-8.99-7.84-23.01-4.83-28.16,5.93Z"/></g><path class="cls-13_thinking-40 targetColor" d="m308.1,218.31c17.85,12.58,41,36.81,49.16,80.58l-44.43,16.52s-37.95-38.55-35.28-82.4c.92-15.09,18.2-23.41,30.55-14.7Z" style="fill: rgb(104, 225, 253);"/><g class="cls-5_thinking-40"><path class="cls-1_thinking-40" d="m308.1,218.31c17.85,12.58,41,36.81,49.16,80.58l-44.43,16.52s-37.95-38.55-35.28-82.4c.92-15.09,18.2-23.41,30.55-14.7Z"/></g><path class="cls-2_thinking-40" d="m206.68,188.4s4.41,31.33,21.05,30.35c16.65-.98,6.36-35.74,6.36-35.74,0,0-2.25-17.62-12.14-17.62s-22.65,1.36-15.28,23.01Z"/><path class="cls-10_thinking-40" d="m204.81,192.38l3.37,3.17s17.1-9.06,17.1-22.92c0,0,3.2,11.99,10.29,16.45,0,0,7.09-24.18-6.13-26.87,0,0-4.2-6.85-8.47-7.34-3.46-.4-21.58,5.24-22.86,20.85-.51,6.26,2.12,12.37,6.7,16.67Z"/><path class="cls-2_thinking-40" d="m208.18,195.55s-8.85-.54-7.38,3.62,1.46,10.18,10.4,5.33l-3.02-8.95Z"/><g class="cls-6_thinking-40"><path class="cls-11_thinking-40" d="m224.47,227.81s-8.21,7.19,2.43,12.7c10.65,5.51,7.71,58.01,23.13,71.6,15.42,13.59,40.39,6.24,40.39,6.24l-29.9-56.54-5.93-28.27-15.18-2.94-14.95-2.78Z"/></g><path class="cls-2_thinking-40" d="m234.98,188.49s7.74-4.33,8.22.05c.49,4.39,3.11,9.8-7.05,9.32l-1.17-9.37Z"/><path class="cls-2_thinking-40" d="m246.33,222.18s-19.09-7.83-23.5,0c-4.41,7.83,21.03,13.71,21.03,13.71l2.47-13.71Z"/><path class="cls-2_thinking-40" d="m246.33,222.18s-19.09-7.83-23.5,0c-4.41,7.83,21.03,13.71,21.03,13.71l2.47-13.71Z"/><path class="cls-2_thinking-40" d="m355.08,299.7s20.53,54.63-3.7,67.49c-24.23,12.85-93.1-57.62-107.52-131.3l2.47-13.71s24.27,26.74,33.45,42.91c9.18,16.17,37.55,37.84,37.55,37.84l37.75-3.23Z"/><polygon class="cls-12_thinking-40" points="209.51 395.47 192.39 309.79 328.66 309.79 317.75 397.66 209.51 395.47"/><circle class="cls-1_thinking-40" cx="260.5" cy="351.76" r="9.36"/></g><g id="table_thinking-40"><rect class="cls-9_thinking-40" x="41.69" y="393.51" width="403.72" height="79.09"/></g><g id="coffee_thinking-40"><rect class="cls-3_thinking-40" x="342.41" y="355.38" width="29.13" height="38.26"/><path class="cls-3_thinking-40" d="m348.32,388.01h-10.28c-6.62,0-12.02-5.39-12.02-12.02s5.39-12.02,12.02-12.02h10.28v2h-10.28c-5.52,0-10.02,4.49-10.02,10.02s4.49,10.02,10.02,10.02h10.28v2Z"/><circle class="cls-9_thinking-40" cx="359.61" cy="376.09" r="8.54"/><g class="cls-8_thinking-40"><path class="cls-9_thinking-40" d="m345.81,355.38s-7.53-20.63,11.17-24.06c18.7-3.43,22.73-10.28,11.17-24.48-11.57-14.2-8.07-24.48,3.4-26.44,11.47-1.96,28.12,18.66,36.44-6.34,8.32-24.99,24.97-16.13,31.33,0,6.36,16.13,17.62,41.59-16.65,43.54-34.27,1.96-17.62,26.33-29.86,31.04s-21.26,6.73-21.26,6.73h-25.74Z"/></g></g><g id="think_thinking-40"><g class="cls-8_thinking-40"><path class="cls-9_thinking-40" d="m443.99,79.68c.18-1.19.3-2.41.3-3.65,0-13.43-10.89-24.32-24.32-24.32-3.94,0-7.65.96-10.94,2.62.09-.86.15-1.74.15-2.62,0-13.43-10.89-24.32-24.32-24.32s-23.19,9.82-24.22,22.31c-4.14-3.26-9.35-5.23-15.03-5.23-13.43,0-24.32,10.89-24.32,24.32,0,3.85.92,7.47,2.51,10.7-.16,0-.32-.02-.49-.02-9.3,0-16.85,7.54-16.85,16.85s7.54,16.85,16.85,16.85c1.67,0,3.28-.25,4.81-.71,1.4,12.09,11.66,21.49,24.13,21.49,3.03,9.98,12.3,17.25,23.27,17.25,11.7,0,21.46-8.26,23.79-19.26,4.2,3.46,9.59,5.55,15.46,5.55,13.43,0,24.32-10.89,24.32-24.32,0-.06,0-.13,0-.19.79.11,1.58.19,2.4.19,9.3,0,16.85-7.54,16.85-16.85,0-8.44-6.22-15.41-14.32-16.64Z"/></g><g class="cls-8_thinking-40"><path class="cls-9_thinking-40" d="m348.24,158.56c.15-.38.28-.77.38-1.18,1.03-4.42-1.73-8.84-6.15-9.86-1.3-.3-2.59-.27-3.8.03.1-.28.18-.56.25-.85,1.03-4.42-1.73-8.84-6.15-9.86-4.2-.97-8.38,1.46-9.68,5.49-1.11-1.39-2.68-2.43-4.55-2.87-4.42-1.03-8.84,1.73-9.86,6.15-.29,1.27-.27,2.53,0,3.71-.05-.01-.1-.03-.16-.05-3.06-.71-6.12,1.2-6.83,4.26-.71,3.06,1.2,6.12,4.26,6.83.55.13,1.1.17,1.64.14-.46,4.09,2.2,7.96,6.3,8.92.23,3.52,2.73,6.62,6.34,7.45,3.85.89,7.69-1.08,9.3-4.52,1.12,1.46,2.73,2.56,4.66,3.01,4.42,1.03,8.84-1.73,9.86-6.15,0-.02,0-.04.01-.06.25.1.51.18.78.25,3.06.71,6.12-1.2,6.83-4.26.65-2.78-.87-5.55-3.44-6.57Z"/></g><g class="cls-8_thinking-40"><path class="cls-9_thinking-40" d="m294.25,166.87c.1-.24.18-.49.24-.76.66-2.85-1.11-5.69-3.96-6.35-.83-.19-1.67-.17-2.45.02.06-.18.12-.36.16-.55.66-2.85-1.11-5.69-3.96-6.35-2.7-.63-5.4.94-6.23,3.54-.72-.89-1.72-1.57-2.93-1.85-2.85-.66-5.69,1.11-6.35,3.96-.19.81-.17,1.63,0,2.39-.03,0-.07-.02-.1-.03-1.97-.46-3.94.77-4.4,2.74s.77,3.94,2.74,4.4c.35.08.71.11,1.05.09-.3,2.63,1.41,5.13,4.05,5.74.15,2.26,1.76,4.26,4.08,4.8,2.48.58,4.95-.69,5.99-2.91.72.94,1.76,1.65,3,1.94,2.85.66,5.69-1.11,6.35-3.96,0-.01,0-.03,0-.04.16.06.33.12.5.16,1.97.46,3.94-.77,4.4-2.74.42-1.79-.56-3.57-2.22-4.23Z"/></g></g><g id="mind_thinking-40"><rect class="cls-10_thinking-40" x="91.72" y="109.38" width="68.17" height="44"/><circle class="cls-12_thinking-40" cx="108.87" cy="130.76" r="5.37"/><circle class="cls-12_thinking-40" cx="126.05" cy="130.76" r="5.37"/><circle class="cls-12_thinking-40" cx="142.97" cy="130.76" r="5.37"/></g></svg>