<svg version="1.1" id="Layer_1" xmlns="http://www.w3.org/2000/svg" xmlns:xlink="http://www.w3.org/1999/xlink" x="0px" y="0px" viewBox="0 0 500 500" style="width: 166px;" xml:space="preserve" data-imageid="travel-planning-63" imageName="Travel Planning" class="illustrations_image">
<style type="text/css">
	.st0_travel-planning-63{fill:#D1D3D4;}
	.st1_travel-planning-63{fill:#FFFFFF;}
	.st2_travel-planning-63{fill:#231F20;}
	.st3_travel-planning-63{fill:#68E1FD;}
</style>
<path id="Floor_travel-planning-63" class="st0_travel-planning-63" d="M464,385.2H36c-0.4,0-0.7-0.3-0.7-0.7c0-0.4,0.3-0.7,0.7-0.7h428c0.4,0,0.7,0.3,0.7,0.7&#10;&#9;S464.4,385.2,464,385.2C464,385.2,464,385.2,464,385.2z"/>
<g id="Wall_Map_travel-planning-63">
	<rect x="92.4" y="105.3" class="st1_travel-planning-63" width="348.8" height="228.4"/>
	<path class="st2_travel-planning-63" d="M441.2,334.5H92.4c-0.4,0-0.7-0.3-0.7-0.7l0,0V105.3c0-0.4,0.3-0.7,0.7-0.7h348.8c0.4,0,0.7,0.3,0.7,0.7v0&#10;&#9;&#9;v228.4C441.9,334.1,441.6,334.5,441.2,334.5L441.2,334.5z M93.1,333.1h347.4V106H93.1V333.1z"/>
	<path class="st0_travel-planning-63" d="M429,321.1H104.6c-0.4,0-0.7-0.3-0.7-0.7l0,0V118.7c0-0.4,0.3-0.7,0.7-0.7H429c0.4,0,0.7,0.3,0.7,0.7v0v201.7&#10;&#9;&#9;C429.7,320.8,429.4,321.1,429,321.1z M105.4,319.7h322.9V119.4H105.3L105.4,319.7z"/>
	<path class="st0_travel-planning-63" d="M270.4,180.4c0.4,0.8,0.2,1.9-0.4,2.5c-0.1,0.1,0,0.8,0.2,0.9c0.4,0.3,0.8,0.6,1.3,0.6c0.8,0,1.6-0.7,2,0.4&#10;&#9;&#9;c1.5-0.1,2.5-1.6,4.2-0.8c0.4,0.2,1.2-0.4,1.8-0.7c0-0.5,0-0.9,0-1.4c0.4-2,0.7-2.1,2.3-0.8c0.6-0.6,0.9-1,0.1-1.7&#10;&#9;&#9;c-0.6-0.5-0.5-1.1,0.4-1.3c0.6-0.1,1.2-0.2,1.8-0.2l2.3-0.2v-0.5c-0.4-0.2-0.9-0.3-1.3-0.3c-0.9,0.3-1.7,0.5-2.6,0.6&#10;&#9;&#9;c-1-0.1-1.9-0.4-2.8-0.9c-0.5-0.3,0.1-2.7,0.6-3.1c0.9-0.7,1.8-1.4,3.1-2.4c-0.6-0.2-1.2-0.6-1.6-0.5c-0.7,0.2-1.4,0.6-2,1.1&#10;&#9;&#9;c-0.5,0.4-0.8,1.1-1.3,1.5s-1.2,0.8-1.7,1.3c-0.9,1-0.8,1.6,0.3,2.4c0.5,0.2,0.8,0.8,0.6,1.3c-0.1,0.3-0.4,0.6-0.7,0.6&#10;&#9;&#9;c-0.7,0.3-1.1,1-1.2,1.8c-0.1,0.8-0.1,1.9-1.4,1.6c-1.7,2.2-1.6,0.1-2-0.8c-0.1-0.2-0.2-0.3-0.2-0.5c-0.5-0.8-0.8-1.8-1.5-2.1&#10;&#9;&#9;c-0.5-0.2-1.4,0.7-2.1,1.1c-0.9,0.3-1.8-0.1-2.2-1c-0.3-0.7-0.5-1.5-0.7-2.3c0-0.6,0.1-1.1,0.5-1.5c1-0.9,2.1-1.6,3.4-2&#10;&#9;&#9;c0.9-0.2,1.7-1.3,2.4-2.1c1-1.1,2-2.4,2.8-3.5l-1.9,0.5c0.4-0.4,0.9-0.8,1.4-1.1c0.5-0.2,1.1-0.3,1.7-0.4c0.5-0.3,1.5-1.4,2.2-1.2&#10;&#9;&#9;c1.2,0.2,2.2-0.7,3.4-0.4c0.5,0.1,1.3-0.5,2.2-1l-0.5,1c0.5-0.3,1-0.4,1.6-0.5c0.9,0.1,1.8,0.3,2.7,0.6l-0.3,0.5&#10;&#9;&#9;c2,0.5,3.9,0.8,5.8,1.4c1.1,0.3,2.1,0.8,3.1,1.3c0.8,0.4,0.9,1,0,1.5c-1.6,0.8-3.4,0.4-5,0.1c-0.5-0.2-1.1-0.2-1.6-0.2l1.5,0.8&#10;&#9;&#9;c0,1.8,1.1,2.8,2.9,2.2l-1.2-0.8l0.1-0.3l3.1,0.5l-0.6-1.2c0.6-0.3,1.2-0.6,1.9-0.8c0.7-0.1,1.4-0.2,2-0.3c-0.2-0.3-0.4-0.6-0.5-1&#10;&#9;&#9;c0-0.6,0-1.1,0.1-1.7l2.3,0.5v0.5l-1.2,0.4c0.9,1.3,1.2,1.2,2.4,0.3c1-0.7,2.1-1.2,3.3-1.5c0.4-0.1,0.9-0.2,1.3-0.3&#10;&#9;&#9;c0.9,1.5,2.3,0,3.5,0.1c0.5,0,1.1-0.8,1.6,0.2c0.5-0.1,1-0.3,1.4-0.4l-2.5-1.8c1.7,0.2,3.4,0.5,5,0.9c1.4,0.4,2.6,1.4,4.2,1.3&#10;&#9;&#9;c-1.1-0.6-1.7-1.7-1.7-2.9c0.5-0.7,1.1-1.4,1.7-1.9c0.6-0.3,1.3-0.5,2-0.5c0.5,0.1,1.1,0.2,1.6,0.4l-0.8,1.1l0.6,3.9l0.6,0.2&#10;&#9;&#9;l-2.5,2.4c1.8,0.4,3.2-0.6,3.5-2.8c0.8,0,1.8-0.4,1.9,1c0.9-0.8,0.7-1.5-0.4-1.6c-0.7,0-1.5,0-2.2,0c-0.1-0.9-0.2-1.9-0.3-3&#10;&#9;&#9;l1.6-1.1v1.4l1.4,0.2l-1.1-0.9l1.7,0.2l0.1-0.3l-0.8-0.6l0.1-0.3c1.1,0.3,2.1,0.7,3.2,1c0.4,0.1,0.8,0.2,1.3,0.2&#10;&#9;&#9;c0-0.1,0.1-0.2,0.1-0.3c-0.4-0.2-0.8-0.3-1.3-0.6l-0.4-1.2l5.5-0.5l-0.8-0.9c2.5-1.2,5.3-1.7,8.1-1.5c1,0,1.9-0.2,2.9-0.4&#10;&#9;&#9;c0.1,0,0.2-0.1,0.2-0.1c0.9-0.1,1.7-0.4,2.4-1c1-0.7,2.2-1.6,3.4,0.1c0.2,0.3,0.9,0.3,1.3,0.4c1.5-0.1,2.9-0.1,4.4,0.1&#10;&#9;&#9;c0.5,0.1,0.9,1,1.4,1.6l-6.1,2.2v0.2c0.4,0,0.8,0.1,1.2,0.1s1,0.1,1.3-0.1c1.4-1,2.8-0.4,4.2-0.2c0.6,0.1,1.2-0.3,1.7-0.2&#10;&#9;&#9;c0.7,0.2,1.3,0.5,1.8,0.9c1.2,0.7,2.8,0.4,3.6-0.7c0.3-0.2,0.6-0.3,1-0.2c1.4,0.2,2.7,0.4,4.1,0.6c-0.2,1.6-0.1,2.9,2,3l0.5-0.9&#10;&#9;&#9;h6.5l-0.7-1.1c1.6-0.1,3.3-0.6,4.8-0.2s3.3,0.1,4.8,1.3c1,0.8,2.8,0.7,4.3,0.7s3-0.3,4,1.3c0.2,0.3,1.1,0.3,1.7,0.3&#10;&#9;&#9;c0.9,0.1,1.8,0.1,2.8,0c0.7,0,1.3-0.3,2-0.4c0.4,0,0.8,0,1.3,0l0.2,0.4l-0.8,0.2l0.1,0.3l2.2,0.7l-0.4-1.7c2.4,0.3,4.9,0.2,7,1&#10;&#9;&#9;s4.6,1.1,5.9,3.3c0.7-1,1.3-0.9,3.9,0.7c-0.8,0.7-2.2,0.7-2.5,2c-0.9-0.3-1.8-0.5-2.7-0.8c-0.5-0.1-0.9-0.4-1.3-0.5&#10;&#9;&#9;c-0.3-0.1-0.7-0.2-1-0.4c-0.2-0.2-0.4-0.4-0.5-0.6c-0.1,0.3-0.2,0.5-0.2,0.8s0,0.3-0.1,0.4l-2.4,0.8c0.9,0.6,1.4,1.6,1.3,2.6&#10;&#9;&#9;c-3.3-0.6-5.5,1.3-7.9,2.8c-0.7-0.8-1.9-1-2.8-0.3c-0.4,0.2-0.7,0.2-1.1,0.2c-1.8-0.1-2,1.5-3.2,2.5l1.1,0.2c0.1,0.7,0.2,1.4,0.2,2&#10;&#9;&#9;c-1.2,0.1-1.6,0.7-0.9,1.7c-0.6,0.6-2.4,0.1-1.8,1.9c-2-0.3-1.4,2.2-3,2.6c-0.5-2.8-2.1-5.6,0.1-8c2.6-1.8,5.1-3.2,6.6-5.8&#10;&#9;&#9;l-0.2-0.3c-0.3,0.1-0.8,0.2-0.8,0.3c0.1,0.9-0.7,1.1-1.3,1.3s-1.5,1.7-1.8-0.3c-0.8-0.1-1.7,0-2.5,0.2c-0.6,0.3-1.2,0.8-1.6,1.4&#10;&#9;&#9;c-0.2,0.3-0.1,0.7-0.2,1.3l-3.1,0.4l0.6-0.9c-1.6,0.1-3.1,0.5-4.4,0.2c-3.1-0.6-4.8,1.3-6.8,3c-1,0.8-1.9,1.6-2.7,2.3&#10;&#9;&#9;c0.4,0.5,0.8,0.9,1.3,1.3c0.4,0.1,0.7,0.1,1.1,0c0.5-0.1,1-0.6,1.3-0.5c0.5,0.3,1.2,1,1.2,1.4c-0.5,2.1-0.1,4.5-1.5,6.4&#10;&#9;&#9;c-1.2,1.8-2.4,3.5-3.6,5.3c-0.7,0.9-1.9,1.1-2.9,0.5c-0.6,0.9-1.8,1.2-1.9,2.7c0,0.6-1.2,1.1-1.4,1.8c0.5,1.2,1,2.5,1.3,3.8&#10;&#9;&#9;c0.5,2-1.5,1.9-2.8,2.7c0.1-1.3,0.2-2.5,0.3-3.7c0-0.3-0.3-0.9-0.5-0.9c-1.6,0.2-0.8-0.8-0.7-1.4c0.1-0.2,0.1-0.4,0.2-0.5&#10;&#9;&#9;c-0.9-0.7-2.1-0.5-2.8,0.3c-0.1,0.1-0.1,0.2-0.2,0.3l-0.4-0.3l0.6-2c-1.3-0.3-1.6,1-2.4,1.5c-0.2,0.1-0.3,0.4-0.5,0.5&#10;&#9;&#9;c-0.3,0.1-0.5,0.2-0.8,0.3c0.2,0.3,0.4,0.6,0.6,0.9s0.5,0.7,0.6,0.8h3.4l-3,2.6l2.1,5.2l-1,0.9l1.5,0.2c-0.7,1.3-1.3,2.6-2,3.9&#10;&#9;&#9;c-0.4,1-1,2-1.6,2.9c-0.8,0.9-1.4,2.2-3,2.4c-1.1,0.2-2.1,0.6-3,1.2c-0.5,0.4-0.9,0.8-1.2,1.3l-0.2-1.2c-1.5-0.2-2.9,0.8-3.3,2.3&#10;&#9;&#9;c-0.4,2.1,1.2,3.3,2.3,4.5l1.9-0.5l0.2,0.3c-0.4,0.5-0.8,0.9-1.1,1.4c-0.2,0.2-0.3,0.5-0.4,0.9c0.1,1.9,0.2,3.7-2,4.6&#10;&#9;&#9;c-0.6,0.3-0.9,1.4-1.7,2v-1.4l-3.8-4.5c-0.2,0.2-0.3,0.4-0.4,0.6c0,0.5-0.1,1.1-0.3,1.6c-0.9,1.9,0.3,3.5,0.7,5.2&#10;&#9;&#9;c0.1,0.7,1.2,1.1,1.7,1.8c0.4,0.8,0.7,1.6,0.8,2.4c0.3,1,0.4,2.1,0.4,3.1c-0.8-0.6-1.5-1.3-2.2-2.1c-0.4-1-0.7-2-0.8-3&#10;&#9;&#9;c-0.1-0.6-0.3-1.2-0.6-1.7c-1.3-1.4-1.2-3-0.9-4.7c0.5-2.7-0.8-5-1.2-7.7c-0.9,0.8-1.1,2.1-2.6,1.3c0.9-2.1-0.3-3.7-1.4-5.4&#10;&#9;&#9;c-0.4-0.7-0.6-1.4-0.7-2.1c-1,0.2-2,0.4-3,0.6c-0.4,0.1-0.9,0.3-0.9,0.6c-0.4,2-2.3,2.7-3.2,4.2c-0.6,1-1.7,1.6-2.3,2.6&#10;&#9;&#9;c-0.3,0.6-0.4,1.3-0.2,2c0.2,2.7-0.7,5.3-2.4,7.4c-1.2-2.7-2.1-5.6-2.8-8.5c-0.7-2.9-1.1-5.8-1.6-8.4l-1,1.3l-2-1.8l0.9-0.4&#10;&#9;&#9;c-1-1.1-2-2.3-3.1-3.5c-1.7,0-3.5,0.1-5.4,0s-2-0.3-2.6-1.9c-1.7,0.9-3.7,0.2-4.6-1.4c-0.1-0.2-0.2-0.3-0.2-0.5&#10;&#9;&#9;c-0.1-0.3-0.2-0.5-0.3-0.8c-0.9-1.7-1.1-1.7-2.4-0.3l2.3,5l0.5-1.2c0.1,0.7,0.2,1,0.3,1.3c0.1,0.5,0.2,1,0.2,1.4&#10;&#9;&#9;c0.8-0.1,1.7,0.6,2.3-0.6c0.4-0.7,0.9-1.4,1.5-2c0,0.6,0.1,1.2,0.2,1.8c0.1,0.5,0.5,0.8,0.9,1.1c2,1,2.3,2.5,0.8,4.1&#10;&#9;&#9;c-0.2,0.3-0.5,0.6-0.6,1c-0.2,0.3-0.4,0.7-0.6,1c-0.9,1.1-1.9,1.9-3.2,2.6c-1.3,0.8-2.4,1.9-3.7,2.8c-1.2,0.7-2.5,1.4-3.8,2&#10;&#9;&#9;c-0.7,0.4-1,0.1-1.2-0.7c-0.4-2.2-0.4-4.5-1.7-6.5c-0.5-0.6-0.9-1.3-1.3-2c-0.3-0.7-0.5-1.3-0.6-2c-0.3-0.9-0.7-1.8-1.1-2.7&#10;&#9;&#9;c-0.5-1.1-1-2.2-1.5-3.2c-0.3-0.6-0.7-1.2-1-1.7l-2,0.6l-0.1-0.4l1-0.8l-2-2.1c0.2-0.1,0.7-0.7,1.2-0.7c1.3,0,1.7-0.8,2-1.9&#10;&#9;&#9;c0.4-1.6,0.7-3.2,1.2-5.3l-2.2,1c0,0-0.1,0-0.1,0c-0.9-0.2-2.2-0.9-2.5-0.6c-1.2,1.1-1.8-0.2-2.5-0.5s-0.9-1.2-1.3-1.8l0.2-2.5&#10;&#9;&#9;c-0.9-0.5-0.9-0.5-1.9,0.4c-0.2,0.2-0.8,0-1.4-0.1c0.4,0.6,0.7,1.1,1.1,1.7c0.2,0.4,0.2,0.8,0.1,1.2c-0.3,0.7-0.7,1.3-1.1,1.9&#10;&#9;&#9;c-0.9-2.1-2.8-3.7-2.8-6.4c0-0.6-0.8-1.3-1.5-1.7c-1-0.6-2.1-1-2.5-2.3c0-0.1-0.5-0.1-0.6-0.3c-0.2-0.3-0.3-0.5-0.5-0.8&#10;&#9;&#9;c-1.3,0.4-1.5,1-0.5,2.1c0.4,0.5,0.6,1.1,1,1.6c0.2,0.3,0.6,0.7,0.9,0.8c1.2,0.3,1.8,1.4,2.8,2.1c0.1,0,0,0.2,0.1,0.5l-1.6-0.7&#10;&#9;&#9;l0.5,1.6l-1,1.4c0.6-2.3-1.1-3.1-2.5-4.1c-0.8-0.7-1.5-1.5-2.2-2.3c-0.4-0.5-0.8-1-1.1-1.4c-0.5,0.3-1.1,0.6-1.5,1&#10;&#9;&#9;c-0.5,0.6-1.3,0.7-2,0.4c-0.8-0.3-1.6-0.4-1.5,1c0,0.4-0.6,1-1,1.4c-0.6,0.6-1.2,1.2-1.8,1.9c-0.2,0.3,0,0.8,0,1.6&#10;&#9;&#9;c-0.6,1.9-2.8,2.2-5,2.7l-0.9-1.1l-1.4,0.2c-1.4-2.4,0.6-4.9-0.6-7.4c2.1-1.3,4.3-0.3,6.5-0.4c0.2-1.2,1-2.5,0-3.7&#10;&#9;&#9;c-0.9-0.8-1.7-1.7-2.4-2.7l2.6,0.1l-0.1-1.2c1.1,0.5,2.4,0.1,2.9-1c0,0,0-0.1,0.1-0.1c0.1-0.3,0.5-0.4,0.8-0.7&#10;&#9;&#9;c0.7-0.7,1.3-1.3,2.3-2.3l2.9-1.2c0-0.4,0-0.8-0.1-1.2C268.4,181.5,268.4,181.5,270.4,180.4z"/>
	<path class="st0_travel-planning-63" d="M155.9,197.1h1.5c-0.5-1.1-1.5-2-2.7-2.4c-1.8-0.9-3.1-2.5-3.8-4.4c-0.2-0.5-0.9-0.7-1.3-1l-0.3,1&#10;&#9;&#9;c-0.5-1.2-2-1.7-0.9-3.2c0.1-0.1-0.8-1.2-1-1.2c-1.3,0.3-2.2-0.4-3.2-1c-0.7-0.3-1.4-0.6-2.1-0.7c-1.6-0.3-3.3-0.6-5-0.9l0.2,0.8&#10;&#9;&#9;l-3.5,0.9l0.3-1.8l-2,1.7c0.4,0.8-2.9,3.6-5,4.2l0.7,0.7l-0.1,0.4c-1.6-1.4-2.9,0-4.5-0.1l2.2-1.2c0.8-0.4,1.6-0.8,2.3-1.3&#10;&#9;&#9;c0.7-0.6,1.3-1.3,1.8-2.1h-4l-0.3-1.6c-2.2,1.6-2-1-3.1-1.5c0.6-2.2,2.6-1.9,4.2-2.4l-0.3-1.2c-2.3,0.2-2.9,0.9-5.4-1&#10;&#9;&#9;c0.6-0.2,1-0.3,1.5-0.5s0.9-0.5,1.4-0.7c0.8,1.1,1.5,1.1,2.7,0.2l-5.1-2c0.8-0.3,1.2-0.4,1.7-0.6s1.1-0.6,1.7-0.9&#10;&#9;&#9;c1.1-0.5,2.3-0.9,3.5-1.3c1.9-0.6,3.8-0.2,5.7,0.2c1.5,0.3,3.1,0.5,4.6,0.6c2.4,0.1,4.7,0.6,7,1.3c0.5,0.1,1.1,0.2,1.6,0.2&#10;&#9;&#9;c0-1.8,1.4-0.4,2-0.9c0.8-0.5,1.7-0.7,2.6-0.6l-2.9,1.1l0.2,0.4l4.4-1.9l1.5,1.3l1-0.8l0.5,0.9c0.7-1.1,1.6-0.7,2.6-0.5&#10;&#9;&#9;c1.3,0.3,2.7,0.5,4,0.7c0.4,0.1,0.8,0.2,1.4,0.4l-0.9,0.7l0.1,0.3c1.1-0.1,2.1-0.2,3.2-0.2c0.9,0.2,1.9,0.4,2.8,0.7l-0.1-1&#10;&#9;&#9;c1,0,1.9-0.1,2.9,0c1.7,0.1,3.4,0.9,5.1-0.2c0.3-0.2,1.2,0.5,2,0.8l1.6-1.2l-2.3-1.8c-0.2-0.9,0.2-1.7,1.4-1.8&#10;&#9;&#9;c1-0.1,2.2,1.4,2.1,2.4l1.5,0.3l-0.2,1.5l1.3-1.5l1.4,2.9l2.2-3.2l2.4,0.4v2.3l0.3,0.4l-2.2,0.5l0.7,1.2l-2.6-1.4&#10;&#9;&#9;c0.3,1.2-0.3,1.5-1.1,1.4c-0.7-0.2-1.5-0.3-2.2-0.3l3,0.9c-0.9,0.4-1.6,0.7-2.2,1.1c-0.3,0.1-0.6,0.3-0.9,0.6&#10;&#9;&#9;c-1.1,1.4-3.5,2-3.4,4.3c0,0.4,0.3,0.9,0.6,1c1.1,0.3,1.2,1,1.1,2c1.5-0.8,2.6,0,3.8,0.7c1.5,0.7,3,1.2,4.5,1.7&#10;&#9;&#9;c0.1,0.9-0.1,2.4,1.3,3.3c0.3,0.2,0.8,0.5,0.8,0.4c0.4-0.3,0.9-0.8,0.9-1.2c-0.1-0.8-0.3-1.6-0.6-2.4c0.8-0.7,2-1.2,2.2-2.1&#10;&#9;&#9;s-0.7-1.8-1.2-2.9c1.3-0.9-0.1-2.3,0.1-3.7c2.5-0.7,4.6,0.6,6.8,1.7c-0.4,0.9,0,2,0.9,2.4c0.2,0.1,0.3,0.1,0.5,0.1&#10;&#9;&#9;c1.6,0.4,1.8-1.3,2.5-2.3c0.7,1,1.4,1.9,2,2.9c0.3,0.6,0.2,1.6,0.6,2c0.9,0.7,1.9,1.3,2.9,1.8l-0.8,0.5c0.6,0.1,1.2,0.2,1.8,0.4&#10;&#9;&#9;c0.4,0.3,0.7,0.7,0.7,1.2c-0.1,0.4-0.3,0.8-0.7,1c-2,1-3.9,2.2-6.4,1.7c-1.6-0.4-2.7,1.1-3.8,2.2c0.7-0.3,1.3-0.6,2-0.8&#10;&#9;&#9;c0.5-0.1,1.1-0.2,1.6-0.1c0.1,0,0.4,0.7,0.3,0.8c-1,1-0.7,1.7,0.3,2.4c1.3,0.9,1.7,0.8,2.6-0.5c0.1-0.2,0.3-0.3,0.5-0.3l-0.3,1.1&#10;&#9;&#9;l0.6-0.3l0.2,0.4l-4.7,2.5l-0.3-0.1l1-2.1c-1.5,0.7-3,1.5-4.4,2.3c-0.4,0.2-0.2,1.3-0.3,1.9l0.4,0.2c-0.4,0.1-0.9,0.2-1.3,0.3&#10;&#9;&#9;c-1.1,0-1.8,0.3-1.9,1.7c-0.1,0.8-0.8,1.5-1.3,2.3l-0.5-2c-0.1,0.8-0.1,1.5,0,2.3c0.5,2.4,0.4,2.7-1.6,3.9&#10;&#9;&#9;c-1.2,0.7-2.6,2.9-2.4,3.8c0.3,1.3,0.8,2.5,1,3.8c0.1,0.7,0,1.4-0.1,2.1l-0.7,0.1l-2.1-5.4l-1.1,0.5c-1-1.7-2.5-0.6-3.8-0.7&#10;&#9;&#9;l0.6,1.3c-1.2-0.2-2.1-0.4-3.1-0.6c-0.7-0.2-1.2-0.2-1.7,0.5c-0.2,0.4-0.7,0.6-1,0.9s-0.8,0.6-0.8,0.9c-0.1,2.3-0.1,4.6,0,6.9&#10;&#9;&#9;c0.1,0.8,0.4,1.5,0.8,2.1c0.4,0.6,1.3,1.3,1.8,1.2c1-0.2,2.5,0.1,2.8-1.6s0.9-2,3-1.8l-1.4,6.2c0.7,0,1.3,0,2-0.1&#10;&#9;&#9;c1.7-0.2,2.4,0.6,2.2,2.3c-0.3,2.1-0.6,4.3,1.8,5.6c2-1,2-1,3.6,0.7c0.4,0.4,0.9,0.7,1.4,0.9c0.5-2.7,2.8-3.4,4.8-4.7&#10;&#9;&#9;c-0.2,1.1-0.9,2.2-0.2,3.2l1-2.7c1.1,0.5,2,1,2.9,1.4c1,0.3,2,0.3,3,0c1-0.2,1.5,0.9,2.2,1.4c0.2,0.2,0.5,0.4,0.7,0.7&#10;&#9;&#9;c0.4,0.5,0.8,1,1.3,1.4c0.6,0.5,1.3,0.8,2.1,1c2.6,0.1,3.8,0.8,4.4,3.3s2.3,3.3,4.3,3.8c0.9,0.2,1.3,0.5,1.1,1.3&#10;&#9;&#9;c2.1,0,4.2-0.4,5.6,1.6c0.1,0.2,0.4,0.4,0.5,0.4c1.3,0.1,2.3,1.2,2.2,2.5c0,0,0,0.1,0,0.1c-0.1,1.1-1,2.1-1.6,3.1s-1.3,1.7-2,2.5&#10;&#9;&#9;c-0.1,0.2-0.1,0.3-0.1,0.5c-0.1,1.7-0.3,3.3-0.6,4.9c-0.4,1.2-0.9,2.3-1.6,3.3c-0.1,0.2-0.5,0.4-0.8,0.5c-1.3,0.5-2.6,0.9-3.8,1.4&#10;&#9;&#9;c-1,0.5-1.6,1.5-1.6,2.6c-0.3,1.2-0.7,2.3-1.4,3.4c-0.2,0.4-0.4,0.8-0.7,1.4l-0.2-1.3c-1.3,2.6-2.4,5.6-6.2,3.1&#10;&#9;&#9;c0.5,0.9,0.8,1.4,1.1,2c0.5,0.8,0.2,1.8-0.6,2.2c-0.2,0.1-0.4,0.2-0.6,0.2c-1,0.3-2,0.4-3.1,0.6c0.1,1.9-0.3,2.2-2.5,1.6&#10;&#9;&#9;c1,2.5-0.3,3.9-2.3,5c0.3,0.3,0.6,0.6,0.9,0.8c1.1,0.6,1.1,0.7,0.1,1.6c-0.7,0.6-1.6,1.2-1.8,2c-0.1,1,0.1,2,0.7,2.8&#10;&#9;&#9;c0.4,0.6,1.4,0.9,2.3,1.5c-1.4,0.1-2.9,0.6-4.2,0.3c-1.4-0.4-2.7-1.1-3.7-2.2c-0.7-0.7-0.7-2-0.9-3.1s-0.3-2.1,1-2.7l-1-0.1l1.2-3&#10;&#9;&#9;l0.3,0l0.2,1.2h0.2l0.5-3.1c-1.3-0.1-1.3-0.9-0.8-1.8c0.1-0.2,0.3-0.4,0.3-0.4c-0.9-2,0.9-3.3,1.1-5s0.3-3.2,0.6-4.9&#10;&#9;&#9;c0.3-2.1,0.7-4.2,0.9-6.3c0.2-1.2,0.3-2.4,0.1-3.6c-0.3-0.9-1-1.7-1.9-2.1c-2.7-0.9-3.4-3.4-4.5-5.5c-0.8-1.7-1.2-3.5-2.7-4.9&#10;&#9;&#9;c-0.6-0.6-0.6-1.5,0-2.1c0,0,0.1-0.1,0.1-0.1c0.3-0.3,0.6-0.6,0.8-1c-1-0.3-1.2-1-0.8-1.8c0.6-1.1,1.3-2.2,2.1-3.2&#10;&#9;&#9;c1.2-1.5,1.1-2.7-0.2-3.8c-0.5-0.6-0.9-1.2-1.1-1.9c-0.2-0.3-0.3-0.6-0.5-1h-0.4l-0.8,1.9c-0.1-0.1-0.4-0.3-0.7-0.5&#10;&#9;&#9;c-0.2-0.2-0.5-0.4-0.8-0.5c-0.6-0.1-1.2-0.1-1.1-1c0,0,0-0.1-0.1-0.1c-1.4-0.4-1.5-1.6-1.9-2.6c-0.5-1.2-1.6-2-2.8-2.2&#10;&#9;&#9;c-1.1-0.3-2.1-1-2.7-2c-0.6-0.7-1.1-1.1-2.1-0.5c-0.4,0.2-0.9,0.2-1.4-0.1c-2-1.1-4-2.3-5.9-3.6c-0.4-0.3-0.7-0.8-0.7-1.4&#10;&#9;&#9;c0.2-1.3-0.2-2.6-1.1-3.6c-1-1.4-2-2.7-2.9-4.2c-0.8-1.2-1.3-2.6-2.1-3.8c-0.3-0.4-0.9-0.7-1.3-1l-0.4,0.3c0.4,0.9,0.9,1.8,1.3,2.6&#10;&#9;&#9;c0.8,1.5,1.6,3.1,2.4,4.6c0.2,0.3,0.4,0.6,0.5,1s0.3,0.9,0.5,1.3l-0.6,0.2c-0.5-1.2-1.1-2.4-1.8-3.6c-0.5-0.6-1.1-1.1-1.8-1.5&#10;&#9;&#9;c0.1-0.8,0.3-1.4,0.1-1.6c-1.4-1.3-1.6-3.1-2.4-4.6c-0.2-0.4-0.5-0.9-0.9-1c-2.1-0.5-2.4-2.4-3.2-3.9c-0.4-0.6-0.7-1.3-1-2&#10;&#9;&#9;c-0.5-1.8-0.7-3.6-0.4-5.5C156.2,200.1,156.1,198.6,155.9,197.1z"/>
	<path class="st0_travel-planning-63" d="M278.4,283.2c-0.9-0.4-1.5-1.4-1.3-2.5c-0.1-1.1-0.5-2.2-1.4-3c-1.2-1.3-1.8-3-1.8-4.7&#10;&#9;&#9;c-0.2-1.7-0.8-3.2-1.8-4.6c-1.4-2.3-0.5-4.4,0.5-6.4c0.4-0.9,0.8-1.5,0.2-2.4c-0.1-0.2-0.2-0.5-0.2-0.8c0.2-2-0.5-4-1.9-5.5&#10;&#9;&#9;c-1.6-1.7-1.6-3.3-1-5.3c0.1-0.7,0-1.4-0.4-1.9c-0.4-0.4-0.9-0.6-1.4-0.5c-1,0.1-1.7,0.1-2.1-1.1s-1.7-0.8-2.6-0.6&#10;&#9;&#9;s-1.8,0.7-2.7,0.9c-0.4,0.1-0.9,0.2-1.3,0.2c-1.1,0-2.3,0.1-3.4,0.3c-0.7,0.3-1.5,0.2-2.1-0.3c-1.1-0.8-2.1-1.7-3.1-2.6&#10;&#9;&#9;c-0.9-1.1-1.6-2.2-2.4-3.4c-0.2-0.2-0.5-0.4-0.7-0.6s-0.5-0.6-0.5-0.9c-0.2-1.4-0.1-2.8,0.3-4.1c0.4-1,0.3-2.2-0.1-3.2&#10;&#9;&#9;c-0.9-1.4,0-2.1,0.5-3.1c0.7-1.3,1.4-2.6,2.2-3.9c0.2-0.3,0.5-0.5,0.8-0.6c1.3-0.4,2.2-1,2.2-2.6c0-1.1,0.6-2,1.5-2.5&#10;&#9;&#9;c0.8-0.6,1.5-1.3,2.1-2.2c1.5,1.2,3.1,0.6,4.7-0.1c1-0.4,2.1-0.7,3.2-0.9c1.5-0.2,3.1-0.3,4.7-0.3c0.6,0,1.2,0.1,1.8,0.2l-1,2.9&#10;&#9;&#9;c0.7,1.4,2.5,0.6,3.8,1.2c0.1,0.1,0.5,0,0.5,0.1c0.3,1.6,1.9,1.2,2.8,1.9s1.2,0.1,1.3-0.7c0.1-1.2,1.1-1.8,2.3-1.3&#10;&#9;&#9;c1.4,0.6,2.7,1,4.1,1.4c0.7,0.1,1.5,0.1,2.1-0.2c0.9-0.2,1.6-0.4,2,0.8c0.5,1.6,1.2,3.2,1.9,4.7c0.6,1.2,1.7,2.4,1.9,3.6&#10;&#9;&#9;c0.2,2,1.5,3.5,2.1,5.2c0.2,0.5,0.5,1,1,1.4c0.7,0.7,1.6,1.4,2.2,2.1c0.4,0.4,0.3,1.1,0.6,1.6c0.2,0.3,0.6,0.5,1,0.5&#10;&#9;&#9;c1.8-0.4,3.5-0.9,5.5-1.4c0,0.9-0.2,1.8-0.5,2.6c-1.4,2.8-2.7,5.5-5.3,7.6c-2,1.6-3.2,4.1-4.7,6.2c-0.1,0.2-0.2,0.7-0.1,0.8&#10;&#9;&#9;c0.9,0.8,0.4,1.8,0.5,2.7s0.7,1.5,0.8,2.4c0.3,1.2,0.3,2.4,0.2,3.6c-0.2,0.8-1,1.5-1.7,2.1c-1,1-2.1,1.8-3.1,2.7&#10;&#9;&#9;c-0.1,0.1-0.1,0.6,0,0.8c0.1,0.5,0.3,0.9,0.5,1.4c0.4,1,0,2.2-1,2.6c-0.1,0-0.1,0.1-0.2,0.1c-0.4,0.2-0.9,0.5-1,0.6&#10;&#9;&#9;c0,0.9,0.1,1.6-0.1,2.1c-1.6,2.5-3.1,5.1-6.1,6c-1.2,0.2-2.5,0.4-3.7,0.4C279.3,282.9,278.8,283,278.4,283.2z"/>
	<path class="st0_travel-planning-63" d="M213.6,174.2l-1.5-1.2l3.2-1.6v-1.3l-2.7-1l0.1-0.4l2.8,0.4l-2.2-1.5c-1.3,0.8-1.7,0.5-1.8-1.5h0.9&#10;&#9;&#9;c-0.6-0.9-1.1-1.7-1.7-2.4c-1.5-2.2-4.2-3.2-6.7-2.4c-0.5,0.2-1,0.3-1.6,0.2c-0.6-0.1-1.6,0.5-1.6-0.8c0-0.2-1.1-0.3-1.7-0.4v-0.5&#10;&#9;&#9;l2.7-0.2l-4.6-1.3c0.3-0.2,0.6-0.4,1-0.6c1.4-0.2,2.7-0.4,4-0.6c0.8-0.1,1.8-0.2,1.8-1.5h-1.9l-0.1-0.5l4.5-1.1l0.1-0.8&#10;&#9;&#9;c0.1,0,0.2-0.1,0.3-0.1c1.3,0.5,2.4-0.5,3.6-0.5c0.7,0,1.4,0.3,1.9,0.8c0.4,0.3,1.1-1.1,2-0.3c0.2,0.2,0.6,0,1,0l-0.5-0.9l4.7,1.2&#10;&#9;&#9;l0.1-0.4c-0.4,0-0.8-0.1-1.1-0.3c-0.3-0.1-0.5-0.4-0.5-0.6c0-0.2,0.4-0.5,0.6-0.5c1.2-0.1,2.4-0.1,3.6-0.2c0.8-0.1,1.7-0.3,2.5-0.3&#10;&#9;&#9;c3.3,0,6.6,0,9.8,0.3c1.5,0.2,3,0.6,4.4,1.1l-3.5,0.6v0.6c0.3,0,0.6,0,1,0c0.6,0,1.2-0.1,1.7-0.2l-0.7,1.1c1.5-0.2,3-0.5,4.4-0.9&#10;&#9;&#9;c1.6-0.6,3.5-0.5,5,0.3c-2.8,1.4-5.9,2.2-7.7,4.9c0.7-0.1,1.3,0,2,0.1c0.4,0.2,0.6,0.8,1,1.4l-2,0.1c-0.1,0.8,1.9,1.3,0.4,2.4&#10;&#9;&#9;l0.9,0.9l-2,0.3l0.9,1h-3.1c-0.6,0.8-0.5,1.4,0.7,1.9c1.1,0.3,1.7,1.4,1.4,2.5c0,0,0,0,0,0l-2.7-1.1l-0.9,1.1l3.4,0.4&#10;&#9;&#9;c-2.6,1.5-5,2.8-7.8,2.9c-0.5,0-1,0.6-1.4,1c-1.2,1.6-2.6,2.8-4.7,2.6c-0.3,0-1,0.7-0.9,1.1c0.2,1.1-0.4,2.1-1.3,2.7&#10;&#9;&#9;c-0.1,0.1-0.2,0.3-0.2,0.5c-0.2,1-0.5,2-0.7,3s-0.8,0.8-1.4,0.5c-0.8-0.3-1.6-0.7-2.4-1.1c-0.5-0.3-1-0.7-1.3-1.3&#10;&#9;&#9;c-1.1-2-2.1-4.1-3.2-6.2C213.6,175,213.5,174.6,213.6,174.2z"/>
	<path class="st0_travel-planning-63" d="M384.4,263.1c0.5,0.5,1,0.8,1.2,1.2c0.4,0.6,0.6,1.2,0.7,1.9c-0.1,1.5,1.1,2.1,1.9,2.9&#10;&#9;&#9;c0.2,0.1,0.3,0.3,0.4,0.4c0.3,0.8,0.9,1.4,1.5,1.9c1.1,0.7,1.7,2.2,2.2,3.5c0.7,1.9,0.5,4-0.6,5.7c-1,1.5-1.7,3.2-2.2,5&#10;&#9;&#9;c-0.1,0.5-3.3,1.4-3.8,1.2c-0.2-0.1-0.5-0.2-0.7-0.4c-1.4,0.8-3.2,0.4-4-1c-0.1-0.2-0.2-0.4-0.3-0.6c-0.4-0.7-0.8-1.3-1.4-1.9&#10;&#9;&#9;l-0.5,0.4l0.4-2l-1.8,2c-0.6-0.9-0.9-2.1-1.7-2.6c-1-0.6-2.1-0.8-3.2-0.7c-1.5,0.1-3,0.5-4.4,1.2c-1.1,0.5-1.9,1.2-3.2,1&#10;&#9;&#9;c-0.8,0-1.7,0.3-2.3,0.8c-0.8,0.6-1.8,0.4-2.5-0.3c-0.2-0.3-0.3-0.7-0.2-1c0-0.6,0.4-1.2,0.2-1.8c-0.3-1.2-0.7-2.3-1.2-3.4&#10;&#9;&#9;c-0.2-0.6-0.6-1.2,0-1.8c0.1-0.1-0.2-0.5-0.2-0.8c-0.1-0.9-0.5-2.2-0.1-2.8c0.6-0.8,1.8-1.1,2.8-1.6c1.4-0.8,3.5-0.2,4.2-2.3&#10;&#9;&#9;c0-0.3,0.1-0.6,0.2-0.9c0.1-0.3,0.3-0.5,0.5-0.7l0.5,0.4c0.7-0.9,1.4-1.7,2.2-2.5c0.9-0.8,1.5-0.3,1.9,1.1c0.5-0.7,1-1.4,1.5-2&#10;&#9;&#9;c0.6-0.4,1.1-0.8,1.8-1.2c0.2-0.2,0.4-0.4,0.6-0.6l3.5,0.9c0-0.1,0,0,0,0c-1.4,2.1-1.4,2.1,0.7,3.6c0.4,0.3,0.8,0.5,1.2,0.8&#10;&#9;&#9;s0.7,0.5,1.5,1c0.2-1.4,0.4-2.5,0.6-3.6s0.4-2.3,0.5-3.4h0.5L384.4,263.1z"/>
	<path class="st0_travel-planning-63" d="M195.2,171.5c0.1-1.6-1.3-1.5-2-2.2c-0.4,0.8-0.6,1.7-1.6,0.8c-0.2-0.2-0.7-0.1-1-0.1c-1.7-0.2-3.3-0.4-5-0.6&#10;&#9;&#9;c-0.3,0-0.6-0.4-1-0.6l1.5-0.5c-1.4-0.3-2.6-0.4-2-1.9c0.5-1.5,2-2.3,3.5-1.8c-0.3,0.6-0.9,1.3-0.8,1.9s0.7,1.2,1.1,1.8&#10;&#9;&#9;c-0.4-2.9-0.2-3.4,1.8-3.6c1.1-0.1,1.5,0.5,1.6,2.2c1.7-1,3.9-0.9,5.5,0.4c0.4,0.2,0.9,0.3,1.4,0.4c0.1,0,0.3,0,0.4,0&#10;&#9;&#9;c0.9,0.4,1.8,0.9,2.7,1.5c0.6,0.6,1.2,1.2,1.7,1.9l-1.2,0.2l-0.1,0.3l5.5,2.9L205,177l-2.7-2.4l-0.5,1.3c1,1,2.9,1.6,2.5,4&#10;&#9;&#9;l-1.6-0.1l0.7,1.6c-1.9-0.8-3.8-0.9-5-2.6c-0.7-1-2-1.4-3.2-1.1c-0.5,0-1-0.1-1.5-0.2c0.1-0.4,0.1-0.9,0.2-1.3&#10;&#9;&#9;c0-0.3,0.1-0.5,0.3-0.7c0.2-0.3,0.5-0.6,0.9-0.8c0.1-0.1,0.5,0.3,0.7,0.4l-0.9,1.2l2-0.2v-0.3l-0.6-0.2c0.3-1,2.3-1.1,1.6-2.6&#10;&#9;&#9;C197.5,171.9,196.3,171.3,195.2,171.5z"/>
	<path class="st0_travel-planning-63" d="M186.4,154.6c-1.2,0.8-2.4-0.5-3.8-1.5c1.9-0.3,3.9-0.5,5.8-0.6c1.8,0,3.5-0.4,5.2-0.9&#10;&#9;&#9;c1.3-0.2,2.6-0.3,3.9-0.1c2.4,0.1,4.8,0.2,7.2,0.3c0.8,0.2,1.5,0.4,2.2,0.7c-0.5,0.3-1,0.5-1.4,0.7c-2.1,0.9-4.2,1.8-6.3,2.6&#10;&#9;&#9;c-0.4,0.2-0.9,0.3-1.4,0.4c-1.2,0.1-2.1,1-2.2,2.2l-3,1.2l1.3,0.8c-1.1,0.2-2,1.2-3.1,0.1c-0.1-0.1-0.5,0-0.8,0.1&#10;&#9;&#9;c-2,0.4-4.2,0.3-6.2-0.3l2.1-0.6l-0.3-0.7l1.9,0.1l0.1-0.3l-1.6-0.8c1-1.5,2.3-0.2,3.6-0.5l-2.9-1.8c0.3-0.3,0.3-0.3,0.4-0.3&#10;&#9;&#9;c1.8,0.7,3.4-0.4,5.2-0.4C190.5,153.9,188.5,155.4,186.4,154.6z"/>
	<path class="st0_travel-planning-63" d="M161.8,169.6l3.8-0.2v-0.2c-0.8-0.1-1.5-0.2-2.3-0.2s-1.5,0-2.3,0v-0.4l1.6-0.6l-2.2-0.5c0.8-1.7,2.3-2,4-2.2&#10;&#9;&#9;l-0.1,0.9c0.2,0,0.4,0,0.4,0c0.7-0.7,1.3-0.4,2,0.1s0.9-1,1.6-0.2c0.4,0.5,0.8,1,1.4,1.4l-0.5-2.2h2c0.3,1.1,0.8,2.2,1.4,3.1&#10;&#9;&#9;c0.6,0.8,1.8,1.1,2.6,1.9l-1.3,0.1l0.6,1c-0.7,0.1-1.5,0.1-2.2,0c-1.7-0.6-3.1,0.1-4.7,0.5c-0.9,0.2-2.1,0.7-2.7-0.7&#10;&#9;&#9;c-0.1-0.2-0.5-0.2-0.8-0.3l-2.2-0.6L161.8,169.6z"/>
	<path class="st0_travel-planning-63" d="M387.9,255.9l-1,0.7l3.1,3.2c-1.3-0.2-2.6-0.4-3.5-1.9c-0.3-0.7-1.1-1-1.8-0.7c-0.4,0.2-0.6,0.5-0.8,0.8&#10;&#9;&#9;c-0.2,0.6-0.9,0.9-1.5,0.7c-0.2-0.1-0.3-0.1-0.4-0.3c-0.8-1-1.7-0.9-3.1-0.5l1.1-1.6c-0.2-1-1-1.9-2-2.1c-1-0.2-2-0.5-2.9-0.9&#10;&#9;&#9;c-0.3-0.1-0.5-0.6-0.8-0.9l1-0.5l-2.6-1.2c0.5-0.3,1.1-0.5,1.7-0.6c0.6-0.2,1.3,0.1,1.5,0.8c0,0.1,0,0.1,0,0.2&#10;&#9;&#9;c0.2,0.6,0.4,1.2,0.6,1.9l0.4,0.1c0.2-0.3,0.4-0.6,0.6-0.9c0.8-0.7,1.5-1.3,2.8-0.4c1,0.7,2.5,0.7,3.6,1.3&#10;&#9;&#9;C385.5,254,386.7,254.9,387.9,255.9z"/>
	<path class="st0_travel-planning-63" d="M354.9,247.8l1.3,0.4l5.5-5.2l1.6,1.6c-1.6,1.5-1.7,2.6-0.2,4.1c-1.2,0.5-2.1,2.6-2.1,4.8l-5.2-1&#10;&#9;&#9;C355.6,251,354.2,249.7,354.9,247.8z"/>
	<path class="st0_travel-planning-63" d="M299.4,265.2c2.7,0.1,2.9-2.4,4.4-3.5c0.9,0.8,1.1,2.1,0.4,3.1c-0.1,0.1-0.1,0.4-0.1,0.6&#10;&#9;&#9;c-0.7,2.6-1.4,5.2-2.2,7.8c-0.3,0.8-1.2,1.2-2,0.9c-0.2-0.1-0.4-0.2-0.5-0.3c-0.8-0.7-1-2.7-0.5-3.7c0.3-0.8,0.4-1.6,0.5-2.4&#10;&#9;&#9;C299.4,266.9,299.4,266.1,299.4,265.2z"/>
	<path class="st0_travel-planning-63" d="M258.8,187.8l-1.1-0.3c0-0.6,0-1.1,0-1.6c0.1-0.2,0.2-0.4,0.3-0.5c0.7,0.3,1.1-0.2,1-0.6s-0.8-0.7-1.2-1&#10;&#9;&#9;c-0.1-0.1-0.3,0-0.5-0.1l0.2-0.9c-1.2-1.1-1.6-2-1.3-2.4c0.7-1,2.2-1.6,2.8-1.1c1.1,0.7,1.1,1.2,0.3,2.6l3,4.1&#10;&#9;&#9;c0.3,0,0.5,0.1,0.7,0.3c0.1,0.1-0.2,0.6-0.3,1s-0.2,0.6-0.5,1.2l-5.4,0.9L258.8,187.8z"/>
	<path class="st0_travel-planning-63" d="M351.9,255.4l-1.5-0.1c-1.2-1.7-2.5-3.6-3.8-5.5s-2.5-3.6-3.9-5.5c2.8,0.3,3.9,2.5,5.6,3.8&#10;&#9;&#9;c1.2,1,2.1,2.1,2.8,3.5c0.2,0.4,0.8,0.4,1.2,0.6L351.9,255.4L351.9,255.4z"/>
	<path class="st0_travel-planning-63" d="M310.8,164.7c-2.2,0.1-4.1-0.1-5.5-1.5c1.2-0.9,2.2-2,3.3-3.1c1.1-1.4,2.8-1.7,4.3-2.1s3.3-0.4,5-0.7&#10;&#9;&#9;c0.8-0.2,1.5-0.4,2.2-0.6l0.2,0.5c-0.4,0.3-0.8,0.5-1.2,0.7c-1.6,0.2-3.1,0.5-4.6,0.9c-2,0.7-3.8,1.9-5.2,3.5c-0.2,0.2,0,1,0.2,1.4&#10;&#9;&#9;S310.2,164.3,310.8,164.7z"/>
	<path class="st0_travel-planning-63" d="M239.2,178.6l-1.9-0.6l1.8-0.9h-1.9l-0.2-0.2l1.8-1l-0.1-0.4l1,1.3l4.1-1l0.1-0.4c0.7,0.5,1.4,1.2,1.9,1.9&#10;&#9;&#9;c0.6,1-0.6,1.3-1.1,1.8c-0.7,0.5-1.5,0.9-2.3,1.1c-0.5,0.1-1.1,0.1-1.6,0c-0.8-0.2-1.6-0.5-2.4-0.7L239.2,178.6z"/>
	<path class="st0_travel-planning-63" d="M376.8,208l-3.3,0.8c1-1.6,1.5-1.9,4-1.9c0.2-0.4,0.4-0.7,0.6-1.1s0.3-0.7,0.3-0.7c0.5,0,1.2,0.1,1.2-0.1&#10;&#9;&#9;c0.5-1,0.9-2.1,1.3-3.1c0.2-0.7,0-1.7,1.3-1.6c0.7,1.1,0.7,2.4,0,3.5c-0.4,0.8-0.6,1.7-0.4,2.6c0.1,1.4-1.1,1.4-1.7,1.6&#10;&#9;&#9;c-1.1,0.3-2,0.6-2.4,1.9l-0.4-0.1L376.8,208z"/>
	<path class="st0_travel-planning-63" d="M155.8,163.4c2.5-0.1,5,0.3,7.4,1.1c-1.3,0.8-2.4,1.4-3.4,2.1s-1.7,1.2-2.4,1.7l-2.3-1.5&#10;&#9;&#9;C155.2,165.9,156.6,165.1,155.8,163.4z"/>
	<path class="st0_travel-planning-63" d="M180.8,157.4l0.7-0.6l-2.9-0.6c0.6-1.5,1.2-2.3,2.7-2.1c0.4,0.1,0.7,0.2,1.1,0.4c0.4,0.2,0.8,0.3,1.2,0.3&#10;&#9;&#9;c0.6,0.6,1,1.4,2,0.7l1.3,1.1C185.4,158.5,183.6,158.8,180.8,157.4z"/>
	<path class="st0_travel-planning-63" d="M271,153.6l4.4,0.4l-0.5-1l7.4,2.9v0.5h-2.6c-0.2-0.4-0.2-0.8-0.4-0.9c-0.3-0.1-0.6-0.1-0.9,0&#10;&#9;&#9;c-0.8,0.5-1.5,1.2-2.4,1.9l-2.1-0.5l0.9-0.5l-1.3-0.1l0-0.2l1.7-0.6l0-0.4c-0.7,0.2-1.4,0.3-2.1,0.3c-0.7-0.3-1.4-0.7-1.9-1.3&#10;&#9;&#9;L271,153.6z"/>
	<path class="st0_travel-planning-63" d="M181.8,160.7l1.1-0.3v0.7c3,2.1,6.3,0,9.5,1c-0.6,1.4-1.6,1.5-2.8,1.2c-0.4,0-0.9,0-1.3,0.1&#10;&#9;&#9;c-1.9,0-3.7,0-5.5-0.2c-0.3,0-0.6-0.6-0.8-1C181.9,161.7,181.8,161.2,181.8,160.7z"/>
	<path class="st0_travel-planning-63" d="M162.9,161.9l-0.4,0.1c-0.1,0-0.2,0-0.4,0s0-0.2,0-0.3c1.3-1.7,2.8-0.7,4.2-0.2l2.1,0.8l-0.8-1.6l0.9-0.6&#10;&#9;&#9;c0.1,0.1,0.3,0.2,0.3,0.3c0.3,0.7,0.5,1.6,1.6,0.9c0.2-0.1,0.8,0.2,0.8,0.5s-0.2,0.8-0.4,0.8c-2.1,0.4-4.1,0.7-6.2,1&#10;&#9;&#9;c-0.1,0-0.2-0.2-0.5-0.4l2.1-0.5v-0.3l-4.6,0.4l-0.1-0.2l1.4-0.5L162.9,161.9z"/>
	<path class="st0_travel-planning-63" d="M403.5,293.9l5.7-4.9c0.3,0.1,0.5,0.2,0.7,0.4c0.2,0.2,0.4,0.6,0.3,0.7c-0.6,0.6-0.6,1.8-1.8,2&#10;&#9;&#9;c-0.3,0.1-0.5,0.2-0.6,0.5C406.3,294.8,406.3,294.8,403.5,293.9z"/>
	<path class="st0_travel-planning-63" d="M365.5,251.6l1,2.2l-0.9,0.6l-1-2.1c0,2.3,0,2.4-0.8,2.9c-0.2-0.8-0.4-1.7-0.5-2.5l-0.3,0.1&#10;&#9;&#9;c0.4-1.4,0.9-2.9,1.3-4.3c1.3-0.2,2.9,1.3,4.2-0.6c-0.4,1.4-0.6,1.5-1.7,1.5c-0.6-0.1-1.2-0.1-1.9,0c-1.2,0.4-0.4,1-0.2,1.6&#10;&#9;&#9;l2.2-0.7l0.1,0.3L365.5,251.6z"/>
	<path class="st0_travel-planning-63" d="M253,187v-2.1c0.5-0.5,1-0.9,1.4-1.3c0.7-0.8,1.5-0.2,2.1,0c0.6,0.2,0.5,0.8-0.1,1.2c-0.1,0.1-0.1,0.3-0.1,0.4&#10;&#9;&#9;c0,0.5,0.1,1.3-0.1,1.5c-0.9,0.4-1.9,0.8-2.8,1c-0.2,0-0.5-0.4-0.7-0.5L253,187z"/>
	<path class="st0_travel-planning-63" d="M178.2,164.7l-0.9,0.7l1.3,0.6c0.4,1.4-1,1.4-1.6,1.9c-0.1,0.1-0.7-0.4-1.1-0.6l-2.3-1.3l0.1-0.4l2,0.4l-1-1.1&#10;&#9;&#9;C175.9,163.9,177.3,163.8,178.2,164.7z"/>
	<path class="st0_travel-planning-63" d="M384.7,190.5l-1.1,0.1c0.1,1.2,0.2,2.3,0.4,3.4h-1.1c0.7-3.1-1-6.4,0.8-9.9C384,186.3,384.3,188.4,384.7,190.5&#10;&#9;&#9;z"/>
	<path class="st0_travel-planning-63" d="M351.9,255.4c0.8,0.3,1.6,0.5,2.4,0.6c1.3,0.1,2.6,0.1,3.9,0.2c0.3,0,0.6,0.1,0.9,0.3l-0.8,0.4l2,0.8v0.3&#10;&#9;&#9;c-1,0-2-0.1-3-0.2c-1.6-0.2-3.1-0.6-4.6-1c-0.5-0.1-0.9-0.6-0.8-1.2C351.9,255.5,351.9,255.4,351.9,255.4L351.9,255.4z"/>
	<path class="st0_travel-planning-63" d="M382,198.6l-0.6,1.4c-0.5-1.7-0.3-2.2,0.9-2.3l0.4-2.9c1,0.6,1.3,2.3,2.9,1.8l0.3,1.2l-2.2,1.3L382,198.6z"/>
	<path class="st0_travel-planning-63" d="M381.4,159.6c-0.7,0-1.4-0.1-2.1-0.2c-0.2,0-0.6-0.5-0.5-0.7s0.4-0.5,0.7-0.7c0.1-0.1,0.3-0.1,0.5-0.1&#10;&#9;&#9;c1.5,0.6,3.1,0.1,4.6,0.1c0.3,0,0.6,0.4,0.9,0.6c-0.3,0.2-0.5,0.6-0.8,0.7C383.6,159.4,382.5,159.5,381.4,159.6z"/>
	<path class="st0_travel-planning-63" d="M414.1,286c-0.1,0.3-0.3,0.7-0.5,1c-0.6,0.9-1.3,1.7-2,2.6c-0.1,0.1-0.4,0-0.3-0.2l-1-1.9l0.9-2.3&#10;&#9;&#9;c0.9-0.4,1.5,2.1,2.9,0.4L414.1,286z"/>
	<path class="st0_travel-planning-63" d="M174.2,161.4l-0.1-0.8l1.6,0.8l-0.4-0.9c0.6-0.1,1.2-0.1,1.8,0c0.2,0.1,0.5,0.7,0.5,1s-0.4,1.2-0.6,1.3&#10;&#9;&#9;c-0.5,0.1-1-0.3-1.6-0.5c-0.4-0.1-0.7-0.2-1.1-0.3c-0.4-0.1-0.8-0.2-1.1-0.4c-0.4-0.2-0.7-0.5-1-0.8c0.2-0.2,0.4-0.5,0.5-0.5&#10;&#9;&#9;c0.4,0.2,0.8,0.5,1.1,0.8c0.1,0.1,0.2,0.2,0.2,0.3L174.2,161.4z"/>
	<path class="st0_travel-planning-63" d="M189,229.1c0.8-1.5,2.6-2.1,4.2-1.4c1.6,0.8,3.2,1.7,5,2.7l-2.5,0.3c-0.6-0.6-0.9-1.3-1.4-1.6&#10;&#9;&#9;c-1-0.5-2-0.9-3.1-1C190.5,228,189.8,228.7,189,229.1z"/>
	<path class="st0_travel-planning-63" d="M364.3,231.7c1.9,0.6,2.2,1.4,1.5,2.5s-0.4,1.6,0.9,1.8c0.4,0.1,0.8,0.2,1.1,0.4l-0.5,1&#10;&#9;&#9;c-0.9-0.8-2.3-0.6-3-1.8C363.2,234.1,365.2,233.2,364.3,231.7z"/>
	<path class="st0_travel-planning-63" d="M183.4,164.4c-0.1,1-0.9,1.7-1.9,1.6c0,0,0,0-0.1,0c-0.2,0-0.5,0.1-0.5,0.1c-0.2,1.1-0.9,0.7-1.2,0.3&#10;&#9;&#9;s-0.5-1.5-0.2-1.9c0.6-0.4,1.3-0.6,2-0.5C182.2,164,182.8,164.2,183.4,164.4z"/>
	<path class="st0_travel-planning-63" d="M368.7,243.1l0.2,1l-0.4,0.2l-1.5-1.9l-1.1,0.2l-0.2-0.3l3.5-2l0.2,2.7L368.7,243.1z"/>
	<path class="st0_travel-planning-63" d="M345.1,152.7l-5.8,1.3c0.1-0.4,0-0.9,0.2-1C341.2,152,343,151.4,345.1,152.7z"/>
	<path class="st0_travel-planning-63" d="M157.4,161c0.9-0.5,1.8-1,2.8-1.4c0.9-0.2,1.9-0.4,2.9-0.5l0.2,0.5c-0.4,0.4-0.9,0.9-1.4,1.2&#10;&#9;&#9;c-0.1,0-0.5-0.3-0.7-0.5C160.1,161.5,157.8,161.9,157.4,161z"/>
	<path class="st0_travel-planning-63" d="M198,231.8l2,0.2l-1-1.2c2-0.5,4.1,0.2,4,1.4C201.3,232.1,199.6,232.9,198,231.8z"/>
	<path class="st0_travel-planning-63" d="M192,179.9c-0.7,0-1.4,0.3-1.6,0c-0.7-0.6-1.2-0.1-1.9,0.1c-0.7,0.1-1.4,0.1-2.1,0c1.4-2.2,1.8-2.4,3.5-1.4&#10;&#9;&#9;l0.4,0.2L192,179.9z"/>
	<path class="st0_travel-planning-63" d="M347,153.2l-0.4,1.3c-2.8,0.4-3.6,0.3-5-0.9L347,153.2z"/>
	<path class="st0_travel-planning-63" d="M284.5,153.8c-1.3,0.1-2.7,0.2-4,0.2c-1-0.2-2-0.5-2.9-1h7L284.5,153.8z"/>
	<path class="st0_travel-planning-63" d="M176.4,158.8l-4.6-0.9l1-0.4l-1.5-0.4l0.1-0.4c0.6,0.1,1.2,0.1,1.8,0.2c0.6,0.1,1.2,0.3,1.8,0.6&#10;&#9;&#9;c0.6,0.3,1.1,0.6,1.6,1L176.4,158.8z"/>
	<path class="st0_travel-planning-63" d="M351.6,155.4l-5.1,0.4l-0.2-0.2c0.8-0.5,1.6-1.3,2.5-1.4c1,0.1,2,0.3,2.9,0.8L351.6,155.4z"/>
	<path class="st0_travel-planning-63" d="M330.2,240.2c0.5,0.8,1,1.6,1.4,2.5c0.1,0.3-0.4,1-0.8,1.2c-0.7,0.3-1-0.2-1-1s0-1.7,0-2.5L330.2,240.2z"/>
	<path class="st0_travel-planning-63" d="M386.6,291.9l-1.3-2.9c0.8-0.1,1.6,0,2.4,0.1c0.2,0,0.6,0.8,0.5,1.1C387.6,290.8,387.1,291.4,386.6,291.9z"/>
	<path class="st0_travel-planning-63" d="M373,209c1.5,1.2,1.4,2.6-0.2,3.5l0.1-2l-0.6-0.4L373,209z"/>
	<path class="st0_travel-planning-63" d="M308.6,152l3.5-1.1l0.2,0.2c-0.3,0.4-0.6,1.2-1,1.3c-0.9,0.1-1.8,0.1-2.8,0.1L308.6,152z"/>
	<path class="st0_travel-planning-63" d="M268.8,200.6l0.9-0.4c0.1,0.2,0.3,0.5,0.2,0.7c-0.3,0.7,0.4,1.9-1.1,2L268.8,200.6z"/>
	<path class="st0_travel-planning-63" d="M274.4,205.7l-2.2-1.4l0.1-0.3h2.5L274.4,205.7z"/>
	<path class="st0_travel-planning-63" d="M191.3,164.4l3.4,0.6l-0.1,0.5C193.5,165.2,192,166.7,191.3,164.4z"/>
	<path class="st0_travel-planning-63" d="M176.9,157.2c1.1,0.2,1.9,0.3,2.6,0.5c0.1,0.1,0.2,0.3,0.2,0.4c-0.1,0.2-0.2,0.3-0.4,0.4&#10;&#9;&#9;C178.3,158.9,177.6,158.6,176.9,157.2z"/>
	<path class="st0_travel-planning-63" d="M365.9,225.3l-1.1,3.3C363.9,227.2,364.1,226.3,365.9,225.3z"/>
	<path class="st0_travel-planning-63" d="M388.5,255c0.6,0.1,1.1,0.1,1.7,0c0.5-0.2,0.8-0.8,1.4-1c-0.2,0.4-0.4,0.8-0.7,1.2c-0.5,0.6-1.5,0.7-2.1,0.1&#10;&#9;&#9;C388.7,255.3,388.6,255.1,388.5,255z"/>
	<path class="st0_travel-planning-63" d="M178.5,162.5l2.2-0.8l0.2,1.4c-0.5,0-0.9,0-1.4,0c-0.3-0.1-0.7-0.2-1-0.3L178.5,162.5z"/>
	<path class="st0_travel-planning-63" d="M370.2,257.9l-3.4,2.3C367.4,258.4,368.4,257.7,370.2,257.9z"/>
	<path class="st0_travel-planning-63" d="M177.5,173l1.9,1.1l-0.1,0.3l-3-0.3L177.5,173z"/>
	<path class="st0_travel-planning-63" d="M178.4,159.9l2.8,0.2c-1,1.2-1.9,0.5-2.8,0.1L178.4,159.9z"/>
	<path class="st0_travel-planning-63" d="M164.8,158.8l2.8-0.4C167.1,159.6,166.2,159.8,164.8,158.8z"/>
	<path class="st0_travel-planning-63" d="M376.2,208.4c0.8,1.8-1.3,1.1-1.3,2C374.2,209,375.7,209.1,376.2,208.4z"/>
	<path class="st0_travel-planning-63" d="M373.3,253.2h-2.6c0.1-0.3,0.2-0.8,0.4-0.8C371.9,252.4,372.9,252.2,373.3,253.2z"/>
	<path class="st0_travel-planning-63" d="M312.3,152.2l2.1-0.2l0.1,0.6l-2.1,0.3L312.3,152.2z"/>
	<path class="st0_travel-planning-63" d="M180.7,321.1c-0.4,0-0.7-0.3-0.7-0.7l0,0V118.7c0-0.4,0.3-0.7,0.7-0.7c0.4,0,0.7,0.3,0.7,0.7c0,0,0,0,0,0&#10;&#9;&#9;v201.7C181.4,320.8,181.1,321.1,180.7,321.1z"/>
	<path class="st0_travel-planning-63" d="M266.8,321.1c-0.4,0-0.7-0.3-0.7-0.7v0V118.7c0-0.4,0.3-0.7,0.7-0.7c0.4,0,0.7,0.3,0.7,0.7c0,0,0,0,0,0v201.7&#10;&#9;&#9;C267.5,320.8,267.2,321.1,266.8,321.1z"/>
	<path class="st0_travel-planning-63" d="M352.9,321.1c-0.4,0-0.7-0.3-0.7-0.7v0V118.7c0-0.4,0.3-0.7,0.7-0.7c0.4,0,0.7,0.3,0.7,0.7c0,0,0,0,0,0v201.7&#10;&#9;&#9;C353.6,320.8,353.3,321.1,352.9,321.1z"/>
</g>
<g id="Character_travel-planning-63">
	<polygon class="st2_travel-planning-63" points="179.9,377.7 213.8,389.7 222.9,338.1 &#9;"/>
	<path class="st2_travel-planning-63" d="M213.8,390.4c-0.1,0-0.2,0-0.2,0l-33.9-12c-0.2-0.1-0.4-0.3-0.4-0.5c-0.1-0.2,0-0.5,0.2-0.7l43-39.6&#10;&#9;&#9;c0.3-0.3,0.7-0.2,1,0.1c0.1,0.2,0.2,0.4,0.2,0.6l-9.1,51.5c0,0.2-0.2,0.4-0.3,0.5C214,390.3,213.9,390.4,213.8,390.4z M181.2,377.5&#10;&#9;&#9;l32,11.3l8.6-48.7L181.2,377.5z"/>
	<path class="st1_travel-planning-63" d="M164,343.3c0,0,16-8.1,24.1-4s12.9,4,12.6,7s-4.1,3-4.1,3s4.8,2.2,1.8,4.2c-1.7,1.2-3.8,1.8-5.9,1.7&#10;&#9;&#9;c0,0,7.8,2.6,4.1,4.8s-11.6,1.6-14.3,2.1s-26.7,8.2-26.7,8.2L164,343.3z"/>
	<path class="st2_travel-planning-63" d="M155.7,371c-0.4,0-0.7-0.3-0.7-0.7c0-0.1,0-0.1,0-0.2l8.3-26.9c0.1-0.2,0.2-0.3,0.4-0.4&#10;&#9;&#9;c0.7-0.3,16.4-8.2,24.8-4.1c2.4,1.2,4.9,2.2,7.4,3.1c3.6,1.4,5.8,2.2,5.5,4.6c-0.2,1.5-1.3,2.8-2.8,3.2c0.8,0.5,1.3,1.3,1.5,2.2&#10;&#9;&#9;c0,0.9-0.4,1.8-1.2,2.2c-1,0.7-2.2,1.3-3.4,1.5c1.4,0.7,2.8,1.7,2.9,2.9c0.1,0.5-0.1,1.4-1.3,2.1c-2.7,1.6-7.3,1.8-10.9,1.9&#10;&#9;&#9;c-1.2,0-2.4,0.1-3.6,0.2c-2.6,0.5-26.4,8.1-26.6,8.2C155.8,371,155.7,371,155.7,371z M164.6,343.9l-7.8,25.4&#10;&#9;&#9;c5.1-1.6,23.1-7.4,25.5-7.9c1.3-0.2,2.5-0.3,3.8-0.3c3.3-0.1,7.8-0.3,10.2-1.7c0.2-0.1,0.7-0.4,0.6-0.7c-0.1-0.8-2.4-2.1-4.6-2.8&#10;&#9;&#9;c-0.3-0.1-0.5-0.5-0.5-0.8c0.1-0.4,0.4-0.6,0.8-0.5c1.9,0.1,3.8-0.4,5.4-1.6c0.5-0.3,0.7-0.6,0.7-0.9c-0.1-0.7-1.4-1.7-2.4-2.1&#10;&#9;&#9;c-0.3-0.2-0.5-0.6-0.3-0.9c0.1-0.2,0.4-0.4,0.6-0.4c0.1,0,3.1,0,3.4-2.3c0.1-1.2-1-1.8-4.6-3.1c-2.6-0.9-5.1-2-7.6-3.2&#10;&#9;&#9;C180.6,336.3,166.7,342.8,164.6,343.9L164.6,343.9z"/>
	<polygon class="st1_travel-planning-63" points="179.9,377.7 192.2,319.5 229.3,326 218.1,383.6 &#9;"/>
	<path class="st2_travel-planning-63" d="M218.1,384.3L218.1,384.3l-38.3-5.8c-0.2,0-0.4-0.1-0.5-0.3c-0.1-0.2-0.1-0.4-0.1-0.5l12.4-58.2&#10;&#9;&#9;c0.1-0.4,0.4-0.6,0.8-0.5l37.1,6.5c0.2,0,0.3,0.1,0.4,0.3c0.1,0.2,0.1,0.3,0.1,0.5l-11.3,57.5C218.7,384,218.4,384.3,218.1,384.3z&#10;&#9;&#9; M180.7,377.2l36.8,5.6l11-56.2l-35.7-6.3L180.7,377.2z"/>
	<path class="st0_travel-planning-63" d="M204.6,362.8c-5.5,0-9.9-4.4-9.9-9.9s4.4-9.9,9.9-9.9s9.9,4.4,9.9,9.9c0,0,0,0,0,0&#10;&#9;&#9;C214.5,358.4,210.1,362.8,204.6,362.8z M204.6,344.4c-4.7,0-8.5,3.8-8.5,8.5s3.8,8.5,8.5,8.5s8.5-3.8,8.5-8.5l0,0&#10;&#9;&#9;C213.1,348.2,209.3,344.4,204.6,344.4z"/>
	<path class="st1_travel-planning-63" d="M182.2,341.3c0,0,18,1.6,16.2,5s-13.3,2.6-13.3,2.6s-0.2,7.5-6.3,6.5"/>
	<path class="st2_travel-planning-63" d="M179.9,356.1c-0.4,0-0.8,0-1.2-0.1c-0.4-0.1-0.6-0.4-0.6-0.8c0,0,0,0,0,0c0.1-0.4,0.4-0.6,0.8-0.6c0,0,0,0,0,0&#10;&#9;&#9;c1.2,0.3,2.4,0,3.4-0.8c1.9-1.6,2-5,2-5c0-0.2,0.1-0.4,0.2-0.5c0.1-0.1,0.3-0.2,0.5-0.2c4.2,0.3,11.4-0.1,12.6-2.3&#10;&#9;&#9;c0.1-0.1,0.1-0.2,0-0.3c-0.9-1.7-9.7-3.2-15.7-3.7c-0.4,0-0.7-0.4-0.6-0.7c0,0,0,0,0,0c0-0.4,0.4-0.7,0.8-0.6c0,0,0,0,0,0&#10;&#9;&#9;c2.5,0.2,15.2,1.5,16.8,4.4c0.3,0.5,0.3,1.1,0,1.6c-1.7,3.3-10.5,3.2-13.2,3c-0.2,2-1,3.9-2.5,5.4&#10;&#9;&#9;C182.3,355.8,181.1,356.2,179.9,356.1z"/>
	<path class="st0_travel-planning-63" d="M211.1,374.2L211.1,374.2l-21.4-3.2c-0.4-0.1-0.6-0.4-0.6-0.8c0.1-0.4,0.4-0.6,0.8-0.6l21.3,3.2&#10;&#9;&#9;c0.4,0.1,0.6,0.4,0.6,0.8C211.7,373.9,211.4,374.2,211.1,374.2L211.1,374.2z"/>
	<path class="st0_travel-planning-63" d="M219.6,331.4h-0.1l-19.2-3.3c-0.4-0.1-0.6-0.4-0.5-0.8c0.1-0.4,0.4-0.6,0.8-0.6l19.2,3.2&#10;&#9;&#9;c0.4,0.1,0.6,0.4,0.6,0.8c0,0,0,0,0,0C220.2,331.1,219.9,331.4,219.6,331.4z"/>
	<path class="st0_travel-planning-63" d="M214.9,335.6h-0.1l-13.1-2.3c-0.4-0.1-0.6-0.4-0.6-0.8c0.1-0.4,0.4-0.6,0.8-0.6c0,0,0,0,0,0l13.1,2.3&#10;&#9;&#9;c0.4,0.1,0.6,0.4,0.6,0.8C215.6,335.4,215.3,335.6,214.9,335.6L214.9,335.6z"/>
	<path class="st0_travel-planning-63" d="M207.6,350.9c-0.8,0.4-1,1-1.5,0.2c-0.3-0.4,0.1-1.3-0.5-1.6s-2.3,1-1.9,1.6c-0.5-0.7-1-1.4-1.7-2&#10;&#9;&#9;c-0.5-0.4-1.7-1-2.4-0.6s-0.3,1.1,0.1,1.6c0.7,0.6,1.5,1.1,1.8,2c0.2,0.7,0.2,1.4-0.1,2.1c-0.2,0.5-0.4,1.1-0.5,1.6&#10;&#9;&#9;c-0.5-0.2-0.9-0.5-1.3-0.8c-0.3-0.2-0.8-0.1-1,0.2c0,0,0,0,0,0.1c-0.2,0.3-0.1,0.8,0.2,1c0,0,0,0,0,0c1.4,1,3,1.7,4.7,2.1&#10;&#9;&#9;c1.5,0.3,3.6,0.6,4.7-0.6c0.3-0.3,0.3-0.7,0-1s-0.7-0.3-1,0l0,0c-0.2,0.2-0.4,0.3-0.6,0.3c-0.2-0.3-0.4-0.7-0.4-1.1&#10;&#9;&#9;c0.2-0.6,0.4-1.2,0.8-1.7c0.6-0.7,1.3-1.3,2.1-1.7c0.2-0.1,0.4-0.2,0.6-0.3c0.3,0,0.7,0.1,1,0.2c0.1,0,0.1,0,0.2,0&#10;&#9;&#9;c0.1-0.1,0.2-0.2,0.2-0.4C211.3,350.1,208.8,350.2,207.6,350.9z M203.6,356.8c-0.3-0.1-0.6-0.1-0.8-0.2l0.1-0.1&#10;&#9;&#9;c0.5-0.6,1.4-1.6,1.7-0.3c0.1,0.3,0.2,0.6,0.4,0.9C204.6,357,204.1,356.9,203.6,356.8L203.6,356.8z"/>
	<path class="st1_travel-planning-63" d="M68,302.1c0,0-21.5,58.6-6.1,64.6s74.4-13.2,74.4-13.2l-5.7-28.2L68,302.1z"/>
	<path class="st2_travel-planning-63" d="M70.2,368.6c-2.9,0.1-5.8-0.3-8.6-1.2c-15.8-6.1,4.8-63,5.7-65.5c0.1-0.2,0.2-0.3,0.4-0.4&#10;&#9;&#9;c0.2-0.1,0.4-0.1,0.5,0l62.6,23.2c0.2,0.1,0.4,0.3,0.4,0.5l5.7,28.2c0.1,0.3-0.1,0.7-0.5,0.8C134.4,354.9,91.8,368.6,70.2,368.6z&#10;&#9;&#9; M68.4,303.1c-3.4,9.6-6.2,19.4-8.5,29.3c-4.4,19.8-3.7,31.4,2.2,33.7c14.1,5.5,67.2-11,73.4-13l-5.5-27.2L68.4,303.1z"/>
	<path class="st3_travel-planning-63 targetColor" d="M88.2,246.3c0,0-10.2,5.6-27.6,66.5L92,324.2L88.2,246.3z" style="fill: rgb(104, 225, 253);"/>
	<path class="st1_travel-planning-63" d="M166.8,298c0,0,28.2,22.5,42.6,18.4c6-1.7,9.6-9.5,12.1-14.6c6.1-12.6,10.1-26.2,14.5-39.4&#10;&#9;&#9;c2-6,4.3-11.8,6.5-17.7c1.4-3.7,1.7-6.4,4.2-9.6c1.5-2,7.6-8.2,5.6-11s-7.5,3.7-7.8-2.2c0.1-1.6,0.7-3.1,1.6-4.4&#10;&#9;&#9;c2,0.5,4.1,0.8,6.2,0.9c0.8,0,1.7-0.1,2-0.8c0.1-0.7-0.1-1.3-0.6-1.8c-3.3-4-8.5-7.1-13.5-5.9s-8.2,6.4-9.4,11.4&#10;&#9;&#9;c-1.4,5.7-0.2,13.1-3.2,18.2c-4.8,8.3-12.6,15.9-18.7,23.4c-3.4,4.2-6.9,8.5-10.4,12.6c-0.9,1-3.6,5.4-5.2,5.5l-12.5-9.2"/>
	<path class="st2_travel-planning-63" d="M205.5,317.5c-15.1,0-38-18.2-39.1-19c-0.3-0.2-0.4-0.6-0.2-0.9c0,0,0,0,0-0.1c0.2-0.3,0.7-0.4,1-0.1&#10;&#9;&#9;c0,0,0,0,0,0c0.3,0.2,28.1,22.2,42,18.2c5.5-1.6,9.1-8.9,11.4-13.8l0.2-0.5c4.9-10.1,8.4-20.9,11.9-31.4c0.9-2.6,1.7-5.3,2.6-7.9&#10;&#9;&#9;c1.4-4.3,3.1-8.6,4.6-12.7c0.6-1.7,1.2-3.3,1.9-5c0.4-1,0.6-1.9,0.9-2.7c0.7-2.6,1.8-5,3.4-7.1c0.2-0.3,0.6-0.7,1-1.2&#10;&#9;&#9;c1.8-2.1,6-7.1,4.6-9c-0.5-0.7-1.5-0.4-3,0.1c-1.3,0.5-2.7,0.9-3.7,0.2c-0.7-0.5-1.1-1.4-1.2-2.9c0.1-1.7,0.7-3.4,1.7-4.8&#10;&#9;&#9;c0.2-0.3,0.5-0.4,0.8-0.3c2,0.5,4,0.8,6.1,0.9c0.7,0,1.2-0.1,1.3-0.4s0-0.4-0.5-1.1c-2.9-3.5-7.8-6.8-12.8-5.6s-7.8,6.4-8.9,10.9&#10;&#9;&#9;c-0.5,2.3-0.7,4.6-0.8,6.9c-0.3,4.1-0.6,8.2-2.5,11.6c-3.4,5.8-8.1,11.2-12.7,16.4c-2.1,2.4-4.1,4.7-6,7c-3.6,4.5-7,8.6-10.4,12.6&#10;&#9;&#9;c-0.2,0.2-0.5,0.6-0.9,1.1c-1.8,2.5-3.4,4.5-4.8,4.7c-0.2,0-0.3,0-0.5-0.1l-12.5-9.2c-0.3-0.2-0.4-0.7-0.2-1c0,0,0,0,0,0&#10;&#9;&#9;c0.2-0.3,0.6-0.4,1-0.2c0,0,0,0,0,0l12.3,9c1-0.4,2.8-2.9,3.6-4c0.4-0.5,0.7-1,0.9-1.2c3.4-4,6.7-8.1,10.4-12.6&#10;&#9;&#9;c1.9-2.3,4-4.7,6.1-7.1c4.6-5.2,9.3-10.5,12.6-16.2c1.8-3,2-7,2.3-10.9c0.1-2.4,0.4-4.8,0.9-7.1c1.2-4.9,4.4-10.6,9.9-11.9&#10;&#9;&#9;s11,2.2,14.2,6.1c0.7,0.6,0.9,1.6,0.7,2.4c-0.2,0.6-0.9,1.3-2.7,1.3c-2-0.1-3.9-0.3-5.8-0.8c-0.8,1-1.2,2.3-1.2,3.6&#10;&#9;&#9;c0.1,1,0.2,1.6,0.6,1.8s1.5,0,2.5-0.4c1.5-0.5,3.5-1.2,4.6,0.4c2,2.8-2.2,7.8-4.7,10.7c-0.4,0.4-0.7,0.8-0.9,1.1&#10;&#9;&#9;c-1.5,2-2.6,4.3-3.2,6.7c-0.3,0.9-0.6,1.8-0.9,2.8c-0.6,1.7-1.2,3.3-1.9,5c-1.6,4.1-3.2,8.4-4.6,12.7c-0.9,2.6-1.8,5.3-2.6,7.9&#10;&#9;&#9;c-3.4,10.5-7,21.5-11.9,31.6l-0.2,0.5c-2.4,5.1-6.1,12.7-12.3,14.5C208.4,317.4,206.9,317.6,205.5,317.5z"/>
	<path class="st1_travel-planning-63" d="M143.9,199.4c0,0,7.9,11.5,6.3,14s-6.9,0.9-6.9,0.9"/>
	<path class="st2_travel-planning-63" d="M146.7,215.5c-1.2,0-2.4-0.2-3.5-0.5c-0.4-0.1-0.6-0.5-0.5-0.9c0.1-0.4,0.5-0.6,0.8-0.5c0,0,0,0,0,0&#10;&#9;&#9;c1.3,0.4,5.1,1,6.1-0.6c0.8-1.3-2.7-7.8-6.3-13.2c-0.2-0.3-0.1-0.8,0.2-1c0.3-0.2,0.8-0.2,1,0.2c0,0,0,0,0,0&#10;&#9;&#9;c1.9,2.8,8,12.1,6.4,14.7C149.9,215.1,148.2,215.5,146.7,215.5z"/>
	<path class="st1_travel-planning-63" d="M142,184c5,3.9,3.7,12.4,3.7,17.9c0.1,7.7-0.1,15.5-0.3,23.2c-0.2,4.9-12.9,5.2-15.1,3.8l2.3,19.4l-26.8-9.8&#10;&#9;&#9;l0.5-22.4c0,0,8.4-0.1,13.2-10.1s4.3-25.4,4.3-25.4S137.1,180.2,142,184z"/>
	<path class="st2_travel-planning-63" d="M132.5,249c-0.1,0-0.2,0-0.2,0l-26.8-9.8c-0.3-0.1-0.5-0.4-0.5-0.7l0.5-22.4c0-0.4,0.3-0.7,0.7-0.7&#10;&#9;&#9;c0.3,0,8-0.2,12.6-9.8c4.7-9.8,4.3-25,4.3-25.1c0-0.2,0.1-0.4,0.2-0.5c0.1-0.1,0.3-0.2,0.5-0.2c0.6,0,13.8-0.3,18.7,3.7l0,0&#10;&#9;&#9;c4.4,3.5,4.2,10.1,4,15.5c0,1.1-0.1,2.1,0,3c0.1,7.7-0.1,15.5-0.4,23.2c0,1-0.5,2.4-2.6,3.5c-3.4,1.8-9.4,2-12.4,1.3l2.2,18.2&#10;&#9;&#9;c0,0.2-0.1,0.5-0.3,0.6C132.8,249,132.7,249,132.5,249z M106.4,238l25.3,9.2l-2.2-18.2c0-0.4,0.2-0.7,0.6-0.8c0.2,0,0.3,0,0.5,0.1&#10;&#9;&#9;c1.5,0.9,8.6,1,12.2-0.9c1.2-0.6,1.9-1.4,1.9-2.4c0.3-7.7,0.4-15.5,0.3-23.2c0-0.9,0-2,0.1-3c0.1-5,0.3-11.3-3.5-14.3l0,0&#10;&#9;&#9;c-4-3.1-14.4-3.4-17.1-3.4c0,3.2-0.2,16.1-4.4,25c-4.2,8.8-11,10.2-13.1,10.5L106.4,238z"/>
	<polygon class="st2_travel-planning-63" points="78.5,394.7 78.5,355.4 167.7,354.9 176.9,394.7 &#9;"/>
	<path class="st2_travel-planning-63" d="M176.9,395.4H78.5c-0.4,0-0.7-0.3-0.7-0.7l0,0v-39.3c0-0.4,0.3-0.7,0.7-0.7c0,0,0,0,0,0l89.2-0.5&#10;&#9;&#9;c0.3,0,0.6,0.2,0.7,0.5l9.2,39.8c0,0.2,0,0.4-0.1,0.6C177.3,395.3,177.1,395.4,176.9,395.4z M79.2,394H176l-8.8-38.4l-87.9,0.5&#10;&#9;&#9;L79.2,394z"/>
	<path class="st3_travel-planning-63 targetColor" d="M147.3,243.5c-12.7-10.9-53.7-12.8-59.1,2.8S74.8,358.9,74.8,358.9c30,10.2,98.4,0.2,98.4,0.2l-9.6-46.8&#10;&#9;&#9;C163.6,312.2,161,255.3,147.3,243.5z" style="fill: rgb(104, 225, 253);"/>
	<path class="st2_travel-planning-63" d="M130.2,228.9c0,0-6.5-0.2-9.7-4.7c0,0,0.4,7.8,10.6,11L130.2,228.9z"/>
	<path class="st2_travel-planning-63" d="M131.1,236c-0.1,0-0.1,0-0.2,0c-10.5-3.4-11-11.3-11-11.7c0-0.4,0.3-0.7,0.7-0.7c0.2,0,0.4,0.1,0.6,0.3&#10;&#9;&#9;c2.9,4.1,9,4.4,9.1,4.4c0.3,0,0.6,0.3,0.7,0.6l0.9,6.4c0,0.2-0.1,0.5-0.2,0.6C131.5,236,131.3,236,131.1,236z M121.9,226.6&#10;&#9;&#9;c0.9,2.3,3.1,5.6,8.4,7.6l-0.7-4.7C126.8,229.3,124.1,228.3,121.9,226.6L121.9,226.6z"/>
	
		<ellipse transform="matrix(5.407879e-02 -0.9985 0.9985 5.407879e-02 -61.8802 326.1174)" class="st2_travel-planning-63" cx="141.2" cy="195.7" rx="2.8" ry="1.1"/>
	<polygon class="st3_travel-planning-63 targetColor" points="147.3,243.5 192.7,272.6 175.4,319.5 140.9,305.6 &#9;" style="fill: rgb(104, 225, 253);"/>
	<path class="st2_travel-planning-63" d="M164.7,315.4c-0.1,0-0.2,0-0.4-0.1c-0.2-0.1-21.4-12.5-31.6-24.1c-0.3-0.3-0.2-0.7,0-1c0,0,0,0,0,0&#10;&#9;&#9;c0.3-0.3,0.7-0.2,1,0.1c10,11.5,31,23.7,31.2,23.9c0.3,0.2,0.4,0.6,0.2,1C165.1,315.2,164.9,315.3,164.7,315.4L164.7,315.4z"/>
	<path class="st2_travel-planning-63" d="M77,335.2L77,335.2c-0.4,0-0.7-0.4-0.7-0.8c1.5-16.2,6.5-59,6.5-59.4c0-0.4,0.4-0.7,0.8-0.6&#10;&#9;&#9;c0.4,0,0.7,0.4,0.6,0.8c0,0,0,0,0,0c0,0.4-5.1,43.2-6.5,59.4C77.7,334.9,77.4,335.2,77,335.2z"/>
	<path class="st2_travel-planning-63" d="M145.6,217.4c0,0-10.1-0.4-10.1,0s2.3,4.1,5.6,5s4.4-2.5,4.4-2.5L145.6,217.4z"/>
	<path class="st2_travel-planning-63" d="M142.2,223.3c-0.4,0-0.9-0.1-1.3-0.2c-3.7-1-6.1-5-6.1-5.7c0-0.2,0.1-0.4,0.2-0.5c0.3-0.2,0.5-0.5,10.6-0.1&#10;&#9;&#9;c0.4,0,0.7,0.3,0.7,0.7c0,0,0,0,0,0l-0.1,2.5c0,0.1,0,0.1,0,0.2C145.7,221.9,144.1,223.2,142.2,223.3z M136.6,218&#10;&#9;&#9;c1.1,1.7,2.8,3.1,4.7,3.8c1.5,0.4,3.1-0.5,3.5-2c0,0,0,0,0,0l0.1-1.7C141.6,218,138.1,217.9,136.6,218z"/>
	<path class="st1_travel-planning-63" d="M93.5,175.4c-7.8,12.2-6.8,26.1-17.5,37.1c-5.7,5.9-12.5,10.6-18.9,15.8c-3.8,3.1-7.5,6.5-10.1,10.8&#10;&#9;&#9;s-3.8,9.4-2.4,14.2c1.1,3.8,3.8,7.3,3.2,11.2c-0.6,3.5-3.7,6-5.2,9.1c-2.4,4.9-0.9,10.9,2.5,15.2s8.2,7,13.1,9.3&#10;&#9;&#9;c20.2,9.5,46.6,17.6,66.6,3.4c9.3-6.6,15-17.5,8.1-27.9c-1.9-2.9-4.7-5.6-5.2-9c-0.3-2.2,0.4-4.4,0.7-6.6&#10;&#9;&#9;c1.2-9.7-8.6-17.6-11.4-26.6c-0.9-3-1.7-6.3-0.8-9.3c0.9-3.2,3.4-5.8,5.3-8.5c6-8.2,6.5-17.7,4.6-27.3c5.5-0.4,16.8,1.3,17.4-6.6&#10;&#9;&#9;c0.7-10.1-19.1-13-25.9-13.2c-7.4-0.2-15.5,0.5-21,5.5C95.5,172.9,94.4,174.1,93.5,175.4z"/>
	<path class="st2_travel-planning-63" d="M99.2,309.9c-11.8,0-25.5-3.7-41.3-11.2c-4.9-2.3-9.9-5-13.4-9.5c-3.2-4-5.2-10.5-2.6-15.9&#10;&#9;&#9;c0.7-1.2,1.4-2.4,2.3-3.5c1.3-1.8,2.5-3.4,2.8-5.4c0.4-2.4-0.6-4.7-1.7-7.1c-0.6-1.2-1.1-2.5-1.5-3.8c-1.3-4.5-0.4-9.9,2.5-14.8&#10;&#9;&#9;c2.7-4.4,6.5-7.9,10.2-10.9c1.9-1.6,3.8-3.1,5.8-4.6c4.6-3.4,8.9-7.2,13-11.2c6-6.2,8.3-13.2,10.6-20.7c1.7-5.4,3.5-11,6.9-16.3&#10;&#9;&#9;l0,0c0.9-1.4,2-2.7,3.2-3.8c5.9-5.4,14.6-5.9,21.5-5.7c4.9,0.1,18.8,1.8,24.3,7.9c1.6,1.6,2.4,3.8,2.2,6.1&#10;&#9;&#9;c-0.5,7.2-8.7,7.2-14.7,7.2c-0.9,0-1.8,0-2.6,0c2,10.9,0.4,19.8-4.9,27c-0.5,0.6-1,1.3-1.5,1.9c-1.6,2.1-3.1,4-3.8,6.3&#10;&#9;&#9;c-0.8,2.9,0,6,0.8,9c1.1,3.4,3.2,6.8,5.3,10.1c3.4,5.3,6.9,10.7,6.1,16.9c-0.1,0.7-0.2,1.4-0.3,2.1c-0.3,1.4-0.5,2.9-0.4,4.4&#10;&#9;&#9;c0.3,2.4,1.8,4.4,3.4,6.4c0.6,0.8,1.2,1.5,1.7,2.3c4.8,7.2,5.5,19.1-8.3,28.8C117.8,307.2,109.1,309.9,99.2,309.9z M94.1,175.9&#10;&#9;&#9;c-3.3,5.1-5,10.6-6.7,15.9c-2.3,7.3-4.7,14.8-11,21.2c-4.1,4.1-8.5,7.8-13.2,11.3c-1.9,1.5-3.9,3-5.8,4.6c-3.7,3-7.4,6.4-9.9,10.6&#10;&#9;&#9;c-2.7,4.5-3.6,9.5-2.4,13.6c0.4,1.2,0.9,2.4,1.4,3.6c1.1,2.5,2.3,5.1,1.8,7.9c-0.4,2.3-1.8,4.2-3.1,6c-0.8,1-1.6,2.2-2.2,3.3&#10;&#9;&#9;c-2.4,4.8-0.5,10.7,2.4,14.4c3.3,4.2,8.2,6.8,12.9,9.1c28.6,13.5,50.1,14.6,66,3.4c8.1-5.8,15-16.2,8-26.9&#10;&#9;&#9;c-0.5-0.8-1.1-1.5-1.6-2.2c-1.6-2.1-3.3-4.4-3.7-7.1c-0.1-1.6,0-3.2,0.4-4.8c0.1-0.7,0.2-1.4,0.3-2c0.7-5.7-2.5-10.7-5.9-16&#10;&#9;&#9;c-2.1-3.3-4.3-6.8-5.5-10.4c-1-3.1-1.7-6.5-0.9-9.7c0.7-2.6,2.4-4.8,4-6.8c0.5-0.6,1-1.2,1.4-1.9c5.2-7.1,6.6-15.8,4.5-26.7&#10;&#9;&#9;c-0.1-0.4,0.2-0.8,0.6-0.8c0,0,0,0,0,0c1-0.1,2.2-0.1,3.4-0.1c5.7,0,12.9,0,13.3-5.9c0.1-1.9-0.6-3.7-1.9-5&#10;&#9;&#9;c-5.2-5.7-18.9-7.3-23.3-7.4c-6.7-0.2-15,0.3-20.5,5.3C95.9,173.4,94.9,174.5,94.1,175.9L94.1,175.9z"/>
	<path class="st1_travel-planning-63" d="M129.1,204.1c-0.1-1.9-1.2-3.7-2.2-5.3c-0.8-1.3-1.7-2.5-2.9-3.5c-1.1-1-2.7-1.4-4.2-1.2&#10;&#9;&#9;c-1.3,0.3-2.4,1.2-3,2.4c-0.6,1.2-0.9,2.5-0.9,3.9c-0.2,5.9,2.9,11.5,7.9,14.6l-0.4-0.5"/>
	<path class="st2_travel-planning-63" d="M123.8,215.7c-0.1,0-0.2,0-0.4-0.1c-5.3-3.3-8.4-9.1-8.2-15.2c0-1.4,0.4-2.9,1-4.1c0.7-1.4,2-2.4,3.5-2.8&#10;&#9;&#9;c1.7-0.3,3.5,0.2,4.8,1.4c1.2,1,2.2,2.3,3,3.6c1,1.5,2.3,3.4,2.4,5.6c0,0.4-0.3,0.7-0.7,0.7c0,0,0,0,0,0c-0.4,0-0.7-0.2-0.7-0.6&#10;&#9;&#9;c0,0,0,0,0-0.1c-0.1-1.8-1.2-3.5-2.1-4.9c-0.7-1.2-1.7-2.3-2.7-3.3c-1-0.9-2.3-1.3-3.6-1.1c-1.1,0.3-2,1.1-2.5,2.1&#10;&#9;&#9;c-0.5,1.1-0.8,2.3-0.8,3.6c-0.1,5.3,2.4,10.3,6.7,13.4c0.2,0,0.4,0.1,0.6,0.2l0.4,0.4c0.2,0.3,0.2,0.7,0,0.9&#10;&#9;&#9;C124.2,215.6,124,215.7,123.8,215.7z"/>
</g>
<g id="Notes_travel-planning-63">
	<rect x="331" y="221.1" class="st1_travel-planning-63" width="31.2" height="31.2"/>
	<path class="st0_travel-planning-63" d="M362.2,253.1H331c-0.4,0-0.7-0.3-0.7-0.7c0,0,0,0,0,0v-31.2c0-0.4,0.3-0.7,0.7-0.7l0,0h31.2&#10;&#9;&#9;c0.4,0,0.7,0.3,0.7,0.7c0,0,0,0,0,0v31.2C362.9,252.8,362.6,253.1,362.2,253.1C362.2,253.1,362.2,253.1,362.2,253.1z M331.7,251.7&#10;&#9;&#9;h29.8v-29.8h-29.8V251.7z"/>
	<path class="st0_travel-planning-63" d="M356.5,228.5h-19.9c-0.4,0-0.7-0.3-0.7-0.7c0-0.4,0.3-0.7,0.7-0.7h19.9c0.4,0,0.7,0.3,0.7,0.7&#10;&#9;&#9;S356.9,228.5,356.5,228.5C356.5,228.5,356.5,228.5,356.5,228.5z"/>
	<path class="st0_travel-planning-63" d="M356.5,234.4h-19.9c-0.4,0-0.7-0.3-0.7-0.7c0-0.4,0.3-0.7,0.7-0.7h19.9c0.4,0,0.7,0.3,0.7,0.7&#10;&#9;&#9;S356.9,234.4,356.5,234.4C356.5,234.4,356.5,234.4,356.5,234.4z"/>
	<path class="st0_travel-planning-63" d="M356.5,240.2h-19.9c-0.4,0-0.7-0.3-0.7-0.7c0-0.4,0.3-0.7,0.7-0.7h19.9c0.4,0,0.7,0.3,0.7,0.7&#10;&#9;&#9;S356.9,240.2,356.5,240.2C356.5,240.2,356.5,240.2,356.5,240.2z"/>
	<path class="st0_travel-planning-63" d="M348.7,246.1h-12c-0.4,0-0.7-0.3-0.7-0.7c0-0.4,0.3-0.7,0.7-0.7h12c0.4,0,0.7,0.3,0.7,0.7&#10;&#9;&#9;C349.4,245.7,349.1,246.1,348.7,246.1z"/>
	<rect x="199.1" y="157.4" class="st1_travel-planning-63" width="31.2" height="31.2"/>
	<path class="st0_travel-planning-63" d="M230.3,189.4h-31.2c-0.4,0-0.7-0.3-0.7-0.7v-31.2c0-0.4,0.3-0.7,0.7-0.7h31.2c0.4,0,0.7,0.3,0.7,0.7v31.2&#10;&#9;&#9;C231,189.1,230.7,189.4,230.3,189.4z M199.8,188h29.8v-29.9h-29.8V188z"/>
	<path class="st0_travel-planning-63" d="M224.6,164.8h-19.9c-0.4,0-0.7-0.3-0.7-0.7c0-0.4,0.3-0.7,0.7-0.7c0,0,0,0,0,0h19.9c0.4,0,0.7,0.3,0.7,0.7&#10;&#9;&#9;C225.3,164.5,225,164.8,224.6,164.8z"/>
	<path class="st0_travel-planning-63" d="M224.6,170.7h-19.9c-0.4,0-0.7-0.3-0.7-0.7c0-0.4,0.3-0.7,0.7-0.7c0,0,0,0,0,0h19.9c0.4,0,0.7,0.3,0.7,0.7&#10;&#9;&#9;C225.3,170.4,225,170.7,224.6,170.7z"/>
	<path class="st0_travel-planning-63" d="M224.6,176.5h-19.9c-0.4,0-0.7-0.3-0.7-0.7c0-0.4,0.3-0.7,0.7-0.7c0,0,0,0,0,0h19.9c0.4,0,0.7,0.3,0.7,0.7&#10;&#9;&#9;C225.3,176.2,225,176.5,224.6,176.5z"/>
	<path class="st0_travel-planning-63" d="M212.6,182.3h-7.9c-0.4,0-0.7-0.3-0.7-0.7c0-0.4,0.3-0.7,0.7-0.7h7.9c0.4,0,0.7,0.3,0.7,0.7&#10;&#9;&#9;C213.3,182,213,182.3,212.6,182.3z"/>
	<rect x="300.9" y="170.3" class="st1_travel-planning-63" width="31.2" height="31.2"/>
	<path class="st0_travel-planning-63" d="M332.1,202.2h-31.2c-0.4,0-0.7-0.3-0.7-0.7c0,0,0,0,0,0v-31.2c0-0.4,0.3-0.7,0.7-0.7l0,0h31.2&#10;&#9;&#9;c0.4,0,0.7,0.3,0.7,0.7c0,0,0,0,0,0v31.2C332.8,201.9,332.5,202.2,332.1,202.2L332.1,202.2z M301.6,200.9h29.8V171h-29.8V200.9z"/>
	<path class="st0_travel-planning-63" d="M326.4,177.7h-19.9c-0.4,0-0.7-0.3-0.7-0.7c0-0.4,0.3-0.7,0.7-0.7h19.9c0.4,0,0.7,0.3,0.7,0.7&#10;&#9;&#9;C327.1,177.4,326.8,177.7,326.4,177.7z"/>
	<path class="st0_travel-planning-63" d="M326.4,183.6h-19.9c-0.4,0-0.7-0.3-0.7-0.7c0-0.4,0.3-0.7,0.7-0.7h19.9c0.4,0,0.7,0.3,0.7,0.7&#10;&#9;&#9;C327.1,183.2,326.8,183.5,326.4,183.6z"/>
	<path class="st0_travel-planning-63" d="M319,189.4h-12.4c-0.4,0-0.7-0.3-0.7-0.7c0-0.4,0.3-0.7,0.7-0.7H319c0.4,0,0.7,0.3,0.7,0.7&#10;&#9;&#9;S319.4,189.4,319,189.4C319,189.4,319,189.4,319,189.4z"/>
	<rect x="398.5" y="325.6" class="st1_travel-planning-63" width="31.2" height="31.2"/>
	<path class="st0_travel-planning-63" d="M429.7,357.6h-31.2c-0.4,0-0.7-0.3-0.7-0.7v0v-31.2c0-0.4,0.3-0.7,0.7-0.7h0h31.2c0.4,0,0.7,0.3,0.7,0.7v0&#10;&#9;&#9;v31.2C430.4,357.3,430.1,357.6,429.7,357.6z M399.2,356.2H429v-29.8h-29.8V356.2z"/>
	<path class="st0_travel-planning-63" d="M424,333h-19.8c-0.4,0-0.7-0.3-0.7-0.7c0-0.4,0.3-0.7,0.7-0.7H424c0.4,0,0.7,0.3,0.7,0.7&#10;&#9;&#9;C424.7,332.7,424.4,333,424,333z"/>
	<path class="st0_travel-planning-63" d="M424,338.9h-19.8c-0.4,0-0.7-0.3-0.7-0.7c0-0.4,0.3-0.7,0.7-0.7H424c0.4,0,0.7,0.3,0.7,0.7&#10;&#9;&#9;C424.7,338.6,424.4,338.9,424,338.9z"/>
	<path class="st0_travel-planning-63" d="M416.6,344.7h-12.5c-0.4,0-0.7-0.3-0.7-0.7c0-0.4,0.3-0.7,0.7-0.7h12.5c0.4,0,0.7,0.3,0.7,0.7&#10;&#9;&#9;C417.3,344.4,417,344.7,416.6,344.7z"/>
	<rect x="358.4" y="172.1" class="st1_travel-planning-63" width="31.2" height="31.2"/>
	<path class="st0_travel-planning-63" d="M389.6,204h-31.2c-0.4,0-0.7-0.3-0.7-0.7v-31.2c0-0.4,0.3-0.7,0.7-0.7l0,0h31.2c0.4,0,0.7,0.3,0.7,0.7&#10;&#9;&#9;c0,0,0,0,0,0v31.2C390.3,203.7,390,204,389.6,204z M359.1,202.6H389v-29.8h-29.9V202.6z"/>
	<path class="st0_travel-planning-63" d="M384,179.5h-19.9c-0.4,0-0.7-0.3-0.7-0.7c0-0.4,0.3-0.7,0.7-0.7H384c0.4,0,0.7,0.3,0.7,0.7&#10;&#9;&#9;C384.7,179.2,384.4,179.5,384,179.5z"/>
	<path class="st0_travel-planning-63" d="M384,185.3h-19.9c-0.4,0-0.7-0.3-0.7-0.7c0-0.4,0.3-0.7,0.7-0.7H384c0.4,0,0.7,0.3,0.7,0.7&#10;&#9;&#9;C384.7,185,384.4,185.3,384,185.3z"/>
	<path class="st0_travel-planning-63" d="M383.5,191.2h-19.4c-0.4,0-0.7-0.3-0.7-0.7s0.3-0.7,0.7-0.7c0,0,0,0,0,0h19.5c0.4,0,0.7,0.3,0.7,0.7&#10;&#9;&#9;C384.2,190.9,383.9,191.2,383.5,191.2L383.5,191.2z"/>
</g>
<g id="Pins_travel-planning-63">
	<path class="st2_travel-planning-63" d="M344.6,221.8l1.9,3.6h2.3l0.2-0.1c-1.2-2.2-2.4-4.5-3.6-6.8c-0.4-0.7-0.7-1.4-1.1-2c-0.2-0.5-0.7-0.8-1.2-0.6&#10;&#9;&#9;c-0.5,0.1-1.1,0.6-0.9,1.1c0.3,0.8,0.7,1.5,1,2.2c0.4,0.7,0.7,1.5,1.1,2.2C344.5,221.6,344.6,221.7,344.6,221.8z"/>
	
		<ellipse transform="matrix(0.8855 -0.4647 0.4647 0.8855 -61.7396 184.5093)" class="st1_travel-planning-63" cx="343.5" cy="217.5" rx="6.5" ry="2.8"/>
	<path class="st2_travel-planning-63" d="M339.9,222.1c-1.1,0.1-2.2-0.4-2.8-1.3c-0.5-0.9-0.2-2.1,0.8-3.4c2.2-2.5,5.3-4.1,8.6-4.5&#10;&#9;&#9;c1.6-0.1,2.8,0.3,3.3,1.2s0.2,2.1-0.8,3.4c-2.2,2.5-5.3,4.1-8.6,4.5C340.2,222.1,340,222.1,339.9,222.1z M347,214.4h-0.4&#10;&#9;&#9;c-1.5,0.2-2.9,0.6-4.2,1.3c-1.3,0.7-2.5,1.6-3.5,2.7c-0.6,0.8-0.9,1.5-0.7,1.9s0.9,0.6,1.9,0.5c1.5-0.2,2.9-0.6,4.2-1.3&#10;&#9;&#9;c1.3-0.7,2.5-1.6,3.5-2.7c0.6-0.8,0.9-1.5,0.7-1.9l0,0C348.4,214.5,347.8,214.4,347,214.4L347,214.4z"/>
	<path class="st1_travel-planning-63" d="M346.7,215.1c-0.5,1.3-1.4,2.3-2.6,2.9c-1.1,0.7-2.5,0.9-3.8,0.5l-3.8-9.2c-0.4-0.9,0-1.9,0.9-2.4l1.5-0.8&#10;&#9;&#9;c0.9-0.4,1.9-0.2,2.5,0.6L346.7,215.1z"/>
	<path class="st2_travel-planning-63" d="M341.5,219.4c-0.5,0-1-0.1-1.5-0.2c-0.2-0.1-0.3-0.2-0.4-0.4l-3.8-9.2c-0.5-1.2,0-2.7,1.2-3.3l1.5-0.8&#10;&#9;&#9;c1.2-0.6,2.7-0.2,3.4,0.9l5.4,8.3c0.1,0.2,0.1,0.4,0.1,0.6c-0.5,1.5-1.6,2.6-3,3.3C343.5,219.1,342.5,219.4,341.5,219.4z&#10;&#9;&#9; M340.8,217.9c1,0.2,2.1,0,3-0.5c0.9-0.5,1.7-1.3,2.2-2.2l-5.2-8c-0.3-0.5-1-0.7-1.6-0.4l-1.5,0.8c-0.6,0.3-0.8,0.9-0.5,1.5&#10;&#9;&#9;L340.8,217.9z"/>
	<path class="st2_travel-planning-63" d="M314.6,169.6c0.6,1.2,1.3,2.4,1.9,3.6h2.3l0.2-0.1c-1.2-2.2-2.4-4.5-3.6-6.8l-1.1-2.1&#10;&#9;&#9;c-0.2-0.5-0.7-0.8-1.2-0.6c-0.5,0.1-1.1,0.6-0.9,1.1c0.3,0.8,0.6,1.5,1,2.2c0.4,0.7,0.7,1.5,1.1,2.2L314.6,169.6z"/>
	
		<ellipse transform="matrix(0.8855 -0.4647 0.4647 0.8855 -40.9246 164.5827)" class="st1_travel-planning-63" cx="313.4" cy="165.3" rx="6.5" ry="2.8"/>
	<path class="st2_travel-planning-63" d="M309.8,169.9c-1.1,0.1-2.2-0.4-2.8-1.3c-0.5-0.9-0.2-2.1,0.8-3.4c1.1-1.2,2.4-2.3,3.9-3&#10;&#9;&#9;c1.5-0.8,3.1-1.3,4.7-1.5c1.6-0.1,2.8,0.3,3.3,1.2s0.2,2.1-0.8,3.4c-2.2,2.5-5.3,4.1-8.6,4.5C310.2,169.9,310,169.9,309.8,169.9z&#10;&#9;&#9; M317,162.1h-0.4c-1.5,0.2-2.9,0.6-4.2,1.3c-1.3,0.7-2.5,1.6-3.5,2.7c-0.6,0.8-0.9,1.5-0.7,1.9s0.9,0.6,1.9,0.5&#10;&#9;&#9;c1.5-0.2,2.9-0.6,4.2-1.3c1.3-0.7,2.5-1.6,3.5-2.7c0.6-0.8,0.9-1.5,0.7-1.9l0,0C318.4,162.3,317.8,162.1,317,162.1L317,162.1z"/>
	<path class="st1_travel-planning-63" d="M316.7,162.9c-0.5,1.3-1.4,2.3-2.7,2.9c-1.1,0.7-2.5,0.9-3.8,0.5l-3.8-9.2c-0.4-0.9,0-1.9,0.9-2.4l1.5-0.8&#10;&#9;&#9;c0.9-0.5,1.9-0.2,2.5,0.6L316.7,162.9z"/>
	<path class="st2_travel-planning-63" d="M311.5,167.2c-0.5,0-1-0.1-1.5-0.2c-0.2-0.1-0.3-0.2-0.4-0.4l-3.8-9.2c-0.5-1.2,0-2.7,1.2-3.3l1.5-0.8&#10;&#9;&#9;c1.2-0.6,2.7-0.2,3.4,0.9l5.4,8.3c0.1,0.2,0.1,0.4,0.1,0.6c-0.5,1.5-1.6,2.6-3,3.3C313.5,166.9,312.5,167.2,311.5,167.2z&#10;&#9;&#9; M310.8,165.7c1,0.2,2.1,0,3-0.5c0.9-0.5,1.7-1.3,2.2-2.2l-5.2-8c-0.3-0.5-1-0.7-1.6-0.4l-1.5,0.8c-0.6,0.3-0.8,0.9-0.6,1.5&#10;&#9;&#9;L310.8,165.7z"/>
	<path class="st2_travel-planning-63" d="M211.2,156.3l1.9,3.6h2.3l0.2-0.1c-1.2-2.3-2.4-4.5-3.6-6.8l-1.1-2c-0.2-0.5-0.7-0.8-1.2-0.6&#10;&#9;&#9;c-0.5,0.1-1.1,0.6-0.9,1.1c0.3,0.8,0.6,1.5,1,2.2c0.4,0.8,0.7,1.5,1.1,2.2L211.2,156.3z"/>
	<ellipse transform="matrix(0.8855 -0.4647 0.4647 0.8855 -46.5797 114.9752)" class="st1_travel-planning-63" cx="210" cy="152" rx="6.5" ry="2.8"/>
	<path class="st2_travel-planning-63" d="M206.4,156.6c-1.1,0.1-2.2-0.4-2.8-1.3c-0.9-1.8,1.1-4.5,4.7-6.4c1.5-0.8,3.1-1.3,4.7-1.5&#10;&#9;&#9;c1.6-0.1,2.8,0.3,3.3,1.2s0.2,2.1-0.8,3.4c-1.1,1.2-2.4,2.3-3.9,3C210,156,208.2,156.5,206.4,156.6z M213.6,148.8h-0.4&#10;&#9;&#9;c-1.5,0.2-2.9,0.6-4.2,1.3c-3.1,1.6-4.5,3.8-4.1,4.5s3,0.8,6.1-0.8c1.3-0.7,2.5-1.6,3.4-2.7c0.6-0.8,0.9-1.5,0.7-1.9l0,0&#10;&#9;&#9;C214.9,149,214.3,148.8,213.6,148.8z"/>
	<path class="st1_travel-planning-63" d="M213.2,149.6c-0.5,1.3-1.4,2.3-2.6,2.9c-1.1,0.7-2.5,0.9-3.8,0.5l-3.8-9.2c-0.4-0.9,0-2,0.9-2.4l1.5-0.8&#10;&#9;&#9;c0.9-0.5,1.9-0.2,2.5,0.6L213.2,149.6z"/>
	<path class="st2_travel-planning-63" d="M208,153.9c-0.5,0-1-0.1-1.5-0.2c-0.2-0.1-0.3-0.2-0.4-0.4l-3.8-9.2c-0.5-1.2,0-2.7,1.2-3.3l1.5-0.7&#10;&#9;&#9;c1.2-0.6,2.7-0.2,3.4,0.9l5.4,8.3c0.1,0.2,0.1,0.4,0.1,0.6C212.9,152.2,210.6,153.8,208,153.9L208,153.9z M207.3,152.4&#10;&#9;&#9;c1,0.2,2.1,0,2.9-0.5c0.9-0.5,1.7-1.2,2.2-2.2l-5.2-8c-0.3-0.5-1-0.7-1.6-0.4l-1.5,0.8c-0.5,0.3-0.8,0.9-0.6,1.5L207.3,152.4z"/>
	<path class="st2_travel-planning-63" d="M371.2,172.1l1.9,3.6h2.3l0.2-0.1c-1.2-2.3-2.4-4.5-3.6-6.8c-0.4-0.7-0.7-1.4-1.1-2c-0.2-0.5-0.7-0.8-1.2-0.6&#10;&#9;&#9;c-0.5,0.1-1.1,0.6-0.9,1.1c0.3,0.8,0.7,1.5,1,2.2c0.4,0.7,0.7,1.5,1.1,2.2C371.1,171.9,371.2,172,371.2,172.1z"/>
	<ellipse transform="matrix(0.8855 -0.4647 0.4647 0.8855 -35.5987 191.1682)" class="st1_travel-planning-63" cx="370" cy="167.8" rx="6.5" ry="2.8"/>
	<path class="st2_travel-planning-63" d="M366.5,172.4c-1.1,0.1-2.2-0.4-2.8-1.3c-0.5-0.9-0.2-2.1,0.8-3.4c1.1-1.2,2.4-2.3,3.9-3&#10;&#9;&#9;c1.5-0.8,3.1-1.3,4.7-1.5c1.6-0.1,2.8,0.3,3.3,1.2s0.2,2.1-0.8,3.4c-2.2,2.5-5.3,4.1-8.6,4.5L366.5,172.4z M373.6,164.7h-0.4&#10;&#9;&#9;c-1.5,0.2-2.9,0.6-4.2,1.3c-1.3,0.7-2.5,1.6-3.5,2.7c-0.6,0.8-0.9,1.5-0.7,1.9s0.9,0.6,1.9,0.5c1.5-0.2,2.9-0.6,4.1-1.3&#10;&#9;&#9;c1.3-0.7,2.5-1.6,3.5-2.7c0.6-0.8,0.9-1.5,0.7-1.9l0,0C375,164.8,374.4,164.6,373.6,164.7L373.6,164.7z"/>
	<path class="st1_travel-planning-63" d="M373.3,165.4c-0.5,1.3-1.4,2.3-2.6,2.9c-1.1,0.7-2.5,0.9-3.8,0.5l-3.8-9.2c-0.4-0.9,0-2,0.9-2.4l1.5-0.8&#10;&#9;&#9;c0.9-0.5,1.9-0.2,2.5,0.6L373.3,165.4z"/>
	<path class="st2_travel-planning-63" d="M368.1,169.7c-0.5,0-1-0.1-1.5-0.3c-0.2-0.1-0.3-0.2-0.4-0.4l-3.8-9.2c-0.5-1.2,0-2.7,1.2-3.3l1.5-0.8&#10;&#9;&#9;c1.2-0.6,2.7-0.2,3.4,0.9l5.4,8.3c0.1,0.2,0.1,0.4,0.1,0.6c-0.5,1.5-1.6,2.6-3,3.3C370.1,169.4,369.1,169.7,368.1,169.7z&#10;&#9;&#9; M367.4,168.2c1,0.2,2.1,0,3-0.5c0.9-0.5,1.7-1.2,2.2-2.2l-5.2-8c-0.3-0.5-1-0.7-1.6-0.4l-1.5,0.8c-0.6,0.3-0.8,0.9-0.5,1.5&#10;&#9;&#9;L367.4,168.2z"/>
	<path class="st2_travel-planning-63" d="M266,223.8l4,0.5l1.3-1.9v-0.2c-2.5-0.3-5.1-0.6-7.6-0.9l-2.3-0.3c-0.5-0.1-1,0.1-1.2,0.6&#10;&#9;&#9;c-0.2,0.5-0.2,1.2,0.4,1.4c0.8,0.2,1.6,0.3,2.4,0.4c0.8,0.1,1.6,0.3,2.5,0.4L266,223.8z"/>
	<ellipse transform="matrix(0.1298 -0.9915 0.9915 0.1298 7.3941 453.0133)" class="st1_travel-planning-63" cx="261.8" cy="222.3" rx="6.5" ry="2.8"/>
	<path class="st2_travel-planning-63" d="M261.1,229.4h-0.2c-1-0.1-1.9-1.1-2.3-2.6c-0.4-1.6-0.5-3.3-0.2-4.9c0.5-4,2.4-6.9,4.4-6.7&#10;&#9;&#9;c1,0.1,1.9,1.1,2.3,2.6c0.4,1.6,0.5,3.3,0.2,4.9C264.7,226.6,263,229.4,261.1,229.4z M262.5,216.5c-0.9,0-2.3,2-2.8,5.4&#10;&#9;&#9;c-0.2,1.5-0.2,2.9,0.2,4.4c0.3,0.9,0.7,1.6,1.1,1.6c0.8,0.1,2.4-2,2.8-5.4c0.2-1.5,0.2-2.9-0.2-4.4&#10;&#9;&#9;C263.4,217.2,263,216.6,262.5,216.5L262.5,216.5z"/>
	<path class="st1_travel-planning-63" d="M261.7,218.2c0.8,1.1,1.1,2.5,0.8,3.8c-0.1,1.3-0.7,2.6-1.8,3.4l-9.7-2.2c-1-0.2-1.6-1.1-1.5-2.1l0.2-1.6&#10;&#9;&#9;c0.1-1,1-1.7,2-1.6L261.7,218.2z"/>
	<path class="st2_travel-planning-63" d="M260.7,226.1c0,0-0.1,0-0.1,0l-9.7-2.2c-1.3-0.3-2.2-1.5-2-2.9l0.2-1.6c0.2-1.3,1.3-2.3,2.7-2.3l9.9,0.4&#10;&#9;&#9;c0.2,0,0.4,0.1,0.5,0.3c0.9,1.3,1.2,2.8,1,4.4c-0.1,1.5-0.9,3-2.1,3.9C261,226.1,260.9,226.1,260.7,226.1z M251.7,218.6&#10;&#9;&#9;c-0.6,0-1.1,0.4-1.2,1l-0.2,1.6c-0.1,0.6,0.3,1.2,0.9,1.3l9.4,2.1c0.7-0.7,1.2-1.7,1.3-2.7c0.2-1.1,0-2.1-0.5-3.1L251.7,218.6&#10;&#9;&#9;L251.7,218.6z"/>
</g>
<g id="Hat_travel-planning-63">
	<path class="st1_travel-planning-63" d="M69.4,201.5c0,0,99.5-12.6,100-33.3s-42.1-16.9-75.5-3.8C62,177,47.9,202.1,69.4,201.5z"/>
	<path class="st2_travel-planning-63" d="M68.7,202.2c-7.8,0-9.7-3.5-10.2-5.7c-1.7-8.3,12.3-23.8,35.1-32.8c24.8-9.7,58.1-15.2,71-6.2&#10;&#9;&#9;c3.6,2.3,5.6,6.4,5.4,10.7c-0.5,21.1-96.5,33.5-100.6,34L68.7,202.2L68.7,202.2z M69.4,201.5L69.4,201.5z M144.5,154.3&#10;&#9;&#9;c-15.1,0-34.4,4.5-50.3,10.8c-21.5,8.5-35.8,23.4-34.3,31.2c0.8,3.9,5.6,4.6,9.4,4.6c1.1-0.1,25.5-3.3,49.7-8.9&#10;&#9;&#9;c32.3-7.4,49.4-15.7,49.6-23.8c0.2-3.8-1.6-7.4-4.8-9.5C159.5,155.6,152.6,154.3,144.5,154.3L144.5,154.3z"/>
	<path class="st1_travel-planning-63" d="M138.8,166.8c0,0-25.4,19.2-51.8,17.4c0,0-6.6-22.9,6.7-32.9s29.9-6.4,34.3-3.4&#10;&#9;&#9;C135.5,152.8,138.8,166.8,138.8,166.8z"/>
	<path class="st2_travel-planning-63" d="M90.5,185c-1.2,0-2.4,0-3.6-0.1c-0.3,0-0.5-0.2-0.6-0.5c-1.1-4.2-1.7-8.5-1.7-12.9c0-9.4,3-16.5,8.6-20.8&#10;&#9;&#9;c13.5-10.2,30.4-6.7,35.2-3.5c7.6,5.1,10.9,18.8,11.1,19.3c0.1,0.3,0,0.6-0.3,0.7C139,167.5,115.6,185,90.5,185z M87.5,183.5&#10;&#9;&#9;c24,1.4,47.3-14.7,50.5-17c-0.6-2.4-4-13.8-10.4-18c-4.4-2.9-20.8-6.2-33.5,3.4C82.4,160.7,86.7,180.2,87.5,183.5L87.5,183.5z"/>
	<path class="st2_travel-planning-63" d="M85.4,177.2c-0.4,0-0.7-0.3-0.7-0.7c0-0.4,0.3-0.7,0.7-0.7c0.4,0,35.7-4.4,50.4-17.1c0.3-0.3,0.7-0.2,1,0.1&#10;&#9;&#9;c0.3,0.3,0.2,0.7-0.1,1l0,0C121.6,172.7,86.9,177,85.4,177.2L85.4,177.2z"/>
</g>
<g id="photo_travel-planning-63">
	<rect x="321.9" y="329" class="st1_travel-planning-63" width="69.2" height="42.4"/>
	<path class="st0_travel-planning-63" d="M391.2,372.1h-69.2c-0.4,0-0.7-0.3-0.7-0.7v0V329c0-0.4,0.3-0.7,0.7-0.7h0h69.2c0.4,0,0.7,0.3,0.7,0.7v42.4&#10;&#9;&#9;C391.9,371.8,391.5,372.1,391.2,372.1z M322.6,370.8h67.9v-41h-67.9V370.8z"/>
	<path class="st0_travel-planning-63" d="M385.6,367.7h-58.2c-0.4,0-0.7-0.3-0.7-0.7v-33.5c0-0.4,0.3-0.7,0.7-0.7h58.2c0.4,0,0.7,0.3,0.7,0.7v0V367&#10;&#9;&#9;C386.3,367.4,386,367.7,385.6,367.7z M328.1,366.3h56.8v-32.1h-56.8V366.3z"/>
	<path class="st0_travel-planning-63" d="M327.4,359.3c-0.2,0-0.4-0.1-0.6-0.3c-0.2-0.3-0.2-0.7,0.1-1c0,0,0,0,0,0c3.9-2.9,23.4-17.5,27.1-16.3&#10;&#9;&#9;s16.2,13.7,16.7,14.2c0.3,0.3,0.3,0.7,0,1s-0.7,0.3-1,0c-3.5-3.5-13.4-13-16.1-13.9c-2-0.6-14.7,7.6-25.8,16&#10;&#9;&#9;C327.7,359.2,327.6,359.3,327.4,359.3z"/>
	<path class="st0_travel-planning-63" d="M385.6,355.3c-0.2,0-0.4-0.1-0.5-0.2c-1.7-1.8-6.8-6.6-9.2-7c-2-0.3-5.9,3.6-7.8,6.1c-0.2,0.3-0.7,0.4-1,0.2&#10;&#9;&#9;c-0.3-0.2-0.4-0.7-0.2-1c0,0,0,0,0-0.1c0.6-0.8,5.7-7.3,9.2-6.7c3.3,0.5,9.3,6.7,10,7.4c0.3,0.3,0.3,0.7,0,1&#10;&#9;&#9;C386,355.3,385.8,355.3,385.6,355.3z"/>
	<path class="st0_travel-planning-63" d="M368.6,345.7c-2,0-3.6-1.6-3.6-3.6s1.6-3.6,3.6-3.6s3.6,1.6,3.6,3.6l0,0C372.2,344.1,370.6,345.7,368.6,345.7z&#10;&#9;&#9; M368.6,340c-1.2,0-2.2,1-2.2,2.2s1,2.2,2.2,2.2s2.2-1,2.2-2.2C370.8,341,369.8,340,368.6,340L368.6,340z"/>
	<rect x="353.6" y="323.3" class="st0_travel-planning-63" width="5.9" height="8.3"/>
</g>
</svg>